M48
METRIC,TZ
T1C0.300
%
T1
X977500Y637500
X977500Y632500
X1445000Y590000
X1445000Y585000
X1625000Y175000
X1625000Y170000
X375000Y150000
X375000Y145000
X395000Y120000
X390000Y120000
X285000Y527500
X285000Y522500
X145000Y190000
X145000Y185000
X932500Y1280000
X932500Y1275000
X215000Y190000
X215000Y185000
X680000Y1280000
X680000Y1275000
X705000Y1280000
X705000Y1275000
X217500Y1050000
X217500Y1055000
X242500Y1050000
X247500Y1050000
X627500Y1280000
X627500Y1275000
X267500Y1050000
X272500Y1050000
X292500Y1050000
X297500Y1050000
X320000Y1050000
X325000Y1050000
X345000Y1050000
X350000Y1050000
X600000Y325000
X757500Y325000
X600000Y340000
X752500Y340000
X500000Y315000
X747500Y315000
X600000Y332500
X742500Y332500
X500000Y347500
X737500Y347500
X762500Y672500
X762500Y662500
X500000Y325000
X505000Y325000
X500000Y332500
X595000Y320000
X370000Y1050000
X375000Y1050000
X500000Y307500
X772500Y307500
X762500Y692500
X757500Y667500
X500000Y355000
X722500Y355000
X395000Y1050000
X400000Y1050000
X762500Y647500
X762500Y607500
X600000Y315000
X1155000Y312500
X420000Y1050000
X425000Y1280000
X1150000Y205000
X952500Y205000
X600000Y205000
X862500Y205000
X445000Y1050000
X450000Y1050000
X1150000Y220000
X947500Y220000
X600000Y220000
X867500Y220000
X450000Y1275000
X450000Y1280000
X1150000Y227500
X937500Y227500
X600000Y227500
X872500Y227500
X472500Y1050000
X477500Y1050000
X1150000Y245000
X932500Y245000
X600000Y245000
X877500Y245000
X1150000Y252500
X927500Y252500
X600000Y252500
X882500Y252500
X497500Y1050000
X502500Y1050000
X477500Y1275000
X477500Y1280000
X522500Y1050000
X527500Y1050000
X1150000Y267500
X922500Y267500
X600000Y267500
X887500Y267500
X1150000Y275000
X917500Y275000
X600000Y275000
X907500Y275000
X547500Y1050000
X552500Y1050000
X1150000Y292500
X912500Y292500
X600000Y292500
X605000Y292500
X572500Y1050000
X577500Y1050000
X502500Y1275000
X502500Y1280000
X597500Y1050000
X602500Y1050000
X222500Y1275000
X222500Y1280000
X527500Y1275000
X527500Y1280000
X622500Y1050000
X627500Y1280000
X600000Y347500
X1155000Y345000
X600000Y355000
X1155000Y352500
X650000Y1050000
X655000Y1050000
X600000Y365000
X797500Y365000
X500000Y365000
X787500Y360000
X1445000Y680000
X1445000Y675000
X247500Y1275000
X247500Y1280000
X1150000Y372500
X590000Y372500
X600000Y372500
X857500Y372500
X552500Y1275000
X552500Y1280000
X1150000Y380000
X687500Y380000
X600000Y380000
X1155000Y385000
X1150000Y387500
X802500Y387500
X600000Y387500
X817500Y392500
X1150000Y395000
X667500Y395000
X600000Y395000
X1170000Y395000
X272500Y1275000
X272500Y1280000
X577500Y1275000
X577500Y1280000
X297500Y1275000
X297500Y1280000
X602500Y1275000
X602500Y1280000
X325000Y1275000
X325000Y1280000
X762500Y632500
X757500Y612500
X762500Y622500
X752500Y617500
X762500Y627500
X215000Y512500
X762500Y617500
X762500Y602500
X215000Y505000
X350000Y1275000
X350000Y1280000
X375000Y1275000
X375000Y1280000
X762500Y662500
X762500Y657500
X742500Y627500
X400000Y1275000
X400000Y1280000
X285000Y525000
X285000Y517500
X977500Y632500
X977500Y627500
X977500Y607500
X222500Y380000
X222500Y375000
X1100000Y875000
X995000Y875000
X977500Y642500
X982500Y642500
X932500Y727500
X987500Y727500
X1000000Y862500
X995000Y862500
X977500Y647500
X987500Y647500
X977500Y607500
X982500Y607500
X977500Y592500
X992500Y592500
X977500Y587500
X1100000Y887500
X245000Y680000
X240000Y680000
X285000Y560000
X285000Y547500
X285000Y547500
X280000Y547500
X255000Y680000
X260000Y680000
X285000Y555000
X280000Y402500
X285000Y567500
X275000Y537500
M30
