%FSLAX46Y46*%
%MOMM*%
G04 Generated by PCB Engine 2026-04-28T09:48:58.086151*
%ADD10R,0.600X1.000*%
D10*
X12070000Y128000000D03*
X14610000Y128000000D03*
X17150000Y128000000D03*
X19690000Y128000000D03*
X22230000Y128000000D03*
X24770000Y128000000D03*
X27310000Y128000000D03*
X29850000Y128000000D03*
X32390000Y128000000D03*
X34930000Y128000000D03*
X37470000Y128000000D03*
X40010000Y128000000D03*
X42550000Y128000000D03*
X45090000Y128000000D03*
X47630000Y128000000D03*
X50170000Y128000000D03*
X52710000Y128000000D03*
X55250000Y128000000D03*
X57790000Y128000000D03*
X60330000Y128000000D03*
X62870000Y128000000D03*
X65410000Y128000000D03*
X67950000Y128000000D03*
X70490000Y128000000D03*
X73030000Y128000000D03*
X75570000Y128000000D03*
X78110000Y128000000D03*
X80650000Y128000000D03*
X83190000Y128000000D03*
X85730000Y128000000D03*
X88270000Y128000000D03*
X90810000Y128000000D03*
X93350000Y128000000D03*
X95890000Y128000000D03*
X98430000Y128000000D03*
X100970000Y128000000D03*
X103510000Y128000000D03*
X106050000Y128000000D03*
X108590000Y128000000D03*
X111130000Y128000000D03*
X113670000Y128000000D03*
X116210000Y128000000D03*
X118750000Y128000000D03*
X121290000Y128000000D03*
X123830000Y128000000D03*
X126370000Y128000000D03*
X128910000Y128000000D03*
X131450000Y128000000D03*
X133990000Y128000000D03*
X136530000Y128000000D03*
X139070000Y128000000D03*
X141610000Y128000000D03*
X144150000Y128000000D03*
X146690000Y128000000D03*
X149230000Y128000000D03*
X151770000Y128000000D03*
X154310000Y128000000D03*
X156850000Y128000000D03*
X159390000Y128000000D03*
X161930000Y128000000D03*
M02*
