%FSLAX46Y46*%
%MOMM*%
G04 Generated by PCB Engine 2026-04-28T09:48:58.083904*
%ADD10R,0.25X0.25*%
%ADD11R,0.600X1.000*%
D10*
X76250000Y61250000D02*
X97750000Y61250000D01*
D10*
X97750000Y61250000D02*
X97750000Y63750000D01*
D10*
X97750000Y63250000D02*
X97750000Y61750000D01*
D10*
X97750000Y61750000D02*
X98250000Y61750000D01*
D10*
X98250000Y61750000D02*
X98250000Y59000000D01*
D10*
X98250000Y59000000D02*
X144500000Y59000000D01*
D10*
X144500000Y58500000D02*
X144500000Y17500000D01*
D10*
X144500000Y17500000D02*
X162500000Y17500000D01*
D10*
X162500000Y17000000D02*
X162500000Y15000000D01*
D10*
X162500000Y15000000D02*
X37500000Y15000000D01*
D10*
X37500000Y14500000D02*
X37500000Y12000000D01*
D10*
X37500000Y12000000D02*
X39500000Y12000000D01*
D10*
X39000000Y12000000D02*
X38000000Y12000000D01*
D10*
X38000000Y12000000D02*
X38000000Y12500000D01*
D10*
X38000000Y12500000D02*
X21500000Y12500000D01*
D10*
X21500000Y12500000D02*
X21500000Y58750000D01*
D10*
X76250000Y70750000D02*
X76250000Y61750000D01*
D10*
X76250000Y61750000D02*
X75750000Y61750000D01*
D10*
X75750000Y61750000D02*
X75750000Y52750000D01*
D10*
X75750000Y52750000D02*
X28500000Y52750000D01*
D10*
X28500000Y52250000D02*
X28500000Y20000000D01*
D10*
X28500000Y20000000D02*
X157500000Y20000000D01*
D10*
X28500000Y53250000D02*
X29000000Y53250000D01*
D10*
X29000000Y53250000D02*
X29000000Y22500000D01*
D10*
X29000000Y22500000D02*
X162500000Y22500000D01*
D10*
X94750000Y72750000D02*
X94750000Y19000000D01*
D10*
X94750000Y19000000D02*
X14500000Y19000000D01*
D10*
X14500000Y18500000D02*
X14500000Y15000000D01*
D10*
X90750000Y72750000D02*
X93250000Y72750000D01*
D10*
X93250000Y72750000D02*
X93250000Y128000000D01*
D10*
X93250000Y127500000D02*
X93250000Y112000000D01*
D10*
X93250000Y112000000D02*
X14500000Y112000000D01*
D10*
X95250000Y72750000D02*
X95250000Y19500000D01*
D10*
X95250000Y19500000D02*
X94250000Y19500000D01*
D10*
X94250000Y19500000D02*
X94250000Y19000000D01*
D10*
X94250000Y19000000D02*
X21500000Y19000000D01*
D10*
X21500000Y18500000D02*
X21500000Y15000000D01*
D10*
X91250000Y72750000D02*
X91250000Y73250000D01*
D10*
X91250000Y73250000D02*
X68000000Y73250000D01*
D10*
X68000000Y73250000D02*
X68000000Y128000000D01*
D10*
X68000000Y127500000D02*
X68000000Y112000000D01*
D10*
X68000000Y112000000D02*
X22500000Y112000000D01*
D10*
X91750000Y72750000D02*
X91750000Y73750000D01*
D10*
X91750000Y73750000D02*
X70500000Y73750000D01*
D10*
X70500000Y73750000D02*
X70500000Y128000000D01*
D10*
X70500000Y127500000D02*
X70500000Y112500000D01*
D10*
X70500000Y112500000D02*
X67500000Y112500000D01*
D10*
X67500000Y112500000D02*
X67500000Y112000000D01*
D10*
X67500000Y112000000D02*
X30500000Y112000000D01*
D10*
X78250000Y72750000D02*
X21750000Y72750000D01*
D10*
X21750000Y72750000D02*
X21750000Y105000000D01*
D10*
X21750000Y105500000D02*
X22000000Y105500000D01*
D10*
X22000000Y105500000D02*
X22000000Y112500000D01*
D10*
X22000000Y112500000D02*
X22250000Y112500000D01*
D10*
X22250000Y112500000D02*
X22250000Y128000000D01*
D10*
X78750000Y72750000D02*
X78750000Y73250000D01*
D10*
X78750000Y73250000D02*
X68500000Y73250000D01*
D10*
X68500000Y73250000D02*
X68500000Y73750000D01*
D10*
X68500000Y73750000D02*
X24250000Y73750000D01*
D10*
X24250000Y73750000D02*
X24250000Y105000000D01*
D10*
X24750000Y105000000D02*
X24750000Y128000000D01*
D10*
X92750000Y72750000D02*
X92250000Y72750000D01*
D10*
X92250000Y72750000D02*
X92250000Y74250000D01*
D10*
X92250000Y74250000D02*
X62750000Y74250000D01*
D10*
X62750000Y74250000D02*
X62750000Y128000000D01*
D10*
X62750000Y127500000D02*
X62750000Y112000000D01*
D10*
X62750000Y112000000D02*
X38500000Y112000000D01*
D10*
X79250000Y72750000D02*
X79250000Y73750000D01*
D10*
X79250000Y73750000D02*
X71000000Y73750000D01*
D10*
X71000000Y73750000D02*
X71000000Y74250000D01*
D10*
X71000000Y74250000D02*
X63250000Y74250000D01*
D10*
X63250000Y74250000D02*
X63250000Y74750000D01*
D10*
X63250000Y74750000D02*
X26750000Y74750000D01*
D10*
X26750000Y74750000D02*
X26750000Y105000000D01*
D10*
X27250000Y105000000D02*
X27250000Y128000000D01*
D10*
X79750000Y72750000D02*
X79750000Y74250000D01*
D10*
X79750000Y74250000D02*
X71500000Y74250000D01*
D10*
X71500000Y74250000D02*
X71500000Y74750000D01*
D10*
X71500000Y74750000D02*
X63750000Y74750000D01*
D10*
X63750000Y74750000D02*
X63750000Y75250000D01*
D10*
X63750000Y75250000D02*
X29250000Y75250000D01*
D10*
X29250000Y75250000D02*
X29250000Y105000000D01*
D10*
X29750000Y105000000D02*
X29750000Y128000000D01*
D10*
X80250000Y72750000D02*
X80250000Y74750000D01*
D10*
X80250000Y74750000D02*
X72000000Y74750000D01*
D10*
X72000000Y74750000D02*
X72000000Y75250000D01*
D10*
X72000000Y75250000D02*
X64250000Y75250000D01*
D10*
X64250000Y75250000D02*
X64250000Y75750000D01*
D10*
X64250000Y75750000D02*
X32000000Y75750000D01*
D10*
X32000000Y75750000D02*
X32000000Y105000000D01*
D10*
X32500000Y105000000D02*
X32500000Y128000000D01*
D10*
X80750000Y72750000D02*
X80750000Y75250000D01*
D10*
X80750000Y75250000D02*
X72500000Y75250000D01*
D10*
X72500000Y75250000D02*
X72500000Y75750000D01*
D10*
X72500000Y75750000D02*
X64750000Y75750000D01*
D10*
X64750000Y75750000D02*
X64750000Y76250000D01*
D10*
X64750000Y76250000D02*
X34500000Y76250000D01*
D10*
X34500000Y76250000D02*
X34500000Y105000000D01*
D10*
X35000000Y105000000D02*
X35000000Y128000000D01*
D10*
X76250000Y68750000D02*
X76250000Y62250000D01*
D10*
X76250000Y62250000D02*
X75250000Y62250000D01*
D10*
X75250000Y62250000D02*
X75250000Y32500000D01*
D10*
X75250000Y32500000D02*
X60000000Y32500000D01*
D10*
X75750000Y32500000D02*
X125000000Y32500000D01*
D10*
X76250000Y70250000D02*
X76250000Y69250000D01*
D10*
X76250000Y69250000D02*
X75750000Y69250000D01*
D10*
X75750000Y69250000D02*
X75750000Y62750000D01*
D10*
X75750000Y62750000D02*
X74750000Y62750000D01*
D10*
X74750000Y62750000D02*
X74750000Y34000000D01*
D10*
X74750000Y34000000D02*
X60000000Y34000000D01*
D10*
X75250000Y34000000D02*
X125000000Y34000000D01*
D10*
X76250000Y66750000D02*
X76250000Y63250000D01*
D10*
X76250000Y63250000D02*
X74250000Y63250000D01*
D10*
X74250000Y63250000D02*
X74250000Y31500000D01*
D10*
X74250000Y31500000D02*
X50000000Y31500000D01*
D10*
X74750000Y31500000D02*
X115000000Y31500000D01*
D10*
X76250000Y68250000D02*
X76250000Y67250000D01*
D10*
X76250000Y67250000D02*
X75750000Y67250000D01*
D10*
X75750000Y67250000D02*
X75750000Y63750000D01*
D10*
X75750000Y63750000D02*
X73750000Y63750000D01*
D10*
X73750000Y63750000D02*
X73750000Y33250000D01*
D10*
X73750000Y33250000D02*
X60000000Y33250000D01*
D10*
X74250000Y33250000D02*
X125000000Y33250000D01*
D10*
X76250000Y69750000D02*
X75250000Y69750000D01*
D10*
X75250000Y69750000D02*
X75250000Y64250000D01*
D10*
X75250000Y64250000D02*
X73250000Y64250000D01*
D10*
X73250000Y64250000D02*
X73250000Y34750000D01*
D10*
X73250000Y34750000D02*
X50000000Y34750000D01*
D10*
X73750000Y34750000D02*
X115000000Y34750000D01*
D10*
X76250000Y66250000D02*
X76250000Y64750000D01*
D10*
X76250000Y64750000D02*
X72750000Y64750000D01*
D10*
X72750000Y64750000D02*
X72750000Y34500000D01*
D10*
X72750000Y34500000D02*
X59500000Y34500000D01*
D10*
X59500000Y34500000D02*
X59500000Y32500000D01*
D10*
X59500000Y32500000D02*
X50000000Y32500000D01*
D10*
X50500000Y32500000D02*
X59000000Y32500000D01*
D10*
X59000000Y32500000D02*
X59000000Y32000000D01*
D10*
X59000000Y32000000D02*
X115000000Y32000000D01*
D10*
X115000000Y32000000D02*
X115000000Y32500000D01*
D10*
X76250000Y67750000D02*
X75250000Y67750000D01*
D10*
X75250000Y67750000D02*
X75250000Y65250000D01*
D10*
X75250000Y65250000D02*
X72250000Y65250000D01*
D10*
X72250000Y65250000D02*
X72250000Y35000000D01*
D10*
X72250000Y35000000D02*
X59000000Y35000000D01*
D10*
X59000000Y35000000D02*
X59000000Y33250000D01*
D10*
X59000000Y33250000D02*
X50000000Y33250000D01*
D10*
X59500000Y32000000D02*
X114500000Y32000000D01*
D10*
X114500000Y32000000D02*
X114500000Y33000000D01*
D10*
X114500000Y33000000D02*
X115000000Y33000000D01*
D10*
X115000000Y33000000D02*
X115000000Y33250000D01*
D10*
X81250000Y72750000D02*
X81250000Y75750000D01*
D10*
X81250000Y75750000D02*
X73000000Y75750000D01*
D10*
X73000000Y75750000D02*
X73000000Y76250000D01*
D10*
X73000000Y76250000D02*
X65250000Y76250000D01*
D10*
X65250000Y76250000D02*
X65250000Y76750000D01*
D10*
X65250000Y76750000D02*
X37000000Y76750000D01*
D10*
X37000000Y76750000D02*
X37000000Y105000000D01*
D10*
X37500000Y105000000D02*
X37500000Y128000000D01*
D10*
X76250000Y65250000D02*
X76750000Y65250000D01*
D10*
X76750000Y65250000D02*
X76750000Y30750000D01*
D10*
X76750000Y30750000D02*
X50000000Y30750000D01*
D10*
X77250000Y30750000D02*
X115000000Y30750000D01*
D10*
X75750000Y66750000D02*
X75750000Y65750000D01*
D10*
X75750000Y65750000D02*
X71750000Y65750000D01*
D10*
X71750000Y65750000D02*
X71750000Y35500000D01*
D10*
X71750000Y35500000D02*
X50000000Y35500000D01*
D10*
X72250000Y35500000D02*
X115000000Y35500000D01*
D10*
X82750000Y72750000D02*
X81750000Y72750000D01*
D10*
X81750000Y72750000D02*
X81750000Y76250000D01*
D10*
X81750000Y76250000D02*
X73500000Y76250000D01*
D10*
X73500000Y76250000D02*
X73500000Y76750000D01*
D10*
X73500000Y76750000D02*
X65750000Y76750000D01*
D10*
X65750000Y76750000D02*
X65750000Y77250000D01*
D10*
X65750000Y77250000D02*
X39500000Y77250000D01*
D10*
X39500000Y77250000D02*
X39500000Y105000000D01*
D10*
X40000000Y105000000D02*
X40000000Y128000000D01*
D10*
X76250000Y60750000D02*
X76250000Y32000000D01*
D10*
X76250000Y32000000D02*
X73750000Y32000000D01*
D10*
X73750000Y32000000D02*
X73750000Y31500000D01*
D10*
X73750000Y31500000D02*
X60000000Y31500000D01*
D10*
X115500000Y31250000D02*
X125000000Y31250000D01*
D10*
X125000000Y31250000D02*
X125000000Y31500000D01*
D10*
X100000000Y87500000D02*
X42500000Y87500000D01*
D10*
X42500000Y87500000D02*
X42500000Y128000000D01*
D10*
X83250000Y72750000D02*
X83250000Y73250000D01*
D10*
X83250000Y73250000D02*
X82250000Y73250000D01*
D10*
X82250000Y73250000D02*
X82250000Y76750000D01*
D10*
X82250000Y76750000D02*
X74000000Y76750000D01*
D10*
X74000000Y76750000D02*
X74000000Y77250000D01*
D10*
X74000000Y77250000D02*
X66250000Y77250000D01*
D10*
X66250000Y77250000D02*
X66250000Y77750000D01*
D10*
X66250000Y77750000D02*
X42000000Y77750000D01*
D10*
X42000000Y77750000D02*
X42000000Y105000000D01*
D10*
X95750000Y51250000D02*
X95750000Y20500000D01*
D10*
X95750000Y20500000D02*
X115000000Y20500000D01*
D10*
X95250000Y20500000D02*
X50000000Y20500000D01*
D10*
X85750000Y51250000D02*
X85750000Y20500000D01*
D10*
X85750000Y20500000D02*
X60000000Y20500000D01*
D10*
X86250000Y20500000D02*
X94750000Y20500000D01*
D10*
X94750000Y20500000D02*
X94750000Y20000000D01*
D10*
X94750000Y20000000D02*
X125000000Y20000000D01*
D10*
X125000000Y20000000D02*
X125000000Y20500000D01*
D10*
X97750000Y70250000D02*
X97750000Y64250000D01*
D10*
X97750000Y64250000D02*
X97250000Y64250000D01*
D10*
X97250000Y64250000D02*
X97250000Y51750000D01*
D10*
X97250000Y51750000D02*
X85250000Y51750000D01*
D10*
X85250000Y51750000D02*
X85250000Y51500000D01*
D10*
X85250000Y51500000D02*
X21500000Y51500000D01*
D10*
X83750000Y72750000D02*
X83750000Y73750000D01*
D10*
X83750000Y73750000D02*
X82750000Y73750000D01*
D10*
X82750000Y73750000D02*
X82750000Y77250000D01*
D10*
X82750000Y77250000D02*
X74500000Y77250000D01*
D10*
X74500000Y77250000D02*
X74500000Y77750000D01*
D10*
X74500000Y77750000D02*
X66750000Y77750000D01*
D10*
X66750000Y77750000D02*
X66750000Y78250000D01*
D10*
X66750000Y78250000D02*
X44500000Y78250000D01*
D10*
X44500000Y78250000D02*
X44500000Y105000000D01*
D10*
X45000000Y105000000D02*
X45000000Y128000000D01*
D10*
X95250000Y51250000D02*
X95250000Y22000000D01*
D10*
X95250000Y22000000D02*
X115000000Y22000000D01*
D10*
X94750000Y22000000D02*
X50000000Y22000000D01*
D10*
X86250000Y51250000D02*
X86250000Y22000000D01*
D10*
X86250000Y22000000D02*
X60000000Y22000000D01*
D10*
X86750000Y22000000D02*
X94250000Y22000000D01*
D10*
X94250000Y22000000D02*
X94250000Y21500000D01*
D10*
X94250000Y21500000D02*
X125000000Y21500000D01*
D10*
X125000000Y21500000D02*
X125000000Y22000000D01*
D10*
X100000000Y88750000D02*
X45500000Y88750000D01*
D10*
X45500000Y88750000D02*
X45500000Y105500000D01*
D10*
X45500000Y105500000D02*
X45000000Y105500000D01*
D10*
X45000000Y105500000D02*
X45000000Y127500000D01*
D10*
X94250000Y51250000D02*
X94250000Y22750000D01*
D10*
X94250000Y22750000D02*
X115000000Y22750000D01*
D10*
X93750000Y22750000D02*
X50000000Y22750000D01*
D10*
X86750000Y51250000D02*
X86750000Y22750000D01*
D10*
X86750000Y22750000D02*
X60000000Y22750000D01*
D10*
X87250000Y22750000D02*
X93250000Y22750000D01*
D10*
X93250000Y22750000D02*
X93250000Y23250000D01*
D10*
X93250000Y23250000D02*
X115500000Y23250000D01*
D10*
X115500000Y23250000D02*
X115500000Y22750000D01*
D10*
X115500000Y22750000D02*
X125000000Y22750000D01*
D10*
X84250000Y72750000D02*
X84250000Y74250000D01*
D10*
X84250000Y74250000D02*
X83250000Y74250000D01*
D10*
X83250000Y74250000D02*
X83250000Y77750000D01*
D10*
X83250000Y77750000D02*
X75000000Y77750000D01*
D10*
X75000000Y77750000D02*
X75000000Y78250000D01*
D10*
X75000000Y78250000D02*
X67250000Y78250000D01*
D10*
X67250000Y78250000D02*
X67250000Y78750000D01*
D10*
X67250000Y78750000D02*
X47250000Y78750000D01*
D10*
X47250000Y78750000D02*
X47250000Y105000000D01*
D10*
X47750000Y105000000D02*
X47750000Y128000000D01*
D10*
X93750000Y51250000D02*
X93750000Y24500000D01*
D10*
X93750000Y24500000D02*
X115000000Y24500000D01*
D10*
X93250000Y24500000D02*
X50000000Y24500000D01*
D10*
X87250000Y51250000D02*
X87250000Y24500000D01*
D10*
X87250000Y24500000D02*
X60000000Y24500000D01*
D10*
X87750000Y24500000D02*
X92750000Y24500000D01*
D10*
X92750000Y24500000D02*
X92750000Y24000000D01*
D10*
X92750000Y24000000D02*
X125000000Y24000000D01*
D10*
X125000000Y24000000D02*
X125000000Y24500000D01*
D10*
X93250000Y51250000D02*
X93250000Y25250000D01*
D10*
X93250000Y25250000D02*
X115000000Y25250000D01*
D10*
X92750000Y25250000D02*
X50000000Y25250000D01*
D10*
X87750000Y51250000D02*
X87750000Y25250000D01*
D10*
X87750000Y25250000D02*
X60000000Y25250000D01*
D10*
X88250000Y25250000D02*
X92250000Y25250000D01*
D10*
X92250000Y25250000D02*
X92250000Y25750000D01*
D10*
X92250000Y25750000D02*
X115500000Y25750000D01*
D10*
X115500000Y25750000D02*
X115500000Y25250000D01*
D10*
X115500000Y25250000D02*
X125000000Y25250000D01*
D10*
X84750000Y72750000D02*
X84750000Y74750000D01*
D10*
X84750000Y74750000D02*
X83750000Y74750000D01*
D10*
X83750000Y74750000D02*
X83750000Y78250000D01*
D10*
X83750000Y78250000D02*
X75500000Y78250000D01*
D10*
X75500000Y78250000D02*
X75500000Y78750000D01*
D10*
X75500000Y78750000D02*
X67750000Y78750000D01*
D10*
X67750000Y78750000D02*
X67750000Y79250000D01*
D10*
X67750000Y79250000D02*
X49750000Y79250000D01*
D10*
X49750000Y79250000D02*
X49750000Y105000000D01*
D10*
X50250000Y105000000D02*
X50250000Y128000000D01*
D10*
X100000000Y90000000D02*
X48250000Y90000000D01*
D10*
X48250000Y90000000D02*
X48250000Y105500000D01*
D10*
X48250000Y105500000D02*
X47750000Y105500000D01*
D10*
X47750000Y105500000D02*
X47750000Y127500000D01*
D10*
X86750000Y72750000D02*
X85250000Y72750000D01*
D10*
X85250000Y72750000D02*
X85250000Y75250000D01*
D10*
X85250000Y75250000D02*
X84250000Y75250000D01*
D10*
X84250000Y75250000D02*
X84250000Y78750000D01*
D10*
X84250000Y78750000D02*
X76000000Y78750000D01*
D10*
X76000000Y78750000D02*
X76000000Y79250000D01*
D10*
X76000000Y79250000D02*
X68250000Y79250000D01*
D10*
X68250000Y79250000D02*
X68250000Y79750000D01*
D10*
X68250000Y79750000D02*
X52250000Y79750000D01*
D10*
X52250000Y79750000D02*
X52250000Y105000000D01*
D10*
X52750000Y105000000D02*
X52750000Y128000000D01*
D10*
X92750000Y51250000D02*
X92750000Y26750000D01*
D10*
X92750000Y26750000D02*
X115000000Y26750000D01*
D10*
X92250000Y26750000D02*
X50000000Y26750000D01*
D10*
X88250000Y51250000D02*
X88250000Y26750000D01*
D10*
X88250000Y26750000D02*
X60000000Y26750000D01*
D10*
X88750000Y26750000D02*
X91750000Y26750000D01*
D10*
X91750000Y26750000D02*
X91750000Y26250000D01*
D10*
X91750000Y26250000D02*
X125000000Y26250000D01*
D10*
X125000000Y26250000D02*
X125000000Y26750000D01*
D10*
X92250000Y51250000D02*
X92250000Y27500000D01*
D10*
X92250000Y27500000D02*
X115000000Y27500000D01*
D10*
X91750000Y27500000D02*
X50000000Y27500000D01*
D10*
X90250000Y51250000D02*
X90250000Y27500000D01*
D10*
X90250000Y27500000D02*
X60000000Y27500000D01*
D10*
X90750000Y27500000D02*
X91250000Y27500000D01*
D10*
X91250000Y27500000D02*
X91250000Y28000000D01*
D10*
X91250000Y28000000D02*
X115500000Y28000000D01*
D10*
X115500000Y28000000D02*
X115500000Y27500000D01*
D10*
X115500000Y27500000D02*
X125000000Y27500000D01*
D10*
X87250000Y72750000D02*
X87250000Y73250000D01*
D10*
X87250000Y73250000D02*
X85750000Y73250000D01*
D10*
X85750000Y73250000D02*
X85750000Y75750000D01*
D10*
X85750000Y75750000D02*
X84750000Y75750000D01*
D10*
X84750000Y75750000D02*
X84750000Y79250000D01*
D10*
X84750000Y79250000D02*
X76500000Y79250000D01*
D10*
X76500000Y79250000D02*
X76500000Y79750000D01*
D10*
X76500000Y79750000D02*
X68750000Y79750000D01*
D10*
X68750000Y79750000D02*
X68750000Y80250000D01*
D10*
X68750000Y80250000D02*
X54750000Y80250000D01*
D10*
X54750000Y80250000D02*
X54750000Y105000000D01*
D10*
X55250000Y105000000D02*
X55250000Y128000000D01*
D10*
X91750000Y51250000D02*
X91750000Y29250000D01*
D10*
X91750000Y29250000D02*
X115000000Y29250000D01*
D10*
X91250000Y29250000D02*
X50000000Y29250000D01*
D10*
X91250000Y51250000D02*
X91250000Y29750000D01*
D10*
X91250000Y29750000D02*
X90750000Y29750000D01*
D10*
X90750000Y29750000D02*
X90750000Y29250000D01*
D10*
X90750000Y29250000D02*
X60000000Y29250000D01*
D10*
X60500000Y29250000D02*
X90250000Y29250000D01*
D10*
X90250000Y29250000D02*
X90250000Y28750000D01*
D10*
X90250000Y28750000D02*
X125000000Y28750000D01*
D10*
X125000000Y28750000D02*
X125000000Y29250000D01*
D10*
X88750000Y72750000D02*
X87750000Y72750000D01*
D10*
X87750000Y72750000D02*
X87750000Y73750000D01*
D10*
X87750000Y73750000D02*
X86250000Y73750000D01*
D10*
X86250000Y73750000D02*
X86250000Y76250000D01*
D10*
X86250000Y76250000D02*
X85250000Y76250000D01*
D10*
X85250000Y76250000D02*
X85250000Y79750000D01*
D10*
X85250000Y79750000D02*
X77000000Y79750000D01*
D10*
X77000000Y79750000D02*
X77000000Y80250000D01*
D10*
X77000000Y80250000D02*
X69250000Y80250000D01*
D10*
X69250000Y80250000D02*
X69250000Y80750000D01*
D10*
X69250000Y80750000D02*
X57250000Y80750000D01*
D10*
X57250000Y80750000D02*
X57250000Y105000000D01*
D10*
X57750000Y105000000D02*
X57750000Y128000000D01*
D10*
X100000000Y91250000D02*
X50750000Y91250000D01*
D10*
X50750000Y91250000D02*
X50750000Y105500000D01*
D10*
X50750000Y105500000D02*
X50250000Y105500000D01*
D10*
X50250000Y105500000D02*
X50250000Y127500000D01*
D10*
X89250000Y72750000D02*
X89250000Y73250000D01*
D10*
X89250000Y73250000D02*
X88250000Y73250000D01*
D10*
X88250000Y73250000D02*
X88250000Y74250000D01*
D10*
X88250000Y74250000D02*
X86750000Y74250000D01*
D10*
X86750000Y74250000D02*
X86750000Y76750000D01*
D10*
X86750000Y76750000D02*
X85750000Y76750000D01*
D10*
X85750000Y76750000D02*
X85750000Y80250000D01*
D10*
X85750000Y80250000D02*
X77500000Y80250000D01*
D10*
X77500000Y80250000D02*
X77500000Y80750000D01*
D10*
X77500000Y80750000D02*
X69750000Y80750000D01*
D10*
X69750000Y80750000D02*
X69750000Y81250000D01*
D10*
X69750000Y81250000D02*
X59750000Y81250000D01*
D10*
X59750000Y81250000D02*
X59750000Y105000000D01*
D10*
X60250000Y105000000D02*
X60250000Y128000000D01*
D10*
X65000000Y87500000D02*
X43000000Y87500000D01*
D10*
X43000000Y87500000D02*
X43000000Y88000000D01*
D10*
X43000000Y88000000D02*
X23000000Y88000000D01*
D10*
X23000000Y88000000D02*
X23000000Y112500000D01*
D10*
X23000000Y112500000D02*
X22750000Y112500000D01*
D10*
X22750000Y112500000D02*
X22750000Y113000000D01*
D10*
X22750000Y113000000D02*
X22250000Y113000000D01*
D10*
X22250000Y113000000D02*
X22250000Y127500000D01*
D10*
X100000000Y92750000D02*
X53250000Y92750000D01*
D10*
X53250000Y92750000D02*
X53250000Y105500000D01*
D10*
X53250000Y105500000D02*
X52750000Y105500000D01*
D10*
X52750000Y105500000D02*
X52750000Y127500000D01*
D10*
X89750000Y72750000D02*
X89750000Y73750000D01*
D10*
X89750000Y73750000D02*
X88750000Y73750000D01*
D10*
X88750000Y73750000D02*
X88750000Y74750000D01*
D10*
X88750000Y74750000D02*
X87250000Y74750000D01*
D10*
X87250000Y74750000D02*
X87250000Y77250000D01*
D10*
X87250000Y77250000D02*
X86250000Y77250000D01*
D10*
X86250000Y77250000D02*
X86250000Y80750000D01*
D10*
X86250000Y80750000D02*
X78000000Y80750000D01*
D10*
X78000000Y80750000D02*
X78000000Y81250000D01*
D10*
X78000000Y81250000D02*
X70250000Y81250000D01*
D10*
X70250000Y81250000D02*
X70250000Y81750000D01*
D10*
X70250000Y81750000D02*
X62250000Y81750000D01*
D10*
X62250000Y81750000D02*
X62250000Y105000000D01*
D10*
X78250000Y51250000D02*
X78250000Y36000000D01*
D10*
X78250000Y36000000D02*
X71250000Y36000000D01*
D10*
X71250000Y36000000D02*
X71250000Y34750000D01*
D10*
X71250000Y34750000D02*
X60000000Y34750000D01*
D10*
X115500000Y34500000D02*
X125000000Y34500000D01*
D10*
X125000000Y34500000D02*
X125000000Y34750000D01*
D10*
X79250000Y51250000D02*
X79250000Y36500000D01*
D10*
X79250000Y36500000D02*
X70750000Y36500000D01*
D10*
X70750000Y36500000D02*
X70750000Y35500000D01*
D10*
X70750000Y35500000D02*
X60000000Y35500000D01*
D10*
X115500000Y35250000D02*
X125000000Y35250000D01*
D10*
X125000000Y35250000D02*
X125000000Y35500000D01*
D10*
X90250000Y72750000D02*
X90250000Y74250000D01*
D10*
X90250000Y74250000D02*
X89250000Y74250000D01*
D10*
X89250000Y74250000D02*
X89250000Y75250000D01*
D10*
X89250000Y75250000D02*
X87750000Y75250000D01*
D10*
X87750000Y75250000D02*
X87750000Y77750000D01*
D10*
X87750000Y77750000D02*
X86750000Y77750000D01*
D10*
X86750000Y77750000D02*
X86750000Y81250000D01*
D10*
X86750000Y81250000D02*
X78500000Y81250000D01*
D10*
X78500000Y81250000D02*
X78500000Y81750000D01*
D10*
X78500000Y81750000D02*
X70750000Y81750000D01*
D10*
X70750000Y81750000D02*
X70750000Y82250000D01*
D10*
X70750000Y82250000D02*
X65500000Y82250000D01*
D10*
X65500000Y82250000D02*
X65500000Y88000000D01*
D10*
X65500000Y88000000D02*
X65000000Y88000000D01*
D10*
X65000000Y88000000D02*
X65000000Y105000000D01*
D10*
X65500000Y105000000D02*
X65500000Y128000000D01*
D10*
X79750000Y51250000D02*
X79750000Y37000000D01*
D10*
X79750000Y37000000D02*
X70250000Y37000000D01*
D10*
X70250000Y37000000D02*
X70250000Y36500000D01*
D10*
X70250000Y36500000D02*
X60000000Y36500000D01*
D10*
X79750000Y36500000D02*
X125000000Y36500000D01*
D10*
X78750000Y51250000D02*
X78750000Y37500000D01*
D10*
X78750000Y37500000D02*
X69750000Y37500000D01*
D10*
X69750000Y37500000D02*
X69750000Y37000000D01*
D10*
X69750000Y37000000D02*
X59500000Y37000000D01*
D10*
X59500000Y37000000D02*
X59500000Y36500000D01*
D10*
X59500000Y36500000D02*
X50000000Y36500000D01*
D10*
X78750000Y36000000D02*
X115000000Y36000000D01*
D10*
X115000000Y36000000D02*
X115000000Y36500000D01*
D10*
X97750000Y65250000D02*
X97750000Y64750000D01*
D10*
X97750000Y64750000D02*
X98250000Y64750000D01*
D10*
X98250000Y64750000D02*
X98250000Y62250000D01*
D10*
X98250000Y62250000D02*
X98750000Y62250000D01*
D10*
X98750000Y62250000D02*
X98750000Y40750000D01*
D10*
X98750000Y40750000D02*
X152750000Y40750000D01*
D10*
X97750000Y65750000D02*
X144500000Y65750000D01*
D10*
X144500000Y65750000D02*
X144500000Y68000000D01*
D10*
X144500000Y67500000D02*
X144500000Y66250000D01*
D10*
X144500000Y66250000D02*
X145000000Y66250000D01*
D10*
X145000000Y66250000D02*
X145000000Y38000000D01*
D10*
X145000000Y38000000D02*
X147250000Y38000000D01*
D10*
X65000000Y88750000D02*
X46000000Y88750000D01*
D10*
X46000000Y88750000D02*
X46000000Y89250000D01*
D10*
X46000000Y89250000D02*
X25250000Y89250000D01*
D10*
X25250000Y89250000D02*
X25250000Y105500000D01*
D10*
X25250000Y105500000D02*
X24750000Y105500000D01*
D10*
X24750000Y105500000D02*
X24750000Y127500000D01*
D10*
X97750000Y66250000D02*
X98250000Y66250000D01*
D10*
X98250000Y66250000D02*
X98250000Y65250000D01*
D10*
X98250000Y65250000D02*
X98750000Y65250000D01*
D10*
X98750000Y65250000D02*
X98750000Y62750000D01*
D10*
X98750000Y62750000D02*
X99250000Y62750000D01*
D10*
X99250000Y62750000D02*
X99250000Y42000000D01*
D10*
X99250000Y42000000D02*
X152750000Y42000000D01*
D10*
X85250000Y51250000D02*
X85250000Y37250000D01*
D10*
X85250000Y37250000D02*
X115000000Y37250000D01*
D10*
X59000000Y37250000D02*
X50000000Y37250000D01*
D10*
X80250000Y51250000D02*
X80250000Y38000000D01*
D10*
X80250000Y38000000D02*
X69250000Y38000000D01*
D10*
X69250000Y38000000D02*
X69250000Y37250000D01*
D10*
X69250000Y37250000D02*
X60000000Y37250000D01*
D10*
X85750000Y37250000D02*
X114500000Y37250000D01*
D10*
X114500000Y37250000D02*
X114500000Y37750000D01*
D10*
X114500000Y37750000D02*
X115500000Y37750000D01*
D10*
X115500000Y37750000D02*
X115500000Y37250000D01*
D10*
X115500000Y37250000D02*
X125000000Y37250000D01*
D10*
X100000000Y94000000D02*
X55750000Y94000000D01*
D10*
X55750000Y94000000D02*
X55750000Y105500000D01*
D10*
X55750000Y105500000D02*
X55250000Y105500000D01*
D10*
X55250000Y105500000D02*
X55250000Y127500000D01*
D10*
X84750000Y51250000D02*
X84750000Y38250000D01*
D10*
X84750000Y38250000D02*
X115000000Y38250000D01*
D10*
X115000000Y38250000D02*
X115000000Y38000000D01*
D10*
X68750000Y38000000D02*
X50000000Y38000000D01*
D10*
X80750000Y51250000D02*
X80750000Y38500000D01*
D10*
X80750000Y38500000D02*
X68250000Y38500000D01*
D10*
X68250000Y38500000D02*
X68250000Y38000000D01*
D10*
X68250000Y38000000D02*
X60000000Y38000000D01*
D10*
X115500000Y38500000D02*
X115500000Y38250000D01*
D10*
X115500000Y38250000D02*
X116000000Y38250000D01*
D10*
X116000000Y38250000D02*
X116000000Y38000000D01*
D10*
X116000000Y38000000D02*
X125000000Y38000000D01*
D10*
X83750000Y51250000D02*
X83750000Y38750000D01*
D10*
X83750000Y38750000D02*
X115000000Y38750000D01*
D10*
X80250000Y38750000D02*
X68750000Y38750000D01*
D10*
X68750000Y38750000D02*
X68750000Y39000000D01*
D10*
X68750000Y39000000D02*
X67750000Y39000000D01*
D10*
X67750000Y39000000D02*
X67750000Y38750000D01*
D10*
X67750000Y38750000D02*
X50000000Y38750000D01*
D10*
X81250000Y51250000D02*
X81250000Y39500000D01*
D10*
X81250000Y39500000D02*
X67250000Y39500000D01*
D10*
X67250000Y39500000D02*
X67250000Y38750000D01*
D10*
X67250000Y38750000D02*
X60000000Y38750000D01*
D10*
X81750000Y39250000D02*
X115500000Y39250000D01*
D10*
X115500000Y39250000D02*
X115500000Y39000000D01*
D10*
X115500000Y39000000D02*
X116000000Y39000000D01*
D10*
X116000000Y39000000D02*
X116000000Y38750000D01*
D10*
X116000000Y38750000D02*
X125000000Y38750000D01*
D10*
X97750000Y66750000D02*
X98750000Y66750000D01*
D10*
X98750000Y66750000D02*
X98750000Y65750000D01*
D10*
X98750000Y65750000D02*
X99250000Y65750000D01*
D10*
X99250000Y65750000D02*
X99250000Y63250000D01*
D10*
X99250000Y63250000D02*
X99750000Y63250000D01*
D10*
X99750000Y63250000D02*
X99750000Y39750000D01*
D10*
X99750000Y39750000D02*
X116000000Y39750000D01*
D10*
X116000000Y39750000D02*
X116000000Y39500000D01*
D10*
X116000000Y39500000D02*
X116500000Y39500000D01*
D10*
X116500000Y39500000D02*
X116500000Y39250000D01*
D10*
X116500000Y39250000D02*
X147250000Y39250000D01*
D10*
X83250000Y51250000D02*
X83250000Y40250000D01*
D10*
X83250000Y40250000D02*
X100250000Y40250000D01*
D10*
X100250000Y40250000D02*
X100250000Y39500000D01*
D10*
X100250000Y39500000D02*
X115000000Y39500000D01*
D10*
X66750000Y39500000D02*
X50000000Y39500000D01*
D10*
X82750000Y51250000D02*
X82750000Y40000000D01*
D10*
X82750000Y40000000D02*
X66250000Y40000000D01*
D10*
X66250000Y40000000D02*
X66250000Y39500000D01*
D10*
X66250000Y39500000D02*
X60000000Y39500000D01*
D10*
X117000000Y39500000D02*
X125000000Y39500000D01*
D10*
X65000000Y90000000D02*
X48750000Y90000000D01*
D10*
X48750000Y90000000D02*
X48750000Y90500000D01*
D10*
X48750000Y90500000D02*
X27750000Y90500000D01*
D10*
X27750000Y90500000D02*
X27750000Y105500000D01*
D10*
X27750000Y105500000D02*
X27250000Y105500000D01*
D10*
X27250000Y105500000D02*
X27250000Y127500000D01*
D10*
X100000000Y95250000D02*
X58250000Y95250000D01*
D10*
X58250000Y95250000D02*
X58250000Y105500000D01*
D10*
X58250000Y105500000D02*
X57750000Y105500000D01*
D10*
X57750000Y105500000D02*
X57750000Y127500000D01*
D10*
X65000000Y91250000D02*
X51250000Y91250000D01*
D10*
X51250000Y91250000D02*
X51250000Y91750000D01*
D10*
X51250000Y91750000D02*
X30250000Y91750000D01*
D10*
X30250000Y91750000D02*
X30250000Y105500000D01*
D10*
X30250000Y105500000D02*
X29750000Y105500000D01*
D10*
X29750000Y105500000D02*
X29750000Y127500000D01*
D10*
X100000000Y96500000D02*
X60750000Y96500000D01*
D10*
X60750000Y96500000D02*
X60750000Y105500000D01*
D10*
X60750000Y105500000D02*
X60250000Y105500000D01*
D10*
X60250000Y105500000D02*
X60250000Y127500000D01*
D10*
X76250000Y65750000D02*
X77250000Y65750000D01*
D10*
X77250000Y65750000D02*
X77250000Y34000000D01*
D10*
X77250000Y34000000D02*
X115000000Y34000000D01*
D10*
X65000000Y92750000D02*
X53750000Y92750000D01*
D10*
X53750000Y92750000D02*
X53750000Y93250000D01*
D10*
X53750000Y93250000D02*
X33000000Y93250000D01*
D10*
X33000000Y93250000D02*
X33000000Y105500000D01*
D10*
X33000000Y105500000D02*
X32500000Y105500000D01*
D10*
X32500000Y105500000D02*
X32500000Y127500000D01*
D10*
X75750000Y61250000D02*
X75750000Y53250000D01*
D10*
X75750000Y53250000D02*
X75250000Y53250000D01*
D10*
X75250000Y53250000D02*
X75250000Y50750000D01*
D10*
X75250000Y50750000D02*
X21500000Y50750000D01*
D10*
X75250000Y61750000D02*
X75250000Y53750000D01*
D10*
X75250000Y53750000D02*
X74750000Y53750000D01*
D10*
X74750000Y53750000D02*
X74750000Y50000000D01*
D10*
X74750000Y50000000D02*
X21500000Y50000000D01*
D10*
X65000000Y94000000D02*
X56250000Y94000000D01*
D10*
X56250000Y94000000D02*
X56250000Y94500000D01*
D10*
X56250000Y94500000D02*
X35500000Y94500000D01*
D10*
X35500000Y94500000D02*
X35500000Y105500000D01*
D10*
X35500000Y105500000D02*
X35000000Y105500000D01*
D10*
X35000000Y105500000D02*
X35000000Y127500000D01*
D10*
X97750000Y58250000D02*
X93750000Y58250000D01*
D10*
X93750000Y58250000D02*
X93750000Y73250000D01*
D10*
X93750000Y73250000D02*
X92750000Y73250000D01*
D10*
X92750000Y73250000D02*
X92750000Y74750000D01*
D10*
X92750000Y74750000D02*
X89750000Y74750000D01*
D10*
X89750000Y74750000D02*
X89750000Y75750000D01*
D10*
X89750000Y75750000D02*
X88250000Y75750000D01*
D10*
X88250000Y75750000D02*
X88250000Y78250000D01*
D10*
X88250000Y78250000D02*
X87250000Y78250000D01*
D10*
X87250000Y78250000D02*
X87250000Y81750000D01*
D10*
X87250000Y81750000D02*
X79000000Y81750000D01*
D10*
X79000000Y81750000D02*
X79000000Y82250000D01*
D10*
X79000000Y82250000D02*
X75000000Y82250000D01*
D10*
X75000000Y82250000D02*
X75000000Y97750000D01*
D10*
X97750000Y57750000D02*
X94250000Y57750000D01*
D10*
X94250000Y57750000D02*
X94250000Y73750000D01*
D10*
X94250000Y73750000D02*
X93250000Y73750000D01*
D10*
X93250000Y73750000D02*
X93250000Y75250000D01*
D10*
X93250000Y75250000D02*
X90250000Y75250000D01*
D10*
X90250000Y75250000D02*
X90250000Y76250000D01*
D10*
X90250000Y76250000D02*
X88750000Y76250000D01*
D10*
X88750000Y76250000D02*
X88750000Y78750000D01*
D10*
X88750000Y78750000D02*
X87750000Y78750000D01*
D10*
X87750000Y78750000D02*
X87750000Y82250000D01*
D10*
X87750000Y82250000D02*
X79500000Y82250000D01*
D10*
X79500000Y82250000D02*
X79500000Y82750000D01*
D10*
X79500000Y82750000D02*
X75000000Y82750000D01*
D10*
X75000000Y82750000D02*
X75000000Y96500000D01*
D10*
X97750000Y57250000D02*
X95750000Y57250000D01*
D10*
X95750000Y57250000D02*
X95750000Y73250000D01*
D10*
X95750000Y73250000D02*
X94750000Y73250000D01*
D10*
X94750000Y73250000D02*
X94750000Y74250000D01*
D10*
X94750000Y74250000D02*
X93750000Y74250000D01*
D10*
X93750000Y74250000D02*
X93750000Y75750000D01*
D10*
X93750000Y75750000D02*
X90750000Y75750000D01*
D10*
X90750000Y75750000D02*
X90750000Y76750000D01*
D10*
X90750000Y76750000D02*
X89250000Y76750000D01*
D10*
X89250000Y76750000D02*
X89250000Y79250000D01*
D10*
X89250000Y79250000D02*
X88250000Y79250000D01*
D10*
X88250000Y79250000D02*
X88250000Y82750000D01*
D10*
X88250000Y82750000D02*
X80000000Y82750000D01*
D10*
X80000000Y82750000D02*
X80000000Y83250000D01*
D10*
X80000000Y83250000D02*
X75000000Y83250000D01*
D10*
X75000000Y83250000D02*
X75000000Y95250000D01*
D10*
X65000000Y95250000D02*
X58750000Y95250000D01*
D10*
X58750000Y95250000D02*
X58750000Y95750000D01*
D10*
X58750000Y95750000D02*
X38000000Y95750000D01*
D10*
X38000000Y95750000D02*
X38000000Y105500000D01*
D10*
X38000000Y105500000D02*
X37500000Y105500000D01*
D10*
X37500000Y105500000D02*
X37500000Y127500000D01*
D10*
X97750000Y55250000D02*
X96250000Y55250000D01*
D10*
X96250000Y55250000D02*
X96250000Y73750000D01*
D10*
X96250000Y73750000D02*
X95250000Y73750000D01*
D10*
X95250000Y73750000D02*
X95250000Y74750000D01*
D10*
X95250000Y74750000D02*
X94250000Y74750000D01*
D10*
X94250000Y74750000D02*
X94250000Y76250000D01*
D10*
X94250000Y76250000D02*
X91250000Y76250000D01*
D10*
X91250000Y76250000D02*
X91250000Y77250000D01*
D10*
X91250000Y77250000D02*
X89750000Y77250000D01*
D10*
X89750000Y77250000D02*
X89750000Y79750000D01*
D10*
X89750000Y79750000D02*
X88750000Y79750000D01*
D10*
X88750000Y79750000D02*
X88750000Y83250000D01*
D10*
X88750000Y83250000D02*
X80500000Y83250000D01*
D10*
X80500000Y83250000D02*
X80500000Y83750000D01*
D10*
X80500000Y83750000D02*
X75000000Y83750000D01*
D10*
X75000000Y83750000D02*
X75000000Y92750000D01*
D10*
X97750000Y56750000D02*
X96750000Y56750000D01*
D10*
X96750000Y56750000D02*
X96750000Y74250000D01*
D10*
X96750000Y74250000D02*
X95750000Y74250000D01*
D10*
X95750000Y74250000D02*
X95750000Y75250000D01*
D10*
X95750000Y75250000D02*
X94750000Y75250000D01*
D10*
X94750000Y75250000D02*
X94750000Y76750000D01*
D10*
X94750000Y76750000D02*
X91750000Y76750000D01*
D10*
X91750000Y76750000D02*
X91750000Y77750000D01*
D10*
X91750000Y77750000D02*
X90250000Y77750000D01*
D10*
X90250000Y77750000D02*
X90250000Y80250000D01*
D10*
X90250000Y80250000D02*
X89250000Y80250000D01*
D10*
X89250000Y80250000D02*
X89250000Y83750000D01*
D10*
X89250000Y83750000D02*
X81000000Y83750000D01*
D10*
X81000000Y83750000D02*
X81000000Y84250000D01*
D10*
X81000000Y84250000D02*
X75500000Y84250000D01*
D10*
X75500000Y84250000D02*
X75500000Y93250000D01*
D10*
X75500000Y93250000D02*
X75000000Y93250000D01*
D10*
X75000000Y93250000D02*
X75000000Y94000000D01*
D10*
X97750000Y54750000D02*
X97250000Y54750000D01*
D10*
X97250000Y54750000D02*
X97250000Y57250000D01*
D10*
X97250000Y57250000D02*
X96750000Y57250000D01*
D10*
X96750000Y57250000D02*
X96750000Y73750000D01*
D10*
X96750000Y73750000D02*
X97250000Y73750000D01*
D10*
X97250000Y73750000D02*
X97250000Y74750000D01*
D10*
X97250000Y74750000D02*
X96250000Y74750000D01*
D10*
X96250000Y74750000D02*
X96250000Y75750000D01*
D10*
X96250000Y75750000D02*
X95250000Y75750000D01*
D10*
X95250000Y75750000D02*
X95250000Y77250000D01*
D10*
X95250000Y77250000D02*
X92250000Y77250000D01*
D10*
X92250000Y77250000D02*
X92250000Y78250000D01*
D10*
X92250000Y78250000D02*
X90750000Y78250000D01*
D10*
X90750000Y78250000D02*
X90750000Y80750000D01*
D10*
X90750000Y80750000D02*
X89750000Y80750000D01*
D10*
X89750000Y80750000D02*
X89750000Y84250000D01*
D10*
X89750000Y84250000D02*
X81500000Y84250000D01*
D10*
X81500000Y84250000D02*
X81500000Y84750000D01*
D10*
X81500000Y84750000D02*
X75000000Y84750000D01*
D10*
X75000000Y84750000D02*
X75000000Y91250000D01*
D10*
X97750000Y62250000D02*
X97250000Y62250000D01*
D10*
X97250000Y62250000D02*
X97250000Y59500000D01*
D10*
X97250000Y59500000D02*
X98750000Y59500000D01*
D10*
X98750000Y59500000D02*
X98750000Y50000000D01*
D10*
X98750000Y50000000D02*
X144500000Y50000000D01*
D10*
X97750000Y54250000D02*
X96750000Y54250000D01*
D10*
X96750000Y54250000D02*
X96750000Y55750000D01*
D10*
X96750000Y55750000D02*
X96250000Y55750000D01*
D10*
X96250000Y55750000D02*
X96250000Y73250000D01*
D10*
X96250000Y73250000D02*
X97750000Y73250000D01*
D10*
X97750000Y73250000D02*
X97750000Y75250000D01*
D10*
X97750000Y75250000D02*
X96750000Y75250000D01*
D10*
X96750000Y75250000D02*
X96750000Y76250000D01*
D10*
X96750000Y76250000D02*
X95750000Y76250000D01*
D10*
X95750000Y76250000D02*
X95750000Y77750000D01*
D10*
X95750000Y77750000D02*
X92750000Y77750000D01*
D10*
X92750000Y77750000D02*
X92750000Y78750000D01*
D10*
X92750000Y78750000D02*
X91250000Y78750000D01*
D10*
X91250000Y78750000D02*
X91250000Y81250000D01*
D10*
X91250000Y81250000D02*
X90250000Y81250000D01*
D10*
X90250000Y81250000D02*
X90250000Y84750000D01*
D10*
X90250000Y84750000D02*
X82000000Y84750000D01*
D10*
X82000000Y84750000D02*
X82000000Y85250000D01*
D10*
X82000000Y85250000D02*
X75000000Y85250000D01*
D10*
X75000000Y85250000D02*
X75000000Y90000000D01*
D10*
X74250000Y62750000D02*
X74250000Y40500000D01*
D10*
X74250000Y40500000D02*
X65750000Y40500000D01*
D10*
X65750000Y40500000D02*
X65750000Y36000000D01*
D10*
X65750000Y36000000D02*
X59500000Y36000000D01*
D10*
X59500000Y36000000D02*
X59500000Y35500000D01*
D10*
X59500000Y35500000D02*
X58500000Y35500000D01*
D10*
X58500000Y35500000D02*
X58500000Y34000000D01*
D10*
X58500000Y34000000D02*
X50000000Y34000000D01*
D10*
X97750000Y53250000D02*
X95750000Y53250000D01*
D10*
X95750000Y53250000D02*
X95750000Y56750000D01*
D10*
X95750000Y56750000D02*
X96250000Y56750000D01*
D10*
X96250000Y56750000D02*
X96250000Y72750000D01*
D10*
X96250000Y72750000D02*
X98250000Y72750000D01*
D10*
X98250000Y72750000D02*
X98250000Y75750000D01*
D10*
X98250000Y75750000D02*
X97250000Y75750000D01*
D10*
X97250000Y75750000D02*
X97250000Y76750000D01*
D10*
X97250000Y76750000D02*
X96250000Y76750000D01*
D10*
X96250000Y76750000D02*
X96250000Y78250000D01*
D10*
X96250000Y78250000D02*
X93250000Y78250000D01*
D10*
X93250000Y78250000D02*
X93250000Y79250000D01*
D10*
X93250000Y79250000D02*
X91750000Y79250000D01*
D10*
X91750000Y79250000D02*
X91750000Y81750000D01*
D10*
X91750000Y81750000D02*
X90750000Y81750000D01*
D10*
X90750000Y81750000D02*
X90750000Y85250000D01*
D10*
X90750000Y85250000D02*
X82500000Y85250000D01*
D10*
X82500000Y85250000D02*
X82500000Y85750000D01*
D10*
X82500000Y85750000D02*
X75000000Y85750000D01*
D10*
X75000000Y85750000D02*
X75000000Y88750000D01*
D10*
X65000000Y96500000D02*
X61250000Y96500000D01*
D10*
X61250000Y96500000D02*
X61250000Y97000000D01*
D10*
X61250000Y97000000D02*
X40500000Y97000000D01*
D10*
X40500000Y97000000D02*
X40500000Y105500000D01*
D10*
X40500000Y105500000D02*
X40000000Y105500000D01*
D10*
X40000000Y105500000D02*
X40000000Y127500000D01*
D10*
X97750000Y62750000D02*
X96750000Y62750000D01*
D10*
X96750000Y62750000D02*
X96750000Y60000000D01*
D10*
X96750000Y60000000D02*
X99250000Y60000000D01*
D10*
X99250000Y60000000D02*
X99250000Y53000000D01*
D10*
X99250000Y53000000D02*
X144500000Y53000000D01*
D10*
X28500000Y51750000D02*
X28500000Y20500000D01*
D10*
X28500000Y20500000D02*
X29000000Y20500000D01*
D10*
X29000000Y20500000D02*
X29000000Y13000000D01*
D10*
X29000000Y13000000D02*
X38500000Y13000000D01*
D10*
X38500000Y13000000D02*
X38500000Y12500000D01*
D10*
X38500000Y12500000D02*
X40000000Y12500000D01*
D10*
X40000000Y12500000D02*
X40000000Y12000000D01*
D10*
X40000000Y12000000D02*
X44500000Y12000000D01*
D10*
X97750000Y60750000D02*
X97750000Y60500000D01*
D10*
X97750000Y60500000D02*
X99750000Y60500000D01*
D10*
X99750000Y60500000D02*
X99750000Y56000000D01*
D10*
X99750000Y56000000D02*
X144500000Y56000000D01*
D10*
X28500000Y57500000D02*
X28500000Y53750000D01*
D10*
X28500000Y53750000D02*
X28000000Y53750000D01*
D10*
X28000000Y53750000D02*
X28000000Y38000000D01*
D10*
X28000000Y38000000D02*
X22250000Y38000000D01*
D10*
X22250000Y37500000D02*
X22250000Y15000000D01*
D10*
X22250000Y15000000D02*
X29500000Y15000000D01*
D10*
X94250000Y72750000D02*
X94250000Y72250000D01*
D10*
X94250000Y72250000D02*
X110000000Y72250000D01*
D10*
X110000000Y72250000D02*
X110000000Y87500000D01*
D10*
X99500000Y87500000D02*
X75000000Y87500000D01*
D10*
X98250000Y64250000D02*
X98250000Y63750000D01*
D10*
X98250000Y63750000D02*
X100250000Y63750000D01*
D10*
X100250000Y63750000D02*
X100250000Y62000000D01*
D10*
X100250000Y62000000D02*
X144500000Y62000000D01*
D10*
X98750000Y72750000D02*
X100000000Y72750000D01*
D10*
X100000000Y72750000D02*
X100000000Y86250000D01*
D10*
X99500000Y86250000D02*
X65000000Y86250000D01*
D10*
X98750000Y64750000D02*
X144500000Y64750000D01*
D10*
X144500000Y64750000D02*
X144500000Y65000000D01*
D10*
X98250000Y60750000D02*
X99250000Y60750000D01*
D10*
X99250000Y60750000D02*
X99250000Y61000000D01*
D10*
X99250000Y61000000D02*
X109500000Y61000000D01*
D10*
X109500000Y61000000D02*
X109500000Y88000000D01*
D10*
X109500000Y88000000D02*
X110000000Y88000000D01*
D10*
X110000000Y88000000D02*
X110000000Y94000000D01*
D10*
X97750000Y60250000D02*
X97750000Y60000000D01*
D10*
X97750000Y60000000D02*
X98750000Y60000000D01*
D10*
X98750000Y60000000D02*
X98750000Y61500000D01*
D10*
X98750000Y61500000D02*
X109000000Y61500000D01*
D10*
X109000000Y61500000D02*
X109000000Y88500000D01*
D10*
X109000000Y88500000D02*
X110000000Y88500000D01*
D10*
X110000000Y88500000D02*
X110000000Y92750000D01*
D10*
X97750000Y59750000D02*
X97750000Y59000000D01*
D10*
X97750000Y59000000D02*
X96750000Y59000000D01*
D10*
X96750000Y59000000D02*
X96750000Y59500000D01*
D10*
X96750000Y59500000D02*
X96250000Y59500000D01*
D10*
X96250000Y59500000D02*
X96250000Y63250000D01*
D10*
X96250000Y63250000D02*
X96750000Y63250000D01*
D10*
X96750000Y63250000D02*
X96750000Y64750000D01*
D10*
X96750000Y64750000D02*
X97250000Y64750000D01*
D10*
X97250000Y64750000D02*
X97250000Y67250000D01*
D10*
X97250000Y67250000D02*
X108500000Y67250000D01*
D10*
X108500000Y67250000D02*
X108500000Y89000000D01*
D10*
X108500000Y89000000D02*
X110000000Y89000000D01*
D10*
X110000000Y89000000D02*
X110000000Y91250000D01*
D10*
X99250000Y59250000D02*
X108000000Y59250000D01*
D10*
X108000000Y59250000D02*
X108000000Y89500000D01*
D10*
X108000000Y89500000D02*
X110000000Y89500000D01*
D10*
X110000000Y89500000D02*
X110000000Y90000000D01*
D10*
X97750000Y69250000D02*
X107500000Y69250000D01*
D10*
X107500000Y69250000D02*
X107500000Y90000000D01*
D10*
X107500000Y90000000D02*
X109500000Y90000000D01*
D10*
X109500000Y90000000D02*
X109500000Y94500000D01*
D10*
X109500000Y94500000D02*
X110000000Y94500000D01*
D10*
X110000000Y94500000D02*
X110000000Y97750000D01*
D10*
X97750000Y68750000D02*
X107000000Y68750000D01*
D10*
X107000000Y68750000D02*
X107000000Y90500000D01*
D10*
X107000000Y90500000D02*
X109000000Y90500000D01*
D10*
X109000000Y90500000D02*
X109000000Y95000000D01*
D10*
X109000000Y95000000D02*
X110000000Y95000000D01*
D10*
X110000000Y95000000D02*
X110000000Y96500000D01*
D10*
X97750000Y68250000D02*
X106500000Y68250000D01*
D10*
X106500000Y68250000D02*
X106500000Y91000000D01*
D10*
X106500000Y91000000D02*
X108500000Y91000000D01*
D10*
X108500000Y91000000D02*
X108500000Y95500000D01*
D10*
X108500000Y95500000D02*
X110000000Y95500000D01*
D10*
X110000000Y95500000D02*
X110000000Y95250000D01*
D10*
X28500000Y55250000D02*
X24500000Y55250000D01*
D10*
X24500000Y55250000D02*
X24500000Y68000000D01*
D10*
X24000000Y68000000D02*
X21500000Y68000000D01*
D10*
X21500000Y68000000D02*
X21500000Y72000000D01*
D10*
X28500000Y56500000D02*
X28500000Y55750000D01*
D10*
X28500000Y55750000D02*
X28000000Y55750000D01*
D10*
X28000000Y55750000D02*
X28000000Y54250000D01*
D10*
X28000000Y54250000D02*
X27500000Y54250000D01*
D10*
X27500000Y54250000D02*
X27500000Y39250000D01*
D10*
X27500000Y39250000D02*
X22250000Y39250000D01*
D10*
X28500000Y54750000D02*
X27000000Y54750000D01*
D10*
X27000000Y54750000D02*
X27000000Y40750000D01*
D10*
X27000000Y40750000D02*
X22250000Y40750000D01*
D10*
X28000000Y54750000D02*
X27500000Y54750000D01*
D10*
X27500000Y54750000D02*
X27500000Y55250000D01*
D10*
X27500000Y55250000D02*
X25500000Y55250000D01*
D10*
X25500000Y55250000D02*
X25500000Y68000000D01*
D10*
X26000000Y68000000D02*
X27500000Y68000000D01*
D10*
X27500000Y68000000D02*
X27500000Y72000000D01*
D10*
X28500000Y57250000D02*
X28500000Y57000000D01*
D10*
X28500000Y57000000D02*
X29000000Y57000000D01*
D10*
X29000000Y57000000D02*
X29000000Y53750000D01*
D10*
X29000000Y53750000D02*
X29500000Y53750000D01*
D10*
X29500000Y53750000D02*
X29500000Y40750000D01*
D10*
X29500000Y40750000D02*
X27750000Y40750000D01*
D10*
X28000000Y40250000D02*
X28000000Y39250000D01*
D10*
X28000000Y39250000D02*
X27750000Y39250000D01*
D10*
X27500000Y53750000D02*
X27500000Y42000000D01*
D10*
X27500000Y42000000D02*
X27750000Y42000000D01*
D11*
X78250000Y72800000D03*
X78750000Y72800000D03*
X79250000Y72800000D03*
X79750000Y72800000D03*
X80250000Y72800000D03*
X80750000Y72800000D03*
X81250000Y72800000D03*
X81750000Y72800000D03*
X82250000Y72800000D03*
X82750000Y72800000D03*
X83250000Y72800000D03*
X83750000Y72800000D03*
X84250000Y72800000D03*
X84750000Y72800000D03*
X85250000Y72800000D03*
X85750000Y72800000D03*
X86250000Y72800000D03*
X86750000Y72800000D03*
X87250000Y72800000D03*
X87750000Y72800000D03*
X88250000Y72800000D03*
X88750000Y72800000D03*
X89250000Y72800000D03*
X89750000Y72800000D03*
X90250000Y72800000D03*
X90750000Y72800000D03*
X91250000Y72800000D03*
X91750000Y72800000D03*
X92250000Y72800000D03*
X92750000Y72800000D03*
X93250000Y72800000D03*
X93750000Y72800000D03*
X94250000Y72800000D03*
X94750000Y72800000D03*
X95250000Y72800000D03*
X95750000Y72800000D03*
X97800000Y53250000D03*
X97800000Y53750000D03*
X97800000Y54250000D03*
X97800000Y54750000D03*
X97800000Y55250000D03*
X97800000Y55750000D03*
X97800000Y56250000D03*
X97800000Y56750000D03*
X97800000Y57250000D03*
X97800000Y57750000D03*
X97800000Y58250000D03*
X97800000Y58750000D03*
X97800000Y59250000D03*
X97800000Y59750000D03*
X97800000Y60250000D03*
X97800000Y60750000D03*
X97800000Y61250000D03*
X97800000Y61750000D03*
X97800000Y62250000D03*
X97800000Y62750000D03*
X97800000Y63250000D03*
X97800000Y63750000D03*
X97800000Y64250000D03*
X97800000Y64750000D03*
X97800000Y65250000D03*
X97800000Y65750000D03*
X97800000Y66250000D03*
X97800000Y66750000D03*
X97800000Y67250000D03*
X97800000Y67750000D03*
X97800000Y68250000D03*
X97800000Y68750000D03*
X97800000Y69250000D03*
X97800000Y69750000D03*
X97800000Y70250000D03*
X97800000Y70750000D03*
X95750000Y51200000D03*
X95250000Y51200000D03*
X94750000Y51200000D03*
X94250000Y51200000D03*
X93750000Y51200000D03*
X93250000Y51200000D03*
X92750000Y51200000D03*
X92250000Y51200000D03*
X91750000Y51200000D03*
X91250000Y51200000D03*
X90750000Y51200000D03*
X90250000Y51200000D03*
X89750000Y51200000D03*
X89250000Y51200000D03*
X88750000Y51200000D03*
X88250000Y51200000D03*
X87750000Y51200000D03*
X87250000Y51200000D03*
X86750000Y51200000D03*
X86250000Y51200000D03*
X85750000Y51200000D03*
X85250000Y51200000D03*
X84750000Y51200000D03*
X84250000Y51200000D03*
X83750000Y51200000D03*
X83250000Y51200000D03*
X82750000Y51200000D03*
X82250000Y51200000D03*
X81750000Y51200000D03*
X81250000Y51200000D03*
X80750000Y51200000D03*
X80250000Y51200000D03*
X79750000Y51200000D03*
X79250000Y51200000D03*
X78750000Y51200000D03*
X78250000Y51200000D03*
X76200000Y70750000D03*
X76200000Y70250000D03*
X76200000Y69750000D03*
X76200000Y69250000D03*
X76200000Y68750000D03*
X76200000Y68250000D03*
X76200000Y67750000D03*
X76200000Y67250000D03*
X76200000Y66750000D03*
X76200000Y66250000D03*
X76200000Y65750000D03*
X76200000Y65250000D03*
X76200000Y64750000D03*
X76200000Y64250000D03*
X76200000Y63750000D03*
X76200000Y63250000D03*
X76200000Y62750000D03*
X76200000Y62250000D03*
X76200000Y61750000D03*
X76200000Y61250000D03*
X76200000Y60750000D03*
X76200000Y60250000D03*
X76200000Y59750000D03*
X76200000Y59250000D03*
X76200000Y58750000D03*
X76200000Y58250000D03*
X76200000Y57750000D03*
X76200000Y57250000D03*
X76200000Y56750000D03*
X76200000Y56250000D03*
X76200000Y55750000D03*
X76200000Y55250000D03*
X76200000Y54750000D03*
X76200000Y54250000D03*
X76200000Y53750000D03*
X76200000Y53250000D03*
X49920000Y19600000D03*
X60080000Y19600000D03*
X49920000Y20400000D03*
X60080000Y20400000D03*
X49920000Y21200000D03*
X60080000Y21200000D03*
X49920000Y22000000D03*
X60080000Y22000000D03*
X49920000Y22800000D03*
X60080000Y22800000D03*
X49920000Y23600000D03*
X60080000Y23600000D03*
X49920000Y24400000D03*
X60080000Y24400000D03*
X49920000Y25200000D03*
X60080000Y25200000D03*
X49920000Y26000000D03*
X60080000Y26000000D03*
X49920000Y26800000D03*
X60080000Y26800000D03*
X49920000Y27600000D03*
X60080000Y27600000D03*
X49920000Y28400000D03*
X60080000Y28400000D03*
X49920000Y29200000D03*
X60080000Y29200000D03*
X49920000Y30000000D03*
X60080000Y30000000D03*
X49920000Y30800000D03*
X60080000Y30800000D03*
X49920000Y31600000D03*
X60080000Y31600000D03*
X49920000Y32400000D03*
X60080000Y32400000D03*
X49920000Y33200000D03*
X60080000Y33200000D03*
X49920000Y34000000D03*
X60080000Y34000000D03*
X49920000Y34800000D03*
X60080000Y34800000D03*
X49920000Y35600000D03*
X60080000Y35600000D03*
X49920000Y36400000D03*
X60080000Y36400000D03*
X49920000Y37200000D03*
X60080000Y37200000D03*
X49920000Y38000000D03*
X60080000Y38000000D03*
X49920000Y38800000D03*
X60080000Y38800000D03*
X49920000Y39600000D03*
X60080000Y39600000D03*
X49920000Y40400000D03*
X60080000Y40400000D03*
X114920000Y19600000D03*
X125080000Y19600000D03*
X114920000Y20400000D03*
X125080000Y20400000D03*
X114920000Y21200000D03*
X125080000Y21200000D03*
X114920000Y22000000D03*
X125080000Y22000000D03*
X114920000Y22800000D03*
X125080000Y22800000D03*
X114920000Y23600000D03*
X125080000Y23600000D03*
X114920000Y24400000D03*
X125080000Y24400000D03*
X114920000Y25200000D03*
X125080000Y25200000D03*
X114920000Y26000000D03*
X125080000Y26000000D03*
X114920000Y26800000D03*
X125080000Y26800000D03*
X114920000Y27600000D03*
X125080000Y27600000D03*
X114920000Y28400000D03*
X125080000Y28400000D03*
X114920000Y29200000D03*
X125080000Y29200000D03*
X114920000Y30000000D03*
X125080000Y30000000D03*
X114920000Y30800000D03*
X125080000Y30800000D03*
X114920000Y31600000D03*
X125080000Y31600000D03*
X114920000Y32400000D03*
X125080000Y32400000D03*
X114920000Y33200000D03*
X125080000Y33200000D03*
X114920000Y34000000D03*
X125080000Y34000000D03*
X114920000Y34800000D03*
X125080000Y34800000D03*
X114920000Y35600000D03*
X125080000Y35600000D03*
X114920000Y36400000D03*
X125080000Y36400000D03*
X114920000Y37200000D03*
X125080000Y37200000D03*
X114920000Y38000000D03*
X125080000Y38000000D03*
X114920000Y38800000D03*
X125080000Y38800000D03*
X114920000Y39600000D03*
X125080000Y39600000D03*
X114920000Y40400000D03*
X125080000Y40400000D03*
X65000000Y86285000D03*
X75000000Y86285000D03*
X65000000Y87555000D03*
X75000000Y87555000D03*
X65000000Y88825000D03*
X75000000Y88825000D03*
X65000000Y90095000D03*
X75000000Y90095000D03*
X65000000Y91365000D03*
X75000000Y91365000D03*
X65000000Y92635000D03*
X75000000Y92635000D03*
X65000000Y93905000D03*
X75000000Y93905000D03*
X65000000Y95175000D03*
X75000000Y95175000D03*
X65000000Y96445000D03*
X75000000Y96445000D03*
X65000000Y97715000D03*
X75000000Y97715000D03*
X100000000Y86285000D03*
X110000000Y86285000D03*
X100000000Y87555000D03*
X110000000Y87555000D03*
X100000000Y88825000D03*
X110000000Y88825000D03*
X100000000Y90095000D03*
X110000000Y90095000D03*
X100000000Y91365000D03*
X110000000Y91365000D03*
X100000000Y92635000D03*
X110000000Y92635000D03*
X100000000Y93905000D03*
X110000000Y93905000D03*
X100000000Y95175000D03*
X110000000Y95175000D03*
X100000000Y96445000D03*
X110000000Y96445000D03*
X100000000Y97715000D03*
X110000000Y97715000D03*
X21500000Y49600000D03*
X28500000Y49600000D03*
X21500000Y50000000D03*
X28500000Y50000000D03*
X21500000Y50400000D03*
X28500000Y50400000D03*
X21500000Y50800000D03*
X28500000Y50800000D03*
X21500000Y51200000D03*
X28500000Y51200000D03*
X21500000Y51600000D03*
X28500000Y51600000D03*
X21500000Y52000000D03*
X28500000Y52000000D03*
X21500000Y52400000D03*
X28500000Y52400000D03*
X21500000Y52800000D03*
X28500000Y52800000D03*
X21500000Y53200000D03*
X28500000Y53200000D03*
X21500000Y53600000D03*
X28500000Y53600000D03*
X21500000Y54000000D03*
X28500000Y54000000D03*
X21500000Y54400000D03*
X28500000Y54400000D03*
X21500000Y54800000D03*
X28500000Y54800000D03*
X21500000Y55200000D03*
X28500000Y55200000D03*
X21500000Y55600000D03*
X28500000Y55600000D03*
X21500000Y56000000D03*
X28500000Y56000000D03*
X21500000Y56400000D03*
X28500000Y56400000D03*
X21500000Y56800000D03*
X28500000Y56800000D03*
X21500000Y57200000D03*
X28500000Y57200000D03*
X21500000Y57600000D03*
X28500000Y57600000D03*
X21500000Y58000000D03*
X28500000Y58000000D03*
X21500000Y58400000D03*
X28500000Y58400000D03*
X21500000Y58800000D03*
X28500000Y58800000D03*
X21500000Y59200000D03*
X28500000Y59200000D03*
X21500000Y59600000D03*
X28500000Y59600000D03*
X21500000Y60000000D03*
X28500000Y60000000D03*
X21500000Y60400000D03*
X28500000Y60400000D03*
X22300000Y38095000D03*
X27700000Y38095000D03*
X22300000Y39365000D03*
X27700000Y39365000D03*
X22300000Y40635000D03*
X27700000Y40635000D03*
X22300000Y41905000D03*
X27700000Y41905000D03*
X147300000Y38095000D03*
X152700000Y38095000D03*
X147300000Y39365000D03*
X152700000Y39365000D03*
X147300000Y40635000D03*
X152700000Y40635000D03*
X147300000Y41905000D03*
X152700000Y41905000D03*
X152000000Y57700000D03*
X152000000Y60000000D03*
X152000000Y62300000D03*
X158000000Y60000000D03*
X152000000Y72700000D03*
X152000000Y75000000D03*
X152000000Y77300000D03*
X158000000Y75000000D03*
X1000000Y53250000D03*
X9000000Y53250000D03*
X1000000Y53750000D03*
X9000000Y53750000D03*
X1000000Y54250000D03*
X9000000Y54250000D03*
X1000000Y54750000D03*
X9000000Y54750000D03*
X1000000Y55250000D03*
X9000000Y55250000D03*
X1000000Y55750000D03*
X9000000Y55750000D03*
X1000000Y56250000D03*
X9000000Y56250000D03*
X1000000Y56750000D03*
X9000000Y56750000D03*
X157500000Y17460000D03*
X162500000Y17460000D03*
X157500000Y20000000D03*
X162500000Y20000000D03*
X157500000Y22540000D03*
X162500000Y22540000D03*
X24500000Y68000000D03*
X25500000Y68000000D03*
X14500000Y15000000D03*
X15500000Y15000000D03*
X21500000Y15000000D03*
X22500000Y15000000D03*
X29500000Y15000000D03*
X30500000Y15000000D03*
X37500000Y15000000D03*
X38500000Y15000000D03*
X21730000Y105000000D03*
X22730000Y105000000D03*
X24270000Y105000000D03*
X25270000Y105000000D03*
X26810000Y105000000D03*
X27810000Y105000000D03*
X29350000Y105000000D03*
X30350000Y105000000D03*
X31890000Y105000000D03*
X32890000Y105000000D03*
X34430000Y105000000D03*
X35430000Y105000000D03*
X36970000Y105000000D03*
X37970000Y105000000D03*
X39510000Y105000000D03*
X40510000Y105000000D03*
X42050000Y105000000D03*
X43050000Y105000000D03*
X44590000Y105000000D03*
X45590000Y105000000D03*
X47130000Y105000000D03*
X48130000Y105000000D03*
X49670000Y105000000D03*
X50670000Y105000000D03*
X52210000Y105000000D03*
X53210000Y105000000D03*
X54750000Y105000000D03*
X55750000Y105000000D03*
X57290000Y105000000D03*
X58290000Y105000000D03*
X59830000Y105000000D03*
X60830000Y105000000D03*
X62370000Y105000000D03*
X63370000Y105000000D03*
X64910000Y105000000D03*
X65910000Y105000000D03*
X14500000Y112000000D03*
X15500000Y112000000D03*
X22500000Y112000000D03*
X23500000Y112000000D03*
X30500000Y112000000D03*
X31500000Y112000000D03*
X38500000Y112000000D03*
X39500000Y112000000D03*
X14500000Y19000000D03*
X15500000Y19000000D03*
X21500000Y19000000D03*
X22500000Y19000000D03*
X144500000Y50000000D03*
X145500000Y50000000D03*
X144500000Y53000000D03*
X145500000Y53000000D03*
X144500000Y56000000D03*
X145500000Y56000000D03*
X144500000Y59000000D03*
X145500000Y59000000D03*
X144500000Y62000000D03*
X145500000Y62000000D03*
X144500000Y65000000D03*
X145500000Y65000000D03*
X144500000Y68000000D03*
X145500000Y68000000D03*
X9500000Y48000000D03*
X10500000Y48000000D03*
X9500000Y51000000D03*
X10500000Y51000000D03*
X39500000Y12000000D03*
X40500000Y12000000D03*
X44500000Y12000000D03*
X45500000Y12000000D03*
X79500000Y50000000D03*
X80500000Y50000000D03*
X93500000Y50000000D03*
X94500000Y50000000D03*
X79500000Y74000000D03*
X80500000Y74000000D03*
X93500000Y74000000D03*
X94500000Y74000000D03*
X44500000Y25000000D03*
X45500000Y25000000D03*
X64500000Y25000000D03*
X65500000Y25000000D03*
X109500000Y25000000D03*
X110500000Y25000000D03*
X129500000Y25000000D03*
X130500000Y25000000D03*
X64500000Y87000000D03*
X65500000Y87000000D03*
X99500000Y87000000D03*
X100500000Y87000000D03*
X19500000Y48000000D03*
X20500000Y48000000D03*
X29500000Y48000000D03*
X30500000Y48000000D03*
X149500000Y55000000D03*
X150500000Y55000000D03*
X149500000Y70000000D03*
X150500000Y70000000D03*
X139500000Y35000000D03*
X140500000Y35000000D03*
X9500000Y50000000D03*
X10500000Y50000000D03*
X159000000Y55000000D03*
X161000000Y55000000D03*
X159000000Y70000000D03*
X161000000Y70000000D03*
X159000000Y85000000D03*
X161000000Y85000000D03*
X21500000Y72000000D03*
X22500000Y72000000D03*
X27500000Y72000000D03*
X28500000Y72000000D03*
X12070000Y128000000D03*
X12070000Y128000000D03*
X14610000Y128000000D03*
X14610000Y128000000D03*
X17150000Y128000000D03*
X17150000Y128000000D03*
X19690000Y128000000D03*
X19690000Y128000000D03*
X22230000Y128000000D03*
X22230000Y128000000D03*
X24770000Y128000000D03*
X24770000Y128000000D03*
X27310000Y128000000D03*
X27310000Y128000000D03*
X29850000Y128000000D03*
X29850000Y128000000D03*
X32390000Y128000000D03*
X32390000Y128000000D03*
X34930000Y128000000D03*
X34930000Y128000000D03*
X37470000Y128000000D03*
X37470000Y128000000D03*
X40010000Y128000000D03*
X40010000Y128000000D03*
X42550000Y128000000D03*
X42550000Y128000000D03*
X45090000Y128000000D03*
X45090000Y128000000D03*
X47630000Y128000000D03*
X47630000Y128000000D03*
X50170000Y128000000D03*
X50170000Y128000000D03*
X52710000Y128000000D03*
X52710000Y128000000D03*
X55250000Y128000000D03*
X55250000Y128000000D03*
X57790000Y128000000D03*
X57790000Y128000000D03*
X60330000Y128000000D03*
X60330000Y128000000D03*
X62870000Y128000000D03*
X62870000Y128000000D03*
X65410000Y128000000D03*
X65410000Y128000000D03*
X67950000Y128000000D03*
X67950000Y128000000D03*
X70490000Y128000000D03*
X70490000Y128000000D03*
X73030000Y128000000D03*
X73030000Y128000000D03*
X75570000Y128000000D03*
X75570000Y128000000D03*
X78110000Y128000000D03*
X78110000Y128000000D03*
X80650000Y128000000D03*
X80650000Y128000000D03*
X83190000Y128000000D03*
X83190000Y128000000D03*
X85730000Y128000000D03*
X85730000Y128000000D03*
X88270000Y128000000D03*
X88270000Y128000000D03*
X90810000Y128000000D03*
X90810000Y128000000D03*
X93350000Y128000000D03*
X93350000Y128000000D03*
X95890000Y128000000D03*
X95890000Y128000000D03*
X98430000Y128000000D03*
X98430000Y128000000D03*
X100970000Y128000000D03*
X100970000Y128000000D03*
X103510000Y128000000D03*
X103510000Y128000000D03*
X106050000Y128000000D03*
X106050000Y128000000D03*
X108590000Y128000000D03*
X108590000Y128000000D03*
X111130000Y128000000D03*
X111130000Y128000000D03*
X113670000Y128000000D03*
X113670000Y128000000D03*
X116210000Y128000000D03*
X116210000Y128000000D03*
X118750000Y128000000D03*
X118750000Y128000000D03*
X121290000Y128000000D03*
X121290000Y128000000D03*
X123830000Y128000000D03*
X123830000Y128000000D03*
X126370000Y128000000D03*
X126370000Y128000000D03*
X128910000Y128000000D03*
X128910000Y128000000D03*
X131450000Y128000000D03*
X131450000Y128000000D03*
X133990000Y128000000D03*
X133990000Y128000000D03*
X136530000Y128000000D03*
X136530000Y128000000D03*
X139070000Y128000000D03*
X139070000Y128000000D03*
X141610000Y128000000D03*
X141610000Y128000000D03*
X144150000Y128000000D03*
X144150000Y128000000D03*
X146690000Y128000000D03*
X146690000Y128000000D03*
X149230000Y128000000D03*
X149230000Y128000000D03*
X151770000Y128000000D03*
X151770000Y128000000D03*
X154310000Y128000000D03*
X154310000Y128000000D03*
X156850000Y128000000D03*
X156850000Y128000000D03*
X159390000Y128000000D03*
X159390000Y128000000D03*
X161930000Y128000000D03*
X161930000Y128000000D03*
M02*
