M48
; DRILL file KiCad 10.0.3 date 2026-10-01T09:19:10
; FORMAT={-:-/ absolute / metric / decimal}
; #@! TF.CreationDate,2026-10-01T09:19:10+02:00
; #@! TF.GenerationSoftware,Kicad,Pcbnew,10.0.3
; #@! TF.FileFunction,MixedPlating,1,2
FMAT,2
METRIC
; #@! TA.AperFunction,Plated,PTH,ViaDrill
T1C0.300
; #@! TA.AperFunction,Plated,PTH,ComponentDrill
T2C1.000
; #@! TA.AperFunction,Plated,PTH,ComponentDrill
T3C1.100
%
G90
G05
T1
X54.75Y-25.75
X54.75Y-31.75
X54.75Y-37.75
X54.75Y-43.75
X54.75Y-49.75
X54.75Y-55.75
X54.75Y-61.75
X54.75Y-67.75
X54.75Y-115.75
X54.75Y-121.75
X54.75Y-127.75
X54.75Y-133.75
X55.491Y-74.596
X55.983Y-116.446
X55.989Y-111.57
X56.573Y-56.598
X57.05Y-59.073
X57.05Y-95.407
X57.05Y-109.017
X58.035Y-108.576
X58.603Y-113.799
X58.771Y-60.125
X59.353Y-48.159
X59.397Y-108.811
X60.05Y-94.418
X60.05Y-109.003
X60.232Y-111.691
X60.343Y-112.584
X60.75Y-25.75
X60.75Y-31.75
X60.75Y-37.75
X60.75Y-43.75
X60.75Y-49.75
X60.75Y-55.75
X60.75Y-61.75
X60.75Y-67.75
X60.75Y-73.75
X60.75Y-79.75
X60.75Y-85.75
X60.75Y-127.75
X60.75Y-133.75
X60.839Y-87.616
X60.839Y-109.023
X60.86Y-116.447
X61.234Y-114.359
X61.371Y-111.553
X61.383Y-106.555
X62.012Y-109.007
X62.974Y-116.099
X63.382Y-111.876
X63.553Y-118.973
X64.05Y-111.556
X64.496Y-118.972
X64.654Y-113.399
X64.654Y-116.449
X65.55Y-111.551
X66.418Y-119.727
X66.75Y-25.75
X66.75Y-31.75
X66.75Y-37.75
X66.75Y-43.75
X66.75Y-49.75
X66.75Y-55.75
X66.75Y-61.75
X66.75Y-67.75
X66.75Y-73.75
X66.75Y-79.75
X66.75Y-85.75
X66.75Y-91.75
X66.75Y-97.75
X66.75Y-103.75
X66.75Y-133.75
X66.931Y-107.74
X67.035Y-109.28
X67.59Y-117.71
X68.132Y-118.637
X68.157Y-112.201
X68.234Y-111.374
X68.303Y-117.71
X68.437Y-116.626
X68.96Y-112.213
X69.612Y-120.025
X70.35Y-111.616
X70.613Y-114.726
X70.927Y-119.811
X71.17Y-151.637
X71.662Y-114.203
X71.766Y-116.42
X71.92Y-120.027
X72.291Y-120.985
X72.329Y-114.598
X72.75Y-25.75
X72.75Y-31.75
X72.75Y-37.75
X72.75Y-43.75
X72.75Y-49.75
X72.75Y-55.75
X72.75Y-61.75
X72.75Y-67.75
X72.75Y-73.75
X72.75Y-79.75
X72.75Y-85.75
X72.75Y-91.75
X72.75Y-97.75
X72.864Y-115.922
X73.026Y-108.833
X73.85Y-111.551
X74.798Y-119.78
X75.632Y-119.705
X76.891Y-113.22
X76.992Y-116.436
X77.065Y-111.565
X77.106Y-121.282
X77.121Y-118.968
X77.514Y-119.511
X77.675Y-123.576
X77.829Y-116.431
X77.85Y-145.244
X77.914Y-122.67
X78.045Y-112.734
X78.386Y-144.618
X78.75Y-25.75
X78.75Y-31.75
X78.75Y-37.75
X78.75Y-43.75
X78.75Y-49.75
X78.75Y-55.75
X78.75Y-61.75
X78.75Y-67.75
X78.75Y-79.75
X78.75Y-85.75
X78.75Y-91.75
X78.832Y-109.03
X79.409Y-114.178
X79.819Y-105.156
X80.06Y-121.282
X80.254Y-93.565
X80.38Y-106.449
X80.655Y-94.897
X80.873Y-108.881
X80.901Y-103.738
X81.552Y-120.346
X81.552Y-122.193
X81.745Y-116.207
X81.879Y-111.374
X81.909Y-113.876
X82.034Y-118.201
X82.361Y-109.398
X82.703Y-118.215
X82.958Y-105.472
X84.472Y-114.051
X84.75Y-25.75
X84.75Y-31.75
X84.75Y-37.75
X84.75Y-43.75
X84.75Y-49.75
X84.75Y-55.75
X84.75Y-61.75
X84.75Y-73.75
X84.75Y-79.75
X84.75Y-85.75
X85.844Y-120.914
X85.945Y-105.022
X86.014Y-60.701
X86.646Y-97.994
X86.739Y-88.121
X86.904Y-61.67
X87.09Y-109.273
X87.101Y-97.527
X87.381Y-57.986
X87.5Y-115.408
X87.567Y-106.113
X87.687Y-100.434
X87.881Y-118.656
X88.286Y-61.178
X88.3Y-96.718
X88.586Y-94.042
X88.791Y-112.219
X88.835Y-99.755
X89.28Y-96.722
X89.506Y-109.182
X89.742Y-94.163
X89.916Y-63.008
X90.27Y-108.667
X90.527Y-62.518
X90.527Y-93.15
X90.75Y-31.75
X90.75Y-37.75
X90.75Y-49.75
X90.75Y-55.75
X90.9Y-108.34
X90.934Y-94.767
X90.96Y-96.022
X91.264Y-93.336
X91.46Y-108.706
X91.723Y-58.884
X92.25Y-58.483
X92.28Y-108.044
X92.34Y-61.193
X92.605Y-91.131
X92.637Y-115.309
X93.285Y-106.953
X93.42Y-41.11
X93.594Y-106.215
X93.672Y-44.773
X93.681Y-45.52
X93.874Y-110.422
X94.01Y-112.511
X94.03Y-150.538
X94.243Y-41.108
X94.402Y-111.901
X94.548Y-98.34
X94.634Y-60.918
X94.703Y-62.217
X94.855Y-56.598
X94.855Y-58.89
X94.9Y-95.233
X95.111Y-41.724
X95.13Y-90.831
X95.311Y-111.152
X95.423Y-39.085
X95.505Y-111.804
X95.902Y-114.586
X95.904Y-109.513
X96.081Y-41.112
X96.226Y-93.744
X96.701Y-111.249
X96.75Y-31.75
X97.03Y-87.022
X97.036Y-60.903
X97.343Y-41.914
X97.364Y-41.121
X97.365Y-103.59
X97.73Y-42.591
X97.731Y-44.791
X97.766Y-116.777
X97.911Y-118.1
X98.166Y-113.274
X98.499Y-58.871
X98.804Y-87.616
X98.982Y-37.311
X99.25Y-60.92
X99.326Y-98.315
X99.457Y-100.741
X100.37Y-118.272
X101.096Y-79.882
X101.096Y-100.041
X101.338Y-119.846
X101.518Y-109.74
X101.59Y-118.262
X101.65Y-150.56
X101.688Y-41.116
X101.823Y-104.458
X102.242Y-109.751
X102.25Y-60.906
X102.389Y-108.027
X102.633Y-126.785
X102.721Y-109.15
X102.734Y-115.492
X102.748Y-112.797
X102.75Y-25.75
X102.75Y-31.75
X102.926Y-43.027
X103.006Y-118.252
X103.072Y-90.831
X103.279Y-109.752
X103.565Y-113.62
X103.75Y-115.726
X103.897Y-126.126
X103.94Y-97.041
X104.057Y-102.387
X104.09Y-112.212
X104.244Y-106.132
X104.352Y-118.247
X104.991Y-58.866
X105.013Y-91.244
X105.209Y-107.306
X105.489Y-97.121
X105.643Y-58.383
X105.703Y-107.734
X106.113Y-115.968
X106.122Y-102.694
X106.437Y-113.484
X106.601Y-59.588
X106.601Y-116.954
X106.73Y-150.65
X106.79Y-112.454
X107.203Y-126.785
X107.404Y-144.183
X108.577Y-114.221
X108.75Y-25.75
X108.75Y-31.75
X108.75Y-37.75
X108.75Y-43.75
X108.75Y-49.75
X108.75Y-61.75
X108.75Y-67.75
X108.75Y-73.75
X109.139Y-122.059
X109.191Y-96.404
X109.191Y-108.722
X109.594Y-120.929
X109.655Y-116.03
X109.994Y-117.674
X110.296Y-111.238
X110.398Y-121.617
X111.254Y-114.545
X111.624Y-121.636
X111.704Y-116.4
X111.811Y-120.641
X112.471Y-119.491
X112.532Y-126.126
X114.01Y-139.211
X114.352Y-119.26
X114.389Y-57.435
X114.389Y-108.694
X114.426Y-116.145
X114.75Y-25.75
X114.75Y-31.75
X114.75Y-37.75
X114.75Y-43.75
X114.75Y-49.75
X115.411Y-119.26
X115.509Y-58.069
X115.509Y-108.561
X115.997Y-121.933
X116.065Y-119.295
X117.054Y-120.771
X117.176Y-116.449
X118.224Y-94.421
X118.427Y-120.344
X118.438Y-109.021
X118.768Y-115.358
X119.228Y-119.958
X120.27Y-106.132
X120.477Y-60.727
X120.477Y-109.015
X120.572Y-115.395
X120.586Y-121.508
X120.75Y-25.75
X120.75Y-31.75
X120.75Y-37.75
X120.956Y-40.927
X120.956Y-97.099
X121.062Y-118.982
X121.274Y-121.81
X121.283Y-111.553
X121.382Y-109.022
X121.857Y-118.981
X121.859Y-103.18
X121.894Y-92.98
X121.926Y-122.111
X122.084Y-104.32
X122.187Y-115.395
X122.205Y-145.289
X122.373Y-95.39
X122.571Y-115.938
X122.897Y-117.469
X122.897Y-111.146
X123.188Y-126.785
X123.457Y-107.808
X123.501Y-114.545
X123.575Y-87.616
X123.649Y-119.798
X126.107Y-117.71
X126.75Y-25.75
X126.75Y-31.75
X126.75Y-37.75
X126.75Y-43.75
X126.75Y-49.75
X126.75Y-61.75
X126.75Y-67.75
X126.75Y-73.75
X126.75Y-103.75
X127.048Y-113.993
X127.048Y-116.433
X128.885Y-118.986
X129.059Y-86.325
X129.896Y-116.45
X129.942Y-56.448
X130.657Y-116.433
X130.704Y-111.55
X130.777Y-118.978
X131.399Y-116.471
X131.631Y-109.013
X131.746Y-111.702
X132.512Y-112.198
X132.65Y-91.734
X132.65Y-109.016
X132.75Y-25.75
X132.75Y-31.75
X132.75Y-37.75
X132.75Y-43.75
X132.75Y-49.75
X132.75Y-55.75
X132.75Y-61.75
X132.75Y-67.75
X132.75Y-73.75
X133.668Y-116.115
X133.841Y-112.333
X134.238Y-92.5
X134.238Y-109.028
X134.314Y-115.715
X134.72Y-93.46
X134.882Y-114.361
X135.675Y-111.552
X135.809Y-48.159
X136.305Y-93.941
X136.587Y-108.949
X136.591Y-95.917
X136.963Y-112.068
X136.964Y-98.708
X137.203Y-116.439
X137.256Y-115.468
X137.65Y-109.025
X138.75Y-25.75
X138.75Y-31.75
X138.75Y-37.75
X138.75Y-43.75
X138.75Y-49.75
X138.75Y-55.75
X138.75Y-61.75
X138.75Y-67.75
X138.75Y-73.75
X138.925Y-111.148
X139.105Y-107.899
X139.381Y-93.427
X140.488Y-117.351
X140.779Y-115.187
X140.937Y-119.143
X141.886Y-100.916
X142.149Y-109.206
X142.571Y-118.902
X143.484Y-122.175
X143.546Y-117.928
X143.56Y-145.206
X144.75Y-25.75
X144.75Y-31.75
X144.75Y-37.75
X144.75Y-43.75
X144.75Y-49.75
X144.75Y-55.75
X144.75Y-61.75
X144.75Y-67.75
X144.75Y-73.75
X144.75Y-79.75
X144.75Y-85.75
X144.75Y-91.75
X144.75Y-97.75
X146.1Y-124.299
X146.37Y-121.547
X146.941Y-118.07
X147.3Y-112.483
X148.602Y-118.052
X148.64Y-124.3
X148.69Y-112.469
X148.769Y-97.57
X149.409Y-112.457
X149.902Y-115.541
X149.969Y-150.65
X150.457Y-144.498
X150.617Y-113.271
X150.75Y-25.75
X150.75Y-31.75
X150.75Y-37.75
X150.75Y-43.75
X150.75Y-49.75
X150.75Y-55.75
X150.75Y-61.75
X150.75Y-67.75
X150.75Y-73.75
X150.75Y-79.75
X150.75Y-85.75
X150.75Y-91.75
X151.093Y-112.278
X151.207Y-124.3
X151.738Y-117.877
X151.738Y-144.485
X151.802Y-96.594
X152.645Y-118.932
X152.666Y-96.411
X153.564Y-107.543
X153.72Y-123.882
X153.901Y-104.037
X153.947Y-112.458
X153.95Y-109.944
X154.886Y-150.65
X156.75Y-25.75
X156.75Y-31.75
X156.75Y-37.75
X156.75Y-43.75
X156.75Y-49.75
X156.75Y-55.75
X156.75Y-61.75
X156.75Y-67.75
X156.75Y-73.75
X156.75Y-79.75
X156.75Y-85.75
X156.75Y-91.75
X156.835Y-119.4
X157.611Y-150.65
X157.731Y-117.184
X157.973Y-108.776
X158.366Y-122.579
X158.773Y-114.268
X159.181Y-115.538
X159.181Y-143.472
X159.3Y-109.924
X159.509Y-108.438
X159.742Y-112.584
X160.888Y-121.709
X161.181Y-115.545
X161.198Y-109.452
X161.269Y-102.45
X162.205Y-118.391
X162.472Y-100.586
X162.641Y-119.295
X162.75Y-25.75
X162.75Y-31.75
X162.75Y-37.75
X162.75Y-43.75
X162.75Y-49.75
X162.75Y-55.75
X162.75Y-61.75
X162.75Y-67.75
X162.75Y-73.75
X162.75Y-79.75
X162.75Y-85.75
X162.75Y-91.75
X163.186Y-109.634
X163.195Y-97.909
X163.968Y-97.551
X164.262Y-111.874
X165.153Y-118.805
X165.153Y-150.65
X165.693Y-117.073
X165.731Y-102.687
X166.208Y-103.135
X166.466Y-95.748
X166.769Y-97.617
X167.75Y-111.379
X168.75Y-25.75
X168.75Y-31.75
X168.75Y-37.75
X168.75Y-43.75
X168.75Y-49.75
X168.75Y-55.75
X168.75Y-61.75
X168.75Y-67.75
X168.75Y-73.75
X168.75Y-79.75
X168.75Y-85.75
X168.75Y-91.75
X169.522Y-108.855
X170.75Y-131.755
X170.937Y-108.495
X173.75Y-109.019
X174.75Y-25.75
X174.75Y-31.75
X174.75Y-37.75
X174.75Y-43.75
X174.75Y-49.75
X174.75Y-55.75
X174.75Y-61.75
X174.75Y-67.75
X174.75Y-73.75
X174.75Y-79.75
X174.75Y-85.75
X174.75Y-91.75
X175.262Y-108.771
X177.75Y-119.012
X178.254Y-109.198
X178.729Y-116.685
X178.786Y-111.64
X179.054Y-118.802
X180.168Y-120.109
X180.75Y-31.75
X180.75Y-37.75
X180.75Y-43.75
X180.75Y-49.75
X180.75Y-55.75
X180.75Y-61.75
X180.75Y-67.75
X180.75Y-73.75
X180.75Y-79.75
X180.75Y-85.75
X180.75Y-91.75
X181.539Y-109.374
X182.248Y-109.371
X184.198Y-107.434
X185.595Y-106.527
X186.75Y-31.75
X186.75Y-37.75
X186.75Y-43.75
X186.75Y-49.75
X186.75Y-55.75
X186.75Y-61.75
X186.75Y-67.75
X186.75Y-73.75
X186.75Y-79.75
X186.75Y-85.75
X186.75Y-91.75
X187.232Y-115.371
X187.785Y-104.718
X188.402Y-99.08
X189.556Y-101.24
X190.642Y-111.961
X190.92Y-100.24
X191.737Y-103.74
X191.819Y-107.989
X192.75Y-25.75
X192.75Y-31.75
X192.75Y-37.75
X192.75Y-43.75
X192.75Y-49.75
X192.75Y-55.75
X192.75Y-61.75
X192.75Y-67.75
X192.75Y-73.75
X192.75Y-79.75
X192.75Y-85.75
X192.75Y-91.75
X192.75Y-115.75
X194.408Y-105.74
X194.411Y-103.198
X195.097Y-97.609
X195.64Y-111.393
X195.743Y-118.98
X196.648Y-102.909
X196.75Y-118.993
X197.34Y-106.292
X197.515Y-118.994
X198.314Y-118.979
X198.75Y-25.75
X198.75Y-31.75
X198.75Y-37.75
X198.75Y-43.75
X198.75Y-49.75
X198.75Y-55.75
X198.75Y-61.75
X198.75Y-67.75
X198.75Y-73.75
X198.75Y-79.75
X198.75Y-85.75
X198.75Y-91.75
X198.75Y-115.75
X198.865Y-119.351
X199.591Y-119.094
X199.723Y-105.454
X199.723Y-107.44
X200.25Y-118.986
X200.75Y-119.421
X201.291Y-104.24
X201.291Y-107.755
X201.666Y-109.012
X201.75Y-118.985
X202.033Y-111.39
X202.396Y-116.619
X202.784Y-97.74
X202.784Y-108.708
X203.25Y-116.595
X203.278Y-111.478
X203.503Y-114.066
X203.75Y-118.998
X203.905Y-98.74
X203.905Y-108.279
X204.499Y-98.24
X204.75Y-25.75
X204.75Y-31.75
X204.75Y-37.75
X204.75Y-43.75
X204.75Y-49.75
X204.75Y-55.75
X204.75Y-61.75
X204.75Y-67.75
X204.75Y-73.75
X204.75Y-79.75
X204.75Y-85.75
X204.75Y-91.75
X204.75Y-115.75
X204.75Y-118.996
X205.408Y-119.01
X205.749Y-101.929
X206.243Y-99.24
X206.305Y-107.796
X206.32Y-109.535
X206.4Y-111.421
X206.4Y-119.565
X206.72Y-104.736
X207.06Y-117.8
X207.274Y-96.24
X207.274Y-109.26
X207.765Y-108.789
X208.33Y-151.637
X210.75Y-25.75
X210.75Y-31.75
X210.75Y-37.75
X210.75Y-43.75
X210.75Y-49.75
X210.75Y-55.75
X210.75Y-61.75
X210.75Y-67.75
X210.75Y-73.75
X210.75Y-79.75
X210.75Y-85.75
X210.75Y-91.75
X210.75Y-115.75
X210.75Y-121.75
X210.75Y-127.75
X210.75Y-133.75
X211.196Y-96.74
X216.75Y-25.75
X216.75Y-31.75
X216.75Y-37.75
X216.75Y-43.75
X216.75Y-49.75
X216.75Y-55.75
X216.75Y-61.75
X216.75Y-67.75
X216.75Y-73.75
X216.75Y-79.75
X216.75Y-85.75
X216.75Y-91.75
X216.75Y-97.75
X216.75Y-103.75
X216.75Y-109.75
X216.75Y-115.75
X216.75Y-121.75
X216.75Y-127.75
X216.75Y-133.75
X222.75Y-25.75
X222.75Y-31.75
X222.75Y-37.75
X222.75Y-43.75
X222.75Y-49.75
X222.75Y-55.75
X222.75Y-61.75
X222.75Y-67.75
X222.75Y-73.75
X222.75Y-79.75
X222.75Y-85.75
X222.75Y-91.75
X222.75Y-97.75
X222.75Y-103.75
X222.75Y-109.75
X222.75Y-115.75
X222.75Y-121.75
X222.75Y-127.75
X222.75Y-133.75
T2
X140.0Y-81.0
X141.0Y-83.0
X142.0Y-81.0
X153.947Y-119.215
T3
X138.0Y-97.96
X138.0Y-100.5
X138.0Y-103.04
M30
