%TF.GenerationSoftware,KiCad,Pcbnew,9.0.8+dfsg-1*%
%TF.CreationDate,2026-04-29T22:30:23+02:00*%
%TF.ProjectId,cha_adapter_routed,6368615f-6164-4617-9074-65725f726f75,rev?*%
%TF.SameCoordinates,Original*%
%TF.FileFunction,AssemblyDrawing,Top*%
%FSLAX46Y46*%
G04 Gerber Fmt 4.6, Leading zero omitted, Abs format (unit mm)*
G04 Created by KiCad (PCBNEW 9.0.8+dfsg-1) date 2026-04-29 22:30:23*
%MOMM*%
%LPD*%
G01*
G04 APERTURE LIST*
%ADD10C,0.150000*%
%ADD11C,0.120000*%
%ADD12C,0.040000*%
%ADD13C,0.075000*%
%ADD14C,0.080000*%
%ADD15C,0.100000*%
G04 APERTURE END LIST*
D10*
X84412857Y-108371009D02*
X84079524Y-108371009D01*
X84079524Y-108894819D02*
X84079524Y-107894819D01*
X84079524Y-107894819D02*
X84555714Y-107894819D01*
X85508095Y-108894819D02*
X85174762Y-108418628D01*
X84936667Y-108894819D02*
X84936667Y-107894819D01*
X84936667Y-107894819D02*
X85317619Y-107894819D01*
X85317619Y-107894819D02*
X85412857Y-107942438D01*
X85412857Y-107942438D02*
X85460476Y-107990057D01*
X85460476Y-107990057D02*
X85508095Y-108085295D01*
X85508095Y-108085295D02*
X85508095Y-108228152D01*
X85508095Y-108228152D02*
X85460476Y-108323390D01*
X85460476Y-108323390D02*
X85412857Y-108371009D01*
X85412857Y-108371009D02*
X85317619Y-108418628D01*
X85317619Y-108418628D02*
X84936667Y-108418628D01*
X86127143Y-107894819D02*
X86317619Y-107894819D01*
X86317619Y-107894819D02*
X86412857Y-107942438D01*
X86412857Y-107942438D02*
X86508095Y-108037676D01*
X86508095Y-108037676D02*
X86555714Y-108228152D01*
X86555714Y-108228152D02*
X86555714Y-108561485D01*
X86555714Y-108561485D02*
X86508095Y-108751961D01*
X86508095Y-108751961D02*
X86412857Y-108847200D01*
X86412857Y-108847200D02*
X86317619Y-108894819D01*
X86317619Y-108894819D02*
X86127143Y-108894819D01*
X86127143Y-108894819D02*
X86031905Y-108847200D01*
X86031905Y-108847200D02*
X85936667Y-108751961D01*
X85936667Y-108751961D02*
X85889048Y-108561485D01*
X85889048Y-108561485D02*
X85889048Y-108228152D01*
X85889048Y-108228152D02*
X85936667Y-108037676D01*
X85936667Y-108037676D02*
X86031905Y-107942438D01*
X86031905Y-107942438D02*
X86127143Y-107894819D01*
X86984286Y-108894819D02*
X86984286Y-107894819D01*
X86984286Y-107894819D02*
X87317619Y-108609104D01*
X87317619Y-108609104D02*
X87650952Y-107894819D01*
X87650952Y-107894819D02*
X87650952Y-108894819D01*
X87889048Y-108990057D02*
X88650952Y-108990057D01*
X88889048Y-108894819D02*
X88889048Y-107894819D01*
X88889048Y-107894819D02*
X89270000Y-107894819D01*
X89270000Y-107894819D02*
X89365238Y-107942438D01*
X89365238Y-107942438D02*
X89412857Y-107990057D01*
X89412857Y-107990057D02*
X89460476Y-108085295D01*
X89460476Y-108085295D02*
X89460476Y-108228152D01*
X89460476Y-108228152D02*
X89412857Y-108323390D01*
X89412857Y-108323390D02*
X89365238Y-108371009D01*
X89365238Y-108371009D02*
X89270000Y-108418628D01*
X89270000Y-108418628D02*
X88889048Y-108418628D01*
X90460476Y-108894819D02*
X90127143Y-108418628D01*
X89889048Y-108894819D02*
X89889048Y-107894819D01*
X89889048Y-107894819D02*
X90270000Y-107894819D01*
X90270000Y-107894819D02*
X90365238Y-107942438D01*
X90365238Y-107942438D02*
X90412857Y-107990057D01*
X90412857Y-107990057D02*
X90460476Y-108085295D01*
X90460476Y-108085295D02*
X90460476Y-108228152D01*
X90460476Y-108228152D02*
X90412857Y-108323390D01*
X90412857Y-108323390D02*
X90365238Y-108371009D01*
X90365238Y-108371009D02*
X90270000Y-108418628D01*
X90270000Y-108418628D02*
X89889048Y-108418628D01*
X91079524Y-107894819D02*
X91270000Y-107894819D01*
X91270000Y-107894819D02*
X91365238Y-107942438D01*
X91365238Y-107942438D02*
X91460476Y-108037676D01*
X91460476Y-108037676D02*
X91508095Y-108228152D01*
X91508095Y-108228152D02*
X91508095Y-108561485D01*
X91508095Y-108561485D02*
X91460476Y-108751961D01*
X91460476Y-108751961D02*
X91365238Y-108847200D01*
X91365238Y-108847200D02*
X91270000Y-108894819D01*
X91270000Y-108894819D02*
X91079524Y-108894819D01*
X91079524Y-108894819D02*
X90984286Y-108847200D01*
X90984286Y-108847200D02*
X90889048Y-108751961D01*
X90889048Y-108751961D02*
X90841429Y-108561485D01*
X90841429Y-108561485D02*
X90841429Y-108228152D01*
X90841429Y-108228152D02*
X90889048Y-108037676D01*
X90889048Y-108037676D02*
X90984286Y-107942438D01*
X90984286Y-107942438D02*
X91079524Y-107894819D01*
X92460476Y-107942438D02*
X92365238Y-107894819D01*
X92365238Y-107894819D02*
X92222381Y-107894819D01*
X92222381Y-107894819D02*
X92079524Y-107942438D01*
X92079524Y-107942438D02*
X91984286Y-108037676D01*
X91984286Y-108037676D02*
X91936667Y-108132914D01*
X91936667Y-108132914D02*
X91889048Y-108323390D01*
X91889048Y-108323390D02*
X91889048Y-108466247D01*
X91889048Y-108466247D02*
X91936667Y-108656723D01*
X91936667Y-108656723D02*
X91984286Y-108751961D01*
X91984286Y-108751961D02*
X92079524Y-108847200D01*
X92079524Y-108847200D02*
X92222381Y-108894819D01*
X92222381Y-108894819D02*
X92317619Y-108894819D01*
X92317619Y-108894819D02*
X92460476Y-108847200D01*
X92460476Y-108847200D02*
X92508095Y-108799580D01*
X92508095Y-108799580D02*
X92508095Y-108466247D01*
X92508095Y-108466247D02*
X92317619Y-108466247D01*
X87724819Y-56863333D02*
X88439104Y-56863333D01*
X88439104Y-56863333D02*
X88581961Y-56910952D01*
X88581961Y-56910952D02*
X88677200Y-57006190D01*
X88677200Y-57006190D02*
X88724819Y-57149047D01*
X88724819Y-57149047D02*
X88724819Y-57244285D01*
X87820057Y-56434761D02*
X87772438Y-56387142D01*
X87772438Y-56387142D02*
X87724819Y-56291904D01*
X87724819Y-56291904D02*
X87724819Y-56053809D01*
X87724819Y-56053809D02*
X87772438Y-55958571D01*
X87772438Y-55958571D02*
X87820057Y-55910952D01*
X87820057Y-55910952D02*
X87915295Y-55863333D01*
X87915295Y-55863333D02*
X88010533Y-55863333D01*
X88010533Y-55863333D02*
X88153390Y-55910952D01*
X88153390Y-55910952D02*
X88724819Y-56482380D01*
X88724819Y-56482380D02*
X88724819Y-55863333D01*
D11*
X142610521Y-101009523D02*
X143143855Y-101009523D01*
X142305760Y-101199999D02*
X142877188Y-101390476D01*
X142877188Y-101390476D02*
X142877188Y-100895237D01*
X142343855Y-100666666D02*
X142343855Y-100133332D01*
X142343855Y-100133332D02*
X143143855Y-100476190D01*
X142343855Y-99676189D02*
X142343855Y-99599999D01*
X142343855Y-99599999D02*
X142381950Y-99523808D01*
X142381950Y-99523808D02*
X142420045Y-99485713D01*
X142420045Y-99485713D02*
X142496236Y-99447618D01*
X142496236Y-99447618D02*
X142648617Y-99409523D01*
X142648617Y-99409523D02*
X142839093Y-99409523D01*
X142839093Y-99409523D02*
X142991474Y-99447618D01*
X142991474Y-99447618D02*
X143067664Y-99485713D01*
X143067664Y-99485713D02*
X143105760Y-99523808D01*
X143105760Y-99523808D02*
X143143855Y-99599999D01*
X143143855Y-99599999D02*
X143143855Y-99676189D01*
X143143855Y-99676189D02*
X143105760Y-99752380D01*
X143105760Y-99752380D02*
X143067664Y-99790475D01*
X143067664Y-99790475D02*
X142991474Y-99828570D01*
X142991474Y-99828570D02*
X142839093Y-99866666D01*
X142839093Y-99866666D02*
X142648617Y-99866666D01*
X142648617Y-99866666D02*
X142496236Y-99828570D01*
X142496236Y-99828570D02*
X142420045Y-99790475D01*
X142420045Y-99790475D02*
X142381950Y-99752380D01*
X142381950Y-99752380D02*
X142343855Y-99676189D01*
X143143855Y-98609522D02*
X142762902Y-98876189D01*
X143143855Y-99066665D02*
X142343855Y-99066665D01*
X142343855Y-99066665D02*
X142343855Y-98761903D01*
X142343855Y-98761903D02*
X142381950Y-98685713D01*
X142381950Y-98685713D02*
X142420045Y-98647618D01*
X142420045Y-98647618D02*
X142496236Y-98609522D01*
X142496236Y-98609522D02*
X142610521Y-98609522D01*
X142610521Y-98609522D02*
X142686712Y-98647618D01*
X142686712Y-98647618D02*
X142724807Y-98685713D01*
X142724807Y-98685713D02*
X142762902Y-98761903D01*
X142762902Y-98761903D02*
X142762902Y-99066665D01*
D12*
X141728200Y-100167142D02*
X141604391Y-100253809D01*
X141728200Y-100315714D02*
X141468200Y-100315714D01*
X141468200Y-100315714D02*
X141468200Y-100216666D01*
X141468200Y-100216666D02*
X141480581Y-100191904D01*
X141480581Y-100191904D02*
X141492962Y-100179523D01*
X141492962Y-100179523D02*
X141517724Y-100167142D01*
X141517724Y-100167142D02*
X141554867Y-100167142D01*
X141554867Y-100167142D02*
X141579629Y-100179523D01*
X141579629Y-100179523D02*
X141592010Y-100191904D01*
X141592010Y-100191904D02*
X141604391Y-100216666D01*
X141604391Y-100216666D02*
X141604391Y-100315714D01*
X141468200Y-100080476D02*
X141468200Y-99919523D01*
X141468200Y-99919523D02*
X141567248Y-100006190D01*
X141567248Y-100006190D02*
X141567248Y-99969047D01*
X141567248Y-99969047D02*
X141579629Y-99944285D01*
X141579629Y-99944285D02*
X141592010Y-99931904D01*
X141592010Y-99931904D02*
X141616772Y-99919523D01*
X141616772Y-99919523D02*
X141678677Y-99919523D01*
X141678677Y-99919523D02*
X141703439Y-99931904D01*
X141703439Y-99931904D02*
X141715820Y-99944285D01*
X141715820Y-99944285D02*
X141728200Y-99969047D01*
X141728200Y-99969047D02*
X141728200Y-100043333D01*
X141728200Y-100043333D02*
X141715820Y-100068095D01*
X141715820Y-100068095D02*
X141703439Y-100080476D01*
X141554867Y-99696666D02*
X141728200Y-99696666D01*
X141455820Y-99758571D02*
X141641534Y-99820476D01*
X141641534Y-99820476D02*
X141641534Y-99659523D01*
D11*
X137530521Y-106009523D02*
X138063855Y-106009523D01*
X137225760Y-106199999D02*
X137797188Y-106390476D01*
X137797188Y-106390476D02*
X137797188Y-105895237D01*
X137263855Y-105666666D02*
X137263855Y-105133332D01*
X137263855Y-105133332D02*
X138063855Y-105476190D01*
X137263855Y-104676189D02*
X137263855Y-104599999D01*
X137263855Y-104599999D02*
X137301950Y-104523808D01*
X137301950Y-104523808D02*
X137340045Y-104485713D01*
X137340045Y-104485713D02*
X137416236Y-104447618D01*
X137416236Y-104447618D02*
X137568617Y-104409523D01*
X137568617Y-104409523D02*
X137759093Y-104409523D01*
X137759093Y-104409523D02*
X137911474Y-104447618D01*
X137911474Y-104447618D02*
X137987664Y-104485713D01*
X137987664Y-104485713D02*
X138025760Y-104523808D01*
X138025760Y-104523808D02*
X138063855Y-104599999D01*
X138063855Y-104599999D02*
X138063855Y-104676189D01*
X138063855Y-104676189D02*
X138025760Y-104752380D01*
X138025760Y-104752380D02*
X137987664Y-104790475D01*
X137987664Y-104790475D02*
X137911474Y-104828570D01*
X137911474Y-104828570D02*
X137759093Y-104866666D01*
X137759093Y-104866666D02*
X137568617Y-104866666D01*
X137568617Y-104866666D02*
X137416236Y-104828570D01*
X137416236Y-104828570D02*
X137340045Y-104790475D01*
X137340045Y-104790475D02*
X137301950Y-104752380D01*
X137301950Y-104752380D02*
X137263855Y-104676189D01*
X138063855Y-103609522D02*
X137682902Y-103876189D01*
X138063855Y-104066665D02*
X137263855Y-104066665D01*
X137263855Y-104066665D02*
X137263855Y-103761903D01*
X137263855Y-103761903D02*
X137301950Y-103685713D01*
X137301950Y-103685713D02*
X137340045Y-103647618D01*
X137340045Y-103647618D02*
X137416236Y-103609522D01*
X137416236Y-103609522D02*
X137530521Y-103609522D01*
X137530521Y-103609522D02*
X137606712Y-103647618D01*
X137606712Y-103647618D02*
X137644807Y-103685713D01*
X137644807Y-103685713D02*
X137682902Y-103761903D01*
X137682902Y-103761903D02*
X137682902Y-104066665D01*
D12*
X136648200Y-105167142D02*
X136524391Y-105253809D01*
X136648200Y-105315714D02*
X136388200Y-105315714D01*
X136388200Y-105315714D02*
X136388200Y-105216666D01*
X136388200Y-105216666D02*
X136400581Y-105191904D01*
X136400581Y-105191904D02*
X136412962Y-105179523D01*
X136412962Y-105179523D02*
X136437724Y-105167142D01*
X136437724Y-105167142D02*
X136474867Y-105167142D01*
X136474867Y-105167142D02*
X136499629Y-105179523D01*
X136499629Y-105179523D02*
X136512010Y-105191904D01*
X136512010Y-105191904D02*
X136524391Y-105216666D01*
X136524391Y-105216666D02*
X136524391Y-105315714D01*
X136388200Y-105080476D02*
X136388200Y-104919523D01*
X136388200Y-104919523D02*
X136487248Y-105006190D01*
X136487248Y-105006190D02*
X136487248Y-104969047D01*
X136487248Y-104969047D02*
X136499629Y-104944285D01*
X136499629Y-104944285D02*
X136512010Y-104931904D01*
X136512010Y-104931904D02*
X136536772Y-104919523D01*
X136536772Y-104919523D02*
X136598677Y-104919523D01*
X136598677Y-104919523D02*
X136623439Y-104931904D01*
X136623439Y-104931904D02*
X136635820Y-104944285D01*
X136635820Y-104944285D02*
X136648200Y-104969047D01*
X136648200Y-104969047D02*
X136648200Y-105043333D01*
X136648200Y-105043333D02*
X136635820Y-105068095D01*
X136635820Y-105068095D02*
X136623439Y-105080476D01*
X136412962Y-104820476D02*
X136400581Y-104808095D01*
X136400581Y-104808095D02*
X136388200Y-104783333D01*
X136388200Y-104783333D02*
X136388200Y-104721428D01*
X136388200Y-104721428D02*
X136400581Y-104696666D01*
X136400581Y-104696666D02*
X136412962Y-104684285D01*
X136412962Y-104684285D02*
X136437724Y-104671904D01*
X136437724Y-104671904D02*
X136462486Y-104671904D01*
X136462486Y-104671904D02*
X136499629Y-104684285D01*
X136499629Y-104684285D02*
X136648200Y-104832857D01*
X136648200Y-104832857D02*
X136648200Y-104671904D01*
D11*
X124830521Y-111009523D02*
X125363855Y-111009523D01*
X124525760Y-111199999D02*
X125097188Y-111390476D01*
X125097188Y-111390476D02*
X125097188Y-110895237D01*
X124563855Y-110666666D02*
X124563855Y-110133332D01*
X124563855Y-110133332D02*
X125363855Y-110476190D01*
X124563855Y-109676189D02*
X124563855Y-109599999D01*
X124563855Y-109599999D02*
X124601950Y-109523808D01*
X124601950Y-109523808D02*
X124640045Y-109485713D01*
X124640045Y-109485713D02*
X124716236Y-109447618D01*
X124716236Y-109447618D02*
X124868617Y-109409523D01*
X124868617Y-109409523D02*
X125059093Y-109409523D01*
X125059093Y-109409523D02*
X125211474Y-109447618D01*
X125211474Y-109447618D02*
X125287664Y-109485713D01*
X125287664Y-109485713D02*
X125325760Y-109523808D01*
X125325760Y-109523808D02*
X125363855Y-109599999D01*
X125363855Y-109599999D02*
X125363855Y-109676189D01*
X125363855Y-109676189D02*
X125325760Y-109752380D01*
X125325760Y-109752380D02*
X125287664Y-109790475D01*
X125287664Y-109790475D02*
X125211474Y-109828570D01*
X125211474Y-109828570D02*
X125059093Y-109866666D01*
X125059093Y-109866666D02*
X124868617Y-109866666D01*
X124868617Y-109866666D02*
X124716236Y-109828570D01*
X124716236Y-109828570D02*
X124640045Y-109790475D01*
X124640045Y-109790475D02*
X124601950Y-109752380D01*
X124601950Y-109752380D02*
X124563855Y-109676189D01*
X125363855Y-108609522D02*
X124982902Y-108876189D01*
X125363855Y-109066665D02*
X124563855Y-109066665D01*
X124563855Y-109066665D02*
X124563855Y-108761903D01*
X124563855Y-108761903D02*
X124601950Y-108685713D01*
X124601950Y-108685713D02*
X124640045Y-108647618D01*
X124640045Y-108647618D02*
X124716236Y-108609522D01*
X124716236Y-108609522D02*
X124830521Y-108609522D01*
X124830521Y-108609522D02*
X124906712Y-108647618D01*
X124906712Y-108647618D02*
X124944807Y-108685713D01*
X124944807Y-108685713D02*
X124982902Y-108761903D01*
X124982902Y-108761903D02*
X124982902Y-109066665D01*
D12*
X123948200Y-110167142D02*
X123824391Y-110253809D01*
X123948200Y-110315714D02*
X123688200Y-110315714D01*
X123688200Y-110315714D02*
X123688200Y-110216666D01*
X123688200Y-110216666D02*
X123700581Y-110191904D01*
X123700581Y-110191904D02*
X123712962Y-110179523D01*
X123712962Y-110179523D02*
X123737724Y-110167142D01*
X123737724Y-110167142D02*
X123774867Y-110167142D01*
X123774867Y-110167142D02*
X123799629Y-110179523D01*
X123799629Y-110179523D02*
X123812010Y-110191904D01*
X123812010Y-110191904D02*
X123824391Y-110216666D01*
X123824391Y-110216666D02*
X123824391Y-110315714D01*
X123712962Y-110068095D02*
X123700581Y-110055714D01*
X123700581Y-110055714D02*
X123688200Y-110030952D01*
X123688200Y-110030952D02*
X123688200Y-109969047D01*
X123688200Y-109969047D02*
X123700581Y-109944285D01*
X123700581Y-109944285D02*
X123712962Y-109931904D01*
X123712962Y-109931904D02*
X123737724Y-109919523D01*
X123737724Y-109919523D02*
X123762486Y-109919523D01*
X123762486Y-109919523D02*
X123799629Y-109931904D01*
X123799629Y-109931904D02*
X123948200Y-110080476D01*
X123948200Y-110080476D02*
X123948200Y-109919523D01*
X123688200Y-109832857D02*
X123688200Y-109659523D01*
X123688200Y-109659523D02*
X123948200Y-109770952D01*
D11*
X145150521Y-106009523D02*
X145683855Y-106009523D01*
X144845760Y-106199999D02*
X145417188Y-106390476D01*
X145417188Y-106390476D02*
X145417188Y-105895237D01*
X144883855Y-105666666D02*
X144883855Y-105133332D01*
X144883855Y-105133332D02*
X145683855Y-105476190D01*
X144883855Y-104676189D02*
X144883855Y-104599999D01*
X144883855Y-104599999D02*
X144921950Y-104523808D01*
X144921950Y-104523808D02*
X144960045Y-104485713D01*
X144960045Y-104485713D02*
X145036236Y-104447618D01*
X145036236Y-104447618D02*
X145188617Y-104409523D01*
X145188617Y-104409523D02*
X145379093Y-104409523D01*
X145379093Y-104409523D02*
X145531474Y-104447618D01*
X145531474Y-104447618D02*
X145607664Y-104485713D01*
X145607664Y-104485713D02*
X145645760Y-104523808D01*
X145645760Y-104523808D02*
X145683855Y-104599999D01*
X145683855Y-104599999D02*
X145683855Y-104676189D01*
X145683855Y-104676189D02*
X145645760Y-104752380D01*
X145645760Y-104752380D02*
X145607664Y-104790475D01*
X145607664Y-104790475D02*
X145531474Y-104828570D01*
X145531474Y-104828570D02*
X145379093Y-104866666D01*
X145379093Y-104866666D02*
X145188617Y-104866666D01*
X145188617Y-104866666D02*
X145036236Y-104828570D01*
X145036236Y-104828570D02*
X144960045Y-104790475D01*
X144960045Y-104790475D02*
X144921950Y-104752380D01*
X144921950Y-104752380D02*
X144883855Y-104676189D01*
X145683855Y-103609522D02*
X145302902Y-103876189D01*
X145683855Y-104066665D02*
X144883855Y-104066665D01*
X144883855Y-104066665D02*
X144883855Y-103761903D01*
X144883855Y-103761903D02*
X144921950Y-103685713D01*
X144921950Y-103685713D02*
X144960045Y-103647618D01*
X144960045Y-103647618D02*
X145036236Y-103609522D01*
X145036236Y-103609522D02*
X145150521Y-103609522D01*
X145150521Y-103609522D02*
X145226712Y-103647618D01*
X145226712Y-103647618D02*
X145264807Y-103685713D01*
X145264807Y-103685713D02*
X145302902Y-103761903D01*
X145302902Y-103761903D02*
X145302902Y-104066665D01*
D12*
X144268200Y-105167142D02*
X144144391Y-105253809D01*
X144268200Y-105315714D02*
X144008200Y-105315714D01*
X144008200Y-105315714D02*
X144008200Y-105216666D01*
X144008200Y-105216666D02*
X144020581Y-105191904D01*
X144020581Y-105191904D02*
X144032962Y-105179523D01*
X144032962Y-105179523D02*
X144057724Y-105167142D01*
X144057724Y-105167142D02*
X144094867Y-105167142D01*
X144094867Y-105167142D02*
X144119629Y-105179523D01*
X144119629Y-105179523D02*
X144132010Y-105191904D01*
X144132010Y-105191904D02*
X144144391Y-105216666D01*
X144144391Y-105216666D02*
X144144391Y-105315714D01*
X144008200Y-105080476D02*
X144008200Y-104919523D01*
X144008200Y-104919523D02*
X144107248Y-105006190D01*
X144107248Y-105006190D02*
X144107248Y-104969047D01*
X144107248Y-104969047D02*
X144119629Y-104944285D01*
X144119629Y-104944285D02*
X144132010Y-104931904D01*
X144132010Y-104931904D02*
X144156772Y-104919523D01*
X144156772Y-104919523D02*
X144218677Y-104919523D01*
X144218677Y-104919523D02*
X144243439Y-104931904D01*
X144243439Y-104931904D02*
X144255820Y-104944285D01*
X144255820Y-104944285D02*
X144268200Y-104969047D01*
X144268200Y-104969047D02*
X144268200Y-105043333D01*
X144268200Y-105043333D02*
X144255820Y-105068095D01*
X144255820Y-105068095D02*
X144243439Y-105080476D01*
X144008200Y-104684285D02*
X144008200Y-104808095D01*
X144008200Y-104808095D02*
X144132010Y-104820476D01*
X144132010Y-104820476D02*
X144119629Y-104808095D01*
X144119629Y-104808095D02*
X144107248Y-104783333D01*
X144107248Y-104783333D02*
X144107248Y-104721428D01*
X144107248Y-104721428D02*
X144119629Y-104696666D01*
X144119629Y-104696666D02*
X144132010Y-104684285D01*
X144132010Y-104684285D02*
X144156772Y-104671904D01*
X144156772Y-104671904D02*
X144218677Y-104671904D01*
X144218677Y-104671904D02*
X144243439Y-104684285D01*
X144243439Y-104684285D02*
X144255820Y-104696666D01*
X144255820Y-104696666D02*
X144268200Y-104721428D01*
X144268200Y-104721428D02*
X144268200Y-104783333D01*
X144268200Y-104783333D02*
X144255820Y-104808095D01*
X144255820Y-104808095D02*
X144243439Y-104820476D01*
D11*
X147690521Y-111009523D02*
X148223855Y-111009523D01*
X147385760Y-111199999D02*
X147957188Y-111390476D01*
X147957188Y-111390476D02*
X147957188Y-110895237D01*
X147423855Y-110666666D02*
X147423855Y-110133332D01*
X147423855Y-110133332D02*
X148223855Y-110476190D01*
X147423855Y-109676189D02*
X147423855Y-109599999D01*
X147423855Y-109599999D02*
X147461950Y-109523808D01*
X147461950Y-109523808D02*
X147500045Y-109485713D01*
X147500045Y-109485713D02*
X147576236Y-109447618D01*
X147576236Y-109447618D02*
X147728617Y-109409523D01*
X147728617Y-109409523D02*
X147919093Y-109409523D01*
X147919093Y-109409523D02*
X148071474Y-109447618D01*
X148071474Y-109447618D02*
X148147664Y-109485713D01*
X148147664Y-109485713D02*
X148185760Y-109523808D01*
X148185760Y-109523808D02*
X148223855Y-109599999D01*
X148223855Y-109599999D02*
X148223855Y-109676189D01*
X148223855Y-109676189D02*
X148185760Y-109752380D01*
X148185760Y-109752380D02*
X148147664Y-109790475D01*
X148147664Y-109790475D02*
X148071474Y-109828570D01*
X148071474Y-109828570D02*
X147919093Y-109866666D01*
X147919093Y-109866666D02*
X147728617Y-109866666D01*
X147728617Y-109866666D02*
X147576236Y-109828570D01*
X147576236Y-109828570D02*
X147500045Y-109790475D01*
X147500045Y-109790475D02*
X147461950Y-109752380D01*
X147461950Y-109752380D02*
X147423855Y-109676189D01*
X148223855Y-108609522D02*
X147842902Y-108876189D01*
X148223855Y-109066665D02*
X147423855Y-109066665D01*
X147423855Y-109066665D02*
X147423855Y-108761903D01*
X147423855Y-108761903D02*
X147461950Y-108685713D01*
X147461950Y-108685713D02*
X147500045Y-108647618D01*
X147500045Y-108647618D02*
X147576236Y-108609522D01*
X147576236Y-108609522D02*
X147690521Y-108609522D01*
X147690521Y-108609522D02*
X147766712Y-108647618D01*
X147766712Y-108647618D02*
X147804807Y-108685713D01*
X147804807Y-108685713D02*
X147842902Y-108761903D01*
X147842902Y-108761903D02*
X147842902Y-109066665D01*
D12*
X146808200Y-110167142D02*
X146684391Y-110253809D01*
X146808200Y-110315714D02*
X146548200Y-110315714D01*
X146548200Y-110315714D02*
X146548200Y-110216666D01*
X146548200Y-110216666D02*
X146560581Y-110191904D01*
X146560581Y-110191904D02*
X146572962Y-110179523D01*
X146572962Y-110179523D02*
X146597724Y-110167142D01*
X146597724Y-110167142D02*
X146634867Y-110167142D01*
X146634867Y-110167142D02*
X146659629Y-110179523D01*
X146659629Y-110179523D02*
X146672010Y-110191904D01*
X146672010Y-110191904D02*
X146684391Y-110216666D01*
X146684391Y-110216666D02*
X146684391Y-110315714D01*
X146548200Y-110080476D02*
X146548200Y-109919523D01*
X146548200Y-109919523D02*
X146647248Y-110006190D01*
X146647248Y-110006190D02*
X146647248Y-109969047D01*
X146647248Y-109969047D02*
X146659629Y-109944285D01*
X146659629Y-109944285D02*
X146672010Y-109931904D01*
X146672010Y-109931904D02*
X146696772Y-109919523D01*
X146696772Y-109919523D02*
X146758677Y-109919523D01*
X146758677Y-109919523D02*
X146783439Y-109931904D01*
X146783439Y-109931904D02*
X146795820Y-109944285D01*
X146795820Y-109944285D02*
X146808200Y-109969047D01*
X146808200Y-109969047D02*
X146808200Y-110043333D01*
X146808200Y-110043333D02*
X146795820Y-110068095D01*
X146795820Y-110068095D02*
X146783439Y-110080476D01*
X146548200Y-109696666D02*
X146548200Y-109746190D01*
X146548200Y-109746190D02*
X146560581Y-109770952D01*
X146560581Y-109770952D02*
X146572962Y-109783333D01*
X146572962Y-109783333D02*
X146610105Y-109808095D01*
X146610105Y-109808095D02*
X146659629Y-109820476D01*
X146659629Y-109820476D02*
X146758677Y-109820476D01*
X146758677Y-109820476D02*
X146783439Y-109808095D01*
X146783439Y-109808095D02*
X146795820Y-109795714D01*
X146795820Y-109795714D02*
X146808200Y-109770952D01*
X146808200Y-109770952D02*
X146808200Y-109721428D01*
X146808200Y-109721428D02*
X146795820Y-109696666D01*
X146795820Y-109696666D02*
X146783439Y-109684285D01*
X146783439Y-109684285D02*
X146758677Y-109671904D01*
X146758677Y-109671904D02*
X146696772Y-109671904D01*
X146696772Y-109671904D02*
X146672010Y-109684285D01*
X146672010Y-109684285D02*
X146659629Y-109696666D01*
X146659629Y-109696666D02*
X146647248Y-109721428D01*
X146647248Y-109721428D02*
X146647248Y-109770952D01*
X146647248Y-109770952D02*
X146659629Y-109795714D01*
X146659629Y-109795714D02*
X146672010Y-109808095D01*
X146672010Y-109808095D02*
X146696772Y-109820476D01*
D11*
X30850520Y-111009523D02*
X31383854Y-111009523D01*
X30545759Y-111199999D02*
X31117187Y-111390476D01*
X31117187Y-111390476D02*
X31117187Y-110895237D01*
X30583854Y-110666666D02*
X30583854Y-110133332D01*
X30583854Y-110133332D02*
X31383854Y-110476190D01*
X30583854Y-109676189D02*
X30583854Y-109599999D01*
X30583854Y-109599999D02*
X30621949Y-109523808D01*
X30621949Y-109523808D02*
X30660044Y-109485713D01*
X30660044Y-109485713D02*
X30736235Y-109447618D01*
X30736235Y-109447618D02*
X30888616Y-109409523D01*
X30888616Y-109409523D02*
X31079092Y-109409523D01*
X31079092Y-109409523D02*
X31231473Y-109447618D01*
X31231473Y-109447618D02*
X31307663Y-109485713D01*
X31307663Y-109485713D02*
X31345759Y-109523808D01*
X31345759Y-109523808D02*
X31383854Y-109599999D01*
X31383854Y-109599999D02*
X31383854Y-109676189D01*
X31383854Y-109676189D02*
X31345759Y-109752380D01*
X31345759Y-109752380D02*
X31307663Y-109790475D01*
X31307663Y-109790475D02*
X31231473Y-109828570D01*
X31231473Y-109828570D02*
X31079092Y-109866666D01*
X31079092Y-109866666D02*
X30888616Y-109866666D01*
X30888616Y-109866666D02*
X30736235Y-109828570D01*
X30736235Y-109828570D02*
X30660044Y-109790475D01*
X30660044Y-109790475D02*
X30621949Y-109752380D01*
X30621949Y-109752380D02*
X30583854Y-109676189D01*
X31383854Y-108609522D02*
X31002901Y-108876189D01*
X31383854Y-109066665D02*
X30583854Y-109066665D01*
X30583854Y-109066665D02*
X30583854Y-108761903D01*
X30583854Y-108761903D02*
X30621949Y-108685713D01*
X30621949Y-108685713D02*
X30660044Y-108647618D01*
X30660044Y-108647618D02*
X30736235Y-108609522D01*
X30736235Y-108609522D02*
X30850520Y-108609522D01*
X30850520Y-108609522D02*
X30926711Y-108647618D01*
X30926711Y-108647618D02*
X30964806Y-108685713D01*
X30964806Y-108685713D02*
X31002901Y-108761903D01*
X31002901Y-108761903D02*
X31002901Y-109066665D01*
D12*
X29968199Y-110043332D02*
X29844390Y-110129999D01*
X29968199Y-110191904D02*
X29708199Y-110191904D01*
X29708199Y-110191904D02*
X29708199Y-110092856D01*
X29708199Y-110092856D02*
X29720580Y-110068094D01*
X29720580Y-110068094D02*
X29732961Y-110055713D01*
X29732961Y-110055713D02*
X29757723Y-110043332D01*
X29757723Y-110043332D02*
X29794866Y-110043332D01*
X29794866Y-110043332D02*
X29819628Y-110055713D01*
X29819628Y-110055713D02*
X29832009Y-110068094D01*
X29832009Y-110068094D02*
X29844390Y-110092856D01*
X29844390Y-110092856D02*
X29844390Y-110191904D01*
X29708199Y-109820475D02*
X29708199Y-109869999D01*
X29708199Y-109869999D02*
X29720580Y-109894761D01*
X29720580Y-109894761D02*
X29732961Y-109907142D01*
X29732961Y-109907142D02*
X29770104Y-109931904D01*
X29770104Y-109931904D02*
X29819628Y-109944285D01*
X29819628Y-109944285D02*
X29918676Y-109944285D01*
X29918676Y-109944285D02*
X29943438Y-109931904D01*
X29943438Y-109931904D02*
X29955819Y-109919523D01*
X29955819Y-109919523D02*
X29968199Y-109894761D01*
X29968199Y-109894761D02*
X29968199Y-109845237D01*
X29968199Y-109845237D02*
X29955819Y-109820475D01*
X29955819Y-109820475D02*
X29943438Y-109808094D01*
X29943438Y-109808094D02*
X29918676Y-109795713D01*
X29918676Y-109795713D02*
X29856771Y-109795713D01*
X29856771Y-109795713D02*
X29832009Y-109808094D01*
X29832009Y-109808094D02*
X29819628Y-109820475D01*
X29819628Y-109820475D02*
X29807247Y-109845237D01*
X29807247Y-109845237D02*
X29807247Y-109894761D01*
X29807247Y-109894761D02*
X29819628Y-109919523D01*
X29819628Y-109919523D02*
X29832009Y-109931904D01*
X29832009Y-109931904D02*
X29856771Y-109944285D01*
D11*
X41010520Y-111009523D02*
X41543854Y-111009523D01*
X40705759Y-111199999D02*
X41277187Y-111390476D01*
X41277187Y-111390476D02*
X41277187Y-110895237D01*
X40743854Y-110666666D02*
X40743854Y-110133332D01*
X40743854Y-110133332D02*
X41543854Y-110476190D01*
X40743854Y-109676189D02*
X40743854Y-109599999D01*
X40743854Y-109599999D02*
X40781949Y-109523808D01*
X40781949Y-109523808D02*
X40820044Y-109485713D01*
X40820044Y-109485713D02*
X40896235Y-109447618D01*
X40896235Y-109447618D02*
X41048616Y-109409523D01*
X41048616Y-109409523D02*
X41239092Y-109409523D01*
X41239092Y-109409523D02*
X41391473Y-109447618D01*
X41391473Y-109447618D02*
X41467663Y-109485713D01*
X41467663Y-109485713D02*
X41505759Y-109523808D01*
X41505759Y-109523808D02*
X41543854Y-109599999D01*
X41543854Y-109599999D02*
X41543854Y-109676189D01*
X41543854Y-109676189D02*
X41505759Y-109752380D01*
X41505759Y-109752380D02*
X41467663Y-109790475D01*
X41467663Y-109790475D02*
X41391473Y-109828570D01*
X41391473Y-109828570D02*
X41239092Y-109866666D01*
X41239092Y-109866666D02*
X41048616Y-109866666D01*
X41048616Y-109866666D02*
X40896235Y-109828570D01*
X40896235Y-109828570D02*
X40820044Y-109790475D01*
X40820044Y-109790475D02*
X40781949Y-109752380D01*
X40781949Y-109752380D02*
X40743854Y-109676189D01*
X41543854Y-108609522D02*
X41162901Y-108876189D01*
X41543854Y-109066665D02*
X40743854Y-109066665D01*
X40743854Y-109066665D02*
X40743854Y-108761903D01*
X40743854Y-108761903D02*
X40781949Y-108685713D01*
X40781949Y-108685713D02*
X40820044Y-108647618D01*
X40820044Y-108647618D02*
X40896235Y-108609522D01*
X40896235Y-108609522D02*
X41010520Y-108609522D01*
X41010520Y-108609522D02*
X41086711Y-108647618D01*
X41086711Y-108647618D02*
X41124806Y-108685713D01*
X41124806Y-108685713D02*
X41162901Y-108761903D01*
X41162901Y-108761903D02*
X41162901Y-109066665D01*
D12*
X40128199Y-110167142D02*
X40004390Y-110253809D01*
X40128199Y-110315714D02*
X39868199Y-110315714D01*
X39868199Y-110315714D02*
X39868199Y-110216666D01*
X39868199Y-110216666D02*
X39880580Y-110191904D01*
X39880580Y-110191904D02*
X39892961Y-110179523D01*
X39892961Y-110179523D02*
X39917723Y-110167142D01*
X39917723Y-110167142D02*
X39954866Y-110167142D01*
X39954866Y-110167142D02*
X39979628Y-110179523D01*
X39979628Y-110179523D02*
X39992009Y-110191904D01*
X39992009Y-110191904D02*
X40004390Y-110216666D01*
X40004390Y-110216666D02*
X40004390Y-110315714D01*
X39892961Y-110068095D02*
X39880580Y-110055714D01*
X39880580Y-110055714D02*
X39868199Y-110030952D01*
X39868199Y-110030952D02*
X39868199Y-109969047D01*
X39868199Y-109969047D02*
X39880580Y-109944285D01*
X39880580Y-109944285D02*
X39892961Y-109931904D01*
X39892961Y-109931904D02*
X39917723Y-109919523D01*
X39917723Y-109919523D02*
X39942485Y-109919523D01*
X39942485Y-109919523D02*
X39979628Y-109931904D01*
X39979628Y-109931904D02*
X40128199Y-110080476D01*
X40128199Y-110080476D02*
X40128199Y-109919523D01*
X39892961Y-109820476D02*
X39880580Y-109808095D01*
X39880580Y-109808095D02*
X39868199Y-109783333D01*
X39868199Y-109783333D02*
X39868199Y-109721428D01*
X39868199Y-109721428D02*
X39880580Y-109696666D01*
X39880580Y-109696666D02*
X39892961Y-109684285D01*
X39892961Y-109684285D02*
X39917723Y-109671904D01*
X39917723Y-109671904D02*
X39942485Y-109671904D01*
X39942485Y-109671904D02*
X39979628Y-109684285D01*
X39979628Y-109684285D02*
X40128199Y-109832857D01*
X40128199Y-109832857D02*
X40128199Y-109671904D01*
D11*
X129910521Y-106009523D02*
X130443855Y-106009523D01*
X129605760Y-106199999D02*
X130177188Y-106390476D01*
X130177188Y-106390476D02*
X130177188Y-105895237D01*
X129643855Y-105666666D02*
X129643855Y-105133332D01*
X129643855Y-105133332D02*
X130443855Y-105476190D01*
X129643855Y-104676189D02*
X129643855Y-104599999D01*
X129643855Y-104599999D02*
X129681950Y-104523808D01*
X129681950Y-104523808D02*
X129720045Y-104485713D01*
X129720045Y-104485713D02*
X129796236Y-104447618D01*
X129796236Y-104447618D02*
X129948617Y-104409523D01*
X129948617Y-104409523D02*
X130139093Y-104409523D01*
X130139093Y-104409523D02*
X130291474Y-104447618D01*
X130291474Y-104447618D02*
X130367664Y-104485713D01*
X130367664Y-104485713D02*
X130405760Y-104523808D01*
X130405760Y-104523808D02*
X130443855Y-104599999D01*
X130443855Y-104599999D02*
X130443855Y-104676189D01*
X130443855Y-104676189D02*
X130405760Y-104752380D01*
X130405760Y-104752380D02*
X130367664Y-104790475D01*
X130367664Y-104790475D02*
X130291474Y-104828570D01*
X130291474Y-104828570D02*
X130139093Y-104866666D01*
X130139093Y-104866666D02*
X129948617Y-104866666D01*
X129948617Y-104866666D02*
X129796236Y-104828570D01*
X129796236Y-104828570D02*
X129720045Y-104790475D01*
X129720045Y-104790475D02*
X129681950Y-104752380D01*
X129681950Y-104752380D02*
X129643855Y-104676189D01*
X130443855Y-103609522D02*
X130062902Y-103876189D01*
X130443855Y-104066665D02*
X129643855Y-104066665D01*
X129643855Y-104066665D02*
X129643855Y-103761903D01*
X129643855Y-103761903D02*
X129681950Y-103685713D01*
X129681950Y-103685713D02*
X129720045Y-103647618D01*
X129720045Y-103647618D02*
X129796236Y-103609522D01*
X129796236Y-103609522D02*
X129910521Y-103609522D01*
X129910521Y-103609522D02*
X129986712Y-103647618D01*
X129986712Y-103647618D02*
X130024807Y-103685713D01*
X130024807Y-103685713D02*
X130062902Y-103761903D01*
X130062902Y-103761903D02*
X130062902Y-104066665D01*
D12*
X129028200Y-105167142D02*
X128904391Y-105253809D01*
X129028200Y-105315714D02*
X128768200Y-105315714D01*
X128768200Y-105315714D02*
X128768200Y-105216666D01*
X128768200Y-105216666D02*
X128780581Y-105191904D01*
X128780581Y-105191904D02*
X128792962Y-105179523D01*
X128792962Y-105179523D02*
X128817724Y-105167142D01*
X128817724Y-105167142D02*
X128854867Y-105167142D01*
X128854867Y-105167142D02*
X128879629Y-105179523D01*
X128879629Y-105179523D02*
X128892010Y-105191904D01*
X128892010Y-105191904D02*
X128904391Y-105216666D01*
X128904391Y-105216666D02*
X128904391Y-105315714D01*
X128792962Y-105068095D02*
X128780581Y-105055714D01*
X128780581Y-105055714D02*
X128768200Y-105030952D01*
X128768200Y-105030952D02*
X128768200Y-104969047D01*
X128768200Y-104969047D02*
X128780581Y-104944285D01*
X128780581Y-104944285D02*
X128792962Y-104931904D01*
X128792962Y-104931904D02*
X128817724Y-104919523D01*
X128817724Y-104919523D02*
X128842486Y-104919523D01*
X128842486Y-104919523D02*
X128879629Y-104931904D01*
X128879629Y-104931904D02*
X129028200Y-105080476D01*
X129028200Y-105080476D02*
X129028200Y-104919523D01*
X129028200Y-104795714D02*
X129028200Y-104746190D01*
X129028200Y-104746190D02*
X129015820Y-104721428D01*
X129015820Y-104721428D02*
X129003439Y-104709047D01*
X129003439Y-104709047D02*
X128966296Y-104684285D01*
X128966296Y-104684285D02*
X128916772Y-104671904D01*
X128916772Y-104671904D02*
X128817724Y-104671904D01*
X128817724Y-104671904D02*
X128792962Y-104684285D01*
X128792962Y-104684285D02*
X128780581Y-104696666D01*
X128780581Y-104696666D02*
X128768200Y-104721428D01*
X128768200Y-104721428D02*
X128768200Y-104770952D01*
X128768200Y-104770952D02*
X128780581Y-104795714D01*
X128780581Y-104795714D02*
X128792962Y-104808095D01*
X128792962Y-104808095D02*
X128817724Y-104820476D01*
X128817724Y-104820476D02*
X128879629Y-104820476D01*
X128879629Y-104820476D02*
X128904391Y-104808095D01*
X128904391Y-104808095D02*
X128916772Y-104795714D01*
X128916772Y-104795714D02*
X128929153Y-104770952D01*
X128929153Y-104770952D02*
X128929153Y-104721428D01*
X128929153Y-104721428D02*
X128916772Y-104696666D01*
X128916772Y-104696666D02*
X128904391Y-104684285D01*
X128904391Y-104684285D02*
X128879629Y-104671904D01*
D11*
X127370520Y-101009523D02*
X127903854Y-101009523D01*
X127065759Y-101199999D02*
X127637187Y-101390476D01*
X127637187Y-101390476D02*
X127637187Y-100895237D01*
X127103854Y-100666666D02*
X127103854Y-100133332D01*
X127103854Y-100133332D02*
X127903854Y-100476190D01*
X127103854Y-99676189D02*
X127103854Y-99599999D01*
X127103854Y-99599999D02*
X127141949Y-99523808D01*
X127141949Y-99523808D02*
X127180044Y-99485713D01*
X127180044Y-99485713D02*
X127256235Y-99447618D01*
X127256235Y-99447618D02*
X127408616Y-99409523D01*
X127408616Y-99409523D02*
X127599092Y-99409523D01*
X127599092Y-99409523D02*
X127751473Y-99447618D01*
X127751473Y-99447618D02*
X127827663Y-99485713D01*
X127827663Y-99485713D02*
X127865759Y-99523808D01*
X127865759Y-99523808D02*
X127903854Y-99599999D01*
X127903854Y-99599999D02*
X127903854Y-99676189D01*
X127903854Y-99676189D02*
X127865759Y-99752380D01*
X127865759Y-99752380D02*
X127827663Y-99790475D01*
X127827663Y-99790475D02*
X127751473Y-99828570D01*
X127751473Y-99828570D02*
X127599092Y-99866666D01*
X127599092Y-99866666D02*
X127408616Y-99866666D01*
X127408616Y-99866666D02*
X127256235Y-99828570D01*
X127256235Y-99828570D02*
X127180044Y-99790475D01*
X127180044Y-99790475D02*
X127141949Y-99752380D01*
X127141949Y-99752380D02*
X127103854Y-99676189D01*
X127903854Y-98609522D02*
X127522901Y-98876189D01*
X127903854Y-99066665D02*
X127103854Y-99066665D01*
X127103854Y-99066665D02*
X127103854Y-98761903D01*
X127103854Y-98761903D02*
X127141949Y-98685713D01*
X127141949Y-98685713D02*
X127180044Y-98647618D01*
X127180044Y-98647618D02*
X127256235Y-98609522D01*
X127256235Y-98609522D02*
X127370520Y-98609522D01*
X127370520Y-98609522D02*
X127446711Y-98647618D01*
X127446711Y-98647618D02*
X127484806Y-98685713D01*
X127484806Y-98685713D02*
X127522901Y-98761903D01*
X127522901Y-98761903D02*
X127522901Y-99066665D01*
D12*
X126488199Y-100167142D02*
X126364390Y-100253809D01*
X126488199Y-100315714D02*
X126228199Y-100315714D01*
X126228199Y-100315714D02*
X126228199Y-100216666D01*
X126228199Y-100216666D02*
X126240580Y-100191904D01*
X126240580Y-100191904D02*
X126252961Y-100179523D01*
X126252961Y-100179523D02*
X126277723Y-100167142D01*
X126277723Y-100167142D02*
X126314866Y-100167142D01*
X126314866Y-100167142D02*
X126339628Y-100179523D01*
X126339628Y-100179523D02*
X126352009Y-100191904D01*
X126352009Y-100191904D02*
X126364390Y-100216666D01*
X126364390Y-100216666D02*
X126364390Y-100315714D01*
X126252961Y-100068095D02*
X126240580Y-100055714D01*
X126240580Y-100055714D02*
X126228199Y-100030952D01*
X126228199Y-100030952D02*
X126228199Y-99969047D01*
X126228199Y-99969047D02*
X126240580Y-99944285D01*
X126240580Y-99944285D02*
X126252961Y-99931904D01*
X126252961Y-99931904D02*
X126277723Y-99919523D01*
X126277723Y-99919523D02*
X126302485Y-99919523D01*
X126302485Y-99919523D02*
X126339628Y-99931904D01*
X126339628Y-99931904D02*
X126488199Y-100080476D01*
X126488199Y-100080476D02*
X126488199Y-99919523D01*
X126339628Y-99770952D02*
X126327247Y-99795714D01*
X126327247Y-99795714D02*
X126314866Y-99808095D01*
X126314866Y-99808095D02*
X126290104Y-99820476D01*
X126290104Y-99820476D02*
X126277723Y-99820476D01*
X126277723Y-99820476D02*
X126252961Y-99808095D01*
X126252961Y-99808095D02*
X126240580Y-99795714D01*
X126240580Y-99795714D02*
X126228199Y-99770952D01*
X126228199Y-99770952D02*
X126228199Y-99721428D01*
X126228199Y-99721428D02*
X126240580Y-99696666D01*
X126240580Y-99696666D02*
X126252961Y-99684285D01*
X126252961Y-99684285D02*
X126277723Y-99671904D01*
X126277723Y-99671904D02*
X126290104Y-99671904D01*
X126290104Y-99671904D02*
X126314866Y-99684285D01*
X126314866Y-99684285D02*
X126327247Y-99696666D01*
X126327247Y-99696666D02*
X126339628Y-99721428D01*
X126339628Y-99721428D02*
X126339628Y-99770952D01*
X126339628Y-99770952D02*
X126352009Y-99795714D01*
X126352009Y-99795714D02*
X126364390Y-99808095D01*
X126364390Y-99808095D02*
X126389152Y-99820476D01*
X126389152Y-99820476D02*
X126438676Y-99820476D01*
X126438676Y-99820476D02*
X126463438Y-99808095D01*
X126463438Y-99808095D02*
X126475819Y-99795714D01*
X126475819Y-99795714D02*
X126488199Y-99770952D01*
X126488199Y-99770952D02*
X126488199Y-99721428D01*
X126488199Y-99721428D02*
X126475819Y-99696666D01*
X126475819Y-99696666D02*
X126463438Y-99684285D01*
X126463438Y-99684285D02*
X126438676Y-99671904D01*
X126438676Y-99671904D02*
X126389152Y-99671904D01*
X126389152Y-99671904D02*
X126364390Y-99684285D01*
X126364390Y-99684285D02*
X126352009Y-99696666D01*
X126352009Y-99696666D02*
X126339628Y-99721428D01*
D11*
X46090521Y-111009523D02*
X46623855Y-111009523D01*
X45785760Y-111199999D02*
X46357188Y-111390476D01*
X46357188Y-111390476D02*
X46357188Y-110895237D01*
X45823855Y-110666666D02*
X45823855Y-110133332D01*
X45823855Y-110133332D02*
X46623855Y-110476190D01*
X45823855Y-109676189D02*
X45823855Y-109599999D01*
X45823855Y-109599999D02*
X45861950Y-109523808D01*
X45861950Y-109523808D02*
X45900045Y-109485713D01*
X45900045Y-109485713D02*
X45976236Y-109447618D01*
X45976236Y-109447618D02*
X46128617Y-109409523D01*
X46128617Y-109409523D02*
X46319093Y-109409523D01*
X46319093Y-109409523D02*
X46471474Y-109447618D01*
X46471474Y-109447618D02*
X46547664Y-109485713D01*
X46547664Y-109485713D02*
X46585760Y-109523808D01*
X46585760Y-109523808D02*
X46623855Y-109599999D01*
X46623855Y-109599999D02*
X46623855Y-109676189D01*
X46623855Y-109676189D02*
X46585760Y-109752380D01*
X46585760Y-109752380D02*
X46547664Y-109790475D01*
X46547664Y-109790475D02*
X46471474Y-109828570D01*
X46471474Y-109828570D02*
X46319093Y-109866666D01*
X46319093Y-109866666D02*
X46128617Y-109866666D01*
X46128617Y-109866666D02*
X45976236Y-109828570D01*
X45976236Y-109828570D02*
X45900045Y-109790475D01*
X45900045Y-109790475D02*
X45861950Y-109752380D01*
X45861950Y-109752380D02*
X45823855Y-109676189D01*
X46623855Y-108609522D02*
X46242902Y-108876189D01*
X46623855Y-109066665D02*
X45823855Y-109066665D01*
X45823855Y-109066665D02*
X45823855Y-108761903D01*
X45823855Y-108761903D02*
X45861950Y-108685713D01*
X45861950Y-108685713D02*
X45900045Y-108647618D01*
X45900045Y-108647618D02*
X45976236Y-108609522D01*
X45976236Y-108609522D02*
X46090521Y-108609522D01*
X46090521Y-108609522D02*
X46166712Y-108647618D01*
X46166712Y-108647618D02*
X46204807Y-108685713D01*
X46204807Y-108685713D02*
X46242902Y-108761903D01*
X46242902Y-108761903D02*
X46242902Y-109066665D01*
D12*
X45208200Y-110167142D02*
X45084391Y-110253809D01*
X45208200Y-110315714D02*
X44948200Y-110315714D01*
X44948200Y-110315714D02*
X44948200Y-110216666D01*
X44948200Y-110216666D02*
X44960581Y-110191904D01*
X44960581Y-110191904D02*
X44972962Y-110179523D01*
X44972962Y-110179523D02*
X44997724Y-110167142D01*
X44997724Y-110167142D02*
X45034867Y-110167142D01*
X45034867Y-110167142D02*
X45059629Y-110179523D01*
X45059629Y-110179523D02*
X45072010Y-110191904D01*
X45072010Y-110191904D02*
X45084391Y-110216666D01*
X45084391Y-110216666D02*
X45084391Y-110315714D01*
X45208200Y-109919523D02*
X45208200Y-110068095D01*
X45208200Y-109993809D02*
X44948200Y-109993809D01*
X44948200Y-109993809D02*
X44985343Y-110018571D01*
X44985343Y-110018571D02*
X45010105Y-110043333D01*
X45010105Y-110043333D02*
X45022486Y-110068095D01*
X44972962Y-109820476D02*
X44960581Y-109808095D01*
X44960581Y-109808095D02*
X44948200Y-109783333D01*
X44948200Y-109783333D02*
X44948200Y-109721428D01*
X44948200Y-109721428D02*
X44960581Y-109696666D01*
X44960581Y-109696666D02*
X44972962Y-109684285D01*
X44972962Y-109684285D02*
X44997724Y-109671904D01*
X44997724Y-109671904D02*
X45022486Y-109671904D01*
X45022486Y-109671904D02*
X45059629Y-109684285D01*
X45059629Y-109684285D02*
X45208200Y-109832857D01*
X45208200Y-109832857D02*
X45208200Y-109671904D01*
D13*
X112226191Y-51387409D02*
X111940477Y-51387409D01*
X112083334Y-51387409D02*
X112083334Y-50887409D01*
X112083334Y-50887409D02*
X112035715Y-50958838D01*
X112035715Y-50958838D02*
X111988096Y-51006457D01*
X111988096Y-51006457D02*
X111940477Y-51030266D01*
X112535714Y-50887409D02*
X112583333Y-50887409D01*
X112583333Y-50887409D02*
X112630952Y-50911219D01*
X112630952Y-50911219D02*
X112654762Y-50935028D01*
X112654762Y-50935028D02*
X112678571Y-50982647D01*
X112678571Y-50982647D02*
X112702381Y-51077885D01*
X112702381Y-51077885D02*
X112702381Y-51196933D01*
X112702381Y-51196933D02*
X112678571Y-51292171D01*
X112678571Y-51292171D02*
X112654762Y-51339790D01*
X112654762Y-51339790D02*
X112630952Y-51363600D01*
X112630952Y-51363600D02*
X112583333Y-51387409D01*
X112583333Y-51387409D02*
X112535714Y-51387409D01*
X112535714Y-51387409D02*
X112488095Y-51363600D01*
X112488095Y-51363600D02*
X112464286Y-51339790D01*
X112464286Y-51339790D02*
X112440476Y-51292171D01*
X112440476Y-51292171D02*
X112416667Y-51196933D01*
X112416667Y-51196933D02*
X112416667Y-51077885D01*
X112416667Y-51077885D02*
X112440476Y-50982647D01*
X112440476Y-50982647D02*
X112464286Y-50935028D01*
X112464286Y-50935028D02*
X112488095Y-50911219D01*
X112488095Y-50911219D02*
X112535714Y-50887409D01*
X113011904Y-50887409D02*
X113059523Y-50887409D01*
X113059523Y-50887409D02*
X113107142Y-50911219D01*
X113107142Y-50911219D02*
X113130952Y-50935028D01*
X113130952Y-50935028D02*
X113154761Y-50982647D01*
X113154761Y-50982647D02*
X113178571Y-51077885D01*
X113178571Y-51077885D02*
X113178571Y-51196933D01*
X113178571Y-51196933D02*
X113154761Y-51292171D01*
X113154761Y-51292171D02*
X113130952Y-51339790D01*
X113130952Y-51339790D02*
X113107142Y-51363600D01*
X113107142Y-51363600D02*
X113059523Y-51387409D01*
X113059523Y-51387409D02*
X113011904Y-51387409D01*
X113011904Y-51387409D02*
X112964285Y-51363600D01*
X112964285Y-51363600D02*
X112940476Y-51339790D01*
X112940476Y-51339790D02*
X112916666Y-51292171D01*
X112916666Y-51292171D02*
X112892857Y-51196933D01*
X112892857Y-51196933D02*
X112892857Y-51077885D01*
X112892857Y-51077885D02*
X112916666Y-50982647D01*
X112916666Y-50982647D02*
X112940476Y-50935028D01*
X112940476Y-50935028D02*
X112964285Y-50911219D01*
X112964285Y-50911219D02*
X113011904Y-50887409D01*
X113392856Y-51054076D02*
X113392856Y-51387409D01*
X113392856Y-51101695D02*
X113416666Y-51077885D01*
X113416666Y-51077885D02*
X113464285Y-51054076D01*
X113464285Y-51054076D02*
X113535713Y-51054076D01*
X113535713Y-51054076D02*
X113583332Y-51077885D01*
X113583332Y-51077885D02*
X113607142Y-51125504D01*
X113607142Y-51125504D02*
X113607142Y-51387409D01*
X114011904Y-51125504D02*
X113845237Y-51125504D01*
X113845237Y-51387409D02*
X113845237Y-50887409D01*
X113845237Y-50887409D02*
X114083332Y-50887409D01*
D12*
X112958333Y-50089765D02*
X112946429Y-50101670D01*
X112946429Y-50101670D02*
X112910714Y-50113574D01*
X112910714Y-50113574D02*
X112886905Y-50113574D01*
X112886905Y-50113574D02*
X112851191Y-50101670D01*
X112851191Y-50101670D02*
X112827381Y-50077860D01*
X112827381Y-50077860D02*
X112815476Y-50054050D01*
X112815476Y-50054050D02*
X112803572Y-50006431D01*
X112803572Y-50006431D02*
X112803572Y-49970717D01*
X112803572Y-49970717D02*
X112815476Y-49923098D01*
X112815476Y-49923098D02*
X112827381Y-49899289D01*
X112827381Y-49899289D02*
X112851191Y-49875479D01*
X112851191Y-49875479D02*
X112886905Y-49863574D01*
X112886905Y-49863574D02*
X112910714Y-49863574D01*
X112910714Y-49863574D02*
X112946429Y-49875479D01*
X112946429Y-49875479D02*
X112958333Y-49887384D01*
X113184524Y-49863574D02*
X113065476Y-49863574D01*
X113065476Y-49863574D02*
X113053572Y-49982622D01*
X113053572Y-49982622D02*
X113065476Y-49970717D01*
X113065476Y-49970717D02*
X113089286Y-49958812D01*
X113089286Y-49958812D02*
X113148810Y-49958812D01*
X113148810Y-49958812D02*
X113172619Y-49970717D01*
X113172619Y-49970717D02*
X113184524Y-49982622D01*
X113184524Y-49982622D02*
X113196429Y-50006431D01*
X113196429Y-50006431D02*
X113196429Y-50065955D01*
X113196429Y-50065955D02*
X113184524Y-50089765D01*
X113184524Y-50089765D02*
X113172619Y-50101670D01*
X113172619Y-50101670D02*
X113148810Y-50113574D01*
X113148810Y-50113574D02*
X113089286Y-50113574D01*
X113089286Y-50113574D02*
X113065476Y-50101670D01*
X113065476Y-50101670D02*
X113053572Y-50089765D01*
D11*
X23230520Y-111009523D02*
X23763854Y-111009523D01*
X22925759Y-111199999D02*
X23497187Y-111390476D01*
X23497187Y-111390476D02*
X23497187Y-110895237D01*
X22963854Y-110666666D02*
X22963854Y-110133332D01*
X22963854Y-110133332D02*
X23763854Y-110476190D01*
X22963854Y-109676189D02*
X22963854Y-109599999D01*
X22963854Y-109599999D02*
X23001949Y-109523808D01*
X23001949Y-109523808D02*
X23040044Y-109485713D01*
X23040044Y-109485713D02*
X23116235Y-109447618D01*
X23116235Y-109447618D02*
X23268616Y-109409523D01*
X23268616Y-109409523D02*
X23459092Y-109409523D01*
X23459092Y-109409523D02*
X23611473Y-109447618D01*
X23611473Y-109447618D02*
X23687663Y-109485713D01*
X23687663Y-109485713D02*
X23725759Y-109523808D01*
X23725759Y-109523808D02*
X23763854Y-109599999D01*
X23763854Y-109599999D02*
X23763854Y-109676189D01*
X23763854Y-109676189D02*
X23725759Y-109752380D01*
X23725759Y-109752380D02*
X23687663Y-109790475D01*
X23687663Y-109790475D02*
X23611473Y-109828570D01*
X23611473Y-109828570D02*
X23459092Y-109866666D01*
X23459092Y-109866666D02*
X23268616Y-109866666D01*
X23268616Y-109866666D02*
X23116235Y-109828570D01*
X23116235Y-109828570D02*
X23040044Y-109790475D01*
X23040044Y-109790475D02*
X23001949Y-109752380D01*
X23001949Y-109752380D02*
X22963854Y-109676189D01*
X23763854Y-108609522D02*
X23382901Y-108876189D01*
X23763854Y-109066665D02*
X22963854Y-109066665D01*
X22963854Y-109066665D02*
X22963854Y-108761903D01*
X22963854Y-108761903D02*
X23001949Y-108685713D01*
X23001949Y-108685713D02*
X23040044Y-108647618D01*
X23040044Y-108647618D02*
X23116235Y-108609522D01*
X23116235Y-108609522D02*
X23230520Y-108609522D01*
X23230520Y-108609522D02*
X23306711Y-108647618D01*
X23306711Y-108647618D02*
X23344806Y-108685713D01*
X23344806Y-108685713D02*
X23382901Y-108761903D01*
X23382901Y-108761903D02*
X23382901Y-109066665D01*
D12*
X22348199Y-110043332D02*
X22224390Y-110129999D01*
X22348199Y-110191904D02*
X22088199Y-110191904D01*
X22088199Y-110191904D02*
X22088199Y-110092856D01*
X22088199Y-110092856D02*
X22100580Y-110068094D01*
X22100580Y-110068094D02*
X22112961Y-110055713D01*
X22112961Y-110055713D02*
X22137723Y-110043332D01*
X22137723Y-110043332D02*
X22174866Y-110043332D01*
X22174866Y-110043332D02*
X22199628Y-110055713D01*
X22199628Y-110055713D02*
X22212009Y-110068094D01*
X22212009Y-110068094D02*
X22224390Y-110092856D01*
X22224390Y-110092856D02*
X22224390Y-110191904D01*
X22088199Y-109956666D02*
X22088199Y-109795713D01*
X22088199Y-109795713D02*
X22187247Y-109882380D01*
X22187247Y-109882380D02*
X22187247Y-109845237D01*
X22187247Y-109845237D02*
X22199628Y-109820475D01*
X22199628Y-109820475D02*
X22212009Y-109808094D01*
X22212009Y-109808094D02*
X22236771Y-109795713D01*
X22236771Y-109795713D02*
X22298676Y-109795713D01*
X22298676Y-109795713D02*
X22323438Y-109808094D01*
X22323438Y-109808094D02*
X22335819Y-109820475D01*
X22335819Y-109820475D02*
X22348199Y-109845237D01*
X22348199Y-109845237D02*
X22348199Y-109919523D01*
X22348199Y-109919523D02*
X22335819Y-109944285D01*
X22335819Y-109944285D02*
X22323438Y-109956666D01*
D11*
X41010520Y-106009523D02*
X41543854Y-106009523D01*
X40705759Y-106199999D02*
X41277187Y-106390476D01*
X41277187Y-106390476D02*
X41277187Y-105895237D01*
X40743854Y-105666666D02*
X40743854Y-105133332D01*
X40743854Y-105133332D02*
X41543854Y-105476190D01*
X40743854Y-104676189D02*
X40743854Y-104599999D01*
X40743854Y-104599999D02*
X40781949Y-104523808D01*
X40781949Y-104523808D02*
X40820044Y-104485713D01*
X40820044Y-104485713D02*
X40896235Y-104447618D01*
X40896235Y-104447618D02*
X41048616Y-104409523D01*
X41048616Y-104409523D02*
X41239092Y-104409523D01*
X41239092Y-104409523D02*
X41391473Y-104447618D01*
X41391473Y-104447618D02*
X41467663Y-104485713D01*
X41467663Y-104485713D02*
X41505759Y-104523808D01*
X41505759Y-104523808D02*
X41543854Y-104599999D01*
X41543854Y-104599999D02*
X41543854Y-104676189D01*
X41543854Y-104676189D02*
X41505759Y-104752380D01*
X41505759Y-104752380D02*
X41467663Y-104790475D01*
X41467663Y-104790475D02*
X41391473Y-104828570D01*
X41391473Y-104828570D02*
X41239092Y-104866666D01*
X41239092Y-104866666D02*
X41048616Y-104866666D01*
X41048616Y-104866666D02*
X40896235Y-104828570D01*
X40896235Y-104828570D02*
X40820044Y-104790475D01*
X40820044Y-104790475D02*
X40781949Y-104752380D01*
X40781949Y-104752380D02*
X40743854Y-104676189D01*
X41543854Y-103609522D02*
X41162901Y-103876189D01*
X41543854Y-104066665D02*
X40743854Y-104066665D01*
X40743854Y-104066665D02*
X40743854Y-103761903D01*
X40743854Y-103761903D02*
X40781949Y-103685713D01*
X40781949Y-103685713D02*
X40820044Y-103647618D01*
X40820044Y-103647618D02*
X40896235Y-103609522D01*
X40896235Y-103609522D02*
X41010520Y-103609522D01*
X41010520Y-103609522D02*
X41086711Y-103647618D01*
X41086711Y-103647618D02*
X41124806Y-103685713D01*
X41124806Y-103685713D02*
X41162901Y-103761903D01*
X41162901Y-103761903D02*
X41162901Y-104066665D01*
D12*
X40128199Y-105167142D02*
X40004390Y-105253809D01*
X40128199Y-105315714D02*
X39868199Y-105315714D01*
X39868199Y-105315714D02*
X39868199Y-105216666D01*
X39868199Y-105216666D02*
X39880580Y-105191904D01*
X39880580Y-105191904D02*
X39892961Y-105179523D01*
X39892961Y-105179523D02*
X39917723Y-105167142D01*
X39917723Y-105167142D02*
X39954866Y-105167142D01*
X39954866Y-105167142D02*
X39979628Y-105179523D01*
X39979628Y-105179523D02*
X39992009Y-105191904D01*
X39992009Y-105191904D02*
X40004390Y-105216666D01*
X40004390Y-105216666D02*
X40004390Y-105315714D01*
X40128199Y-104919523D02*
X40128199Y-105068095D01*
X40128199Y-104993809D02*
X39868199Y-104993809D01*
X39868199Y-104993809D02*
X39905342Y-105018571D01*
X39905342Y-105018571D02*
X39930104Y-105043333D01*
X39930104Y-105043333D02*
X39942485Y-105068095D01*
X39868199Y-104758571D02*
X39868199Y-104733809D01*
X39868199Y-104733809D02*
X39880580Y-104709047D01*
X39880580Y-104709047D02*
X39892961Y-104696666D01*
X39892961Y-104696666D02*
X39917723Y-104684285D01*
X39917723Y-104684285D02*
X39967247Y-104671904D01*
X39967247Y-104671904D02*
X40029152Y-104671904D01*
X40029152Y-104671904D02*
X40078676Y-104684285D01*
X40078676Y-104684285D02*
X40103438Y-104696666D01*
X40103438Y-104696666D02*
X40115819Y-104709047D01*
X40115819Y-104709047D02*
X40128199Y-104733809D01*
X40128199Y-104733809D02*
X40128199Y-104758571D01*
X40128199Y-104758571D02*
X40115819Y-104783333D01*
X40115819Y-104783333D02*
X40103438Y-104795714D01*
X40103438Y-104795714D02*
X40078676Y-104808095D01*
X40078676Y-104808095D02*
X40029152Y-104820476D01*
X40029152Y-104820476D02*
X39967247Y-104820476D01*
X39967247Y-104820476D02*
X39917723Y-104808095D01*
X39917723Y-104808095D02*
X39892961Y-104795714D01*
X39892961Y-104795714D02*
X39880580Y-104783333D01*
X39880580Y-104783333D02*
X39868199Y-104758571D01*
D11*
X38470520Y-111009523D02*
X39003854Y-111009523D01*
X38165759Y-111199999D02*
X38737187Y-111390476D01*
X38737187Y-111390476D02*
X38737187Y-110895237D01*
X38203854Y-110666666D02*
X38203854Y-110133332D01*
X38203854Y-110133332D02*
X39003854Y-110476190D01*
X38203854Y-109676189D02*
X38203854Y-109599999D01*
X38203854Y-109599999D02*
X38241949Y-109523808D01*
X38241949Y-109523808D02*
X38280044Y-109485713D01*
X38280044Y-109485713D02*
X38356235Y-109447618D01*
X38356235Y-109447618D02*
X38508616Y-109409523D01*
X38508616Y-109409523D02*
X38699092Y-109409523D01*
X38699092Y-109409523D02*
X38851473Y-109447618D01*
X38851473Y-109447618D02*
X38927663Y-109485713D01*
X38927663Y-109485713D02*
X38965759Y-109523808D01*
X38965759Y-109523808D02*
X39003854Y-109599999D01*
X39003854Y-109599999D02*
X39003854Y-109676189D01*
X39003854Y-109676189D02*
X38965759Y-109752380D01*
X38965759Y-109752380D02*
X38927663Y-109790475D01*
X38927663Y-109790475D02*
X38851473Y-109828570D01*
X38851473Y-109828570D02*
X38699092Y-109866666D01*
X38699092Y-109866666D02*
X38508616Y-109866666D01*
X38508616Y-109866666D02*
X38356235Y-109828570D01*
X38356235Y-109828570D02*
X38280044Y-109790475D01*
X38280044Y-109790475D02*
X38241949Y-109752380D01*
X38241949Y-109752380D02*
X38203854Y-109676189D01*
X39003854Y-108609522D02*
X38622901Y-108876189D01*
X39003854Y-109066665D02*
X38203854Y-109066665D01*
X38203854Y-109066665D02*
X38203854Y-108761903D01*
X38203854Y-108761903D02*
X38241949Y-108685713D01*
X38241949Y-108685713D02*
X38280044Y-108647618D01*
X38280044Y-108647618D02*
X38356235Y-108609522D01*
X38356235Y-108609522D02*
X38470520Y-108609522D01*
X38470520Y-108609522D02*
X38546711Y-108647618D01*
X38546711Y-108647618D02*
X38584806Y-108685713D01*
X38584806Y-108685713D02*
X38622901Y-108761903D01*
X38622901Y-108761903D02*
X38622901Y-109066665D01*
D12*
X37588199Y-110043332D02*
X37464390Y-110129999D01*
X37588199Y-110191904D02*
X37328199Y-110191904D01*
X37328199Y-110191904D02*
X37328199Y-110092856D01*
X37328199Y-110092856D02*
X37340580Y-110068094D01*
X37340580Y-110068094D02*
X37352961Y-110055713D01*
X37352961Y-110055713D02*
X37377723Y-110043332D01*
X37377723Y-110043332D02*
X37414866Y-110043332D01*
X37414866Y-110043332D02*
X37439628Y-110055713D01*
X37439628Y-110055713D02*
X37452009Y-110068094D01*
X37452009Y-110068094D02*
X37464390Y-110092856D01*
X37464390Y-110092856D02*
X37464390Y-110191904D01*
X37588199Y-109919523D02*
X37588199Y-109869999D01*
X37588199Y-109869999D02*
X37575819Y-109845237D01*
X37575819Y-109845237D02*
X37563438Y-109832856D01*
X37563438Y-109832856D02*
X37526295Y-109808094D01*
X37526295Y-109808094D02*
X37476771Y-109795713D01*
X37476771Y-109795713D02*
X37377723Y-109795713D01*
X37377723Y-109795713D02*
X37352961Y-109808094D01*
X37352961Y-109808094D02*
X37340580Y-109820475D01*
X37340580Y-109820475D02*
X37328199Y-109845237D01*
X37328199Y-109845237D02*
X37328199Y-109894761D01*
X37328199Y-109894761D02*
X37340580Y-109919523D01*
X37340580Y-109919523D02*
X37352961Y-109931904D01*
X37352961Y-109931904D02*
X37377723Y-109944285D01*
X37377723Y-109944285D02*
X37439628Y-109944285D01*
X37439628Y-109944285D02*
X37464390Y-109931904D01*
X37464390Y-109931904D02*
X37476771Y-109919523D01*
X37476771Y-109919523D02*
X37489152Y-109894761D01*
X37489152Y-109894761D02*
X37489152Y-109845237D01*
X37489152Y-109845237D02*
X37476771Y-109820475D01*
X37476771Y-109820475D02*
X37464390Y-109808094D01*
X37464390Y-109808094D02*
X37439628Y-109795713D01*
D11*
X51000521Y-106009523D02*
X51533855Y-106009523D01*
X50695760Y-106199999D02*
X51267188Y-106390476D01*
X51267188Y-106390476D02*
X51267188Y-105895237D01*
X50733855Y-105666666D02*
X50733855Y-105133332D01*
X50733855Y-105133332D02*
X51533855Y-105476190D01*
X50733855Y-104676189D02*
X50733855Y-104599999D01*
X50733855Y-104599999D02*
X50771950Y-104523808D01*
X50771950Y-104523808D02*
X50810045Y-104485713D01*
X50810045Y-104485713D02*
X50886236Y-104447618D01*
X50886236Y-104447618D02*
X51038617Y-104409523D01*
X51038617Y-104409523D02*
X51229093Y-104409523D01*
X51229093Y-104409523D02*
X51381474Y-104447618D01*
X51381474Y-104447618D02*
X51457664Y-104485713D01*
X51457664Y-104485713D02*
X51495760Y-104523808D01*
X51495760Y-104523808D02*
X51533855Y-104599999D01*
X51533855Y-104599999D02*
X51533855Y-104676189D01*
X51533855Y-104676189D02*
X51495760Y-104752380D01*
X51495760Y-104752380D02*
X51457664Y-104790475D01*
X51457664Y-104790475D02*
X51381474Y-104828570D01*
X51381474Y-104828570D02*
X51229093Y-104866666D01*
X51229093Y-104866666D02*
X51038617Y-104866666D01*
X51038617Y-104866666D02*
X50886236Y-104828570D01*
X50886236Y-104828570D02*
X50810045Y-104790475D01*
X50810045Y-104790475D02*
X50771950Y-104752380D01*
X50771950Y-104752380D02*
X50733855Y-104676189D01*
X51533855Y-103609522D02*
X51152902Y-103876189D01*
X51533855Y-104066665D02*
X50733855Y-104066665D01*
X50733855Y-104066665D02*
X50733855Y-103761903D01*
X50733855Y-103761903D02*
X50771950Y-103685713D01*
X50771950Y-103685713D02*
X50810045Y-103647618D01*
X50810045Y-103647618D02*
X50886236Y-103609522D01*
X50886236Y-103609522D02*
X51000521Y-103609522D01*
X51000521Y-103609522D02*
X51076712Y-103647618D01*
X51076712Y-103647618D02*
X51114807Y-103685713D01*
X51114807Y-103685713D02*
X51152902Y-103761903D01*
X51152902Y-103761903D02*
X51152902Y-104066665D01*
D12*
X50118200Y-105043332D02*
X49994391Y-105129999D01*
X50118200Y-105191904D02*
X49858200Y-105191904D01*
X49858200Y-105191904D02*
X49858200Y-105092856D01*
X49858200Y-105092856D02*
X49870581Y-105068094D01*
X49870581Y-105068094D02*
X49882962Y-105055713D01*
X49882962Y-105055713D02*
X49907724Y-105043332D01*
X49907724Y-105043332D02*
X49944867Y-105043332D01*
X49944867Y-105043332D02*
X49969629Y-105055713D01*
X49969629Y-105055713D02*
X49982010Y-105068094D01*
X49982010Y-105068094D02*
X49994391Y-105092856D01*
X49994391Y-105092856D02*
X49994391Y-105191904D01*
X50118200Y-104795713D02*
X50118200Y-104944285D01*
X50118200Y-104869999D02*
X49858200Y-104869999D01*
X49858200Y-104869999D02*
X49895343Y-104894761D01*
X49895343Y-104894761D02*
X49920105Y-104919523D01*
X49920105Y-104919523D02*
X49932486Y-104944285D01*
D11*
X150230521Y-101009523D02*
X150763855Y-101009523D01*
X149925760Y-101199999D02*
X150497188Y-101390476D01*
X150497188Y-101390476D02*
X150497188Y-100895237D01*
X149963855Y-100666666D02*
X149963855Y-100133332D01*
X149963855Y-100133332D02*
X150763855Y-100476190D01*
X149963855Y-99676189D02*
X149963855Y-99599999D01*
X149963855Y-99599999D02*
X150001950Y-99523808D01*
X150001950Y-99523808D02*
X150040045Y-99485713D01*
X150040045Y-99485713D02*
X150116236Y-99447618D01*
X150116236Y-99447618D02*
X150268617Y-99409523D01*
X150268617Y-99409523D02*
X150459093Y-99409523D01*
X150459093Y-99409523D02*
X150611474Y-99447618D01*
X150611474Y-99447618D02*
X150687664Y-99485713D01*
X150687664Y-99485713D02*
X150725760Y-99523808D01*
X150725760Y-99523808D02*
X150763855Y-99599999D01*
X150763855Y-99599999D02*
X150763855Y-99676189D01*
X150763855Y-99676189D02*
X150725760Y-99752380D01*
X150725760Y-99752380D02*
X150687664Y-99790475D01*
X150687664Y-99790475D02*
X150611474Y-99828570D01*
X150611474Y-99828570D02*
X150459093Y-99866666D01*
X150459093Y-99866666D02*
X150268617Y-99866666D01*
X150268617Y-99866666D02*
X150116236Y-99828570D01*
X150116236Y-99828570D02*
X150040045Y-99790475D01*
X150040045Y-99790475D02*
X150001950Y-99752380D01*
X150001950Y-99752380D02*
X149963855Y-99676189D01*
X150763855Y-98609522D02*
X150382902Y-98876189D01*
X150763855Y-99066665D02*
X149963855Y-99066665D01*
X149963855Y-99066665D02*
X149963855Y-98761903D01*
X149963855Y-98761903D02*
X150001950Y-98685713D01*
X150001950Y-98685713D02*
X150040045Y-98647618D01*
X150040045Y-98647618D02*
X150116236Y-98609522D01*
X150116236Y-98609522D02*
X150230521Y-98609522D01*
X150230521Y-98609522D02*
X150306712Y-98647618D01*
X150306712Y-98647618D02*
X150344807Y-98685713D01*
X150344807Y-98685713D02*
X150382902Y-98761903D01*
X150382902Y-98761903D02*
X150382902Y-99066665D01*
D12*
X149348200Y-100167142D02*
X149224391Y-100253809D01*
X149348200Y-100315714D02*
X149088200Y-100315714D01*
X149088200Y-100315714D02*
X149088200Y-100216666D01*
X149088200Y-100216666D02*
X149100581Y-100191904D01*
X149100581Y-100191904D02*
X149112962Y-100179523D01*
X149112962Y-100179523D02*
X149137724Y-100167142D01*
X149137724Y-100167142D02*
X149174867Y-100167142D01*
X149174867Y-100167142D02*
X149199629Y-100179523D01*
X149199629Y-100179523D02*
X149212010Y-100191904D01*
X149212010Y-100191904D02*
X149224391Y-100216666D01*
X149224391Y-100216666D02*
X149224391Y-100315714D01*
X149088200Y-100080476D02*
X149088200Y-99919523D01*
X149088200Y-99919523D02*
X149187248Y-100006190D01*
X149187248Y-100006190D02*
X149187248Y-99969047D01*
X149187248Y-99969047D02*
X149199629Y-99944285D01*
X149199629Y-99944285D02*
X149212010Y-99931904D01*
X149212010Y-99931904D02*
X149236772Y-99919523D01*
X149236772Y-99919523D02*
X149298677Y-99919523D01*
X149298677Y-99919523D02*
X149323439Y-99931904D01*
X149323439Y-99931904D02*
X149335820Y-99944285D01*
X149335820Y-99944285D02*
X149348200Y-99969047D01*
X149348200Y-99969047D02*
X149348200Y-100043333D01*
X149348200Y-100043333D02*
X149335820Y-100068095D01*
X149335820Y-100068095D02*
X149323439Y-100080476D01*
X149088200Y-99832857D02*
X149088200Y-99659523D01*
X149088200Y-99659523D02*
X149348200Y-99770952D01*
D11*
X30850520Y-101009523D02*
X31383854Y-101009523D01*
X30545759Y-101199999D02*
X31117187Y-101390476D01*
X31117187Y-101390476D02*
X31117187Y-100895237D01*
X30583854Y-100666666D02*
X30583854Y-100133332D01*
X30583854Y-100133332D02*
X31383854Y-100476190D01*
X30583854Y-99676189D02*
X30583854Y-99599999D01*
X30583854Y-99599999D02*
X30621949Y-99523808D01*
X30621949Y-99523808D02*
X30660044Y-99485713D01*
X30660044Y-99485713D02*
X30736235Y-99447618D01*
X30736235Y-99447618D02*
X30888616Y-99409523D01*
X30888616Y-99409523D02*
X31079092Y-99409523D01*
X31079092Y-99409523D02*
X31231473Y-99447618D01*
X31231473Y-99447618D02*
X31307663Y-99485713D01*
X31307663Y-99485713D02*
X31345759Y-99523808D01*
X31345759Y-99523808D02*
X31383854Y-99599999D01*
X31383854Y-99599999D02*
X31383854Y-99676189D01*
X31383854Y-99676189D02*
X31345759Y-99752380D01*
X31345759Y-99752380D02*
X31307663Y-99790475D01*
X31307663Y-99790475D02*
X31231473Y-99828570D01*
X31231473Y-99828570D02*
X31079092Y-99866666D01*
X31079092Y-99866666D02*
X30888616Y-99866666D01*
X30888616Y-99866666D02*
X30736235Y-99828570D01*
X30736235Y-99828570D02*
X30660044Y-99790475D01*
X30660044Y-99790475D02*
X30621949Y-99752380D01*
X30621949Y-99752380D02*
X30583854Y-99676189D01*
X31383854Y-98609522D02*
X31002901Y-98876189D01*
X31383854Y-99066665D02*
X30583854Y-99066665D01*
X30583854Y-99066665D02*
X30583854Y-98761903D01*
X30583854Y-98761903D02*
X30621949Y-98685713D01*
X30621949Y-98685713D02*
X30660044Y-98647618D01*
X30660044Y-98647618D02*
X30736235Y-98609522D01*
X30736235Y-98609522D02*
X30850520Y-98609522D01*
X30850520Y-98609522D02*
X30926711Y-98647618D01*
X30926711Y-98647618D02*
X30964806Y-98685713D01*
X30964806Y-98685713D02*
X31002901Y-98761903D01*
X31002901Y-98761903D02*
X31002901Y-99066665D01*
D12*
X29968199Y-100167142D02*
X29844390Y-100253809D01*
X29968199Y-100315714D02*
X29708199Y-100315714D01*
X29708199Y-100315714D02*
X29708199Y-100216666D01*
X29708199Y-100216666D02*
X29720580Y-100191904D01*
X29720580Y-100191904D02*
X29732961Y-100179523D01*
X29732961Y-100179523D02*
X29757723Y-100167142D01*
X29757723Y-100167142D02*
X29794866Y-100167142D01*
X29794866Y-100167142D02*
X29819628Y-100179523D01*
X29819628Y-100179523D02*
X29832009Y-100191904D01*
X29832009Y-100191904D02*
X29844390Y-100216666D01*
X29844390Y-100216666D02*
X29844390Y-100315714D01*
X29968199Y-99919523D02*
X29968199Y-100068095D01*
X29968199Y-99993809D02*
X29708199Y-99993809D01*
X29708199Y-99993809D02*
X29745342Y-100018571D01*
X29745342Y-100018571D02*
X29770104Y-100043333D01*
X29770104Y-100043333D02*
X29782485Y-100068095D01*
X29819628Y-99770952D02*
X29807247Y-99795714D01*
X29807247Y-99795714D02*
X29794866Y-99808095D01*
X29794866Y-99808095D02*
X29770104Y-99820476D01*
X29770104Y-99820476D02*
X29757723Y-99820476D01*
X29757723Y-99820476D02*
X29732961Y-99808095D01*
X29732961Y-99808095D02*
X29720580Y-99795714D01*
X29720580Y-99795714D02*
X29708199Y-99770952D01*
X29708199Y-99770952D02*
X29708199Y-99721428D01*
X29708199Y-99721428D02*
X29720580Y-99696666D01*
X29720580Y-99696666D02*
X29732961Y-99684285D01*
X29732961Y-99684285D02*
X29757723Y-99671904D01*
X29757723Y-99671904D02*
X29770104Y-99671904D01*
X29770104Y-99671904D02*
X29794866Y-99684285D01*
X29794866Y-99684285D02*
X29807247Y-99696666D01*
X29807247Y-99696666D02*
X29819628Y-99721428D01*
X29819628Y-99721428D02*
X29819628Y-99770952D01*
X29819628Y-99770952D02*
X29832009Y-99795714D01*
X29832009Y-99795714D02*
X29844390Y-99808095D01*
X29844390Y-99808095D02*
X29869152Y-99820476D01*
X29869152Y-99820476D02*
X29918676Y-99820476D01*
X29918676Y-99820476D02*
X29943438Y-99808095D01*
X29943438Y-99808095D02*
X29955819Y-99795714D01*
X29955819Y-99795714D02*
X29968199Y-99770952D01*
X29968199Y-99770952D02*
X29968199Y-99721428D01*
X29968199Y-99721428D02*
X29955819Y-99696666D01*
X29955819Y-99696666D02*
X29943438Y-99684285D01*
X29943438Y-99684285D02*
X29918676Y-99671904D01*
X29918676Y-99671904D02*
X29869152Y-99671904D01*
X29869152Y-99671904D02*
X29844390Y-99684285D01*
X29844390Y-99684285D02*
X29832009Y-99696666D01*
X29832009Y-99696666D02*
X29819628Y-99721428D01*
D11*
X28310520Y-101009523D02*
X28843854Y-101009523D01*
X28005759Y-101199999D02*
X28577187Y-101390476D01*
X28577187Y-101390476D02*
X28577187Y-100895237D01*
X28043854Y-100666666D02*
X28043854Y-100133332D01*
X28043854Y-100133332D02*
X28843854Y-100476190D01*
X28043854Y-99676189D02*
X28043854Y-99599999D01*
X28043854Y-99599999D02*
X28081949Y-99523808D01*
X28081949Y-99523808D02*
X28120044Y-99485713D01*
X28120044Y-99485713D02*
X28196235Y-99447618D01*
X28196235Y-99447618D02*
X28348616Y-99409523D01*
X28348616Y-99409523D02*
X28539092Y-99409523D01*
X28539092Y-99409523D02*
X28691473Y-99447618D01*
X28691473Y-99447618D02*
X28767663Y-99485713D01*
X28767663Y-99485713D02*
X28805759Y-99523808D01*
X28805759Y-99523808D02*
X28843854Y-99599999D01*
X28843854Y-99599999D02*
X28843854Y-99676189D01*
X28843854Y-99676189D02*
X28805759Y-99752380D01*
X28805759Y-99752380D02*
X28767663Y-99790475D01*
X28767663Y-99790475D02*
X28691473Y-99828570D01*
X28691473Y-99828570D02*
X28539092Y-99866666D01*
X28539092Y-99866666D02*
X28348616Y-99866666D01*
X28348616Y-99866666D02*
X28196235Y-99828570D01*
X28196235Y-99828570D02*
X28120044Y-99790475D01*
X28120044Y-99790475D02*
X28081949Y-99752380D01*
X28081949Y-99752380D02*
X28043854Y-99676189D01*
X28843854Y-98609522D02*
X28462901Y-98876189D01*
X28843854Y-99066665D02*
X28043854Y-99066665D01*
X28043854Y-99066665D02*
X28043854Y-98761903D01*
X28043854Y-98761903D02*
X28081949Y-98685713D01*
X28081949Y-98685713D02*
X28120044Y-98647618D01*
X28120044Y-98647618D02*
X28196235Y-98609522D01*
X28196235Y-98609522D02*
X28310520Y-98609522D01*
X28310520Y-98609522D02*
X28386711Y-98647618D01*
X28386711Y-98647618D02*
X28424806Y-98685713D01*
X28424806Y-98685713D02*
X28462901Y-98761903D01*
X28462901Y-98761903D02*
X28462901Y-99066665D01*
D12*
X27428199Y-100043332D02*
X27304390Y-100129999D01*
X27428199Y-100191904D02*
X27168199Y-100191904D01*
X27168199Y-100191904D02*
X27168199Y-100092856D01*
X27168199Y-100092856D02*
X27180580Y-100068094D01*
X27180580Y-100068094D02*
X27192961Y-100055713D01*
X27192961Y-100055713D02*
X27217723Y-100043332D01*
X27217723Y-100043332D02*
X27254866Y-100043332D01*
X27254866Y-100043332D02*
X27279628Y-100055713D01*
X27279628Y-100055713D02*
X27292009Y-100068094D01*
X27292009Y-100068094D02*
X27304390Y-100092856D01*
X27304390Y-100092856D02*
X27304390Y-100191904D01*
X27168199Y-99808094D02*
X27168199Y-99931904D01*
X27168199Y-99931904D02*
X27292009Y-99944285D01*
X27292009Y-99944285D02*
X27279628Y-99931904D01*
X27279628Y-99931904D02*
X27267247Y-99907142D01*
X27267247Y-99907142D02*
X27267247Y-99845237D01*
X27267247Y-99845237D02*
X27279628Y-99820475D01*
X27279628Y-99820475D02*
X27292009Y-99808094D01*
X27292009Y-99808094D02*
X27316771Y-99795713D01*
X27316771Y-99795713D02*
X27378676Y-99795713D01*
X27378676Y-99795713D02*
X27403438Y-99808094D01*
X27403438Y-99808094D02*
X27415819Y-99820475D01*
X27415819Y-99820475D02*
X27428199Y-99845237D01*
X27428199Y-99845237D02*
X27428199Y-99907142D01*
X27428199Y-99907142D02*
X27415819Y-99931904D01*
X27415819Y-99931904D02*
X27403438Y-99944285D01*
D11*
X33390520Y-111009523D02*
X33923854Y-111009523D01*
X33085759Y-111199999D02*
X33657187Y-111390476D01*
X33657187Y-111390476D02*
X33657187Y-110895237D01*
X33123854Y-110666666D02*
X33123854Y-110133332D01*
X33123854Y-110133332D02*
X33923854Y-110476190D01*
X33123854Y-109676189D02*
X33123854Y-109599999D01*
X33123854Y-109599999D02*
X33161949Y-109523808D01*
X33161949Y-109523808D02*
X33200044Y-109485713D01*
X33200044Y-109485713D02*
X33276235Y-109447618D01*
X33276235Y-109447618D02*
X33428616Y-109409523D01*
X33428616Y-109409523D02*
X33619092Y-109409523D01*
X33619092Y-109409523D02*
X33771473Y-109447618D01*
X33771473Y-109447618D02*
X33847663Y-109485713D01*
X33847663Y-109485713D02*
X33885759Y-109523808D01*
X33885759Y-109523808D02*
X33923854Y-109599999D01*
X33923854Y-109599999D02*
X33923854Y-109676189D01*
X33923854Y-109676189D02*
X33885759Y-109752380D01*
X33885759Y-109752380D02*
X33847663Y-109790475D01*
X33847663Y-109790475D02*
X33771473Y-109828570D01*
X33771473Y-109828570D02*
X33619092Y-109866666D01*
X33619092Y-109866666D02*
X33428616Y-109866666D01*
X33428616Y-109866666D02*
X33276235Y-109828570D01*
X33276235Y-109828570D02*
X33200044Y-109790475D01*
X33200044Y-109790475D02*
X33161949Y-109752380D01*
X33161949Y-109752380D02*
X33123854Y-109676189D01*
X33923854Y-108609522D02*
X33542901Y-108876189D01*
X33923854Y-109066665D02*
X33123854Y-109066665D01*
X33123854Y-109066665D02*
X33123854Y-108761903D01*
X33123854Y-108761903D02*
X33161949Y-108685713D01*
X33161949Y-108685713D02*
X33200044Y-108647618D01*
X33200044Y-108647618D02*
X33276235Y-108609522D01*
X33276235Y-108609522D02*
X33390520Y-108609522D01*
X33390520Y-108609522D02*
X33466711Y-108647618D01*
X33466711Y-108647618D02*
X33504806Y-108685713D01*
X33504806Y-108685713D02*
X33542901Y-108761903D01*
X33542901Y-108761903D02*
X33542901Y-109066665D01*
D12*
X32508199Y-110167142D02*
X32384390Y-110253809D01*
X32508199Y-110315714D02*
X32248199Y-110315714D01*
X32248199Y-110315714D02*
X32248199Y-110216666D01*
X32248199Y-110216666D02*
X32260580Y-110191904D01*
X32260580Y-110191904D02*
X32272961Y-110179523D01*
X32272961Y-110179523D02*
X32297723Y-110167142D01*
X32297723Y-110167142D02*
X32334866Y-110167142D01*
X32334866Y-110167142D02*
X32359628Y-110179523D01*
X32359628Y-110179523D02*
X32372009Y-110191904D01*
X32372009Y-110191904D02*
X32384390Y-110216666D01*
X32384390Y-110216666D02*
X32384390Y-110315714D01*
X32508199Y-109919523D02*
X32508199Y-110068095D01*
X32508199Y-109993809D02*
X32248199Y-109993809D01*
X32248199Y-109993809D02*
X32285342Y-110018571D01*
X32285342Y-110018571D02*
X32310104Y-110043333D01*
X32310104Y-110043333D02*
X32322485Y-110068095D01*
X32508199Y-109795714D02*
X32508199Y-109746190D01*
X32508199Y-109746190D02*
X32495819Y-109721428D01*
X32495819Y-109721428D02*
X32483438Y-109709047D01*
X32483438Y-109709047D02*
X32446295Y-109684285D01*
X32446295Y-109684285D02*
X32396771Y-109671904D01*
X32396771Y-109671904D02*
X32297723Y-109671904D01*
X32297723Y-109671904D02*
X32272961Y-109684285D01*
X32272961Y-109684285D02*
X32260580Y-109696666D01*
X32260580Y-109696666D02*
X32248199Y-109721428D01*
X32248199Y-109721428D02*
X32248199Y-109770952D01*
X32248199Y-109770952D02*
X32260580Y-109795714D01*
X32260580Y-109795714D02*
X32272961Y-109808095D01*
X32272961Y-109808095D02*
X32297723Y-109820476D01*
X32297723Y-109820476D02*
X32359628Y-109820476D01*
X32359628Y-109820476D02*
X32384390Y-109808095D01*
X32384390Y-109808095D02*
X32396771Y-109795714D01*
X32396771Y-109795714D02*
X32409152Y-109770952D01*
X32409152Y-109770952D02*
X32409152Y-109721428D01*
X32409152Y-109721428D02*
X32396771Y-109696666D01*
X32396771Y-109696666D02*
X32384390Y-109684285D01*
X32384390Y-109684285D02*
X32359628Y-109671904D01*
D11*
X43550521Y-101009523D02*
X44083855Y-101009523D01*
X43245760Y-101199999D02*
X43817188Y-101390476D01*
X43817188Y-101390476D02*
X43817188Y-100895237D01*
X43283855Y-100666666D02*
X43283855Y-100133332D01*
X43283855Y-100133332D02*
X44083855Y-100476190D01*
X43283855Y-99676189D02*
X43283855Y-99599999D01*
X43283855Y-99599999D02*
X43321950Y-99523808D01*
X43321950Y-99523808D02*
X43360045Y-99485713D01*
X43360045Y-99485713D02*
X43436236Y-99447618D01*
X43436236Y-99447618D02*
X43588617Y-99409523D01*
X43588617Y-99409523D02*
X43779093Y-99409523D01*
X43779093Y-99409523D02*
X43931474Y-99447618D01*
X43931474Y-99447618D02*
X44007664Y-99485713D01*
X44007664Y-99485713D02*
X44045760Y-99523808D01*
X44045760Y-99523808D02*
X44083855Y-99599999D01*
X44083855Y-99599999D02*
X44083855Y-99676189D01*
X44083855Y-99676189D02*
X44045760Y-99752380D01*
X44045760Y-99752380D02*
X44007664Y-99790475D01*
X44007664Y-99790475D02*
X43931474Y-99828570D01*
X43931474Y-99828570D02*
X43779093Y-99866666D01*
X43779093Y-99866666D02*
X43588617Y-99866666D01*
X43588617Y-99866666D02*
X43436236Y-99828570D01*
X43436236Y-99828570D02*
X43360045Y-99790475D01*
X43360045Y-99790475D02*
X43321950Y-99752380D01*
X43321950Y-99752380D02*
X43283855Y-99676189D01*
X44083855Y-98609522D02*
X43702902Y-98876189D01*
X44083855Y-99066665D02*
X43283855Y-99066665D01*
X43283855Y-99066665D02*
X43283855Y-98761903D01*
X43283855Y-98761903D02*
X43321950Y-98685713D01*
X43321950Y-98685713D02*
X43360045Y-98647618D01*
X43360045Y-98647618D02*
X43436236Y-98609522D01*
X43436236Y-98609522D02*
X43550521Y-98609522D01*
X43550521Y-98609522D02*
X43626712Y-98647618D01*
X43626712Y-98647618D02*
X43664807Y-98685713D01*
X43664807Y-98685713D02*
X43702902Y-98761903D01*
X43702902Y-98761903D02*
X43702902Y-99066665D01*
D12*
X42668200Y-100167142D02*
X42544391Y-100253809D01*
X42668200Y-100315714D02*
X42408200Y-100315714D01*
X42408200Y-100315714D02*
X42408200Y-100216666D01*
X42408200Y-100216666D02*
X42420581Y-100191904D01*
X42420581Y-100191904D02*
X42432962Y-100179523D01*
X42432962Y-100179523D02*
X42457724Y-100167142D01*
X42457724Y-100167142D02*
X42494867Y-100167142D01*
X42494867Y-100167142D02*
X42519629Y-100179523D01*
X42519629Y-100179523D02*
X42532010Y-100191904D01*
X42532010Y-100191904D02*
X42544391Y-100216666D01*
X42544391Y-100216666D02*
X42544391Y-100315714D01*
X42668200Y-99919523D02*
X42668200Y-100068095D01*
X42668200Y-99993809D02*
X42408200Y-99993809D01*
X42408200Y-99993809D02*
X42445343Y-100018571D01*
X42445343Y-100018571D02*
X42470105Y-100043333D01*
X42470105Y-100043333D02*
X42482486Y-100068095D01*
X42668200Y-99671904D02*
X42668200Y-99820476D01*
X42668200Y-99746190D02*
X42408200Y-99746190D01*
X42408200Y-99746190D02*
X42445343Y-99770952D01*
X42445343Y-99770952D02*
X42470105Y-99795714D01*
X42470105Y-99795714D02*
X42482486Y-99820476D01*
D11*
X28310520Y-106009523D02*
X28843854Y-106009523D01*
X28005759Y-106199999D02*
X28577187Y-106390476D01*
X28577187Y-106390476D02*
X28577187Y-105895237D01*
X28043854Y-105666666D02*
X28043854Y-105133332D01*
X28043854Y-105133332D02*
X28843854Y-105476190D01*
X28043854Y-104676189D02*
X28043854Y-104599999D01*
X28043854Y-104599999D02*
X28081949Y-104523808D01*
X28081949Y-104523808D02*
X28120044Y-104485713D01*
X28120044Y-104485713D02*
X28196235Y-104447618D01*
X28196235Y-104447618D02*
X28348616Y-104409523D01*
X28348616Y-104409523D02*
X28539092Y-104409523D01*
X28539092Y-104409523D02*
X28691473Y-104447618D01*
X28691473Y-104447618D02*
X28767663Y-104485713D01*
X28767663Y-104485713D02*
X28805759Y-104523808D01*
X28805759Y-104523808D02*
X28843854Y-104599999D01*
X28843854Y-104599999D02*
X28843854Y-104676189D01*
X28843854Y-104676189D02*
X28805759Y-104752380D01*
X28805759Y-104752380D02*
X28767663Y-104790475D01*
X28767663Y-104790475D02*
X28691473Y-104828570D01*
X28691473Y-104828570D02*
X28539092Y-104866666D01*
X28539092Y-104866666D02*
X28348616Y-104866666D01*
X28348616Y-104866666D02*
X28196235Y-104828570D01*
X28196235Y-104828570D02*
X28120044Y-104790475D01*
X28120044Y-104790475D02*
X28081949Y-104752380D01*
X28081949Y-104752380D02*
X28043854Y-104676189D01*
X28843854Y-103609522D02*
X28462901Y-103876189D01*
X28843854Y-104066665D02*
X28043854Y-104066665D01*
X28043854Y-104066665D02*
X28043854Y-103761903D01*
X28043854Y-103761903D02*
X28081949Y-103685713D01*
X28081949Y-103685713D02*
X28120044Y-103647618D01*
X28120044Y-103647618D02*
X28196235Y-103609522D01*
X28196235Y-103609522D02*
X28310520Y-103609522D01*
X28310520Y-103609522D02*
X28386711Y-103647618D01*
X28386711Y-103647618D02*
X28424806Y-103685713D01*
X28424806Y-103685713D02*
X28462901Y-103761903D01*
X28462901Y-103761903D02*
X28462901Y-104066665D01*
D12*
X27428199Y-105167142D02*
X27304390Y-105253809D01*
X27428199Y-105315714D02*
X27168199Y-105315714D01*
X27168199Y-105315714D02*
X27168199Y-105216666D01*
X27168199Y-105216666D02*
X27180580Y-105191904D01*
X27180580Y-105191904D02*
X27192961Y-105179523D01*
X27192961Y-105179523D02*
X27217723Y-105167142D01*
X27217723Y-105167142D02*
X27254866Y-105167142D01*
X27254866Y-105167142D02*
X27279628Y-105179523D01*
X27279628Y-105179523D02*
X27292009Y-105191904D01*
X27292009Y-105191904D02*
X27304390Y-105216666D01*
X27304390Y-105216666D02*
X27304390Y-105315714D01*
X27428199Y-104919523D02*
X27428199Y-105068095D01*
X27428199Y-104993809D02*
X27168199Y-104993809D01*
X27168199Y-104993809D02*
X27205342Y-105018571D01*
X27205342Y-105018571D02*
X27230104Y-105043333D01*
X27230104Y-105043333D02*
X27242485Y-105068095D01*
X27168199Y-104832857D02*
X27168199Y-104659523D01*
X27168199Y-104659523D02*
X27428199Y-104770952D01*
D10*
X116738095Y-60354819D02*
X117404761Y-60354819D01*
X117404761Y-60354819D02*
X116976190Y-61354819D01*
X118214285Y-60688152D02*
X118214285Y-61354819D01*
X117976190Y-60307200D02*
X117738095Y-61021485D01*
X117738095Y-61021485D02*
X118357142Y-61021485D01*
X118738095Y-61354819D02*
X118738095Y-60354819D01*
X118738095Y-60831009D02*
X119309523Y-60831009D01*
X119309523Y-61354819D02*
X119309523Y-60354819D01*
X120357142Y-61259580D02*
X120309523Y-61307200D01*
X120309523Y-61307200D02*
X120166666Y-61354819D01*
X120166666Y-61354819D02*
X120071428Y-61354819D01*
X120071428Y-61354819D02*
X119928571Y-61307200D01*
X119928571Y-61307200D02*
X119833333Y-61211961D01*
X119833333Y-61211961D02*
X119785714Y-61116723D01*
X119785714Y-61116723D02*
X119738095Y-60926247D01*
X119738095Y-60926247D02*
X119738095Y-60783390D01*
X119738095Y-60783390D02*
X119785714Y-60592914D01*
X119785714Y-60592914D02*
X119833333Y-60497676D01*
X119833333Y-60497676D02*
X119928571Y-60402438D01*
X119928571Y-60402438D02*
X120071428Y-60354819D01*
X120071428Y-60354819D02*
X120166666Y-60354819D01*
X120166666Y-60354819D02*
X120309523Y-60402438D01*
X120309523Y-60402438D02*
X120357142Y-60450057D01*
X121309523Y-61354819D02*
X120738095Y-61354819D01*
X121023809Y-61354819D02*
X121023809Y-60354819D01*
X121023809Y-60354819D02*
X120928571Y-60497676D01*
X120928571Y-60497676D02*
X120833333Y-60592914D01*
X120833333Y-60592914D02*
X120738095Y-60640533D01*
X122166666Y-60354819D02*
X121976190Y-60354819D01*
X121976190Y-60354819D02*
X121880952Y-60402438D01*
X121880952Y-60402438D02*
X121833333Y-60450057D01*
X121833333Y-60450057D02*
X121738095Y-60592914D01*
X121738095Y-60592914D02*
X121690476Y-60783390D01*
X121690476Y-60783390D02*
X121690476Y-61164342D01*
X121690476Y-61164342D02*
X121738095Y-61259580D01*
X121738095Y-61259580D02*
X121785714Y-61307200D01*
X121785714Y-61307200D02*
X121880952Y-61354819D01*
X121880952Y-61354819D02*
X122071428Y-61354819D01*
X122071428Y-61354819D02*
X122166666Y-61307200D01*
X122166666Y-61307200D02*
X122214285Y-61259580D01*
X122214285Y-61259580D02*
X122261904Y-61164342D01*
X122261904Y-61164342D02*
X122261904Y-60926247D01*
X122261904Y-60926247D02*
X122214285Y-60831009D01*
X122214285Y-60831009D02*
X122166666Y-60783390D01*
X122166666Y-60783390D02*
X122071428Y-60735771D01*
X122071428Y-60735771D02*
X121880952Y-60735771D01*
X121880952Y-60735771D02*
X121785714Y-60783390D01*
X121785714Y-60783390D02*
X121738095Y-60831009D01*
X121738095Y-60831009D02*
X121690476Y-60926247D01*
X123166666Y-60354819D02*
X122690476Y-60354819D01*
X122690476Y-60354819D02*
X122642857Y-60831009D01*
X122642857Y-60831009D02*
X122690476Y-60783390D01*
X122690476Y-60783390D02*
X122785714Y-60735771D01*
X122785714Y-60735771D02*
X123023809Y-60735771D01*
X123023809Y-60735771D02*
X123119047Y-60783390D01*
X123119047Y-60783390D02*
X123166666Y-60831009D01*
X123166666Y-60831009D02*
X123214285Y-60926247D01*
X123214285Y-60926247D02*
X123214285Y-61164342D01*
X123214285Y-61164342D02*
X123166666Y-61259580D01*
X123166666Y-61259580D02*
X123119047Y-61307200D01*
X123119047Y-61307200D02*
X123023809Y-61354819D01*
X123023809Y-61354819D02*
X122785714Y-61354819D01*
X122785714Y-61354819D02*
X122690476Y-61307200D01*
X122690476Y-61307200D02*
X122642857Y-61259580D01*
X119454819Y-55761904D02*
X120264342Y-55761904D01*
X120264342Y-55761904D02*
X120359580Y-55714285D01*
X120359580Y-55714285D02*
X120407200Y-55666666D01*
X120407200Y-55666666D02*
X120454819Y-55571428D01*
X120454819Y-55571428D02*
X120454819Y-55380952D01*
X120454819Y-55380952D02*
X120407200Y-55285714D01*
X120407200Y-55285714D02*
X120359580Y-55238095D01*
X120359580Y-55238095D02*
X120264342Y-55190476D01*
X120264342Y-55190476D02*
X119454819Y-55190476D01*
X119454819Y-54238095D02*
X119454819Y-54714285D01*
X119454819Y-54714285D02*
X119931009Y-54761904D01*
X119931009Y-54761904D02*
X119883390Y-54714285D01*
X119883390Y-54714285D02*
X119835771Y-54619047D01*
X119835771Y-54619047D02*
X119835771Y-54380952D01*
X119835771Y-54380952D02*
X119883390Y-54285714D01*
X119883390Y-54285714D02*
X119931009Y-54238095D01*
X119931009Y-54238095D02*
X120026247Y-54190476D01*
X120026247Y-54190476D02*
X120264342Y-54190476D01*
X120264342Y-54190476D02*
X120359580Y-54238095D01*
X120359580Y-54238095D02*
X120407200Y-54285714D01*
X120407200Y-54285714D02*
X120454819Y-54380952D01*
X120454819Y-54380952D02*
X120454819Y-54619047D01*
X120454819Y-54619047D02*
X120407200Y-54714285D01*
X120407200Y-54714285D02*
X120359580Y-54761904D01*
D11*
X122290520Y-106009523D02*
X122823854Y-106009523D01*
X121985759Y-106199999D02*
X122557187Y-106390476D01*
X122557187Y-106390476D02*
X122557187Y-105895237D01*
X122023854Y-105666666D02*
X122023854Y-105133332D01*
X122023854Y-105133332D02*
X122823854Y-105476190D01*
X122023854Y-104676189D02*
X122023854Y-104599999D01*
X122023854Y-104599999D02*
X122061949Y-104523808D01*
X122061949Y-104523808D02*
X122100044Y-104485713D01*
X122100044Y-104485713D02*
X122176235Y-104447618D01*
X122176235Y-104447618D02*
X122328616Y-104409523D01*
X122328616Y-104409523D02*
X122519092Y-104409523D01*
X122519092Y-104409523D02*
X122671473Y-104447618D01*
X122671473Y-104447618D02*
X122747663Y-104485713D01*
X122747663Y-104485713D02*
X122785759Y-104523808D01*
X122785759Y-104523808D02*
X122823854Y-104599999D01*
X122823854Y-104599999D02*
X122823854Y-104676189D01*
X122823854Y-104676189D02*
X122785759Y-104752380D01*
X122785759Y-104752380D02*
X122747663Y-104790475D01*
X122747663Y-104790475D02*
X122671473Y-104828570D01*
X122671473Y-104828570D02*
X122519092Y-104866666D01*
X122519092Y-104866666D02*
X122328616Y-104866666D01*
X122328616Y-104866666D02*
X122176235Y-104828570D01*
X122176235Y-104828570D02*
X122100044Y-104790475D01*
X122100044Y-104790475D02*
X122061949Y-104752380D01*
X122061949Y-104752380D02*
X122023854Y-104676189D01*
X122823854Y-103609522D02*
X122442901Y-103876189D01*
X122823854Y-104066665D02*
X122023854Y-104066665D01*
X122023854Y-104066665D02*
X122023854Y-103761903D01*
X122023854Y-103761903D02*
X122061949Y-103685713D01*
X122061949Y-103685713D02*
X122100044Y-103647618D01*
X122100044Y-103647618D02*
X122176235Y-103609522D01*
X122176235Y-103609522D02*
X122290520Y-103609522D01*
X122290520Y-103609522D02*
X122366711Y-103647618D01*
X122366711Y-103647618D02*
X122404806Y-103685713D01*
X122404806Y-103685713D02*
X122442901Y-103761903D01*
X122442901Y-103761903D02*
X122442901Y-104066665D01*
D12*
X121408199Y-105167142D02*
X121284390Y-105253809D01*
X121408199Y-105315714D02*
X121148199Y-105315714D01*
X121148199Y-105315714D02*
X121148199Y-105216666D01*
X121148199Y-105216666D02*
X121160580Y-105191904D01*
X121160580Y-105191904D02*
X121172961Y-105179523D01*
X121172961Y-105179523D02*
X121197723Y-105167142D01*
X121197723Y-105167142D02*
X121234866Y-105167142D01*
X121234866Y-105167142D02*
X121259628Y-105179523D01*
X121259628Y-105179523D02*
X121272009Y-105191904D01*
X121272009Y-105191904D02*
X121284390Y-105216666D01*
X121284390Y-105216666D02*
X121284390Y-105315714D01*
X121172961Y-105068095D02*
X121160580Y-105055714D01*
X121160580Y-105055714D02*
X121148199Y-105030952D01*
X121148199Y-105030952D02*
X121148199Y-104969047D01*
X121148199Y-104969047D02*
X121160580Y-104944285D01*
X121160580Y-104944285D02*
X121172961Y-104931904D01*
X121172961Y-104931904D02*
X121197723Y-104919523D01*
X121197723Y-104919523D02*
X121222485Y-104919523D01*
X121222485Y-104919523D02*
X121259628Y-104931904D01*
X121259628Y-104931904D02*
X121408199Y-105080476D01*
X121408199Y-105080476D02*
X121408199Y-104919523D01*
X121148199Y-104696666D02*
X121148199Y-104746190D01*
X121148199Y-104746190D02*
X121160580Y-104770952D01*
X121160580Y-104770952D02*
X121172961Y-104783333D01*
X121172961Y-104783333D02*
X121210104Y-104808095D01*
X121210104Y-104808095D02*
X121259628Y-104820476D01*
X121259628Y-104820476D02*
X121358676Y-104820476D01*
X121358676Y-104820476D02*
X121383438Y-104808095D01*
X121383438Y-104808095D02*
X121395819Y-104795714D01*
X121395819Y-104795714D02*
X121408199Y-104770952D01*
X121408199Y-104770952D02*
X121408199Y-104721428D01*
X121408199Y-104721428D02*
X121395819Y-104696666D01*
X121395819Y-104696666D02*
X121383438Y-104684285D01*
X121383438Y-104684285D02*
X121358676Y-104671904D01*
X121358676Y-104671904D02*
X121296771Y-104671904D01*
X121296771Y-104671904D02*
X121272009Y-104684285D01*
X121272009Y-104684285D02*
X121259628Y-104696666D01*
X121259628Y-104696666D02*
X121247247Y-104721428D01*
X121247247Y-104721428D02*
X121247247Y-104770952D01*
X121247247Y-104770952D02*
X121259628Y-104795714D01*
X121259628Y-104795714D02*
X121272009Y-104808095D01*
X121272009Y-104808095D02*
X121296771Y-104820476D01*
D11*
X46090521Y-101009523D02*
X46623855Y-101009523D01*
X45785760Y-101199999D02*
X46357188Y-101390476D01*
X46357188Y-101390476D02*
X46357188Y-100895237D01*
X45823855Y-100666666D02*
X45823855Y-100133332D01*
X45823855Y-100133332D02*
X46623855Y-100476190D01*
X45823855Y-99676189D02*
X45823855Y-99599999D01*
X45823855Y-99599999D02*
X45861950Y-99523808D01*
X45861950Y-99523808D02*
X45900045Y-99485713D01*
X45900045Y-99485713D02*
X45976236Y-99447618D01*
X45976236Y-99447618D02*
X46128617Y-99409523D01*
X46128617Y-99409523D02*
X46319093Y-99409523D01*
X46319093Y-99409523D02*
X46471474Y-99447618D01*
X46471474Y-99447618D02*
X46547664Y-99485713D01*
X46547664Y-99485713D02*
X46585760Y-99523808D01*
X46585760Y-99523808D02*
X46623855Y-99599999D01*
X46623855Y-99599999D02*
X46623855Y-99676189D01*
X46623855Y-99676189D02*
X46585760Y-99752380D01*
X46585760Y-99752380D02*
X46547664Y-99790475D01*
X46547664Y-99790475D02*
X46471474Y-99828570D01*
X46471474Y-99828570D02*
X46319093Y-99866666D01*
X46319093Y-99866666D02*
X46128617Y-99866666D01*
X46128617Y-99866666D02*
X45976236Y-99828570D01*
X45976236Y-99828570D02*
X45900045Y-99790475D01*
X45900045Y-99790475D02*
X45861950Y-99752380D01*
X45861950Y-99752380D02*
X45823855Y-99676189D01*
X46623855Y-98609522D02*
X46242902Y-98876189D01*
X46623855Y-99066665D02*
X45823855Y-99066665D01*
X45823855Y-99066665D02*
X45823855Y-98761903D01*
X45823855Y-98761903D02*
X45861950Y-98685713D01*
X45861950Y-98685713D02*
X45900045Y-98647618D01*
X45900045Y-98647618D02*
X45976236Y-98609522D01*
X45976236Y-98609522D02*
X46090521Y-98609522D01*
X46090521Y-98609522D02*
X46166712Y-98647618D01*
X46166712Y-98647618D02*
X46204807Y-98685713D01*
X46204807Y-98685713D02*
X46242902Y-98761903D01*
X46242902Y-98761903D02*
X46242902Y-99066665D01*
D12*
X45208200Y-100167142D02*
X45084391Y-100253809D01*
X45208200Y-100315714D02*
X44948200Y-100315714D01*
X44948200Y-100315714D02*
X44948200Y-100216666D01*
X44948200Y-100216666D02*
X44960581Y-100191904D01*
X44960581Y-100191904D02*
X44972962Y-100179523D01*
X44972962Y-100179523D02*
X44997724Y-100167142D01*
X44997724Y-100167142D02*
X45034867Y-100167142D01*
X45034867Y-100167142D02*
X45059629Y-100179523D01*
X45059629Y-100179523D02*
X45072010Y-100191904D01*
X45072010Y-100191904D02*
X45084391Y-100216666D01*
X45084391Y-100216666D02*
X45084391Y-100315714D01*
X44972962Y-100068095D02*
X44960581Y-100055714D01*
X44960581Y-100055714D02*
X44948200Y-100030952D01*
X44948200Y-100030952D02*
X44948200Y-99969047D01*
X44948200Y-99969047D02*
X44960581Y-99944285D01*
X44960581Y-99944285D02*
X44972962Y-99931904D01*
X44972962Y-99931904D02*
X44997724Y-99919523D01*
X44997724Y-99919523D02*
X45022486Y-99919523D01*
X45022486Y-99919523D02*
X45059629Y-99931904D01*
X45059629Y-99931904D02*
X45208200Y-100080476D01*
X45208200Y-100080476D02*
X45208200Y-99919523D01*
X45034867Y-99696666D02*
X45208200Y-99696666D01*
X44935820Y-99758571D02*
X45121534Y-99820476D01*
X45121534Y-99820476D02*
X45121534Y-99659523D01*
D13*
X47226191Y-51387409D02*
X46940477Y-51387409D01*
X47083334Y-51387409D02*
X47083334Y-50887409D01*
X47083334Y-50887409D02*
X47035715Y-50958838D01*
X47035715Y-50958838D02*
X46988096Y-51006457D01*
X46988096Y-51006457D02*
X46940477Y-51030266D01*
X47535714Y-50887409D02*
X47583333Y-50887409D01*
X47583333Y-50887409D02*
X47630952Y-50911219D01*
X47630952Y-50911219D02*
X47654762Y-50935028D01*
X47654762Y-50935028D02*
X47678571Y-50982647D01*
X47678571Y-50982647D02*
X47702381Y-51077885D01*
X47702381Y-51077885D02*
X47702381Y-51196933D01*
X47702381Y-51196933D02*
X47678571Y-51292171D01*
X47678571Y-51292171D02*
X47654762Y-51339790D01*
X47654762Y-51339790D02*
X47630952Y-51363600D01*
X47630952Y-51363600D02*
X47583333Y-51387409D01*
X47583333Y-51387409D02*
X47535714Y-51387409D01*
X47535714Y-51387409D02*
X47488095Y-51363600D01*
X47488095Y-51363600D02*
X47464286Y-51339790D01*
X47464286Y-51339790D02*
X47440476Y-51292171D01*
X47440476Y-51292171D02*
X47416667Y-51196933D01*
X47416667Y-51196933D02*
X47416667Y-51077885D01*
X47416667Y-51077885D02*
X47440476Y-50982647D01*
X47440476Y-50982647D02*
X47464286Y-50935028D01*
X47464286Y-50935028D02*
X47488095Y-50911219D01*
X47488095Y-50911219D02*
X47535714Y-50887409D01*
X48011904Y-50887409D02*
X48059523Y-50887409D01*
X48059523Y-50887409D02*
X48107142Y-50911219D01*
X48107142Y-50911219D02*
X48130952Y-50935028D01*
X48130952Y-50935028D02*
X48154761Y-50982647D01*
X48154761Y-50982647D02*
X48178571Y-51077885D01*
X48178571Y-51077885D02*
X48178571Y-51196933D01*
X48178571Y-51196933D02*
X48154761Y-51292171D01*
X48154761Y-51292171D02*
X48130952Y-51339790D01*
X48130952Y-51339790D02*
X48107142Y-51363600D01*
X48107142Y-51363600D02*
X48059523Y-51387409D01*
X48059523Y-51387409D02*
X48011904Y-51387409D01*
X48011904Y-51387409D02*
X47964285Y-51363600D01*
X47964285Y-51363600D02*
X47940476Y-51339790D01*
X47940476Y-51339790D02*
X47916666Y-51292171D01*
X47916666Y-51292171D02*
X47892857Y-51196933D01*
X47892857Y-51196933D02*
X47892857Y-51077885D01*
X47892857Y-51077885D02*
X47916666Y-50982647D01*
X47916666Y-50982647D02*
X47940476Y-50935028D01*
X47940476Y-50935028D02*
X47964285Y-50911219D01*
X47964285Y-50911219D02*
X48011904Y-50887409D01*
X48392856Y-51054076D02*
X48392856Y-51387409D01*
X48392856Y-51101695D02*
X48416666Y-51077885D01*
X48416666Y-51077885D02*
X48464285Y-51054076D01*
X48464285Y-51054076D02*
X48535713Y-51054076D01*
X48535713Y-51054076D02*
X48583332Y-51077885D01*
X48583332Y-51077885D02*
X48607142Y-51125504D01*
X48607142Y-51125504D02*
X48607142Y-51387409D01*
X49011904Y-51125504D02*
X48845237Y-51125504D01*
X48845237Y-51387409D02*
X48845237Y-50887409D01*
X48845237Y-50887409D02*
X49083332Y-50887409D01*
D12*
X47958333Y-50089765D02*
X47946429Y-50101670D01*
X47946429Y-50101670D02*
X47910714Y-50113574D01*
X47910714Y-50113574D02*
X47886905Y-50113574D01*
X47886905Y-50113574D02*
X47851191Y-50101670D01*
X47851191Y-50101670D02*
X47827381Y-50077860D01*
X47827381Y-50077860D02*
X47815476Y-50054050D01*
X47815476Y-50054050D02*
X47803572Y-50006431D01*
X47803572Y-50006431D02*
X47803572Y-49970717D01*
X47803572Y-49970717D02*
X47815476Y-49923098D01*
X47815476Y-49923098D02*
X47827381Y-49899289D01*
X47827381Y-49899289D02*
X47851191Y-49875479D01*
X47851191Y-49875479D02*
X47886905Y-49863574D01*
X47886905Y-49863574D02*
X47910714Y-49863574D01*
X47910714Y-49863574D02*
X47946429Y-49875479D01*
X47946429Y-49875479D02*
X47958333Y-49887384D01*
X48053572Y-49887384D02*
X48065476Y-49875479D01*
X48065476Y-49875479D02*
X48089286Y-49863574D01*
X48089286Y-49863574D02*
X48148810Y-49863574D01*
X48148810Y-49863574D02*
X48172619Y-49875479D01*
X48172619Y-49875479D02*
X48184524Y-49887384D01*
X48184524Y-49887384D02*
X48196429Y-49911193D01*
X48196429Y-49911193D02*
X48196429Y-49935003D01*
X48196429Y-49935003D02*
X48184524Y-49970717D01*
X48184524Y-49970717D02*
X48041667Y-50113574D01*
X48041667Y-50113574D02*
X48196429Y-50113574D01*
D11*
X33390520Y-106009523D02*
X33923854Y-106009523D01*
X33085759Y-106199999D02*
X33657187Y-106390476D01*
X33657187Y-106390476D02*
X33657187Y-105895237D01*
X33123854Y-105666666D02*
X33123854Y-105133332D01*
X33123854Y-105133332D02*
X33923854Y-105476190D01*
X33123854Y-104676189D02*
X33123854Y-104599999D01*
X33123854Y-104599999D02*
X33161949Y-104523808D01*
X33161949Y-104523808D02*
X33200044Y-104485713D01*
X33200044Y-104485713D02*
X33276235Y-104447618D01*
X33276235Y-104447618D02*
X33428616Y-104409523D01*
X33428616Y-104409523D02*
X33619092Y-104409523D01*
X33619092Y-104409523D02*
X33771473Y-104447618D01*
X33771473Y-104447618D02*
X33847663Y-104485713D01*
X33847663Y-104485713D02*
X33885759Y-104523808D01*
X33885759Y-104523808D02*
X33923854Y-104599999D01*
X33923854Y-104599999D02*
X33923854Y-104676189D01*
X33923854Y-104676189D02*
X33885759Y-104752380D01*
X33885759Y-104752380D02*
X33847663Y-104790475D01*
X33847663Y-104790475D02*
X33771473Y-104828570D01*
X33771473Y-104828570D02*
X33619092Y-104866666D01*
X33619092Y-104866666D02*
X33428616Y-104866666D01*
X33428616Y-104866666D02*
X33276235Y-104828570D01*
X33276235Y-104828570D02*
X33200044Y-104790475D01*
X33200044Y-104790475D02*
X33161949Y-104752380D01*
X33161949Y-104752380D02*
X33123854Y-104676189D01*
X33923854Y-103609522D02*
X33542901Y-103876189D01*
X33923854Y-104066665D02*
X33123854Y-104066665D01*
X33123854Y-104066665D02*
X33123854Y-103761903D01*
X33123854Y-103761903D02*
X33161949Y-103685713D01*
X33161949Y-103685713D02*
X33200044Y-103647618D01*
X33200044Y-103647618D02*
X33276235Y-103609522D01*
X33276235Y-103609522D02*
X33390520Y-103609522D01*
X33390520Y-103609522D02*
X33466711Y-103647618D01*
X33466711Y-103647618D02*
X33504806Y-103685713D01*
X33504806Y-103685713D02*
X33542901Y-103761903D01*
X33542901Y-103761903D02*
X33542901Y-104066665D01*
D12*
X32508199Y-105043332D02*
X32384390Y-105129999D01*
X32508199Y-105191904D02*
X32248199Y-105191904D01*
X32248199Y-105191904D02*
X32248199Y-105092856D01*
X32248199Y-105092856D02*
X32260580Y-105068094D01*
X32260580Y-105068094D02*
X32272961Y-105055713D01*
X32272961Y-105055713D02*
X32297723Y-105043332D01*
X32297723Y-105043332D02*
X32334866Y-105043332D01*
X32334866Y-105043332D02*
X32359628Y-105055713D01*
X32359628Y-105055713D02*
X32372009Y-105068094D01*
X32372009Y-105068094D02*
X32384390Y-105092856D01*
X32384390Y-105092856D02*
X32384390Y-105191904D01*
X32248199Y-104956666D02*
X32248199Y-104783332D01*
X32248199Y-104783332D02*
X32508199Y-104894761D01*
D11*
X132450520Y-111009523D02*
X132983854Y-111009523D01*
X132145759Y-111199999D02*
X132717187Y-111390476D01*
X132717187Y-111390476D02*
X132717187Y-110895237D01*
X132183854Y-110666666D02*
X132183854Y-110133332D01*
X132183854Y-110133332D02*
X132983854Y-110476190D01*
X132183854Y-109676189D02*
X132183854Y-109599999D01*
X132183854Y-109599999D02*
X132221949Y-109523808D01*
X132221949Y-109523808D02*
X132260044Y-109485713D01*
X132260044Y-109485713D02*
X132336235Y-109447618D01*
X132336235Y-109447618D02*
X132488616Y-109409523D01*
X132488616Y-109409523D02*
X132679092Y-109409523D01*
X132679092Y-109409523D02*
X132831473Y-109447618D01*
X132831473Y-109447618D02*
X132907663Y-109485713D01*
X132907663Y-109485713D02*
X132945759Y-109523808D01*
X132945759Y-109523808D02*
X132983854Y-109599999D01*
X132983854Y-109599999D02*
X132983854Y-109676189D01*
X132983854Y-109676189D02*
X132945759Y-109752380D01*
X132945759Y-109752380D02*
X132907663Y-109790475D01*
X132907663Y-109790475D02*
X132831473Y-109828570D01*
X132831473Y-109828570D02*
X132679092Y-109866666D01*
X132679092Y-109866666D02*
X132488616Y-109866666D01*
X132488616Y-109866666D02*
X132336235Y-109828570D01*
X132336235Y-109828570D02*
X132260044Y-109790475D01*
X132260044Y-109790475D02*
X132221949Y-109752380D01*
X132221949Y-109752380D02*
X132183854Y-109676189D01*
X132983854Y-108609522D02*
X132602901Y-108876189D01*
X132983854Y-109066665D02*
X132183854Y-109066665D01*
X132183854Y-109066665D02*
X132183854Y-108761903D01*
X132183854Y-108761903D02*
X132221949Y-108685713D01*
X132221949Y-108685713D02*
X132260044Y-108647618D01*
X132260044Y-108647618D02*
X132336235Y-108609522D01*
X132336235Y-108609522D02*
X132450520Y-108609522D01*
X132450520Y-108609522D02*
X132526711Y-108647618D01*
X132526711Y-108647618D02*
X132564806Y-108685713D01*
X132564806Y-108685713D02*
X132602901Y-108761903D01*
X132602901Y-108761903D02*
X132602901Y-109066665D01*
D12*
X131568199Y-110167142D02*
X131444390Y-110253809D01*
X131568199Y-110315714D02*
X131308199Y-110315714D01*
X131308199Y-110315714D02*
X131308199Y-110216666D01*
X131308199Y-110216666D02*
X131320580Y-110191904D01*
X131320580Y-110191904D02*
X131332961Y-110179523D01*
X131332961Y-110179523D02*
X131357723Y-110167142D01*
X131357723Y-110167142D02*
X131394866Y-110167142D01*
X131394866Y-110167142D02*
X131419628Y-110179523D01*
X131419628Y-110179523D02*
X131432009Y-110191904D01*
X131432009Y-110191904D02*
X131444390Y-110216666D01*
X131444390Y-110216666D02*
X131444390Y-110315714D01*
X131308199Y-110080476D02*
X131308199Y-109919523D01*
X131308199Y-109919523D02*
X131407247Y-110006190D01*
X131407247Y-110006190D02*
X131407247Y-109969047D01*
X131407247Y-109969047D02*
X131419628Y-109944285D01*
X131419628Y-109944285D02*
X131432009Y-109931904D01*
X131432009Y-109931904D02*
X131456771Y-109919523D01*
X131456771Y-109919523D02*
X131518676Y-109919523D01*
X131518676Y-109919523D02*
X131543438Y-109931904D01*
X131543438Y-109931904D02*
X131555819Y-109944285D01*
X131555819Y-109944285D02*
X131568199Y-109969047D01*
X131568199Y-109969047D02*
X131568199Y-110043333D01*
X131568199Y-110043333D02*
X131555819Y-110068095D01*
X131555819Y-110068095D02*
X131543438Y-110080476D01*
X131308199Y-109758571D02*
X131308199Y-109733809D01*
X131308199Y-109733809D02*
X131320580Y-109709047D01*
X131320580Y-109709047D02*
X131332961Y-109696666D01*
X131332961Y-109696666D02*
X131357723Y-109684285D01*
X131357723Y-109684285D02*
X131407247Y-109671904D01*
X131407247Y-109671904D02*
X131469152Y-109671904D01*
X131469152Y-109671904D02*
X131518676Y-109684285D01*
X131518676Y-109684285D02*
X131543438Y-109696666D01*
X131543438Y-109696666D02*
X131555819Y-109709047D01*
X131555819Y-109709047D02*
X131568199Y-109733809D01*
X131568199Y-109733809D02*
X131568199Y-109758571D01*
X131568199Y-109758571D02*
X131555819Y-109783333D01*
X131555819Y-109783333D02*
X131543438Y-109795714D01*
X131543438Y-109795714D02*
X131518676Y-109808095D01*
X131518676Y-109808095D02*
X131469152Y-109820476D01*
X131469152Y-109820476D02*
X131407247Y-109820476D01*
X131407247Y-109820476D02*
X131357723Y-109808095D01*
X131357723Y-109808095D02*
X131332961Y-109795714D01*
X131332961Y-109795714D02*
X131320580Y-109783333D01*
X131320580Y-109783333D02*
X131308199Y-109758571D01*
D11*
X43550521Y-106009523D02*
X44083855Y-106009523D01*
X43245760Y-106199999D02*
X43817188Y-106390476D01*
X43817188Y-106390476D02*
X43817188Y-105895237D01*
X43283855Y-105666666D02*
X43283855Y-105133332D01*
X43283855Y-105133332D02*
X44083855Y-105476190D01*
X43283855Y-104676189D02*
X43283855Y-104599999D01*
X43283855Y-104599999D02*
X43321950Y-104523808D01*
X43321950Y-104523808D02*
X43360045Y-104485713D01*
X43360045Y-104485713D02*
X43436236Y-104447618D01*
X43436236Y-104447618D02*
X43588617Y-104409523D01*
X43588617Y-104409523D02*
X43779093Y-104409523D01*
X43779093Y-104409523D02*
X43931474Y-104447618D01*
X43931474Y-104447618D02*
X44007664Y-104485713D01*
X44007664Y-104485713D02*
X44045760Y-104523808D01*
X44045760Y-104523808D02*
X44083855Y-104599999D01*
X44083855Y-104599999D02*
X44083855Y-104676189D01*
X44083855Y-104676189D02*
X44045760Y-104752380D01*
X44045760Y-104752380D02*
X44007664Y-104790475D01*
X44007664Y-104790475D02*
X43931474Y-104828570D01*
X43931474Y-104828570D02*
X43779093Y-104866666D01*
X43779093Y-104866666D02*
X43588617Y-104866666D01*
X43588617Y-104866666D02*
X43436236Y-104828570D01*
X43436236Y-104828570D02*
X43360045Y-104790475D01*
X43360045Y-104790475D02*
X43321950Y-104752380D01*
X43321950Y-104752380D02*
X43283855Y-104676189D01*
X44083855Y-103609522D02*
X43702902Y-103876189D01*
X44083855Y-104066665D02*
X43283855Y-104066665D01*
X43283855Y-104066665D02*
X43283855Y-103761903D01*
X43283855Y-103761903D02*
X43321950Y-103685713D01*
X43321950Y-103685713D02*
X43360045Y-103647618D01*
X43360045Y-103647618D02*
X43436236Y-103609522D01*
X43436236Y-103609522D02*
X43550521Y-103609522D01*
X43550521Y-103609522D02*
X43626712Y-103647618D01*
X43626712Y-103647618D02*
X43664807Y-103685713D01*
X43664807Y-103685713D02*
X43702902Y-103761903D01*
X43702902Y-103761903D02*
X43702902Y-104066665D01*
D12*
X42668200Y-105167142D02*
X42544391Y-105253809D01*
X42668200Y-105315714D02*
X42408200Y-105315714D01*
X42408200Y-105315714D02*
X42408200Y-105216666D01*
X42408200Y-105216666D02*
X42420581Y-105191904D01*
X42420581Y-105191904D02*
X42432962Y-105179523D01*
X42432962Y-105179523D02*
X42457724Y-105167142D01*
X42457724Y-105167142D02*
X42494867Y-105167142D01*
X42494867Y-105167142D02*
X42519629Y-105179523D01*
X42519629Y-105179523D02*
X42532010Y-105191904D01*
X42532010Y-105191904D02*
X42544391Y-105216666D01*
X42544391Y-105216666D02*
X42544391Y-105315714D01*
X42432962Y-105068095D02*
X42420581Y-105055714D01*
X42420581Y-105055714D02*
X42408200Y-105030952D01*
X42408200Y-105030952D02*
X42408200Y-104969047D01*
X42408200Y-104969047D02*
X42420581Y-104944285D01*
X42420581Y-104944285D02*
X42432962Y-104931904D01*
X42432962Y-104931904D02*
X42457724Y-104919523D01*
X42457724Y-104919523D02*
X42482486Y-104919523D01*
X42482486Y-104919523D02*
X42519629Y-104931904D01*
X42519629Y-104931904D02*
X42668200Y-105080476D01*
X42668200Y-105080476D02*
X42668200Y-104919523D01*
X42408200Y-104832857D02*
X42408200Y-104671904D01*
X42408200Y-104671904D02*
X42507248Y-104758571D01*
X42507248Y-104758571D02*
X42507248Y-104721428D01*
X42507248Y-104721428D02*
X42519629Y-104696666D01*
X42519629Y-104696666D02*
X42532010Y-104684285D01*
X42532010Y-104684285D02*
X42556772Y-104671904D01*
X42556772Y-104671904D02*
X42618677Y-104671904D01*
X42618677Y-104671904D02*
X42643439Y-104684285D01*
X42643439Y-104684285D02*
X42655820Y-104696666D01*
X42655820Y-104696666D02*
X42668200Y-104721428D01*
X42668200Y-104721428D02*
X42668200Y-104795714D01*
X42668200Y-104795714D02*
X42655820Y-104820476D01*
X42655820Y-104820476D02*
X42643439Y-104832857D01*
D11*
X119750521Y-101009523D02*
X120283855Y-101009523D01*
X119445760Y-101199999D02*
X120017188Y-101390476D01*
X120017188Y-101390476D02*
X120017188Y-100895237D01*
X119483855Y-100666666D02*
X119483855Y-100133332D01*
X119483855Y-100133332D02*
X120283855Y-100476190D01*
X119483855Y-99676189D02*
X119483855Y-99599999D01*
X119483855Y-99599999D02*
X119521950Y-99523808D01*
X119521950Y-99523808D02*
X119560045Y-99485713D01*
X119560045Y-99485713D02*
X119636236Y-99447618D01*
X119636236Y-99447618D02*
X119788617Y-99409523D01*
X119788617Y-99409523D02*
X119979093Y-99409523D01*
X119979093Y-99409523D02*
X120131474Y-99447618D01*
X120131474Y-99447618D02*
X120207664Y-99485713D01*
X120207664Y-99485713D02*
X120245760Y-99523808D01*
X120245760Y-99523808D02*
X120283855Y-99599999D01*
X120283855Y-99599999D02*
X120283855Y-99676189D01*
X120283855Y-99676189D02*
X120245760Y-99752380D01*
X120245760Y-99752380D02*
X120207664Y-99790475D01*
X120207664Y-99790475D02*
X120131474Y-99828570D01*
X120131474Y-99828570D02*
X119979093Y-99866666D01*
X119979093Y-99866666D02*
X119788617Y-99866666D01*
X119788617Y-99866666D02*
X119636236Y-99828570D01*
X119636236Y-99828570D02*
X119560045Y-99790475D01*
X119560045Y-99790475D02*
X119521950Y-99752380D01*
X119521950Y-99752380D02*
X119483855Y-99676189D01*
X120283855Y-98609522D02*
X119902902Y-98876189D01*
X120283855Y-99066665D02*
X119483855Y-99066665D01*
X119483855Y-99066665D02*
X119483855Y-98761903D01*
X119483855Y-98761903D02*
X119521950Y-98685713D01*
X119521950Y-98685713D02*
X119560045Y-98647618D01*
X119560045Y-98647618D02*
X119636236Y-98609522D01*
X119636236Y-98609522D02*
X119750521Y-98609522D01*
X119750521Y-98609522D02*
X119826712Y-98647618D01*
X119826712Y-98647618D02*
X119864807Y-98685713D01*
X119864807Y-98685713D02*
X119902902Y-98761903D01*
X119902902Y-98761903D02*
X119902902Y-99066665D01*
D12*
X118868200Y-100167142D02*
X118744391Y-100253809D01*
X118868200Y-100315714D02*
X118608200Y-100315714D01*
X118608200Y-100315714D02*
X118608200Y-100216666D01*
X118608200Y-100216666D02*
X118620581Y-100191904D01*
X118620581Y-100191904D02*
X118632962Y-100179523D01*
X118632962Y-100179523D02*
X118657724Y-100167142D01*
X118657724Y-100167142D02*
X118694867Y-100167142D01*
X118694867Y-100167142D02*
X118719629Y-100179523D01*
X118719629Y-100179523D02*
X118732010Y-100191904D01*
X118732010Y-100191904D02*
X118744391Y-100216666D01*
X118744391Y-100216666D02*
X118744391Y-100315714D01*
X118632962Y-100068095D02*
X118620581Y-100055714D01*
X118620581Y-100055714D02*
X118608200Y-100030952D01*
X118608200Y-100030952D02*
X118608200Y-99969047D01*
X118608200Y-99969047D02*
X118620581Y-99944285D01*
X118620581Y-99944285D02*
X118632962Y-99931904D01*
X118632962Y-99931904D02*
X118657724Y-99919523D01*
X118657724Y-99919523D02*
X118682486Y-99919523D01*
X118682486Y-99919523D02*
X118719629Y-99931904D01*
X118719629Y-99931904D02*
X118868200Y-100080476D01*
X118868200Y-100080476D02*
X118868200Y-99919523D01*
X118608200Y-99684285D02*
X118608200Y-99808095D01*
X118608200Y-99808095D02*
X118732010Y-99820476D01*
X118732010Y-99820476D02*
X118719629Y-99808095D01*
X118719629Y-99808095D02*
X118707248Y-99783333D01*
X118707248Y-99783333D02*
X118707248Y-99721428D01*
X118707248Y-99721428D02*
X118719629Y-99696666D01*
X118719629Y-99696666D02*
X118732010Y-99684285D01*
X118732010Y-99684285D02*
X118756772Y-99671904D01*
X118756772Y-99671904D02*
X118818677Y-99671904D01*
X118818677Y-99671904D02*
X118843439Y-99684285D01*
X118843439Y-99684285D02*
X118855820Y-99696666D01*
X118855820Y-99696666D02*
X118868200Y-99721428D01*
X118868200Y-99721428D02*
X118868200Y-99783333D01*
X118868200Y-99783333D02*
X118855820Y-99808095D01*
X118855820Y-99808095D02*
X118843439Y-99820476D01*
D11*
X23230520Y-101009523D02*
X23763854Y-101009523D01*
X22925759Y-101199999D02*
X23497187Y-101390476D01*
X23497187Y-101390476D02*
X23497187Y-100895237D01*
X22963854Y-100666666D02*
X22963854Y-100133332D01*
X22963854Y-100133332D02*
X23763854Y-100476190D01*
X22963854Y-99676189D02*
X22963854Y-99599999D01*
X22963854Y-99599999D02*
X23001949Y-99523808D01*
X23001949Y-99523808D02*
X23040044Y-99485713D01*
X23040044Y-99485713D02*
X23116235Y-99447618D01*
X23116235Y-99447618D02*
X23268616Y-99409523D01*
X23268616Y-99409523D02*
X23459092Y-99409523D01*
X23459092Y-99409523D02*
X23611473Y-99447618D01*
X23611473Y-99447618D02*
X23687663Y-99485713D01*
X23687663Y-99485713D02*
X23725759Y-99523808D01*
X23725759Y-99523808D02*
X23763854Y-99599999D01*
X23763854Y-99599999D02*
X23763854Y-99676189D01*
X23763854Y-99676189D02*
X23725759Y-99752380D01*
X23725759Y-99752380D02*
X23687663Y-99790475D01*
X23687663Y-99790475D02*
X23611473Y-99828570D01*
X23611473Y-99828570D02*
X23459092Y-99866666D01*
X23459092Y-99866666D02*
X23268616Y-99866666D01*
X23268616Y-99866666D02*
X23116235Y-99828570D01*
X23116235Y-99828570D02*
X23040044Y-99790475D01*
X23040044Y-99790475D02*
X23001949Y-99752380D01*
X23001949Y-99752380D02*
X22963854Y-99676189D01*
X23763854Y-98609522D02*
X23382901Y-98876189D01*
X23763854Y-99066665D02*
X22963854Y-99066665D01*
X22963854Y-99066665D02*
X22963854Y-98761903D01*
X22963854Y-98761903D02*
X23001949Y-98685713D01*
X23001949Y-98685713D02*
X23040044Y-98647618D01*
X23040044Y-98647618D02*
X23116235Y-98609522D01*
X23116235Y-98609522D02*
X23230520Y-98609522D01*
X23230520Y-98609522D02*
X23306711Y-98647618D01*
X23306711Y-98647618D02*
X23344806Y-98685713D01*
X23344806Y-98685713D02*
X23382901Y-98761903D01*
X23382901Y-98761903D02*
X23382901Y-99066665D01*
D12*
X22348199Y-100167142D02*
X22224390Y-100253809D01*
X22348199Y-100315714D02*
X22088199Y-100315714D01*
X22088199Y-100315714D02*
X22088199Y-100216666D01*
X22088199Y-100216666D02*
X22100580Y-100191904D01*
X22100580Y-100191904D02*
X22112961Y-100179523D01*
X22112961Y-100179523D02*
X22137723Y-100167142D01*
X22137723Y-100167142D02*
X22174866Y-100167142D01*
X22174866Y-100167142D02*
X22199628Y-100179523D01*
X22199628Y-100179523D02*
X22212009Y-100191904D01*
X22212009Y-100191904D02*
X22224390Y-100216666D01*
X22224390Y-100216666D02*
X22224390Y-100315714D01*
X22348199Y-99919523D02*
X22348199Y-100068095D01*
X22348199Y-99993809D02*
X22088199Y-99993809D01*
X22088199Y-99993809D02*
X22125342Y-100018571D01*
X22125342Y-100018571D02*
X22150104Y-100043333D01*
X22150104Y-100043333D02*
X22162485Y-100068095D01*
X22088199Y-99684285D02*
X22088199Y-99808095D01*
X22088199Y-99808095D02*
X22212009Y-99820476D01*
X22212009Y-99820476D02*
X22199628Y-99808095D01*
X22199628Y-99808095D02*
X22187247Y-99783333D01*
X22187247Y-99783333D02*
X22187247Y-99721428D01*
X22187247Y-99721428D02*
X22199628Y-99696666D01*
X22199628Y-99696666D02*
X22212009Y-99684285D01*
X22212009Y-99684285D02*
X22236771Y-99671904D01*
X22236771Y-99671904D02*
X22298676Y-99671904D01*
X22298676Y-99671904D02*
X22323438Y-99684285D01*
X22323438Y-99684285D02*
X22335819Y-99696666D01*
X22335819Y-99696666D02*
X22348199Y-99721428D01*
X22348199Y-99721428D02*
X22348199Y-99783333D01*
X22348199Y-99783333D02*
X22335819Y-99808095D01*
X22335819Y-99808095D02*
X22323438Y-99820476D01*
D11*
X152770520Y-106009523D02*
X153303854Y-106009523D01*
X152465759Y-106199999D02*
X153037187Y-106390476D01*
X153037187Y-106390476D02*
X153037187Y-105895237D01*
X152503854Y-105666666D02*
X152503854Y-105133332D01*
X152503854Y-105133332D02*
X153303854Y-105476190D01*
X152503854Y-104676189D02*
X152503854Y-104599999D01*
X152503854Y-104599999D02*
X152541949Y-104523808D01*
X152541949Y-104523808D02*
X152580044Y-104485713D01*
X152580044Y-104485713D02*
X152656235Y-104447618D01*
X152656235Y-104447618D02*
X152808616Y-104409523D01*
X152808616Y-104409523D02*
X152999092Y-104409523D01*
X152999092Y-104409523D02*
X153151473Y-104447618D01*
X153151473Y-104447618D02*
X153227663Y-104485713D01*
X153227663Y-104485713D02*
X153265759Y-104523808D01*
X153265759Y-104523808D02*
X153303854Y-104599999D01*
X153303854Y-104599999D02*
X153303854Y-104676189D01*
X153303854Y-104676189D02*
X153265759Y-104752380D01*
X153265759Y-104752380D02*
X153227663Y-104790475D01*
X153227663Y-104790475D02*
X153151473Y-104828570D01*
X153151473Y-104828570D02*
X152999092Y-104866666D01*
X152999092Y-104866666D02*
X152808616Y-104866666D01*
X152808616Y-104866666D02*
X152656235Y-104828570D01*
X152656235Y-104828570D02*
X152580044Y-104790475D01*
X152580044Y-104790475D02*
X152541949Y-104752380D01*
X152541949Y-104752380D02*
X152503854Y-104676189D01*
X153303854Y-103609522D02*
X152922901Y-103876189D01*
X153303854Y-104066665D02*
X152503854Y-104066665D01*
X152503854Y-104066665D02*
X152503854Y-103761903D01*
X152503854Y-103761903D02*
X152541949Y-103685713D01*
X152541949Y-103685713D02*
X152580044Y-103647618D01*
X152580044Y-103647618D02*
X152656235Y-103609522D01*
X152656235Y-103609522D02*
X152770520Y-103609522D01*
X152770520Y-103609522D02*
X152846711Y-103647618D01*
X152846711Y-103647618D02*
X152884806Y-103685713D01*
X152884806Y-103685713D02*
X152922901Y-103761903D01*
X152922901Y-103761903D02*
X152922901Y-104066665D01*
D12*
X151888199Y-105167142D02*
X151764390Y-105253809D01*
X151888199Y-105315714D02*
X151628199Y-105315714D01*
X151628199Y-105315714D02*
X151628199Y-105216666D01*
X151628199Y-105216666D02*
X151640580Y-105191904D01*
X151640580Y-105191904D02*
X151652961Y-105179523D01*
X151652961Y-105179523D02*
X151677723Y-105167142D01*
X151677723Y-105167142D02*
X151714866Y-105167142D01*
X151714866Y-105167142D02*
X151739628Y-105179523D01*
X151739628Y-105179523D02*
X151752009Y-105191904D01*
X151752009Y-105191904D02*
X151764390Y-105216666D01*
X151764390Y-105216666D02*
X151764390Y-105315714D01*
X151628199Y-105080476D02*
X151628199Y-104919523D01*
X151628199Y-104919523D02*
X151727247Y-105006190D01*
X151727247Y-105006190D02*
X151727247Y-104969047D01*
X151727247Y-104969047D02*
X151739628Y-104944285D01*
X151739628Y-104944285D02*
X151752009Y-104931904D01*
X151752009Y-104931904D02*
X151776771Y-104919523D01*
X151776771Y-104919523D02*
X151838676Y-104919523D01*
X151838676Y-104919523D02*
X151863438Y-104931904D01*
X151863438Y-104931904D02*
X151875819Y-104944285D01*
X151875819Y-104944285D02*
X151888199Y-104969047D01*
X151888199Y-104969047D02*
X151888199Y-105043333D01*
X151888199Y-105043333D02*
X151875819Y-105068095D01*
X151875819Y-105068095D02*
X151863438Y-105080476D01*
X151739628Y-104770952D02*
X151727247Y-104795714D01*
X151727247Y-104795714D02*
X151714866Y-104808095D01*
X151714866Y-104808095D02*
X151690104Y-104820476D01*
X151690104Y-104820476D02*
X151677723Y-104820476D01*
X151677723Y-104820476D02*
X151652961Y-104808095D01*
X151652961Y-104808095D02*
X151640580Y-104795714D01*
X151640580Y-104795714D02*
X151628199Y-104770952D01*
X151628199Y-104770952D02*
X151628199Y-104721428D01*
X151628199Y-104721428D02*
X151640580Y-104696666D01*
X151640580Y-104696666D02*
X151652961Y-104684285D01*
X151652961Y-104684285D02*
X151677723Y-104671904D01*
X151677723Y-104671904D02*
X151690104Y-104671904D01*
X151690104Y-104671904D02*
X151714866Y-104684285D01*
X151714866Y-104684285D02*
X151727247Y-104696666D01*
X151727247Y-104696666D02*
X151739628Y-104721428D01*
X151739628Y-104721428D02*
X151739628Y-104770952D01*
X151739628Y-104770952D02*
X151752009Y-104795714D01*
X151752009Y-104795714D02*
X151764390Y-104808095D01*
X151764390Y-104808095D02*
X151789152Y-104820476D01*
X151789152Y-104820476D02*
X151838676Y-104820476D01*
X151838676Y-104820476D02*
X151863438Y-104808095D01*
X151863438Y-104808095D02*
X151875819Y-104795714D01*
X151875819Y-104795714D02*
X151888199Y-104770952D01*
X151888199Y-104770952D02*
X151888199Y-104721428D01*
X151888199Y-104721428D02*
X151875819Y-104696666D01*
X151875819Y-104696666D02*
X151863438Y-104684285D01*
X151863438Y-104684285D02*
X151838676Y-104671904D01*
X151838676Y-104671904D02*
X151789152Y-104671904D01*
X151789152Y-104671904D02*
X151764390Y-104684285D01*
X151764390Y-104684285D02*
X151752009Y-104696666D01*
X151752009Y-104696666D02*
X151739628Y-104721428D01*
D13*
X14464286Y-111907409D02*
X14178572Y-111907409D01*
X14321429Y-111907409D02*
X14321429Y-111407409D01*
X14321429Y-111407409D02*
X14273810Y-111478838D01*
X14273810Y-111478838D02*
X14226191Y-111526457D01*
X14226191Y-111526457D02*
X14178572Y-111550266D01*
X14773809Y-111407409D02*
X14821428Y-111407409D01*
X14821428Y-111407409D02*
X14869047Y-111431219D01*
X14869047Y-111431219D02*
X14892857Y-111455028D01*
X14892857Y-111455028D02*
X14916666Y-111502647D01*
X14916666Y-111502647D02*
X14940476Y-111597885D01*
X14940476Y-111597885D02*
X14940476Y-111716933D01*
X14940476Y-111716933D02*
X14916666Y-111812171D01*
X14916666Y-111812171D02*
X14892857Y-111859790D01*
X14892857Y-111859790D02*
X14869047Y-111883600D01*
X14869047Y-111883600D02*
X14821428Y-111907409D01*
X14821428Y-111907409D02*
X14773809Y-111907409D01*
X14773809Y-111907409D02*
X14726190Y-111883600D01*
X14726190Y-111883600D02*
X14702381Y-111859790D01*
X14702381Y-111859790D02*
X14678571Y-111812171D01*
X14678571Y-111812171D02*
X14654762Y-111716933D01*
X14654762Y-111716933D02*
X14654762Y-111597885D01*
X14654762Y-111597885D02*
X14678571Y-111502647D01*
X14678571Y-111502647D02*
X14702381Y-111455028D01*
X14702381Y-111455028D02*
X14726190Y-111431219D01*
X14726190Y-111431219D02*
X14773809Y-111407409D01*
X15369047Y-111574076D02*
X15369047Y-111907409D01*
X15154761Y-111574076D02*
X15154761Y-111835980D01*
X15154761Y-111835980D02*
X15178571Y-111883600D01*
X15178571Y-111883600D02*
X15226190Y-111907409D01*
X15226190Y-111907409D02*
X15297618Y-111907409D01*
X15297618Y-111907409D02*
X15345237Y-111883600D01*
X15345237Y-111883600D02*
X15369047Y-111859790D01*
X15773809Y-111645504D02*
X15607142Y-111645504D01*
X15607142Y-111907409D02*
X15607142Y-111407409D01*
X15607142Y-111407409D02*
X15845237Y-111407409D01*
D14*
X14916666Y-110179530D02*
X14892857Y-110203340D01*
X14892857Y-110203340D02*
X14821428Y-110227149D01*
X14821428Y-110227149D02*
X14773809Y-110227149D01*
X14773809Y-110227149D02*
X14702381Y-110203340D01*
X14702381Y-110203340D02*
X14654762Y-110155720D01*
X14654762Y-110155720D02*
X14630952Y-110108101D01*
X14630952Y-110108101D02*
X14607143Y-110012863D01*
X14607143Y-110012863D02*
X14607143Y-109941435D01*
X14607143Y-109941435D02*
X14630952Y-109846197D01*
X14630952Y-109846197D02*
X14654762Y-109798578D01*
X14654762Y-109798578D02*
X14702381Y-109750959D01*
X14702381Y-109750959D02*
X14773809Y-109727149D01*
X14773809Y-109727149D02*
X14821428Y-109727149D01*
X14821428Y-109727149D02*
X14892857Y-109750959D01*
X14892857Y-109750959D02*
X14916666Y-109774768D01*
X15345238Y-109727149D02*
X15250000Y-109727149D01*
X15250000Y-109727149D02*
X15202381Y-109750959D01*
X15202381Y-109750959D02*
X15178571Y-109774768D01*
X15178571Y-109774768D02*
X15130952Y-109846197D01*
X15130952Y-109846197D02*
X15107143Y-109941435D01*
X15107143Y-109941435D02*
X15107143Y-110131911D01*
X15107143Y-110131911D02*
X15130952Y-110179530D01*
X15130952Y-110179530D02*
X15154762Y-110203340D01*
X15154762Y-110203340D02*
X15202381Y-110227149D01*
X15202381Y-110227149D02*
X15297619Y-110227149D01*
X15297619Y-110227149D02*
X15345238Y-110203340D01*
X15345238Y-110203340D02*
X15369047Y-110179530D01*
X15369047Y-110179530D02*
X15392857Y-110131911D01*
X15392857Y-110131911D02*
X15392857Y-110012863D01*
X15392857Y-110012863D02*
X15369047Y-109965244D01*
X15369047Y-109965244D02*
X15345238Y-109941435D01*
X15345238Y-109941435D02*
X15297619Y-109917625D01*
X15297619Y-109917625D02*
X15202381Y-109917625D01*
X15202381Y-109917625D02*
X15154762Y-109941435D01*
X15154762Y-109941435D02*
X15130952Y-109965244D01*
X15130952Y-109965244D02*
X15107143Y-110012863D01*
D11*
X140070521Y-111009523D02*
X140603855Y-111009523D01*
X139765760Y-111199999D02*
X140337188Y-111390476D01*
X140337188Y-111390476D02*
X140337188Y-110895237D01*
X139803855Y-110666666D02*
X139803855Y-110133332D01*
X139803855Y-110133332D02*
X140603855Y-110476190D01*
X139803855Y-109676189D02*
X139803855Y-109599999D01*
X139803855Y-109599999D02*
X139841950Y-109523808D01*
X139841950Y-109523808D02*
X139880045Y-109485713D01*
X139880045Y-109485713D02*
X139956236Y-109447618D01*
X139956236Y-109447618D02*
X140108617Y-109409523D01*
X140108617Y-109409523D02*
X140299093Y-109409523D01*
X140299093Y-109409523D02*
X140451474Y-109447618D01*
X140451474Y-109447618D02*
X140527664Y-109485713D01*
X140527664Y-109485713D02*
X140565760Y-109523808D01*
X140565760Y-109523808D02*
X140603855Y-109599999D01*
X140603855Y-109599999D02*
X140603855Y-109676189D01*
X140603855Y-109676189D02*
X140565760Y-109752380D01*
X140565760Y-109752380D02*
X140527664Y-109790475D01*
X140527664Y-109790475D02*
X140451474Y-109828570D01*
X140451474Y-109828570D02*
X140299093Y-109866666D01*
X140299093Y-109866666D02*
X140108617Y-109866666D01*
X140108617Y-109866666D02*
X139956236Y-109828570D01*
X139956236Y-109828570D02*
X139880045Y-109790475D01*
X139880045Y-109790475D02*
X139841950Y-109752380D01*
X139841950Y-109752380D02*
X139803855Y-109676189D01*
X140603855Y-108609522D02*
X140222902Y-108876189D01*
X140603855Y-109066665D02*
X139803855Y-109066665D01*
X139803855Y-109066665D02*
X139803855Y-108761903D01*
X139803855Y-108761903D02*
X139841950Y-108685713D01*
X139841950Y-108685713D02*
X139880045Y-108647618D01*
X139880045Y-108647618D02*
X139956236Y-108609522D01*
X139956236Y-108609522D02*
X140070521Y-108609522D01*
X140070521Y-108609522D02*
X140146712Y-108647618D01*
X140146712Y-108647618D02*
X140184807Y-108685713D01*
X140184807Y-108685713D02*
X140222902Y-108761903D01*
X140222902Y-108761903D02*
X140222902Y-109066665D01*
D12*
X139188200Y-110167142D02*
X139064391Y-110253809D01*
X139188200Y-110315714D02*
X138928200Y-110315714D01*
X138928200Y-110315714D02*
X138928200Y-110216666D01*
X138928200Y-110216666D02*
X138940581Y-110191904D01*
X138940581Y-110191904D02*
X138952962Y-110179523D01*
X138952962Y-110179523D02*
X138977724Y-110167142D01*
X138977724Y-110167142D02*
X139014867Y-110167142D01*
X139014867Y-110167142D02*
X139039629Y-110179523D01*
X139039629Y-110179523D02*
X139052010Y-110191904D01*
X139052010Y-110191904D02*
X139064391Y-110216666D01*
X139064391Y-110216666D02*
X139064391Y-110315714D01*
X138928200Y-110080476D02*
X138928200Y-109919523D01*
X138928200Y-109919523D02*
X139027248Y-110006190D01*
X139027248Y-110006190D02*
X139027248Y-109969047D01*
X139027248Y-109969047D02*
X139039629Y-109944285D01*
X139039629Y-109944285D02*
X139052010Y-109931904D01*
X139052010Y-109931904D02*
X139076772Y-109919523D01*
X139076772Y-109919523D02*
X139138677Y-109919523D01*
X139138677Y-109919523D02*
X139163439Y-109931904D01*
X139163439Y-109931904D02*
X139175820Y-109944285D01*
X139175820Y-109944285D02*
X139188200Y-109969047D01*
X139188200Y-109969047D02*
X139188200Y-110043333D01*
X139188200Y-110043333D02*
X139175820Y-110068095D01*
X139175820Y-110068095D02*
X139163439Y-110080476D01*
X138928200Y-109832857D02*
X138928200Y-109671904D01*
X138928200Y-109671904D02*
X139027248Y-109758571D01*
X139027248Y-109758571D02*
X139027248Y-109721428D01*
X139027248Y-109721428D02*
X139039629Y-109696666D01*
X139039629Y-109696666D02*
X139052010Y-109684285D01*
X139052010Y-109684285D02*
X139076772Y-109671904D01*
X139076772Y-109671904D02*
X139138677Y-109671904D01*
X139138677Y-109671904D02*
X139163439Y-109684285D01*
X139163439Y-109684285D02*
X139175820Y-109696666D01*
X139175820Y-109696666D02*
X139188200Y-109721428D01*
X139188200Y-109721428D02*
X139188200Y-109795714D01*
X139188200Y-109795714D02*
X139175820Y-109820476D01*
X139175820Y-109820476D02*
X139163439Y-109832857D01*
D11*
X155310521Y-111009523D02*
X155843855Y-111009523D01*
X155005760Y-111199999D02*
X155577188Y-111390476D01*
X155577188Y-111390476D02*
X155577188Y-110895237D01*
X155043855Y-110666666D02*
X155043855Y-110133332D01*
X155043855Y-110133332D02*
X155843855Y-110476190D01*
X155043855Y-109676189D02*
X155043855Y-109599999D01*
X155043855Y-109599999D02*
X155081950Y-109523808D01*
X155081950Y-109523808D02*
X155120045Y-109485713D01*
X155120045Y-109485713D02*
X155196236Y-109447618D01*
X155196236Y-109447618D02*
X155348617Y-109409523D01*
X155348617Y-109409523D02*
X155539093Y-109409523D01*
X155539093Y-109409523D02*
X155691474Y-109447618D01*
X155691474Y-109447618D02*
X155767664Y-109485713D01*
X155767664Y-109485713D02*
X155805760Y-109523808D01*
X155805760Y-109523808D02*
X155843855Y-109599999D01*
X155843855Y-109599999D02*
X155843855Y-109676189D01*
X155843855Y-109676189D02*
X155805760Y-109752380D01*
X155805760Y-109752380D02*
X155767664Y-109790475D01*
X155767664Y-109790475D02*
X155691474Y-109828570D01*
X155691474Y-109828570D02*
X155539093Y-109866666D01*
X155539093Y-109866666D02*
X155348617Y-109866666D01*
X155348617Y-109866666D02*
X155196236Y-109828570D01*
X155196236Y-109828570D02*
X155120045Y-109790475D01*
X155120045Y-109790475D02*
X155081950Y-109752380D01*
X155081950Y-109752380D02*
X155043855Y-109676189D01*
X155843855Y-108609522D02*
X155462902Y-108876189D01*
X155843855Y-109066665D02*
X155043855Y-109066665D01*
X155043855Y-109066665D02*
X155043855Y-108761903D01*
X155043855Y-108761903D02*
X155081950Y-108685713D01*
X155081950Y-108685713D02*
X155120045Y-108647618D01*
X155120045Y-108647618D02*
X155196236Y-108609522D01*
X155196236Y-108609522D02*
X155310521Y-108609522D01*
X155310521Y-108609522D02*
X155386712Y-108647618D01*
X155386712Y-108647618D02*
X155424807Y-108685713D01*
X155424807Y-108685713D02*
X155462902Y-108761903D01*
X155462902Y-108761903D02*
X155462902Y-109066665D01*
D12*
X154428200Y-110167142D02*
X154304391Y-110253809D01*
X154428200Y-110315714D02*
X154168200Y-110315714D01*
X154168200Y-110315714D02*
X154168200Y-110216666D01*
X154168200Y-110216666D02*
X154180581Y-110191904D01*
X154180581Y-110191904D02*
X154192962Y-110179523D01*
X154192962Y-110179523D02*
X154217724Y-110167142D01*
X154217724Y-110167142D02*
X154254867Y-110167142D01*
X154254867Y-110167142D02*
X154279629Y-110179523D01*
X154279629Y-110179523D02*
X154292010Y-110191904D01*
X154292010Y-110191904D02*
X154304391Y-110216666D01*
X154304391Y-110216666D02*
X154304391Y-110315714D01*
X154168200Y-110080476D02*
X154168200Y-109919523D01*
X154168200Y-109919523D02*
X154267248Y-110006190D01*
X154267248Y-110006190D02*
X154267248Y-109969047D01*
X154267248Y-109969047D02*
X154279629Y-109944285D01*
X154279629Y-109944285D02*
X154292010Y-109931904D01*
X154292010Y-109931904D02*
X154316772Y-109919523D01*
X154316772Y-109919523D02*
X154378677Y-109919523D01*
X154378677Y-109919523D02*
X154403439Y-109931904D01*
X154403439Y-109931904D02*
X154415820Y-109944285D01*
X154415820Y-109944285D02*
X154428200Y-109969047D01*
X154428200Y-109969047D02*
X154428200Y-110043333D01*
X154428200Y-110043333D02*
X154415820Y-110068095D01*
X154415820Y-110068095D02*
X154403439Y-110080476D01*
X154428200Y-109795714D02*
X154428200Y-109746190D01*
X154428200Y-109746190D02*
X154415820Y-109721428D01*
X154415820Y-109721428D02*
X154403439Y-109709047D01*
X154403439Y-109709047D02*
X154366296Y-109684285D01*
X154366296Y-109684285D02*
X154316772Y-109671904D01*
X154316772Y-109671904D02*
X154217724Y-109671904D01*
X154217724Y-109671904D02*
X154192962Y-109684285D01*
X154192962Y-109684285D02*
X154180581Y-109696666D01*
X154180581Y-109696666D02*
X154168200Y-109721428D01*
X154168200Y-109721428D02*
X154168200Y-109770952D01*
X154168200Y-109770952D02*
X154180581Y-109795714D01*
X154180581Y-109795714D02*
X154192962Y-109808095D01*
X154192962Y-109808095D02*
X154217724Y-109820476D01*
X154217724Y-109820476D02*
X154279629Y-109820476D01*
X154279629Y-109820476D02*
X154304391Y-109808095D01*
X154304391Y-109808095D02*
X154316772Y-109795714D01*
X154316772Y-109795714D02*
X154329153Y-109770952D01*
X154329153Y-109770952D02*
X154329153Y-109721428D01*
X154329153Y-109721428D02*
X154316772Y-109696666D01*
X154316772Y-109696666D02*
X154304391Y-109684285D01*
X154304391Y-109684285D02*
X154279629Y-109671904D01*
D10*
X8169284Y-124579726D02*
X8169284Y-123309726D01*
X8169284Y-123309726D02*
X8592618Y-124216869D01*
X8592618Y-124216869D02*
X9015951Y-123309726D01*
X9015951Y-123309726D02*
X9015951Y-124579726D01*
X9439285Y-123309726D02*
X9862618Y-124579726D01*
X9862618Y-124579726D02*
X10285952Y-123309726D01*
X10648808Y-124519250D02*
X10830237Y-124579726D01*
X10830237Y-124579726D02*
X11132618Y-124579726D01*
X11132618Y-124579726D02*
X11253570Y-124519250D01*
X11253570Y-124519250D02*
X11314046Y-124458773D01*
X11314046Y-124458773D02*
X11374523Y-124337821D01*
X11374523Y-124337821D02*
X11374523Y-124216869D01*
X11374523Y-124216869D02*
X11314046Y-124095916D01*
X11314046Y-124095916D02*
X11253570Y-124035440D01*
X11253570Y-124035440D02*
X11132618Y-123974964D01*
X11132618Y-123974964D02*
X10890713Y-123914488D01*
X10890713Y-123914488D02*
X10769761Y-123854011D01*
X10769761Y-123854011D02*
X10709284Y-123793535D01*
X10709284Y-123793535D02*
X10648808Y-123672583D01*
X10648808Y-123672583D02*
X10648808Y-123551630D01*
X10648808Y-123551630D02*
X10709284Y-123430678D01*
X10709284Y-123430678D02*
X10769761Y-123370202D01*
X10769761Y-123370202D02*
X10890713Y-123309726D01*
X10890713Y-123309726D02*
X11193094Y-123309726D01*
X11193094Y-123309726D02*
X11374523Y-123370202D01*
X11616428Y-124700678D02*
X12584047Y-124700678D01*
X13612142Y-124458773D02*
X13551666Y-124519250D01*
X13551666Y-124519250D02*
X13370237Y-124579726D01*
X13370237Y-124579726D02*
X13249285Y-124579726D01*
X13249285Y-124579726D02*
X13067856Y-124519250D01*
X13067856Y-124519250D02*
X12946904Y-124398297D01*
X12946904Y-124398297D02*
X12886427Y-124277345D01*
X12886427Y-124277345D02*
X12825951Y-124035440D01*
X12825951Y-124035440D02*
X12825951Y-123854011D01*
X12825951Y-123854011D02*
X12886427Y-123612107D01*
X12886427Y-123612107D02*
X12946904Y-123491154D01*
X12946904Y-123491154D02*
X13067856Y-123370202D01*
X13067856Y-123370202D02*
X13249285Y-123309726D01*
X13249285Y-123309726D02*
X13370237Y-123309726D01*
X13370237Y-123309726D02*
X13551666Y-123370202D01*
X13551666Y-123370202D02*
X13612142Y-123430678D01*
X14156427Y-124579726D02*
X14156427Y-123309726D01*
X14156427Y-123914488D02*
X14882142Y-123914488D01*
X14882142Y-124579726D02*
X14882142Y-123309726D01*
X15426427Y-124216869D02*
X16031189Y-124216869D01*
X15305475Y-124579726D02*
X15728808Y-123309726D01*
X15728808Y-123309726D02*
X16152142Y-124579726D01*
X51738095Y-60354819D02*
X52404761Y-60354819D01*
X52404761Y-60354819D02*
X51976190Y-61354819D01*
X53214285Y-60688152D02*
X53214285Y-61354819D01*
X52976190Y-60307200D02*
X52738095Y-61021485D01*
X52738095Y-61021485D02*
X53357142Y-61021485D01*
X53738095Y-61354819D02*
X53738095Y-60354819D01*
X53738095Y-60831009D02*
X54309523Y-60831009D01*
X54309523Y-61354819D02*
X54309523Y-60354819D01*
X55357142Y-61259580D02*
X55309523Y-61307200D01*
X55309523Y-61307200D02*
X55166666Y-61354819D01*
X55166666Y-61354819D02*
X55071428Y-61354819D01*
X55071428Y-61354819D02*
X54928571Y-61307200D01*
X54928571Y-61307200D02*
X54833333Y-61211961D01*
X54833333Y-61211961D02*
X54785714Y-61116723D01*
X54785714Y-61116723D02*
X54738095Y-60926247D01*
X54738095Y-60926247D02*
X54738095Y-60783390D01*
X54738095Y-60783390D02*
X54785714Y-60592914D01*
X54785714Y-60592914D02*
X54833333Y-60497676D01*
X54833333Y-60497676D02*
X54928571Y-60402438D01*
X54928571Y-60402438D02*
X55071428Y-60354819D01*
X55071428Y-60354819D02*
X55166666Y-60354819D01*
X55166666Y-60354819D02*
X55309523Y-60402438D01*
X55309523Y-60402438D02*
X55357142Y-60450057D01*
X56309523Y-61354819D02*
X55738095Y-61354819D01*
X56023809Y-61354819D02*
X56023809Y-60354819D01*
X56023809Y-60354819D02*
X55928571Y-60497676D01*
X55928571Y-60497676D02*
X55833333Y-60592914D01*
X55833333Y-60592914D02*
X55738095Y-60640533D01*
X57166666Y-60354819D02*
X56976190Y-60354819D01*
X56976190Y-60354819D02*
X56880952Y-60402438D01*
X56880952Y-60402438D02*
X56833333Y-60450057D01*
X56833333Y-60450057D02*
X56738095Y-60592914D01*
X56738095Y-60592914D02*
X56690476Y-60783390D01*
X56690476Y-60783390D02*
X56690476Y-61164342D01*
X56690476Y-61164342D02*
X56738095Y-61259580D01*
X56738095Y-61259580D02*
X56785714Y-61307200D01*
X56785714Y-61307200D02*
X56880952Y-61354819D01*
X56880952Y-61354819D02*
X57071428Y-61354819D01*
X57071428Y-61354819D02*
X57166666Y-61307200D01*
X57166666Y-61307200D02*
X57214285Y-61259580D01*
X57214285Y-61259580D02*
X57261904Y-61164342D01*
X57261904Y-61164342D02*
X57261904Y-60926247D01*
X57261904Y-60926247D02*
X57214285Y-60831009D01*
X57214285Y-60831009D02*
X57166666Y-60783390D01*
X57166666Y-60783390D02*
X57071428Y-60735771D01*
X57071428Y-60735771D02*
X56880952Y-60735771D01*
X56880952Y-60735771D02*
X56785714Y-60783390D01*
X56785714Y-60783390D02*
X56738095Y-60831009D01*
X56738095Y-60831009D02*
X56690476Y-60926247D01*
X58166666Y-60354819D02*
X57690476Y-60354819D01*
X57690476Y-60354819D02*
X57642857Y-60831009D01*
X57642857Y-60831009D02*
X57690476Y-60783390D01*
X57690476Y-60783390D02*
X57785714Y-60735771D01*
X57785714Y-60735771D02*
X58023809Y-60735771D01*
X58023809Y-60735771D02*
X58119047Y-60783390D01*
X58119047Y-60783390D02*
X58166666Y-60831009D01*
X58166666Y-60831009D02*
X58214285Y-60926247D01*
X58214285Y-60926247D02*
X58214285Y-61164342D01*
X58214285Y-61164342D02*
X58166666Y-61259580D01*
X58166666Y-61259580D02*
X58119047Y-61307200D01*
X58119047Y-61307200D02*
X58023809Y-61354819D01*
X58023809Y-61354819D02*
X57785714Y-61354819D01*
X57785714Y-61354819D02*
X57690476Y-61307200D01*
X57690476Y-61307200D02*
X57642857Y-61259580D01*
X54454819Y-55761904D02*
X55264342Y-55761904D01*
X55264342Y-55761904D02*
X55359580Y-55714285D01*
X55359580Y-55714285D02*
X55407200Y-55666666D01*
X55407200Y-55666666D02*
X55454819Y-55571428D01*
X55454819Y-55571428D02*
X55454819Y-55380952D01*
X55454819Y-55380952D02*
X55407200Y-55285714D01*
X55407200Y-55285714D02*
X55359580Y-55238095D01*
X55359580Y-55238095D02*
X55264342Y-55190476D01*
X55264342Y-55190476D02*
X54454819Y-55190476D01*
X54550057Y-54761904D02*
X54502438Y-54714285D01*
X54502438Y-54714285D02*
X54454819Y-54619047D01*
X54454819Y-54619047D02*
X54454819Y-54380952D01*
X54454819Y-54380952D02*
X54502438Y-54285714D01*
X54502438Y-54285714D02*
X54550057Y-54238095D01*
X54550057Y-54238095D02*
X54645295Y-54190476D01*
X54645295Y-54190476D02*
X54740533Y-54190476D01*
X54740533Y-54190476D02*
X54883390Y-54238095D01*
X54883390Y-54238095D02*
X55454819Y-54809523D01*
X55454819Y-54809523D02*
X55454819Y-54190476D01*
X51738095Y-80354819D02*
X52404761Y-80354819D01*
X52404761Y-80354819D02*
X51976190Y-81354819D01*
X53214285Y-80688152D02*
X53214285Y-81354819D01*
X52976190Y-80307200D02*
X52738095Y-81021485D01*
X52738095Y-81021485D02*
X53357142Y-81021485D01*
X53738095Y-81354819D02*
X53738095Y-80354819D01*
X53738095Y-80831009D02*
X54309523Y-80831009D01*
X54309523Y-81354819D02*
X54309523Y-80354819D01*
X55357142Y-81259580D02*
X55309523Y-81307200D01*
X55309523Y-81307200D02*
X55166666Y-81354819D01*
X55166666Y-81354819D02*
X55071428Y-81354819D01*
X55071428Y-81354819D02*
X54928571Y-81307200D01*
X54928571Y-81307200D02*
X54833333Y-81211961D01*
X54833333Y-81211961D02*
X54785714Y-81116723D01*
X54785714Y-81116723D02*
X54738095Y-80926247D01*
X54738095Y-80926247D02*
X54738095Y-80783390D01*
X54738095Y-80783390D02*
X54785714Y-80592914D01*
X54785714Y-80592914D02*
X54833333Y-80497676D01*
X54833333Y-80497676D02*
X54928571Y-80402438D01*
X54928571Y-80402438D02*
X55071428Y-80354819D01*
X55071428Y-80354819D02*
X55166666Y-80354819D01*
X55166666Y-80354819D02*
X55309523Y-80402438D01*
X55309523Y-80402438D02*
X55357142Y-80450057D01*
X56309523Y-81354819D02*
X55738095Y-81354819D01*
X56023809Y-81354819D02*
X56023809Y-80354819D01*
X56023809Y-80354819D02*
X55928571Y-80497676D01*
X55928571Y-80497676D02*
X55833333Y-80592914D01*
X55833333Y-80592914D02*
X55738095Y-80640533D01*
X57166666Y-80354819D02*
X56976190Y-80354819D01*
X56976190Y-80354819D02*
X56880952Y-80402438D01*
X56880952Y-80402438D02*
X56833333Y-80450057D01*
X56833333Y-80450057D02*
X56738095Y-80592914D01*
X56738095Y-80592914D02*
X56690476Y-80783390D01*
X56690476Y-80783390D02*
X56690476Y-81164342D01*
X56690476Y-81164342D02*
X56738095Y-81259580D01*
X56738095Y-81259580D02*
X56785714Y-81307200D01*
X56785714Y-81307200D02*
X56880952Y-81354819D01*
X56880952Y-81354819D02*
X57071428Y-81354819D01*
X57071428Y-81354819D02*
X57166666Y-81307200D01*
X57166666Y-81307200D02*
X57214285Y-81259580D01*
X57214285Y-81259580D02*
X57261904Y-81164342D01*
X57261904Y-81164342D02*
X57261904Y-80926247D01*
X57261904Y-80926247D02*
X57214285Y-80831009D01*
X57214285Y-80831009D02*
X57166666Y-80783390D01*
X57166666Y-80783390D02*
X57071428Y-80735771D01*
X57071428Y-80735771D02*
X56880952Y-80735771D01*
X56880952Y-80735771D02*
X56785714Y-80783390D01*
X56785714Y-80783390D02*
X56738095Y-80831009D01*
X56738095Y-80831009D02*
X56690476Y-80926247D01*
X58166666Y-80354819D02*
X57690476Y-80354819D01*
X57690476Y-80354819D02*
X57642857Y-80831009D01*
X57642857Y-80831009D02*
X57690476Y-80783390D01*
X57690476Y-80783390D02*
X57785714Y-80735771D01*
X57785714Y-80735771D02*
X58023809Y-80735771D01*
X58023809Y-80735771D02*
X58119047Y-80783390D01*
X58119047Y-80783390D02*
X58166666Y-80831009D01*
X58166666Y-80831009D02*
X58214285Y-80926247D01*
X58214285Y-80926247D02*
X58214285Y-81164342D01*
X58214285Y-81164342D02*
X58166666Y-81259580D01*
X58166666Y-81259580D02*
X58119047Y-81307200D01*
X58119047Y-81307200D02*
X58023809Y-81354819D01*
X58023809Y-81354819D02*
X57785714Y-81354819D01*
X57785714Y-81354819D02*
X57690476Y-81307200D01*
X57690476Y-81307200D02*
X57642857Y-81259580D01*
X54454819Y-75761904D02*
X55264342Y-75761904D01*
X55264342Y-75761904D02*
X55359580Y-75714285D01*
X55359580Y-75714285D02*
X55407200Y-75666666D01*
X55407200Y-75666666D02*
X55454819Y-75571428D01*
X55454819Y-75571428D02*
X55454819Y-75380952D01*
X55454819Y-75380952D02*
X55407200Y-75285714D01*
X55407200Y-75285714D02*
X55359580Y-75238095D01*
X55359580Y-75238095D02*
X55264342Y-75190476D01*
X55264342Y-75190476D02*
X54454819Y-75190476D01*
X54454819Y-74809523D02*
X54454819Y-74190476D01*
X54454819Y-74190476D02*
X54835771Y-74523809D01*
X54835771Y-74523809D02*
X54835771Y-74380952D01*
X54835771Y-74380952D02*
X54883390Y-74285714D01*
X54883390Y-74285714D02*
X54931009Y-74238095D01*
X54931009Y-74238095D02*
X55026247Y-74190476D01*
X55026247Y-74190476D02*
X55264342Y-74190476D01*
X55264342Y-74190476D02*
X55359580Y-74238095D01*
X55359580Y-74238095D02*
X55407200Y-74285714D01*
X55407200Y-74285714D02*
X55454819Y-74380952D01*
X55454819Y-74380952D02*
X55454819Y-74666666D01*
X55454819Y-74666666D02*
X55407200Y-74761904D01*
X55407200Y-74761904D02*
X55359580Y-74809523D01*
D11*
X35930520Y-106009523D02*
X36463854Y-106009523D01*
X35625759Y-106199999D02*
X36197187Y-106390476D01*
X36197187Y-106390476D02*
X36197187Y-105895237D01*
X35663854Y-105666666D02*
X35663854Y-105133332D01*
X35663854Y-105133332D02*
X36463854Y-105476190D01*
X35663854Y-104676189D02*
X35663854Y-104599999D01*
X35663854Y-104599999D02*
X35701949Y-104523808D01*
X35701949Y-104523808D02*
X35740044Y-104485713D01*
X35740044Y-104485713D02*
X35816235Y-104447618D01*
X35816235Y-104447618D02*
X35968616Y-104409523D01*
X35968616Y-104409523D02*
X36159092Y-104409523D01*
X36159092Y-104409523D02*
X36311473Y-104447618D01*
X36311473Y-104447618D02*
X36387663Y-104485713D01*
X36387663Y-104485713D02*
X36425759Y-104523808D01*
X36425759Y-104523808D02*
X36463854Y-104599999D01*
X36463854Y-104599999D02*
X36463854Y-104676189D01*
X36463854Y-104676189D02*
X36425759Y-104752380D01*
X36425759Y-104752380D02*
X36387663Y-104790475D01*
X36387663Y-104790475D02*
X36311473Y-104828570D01*
X36311473Y-104828570D02*
X36159092Y-104866666D01*
X36159092Y-104866666D02*
X35968616Y-104866666D01*
X35968616Y-104866666D02*
X35816235Y-104828570D01*
X35816235Y-104828570D02*
X35740044Y-104790475D01*
X35740044Y-104790475D02*
X35701949Y-104752380D01*
X35701949Y-104752380D02*
X35663854Y-104676189D01*
X36463854Y-103609522D02*
X36082901Y-103876189D01*
X36463854Y-104066665D02*
X35663854Y-104066665D01*
X35663854Y-104066665D02*
X35663854Y-103761903D01*
X35663854Y-103761903D02*
X35701949Y-103685713D01*
X35701949Y-103685713D02*
X35740044Y-103647618D01*
X35740044Y-103647618D02*
X35816235Y-103609522D01*
X35816235Y-103609522D02*
X35930520Y-103609522D01*
X35930520Y-103609522D02*
X36006711Y-103647618D01*
X36006711Y-103647618D02*
X36044806Y-103685713D01*
X36044806Y-103685713D02*
X36082901Y-103761903D01*
X36082901Y-103761903D02*
X36082901Y-104066665D01*
D12*
X35048199Y-105167142D02*
X34924390Y-105253809D01*
X35048199Y-105315714D02*
X34788199Y-105315714D01*
X34788199Y-105315714D02*
X34788199Y-105216666D01*
X34788199Y-105216666D02*
X34800580Y-105191904D01*
X34800580Y-105191904D02*
X34812961Y-105179523D01*
X34812961Y-105179523D02*
X34837723Y-105167142D01*
X34837723Y-105167142D02*
X34874866Y-105167142D01*
X34874866Y-105167142D02*
X34899628Y-105179523D01*
X34899628Y-105179523D02*
X34912009Y-105191904D01*
X34912009Y-105191904D02*
X34924390Y-105216666D01*
X34924390Y-105216666D02*
X34924390Y-105315714D01*
X34812961Y-105068095D02*
X34800580Y-105055714D01*
X34800580Y-105055714D02*
X34788199Y-105030952D01*
X34788199Y-105030952D02*
X34788199Y-104969047D01*
X34788199Y-104969047D02*
X34800580Y-104944285D01*
X34800580Y-104944285D02*
X34812961Y-104931904D01*
X34812961Y-104931904D02*
X34837723Y-104919523D01*
X34837723Y-104919523D02*
X34862485Y-104919523D01*
X34862485Y-104919523D02*
X34899628Y-104931904D01*
X34899628Y-104931904D02*
X35048199Y-105080476D01*
X35048199Y-105080476D02*
X35048199Y-104919523D01*
X34788199Y-104758571D02*
X34788199Y-104733809D01*
X34788199Y-104733809D02*
X34800580Y-104709047D01*
X34800580Y-104709047D02*
X34812961Y-104696666D01*
X34812961Y-104696666D02*
X34837723Y-104684285D01*
X34837723Y-104684285D02*
X34887247Y-104671904D01*
X34887247Y-104671904D02*
X34949152Y-104671904D01*
X34949152Y-104671904D02*
X34998676Y-104684285D01*
X34998676Y-104684285D02*
X35023438Y-104696666D01*
X35023438Y-104696666D02*
X35035819Y-104709047D01*
X35035819Y-104709047D02*
X35048199Y-104733809D01*
X35048199Y-104733809D02*
X35048199Y-104758571D01*
X35048199Y-104758571D02*
X35035819Y-104783333D01*
X35035819Y-104783333D02*
X35023438Y-104795714D01*
X35023438Y-104795714D02*
X34998676Y-104808095D01*
X34998676Y-104808095D02*
X34949152Y-104820476D01*
X34949152Y-104820476D02*
X34887247Y-104820476D01*
X34887247Y-104820476D02*
X34837723Y-104808095D01*
X34837723Y-104808095D02*
X34812961Y-104795714D01*
X34812961Y-104795714D02*
X34800580Y-104783333D01*
X34800580Y-104783333D02*
X34788199Y-104758571D01*
D11*
X25770520Y-111009523D02*
X26303854Y-111009523D01*
X25465759Y-111199999D02*
X26037187Y-111390476D01*
X26037187Y-111390476D02*
X26037187Y-110895237D01*
X25503854Y-110666666D02*
X25503854Y-110133332D01*
X25503854Y-110133332D02*
X26303854Y-110476190D01*
X25503854Y-109676189D02*
X25503854Y-109599999D01*
X25503854Y-109599999D02*
X25541949Y-109523808D01*
X25541949Y-109523808D02*
X25580044Y-109485713D01*
X25580044Y-109485713D02*
X25656235Y-109447618D01*
X25656235Y-109447618D02*
X25808616Y-109409523D01*
X25808616Y-109409523D02*
X25999092Y-109409523D01*
X25999092Y-109409523D02*
X26151473Y-109447618D01*
X26151473Y-109447618D02*
X26227663Y-109485713D01*
X26227663Y-109485713D02*
X26265759Y-109523808D01*
X26265759Y-109523808D02*
X26303854Y-109599999D01*
X26303854Y-109599999D02*
X26303854Y-109676189D01*
X26303854Y-109676189D02*
X26265759Y-109752380D01*
X26265759Y-109752380D02*
X26227663Y-109790475D01*
X26227663Y-109790475D02*
X26151473Y-109828570D01*
X26151473Y-109828570D02*
X25999092Y-109866666D01*
X25999092Y-109866666D02*
X25808616Y-109866666D01*
X25808616Y-109866666D02*
X25656235Y-109828570D01*
X25656235Y-109828570D02*
X25580044Y-109790475D01*
X25580044Y-109790475D02*
X25541949Y-109752380D01*
X25541949Y-109752380D02*
X25503854Y-109676189D01*
X26303854Y-108609522D02*
X25922901Y-108876189D01*
X26303854Y-109066665D02*
X25503854Y-109066665D01*
X25503854Y-109066665D02*
X25503854Y-108761903D01*
X25503854Y-108761903D02*
X25541949Y-108685713D01*
X25541949Y-108685713D02*
X25580044Y-108647618D01*
X25580044Y-108647618D02*
X25656235Y-108609522D01*
X25656235Y-108609522D02*
X25770520Y-108609522D01*
X25770520Y-108609522D02*
X25846711Y-108647618D01*
X25846711Y-108647618D02*
X25884806Y-108685713D01*
X25884806Y-108685713D02*
X25922901Y-108761903D01*
X25922901Y-108761903D02*
X25922901Y-109066665D01*
D12*
X24888199Y-110167142D02*
X24764390Y-110253809D01*
X24888199Y-110315714D02*
X24628199Y-110315714D01*
X24628199Y-110315714D02*
X24628199Y-110216666D01*
X24628199Y-110216666D02*
X24640580Y-110191904D01*
X24640580Y-110191904D02*
X24652961Y-110179523D01*
X24652961Y-110179523D02*
X24677723Y-110167142D01*
X24677723Y-110167142D02*
X24714866Y-110167142D01*
X24714866Y-110167142D02*
X24739628Y-110179523D01*
X24739628Y-110179523D02*
X24752009Y-110191904D01*
X24752009Y-110191904D02*
X24764390Y-110216666D01*
X24764390Y-110216666D02*
X24764390Y-110315714D01*
X24888199Y-109919523D02*
X24888199Y-110068095D01*
X24888199Y-109993809D02*
X24628199Y-109993809D01*
X24628199Y-109993809D02*
X24665342Y-110018571D01*
X24665342Y-110018571D02*
X24690104Y-110043333D01*
X24690104Y-110043333D02*
X24702485Y-110068095D01*
X24628199Y-109696666D02*
X24628199Y-109746190D01*
X24628199Y-109746190D02*
X24640580Y-109770952D01*
X24640580Y-109770952D02*
X24652961Y-109783333D01*
X24652961Y-109783333D02*
X24690104Y-109808095D01*
X24690104Y-109808095D02*
X24739628Y-109820476D01*
X24739628Y-109820476D02*
X24838676Y-109820476D01*
X24838676Y-109820476D02*
X24863438Y-109808095D01*
X24863438Y-109808095D02*
X24875819Y-109795714D01*
X24875819Y-109795714D02*
X24888199Y-109770952D01*
X24888199Y-109770952D02*
X24888199Y-109721428D01*
X24888199Y-109721428D02*
X24875819Y-109696666D01*
X24875819Y-109696666D02*
X24863438Y-109684285D01*
X24863438Y-109684285D02*
X24838676Y-109671904D01*
X24838676Y-109671904D02*
X24776771Y-109671904D01*
X24776771Y-109671904D02*
X24752009Y-109684285D01*
X24752009Y-109684285D02*
X24739628Y-109696666D01*
X24739628Y-109696666D02*
X24727247Y-109721428D01*
X24727247Y-109721428D02*
X24727247Y-109770952D01*
X24727247Y-109770952D02*
X24739628Y-109795714D01*
X24739628Y-109795714D02*
X24752009Y-109808095D01*
X24752009Y-109808095D02*
X24776771Y-109820476D01*
D13*
X47226191Y-71387409D02*
X46940477Y-71387409D01*
X47083334Y-71387409D02*
X47083334Y-70887409D01*
X47083334Y-70887409D02*
X47035715Y-70958838D01*
X47035715Y-70958838D02*
X46988096Y-71006457D01*
X46988096Y-71006457D02*
X46940477Y-71030266D01*
X47535714Y-70887409D02*
X47583333Y-70887409D01*
X47583333Y-70887409D02*
X47630952Y-70911219D01*
X47630952Y-70911219D02*
X47654762Y-70935028D01*
X47654762Y-70935028D02*
X47678571Y-70982647D01*
X47678571Y-70982647D02*
X47702381Y-71077885D01*
X47702381Y-71077885D02*
X47702381Y-71196933D01*
X47702381Y-71196933D02*
X47678571Y-71292171D01*
X47678571Y-71292171D02*
X47654762Y-71339790D01*
X47654762Y-71339790D02*
X47630952Y-71363600D01*
X47630952Y-71363600D02*
X47583333Y-71387409D01*
X47583333Y-71387409D02*
X47535714Y-71387409D01*
X47535714Y-71387409D02*
X47488095Y-71363600D01*
X47488095Y-71363600D02*
X47464286Y-71339790D01*
X47464286Y-71339790D02*
X47440476Y-71292171D01*
X47440476Y-71292171D02*
X47416667Y-71196933D01*
X47416667Y-71196933D02*
X47416667Y-71077885D01*
X47416667Y-71077885D02*
X47440476Y-70982647D01*
X47440476Y-70982647D02*
X47464286Y-70935028D01*
X47464286Y-70935028D02*
X47488095Y-70911219D01*
X47488095Y-70911219D02*
X47535714Y-70887409D01*
X48011904Y-70887409D02*
X48059523Y-70887409D01*
X48059523Y-70887409D02*
X48107142Y-70911219D01*
X48107142Y-70911219D02*
X48130952Y-70935028D01*
X48130952Y-70935028D02*
X48154761Y-70982647D01*
X48154761Y-70982647D02*
X48178571Y-71077885D01*
X48178571Y-71077885D02*
X48178571Y-71196933D01*
X48178571Y-71196933D02*
X48154761Y-71292171D01*
X48154761Y-71292171D02*
X48130952Y-71339790D01*
X48130952Y-71339790D02*
X48107142Y-71363600D01*
X48107142Y-71363600D02*
X48059523Y-71387409D01*
X48059523Y-71387409D02*
X48011904Y-71387409D01*
X48011904Y-71387409D02*
X47964285Y-71363600D01*
X47964285Y-71363600D02*
X47940476Y-71339790D01*
X47940476Y-71339790D02*
X47916666Y-71292171D01*
X47916666Y-71292171D02*
X47892857Y-71196933D01*
X47892857Y-71196933D02*
X47892857Y-71077885D01*
X47892857Y-71077885D02*
X47916666Y-70982647D01*
X47916666Y-70982647D02*
X47940476Y-70935028D01*
X47940476Y-70935028D02*
X47964285Y-70911219D01*
X47964285Y-70911219D02*
X48011904Y-70887409D01*
X48392856Y-71054076D02*
X48392856Y-71387409D01*
X48392856Y-71101695D02*
X48416666Y-71077885D01*
X48416666Y-71077885D02*
X48464285Y-71054076D01*
X48464285Y-71054076D02*
X48535713Y-71054076D01*
X48535713Y-71054076D02*
X48583332Y-71077885D01*
X48583332Y-71077885D02*
X48607142Y-71125504D01*
X48607142Y-71125504D02*
X48607142Y-71387409D01*
X49011904Y-71125504D02*
X48845237Y-71125504D01*
X48845237Y-71387409D02*
X48845237Y-70887409D01*
X48845237Y-70887409D02*
X49083332Y-70887409D01*
D12*
X47958333Y-70089765D02*
X47946429Y-70101670D01*
X47946429Y-70101670D02*
X47910714Y-70113574D01*
X47910714Y-70113574D02*
X47886905Y-70113574D01*
X47886905Y-70113574D02*
X47851191Y-70101670D01*
X47851191Y-70101670D02*
X47827381Y-70077860D01*
X47827381Y-70077860D02*
X47815476Y-70054050D01*
X47815476Y-70054050D02*
X47803572Y-70006431D01*
X47803572Y-70006431D02*
X47803572Y-69970717D01*
X47803572Y-69970717D02*
X47815476Y-69923098D01*
X47815476Y-69923098D02*
X47827381Y-69899289D01*
X47827381Y-69899289D02*
X47851191Y-69875479D01*
X47851191Y-69875479D02*
X47886905Y-69863574D01*
X47886905Y-69863574D02*
X47910714Y-69863574D01*
X47910714Y-69863574D02*
X47946429Y-69875479D01*
X47946429Y-69875479D02*
X47958333Y-69887384D01*
X48041667Y-69863574D02*
X48196429Y-69863574D01*
X48196429Y-69863574D02*
X48113095Y-69958812D01*
X48113095Y-69958812D02*
X48148810Y-69958812D01*
X48148810Y-69958812D02*
X48172619Y-69970717D01*
X48172619Y-69970717D02*
X48184524Y-69982622D01*
X48184524Y-69982622D02*
X48196429Y-70006431D01*
X48196429Y-70006431D02*
X48196429Y-70065955D01*
X48196429Y-70065955D02*
X48184524Y-70089765D01*
X48184524Y-70089765D02*
X48172619Y-70101670D01*
X48172619Y-70101670D02*
X48148810Y-70113574D01*
X48148810Y-70113574D02*
X48077381Y-70113574D01*
X48077381Y-70113574D02*
X48053572Y-70101670D01*
X48053572Y-70101670D02*
X48041667Y-70089765D01*
D11*
X35930520Y-101009523D02*
X36463854Y-101009523D01*
X35625759Y-101199999D02*
X36197187Y-101390476D01*
X36197187Y-101390476D02*
X36197187Y-100895237D01*
X35663854Y-100666666D02*
X35663854Y-100133332D01*
X35663854Y-100133332D02*
X36463854Y-100476190D01*
X35663854Y-99676189D02*
X35663854Y-99599999D01*
X35663854Y-99599999D02*
X35701949Y-99523808D01*
X35701949Y-99523808D02*
X35740044Y-99485713D01*
X35740044Y-99485713D02*
X35816235Y-99447618D01*
X35816235Y-99447618D02*
X35968616Y-99409523D01*
X35968616Y-99409523D02*
X36159092Y-99409523D01*
X36159092Y-99409523D02*
X36311473Y-99447618D01*
X36311473Y-99447618D02*
X36387663Y-99485713D01*
X36387663Y-99485713D02*
X36425759Y-99523808D01*
X36425759Y-99523808D02*
X36463854Y-99599999D01*
X36463854Y-99599999D02*
X36463854Y-99676189D01*
X36463854Y-99676189D02*
X36425759Y-99752380D01*
X36425759Y-99752380D02*
X36387663Y-99790475D01*
X36387663Y-99790475D02*
X36311473Y-99828570D01*
X36311473Y-99828570D02*
X36159092Y-99866666D01*
X36159092Y-99866666D02*
X35968616Y-99866666D01*
X35968616Y-99866666D02*
X35816235Y-99828570D01*
X35816235Y-99828570D02*
X35740044Y-99790475D01*
X35740044Y-99790475D02*
X35701949Y-99752380D01*
X35701949Y-99752380D02*
X35663854Y-99676189D01*
X36463854Y-98609522D02*
X36082901Y-98876189D01*
X36463854Y-99066665D02*
X35663854Y-99066665D01*
X35663854Y-99066665D02*
X35663854Y-98761903D01*
X35663854Y-98761903D02*
X35701949Y-98685713D01*
X35701949Y-98685713D02*
X35740044Y-98647618D01*
X35740044Y-98647618D02*
X35816235Y-98609522D01*
X35816235Y-98609522D02*
X35930520Y-98609522D01*
X35930520Y-98609522D02*
X36006711Y-98647618D01*
X36006711Y-98647618D02*
X36044806Y-98685713D01*
X36044806Y-98685713D02*
X36082901Y-98761903D01*
X36082901Y-98761903D02*
X36082901Y-99066665D01*
D12*
X35048199Y-100043332D02*
X34924390Y-100129999D01*
X35048199Y-100191904D02*
X34788199Y-100191904D01*
X34788199Y-100191904D02*
X34788199Y-100092856D01*
X34788199Y-100092856D02*
X34800580Y-100068094D01*
X34800580Y-100068094D02*
X34812961Y-100055713D01*
X34812961Y-100055713D02*
X34837723Y-100043332D01*
X34837723Y-100043332D02*
X34874866Y-100043332D01*
X34874866Y-100043332D02*
X34899628Y-100055713D01*
X34899628Y-100055713D02*
X34912009Y-100068094D01*
X34912009Y-100068094D02*
X34924390Y-100092856D01*
X34924390Y-100092856D02*
X34924390Y-100191904D01*
X34899628Y-99894761D02*
X34887247Y-99919523D01*
X34887247Y-99919523D02*
X34874866Y-99931904D01*
X34874866Y-99931904D02*
X34850104Y-99944285D01*
X34850104Y-99944285D02*
X34837723Y-99944285D01*
X34837723Y-99944285D02*
X34812961Y-99931904D01*
X34812961Y-99931904D02*
X34800580Y-99919523D01*
X34800580Y-99919523D02*
X34788199Y-99894761D01*
X34788199Y-99894761D02*
X34788199Y-99845237D01*
X34788199Y-99845237D02*
X34800580Y-99820475D01*
X34800580Y-99820475D02*
X34812961Y-99808094D01*
X34812961Y-99808094D02*
X34837723Y-99795713D01*
X34837723Y-99795713D02*
X34850104Y-99795713D01*
X34850104Y-99795713D02*
X34874866Y-99808094D01*
X34874866Y-99808094D02*
X34887247Y-99820475D01*
X34887247Y-99820475D02*
X34899628Y-99845237D01*
X34899628Y-99845237D02*
X34899628Y-99894761D01*
X34899628Y-99894761D02*
X34912009Y-99919523D01*
X34912009Y-99919523D02*
X34924390Y-99931904D01*
X34924390Y-99931904D02*
X34949152Y-99944285D01*
X34949152Y-99944285D02*
X34998676Y-99944285D01*
X34998676Y-99944285D02*
X35023438Y-99931904D01*
X35023438Y-99931904D02*
X35035819Y-99919523D01*
X35035819Y-99919523D02*
X35048199Y-99894761D01*
X35048199Y-99894761D02*
X35048199Y-99845237D01*
X35048199Y-99845237D02*
X35035819Y-99820475D01*
X35035819Y-99820475D02*
X35023438Y-99808094D01*
X35023438Y-99808094D02*
X34998676Y-99795713D01*
X34998676Y-99795713D02*
X34949152Y-99795713D01*
X34949152Y-99795713D02*
X34924390Y-99808094D01*
X34924390Y-99808094D02*
X34912009Y-99820475D01*
X34912009Y-99820475D02*
X34899628Y-99845237D01*
D11*
X25770520Y-106009523D02*
X26303854Y-106009523D01*
X25465759Y-106199999D02*
X26037187Y-106390476D01*
X26037187Y-106390476D02*
X26037187Y-105895237D01*
X25503854Y-105666666D02*
X25503854Y-105133332D01*
X25503854Y-105133332D02*
X26303854Y-105476190D01*
X25503854Y-104676189D02*
X25503854Y-104599999D01*
X25503854Y-104599999D02*
X25541949Y-104523808D01*
X25541949Y-104523808D02*
X25580044Y-104485713D01*
X25580044Y-104485713D02*
X25656235Y-104447618D01*
X25656235Y-104447618D02*
X25808616Y-104409523D01*
X25808616Y-104409523D02*
X25999092Y-104409523D01*
X25999092Y-104409523D02*
X26151473Y-104447618D01*
X26151473Y-104447618D02*
X26227663Y-104485713D01*
X26227663Y-104485713D02*
X26265759Y-104523808D01*
X26265759Y-104523808D02*
X26303854Y-104599999D01*
X26303854Y-104599999D02*
X26303854Y-104676189D01*
X26303854Y-104676189D02*
X26265759Y-104752380D01*
X26265759Y-104752380D02*
X26227663Y-104790475D01*
X26227663Y-104790475D02*
X26151473Y-104828570D01*
X26151473Y-104828570D02*
X25999092Y-104866666D01*
X25999092Y-104866666D02*
X25808616Y-104866666D01*
X25808616Y-104866666D02*
X25656235Y-104828570D01*
X25656235Y-104828570D02*
X25580044Y-104790475D01*
X25580044Y-104790475D02*
X25541949Y-104752380D01*
X25541949Y-104752380D02*
X25503854Y-104676189D01*
X26303854Y-103609522D02*
X25922901Y-103876189D01*
X26303854Y-104066665D02*
X25503854Y-104066665D01*
X25503854Y-104066665D02*
X25503854Y-103761903D01*
X25503854Y-103761903D02*
X25541949Y-103685713D01*
X25541949Y-103685713D02*
X25580044Y-103647618D01*
X25580044Y-103647618D02*
X25656235Y-103609522D01*
X25656235Y-103609522D02*
X25770520Y-103609522D01*
X25770520Y-103609522D02*
X25846711Y-103647618D01*
X25846711Y-103647618D02*
X25884806Y-103685713D01*
X25884806Y-103685713D02*
X25922901Y-103761903D01*
X25922901Y-103761903D02*
X25922901Y-104066665D01*
D12*
X24888199Y-105043332D02*
X24764390Y-105129999D01*
X24888199Y-105191904D02*
X24628199Y-105191904D01*
X24628199Y-105191904D02*
X24628199Y-105092856D01*
X24628199Y-105092856D02*
X24640580Y-105068094D01*
X24640580Y-105068094D02*
X24652961Y-105055713D01*
X24652961Y-105055713D02*
X24677723Y-105043332D01*
X24677723Y-105043332D02*
X24714866Y-105043332D01*
X24714866Y-105043332D02*
X24739628Y-105055713D01*
X24739628Y-105055713D02*
X24752009Y-105068094D01*
X24752009Y-105068094D02*
X24764390Y-105092856D01*
X24764390Y-105092856D02*
X24764390Y-105191904D01*
X24714866Y-104820475D02*
X24888199Y-104820475D01*
X24615819Y-104882380D02*
X24801533Y-104944285D01*
X24801533Y-104944285D02*
X24801533Y-104783332D01*
D11*
X20690520Y-101009523D02*
X21223854Y-101009523D01*
X20385759Y-101199999D02*
X20957187Y-101390476D01*
X20957187Y-101390476D02*
X20957187Y-100895237D01*
X20423854Y-100666666D02*
X20423854Y-100133332D01*
X20423854Y-100133332D02*
X21223854Y-100476190D01*
X20423854Y-99676189D02*
X20423854Y-99599999D01*
X20423854Y-99599999D02*
X20461949Y-99523808D01*
X20461949Y-99523808D02*
X20500044Y-99485713D01*
X20500044Y-99485713D02*
X20576235Y-99447618D01*
X20576235Y-99447618D02*
X20728616Y-99409523D01*
X20728616Y-99409523D02*
X20919092Y-99409523D01*
X20919092Y-99409523D02*
X21071473Y-99447618D01*
X21071473Y-99447618D02*
X21147663Y-99485713D01*
X21147663Y-99485713D02*
X21185759Y-99523808D01*
X21185759Y-99523808D02*
X21223854Y-99599999D01*
X21223854Y-99599999D02*
X21223854Y-99676189D01*
X21223854Y-99676189D02*
X21185759Y-99752380D01*
X21185759Y-99752380D02*
X21147663Y-99790475D01*
X21147663Y-99790475D02*
X21071473Y-99828570D01*
X21071473Y-99828570D02*
X20919092Y-99866666D01*
X20919092Y-99866666D02*
X20728616Y-99866666D01*
X20728616Y-99866666D02*
X20576235Y-99828570D01*
X20576235Y-99828570D02*
X20500044Y-99790475D01*
X20500044Y-99790475D02*
X20461949Y-99752380D01*
X20461949Y-99752380D02*
X20423854Y-99676189D01*
X21223854Y-98609522D02*
X20842901Y-98876189D01*
X21223854Y-99066665D02*
X20423854Y-99066665D01*
X20423854Y-99066665D02*
X20423854Y-98761903D01*
X20423854Y-98761903D02*
X20461949Y-98685713D01*
X20461949Y-98685713D02*
X20500044Y-98647618D01*
X20500044Y-98647618D02*
X20576235Y-98609522D01*
X20576235Y-98609522D02*
X20690520Y-98609522D01*
X20690520Y-98609522D02*
X20766711Y-98647618D01*
X20766711Y-98647618D02*
X20804806Y-98685713D01*
X20804806Y-98685713D02*
X20842901Y-98761903D01*
X20842901Y-98761903D02*
X20842901Y-99066665D01*
D12*
X19808199Y-100043332D02*
X19684390Y-100129999D01*
X19808199Y-100191904D02*
X19548199Y-100191904D01*
X19548199Y-100191904D02*
X19548199Y-100092856D01*
X19548199Y-100092856D02*
X19560580Y-100068094D01*
X19560580Y-100068094D02*
X19572961Y-100055713D01*
X19572961Y-100055713D02*
X19597723Y-100043332D01*
X19597723Y-100043332D02*
X19634866Y-100043332D01*
X19634866Y-100043332D02*
X19659628Y-100055713D01*
X19659628Y-100055713D02*
X19672009Y-100068094D01*
X19672009Y-100068094D02*
X19684390Y-100092856D01*
X19684390Y-100092856D02*
X19684390Y-100191904D01*
X19572961Y-99944285D02*
X19560580Y-99931904D01*
X19560580Y-99931904D02*
X19548199Y-99907142D01*
X19548199Y-99907142D02*
X19548199Y-99845237D01*
X19548199Y-99845237D02*
X19560580Y-99820475D01*
X19560580Y-99820475D02*
X19572961Y-99808094D01*
X19572961Y-99808094D02*
X19597723Y-99795713D01*
X19597723Y-99795713D02*
X19622485Y-99795713D01*
X19622485Y-99795713D02*
X19659628Y-99808094D01*
X19659628Y-99808094D02*
X19808199Y-99956666D01*
X19808199Y-99956666D02*
X19808199Y-99795713D01*
D11*
X79000521Y-111009523D02*
X79533855Y-111009523D01*
X78695760Y-111199999D02*
X79267188Y-111390476D01*
X79267188Y-111390476D02*
X79267188Y-110895237D01*
X78733855Y-110666666D02*
X78733855Y-110133332D01*
X78733855Y-110133332D02*
X79533855Y-110476190D01*
X78733855Y-109676189D02*
X78733855Y-109599999D01*
X78733855Y-109599999D02*
X78771950Y-109523808D01*
X78771950Y-109523808D02*
X78810045Y-109485713D01*
X78810045Y-109485713D02*
X78886236Y-109447618D01*
X78886236Y-109447618D02*
X79038617Y-109409523D01*
X79038617Y-109409523D02*
X79229093Y-109409523D01*
X79229093Y-109409523D02*
X79381474Y-109447618D01*
X79381474Y-109447618D02*
X79457664Y-109485713D01*
X79457664Y-109485713D02*
X79495760Y-109523808D01*
X79495760Y-109523808D02*
X79533855Y-109599999D01*
X79533855Y-109599999D02*
X79533855Y-109676189D01*
X79533855Y-109676189D02*
X79495760Y-109752380D01*
X79495760Y-109752380D02*
X79457664Y-109790475D01*
X79457664Y-109790475D02*
X79381474Y-109828570D01*
X79381474Y-109828570D02*
X79229093Y-109866666D01*
X79229093Y-109866666D02*
X79038617Y-109866666D01*
X79038617Y-109866666D02*
X78886236Y-109828570D01*
X78886236Y-109828570D02*
X78810045Y-109790475D01*
X78810045Y-109790475D02*
X78771950Y-109752380D01*
X78771950Y-109752380D02*
X78733855Y-109676189D01*
X79533855Y-108609522D02*
X79152902Y-108876189D01*
X79533855Y-109066665D02*
X78733855Y-109066665D01*
X78733855Y-109066665D02*
X78733855Y-108761903D01*
X78733855Y-108761903D02*
X78771950Y-108685713D01*
X78771950Y-108685713D02*
X78810045Y-108647618D01*
X78810045Y-108647618D02*
X78886236Y-108609522D01*
X78886236Y-108609522D02*
X79000521Y-108609522D01*
X79000521Y-108609522D02*
X79076712Y-108647618D01*
X79076712Y-108647618D02*
X79114807Y-108685713D01*
X79114807Y-108685713D02*
X79152902Y-108761903D01*
X79152902Y-108761903D02*
X79152902Y-109066665D01*
D12*
X78118200Y-110167142D02*
X77994391Y-110253809D01*
X78118200Y-110315714D02*
X77858200Y-110315714D01*
X77858200Y-110315714D02*
X77858200Y-110216666D01*
X77858200Y-110216666D02*
X77870581Y-110191904D01*
X77870581Y-110191904D02*
X77882962Y-110179523D01*
X77882962Y-110179523D02*
X77907724Y-110167142D01*
X77907724Y-110167142D02*
X77944867Y-110167142D01*
X77944867Y-110167142D02*
X77969629Y-110179523D01*
X77969629Y-110179523D02*
X77982010Y-110191904D01*
X77982010Y-110191904D02*
X77994391Y-110216666D01*
X77994391Y-110216666D02*
X77994391Y-110315714D01*
X78118200Y-109919523D02*
X78118200Y-110068095D01*
X78118200Y-109993809D02*
X77858200Y-109993809D01*
X77858200Y-109993809D02*
X77895343Y-110018571D01*
X77895343Y-110018571D02*
X77920105Y-110043333D01*
X77920105Y-110043333D02*
X77932486Y-110068095D01*
X77858200Y-109832857D02*
X77858200Y-109671904D01*
X77858200Y-109671904D02*
X77957248Y-109758571D01*
X77957248Y-109758571D02*
X77957248Y-109721428D01*
X77957248Y-109721428D02*
X77969629Y-109696666D01*
X77969629Y-109696666D02*
X77982010Y-109684285D01*
X77982010Y-109684285D02*
X78006772Y-109671904D01*
X78006772Y-109671904D02*
X78068677Y-109671904D01*
X78068677Y-109671904D02*
X78093439Y-109684285D01*
X78093439Y-109684285D02*
X78105820Y-109696666D01*
X78105820Y-109696666D02*
X78118200Y-109721428D01*
X78118200Y-109721428D02*
X78118200Y-109795714D01*
X78118200Y-109795714D02*
X78105820Y-109820476D01*
X78105820Y-109820476D02*
X78093439Y-109832857D01*
D13*
X47226191Y-31387409D02*
X46940477Y-31387409D01*
X47083334Y-31387409D02*
X47083334Y-30887409D01*
X47083334Y-30887409D02*
X47035715Y-30958838D01*
X47035715Y-30958838D02*
X46988096Y-31006457D01*
X46988096Y-31006457D02*
X46940477Y-31030266D01*
X47535714Y-30887409D02*
X47583333Y-30887409D01*
X47583333Y-30887409D02*
X47630952Y-30911219D01*
X47630952Y-30911219D02*
X47654762Y-30935028D01*
X47654762Y-30935028D02*
X47678571Y-30982647D01*
X47678571Y-30982647D02*
X47702381Y-31077885D01*
X47702381Y-31077885D02*
X47702381Y-31196933D01*
X47702381Y-31196933D02*
X47678571Y-31292171D01*
X47678571Y-31292171D02*
X47654762Y-31339790D01*
X47654762Y-31339790D02*
X47630952Y-31363600D01*
X47630952Y-31363600D02*
X47583333Y-31387409D01*
X47583333Y-31387409D02*
X47535714Y-31387409D01*
X47535714Y-31387409D02*
X47488095Y-31363600D01*
X47488095Y-31363600D02*
X47464286Y-31339790D01*
X47464286Y-31339790D02*
X47440476Y-31292171D01*
X47440476Y-31292171D02*
X47416667Y-31196933D01*
X47416667Y-31196933D02*
X47416667Y-31077885D01*
X47416667Y-31077885D02*
X47440476Y-30982647D01*
X47440476Y-30982647D02*
X47464286Y-30935028D01*
X47464286Y-30935028D02*
X47488095Y-30911219D01*
X47488095Y-30911219D02*
X47535714Y-30887409D01*
X48011904Y-30887409D02*
X48059523Y-30887409D01*
X48059523Y-30887409D02*
X48107142Y-30911219D01*
X48107142Y-30911219D02*
X48130952Y-30935028D01*
X48130952Y-30935028D02*
X48154761Y-30982647D01*
X48154761Y-30982647D02*
X48178571Y-31077885D01*
X48178571Y-31077885D02*
X48178571Y-31196933D01*
X48178571Y-31196933D02*
X48154761Y-31292171D01*
X48154761Y-31292171D02*
X48130952Y-31339790D01*
X48130952Y-31339790D02*
X48107142Y-31363600D01*
X48107142Y-31363600D02*
X48059523Y-31387409D01*
X48059523Y-31387409D02*
X48011904Y-31387409D01*
X48011904Y-31387409D02*
X47964285Y-31363600D01*
X47964285Y-31363600D02*
X47940476Y-31339790D01*
X47940476Y-31339790D02*
X47916666Y-31292171D01*
X47916666Y-31292171D02*
X47892857Y-31196933D01*
X47892857Y-31196933D02*
X47892857Y-31077885D01*
X47892857Y-31077885D02*
X47916666Y-30982647D01*
X47916666Y-30982647D02*
X47940476Y-30935028D01*
X47940476Y-30935028D02*
X47964285Y-30911219D01*
X47964285Y-30911219D02*
X48011904Y-30887409D01*
X48392856Y-31054076D02*
X48392856Y-31387409D01*
X48392856Y-31101695D02*
X48416666Y-31077885D01*
X48416666Y-31077885D02*
X48464285Y-31054076D01*
X48464285Y-31054076D02*
X48535713Y-31054076D01*
X48535713Y-31054076D02*
X48583332Y-31077885D01*
X48583332Y-31077885D02*
X48607142Y-31125504D01*
X48607142Y-31125504D02*
X48607142Y-31387409D01*
X49011904Y-31125504D02*
X48845237Y-31125504D01*
X48845237Y-31387409D02*
X48845237Y-30887409D01*
X48845237Y-30887409D02*
X49083332Y-30887409D01*
D12*
X47958333Y-30089765D02*
X47946429Y-30101670D01*
X47946429Y-30101670D02*
X47910714Y-30113574D01*
X47910714Y-30113574D02*
X47886905Y-30113574D01*
X47886905Y-30113574D02*
X47851191Y-30101670D01*
X47851191Y-30101670D02*
X47827381Y-30077860D01*
X47827381Y-30077860D02*
X47815476Y-30054050D01*
X47815476Y-30054050D02*
X47803572Y-30006431D01*
X47803572Y-30006431D02*
X47803572Y-29970717D01*
X47803572Y-29970717D02*
X47815476Y-29923098D01*
X47815476Y-29923098D02*
X47827381Y-29899289D01*
X47827381Y-29899289D02*
X47851191Y-29875479D01*
X47851191Y-29875479D02*
X47886905Y-29863574D01*
X47886905Y-29863574D02*
X47910714Y-29863574D01*
X47910714Y-29863574D02*
X47946429Y-29875479D01*
X47946429Y-29875479D02*
X47958333Y-29887384D01*
X48196429Y-30113574D02*
X48053572Y-30113574D01*
X48125000Y-30113574D02*
X48125000Y-29863574D01*
X48125000Y-29863574D02*
X48101191Y-29899289D01*
X48101191Y-29899289D02*
X48077381Y-29923098D01*
X48077381Y-29923098D02*
X48053572Y-29935003D01*
D13*
X112226191Y-31387409D02*
X111940477Y-31387409D01*
X112083334Y-31387409D02*
X112083334Y-30887409D01*
X112083334Y-30887409D02*
X112035715Y-30958838D01*
X112035715Y-30958838D02*
X111988096Y-31006457D01*
X111988096Y-31006457D02*
X111940477Y-31030266D01*
X112535714Y-30887409D02*
X112583333Y-30887409D01*
X112583333Y-30887409D02*
X112630952Y-30911219D01*
X112630952Y-30911219D02*
X112654762Y-30935028D01*
X112654762Y-30935028D02*
X112678571Y-30982647D01*
X112678571Y-30982647D02*
X112702381Y-31077885D01*
X112702381Y-31077885D02*
X112702381Y-31196933D01*
X112702381Y-31196933D02*
X112678571Y-31292171D01*
X112678571Y-31292171D02*
X112654762Y-31339790D01*
X112654762Y-31339790D02*
X112630952Y-31363600D01*
X112630952Y-31363600D02*
X112583333Y-31387409D01*
X112583333Y-31387409D02*
X112535714Y-31387409D01*
X112535714Y-31387409D02*
X112488095Y-31363600D01*
X112488095Y-31363600D02*
X112464286Y-31339790D01*
X112464286Y-31339790D02*
X112440476Y-31292171D01*
X112440476Y-31292171D02*
X112416667Y-31196933D01*
X112416667Y-31196933D02*
X112416667Y-31077885D01*
X112416667Y-31077885D02*
X112440476Y-30982647D01*
X112440476Y-30982647D02*
X112464286Y-30935028D01*
X112464286Y-30935028D02*
X112488095Y-30911219D01*
X112488095Y-30911219D02*
X112535714Y-30887409D01*
X113011904Y-30887409D02*
X113059523Y-30887409D01*
X113059523Y-30887409D02*
X113107142Y-30911219D01*
X113107142Y-30911219D02*
X113130952Y-30935028D01*
X113130952Y-30935028D02*
X113154761Y-30982647D01*
X113154761Y-30982647D02*
X113178571Y-31077885D01*
X113178571Y-31077885D02*
X113178571Y-31196933D01*
X113178571Y-31196933D02*
X113154761Y-31292171D01*
X113154761Y-31292171D02*
X113130952Y-31339790D01*
X113130952Y-31339790D02*
X113107142Y-31363600D01*
X113107142Y-31363600D02*
X113059523Y-31387409D01*
X113059523Y-31387409D02*
X113011904Y-31387409D01*
X113011904Y-31387409D02*
X112964285Y-31363600D01*
X112964285Y-31363600D02*
X112940476Y-31339790D01*
X112940476Y-31339790D02*
X112916666Y-31292171D01*
X112916666Y-31292171D02*
X112892857Y-31196933D01*
X112892857Y-31196933D02*
X112892857Y-31077885D01*
X112892857Y-31077885D02*
X112916666Y-30982647D01*
X112916666Y-30982647D02*
X112940476Y-30935028D01*
X112940476Y-30935028D02*
X112964285Y-30911219D01*
X112964285Y-30911219D02*
X113011904Y-30887409D01*
X113392856Y-31054076D02*
X113392856Y-31387409D01*
X113392856Y-31101695D02*
X113416666Y-31077885D01*
X113416666Y-31077885D02*
X113464285Y-31054076D01*
X113464285Y-31054076D02*
X113535713Y-31054076D01*
X113535713Y-31054076D02*
X113583332Y-31077885D01*
X113583332Y-31077885D02*
X113607142Y-31125504D01*
X113607142Y-31125504D02*
X113607142Y-31387409D01*
X114011904Y-31125504D02*
X113845237Y-31125504D01*
X113845237Y-31387409D02*
X113845237Y-30887409D01*
X113845237Y-30887409D02*
X114083332Y-30887409D01*
D12*
X112958333Y-30089765D02*
X112946429Y-30101670D01*
X112946429Y-30101670D02*
X112910714Y-30113574D01*
X112910714Y-30113574D02*
X112886905Y-30113574D01*
X112886905Y-30113574D02*
X112851191Y-30101670D01*
X112851191Y-30101670D02*
X112827381Y-30077860D01*
X112827381Y-30077860D02*
X112815476Y-30054050D01*
X112815476Y-30054050D02*
X112803572Y-30006431D01*
X112803572Y-30006431D02*
X112803572Y-29970717D01*
X112803572Y-29970717D02*
X112815476Y-29923098D01*
X112815476Y-29923098D02*
X112827381Y-29899289D01*
X112827381Y-29899289D02*
X112851191Y-29875479D01*
X112851191Y-29875479D02*
X112886905Y-29863574D01*
X112886905Y-29863574D02*
X112910714Y-29863574D01*
X112910714Y-29863574D02*
X112946429Y-29875479D01*
X112946429Y-29875479D02*
X112958333Y-29887384D01*
X113172619Y-29946908D02*
X113172619Y-30113574D01*
X113113095Y-29851670D02*
X113053572Y-30030241D01*
X113053572Y-30030241D02*
X113208333Y-30030241D01*
D10*
X116738095Y-40354819D02*
X117404761Y-40354819D01*
X117404761Y-40354819D02*
X116976190Y-41354819D01*
X118214285Y-40688152D02*
X118214285Y-41354819D01*
X117976190Y-40307200D02*
X117738095Y-41021485D01*
X117738095Y-41021485D02*
X118357142Y-41021485D01*
X118738095Y-41354819D02*
X118738095Y-40354819D01*
X118738095Y-40831009D02*
X119309523Y-40831009D01*
X119309523Y-41354819D02*
X119309523Y-40354819D01*
X120357142Y-41259580D02*
X120309523Y-41307200D01*
X120309523Y-41307200D02*
X120166666Y-41354819D01*
X120166666Y-41354819D02*
X120071428Y-41354819D01*
X120071428Y-41354819D02*
X119928571Y-41307200D01*
X119928571Y-41307200D02*
X119833333Y-41211961D01*
X119833333Y-41211961D02*
X119785714Y-41116723D01*
X119785714Y-41116723D02*
X119738095Y-40926247D01*
X119738095Y-40926247D02*
X119738095Y-40783390D01*
X119738095Y-40783390D02*
X119785714Y-40592914D01*
X119785714Y-40592914D02*
X119833333Y-40497676D01*
X119833333Y-40497676D02*
X119928571Y-40402438D01*
X119928571Y-40402438D02*
X120071428Y-40354819D01*
X120071428Y-40354819D02*
X120166666Y-40354819D01*
X120166666Y-40354819D02*
X120309523Y-40402438D01*
X120309523Y-40402438D02*
X120357142Y-40450057D01*
X121309523Y-41354819D02*
X120738095Y-41354819D01*
X121023809Y-41354819D02*
X121023809Y-40354819D01*
X121023809Y-40354819D02*
X120928571Y-40497676D01*
X120928571Y-40497676D02*
X120833333Y-40592914D01*
X120833333Y-40592914D02*
X120738095Y-40640533D01*
X122166666Y-40354819D02*
X121976190Y-40354819D01*
X121976190Y-40354819D02*
X121880952Y-40402438D01*
X121880952Y-40402438D02*
X121833333Y-40450057D01*
X121833333Y-40450057D02*
X121738095Y-40592914D01*
X121738095Y-40592914D02*
X121690476Y-40783390D01*
X121690476Y-40783390D02*
X121690476Y-41164342D01*
X121690476Y-41164342D02*
X121738095Y-41259580D01*
X121738095Y-41259580D02*
X121785714Y-41307200D01*
X121785714Y-41307200D02*
X121880952Y-41354819D01*
X121880952Y-41354819D02*
X122071428Y-41354819D01*
X122071428Y-41354819D02*
X122166666Y-41307200D01*
X122166666Y-41307200D02*
X122214285Y-41259580D01*
X122214285Y-41259580D02*
X122261904Y-41164342D01*
X122261904Y-41164342D02*
X122261904Y-40926247D01*
X122261904Y-40926247D02*
X122214285Y-40831009D01*
X122214285Y-40831009D02*
X122166666Y-40783390D01*
X122166666Y-40783390D02*
X122071428Y-40735771D01*
X122071428Y-40735771D02*
X121880952Y-40735771D01*
X121880952Y-40735771D02*
X121785714Y-40783390D01*
X121785714Y-40783390D02*
X121738095Y-40831009D01*
X121738095Y-40831009D02*
X121690476Y-40926247D01*
X123166666Y-40354819D02*
X122690476Y-40354819D01*
X122690476Y-40354819D02*
X122642857Y-40831009D01*
X122642857Y-40831009D02*
X122690476Y-40783390D01*
X122690476Y-40783390D02*
X122785714Y-40735771D01*
X122785714Y-40735771D02*
X123023809Y-40735771D01*
X123023809Y-40735771D02*
X123119047Y-40783390D01*
X123119047Y-40783390D02*
X123166666Y-40831009D01*
X123166666Y-40831009D02*
X123214285Y-40926247D01*
X123214285Y-40926247D02*
X123214285Y-41164342D01*
X123214285Y-41164342D02*
X123166666Y-41259580D01*
X123166666Y-41259580D02*
X123119047Y-41307200D01*
X123119047Y-41307200D02*
X123023809Y-41354819D01*
X123023809Y-41354819D02*
X122785714Y-41354819D01*
X122785714Y-41354819D02*
X122690476Y-41307200D01*
X122690476Y-41307200D02*
X122642857Y-41259580D01*
X119454819Y-35761904D02*
X120264342Y-35761904D01*
X120264342Y-35761904D02*
X120359580Y-35714285D01*
X120359580Y-35714285D02*
X120407200Y-35666666D01*
X120407200Y-35666666D02*
X120454819Y-35571428D01*
X120454819Y-35571428D02*
X120454819Y-35380952D01*
X120454819Y-35380952D02*
X120407200Y-35285714D01*
X120407200Y-35285714D02*
X120359580Y-35238095D01*
X120359580Y-35238095D02*
X120264342Y-35190476D01*
X120264342Y-35190476D02*
X119454819Y-35190476D01*
X119788152Y-34285714D02*
X120454819Y-34285714D01*
X119407200Y-34523809D02*
X120121485Y-34761904D01*
X120121485Y-34761904D02*
X120121485Y-34142857D01*
D11*
X20690520Y-106009523D02*
X21223854Y-106009523D01*
X20385759Y-106199999D02*
X20957187Y-106390476D01*
X20957187Y-106390476D02*
X20957187Y-105895237D01*
X20423854Y-105666666D02*
X20423854Y-105133332D01*
X20423854Y-105133332D02*
X21223854Y-105476190D01*
X20423854Y-104676189D02*
X20423854Y-104599999D01*
X20423854Y-104599999D02*
X20461949Y-104523808D01*
X20461949Y-104523808D02*
X20500044Y-104485713D01*
X20500044Y-104485713D02*
X20576235Y-104447618D01*
X20576235Y-104447618D02*
X20728616Y-104409523D01*
X20728616Y-104409523D02*
X20919092Y-104409523D01*
X20919092Y-104409523D02*
X21071473Y-104447618D01*
X21071473Y-104447618D02*
X21147663Y-104485713D01*
X21147663Y-104485713D02*
X21185759Y-104523808D01*
X21185759Y-104523808D02*
X21223854Y-104599999D01*
X21223854Y-104599999D02*
X21223854Y-104676189D01*
X21223854Y-104676189D02*
X21185759Y-104752380D01*
X21185759Y-104752380D02*
X21147663Y-104790475D01*
X21147663Y-104790475D02*
X21071473Y-104828570D01*
X21071473Y-104828570D02*
X20919092Y-104866666D01*
X20919092Y-104866666D02*
X20728616Y-104866666D01*
X20728616Y-104866666D02*
X20576235Y-104828570D01*
X20576235Y-104828570D02*
X20500044Y-104790475D01*
X20500044Y-104790475D02*
X20461949Y-104752380D01*
X20461949Y-104752380D02*
X20423854Y-104676189D01*
X21223854Y-103609522D02*
X20842901Y-103876189D01*
X21223854Y-104066665D02*
X20423854Y-104066665D01*
X20423854Y-104066665D02*
X20423854Y-103761903D01*
X20423854Y-103761903D02*
X20461949Y-103685713D01*
X20461949Y-103685713D02*
X20500044Y-103647618D01*
X20500044Y-103647618D02*
X20576235Y-103609522D01*
X20576235Y-103609522D02*
X20690520Y-103609522D01*
X20690520Y-103609522D02*
X20766711Y-103647618D01*
X20766711Y-103647618D02*
X20804806Y-103685713D01*
X20804806Y-103685713D02*
X20842901Y-103761903D01*
X20842901Y-103761903D02*
X20842901Y-104066665D01*
D12*
X19808199Y-105167142D02*
X19684390Y-105253809D01*
X19808199Y-105315714D02*
X19548199Y-105315714D01*
X19548199Y-105315714D02*
X19548199Y-105216666D01*
X19548199Y-105216666D02*
X19560580Y-105191904D01*
X19560580Y-105191904D02*
X19572961Y-105179523D01*
X19572961Y-105179523D02*
X19597723Y-105167142D01*
X19597723Y-105167142D02*
X19634866Y-105167142D01*
X19634866Y-105167142D02*
X19659628Y-105179523D01*
X19659628Y-105179523D02*
X19672009Y-105191904D01*
X19672009Y-105191904D02*
X19684390Y-105216666D01*
X19684390Y-105216666D02*
X19684390Y-105315714D01*
X19808199Y-104919523D02*
X19808199Y-105068095D01*
X19808199Y-104993809D02*
X19548199Y-104993809D01*
X19548199Y-104993809D02*
X19585342Y-105018571D01*
X19585342Y-105018571D02*
X19610104Y-105043333D01*
X19610104Y-105043333D02*
X19622485Y-105068095D01*
X19634866Y-104696666D02*
X19808199Y-104696666D01*
X19535819Y-104758571D02*
X19721533Y-104820476D01*
X19721533Y-104820476D02*
X19721533Y-104659523D01*
D11*
X38470520Y-101009523D02*
X39003854Y-101009523D01*
X38165759Y-101199999D02*
X38737187Y-101390476D01*
X38737187Y-101390476D02*
X38737187Y-100895237D01*
X38203854Y-100666666D02*
X38203854Y-100133332D01*
X38203854Y-100133332D02*
X39003854Y-100476190D01*
X38203854Y-99676189D02*
X38203854Y-99599999D01*
X38203854Y-99599999D02*
X38241949Y-99523808D01*
X38241949Y-99523808D02*
X38280044Y-99485713D01*
X38280044Y-99485713D02*
X38356235Y-99447618D01*
X38356235Y-99447618D02*
X38508616Y-99409523D01*
X38508616Y-99409523D02*
X38699092Y-99409523D01*
X38699092Y-99409523D02*
X38851473Y-99447618D01*
X38851473Y-99447618D02*
X38927663Y-99485713D01*
X38927663Y-99485713D02*
X38965759Y-99523808D01*
X38965759Y-99523808D02*
X39003854Y-99599999D01*
X39003854Y-99599999D02*
X39003854Y-99676189D01*
X39003854Y-99676189D02*
X38965759Y-99752380D01*
X38965759Y-99752380D02*
X38927663Y-99790475D01*
X38927663Y-99790475D02*
X38851473Y-99828570D01*
X38851473Y-99828570D02*
X38699092Y-99866666D01*
X38699092Y-99866666D02*
X38508616Y-99866666D01*
X38508616Y-99866666D02*
X38356235Y-99828570D01*
X38356235Y-99828570D02*
X38280044Y-99790475D01*
X38280044Y-99790475D02*
X38241949Y-99752380D01*
X38241949Y-99752380D02*
X38203854Y-99676189D01*
X39003854Y-98609522D02*
X38622901Y-98876189D01*
X39003854Y-99066665D02*
X38203854Y-99066665D01*
X38203854Y-99066665D02*
X38203854Y-98761903D01*
X38203854Y-98761903D02*
X38241949Y-98685713D01*
X38241949Y-98685713D02*
X38280044Y-98647618D01*
X38280044Y-98647618D02*
X38356235Y-98609522D01*
X38356235Y-98609522D02*
X38470520Y-98609522D01*
X38470520Y-98609522D02*
X38546711Y-98647618D01*
X38546711Y-98647618D02*
X38584806Y-98685713D01*
X38584806Y-98685713D02*
X38622901Y-98761903D01*
X38622901Y-98761903D02*
X38622901Y-99066665D01*
D12*
X37588199Y-100167142D02*
X37464390Y-100253809D01*
X37588199Y-100315714D02*
X37328199Y-100315714D01*
X37328199Y-100315714D02*
X37328199Y-100216666D01*
X37328199Y-100216666D02*
X37340580Y-100191904D01*
X37340580Y-100191904D02*
X37352961Y-100179523D01*
X37352961Y-100179523D02*
X37377723Y-100167142D01*
X37377723Y-100167142D02*
X37414866Y-100167142D01*
X37414866Y-100167142D02*
X37439628Y-100179523D01*
X37439628Y-100179523D02*
X37452009Y-100191904D01*
X37452009Y-100191904D02*
X37464390Y-100216666D01*
X37464390Y-100216666D02*
X37464390Y-100315714D01*
X37352961Y-100068095D02*
X37340580Y-100055714D01*
X37340580Y-100055714D02*
X37328199Y-100030952D01*
X37328199Y-100030952D02*
X37328199Y-99969047D01*
X37328199Y-99969047D02*
X37340580Y-99944285D01*
X37340580Y-99944285D02*
X37352961Y-99931904D01*
X37352961Y-99931904D02*
X37377723Y-99919523D01*
X37377723Y-99919523D02*
X37402485Y-99919523D01*
X37402485Y-99919523D02*
X37439628Y-99931904D01*
X37439628Y-99931904D02*
X37588199Y-100080476D01*
X37588199Y-100080476D02*
X37588199Y-99919523D01*
X37588199Y-99671904D02*
X37588199Y-99820476D01*
X37588199Y-99746190D02*
X37328199Y-99746190D01*
X37328199Y-99746190D02*
X37365342Y-99770952D01*
X37365342Y-99770952D02*
X37390104Y-99795714D01*
X37390104Y-99795714D02*
X37402485Y-99820476D01*
D11*
X134990521Y-101009523D02*
X135523855Y-101009523D01*
X134685760Y-101199999D02*
X135257188Y-101390476D01*
X135257188Y-101390476D02*
X135257188Y-100895237D01*
X134723855Y-100666666D02*
X134723855Y-100133332D01*
X134723855Y-100133332D02*
X135523855Y-100476190D01*
X134723855Y-99676189D02*
X134723855Y-99599999D01*
X134723855Y-99599999D02*
X134761950Y-99523808D01*
X134761950Y-99523808D02*
X134800045Y-99485713D01*
X134800045Y-99485713D02*
X134876236Y-99447618D01*
X134876236Y-99447618D02*
X135028617Y-99409523D01*
X135028617Y-99409523D02*
X135219093Y-99409523D01*
X135219093Y-99409523D02*
X135371474Y-99447618D01*
X135371474Y-99447618D02*
X135447664Y-99485713D01*
X135447664Y-99485713D02*
X135485760Y-99523808D01*
X135485760Y-99523808D02*
X135523855Y-99599999D01*
X135523855Y-99599999D02*
X135523855Y-99676189D01*
X135523855Y-99676189D02*
X135485760Y-99752380D01*
X135485760Y-99752380D02*
X135447664Y-99790475D01*
X135447664Y-99790475D02*
X135371474Y-99828570D01*
X135371474Y-99828570D02*
X135219093Y-99866666D01*
X135219093Y-99866666D02*
X135028617Y-99866666D01*
X135028617Y-99866666D02*
X134876236Y-99828570D01*
X134876236Y-99828570D02*
X134800045Y-99790475D01*
X134800045Y-99790475D02*
X134761950Y-99752380D01*
X134761950Y-99752380D02*
X134723855Y-99676189D01*
X135523855Y-98609522D02*
X135142902Y-98876189D01*
X135523855Y-99066665D02*
X134723855Y-99066665D01*
X134723855Y-99066665D02*
X134723855Y-98761903D01*
X134723855Y-98761903D02*
X134761950Y-98685713D01*
X134761950Y-98685713D02*
X134800045Y-98647618D01*
X134800045Y-98647618D02*
X134876236Y-98609522D01*
X134876236Y-98609522D02*
X134990521Y-98609522D01*
X134990521Y-98609522D02*
X135066712Y-98647618D01*
X135066712Y-98647618D02*
X135104807Y-98685713D01*
X135104807Y-98685713D02*
X135142902Y-98761903D01*
X135142902Y-98761903D02*
X135142902Y-99066665D01*
D12*
X134108200Y-100167142D02*
X133984391Y-100253809D01*
X134108200Y-100315714D02*
X133848200Y-100315714D01*
X133848200Y-100315714D02*
X133848200Y-100216666D01*
X133848200Y-100216666D02*
X133860581Y-100191904D01*
X133860581Y-100191904D02*
X133872962Y-100179523D01*
X133872962Y-100179523D02*
X133897724Y-100167142D01*
X133897724Y-100167142D02*
X133934867Y-100167142D01*
X133934867Y-100167142D02*
X133959629Y-100179523D01*
X133959629Y-100179523D02*
X133972010Y-100191904D01*
X133972010Y-100191904D02*
X133984391Y-100216666D01*
X133984391Y-100216666D02*
X133984391Y-100315714D01*
X133848200Y-100080476D02*
X133848200Y-99919523D01*
X133848200Y-99919523D02*
X133947248Y-100006190D01*
X133947248Y-100006190D02*
X133947248Y-99969047D01*
X133947248Y-99969047D02*
X133959629Y-99944285D01*
X133959629Y-99944285D02*
X133972010Y-99931904D01*
X133972010Y-99931904D02*
X133996772Y-99919523D01*
X133996772Y-99919523D02*
X134058677Y-99919523D01*
X134058677Y-99919523D02*
X134083439Y-99931904D01*
X134083439Y-99931904D02*
X134095820Y-99944285D01*
X134095820Y-99944285D02*
X134108200Y-99969047D01*
X134108200Y-99969047D02*
X134108200Y-100043333D01*
X134108200Y-100043333D02*
X134095820Y-100068095D01*
X134095820Y-100068095D02*
X134083439Y-100080476D01*
X134108200Y-99671904D02*
X134108200Y-99820476D01*
X134108200Y-99746190D02*
X133848200Y-99746190D01*
X133848200Y-99746190D02*
X133885343Y-99770952D01*
X133885343Y-99770952D02*
X133910105Y-99795714D01*
X133910105Y-99795714D02*
X133922486Y-99820476D01*
D11*
X155310521Y-101009523D02*
X155843855Y-101009523D01*
X155005760Y-101199999D02*
X155577188Y-101390476D01*
X155577188Y-101390476D02*
X155577188Y-100895237D01*
X155043855Y-100666666D02*
X155043855Y-100133332D01*
X155043855Y-100133332D02*
X155843855Y-100476190D01*
X155043855Y-99676189D02*
X155043855Y-99599999D01*
X155043855Y-99599999D02*
X155081950Y-99523808D01*
X155081950Y-99523808D02*
X155120045Y-99485713D01*
X155120045Y-99485713D02*
X155196236Y-99447618D01*
X155196236Y-99447618D02*
X155348617Y-99409523D01*
X155348617Y-99409523D02*
X155539093Y-99409523D01*
X155539093Y-99409523D02*
X155691474Y-99447618D01*
X155691474Y-99447618D02*
X155767664Y-99485713D01*
X155767664Y-99485713D02*
X155805760Y-99523808D01*
X155805760Y-99523808D02*
X155843855Y-99599999D01*
X155843855Y-99599999D02*
X155843855Y-99676189D01*
X155843855Y-99676189D02*
X155805760Y-99752380D01*
X155805760Y-99752380D02*
X155767664Y-99790475D01*
X155767664Y-99790475D02*
X155691474Y-99828570D01*
X155691474Y-99828570D02*
X155539093Y-99866666D01*
X155539093Y-99866666D02*
X155348617Y-99866666D01*
X155348617Y-99866666D02*
X155196236Y-99828570D01*
X155196236Y-99828570D02*
X155120045Y-99790475D01*
X155120045Y-99790475D02*
X155081950Y-99752380D01*
X155081950Y-99752380D02*
X155043855Y-99676189D01*
X155843855Y-98609522D02*
X155462902Y-98876189D01*
X155843855Y-99066665D02*
X155043855Y-99066665D01*
X155043855Y-99066665D02*
X155043855Y-98761903D01*
X155043855Y-98761903D02*
X155081950Y-98685713D01*
X155081950Y-98685713D02*
X155120045Y-98647618D01*
X155120045Y-98647618D02*
X155196236Y-98609522D01*
X155196236Y-98609522D02*
X155310521Y-98609522D01*
X155310521Y-98609522D02*
X155386712Y-98647618D01*
X155386712Y-98647618D02*
X155424807Y-98685713D01*
X155424807Y-98685713D02*
X155462902Y-98761903D01*
X155462902Y-98761903D02*
X155462902Y-99066665D01*
D12*
X154428200Y-100167142D02*
X154304391Y-100253809D01*
X154428200Y-100315714D02*
X154168200Y-100315714D01*
X154168200Y-100315714D02*
X154168200Y-100216666D01*
X154168200Y-100216666D02*
X154180581Y-100191904D01*
X154180581Y-100191904D02*
X154192962Y-100179523D01*
X154192962Y-100179523D02*
X154217724Y-100167142D01*
X154217724Y-100167142D02*
X154254867Y-100167142D01*
X154254867Y-100167142D02*
X154279629Y-100179523D01*
X154279629Y-100179523D02*
X154292010Y-100191904D01*
X154292010Y-100191904D02*
X154304391Y-100216666D01*
X154304391Y-100216666D02*
X154304391Y-100315714D01*
X154254867Y-99944285D02*
X154428200Y-99944285D01*
X154155820Y-100006190D02*
X154341534Y-100068095D01*
X154341534Y-100068095D02*
X154341534Y-99907142D01*
X154168200Y-99758571D02*
X154168200Y-99733809D01*
X154168200Y-99733809D02*
X154180581Y-99709047D01*
X154180581Y-99709047D02*
X154192962Y-99696666D01*
X154192962Y-99696666D02*
X154217724Y-99684285D01*
X154217724Y-99684285D02*
X154267248Y-99671904D01*
X154267248Y-99671904D02*
X154329153Y-99671904D01*
X154329153Y-99671904D02*
X154378677Y-99684285D01*
X154378677Y-99684285D02*
X154403439Y-99696666D01*
X154403439Y-99696666D02*
X154415820Y-99709047D01*
X154415820Y-99709047D02*
X154428200Y-99733809D01*
X154428200Y-99733809D02*
X154428200Y-99758571D01*
X154428200Y-99758571D02*
X154415820Y-99783333D01*
X154415820Y-99783333D02*
X154403439Y-99795714D01*
X154403439Y-99795714D02*
X154378677Y-99808095D01*
X154378677Y-99808095D02*
X154329153Y-99820476D01*
X154329153Y-99820476D02*
X154267248Y-99820476D01*
X154267248Y-99820476D02*
X154217724Y-99808095D01*
X154217724Y-99808095D02*
X154192962Y-99795714D01*
X154192962Y-99795714D02*
X154180581Y-99783333D01*
X154180581Y-99783333D02*
X154168200Y-99758571D01*
D10*
X51738095Y-40354819D02*
X52404761Y-40354819D01*
X52404761Y-40354819D02*
X51976190Y-41354819D01*
X53214285Y-40688152D02*
X53214285Y-41354819D01*
X52976190Y-40307200D02*
X52738095Y-41021485D01*
X52738095Y-41021485D02*
X53357142Y-41021485D01*
X53738095Y-41354819D02*
X53738095Y-40354819D01*
X53738095Y-40831009D02*
X54309523Y-40831009D01*
X54309523Y-41354819D02*
X54309523Y-40354819D01*
X55357142Y-41259580D02*
X55309523Y-41307200D01*
X55309523Y-41307200D02*
X55166666Y-41354819D01*
X55166666Y-41354819D02*
X55071428Y-41354819D01*
X55071428Y-41354819D02*
X54928571Y-41307200D01*
X54928571Y-41307200D02*
X54833333Y-41211961D01*
X54833333Y-41211961D02*
X54785714Y-41116723D01*
X54785714Y-41116723D02*
X54738095Y-40926247D01*
X54738095Y-40926247D02*
X54738095Y-40783390D01*
X54738095Y-40783390D02*
X54785714Y-40592914D01*
X54785714Y-40592914D02*
X54833333Y-40497676D01*
X54833333Y-40497676D02*
X54928571Y-40402438D01*
X54928571Y-40402438D02*
X55071428Y-40354819D01*
X55071428Y-40354819D02*
X55166666Y-40354819D01*
X55166666Y-40354819D02*
X55309523Y-40402438D01*
X55309523Y-40402438D02*
X55357142Y-40450057D01*
X56309523Y-41354819D02*
X55738095Y-41354819D01*
X56023809Y-41354819D02*
X56023809Y-40354819D01*
X56023809Y-40354819D02*
X55928571Y-40497676D01*
X55928571Y-40497676D02*
X55833333Y-40592914D01*
X55833333Y-40592914D02*
X55738095Y-40640533D01*
X57166666Y-40354819D02*
X56976190Y-40354819D01*
X56976190Y-40354819D02*
X56880952Y-40402438D01*
X56880952Y-40402438D02*
X56833333Y-40450057D01*
X56833333Y-40450057D02*
X56738095Y-40592914D01*
X56738095Y-40592914D02*
X56690476Y-40783390D01*
X56690476Y-40783390D02*
X56690476Y-41164342D01*
X56690476Y-41164342D02*
X56738095Y-41259580D01*
X56738095Y-41259580D02*
X56785714Y-41307200D01*
X56785714Y-41307200D02*
X56880952Y-41354819D01*
X56880952Y-41354819D02*
X57071428Y-41354819D01*
X57071428Y-41354819D02*
X57166666Y-41307200D01*
X57166666Y-41307200D02*
X57214285Y-41259580D01*
X57214285Y-41259580D02*
X57261904Y-41164342D01*
X57261904Y-41164342D02*
X57261904Y-40926247D01*
X57261904Y-40926247D02*
X57214285Y-40831009D01*
X57214285Y-40831009D02*
X57166666Y-40783390D01*
X57166666Y-40783390D02*
X57071428Y-40735771D01*
X57071428Y-40735771D02*
X56880952Y-40735771D01*
X56880952Y-40735771D02*
X56785714Y-40783390D01*
X56785714Y-40783390D02*
X56738095Y-40831009D01*
X56738095Y-40831009D02*
X56690476Y-40926247D01*
X58166666Y-40354819D02*
X57690476Y-40354819D01*
X57690476Y-40354819D02*
X57642857Y-40831009D01*
X57642857Y-40831009D02*
X57690476Y-40783390D01*
X57690476Y-40783390D02*
X57785714Y-40735771D01*
X57785714Y-40735771D02*
X58023809Y-40735771D01*
X58023809Y-40735771D02*
X58119047Y-40783390D01*
X58119047Y-40783390D02*
X58166666Y-40831009D01*
X58166666Y-40831009D02*
X58214285Y-40926247D01*
X58214285Y-40926247D02*
X58214285Y-41164342D01*
X58214285Y-41164342D02*
X58166666Y-41259580D01*
X58166666Y-41259580D02*
X58119047Y-41307200D01*
X58119047Y-41307200D02*
X58023809Y-41354819D01*
X58023809Y-41354819D02*
X57785714Y-41354819D01*
X57785714Y-41354819D02*
X57690476Y-41307200D01*
X57690476Y-41307200D02*
X57642857Y-41259580D01*
X54454819Y-35761904D02*
X55264342Y-35761904D01*
X55264342Y-35761904D02*
X55359580Y-35714285D01*
X55359580Y-35714285D02*
X55407200Y-35666666D01*
X55407200Y-35666666D02*
X55454819Y-35571428D01*
X55454819Y-35571428D02*
X55454819Y-35380952D01*
X55454819Y-35380952D02*
X55407200Y-35285714D01*
X55407200Y-35285714D02*
X55359580Y-35238095D01*
X55359580Y-35238095D02*
X55264342Y-35190476D01*
X55264342Y-35190476D02*
X54454819Y-35190476D01*
X55454819Y-34190476D02*
X55454819Y-34761904D01*
X55454819Y-34476190D02*
X54454819Y-34476190D01*
X54454819Y-34476190D02*
X54597676Y-34571428D01*
X54597676Y-34571428D02*
X54692914Y-34666666D01*
X54692914Y-34666666D02*
X54740533Y-34761904D01*
D15*
%TO.C,J2*%
X85730000Y-7000000D02*
X87000000Y-5730000D01*
X85730000Y-107330000D02*
X85730000Y-7000000D01*
X87000000Y-5730000D02*
X90810000Y-5730000D01*
X90810000Y-5730000D02*
X90810000Y-107330000D01*
X90810000Y-107330000D02*
X85730000Y-107330000D01*
%TO.C,R34*%
X141340000Y-100525000D02*
X141880000Y-100525000D01*
X141880000Y-99475000D01*
X141340000Y-99475000D01*
X141340000Y-100525000D01*
%TO.C,R32*%
X136260000Y-105525000D02*
X136800000Y-105525000D01*
X136800000Y-104475000D01*
X136260000Y-104475000D01*
X136260000Y-105525000D01*
%TO.C,R27*%
X123560000Y-110525000D02*
X124100000Y-110525000D01*
X124100000Y-109475000D01*
X123560000Y-109475000D01*
X123560000Y-110525000D01*
%TO.C,R35*%
X143880000Y-105525000D02*
X144420000Y-105525000D01*
X144420000Y-104475000D01*
X143880000Y-104475000D01*
X143880000Y-105525000D01*
%TO.C,R36*%
X146420000Y-110525000D02*
X146960000Y-110525000D01*
X146960000Y-109475000D01*
X146420000Y-109475000D01*
X146420000Y-110525000D01*
%TO.C,R6*%
X29579999Y-110525000D02*
X30119999Y-110525000D01*
X30119999Y-109475000D01*
X29579999Y-109475000D01*
X29579999Y-110525000D01*
%TO.C,R22*%
X39739999Y-110525000D02*
X40279999Y-110525000D01*
X40279999Y-109475000D01*
X39739999Y-109475000D01*
X39739999Y-110525000D01*
%TO.C,R29*%
X128640000Y-105525000D02*
X129180000Y-105525000D01*
X129180000Y-104475000D01*
X128640000Y-104475000D01*
X128640000Y-105525000D01*
%TO.C,R28*%
X126099999Y-100525000D02*
X126639999Y-100525000D01*
X126639999Y-99475000D01*
X126099999Y-99475000D01*
X126099999Y-100525000D01*
%TO.C,R12*%
X44820000Y-110525000D02*
X45360000Y-110525000D01*
X45360000Y-109475000D01*
X44820000Y-109475000D01*
X44820000Y-110525000D01*
%TO.C,C5*%
X112500000Y-49750000D02*
X113500000Y-49750000D01*
X113500000Y-50250000D01*
X112500000Y-50250000D01*
X112500000Y-49750000D01*
%TO.C,R3*%
X21959999Y-110525000D02*
X22499999Y-110525000D01*
X22499999Y-109475000D01*
X21959999Y-109475000D01*
X21959999Y-110525000D01*
%TO.C,R10*%
X39739999Y-105525000D02*
X40279999Y-105525000D01*
X40279999Y-104475000D01*
X39739999Y-104475000D01*
X39739999Y-105525000D01*
%TO.C,R9*%
X37199999Y-110525000D02*
X37739999Y-110525000D01*
X37739999Y-109475000D01*
X37199999Y-109475000D01*
X37199999Y-110525000D01*
%TO.C,R1*%
X49730000Y-105525000D02*
X50270000Y-105525000D01*
X50270000Y-104475000D01*
X49730000Y-104475000D01*
X49730000Y-105525000D01*
%TO.C,R37*%
X148960000Y-100525000D02*
X149500000Y-100525000D01*
X149500000Y-99475000D01*
X148960000Y-99475000D01*
X148960000Y-100525000D01*
%TO.C,R18*%
X29579999Y-100525000D02*
X30119999Y-100525000D01*
X30119999Y-99475000D01*
X29579999Y-99475000D01*
X29579999Y-100525000D01*
%TO.C,R5*%
X27039999Y-100525000D02*
X27579999Y-100525000D01*
X27579999Y-99475000D01*
X27039999Y-99475000D01*
X27039999Y-100525000D01*
%TO.C,R19*%
X32119999Y-110525000D02*
X32659999Y-110525000D01*
X32659999Y-109475000D01*
X32119999Y-109475000D01*
X32119999Y-110525000D01*
%TO.C,R11*%
X42280000Y-100525000D02*
X42820000Y-100525000D01*
X42820000Y-99475000D01*
X42280000Y-99475000D01*
X42280000Y-100525000D01*
%TO.C,R17*%
X27039999Y-105525000D02*
X27579999Y-105525000D01*
X27579999Y-104475000D01*
X27039999Y-104475000D01*
X27039999Y-105525000D01*
%TO.C,U5*%
X121950000Y-59950000D02*
X118050000Y-59950000D01*
X118050000Y-51025000D01*
X119025000Y-50050000D01*
X121950000Y-50050000D01*
X121950000Y-59950000D01*
%TO.C,R26*%
X121019999Y-105525000D02*
X121559999Y-105525000D01*
X121559999Y-104475000D01*
X121019999Y-104475000D01*
X121019999Y-105525000D01*
%TO.C,R24*%
X44820000Y-100525000D02*
X45360000Y-100525000D01*
X45360000Y-99475000D01*
X44820000Y-99475000D01*
X44820000Y-100525000D01*
%TO.C,C2*%
X47500000Y-49750000D02*
X48500000Y-49750000D01*
X48500000Y-50250000D01*
X47500000Y-50250000D01*
X47500000Y-49750000D01*
%TO.C,R7*%
X32119999Y-105525000D02*
X32659999Y-105525000D01*
X32659999Y-104475000D01*
X32119999Y-104475000D01*
X32119999Y-105525000D01*
%TO.C,R30*%
X131179999Y-110525000D02*
X131719999Y-110525000D01*
X131719999Y-109475000D01*
X131179999Y-109475000D01*
X131179999Y-110525000D01*
%TO.C,R23*%
X42280000Y-105525000D02*
X42820000Y-105525000D01*
X42820000Y-104475000D01*
X42280000Y-104475000D01*
X42280000Y-105525000D01*
%TO.C,R25*%
X118480000Y-100525000D02*
X119020000Y-100525000D01*
X119020000Y-99475000D01*
X118480000Y-99475000D01*
X118480000Y-100525000D01*
%TO.C,R15*%
X21959999Y-100525000D02*
X22499999Y-100525000D01*
X22499999Y-99475000D01*
X21959999Y-99475000D01*
X21959999Y-100525000D01*
%TO.C,R38*%
X151499999Y-105525000D02*
X152039999Y-105525000D01*
X152039999Y-104475000D01*
X151499999Y-104475000D01*
X151499999Y-105525000D01*
%TO.C,C6*%
X14000000Y-109375000D02*
X16000000Y-109375000D01*
X16000000Y-110625000D01*
X14000000Y-110625000D01*
X14000000Y-109375000D01*
%TO.C,R33*%
X138800000Y-110525000D02*
X139340000Y-110525000D01*
X139340000Y-109475000D01*
X138800000Y-109475000D01*
X138800000Y-110525000D01*
%TO.C,R39*%
X154040000Y-110525000D02*
X154580000Y-110525000D01*
X154580000Y-109475000D01*
X154040000Y-109475000D01*
X154040000Y-110525000D01*
%TO.C,U2*%
X56950000Y-59950000D02*
X53050000Y-59950000D01*
X53050000Y-51025000D01*
X54025000Y-50050000D01*
X56950000Y-50050000D01*
X56950000Y-59950000D01*
%TO.C,U3*%
X56950000Y-79950000D02*
X53050000Y-79950000D01*
X53050000Y-71025000D01*
X54025000Y-70050000D01*
X56950000Y-70050000D01*
X56950000Y-79950000D01*
%TO.C,R20*%
X34659999Y-105525000D02*
X35199999Y-105525000D01*
X35199999Y-104475000D01*
X34659999Y-104475000D01*
X34659999Y-105525000D01*
%TO.C,R16*%
X24499999Y-110525000D02*
X25039999Y-110525000D01*
X25039999Y-109475000D01*
X24499999Y-109475000D01*
X24499999Y-110525000D01*
%TO.C,C3*%
X47500000Y-69750000D02*
X48500000Y-69750000D01*
X48500000Y-70250000D01*
X47500000Y-70250000D01*
X47500000Y-69750000D01*
%TO.C,R8*%
X34659999Y-100525000D02*
X35199999Y-100525000D01*
X35199999Y-99475000D01*
X34659999Y-99475000D01*
X34659999Y-100525000D01*
%TO.C,R4*%
X24499999Y-105525000D02*
X25039999Y-105525000D01*
X25039999Y-104475000D01*
X24499999Y-104475000D01*
X24499999Y-105525000D01*
%TO.C,R2*%
X19419999Y-100525000D02*
X19959999Y-100525000D01*
X19959999Y-99475000D01*
X19419999Y-99475000D01*
X19419999Y-100525000D01*
%TO.C,R13*%
X77730000Y-110525000D02*
X78270000Y-110525000D01*
X78270000Y-109475000D01*
X77730000Y-109475000D01*
X77730000Y-110525000D01*
%TO.C,C1*%
X47500000Y-29750000D02*
X48500000Y-29750000D01*
X48500000Y-30250000D01*
X47500000Y-30250000D01*
X47500000Y-29750000D01*
%TO.C,C4*%
X112500000Y-29750000D02*
X113500000Y-29750000D01*
X113500000Y-30250000D01*
X112500000Y-30250000D01*
X112500000Y-29750000D01*
%TO.C,U4*%
X121950000Y-39950000D02*
X118050000Y-39950000D01*
X118050000Y-31025000D01*
X119025000Y-30050000D01*
X121950000Y-30050000D01*
X121950000Y-39950000D01*
%TO.C,R14*%
X19419999Y-105525000D02*
X19959999Y-105525000D01*
X19959999Y-104475000D01*
X19419999Y-104475000D01*
X19419999Y-105525000D01*
%TO.C,R21*%
X37199999Y-100525000D02*
X37739999Y-100525000D01*
X37739999Y-99475000D01*
X37199999Y-99475000D01*
X37199999Y-100525000D01*
%TO.C,R31*%
X133720000Y-100525000D02*
X134260000Y-100525000D01*
X134260000Y-99475000D01*
X133720000Y-99475000D01*
X133720000Y-100525000D01*
%TO.C,R40*%
X154040000Y-100525000D02*
X154580000Y-100525000D01*
X154580000Y-99475000D01*
X154040000Y-99475000D01*
X154040000Y-100525000D01*
%TO.C,U1*%
X56950000Y-39950000D02*
X53050000Y-39950000D01*
X53050000Y-31025000D01*
X54025000Y-30050000D01*
X56950000Y-30050000D01*
X56950000Y-39950000D01*
%TD*%
M02*
