%TF.GenerationSoftware,KiCad,Pcbnew,9.0.8+dfsg-1*%
%TF.CreationDate,2026-04-29T22:30:23+02:00*%
%TF.ProjectId,cha_adapter_routed,6368615f-6164-4617-9074-65725f726f75,rev?*%
%TF.SameCoordinates,Original*%
%TF.FileFunction,Legend,Bot*%
%TF.FilePolarity,Positive*%
%FSLAX46Y46*%
G04 Gerber Fmt 4.6, Leading zero omitted, Abs format (unit mm)*
G04 Created by KiCad (PCBNEW 9.0.8+dfsg-1) date 2026-04-29 22:30:23*
%MOMM*%
%LPD*%
G01*
G04 APERTURE LIST*
%ADD10C,0.120000*%
G04 APERTURE END LIST*
D10*
X11573997Y-120238095D02*
X11526378Y-120142857D01*
X11526378Y-120142857D02*
X11526378Y-120000000D01*
X11526378Y-120000000D02*
X11573997Y-119857143D01*
X11573997Y-119857143D02*
X11669235Y-119761905D01*
X11669235Y-119761905D02*
X11764473Y-119714286D01*
X11764473Y-119714286D02*
X11954949Y-119666667D01*
X11954949Y-119666667D02*
X12097806Y-119666667D01*
X12097806Y-119666667D02*
X12288282Y-119714286D01*
X12288282Y-119714286D02*
X12383520Y-119761905D01*
X12383520Y-119761905D02*
X12478759Y-119857143D01*
X12478759Y-119857143D02*
X12526378Y-120000000D01*
X12526378Y-120000000D02*
X12526378Y-120095238D01*
X12526378Y-120095238D02*
X12478759Y-120238095D01*
X12478759Y-120238095D02*
X12431139Y-120285714D01*
X12431139Y-120285714D02*
X12097806Y-120285714D01*
X12097806Y-120285714D02*
X12097806Y-120095238D01*
X12526378Y-120714286D02*
X11526378Y-120714286D01*
X11526378Y-120714286D02*
X12526378Y-121285714D01*
X12526378Y-121285714D02*
X11526378Y-121285714D01*
X12526378Y-121761905D02*
X11526378Y-121761905D01*
X11526378Y-121761905D02*
X11526378Y-122000000D01*
X11526378Y-122000000D02*
X11573997Y-122142857D01*
X11573997Y-122142857D02*
X11669235Y-122238095D01*
X11669235Y-122238095D02*
X11764473Y-122285714D01*
X11764473Y-122285714D02*
X11954949Y-122333333D01*
X11954949Y-122333333D02*
X12097806Y-122333333D01*
X12097806Y-122333333D02*
X12288282Y-122285714D01*
X12288282Y-122285714D02*
X12383520Y-122238095D01*
X12383520Y-122238095D02*
X12478759Y-122142857D01*
X12478759Y-122142857D02*
X12526378Y-122000000D01*
X12526378Y-122000000D02*
X12526378Y-121761905D01*
X14113997Y-120238095D02*
X14066378Y-120142857D01*
X14066378Y-120142857D02*
X14066378Y-120000000D01*
X14066378Y-120000000D02*
X14113997Y-119857143D01*
X14113997Y-119857143D02*
X14209235Y-119761905D01*
X14209235Y-119761905D02*
X14304473Y-119714286D01*
X14304473Y-119714286D02*
X14494949Y-119666667D01*
X14494949Y-119666667D02*
X14637806Y-119666667D01*
X14637806Y-119666667D02*
X14828282Y-119714286D01*
X14828282Y-119714286D02*
X14923520Y-119761905D01*
X14923520Y-119761905D02*
X15018759Y-119857143D01*
X15018759Y-119857143D02*
X15066378Y-120000000D01*
X15066378Y-120000000D02*
X15066378Y-120095238D01*
X15066378Y-120095238D02*
X15018759Y-120238095D01*
X15018759Y-120238095D02*
X14971139Y-120285714D01*
X14971139Y-120285714D02*
X14637806Y-120285714D01*
X14637806Y-120285714D02*
X14637806Y-120095238D01*
X15066378Y-120714286D02*
X14066378Y-120714286D01*
X14066378Y-120714286D02*
X15066378Y-121285714D01*
X15066378Y-121285714D02*
X14066378Y-121285714D01*
X15066378Y-121761905D02*
X14066378Y-121761905D01*
X14066378Y-121761905D02*
X14066378Y-122000000D01*
X14066378Y-122000000D02*
X14113997Y-122142857D01*
X14113997Y-122142857D02*
X14209235Y-122238095D01*
X14209235Y-122238095D02*
X14304473Y-122285714D01*
X14304473Y-122285714D02*
X14494949Y-122333333D01*
X14494949Y-122333333D02*
X14637806Y-122333333D01*
X14637806Y-122333333D02*
X14828282Y-122285714D01*
X14828282Y-122285714D02*
X14923520Y-122238095D01*
X14923520Y-122238095D02*
X15018759Y-122142857D01*
X15018759Y-122142857D02*
X15066378Y-122000000D01*
X15066378Y-122000000D02*
X15066378Y-121761905D01*
X17606378Y-120261905D02*
X16606378Y-120261905D01*
X16606378Y-120261905D02*
X16606378Y-120642857D01*
X16606378Y-120642857D02*
X16653997Y-120738095D01*
X16653997Y-120738095D02*
X16701616Y-120785714D01*
X16701616Y-120785714D02*
X16796854Y-120833333D01*
X16796854Y-120833333D02*
X16939711Y-120833333D01*
X16939711Y-120833333D02*
X17034949Y-120785714D01*
X17034949Y-120785714D02*
X17082568Y-120738095D01*
X17082568Y-120738095D02*
X17130187Y-120642857D01*
X17130187Y-120642857D02*
X17130187Y-120261905D01*
X17606378Y-121785714D02*
X17606378Y-121214286D01*
X17606378Y-121500000D02*
X16606378Y-121500000D01*
X16606378Y-121500000D02*
X16749235Y-121404762D01*
X16749235Y-121404762D02*
X16844473Y-121309524D01*
X16844473Y-121309524D02*
X16892092Y-121214286D01*
X20146378Y-120261905D02*
X19146378Y-120261905D01*
X19146378Y-120261905D02*
X19146378Y-120642857D01*
X19146378Y-120642857D02*
X19193997Y-120738095D01*
X19193997Y-120738095D02*
X19241616Y-120785714D01*
X19241616Y-120785714D02*
X19336854Y-120833333D01*
X19336854Y-120833333D02*
X19479711Y-120833333D01*
X19479711Y-120833333D02*
X19574949Y-120785714D01*
X19574949Y-120785714D02*
X19622568Y-120738095D01*
X19622568Y-120738095D02*
X19670187Y-120642857D01*
X19670187Y-120642857D02*
X19670187Y-120261905D01*
X19146378Y-121166667D02*
X19146378Y-121785714D01*
X19146378Y-121785714D02*
X19527330Y-121452381D01*
X19527330Y-121452381D02*
X19527330Y-121595238D01*
X19527330Y-121595238D02*
X19574949Y-121690476D01*
X19574949Y-121690476D02*
X19622568Y-121738095D01*
X19622568Y-121738095D02*
X19717806Y-121785714D01*
X19717806Y-121785714D02*
X19955901Y-121785714D01*
X19955901Y-121785714D02*
X20051139Y-121738095D01*
X20051139Y-121738095D02*
X20098759Y-121690476D01*
X20098759Y-121690476D02*
X20146378Y-121595238D01*
X20146378Y-121595238D02*
X20146378Y-121309524D01*
X20146378Y-121309524D02*
X20098759Y-121214286D01*
X20098759Y-121214286D02*
X20051139Y-121166667D01*
X22686378Y-120261905D02*
X21686378Y-120261905D01*
X21686378Y-120261905D02*
X21686378Y-120642857D01*
X21686378Y-120642857D02*
X21733997Y-120738095D01*
X21733997Y-120738095D02*
X21781616Y-120785714D01*
X21781616Y-120785714D02*
X21876854Y-120833333D01*
X21876854Y-120833333D02*
X22019711Y-120833333D01*
X22019711Y-120833333D02*
X22114949Y-120785714D01*
X22114949Y-120785714D02*
X22162568Y-120738095D01*
X22162568Y-120738095D02*
X22210187Y-120642857D01*
X22210187Y-120642857D02*
X22210187Y-120261905D01*
X21686378Y-121738095D02*
X21686378Y-121261905D01*
X21686378Y-121261905D02*
X22162568Y-121214286D01*
X22162568Y-121214286D02*
X22114949Y-121261905D01*
X22114949Y-121261905D02*
X22067330Y-121357143D01*
X22067330Y-121357143D02*
X22067330Y-121595238D01*
X22067330Y-121595238D02*
X22114949Y-121690476D01*
X22114949Y-121690476D02*
X22162568Y-121738095D01*
X22162568Y-121738095D02*
X22257806Y-121785714D01*
X22257806Y-121785714D02*
X22495901Y-121785714D01*
X22495901Y-121785714D02*
X22591139Y-121738095D01*
X22591139Y-121738095D02*
X22638759Y-121690476D01*
X22638759Y-121690476D02*
X22686378Y-121595238D01*
X22686378Y-121595238D02*
X22686378Y-121357143D01*
X22686378Y-121357143D02*
X22638759Y-121261905D01*
X22638759Y-121261905D02*
X22591139Y-121214286D01*
X25226378Y-120261905D02*
X24226378Y-120261905D01*
X24226378Y-120261905D02*
X24226378Y-120642857D01*
X24226378Y-120642857D02*
X24273997Y-120738095D01*
X24273997Y-120738095D02*
X24321616Y-120785714D01*
X24321616Y-120785714D02*
X24416854Y-120833333D01*
X24416854Y-120833333D02*
X24559711Y-120833333D01*
X24559711Y-120833333D02*
X24654949Y-120785714D01*
X24654949Y-120785714D02*
X24702568Y-120738095D01*
X24702568Y-120738095D02*
X24750187Y-120642857D01*
X24750187Y-120642857D02*
X24750187Y-120261905D01*
X24226378Y-121166667D02*
X24226378Y-121833333D01*
X24226378Y-121833333D02*
X25226378Y-121404762D01*
X27766378Y-120261905D02*
X26766378Y-120261905D01*
X26766378Y-120261905D02*
X26766378Y-120642857D01*
X26766378Y-120642857D02*
X26813997Y-120738095D01*
X26813997Y-120738095D02*
X26861616Y-120785714D01*
X26861616Y-120785714D02*
X26956854Y-120833333D01*
X26956854Y-120833333D02*
X27099711Y-120833333D01*
X27099711Y-120833333D02*
X27194949Y-120785714D01*
X27194949Y-120785714D02*
X27242568Y-120738095D01*
X27242568Y-120738095D02*
X27290187Y-120642857D01*
X27290187Y-120642857D02*
X27290187Y-120261905D01*
X27766378Y-121309524D02*
X27766378Y-121500000D01*
X27766378Y-121500000D02*
X27718759Y-121595238D01*
X27718759Y-121595238D02*
X27671139Y-121642857D01*
X27671139Y-121642857D02*
X27528282Y-121738095D01*
X27528282Y-121738095D02*
X27337806Y-121785714D01*
X27337806Y-121785714D02*
X26956854Y-121785714D01*
X26956854Y-121785714D02*
X26861616Y-121738095D01*
X26861616Y-121738095D02*
X26813997Y-121690476D01*
X26813997Y-121690476D02*
X26766378Y-121595238D01*
X26766378Y-121595238D02*
X26766378Y-121404762D01*
X26766378Y-121404762D02*
X26813997Y-121309524D01*
X26813997Y-121309524D02*
X26861616Y-121261905D01*
X26861616Y-121261905D02*
X26956854Y-121214286D01*
X26956854Y-121214286D02*
X27194949Y-121214286D01*
X27194949Y-121214286D02*
X27290187Y-121261905D01*
X27290187Y-121261905D02*
X27337806Y-121309524D01*
X27337806Y-121309524D02*
X27385425Y-121404762D01*
X27385425Y-121404762D02*
X27385425Y-121595238D01*
X27385425Y-121595238D02*
X27337806Y-121690476D01*
X27337806Y-121690476D02*
X27290187Y-121738095D01*
X27290187Y-121738095D02*
X27194949Y-121785714D01*
X30306378Y-119785714D02*
X29306378Y-119785714D01*
X29306378Y-119785714D02*
X29306378Y-120166666D01*
X29306378Y-120166666D02*
X29353997Y-120261904D01*
X29353997Y-120261904D02*
X29401616Y-120309523D01*
X29401616Y-120309523D02*
X29496854Y-120357142D01*
X29496854Y-120357142D02*
X29639711Y-120357142D01*
X29639711Y-120357142D02*
X29734949Y-120309523D01*
X29734949Y-120309523D02*
X29782568Y-120261904D01*
X29782568Y-120261904D02*
X29830187Y-120166666D01*
X29830187Y-120166666D02*
X29830187Y-119785714D01*
X30306378Y-121309523D02*
X30306378Y-120738095D01*
X30306378Y-121023809D02*
X29306378Y-121023809D01*
X29306378Y-121023809D02*
X29449235Y-120928571D01*
X29449235Y-120928571D02*
X29544473Y-120833333D01*
X29544473Y-120833333D02*
X29592092Y-120738095D01*
X30306378Y-122261904D02*
X30306378Y-121690476D01*
X30306378Y-121976190D02*
X29306378Y-121976190D01*
X29306378Y-121976190D02*
X29449235Y-121880952D01*
X29449235Y-121880952D02*
X29544473Y-121785714D01*
X29544473Y-121785714D02*
X29592092Y-121690476D01*
X32846378Y-119785714D02*
X31846378Y-119785714D01*
X31846378Y-119785714D02*
X31846378Y-120166666D01*
X31846378Y-120166666D02*
X31893997Y-120261904D01*
X31893997Y-120261904D02*
X31941616Y-120309523D01*
X31941616Y-120309523D02*
X32036854Y-120357142D01*
X32036854Y-120357142D02*
X32179711Y-120357142D01*
X32179711Y-120357142D02*
X32274949Y-120309523D01*
X32274949Y-120309523D02*
X32322568Y-120261904D01*
X32322568Y-120261904D02*
X32370187Y-120166666D01*
X32370187Y-120166666D02*
X32370187Y-119785714D01*
X32846378Y-121309523D02*
X32846378Y-120738095D01*
X32846378Y-121023809D02*
X31846378Y-121023809D01*
X31846378Y-121023809D02*
X31989235Y-120928571D01*
X31989235Y-120928571D02*
X32084473Y-120833333D01*
X32084473Y-120833333D02*
X32132092Y-120738095D01*
X31846378Y-121642857D02*
X31846378Y-122261904D01*
X31846378Y-122261904D02*
X32227330Y-121928571D01*
X32227330Y-121928571D02*
X32227330Y-122071428D01*
X32227330Y-122071428D02*
X32274949Y-122166666D01*
X32274949Y-122166666D02*
X32322568Y-122214285D01*
X32322568Y-122214285D02*
X32417806Y-122261904D01*
X32417806Y-122261904D02*
X32655901Y-122261904D01*
X32655901Y-122261904D02*
X32751139Y-122214285D01*
X32751139Y-122214285D02*
X32798759Y-122166666D01*
X32798759Y-122166666D02*
X32846378Y-122071428D01*
X32846378Y-122071428D02*
X32846378Y-121785714D01*
X32846378Y-121785714D02*
X32798759Y-121690476D01*
X32798759Y-121690476D02*
X32751139Y-121642857D01*
X35386378Y-119785714D02*
X34386378Y-119785714D01*
X34386378Y-119785714D02*
X34386378Y-120166666D01*
X34386378Y-120166666D02*
X34433997Y-120261904D01*
X34433997Y-120261904D02*
X34481616Y-120309523D01*
X34481616Y-120309523D02*
X34576854Y-120357142D01*
X34576854Y-120357142D02*
X34719711Y-120357142D01*
X34719711Y-120357142D02*
X34814949Y-120309523D01*
X34814949Y-120309523D02*
X34862568Y-120261904D01*
X34862568Y-120261904D02*
X34910187Y-120166666D01*
X34910187Y-120166666D02*
X34910187Y-119785714D01*
X35386378Y-121309523D02*
X35386378Y-120738095D01*
X35386378Y-121023809D02*
X34386378Y-121023809D01*
X34386378Y-121023809D02*
X34529235Y-120928571D01*
X34529235Y-120928571D02*
X34624473Y-120833333D01*
X34624473Y-120833333D02*
X34672092Y-120738095D01*
X34386378Y-122214285D02*
X34386378Y-121738095D01*
X34386378Y-121738095D02*
X34862568Y-121690476D01*
X34862568Y-121690476D02*
X34814949Y-121738095D01*
X34814949Y-121738095D02*
X34767330Y-121833333D01*
X34767330Y-121833333D02*
X34767330Y-122071428D01*
X34767330Y-122071428D02*
X34814949Y-122166666D01*
X34814949Y-122166666D02*
X34862568Y-122214285D01*
X34862568Y-122214285D02*
X34957806Y-122261904D01*
X34957806Y-122261904D02*
X35195901Y-122261904D01*
X35195901Y-122261904D02*
X35291139Y-122214285D01*
X35291139Y-122214285D02*
X35338759Y-122166666D01*
X35338759Y-122166666D02*
X35386378Y-122071428D01*
X35386378Y-122071428D02*
X35386378Y-121833333D01*
X35386378Y-121833333D02*
X35338759Y-121738095D01*
X35338759Y-121738095D02*
X35291139Y-121690476D01*
X37926378Y-119785714D02*
X36926378Y-119785714D01*
X36926378Y-119785714D02*
X36926378Y-120166666D01*
X36926378Y-120166666D02*
X36973997Y-120261904D01*
X36973997Y-120261904D02*
X37021616Y-120309523D01*
X37021616Y-120309523D02*
X37116854Y-120357142D01*
X37116854Y-120357142D02*
X37259711Y-120357142D01*
X37259711Y-120357142D02*
X37354949Y-120309523D01*
X37354949Y-120309523D02*
X37402568Y-120261904D01*
X37402568Y-120261904D02*
X37450187Y-120166666D01*
X37450187Y-120166666D02*
X37450187Y-119785714D01*
X37926378Y-121309523D02*
X37926378Y-120738095D01*
X37926378Y-121023809D02*
X36926378Y-121023809D01*
X36926378Y-121023809D02*
X37069235Y-120928571D01*
X37069235Y-120928571D02*
X37164473Y-120833333D01*
X37164473Y-120833333D02*
X37212092Y-120738095D01*
X36926378Y-121642857D02*
X36926378Y-122309523D01*
X36926378Y-122309523D02*
X37926378Y-121880952D01*
X40466378Y-119785714D02*
X39466378Y-119785714D01*
X39466378Y-119785714D02*
X39466378Y-120166666D01*
X39466378Y-120166666D02*
X39513997Y-120261904D01*
X39513997Y-120261904D02*
X39561616Y-120309523D01*
X39561616Y-120309523D02*
X39656854Y-120357142D01*
X39656854Y-120357142D02*
X39799711Y-120357142D01*
X39799711Y-120357142D02*
X39894949Y-120309523D01*
X39894949Y-120309523D02*
X39942568Y-120261904D01*
X39942568Y-120261904D02*
X39990187Y-120166666D01*
X39990187Y-120166666D02*
X39990187Y-119785714D01*
X40466378Y-121309523D02*
X40466378Y-120738095D01*
X40466378Y-121023809D02*
X39466378Y-121023809D01*
X39466378Y-121023809D02*
X39609235Y-120928571D01*
X39609235Y-120928571D02*
X39704473Y-120833333D01*
X39704473Y-120833333D02*
X39752092Y-120738095D01*
X40466378Y-121785714D02*
X40466378Y-121976190D01*
X40466378Y-121976190D02*
X40418759Y-122071428D01*
X40418759Y-122071428D02*
X40371139Y-122119047D01*
X40371139Y-122119047D02*
X40228282Y-122214285D01*
X40228282Y-122214285D02*
X40037806Y-122261904D01*
X40037806Y-122261904D02*
X39656854Y-122261904D01*
X39656854Y-122261904D02*
X39561616Y-122214285D01*
X39561616Y-122214285D02*
X39513997Y-122166666D01*
X39513997Y-122166666D02*
X39466378Y-122071428D01*
X39466378Y-122071428D02*
X39466378Y-121880952D01*
X39466378Y-121880952D02*
X39513997Y-121785714D01*
X39513997Y-121785714D02*
X39561616Y-121738095D01*
X39561616Y-121738095D02*
X39656854Y-121690476D01*
X39656854Y-121690476D02*
X39894949Y-121690476D01*
X39894949Y-121690476D02*
X39990187Y-121738095D01*
X39990187Y-121738095D02*
X40037806Y-121785714D01*
X40037806Y-121785714D02*
X40085425Y-121880952D01*
X40085425Y-121880952D02*
X40085425Y-122071428D01*
X40085425Y-122071428D02*
X40037806Y-122166666D01*
X40037806Y-122166666D02*
X39990187Y-122214285D01*
X39990187Y-122214285D02*
X39894949Y-122261904D01*
X43006379Y-119785714D02*
X42006379Y-119785714D01*
X42006379Y-119785714D02*
X42006379Y-120166666D01*
X42006379Y-120166666D02*
X42053998Y-120261904D01*
X42053998Y-120261904D02*
X42101617Y-120309523D01*
X42101617Y-120309523D02*
X42196855Y-120357142D01*
X42196855Y-120357142D02*
X42339712Y-120357142D01*
X42339712Y-120357142D02*
X42434950Y-120309523D01*
X42434950Y-120309523D02*
X42482569Y-120261904D01*
X42482569Y-120261904D02*
X42530188Y-120166666D01*
X42530188Y-120166666D02*
X42530188Y-119785714D01*
X42101617Y-120738095D02*
X42053998Y-120785714D01*
X42053998Y-120785714D02*
X42006379Y-120880952D01*
X42006379Y-120880952D02*
X42006379Y-121119047D01*
X42006379Y-121119047D02*
X42053998Y-121214285D01*
X42053998Y-121214285D02*
X42101617Y-121261904D01*
X42101617Y-121261904D02*
X42196855Y-121309523D01*
X42196855Y-121309523D02*
X42292093Y-121309523D01*
X42292093Y-121309523D02*
X42434950Y-121261904D01*
X42434950Y-121261904D02*
X43006379Y-120690476D01*
X43006379Y-120690476D02*
X43006379Y-121309523D01*
X43006379Y-122261904D02*
X43006379Y-121690476D01*
X43006379Y-121976190D02*
X42006379Y-121976190D01*
X42006379Y-121976190D02*
X42149236Y-121880952D01*
X42149236Y-121880952D02*
X42244474Y-121785714D01*
X42244474Y-121785714D02*
X42292093Y-121690476D01*
X45546379Y-119785714D02*
X44546379Y-119785714D01*
X44546379Y-119785714D02*
X44546379Y-120166666D01*
X44546379Y-120166666D02*
X44593998Y-120261904D01*
X44593998Y-120261904D02*
X44641617Y-120309523D01*
X44641617Y-120309523D02*
X44736855Y-120357142D01*
X44736855Y-120357142D02*
X44879712Y-120357142D01*
X44879712Y-120357142D02*
X44974950Y-120309523D01*
X44974950Y-120309523D02*
X45022569Y-120261904D01*
X45022569Y-120261904D02*
X45070188Y-120166666D01*
X45070188Y-120166666D02*
X45070188Y-119785714D01*
X44641617Y-120738095D02*
X44593998Y-120785714D01*
X44593998Y-120785714D02*
X44546379Y-120880952D01*
X44546379Y-120880952D02*
X44546379Y-121119047D01*
X44546379Y-121119047D02*
X44593998Y-121214285D01*
X44593998Y-121214285D02*
X44641617Y-121261904D01*
X44641617Y-121261904D02*
X44736855Y-121309523D01*
X44736855Y-121309523D02*
X44832093Y-121309523D01*
X44832093Y-121309523D02*
X44974950Y-121261904D01*
X44974950Y-121261904D02*
X45546379Y-120690476D01*
X45546379Y-120690476D02*
X45546379Y-121309523D01*
X44546379Y-121642857D02*
X44546379Y-122261904D01*
X44546379Y-122261904D02*
X44927331Y-121928571D01*
X44927331Y-121928571D02*
X44927331Y-122071428D01*
X44927331Y-122071428D02*
X44974950Y-122166666D01*
X44974950Y-122166666D02*
X45022569Y-122214285D01*
X45022569Y-122214285D02*
X45117807Y-122261904D01*
X45117807Y-122261904D02*
X45355902Y-122261904D01*
X45355902Y-122261904D02*
X45451140Y-122214285D01*
X45451140Y-122214285D02*
X45498760Y-122166666D01*
X45498760Y-122166666D02*
X45546379Y-122071428D01*
X45546379Y-122071428D02*
X45546379Y-121785714D01*
X45546379Y-121785714D02*
X45498760Y-121690476D01*
X45498760Y-121690476D02*
X45451140Y-121642857D01*
X47181616Y-119666667D02*
X47133997Y-119714286D01*
X47133997Y-119714286D02*
X47086378Y-119809524D01*
X47086378Y-119809524D02*
X47086378Y-120047619D01*
X47086378Y-120047619D02*
X47133997Y-120142857D01*
X47133997Y-120142857D02*
X47181616Y-120190476D01*
X47181616Y-120190476D02*
X47276854Y-120238095D01*
X47276854Y-120238095D02*
X47372092Y-120238095D01*
X47372092Y-120238095D02*
X47514949Y-120190476D01*
X47514949Y-120190476D02*
X48086378Y-119619048D01*
X48086378Y-119619048D02*
X48086378Y-120238095D01*
X47419711Y-121095238D02*
X48086378Y-121095238D01*
X47038759Y-120857143D02*
X47753044Y-120619048D01*
X47753044Y-120619048D02*
X47753044Y-121238095D01*
X48086378Y-121619048D02*
X47086378Y-121619048D01*
X47086378Y-121619048D02*
X47800663Y-121952381D01*
X47800663Y-121952381D02*
X47086378Y-122285714D01*
X47086378Y-122285714D02*
X48086378Y-122285714D01*
X50626378Y-120238095D02*
X50626378Y-119666667D01*
X50626378Y-119952381D02*
X49626378Y-119952381D01*
X49626378Y-119952381D02*
X49769235Y-119857143D01*
X49769235Y-119857143D02*
X49864473Y-119761905D01*
X49864473Y-119761905D02*
X49912092Y-119666667D01*
X49721616Y-120619048D02*
X49673997Y-120666667D01*
X49673997Y-120666667D02*
X49626378Y-120761905D01*
X49626378Y-120761905D02*
X49626378Y-121000000D01*
X49626378Y-121000000D02*
X49673997Y-121095238D01*
X49673997Y-121095238D02*
X49721616Y-121142857D01*
X49721616Y-121142857D02*
X49816854Y-121190476D01*
X49816854Y-121190476D02*
X49912092Y-121190476D01*
X49912092Y-121190476D02*
X50054949Y-121142857D01*
X50054949Y-121142857D02*
X50626378Y-120571429D01*
X50626378Y-120571429D02*
X50626378Y-121190476D01*
X50626378Y-121619048D02*
X49626378Y-121619048D01*
X49626378Y-121619048D02*
X50340663Y-121952381D01*
X50340663Y-121952381D02*
X49626378Y-122285714D01*
X49626378Y-122285714D02*
X50626378Y-122285714D01*
X52594949Y-120333333D02*
X52547330Y-120238095D01*
X52547330Y-120238095D02*
X52499711Y-120190476D01*
X52499711Y-120190476D02*
X52404473Y-120142857D01*
X52404473Y-120142857D02*
X52356854Y-120142857D01*
X52356854Y-120142857D02*
X52261616Y-120190476D01*
X52261616Y-120190476D02*
X52213997Y-120238095D01*
X52213997Y-120238095D02*
X52166378Y-120333333D01*
X52166378Y-120333333D02*
X52166378Y-120523809D01*
X52166378Y-120523809D02*
X52213997Y-120619047D01*
X52213997Y-120619047D02*
X52261616Y-120666666D01*
X52261616Y-120666666D02*
X52356854Y-120714285D01*
X52356854Y-120714285D02*
X52404473Y-120714285D01*
X52404473Y-120714285D02*
X52499711Y-120666666D01*
X52499711Y-120666666D02*
X52547330Y-120619047D01*
X52547330Y-120619047D02*
X52594949Y-120523809D01*
X52594949Y-120523809D02*
X52594949Y-120333333D01*
X52594949Y-120333333D02*
X52642568Y-120238095D01*
X52642568Y-120238095D02*
X52690187Y-120190476D01*
X52690187Y-120190476D02*
X52785425Y-120142857D01*
X52785425Y-120142857D02*
X52975901Y-120142857D01*
X52975901Y-120142857D02*
X53071139Y-120190476D01*
X53071139Y-120190476D02*
X53118759Y-120238095D01*
X53118759Y-120238095D02*
X53166378Y-120333333D01*
X53166378Y-120333333D02*
X53166378Y-120523809D01*
X53166378Y-120523809D02*
X53118759Y-120619047D01*
X53118759Y-120619047D02*
X53071139Y-120666666D01*
X53071139Y-120666666D02*
X52975901Y-120714285D01*
X52975901Y-120714285D02*
X52785425Y-120714285D01*
X52785425Y-120714285D02*
X52690187Y-120666666D01*
X52690187Y-120666666D02*
X52642568Y-120619047D01*
X52642568Y-120619047D02*
X52594949Y-120523809D01*
X53166378Y-121142857D02*
X52166378Y-121142857D01*
X52166378Y-121142857D02*
X52880663Y-121476190D01*
X52880663Y-121476190D02*
X52166378Y-121809523D01*
X52166378Y-121809523D02*
X53166378Y-121809523D01*
X55706378Y-119547618D02*
X55230187Y-119214285D01*
X55706378Y-118976190D02*
X54706378Y-118976190D01*
X54706378Y-118976190D02*
X54706378Y-119357142D01*
X54706378Y-119357142D02*
X54753997Y-119452380D01*
X54753997Y-119452380D02*
X54801616Y-119499999D01*
X54801616Y-119499999D02*
X54896854Y-119547618D01*
X54896854Y-119547618D02*
X55039711Y-119547618D01*
X55039711Y-119547618D02*
X55134949Y-119499999D01*
X55134949Y-119499999D02*
X55182568Y-119452380D01*
X55182568Y-119452380D02*
X55230187Y-119357142D01*
X55230187Y-119357142D02*
X55230187Y-118976190D01*
X55182568Y-119976190D02*
X55182568Y-120309523D01*
X55706378Y-120452380D02*
X55706378Y-119976190D01*
X55706378Y-119976190D02*
X54706378Y-119976190D01*
X54706378Y-119976190D02*
X54706378Y-120452380D01*
X55658759Y-120833333D02*
X55706378Y-120976190D01*
X55706378Y-120976190D02*
X55706378Y-121214285D01*
X55706378Y-121214285D02*
X55658759Y-121309523D01*
X55658759Y-121309523D02*
X55611139Y-121357142D01*
X55611139Y-121357142D02*
X55515901Y-121404761D01*
X55515901Y-121404761D02*
X55420663Y-121404761D01*
X55420663Y-121404761D02*
X55325425Y-121357142D01*
X55325425Y-121357142D02*
X55277806Y-121309523D01*
X55277806Y-121309523D02*
X55230187Y-121214285D01*
X55230187Y-121214285D02*
X55182568Y-121023809D01*
X55182568Y-121023809D02*
X55134949Y-120928571D01*
X55134949Y-120928571D02*
X55087330Y-120880952D01*
X55087330Y-120880952D02*
X54992092Y-120833333D01*
X54992092Y-120833333D02*
X54896854Y-120833333D01*
X54896854Y-120833333D02*
X54801616Y-120880952D01*
X54801616Y-120880952D02*
X54753997Y-120928571D01*
X54753997Y-120928571D02*
X54706378Y-121023809D01*
X54706378Y-121023809D02*
X54706378Y-121261904D01*
X54706378Y-121261904D02*
X54753997Y-121404761D01*
X55182568Y-121833333D02*
X55182568Y-122166666D01*
X55706378Y-122309523D02*
X55706378Y-121833333D01*
X55706378Y-121833333D02*
X54706378Y-121833333D01*
X54706378Y-121833333D02*
X54706378Y-122309523D01*
X54706378Y-122595238D02*
X54706378Y-123166666D01*
X55706378Y-122880952D02*
X54706378Y-122880952D01*
X58151139Y-120333333D02*
X58198759Y-120285714D01*
X58198759Y-120285714D02*
X58246378Y-120142857D01*
X58246378Y-120142857D02*
X58246378Y-120047619D01*
X58246378Y-120047619D02*
X58198759Y-119904762D01*
X58198759Y-119904762D02*
X58103520Y-119809524D01*
X58103520Y-119809524D02*
X58008282Y-119761905D01*
X58008282Y-119761905D02*
X57817806Y-119714286D01*
X57817806Y-119714286D02*
X57674949Y-119714286D01*
X57674949Y-119714286D02*
X57484473Y-119761905D01*
X57484473Y-119761905D02*
X57389235Y-119809524D01*
X57389235Y-119809524D02*
X57293997Y-119904762D01*
X57293997Y-119904762D02*
X57246378Y-120047619D01*
X57246378Y-120047619D02*
X57246378Y-120142857D01*
X57246378Y-120142857D02*
X57293997Y-120285714D01*
X57293997Y-120285714D02*
X57341616Y-120333333D01*
X58246378Y-121333333D02*
X57770187Y-121000000D01*
X58246378Y-120761905D02*
X57246378Y-120761905D01*
X57246378Y-120761905D02*
X57246378Y-121142857D01*
X57246378Y-121142857D02*
X57293997Y-121238095D01*
X57293997Y-121238095D02*
X57341616Y-121285714D01*
X57341616Y-121285714D02*
X57436854Y-121333333D01*
X57436854Y-121333333D02*
X57579711Y-121333333D01*
X57579711Y-121333333D02*
X57674949Y-121285714D01*
X57674949Y-121285714D02*
X57722568Y-121238095D01*
X57722568Y-121238095D02*
X57770187Y-121142857D01*
X57770187Y-121142857D02*
X57770187Y-120761905D01*
X58246378Y-122285714D02*
X58246378Y-121714286D01*
X58246378Y-122000000D02*
X57246378Y-122000000D01*
X57246378Y-122000000D02*
X57389235Y-121904762D01*
X57389235Y-121904762D02*
X57484473Y-121809524D01*
X57484473Y-121809524D02*
X57532092Y-121714286D01*
X60691139Y-120333333D02*
X60738759Y-120285714D01*
X60738759Y-120285714D02*
X60786378Y-120142857D01*
X60786378Y-120142857D02*
X60786378Y-120047619D01*
X60786378Y-120047619D02*
X60738759Y-119904762D01*
X60738759Y-119904762D02*
X60643520Y-119809524D01*
X60643520Y-119809524D02*
X60548282Y-119761905D01*
X60548282Y-119761905D02*
X60357806Y-119714286D01*
X60357806Y-119714286D02*
X60214949Y-119714286D01*
X60214949Y-119714286D02*
X60024473Y-119761905D01*
X60024473Y-119761905D02*
X59929235Y-119809524D01*
X59929235Y-119809524D02*
X59833997Y-119904762D01*
X59833997Y-119904762D02*
X59786378Y-120047619D01*
X59786378Y-120047619D02*
X59786378Y-120142857D01*
X59786378Y-120142857D02*
X59833997Y-120285714D01*
X59833997Y-120285714D02*
X59881616Y-120333333D01*
X60786378Y-121333333D02*
X60310187Y-121000000D01*
X60786378Y-120761905D02*
X59786378Y-120761905D01*
X59786378Y-120761905D02*
X59786378Y-121142857D01*
X59786378Y-121142857D02*
X59833997Y-121238095D01*
X59833997Y-121238095D02*
X59881616Y-121285714D01*
X59881616Y-121285714D02*
X59976854Y-121333333D01*
X59976854Y-121333333D02*
X60119711Y-121333333D01*
X60119711Y-121333333D02*
X60214949Y-121285714D01*
X60214949Y-121285714D02*
X60262568Y-121238095D01*
X60262568Y-121238095D02*
X60310187Y-121142857D01*
X60310187Y-121142857D02*
X60310187Y-120761905D01*
X59786378Y-121666667D02*
X59786378Y-122285714D01*
X59786378Y-122285714D02*
X60167330Y-121952381D01*
X60167330Y-121952381D02*
X60167330Y-122095238D01*
X60167330Y-122095238D02*
X60214949Y-122190476D01*
X60214949Y-122190476D02*
X60262568Y-122238095D01*
X60262568Y-122238095D02*
X60357806Y-122285714D01*
X60357806Y-122285714D02*
X60595901Y-122285714D01*
X60595901Y-122285714D02*
X60691139Y-122238095D01*
X60691139Y-122238095D02*
X60738759Y-122190476D01*
X60738759Y-122190476D02*
X60786378Y-122095238D01*
X60786378Y-122095238D02*
X60786378Y-121809524D01*
X60786378Y-121809524D02*
X60738759Y-121714286D01*
X60738759Y-121714286D02*
X60691139Y-121666667D01*
X63231139Y-120333333D02*
X63278759Y-120285714D01*
X63278759Y-120285714D02*
X63326378Y-120142857D01*
X63326378Y-120142857D02*
X63326378Y-120047619D01*
X63326378Y-120047619D02*
X63278759Y-119904762D01*
X63278759Y-119904762D02*
X63183520Y-119809524D01*
X63183520Y-119809524D02*
X63088282Y-119761905D01*
X63088282Y-119761905D02*
X62897806Y-119714286D01*
X62897806Y-119714286D02*
X62754949Y-119714286D01*
X62754949Y-119714286D02*
X62564473Y-119761905D01*
X62564473Y-119761905D02*
X62469235Y-119809524D01*
X62469235Y-119809524D02*
X62373997Y-119904762D01*
X62373997Y-119904762D02*
X62326378Y-120047619D01*
X62326378Y-120047619D02*
X62326378Y-120142857D01*
X62326378Y-120142857D02*
X62373997Y-120285714D01*
X62373997Y-120285714D02*
X62421616Y-120333333D01*
X63326378Y-121333333D02*
X62850187Y-121000000D01*
X63326378Y-120761905D02*
X62326378Y-120761905D01*
X62326378Y-120761905D02*
X62326378Y-121142857D01*
X62326378Y-121142857D02*
X62373997Y-121238095D01*
X62373997Y-121238095D02*
X62421616Y-121285714D01*
X62421616Y-121285714D02*
X62516854Y-121333333D01*
X62516854Y-121333333D02*
X62659711Y-121333333D01*
X62659711Y-121333333D02*
X62754949Y-121285714D01*
X62754949Y-121285714D02*
X62802568Y-121238095D01*
X62802568Y-121238095D02*
X62850187Y-121142857D01*
X62850187Y-121142857D02*
X62850187Y-120761905D01*
X62326378Y-122238095D02*
X62326378Y-121761905D01*
X62326378Y-121761905D02*
X62802568Y-121714286D01*
X62802568Y-121714286D02*
X62754949Y-121761905D01*
X62754949Y-121761905D02*
X62707330Y-121857143D01*
X62707330Y-121857143D02*
X62707330Y-122095238D01*
X62707330Y-122095238D02*
X62754949Y-122190476D01*
X62754949Y-122190476D02*
X62802568Y-122238095D01*
X62802568Y-122238095D02*
X62897806Y-122285714D01*
X62897806Y-122285714D02*
X63135901Y-122285714D01*
X63135901Y-122285714D02*
X63231139Y-122238095D01*
X63231139Y-122238095D02*
X63278759Y-122190476D01*
X63278759Y-122190476D02*
X63326378Y-122095238D01*
X63326378Y-122095238D02*
X63326378Y-121857143D01*
X63326378Y-121857143D02*
X63278759Y-121761905D01*
X63278759Y-121761905D02*
X63231139Y-121714286D01*
X65771140Y-120333333D02*
X65818760Y-120285714D01*
X65818760Y-120285714D02*
X65866379Y-120142857D01*
X65866379Y-120142857D02*
X65866379Y-120047619D01*
X65866379Y-120047619D02*
X65818760Y-119904762D01*
X65818760Y-119904762D02*
X65723521Y-119809524D01*
X65723521Y-119809524D02*
X65628283Y-119761905D01*
X65628283Y-119761905D02*
X65437807Y-119714286D01*
X65437807Y-119714286D02*
X65294950Y-119714286D01*
X65294950Y-119714286D02*
X65104474Y-119761905D01*
X65104474Y-119761905D02*
X65009236Y-119809524D01*
X65009236Y-119809524D02*
X64913998Y-119904762D01*
X64913998Y-119904762D02*
X64866379Y-120047619D01*
X64866379Y-120047619D02*
X64866379Y-120142857D01*
X64866379Y-120142857D02*
X64913998Y-120285714D01*
X64913998Y-120285714D02*
X64961617Y-120333333D01*
X65866379Y-121333333D02*
X65390188Y-121000000D01*
X65866379Y-120761905D02*
X64866379Y-120761905D01*
X64866379Y-120761905D02*
X64866379Y-121142857D01*
X64866379Y-121142857D02*
X64913998Y-121238095D01*
X64913998Y-121238095D02*
X64961617Y-121285714D01*
X64961617Y-121285714D02*
X65056855Y-121333333D01*
X65056855Y-121333333D02*
X65199712Y-121333333D01*
X65199712Y-121333333D02*
X65294950Y-121285714D01*
X65294950Y-121285714D02*
X65342569Y-121238095D01*
X65342569Y-121238095D02*
X65390188Y-121142857D01*
X65390188Y-121142857D02*
X65390188Y-120761905D01*
X64866379Y-121666667D02*
X64866379Y-122333333D01*
X64866379Y-122333333D02*
X65866379Y-121904762D01*
X68311139Y-120333333D02*
X68358759Y-120285714D01*
X68358759Y-120285714D02*
X68406378Y-120142857D01*
X68406378Y-120142857D02*
X68406378Y-120047619D01*
X68406378Y-120047619D02*
X68358759Y-119904762D01*
X68358759Y-119904762D02*
X68263520Y-119809524D01*
X68263520Y-119809524D02*
X68168282Y-119761905D01*
X68168282Y-119761905D02*
X67977806Y-119714286D01*
X67977806Y-119714286D02*
X67834949Y-119714286D01*
X67834949Y-119714286D02*
X67644473Y-119761905D01*
X67644473Y-119761905D02*
X67549235Y-119809524D01*
X67549235Y-119809524D02*
X67453997Y-119904762D01*
X67453997Y-119904762D02*
X67406378Y-120047619D01*
X67406378Y-120047619D02*
X67406378Y-120142857D01*
X67406378Y-120142857D02*
X67453997Y-120285714D01*
X67453997Y-120285714D02*
X67501616Y-120333333D01*
X68406378Y-121333333D02*
X67930187Y-121000000D01*
X68406378Y-120761905D02*
X67406378Y-120761905D01*
X67406378Y-120761905D02*
X67406378Y-121142857D01*
X67406378Y-121142857D02*
X67453997Y-121238095D01*
X67453997Y-121238095D02*
X67501616Y-121285714D01*
X67501616Y-121285714D02*
X67596854Y-121333333D01*
X67596854Y-121333333D02*
X67739711Y-121333333D01*
X67739711Y-121333333D02*
X67834949Y-121285714D01*
X67834949Y-121285714D02*
X67882568Y-121238095D01*
X67882568Y-121238095D02*
X67930187Y-121142857D01*
X67930187Y-121142857D02*
X67930187Y-120761905D01*
X68406378Y-121809524D02*
X68406378Y-122000000D01*
X68406378Y-122000000D02*
X68358759Y-122095238D01*
X68358759Y-122095238D02*
X68311139Y-122142857D01*
X68311139Y-122142857D02*
X68168282Y-122238095D01*
X68168282Y-122238095D02*
X67977806Y-122285714D01*
X67977806Y-122285714D02*
X67596854Y-122285714D01*
X67596854Y-122285714D02*
X67501616Y-122238095D01*
X67501616Y-122238095D02*
X67453997Y-122190476D01*
X67453997Y-122190476D02*
X67406378Y-122095238D01*
X67406378Y-122095238D02*
X67406378Y-121904762D01*
X67406378Y-121904762D02*
X67453997Y-121809524D01*
X67453997Y-121809524D02*
X67501616Y-121761905D01*
X67501616Y-121761905D02*
X67596854Y-121714286D01*
X67596854Y-121714286D02*
X67834949Y-121714286D01*
X67834949Y-121714286D02*
X67930187Y-121761905D01*
X67930187Y-121761905D02*
X67977806Y-121809524D01*
X67977806Y-121809524D02*
X68025425Y-121904762D01*
X68025425Y-121904762D02*
X68025425Y-122095238D01*
X68025425Y-122095238D02*
X67977806Y-122190476D01*
X67977806Y-122190476D02*
X67930187Y-122238095D01*
X67930187Y-122238095D02*
X67834949Y-122285714D01*
X70851140Y-119857142D02*
X70898760Y-119809523D01*
X70898760Y-119809523D02*
X70946379Y-119666666D01*
X70946379Y-119666666D02*
X70946379Y-119571428D01*
X70946379Y-119571428D02*
X70898760Y-119428571D01*
X70898760Y-119428571D02*
X70803521Y-119333333D01*
X70803521Y-119333333D02*
X70708283Y-119285714D01*
X70708283Y-119285714D02*
X70517807Y-119238095D01*
X70517807Y-119238095D02*
X70374950Y-119238095D01*
X70374950Y-119238095D02*
X70184474Y-119285714D01*
X70184474Y-119285714D02*
X70089236Y-119333333D01*
X70089236Y-119333333D02*
X69993998Y-119428571D01*
X69993998Y-119428571D02*
X69946379Y-119571428D01*
X69946379Y-119571428D02*
X69946379Y-119666666D01*
X69946379Y-119666666D02*
X69993998Y-119809523D01*
X69993998Y-119809523D02*
X70041617Y-119857142D01*
X70946379Y-120857142D02*
X70470188Y-120523809D01*
X70946379Y-120285714D02*
X69946379Y-120285714D01*
X69946379Y-120285714D02*
X69946379Y-120666666D01*
X69946379Y-120666666D02*
X69993998Y-120761904D01*
X69993998Y-120761904D02*
X70041617Y-120809523D01*
X70041617Y-120809523D02*
X70136855Y-120857142D01*
X70136855Y-120857142D02*
X70279712Y-120857142D01*
X70279712Y-120857142D02*
X70374950Y-120809523D01*
X70374950Y-120809523D02*
X70422569Y-120761904D01*
X70422569Y-120761904D02*
X70470188Y-120666666D01*
X70470188Y-120666666D02*
X70470188Y-120285714D01*
X70946379Y-121809523D02*
X70946379Y-121238095D01*
X70946379Y-121523809D02*
X69946379Y-121523809D01*
X69946379Y-121523809D02*
X70089236Y-121428571D01*
X70089236Y-121428571D02*
X70184474Y-121333333D01*
X70184474Y-121333333D02*
X70232093Y-121238095D01*
X70946379Y-122761904D02*
X70946379Y-122190476D01*
X70946379Y-122476190D02*
X69946379Y-122476190D01*
X69946379Y-122476190D02*
X70089236Y-122380952D01*
X70089236Y-122380952D02*
X70184474Y-122285714D01*
X70184474Y-122285714D02*
X70232093Y-122190476D01*
X73391140Y-119857142D02*
X73438760Y-119809523D01*
X73438760Y-119809523D02*
X73486379Y-119666666D01*
X73486379Y-119666666D02*
X73486379Y-119571428D01*
X73486379Y-119571428D02*
X73438760Y-119428571D01*
X73438760Y-119428571D02*
X73343521Y-119333333D01*
X73343521Y-119333333D02*
X73248283Y-119285714D01*
X73248283Y-119285714D02*
X73057807Y-119238095D01*
X73057807Y-119238095D02*
X72914950Y-119238095D01*
X72914950Y-119238095D02*
X72724474Y-119285714D01*
X72724474Y-119285714D02*
X72629236Y-119333333D01*
X72629236Y-119333333D02*
X72533998Y-119428571D01*
X72533998Y-119428571D02*
X72486379Y-119571428D01*
X72486379Y-119571428D02*
X72486379Y-119666666D01*
X72486379Y-119666666D02*
X72533998Y-119809523D01*
X72533998Y-119809523D02*
X72581617Y-119857142D01*
X73486379Y-120857142D02*
X73010188Y-120523809D01*
X73486379Y-120285714D02*
X72486379Y-120285714D01*
X72486379Y-120285714D02*
X72486379Y-120666666D01*
X72486379Y-120666666D02*
X72533998Y-120761904D01*
X72533998Y-120761904D02*
X72581617Y-120809523D01*
X72581617Y-120809523D02*
X72676855Y-120857142D01*
X72676855Y-120857142D02*
X72819712Y-120857142D01*
X72819712Y-120857142D02*
X72914950Y-120809523D01*
X72914950Y-120809523D02*
X72962569Y-120761904D01*
X72962569Y-120761904D02*
X73010188Y-120666666D01*
X73010188Y-120666666D02*
X73010188Y-120285714D01*
X73486379Y-121809523D02*
X73486379Y-121238095D01*
X73486379Y-121523809D02*
X72486379Y-121523809D01*
X72486379Y-121523809D02*
X72629236Y-121428571D01*
X72629236Y-121428571D02*
X72724474Y-121333333D01*
X72724474Y-121333333D02*
X72772093Y-121238095D01*
X72486379Y-122142857D02*
X72486379Y-122761904D01*
X72486379Y-122761904D02*
X72867331Y-122428571D01*
X72867331Y-122428571D02*
X72867331Y-122571428D01*
X72867331Y-122571428D02*
X72914950Y-122666666D01*
X72914950Y-122666666D02*
X72962569Y-122714285D01*
X72962569Y-122714285D02*
X73057807Y-122761904D01*
X73057807Y-122761904D02*
X73295902Y-122761904D01*
X73295902Y-122761904D02*
X73391140Y-122714285D01*
X73391140Y-122714285D02*
X73438760Y-122666666D01*
X73438760Y-122666666D02*
X73486379Y-122571428D01*
X73486379Y-122571428D02*
X73486379Y-122285714D01*
X73486379Y-122285714D02*
X73438760Y-122190476D01*
X73438760Y-122190476D02*
X73391140Y-122142857D01*
X75931140Y-119857142D02*
X75978760Y-119809523D01*
X75978760Y-119809523D02*
X76026379Y-119666666D01*
X76026379Y-119666666D02*
X76026379Y-119571428D01*
X76026379Y-119571428D02*
X75978760Y-119428571D01*
X75978760Y-119428571D02*
X75883521Y-119333333D01*
X75883521Y-119333333D02*
X75788283Y-119285714D01*
X75788283Y-119285714D02*
X75597807Y-119238095D01*
X75597807Y-119238095D02*
X75454950Y-119238095D01*
X75454950Y-119238095D02*
X75264474Y-119285714D01*
X75264474Y-119285714D02*
X75169236Y-119333333D01*
X75169236Y-119333333D02*
X75073998Y-119428571D01*
X75073998Y-119428571D02*
X75026379Y-119571428D01*
X75026379Y-119571428D02*
X75026379Y-119666666D01*
X75026379Y-119666666D02*
X75073998Y-119809523D01*
X75073998Y-119809523D02*
X75121617Y-119857142D01*
X76026379Y-120857142D02*
X75550188Y-120523809D01*
X76026379Y-120285714D02*
X75026379Y-120285714D01*
X75026379Y-120285714D02*
X75026379Y-120666666D01*
X75026379Y-120666666D02*
X75073998Y-120761904D01*
X75073998Y-120761904D02*
X75121617Y-120809523D01*
X75121617Y-120809523D02*
X75216855Y-120857142D01*
X75216855Y-120857142D02*
X75359712Y-120857142D01*
X75359712Y-120857142D02*
X75454950Y-120809523D01*
X75454950Y-120809523D02*
X75502569Y-120761904D01*
X75502569Y-120761904D02*
X75550188Y-120666666D01*
X75550188Y-120666666D02*
X75550188Y-120285714D01*
X76026379Y-121809523D02*
X76026379Y-121238095D01*
X76026379Y-121523809D02*
X75026379Y-121523809D01*
X75026379Y-121523809D02*
X75169236Y-121428571D01*
X75169236Y-121428571D02*
X75264474Y-121333333D01*
X75264474Y-121333333D02*
X75312093Y-121238095D01*
X75026379Y-122714285D02*
X75026379Y-122238095D01*
X75026379Y-122238095D02*
X75502569Y-122190476D01*
X75502569Y-122190476D02*
X75454950Y-122238095D01*
X75454950Y-122238095D02*
X75407331Y-122333333D01*
X75407331Y-122333333D02*
X75407331Y-122571428D01*
X75407331Y-122571428D02*
X75454950Y-122666666D01*
X75454950Y-122666666D02*
X75502569Y-122714285D01*
X75502569Y-122714285D02*
X75597807Y-122761904D01*
X75597807Y-122761904D02*
X75835902Y-122761904D01*
X75835902Y-122761904D02*
X75931140Y-122714285D01*
X75931140Y-122714285D02*
X75978760Y-122666666D01*
X75978760Y-122666666D02*
X76026379Y-122571428D01*
X76026379Y-122571428D02*
X76026379Y-122333333D01*
X76026379Y-122333333D02*
X75978760Y-122238095D01*
X75978760Y-122238095D02*
X75931140Y-122190476D01*
X78471140Y-119857142D02*
X78518760Y-119809523D01*
X78518760Y-119809523D02*
X78566379Y-119666666D01*
X78566379Y-119666666D02*
X78566379Y-119571428D01*
X78566379Y-119571428D02*
X78518760Y-119428571D01*
X78518760Y-119428571D02*
X78423521Y-119333333D01*
X78423521Y-119333333D02*
X78328283Y-119285714D01*
X78328283Y-119285714D02*
X78137807Y-119238095D01*
X78137807Y-119238095D02*
X77994950Y-119238095D01*
X77994950Y-119238095D02*
X77804474Y-119285714D01*
X77804474Y-119285714D02*
X77709236Y-119333333D01*
X77709236Y-119333333D02*
X77613998Y-119428571D01*
X77613998Y-119428571D02*
X77566379Y-119571428D01*
X77566379Y-119571428D02*
X77566379Y-119666666D01*
X77566379Y-119666666D02*
X77613998Y-119809523D01*
X77613998Y-119809523D02*
X77661617Y-119857142D01*
X78566379Y-120857142D02*
X78090188Y-120523809D01*
X78566379Y-120285714D02*
X77566379Y-120285714D01*
X77566379Y-120285714D02*
X77566379Y-120666666D01*
X77566379Y-120666666D02*
X77613998Y-120761904D01*
X77613998Y-120761904D02*
X77661617Y-120809523D01*
X77661617Y-120809523D02*
X77756855Y-120857142D01*
X77756855Y-120857142D02*
X77899712Y-120857142D01*
X77899712Y-120857142D02*
X77994950Y-120809523D01*
X77994950Y-120809523D02*
X78042569Y-120761904D01*
X78042569Y-120761904D02*
X78090188Y-120666666D01*
X78090188Y-120666666D02*
X78090188Y-120285714D01*
X78566379Y-121809523D02*
X78566379Y-121238095D01*
X78566379Y-121523809D02*
X77566379Y-121523809D01*
X77566379Y-121523809D02*
X77709236Y-121428571D01*
X77709236Y-121428571D02*
X77804474Y-121333333D01*
X77804474Y-121333333D02*
X77852093Y-121238095D01*
X77566379Y-122142857D02*
X77566379Y-122809523D01*
X77566379Y-122809523D02*
X78566379Y-122380952D01*
X81011139Y-119857142D02*
X81058759Y-119809523D01*
X81058759Y-119809523D02*
X81106378Y-119666666D01*
X81106378Y-119666666D02*
X81106378Y-119571428D01*
X81106378Y-119571428D02*
X81058759Y-119428571D01*
X81058759Y-119428571D02*
X80963520Y-119333333D01*
X80963520Y-119333333D02*
X80868282Y-119285714D01*
X80868282Y-119285714D02*
X80677806Y-119238095D01*
X80677806Y-119238095D02*
X80534949Y-119238095D01*
X80534949Y-119238095D02*
X80344473Y-119285714D01*
X80344473Y-119285714D02*
X80249235Y-119333333D01*
X80249235Y-119333333D02*
X80153997Y-119428571D01*
X80153997Y-119428571D02*
X80106378Y-119571428D01*
X80106378Y-119571428D02*
X80106378Y-119666666D01*
X80106378Y-119666666D02*
X80153997Y-119809523D01*
X80153997Y-119809523D02*
X80201616Y-119857142D01*
X81106378Y-120857142D02*
X80630187Y-120523809D01*
X81106378Y-120285714D02*
X80106378Y-120285714D01*
X80106378Y-120285714D02*
X80106378Y-120666666D01*
X80106378Y-120666666D02*
X80153997Y-120761904D01*
X80153997Y-120761904D02*
X80201616Y-120809523D01*
X80201616Y-120809523D02*
X80296854Y-120857142D01*
X80296854Y-120857142D02*
X80439711Y-120857142D01*
X80439711Y-120857142D02*
X80534949Y-120809523D01*
X80534949Y-120809523D02*
X80582568Y-120761904D01*
X80582568Y-120761904D02*
X80630187Y-120666666D01*
X80630187Y-120666666D02*
X80630187Y-120285714D01*
X81106378Y-121809523D02*
X81106378Y-121238095D01*
X81106378Y-121523809D02*
X80106378Y-121523809D01*
X80106378Y-121523809D02*
X80249235Y-121428571D01*
X80249235Y-121428571D02*
X80344473Y-121333333D01*
X80344473Y-121333333D02*
X80392092Y-121238095D01*
X81106378Y-122285714D02*
X81106378Y-122476190D01*
X81106378Y-122476190D02*
X81058759Y-122571428D01*
X81058759Y-122571428D02*
X81011139Y-122619047D01*
X81011139Y-122619047D02*
X80868282Y-122714285D01*
X80868282Y-122714285D02*
X80677806Y-122761904D01*
X80677806Y-122761904D02*
X80296854Y-122761904D01*
X80296854Y-122761904D02*
X80201616Y-122714285D01*
X80201616Y-122714285D02*
X80153997Y-122666666D01*
X80153997Y-122666666D02*
X80106378Y-122571428D01*
X80106378Y-122571428D02*
X80106378Y-122380952D01*
X80106378Y-122380952D02*
X80153997Y-122285714D01*
X80153997Y-122285714D02*
X80201616Y-122238095D01*
X80201616Y-122238095D02*
X80296854Y-122190476D01*
X80296854Y-122190476D02*
X80534949Y-122190476D01*
X80534949Y-122190476D02*
X80630187Y-122238095D01*
X80630187Y-122238095D02*
X80677806Y-122285714D01*
X80677806Y-122285714D02*
X80725425Y-122380952D01*
X80725425Y-122380952D02*
X80725425Y-122571428D01*
X80725425Y-122571428D02*
X80677806Y-122666666D01*
X80677806Y-122666666D02*
X80630187Y-122714285D01*
X80630187Y-122714285D02*
X80534949Y-122761904D01*
X82646379Y-119666667D02*
X83646379Y-120000000D01*
X83646379Y-120000000D02*
X82646379Y-120333333D01*
X83551140Y-121238095D02*
X83598760Y-121190476D01*
X83598760Y-121190476D02*
X83646379Y-121047619D01*
X83646379Y-121047619D02*
X83646379Y-120952381D01*
X83646379Y-120952381D02*
X83598760Y-120809524D01*
X83598760Y-120809524D02*
X83503521Y-120714286D01*
X83503521Y-120714286D02*
X83408283Y-120666667D01*
X83408283Y-120666667D02*
X83217807Y-120619048D01*
X83217807Y-120619048D02*
X83074950Y-120619048D01*
X83074950Y-120619048D02*
X82884474Y-120666667D01*
X82884474Y-120666667D02*
X82789236Y-120714286D01*
X82789236Y-120714286D02*
X82693998Y-120809524D01*
X82693998Y-120809524D02*
X82646379Y-120952381D01*
X82646379Y-120952381D02*
X82646379Y-121047619D01*
X82646379Y-121047619D02*
X82693998Y-121190476D01*
X82693998Y-121190476D02*
X82741617Y-121238095D01*
X83551140Y-122238095D02*
X83598760Y-122190476D01*
X83598760Y-122190476D02*
X83646379Y-122047619D01*
X83646379Y-122047619D02*
X83646379Y-121952381D01*
X83646379Y-121952381D02*
X83598760Y-121809524D01*
X83598760Y-121809524D02*
X83503521Y-121714286D01*
X83503521Y-121714286D02*
X83408283Y-121666667D01*
X83408283Y-121666667D02*
X83217807Y-121619048D01*
X83217807Y-121619048D02*
X83074950Y-121619048D01*
X83074950Y-121619048D02*
X82884474Y-121666667D01*
X82884474Y-121666667D02*
X82789236Y-121714286D01*
X82789236Y-121714286D02*
X82693998Y-121809524D01*
X82693998Y-121809524D02*
X82646379Y-121952381D01*
X82646379Y-121952381D02*
X82646379Y-122047619D01*
X82646379Y-122047619D02*
X82693998Y-122190476D01*
X82693998Y-122190476D02*
X82741617Y-122238095D01*
X85186378Y-119666667D02*
X86186378Y-120000000D01*
X86186378Y-120000000D02*
X85186378Y-120333333D01*
X86091139Y-121238095D02*
X86138759Y-121190476D01*
X86138759Y-121190476D02*
X86186378Y-121047619D01*
X86186378Y-121047619D02*
X86186378Y-120952381D01*
X86186378Y-120952381D02*
X86138759Y-120809524D01*
X86138759Y-120809524D02*
X86043520Y-120714286D01*
X86043520Y-120714286D02*
X85948282Y-120666667D01*
X85948282Y-120666667D02*
X85757806Y-120619048D01*
X85757806Y-120619048D02*
X85614949Y-120619048D01*
X85614949Y-120619048D02*
X85424473Y-120666667D01*
X85424473Y-120666667D02*
X85329235Y-120714286D01*
X85329235Y-120714286D02*
X85233997Y-120809524D01*
X85233997Y-120809524D02*
X85186378Y-120952381D01*
X85186378Y-120952381D02*
X85186378Y-121047619D01*
X85186378Y-121047619D02*
X85233997Y-121190476D01*
X85233997Y-121190476D02*
X85281616Y-121238095D01*
X86091139Y-122238095D02*
X86138759Y-122190476D01*
X86138759Y-122190476D02*
X86186378Y-122047619D01*
X86186378Y-122047619D02*
X86186378Y-121952381D01*
X86186378Y-121952381D02*
X86138759Y-121809524D01*
X86138759Y-121809524D02*
X86043520Y-121714286D01*
X86043520Y-121714286D02*
X85948282Y-121666667D01*
X85948282Y-121666667D02*
X85757806Y-121619048D01*
X85757806Y-121619048D02*
X85614949Y-121619048D01*
X85614949Y-121619048D02*
X85424473Y-121666667D01*
X85424473Y-121666667D02*
X85329235Y-121714286D01*
X85329235Y-121714286D02*
X85233997Y-121809524D01*
X85233997Y-121809524D02*
X85186378Y-121952381D01*
X85186378Y-121952381D02*
X85186378Y-122047619D01*
X85186378Y-122047619D02*
X85233997Y-122190476D01*
X85233997Y-122190476D02*
X85281616Y-122238095D01*
X87726379Y-119666667D02*
X88726379Y-120000000D01*
X88726379Y-120000000D02*
X87726379Y-120333333D01*
X88631140Y-121238095D02*
X88678760Y-121190476D01*
X88678760Y-121190476D02*
X88726379Y-121047619D01*
X88726379Y-121047619D02*
X88726379Y-120952381D01*
X88726379Y-120952381D02*
X88678760Y-120809524D01*
X88678760Y-120809524D02*
X88583521Y-120714286D01*
X88583521Y-120714286D02*
X88488283Y-120666667D01*
X88488283Y-120666667D02*
X88297807Y-120619048D01*
X88297807Y-120619048D02*
X88154950Y-120619048D01*
X88154950Y-120619048D02*
X87964474Y-120666667D01*
X87964474Y-120666667D02*
X87869236Y-120714286D01*
X87869236Y-120714286D02*
X87773998Y-120809524D01*
X87773998Y-120809524D02*
X87726379Y-120952381D01*
X87726379Y-120952381D02*
X87726379Y-121047619D01*
X87726379Y-121047619D02*
X87773998Y-121190476D01*
X87773998Y-121190476D02*
X87821617Y-121238095D01*
X88631140Y-122238095D02*
X88678760Y-122190476D01*
X88678760Y-122190476D02*
X88726379Y-122047619D01*
X88726379Y-122047619D02*
X88726379Y-121952381D01*
X88726379Y-121952381D02*
X88678760Y-121809524D01*
X88678760Y-121809524D02*
X88583521Y-121714286D01*
X88583521Y-121714286D02*
X88488283Y-121666667D01*
X88488283Y-121666667D02*
X88297807Y-121619048D01*
X88297807Y-121619048D02*
X88154950Y-121619048D01*
X88154950Y-121619048D02*
X87964474Y-121666667D01*
X87964474Y-121666667D02*
X87869236Y-121714286D01*
X87869236Y-121714286D02*
X87773998Y-121809524D01*
X87773998Y-121809524D02*
X87726379Y-121952381D01*
X87726379Y-121952381D02*
X87726379Y-122047619D01*
X87726379Y-122047619D02*
X87773998Y-122190476D01*
X87773998Y-122190476D02*
X87821617Y-122238095D01*
X90266378Y-119666667D02*
X91266378Y-120000000D01*
X91266378Y-120000000D02*
X90266378Y-120333333D01*
X91171139Y-121238095D02*
X91218759Y-121190476D01*
X91218759Y-121190476D02*
X91266378Y-121047619D01*
X91266378Y-121047619D02*
X91266378Y-120952381D01*
X91266378Y-120952381D02*
X91218759Y-120809524D01*
X91218759Y-120809524D02*
X91123520Y-120714286D01*
X91123520Y-120714286D02*
X91028282Y-120666667D01*
X91028282Y-120666667D02*
X90837806Y-120619048D01*
X90837806Y-120619048D02*
X90694949Y-120619048D01*
X90694949Y-120619048D02*
X90504473Y-120666667D01*
X90504473Y-120666667D02*
X90409235Y-120714286D01*
X90409235Y-120714286D02*
X90313997Y-120809524D01*
X90313997Y-120809524D02*
X90266378Y-120952381D01*
X90266378Y-120952381D02*
X90266378Y-121047619D01*
X90266378Y-121047619D02*
X90313997Y-121190476D01*
X90313997Y-121190476D02*
X90361616Y-121238095D01*
X91171139Y-122238095D02*
X91218759Y-122190476D01*
X91218759Y-122190476D02*
X91266378Y-122047619D01*
X91266378Y-122047619D02*
X91266378Y-121952381D01*
X91266378Y-121952381D02*
X91218759Y-121809524D01*
X91218759Y-121809524D02*
X91123520Y-121714286D01*
X91123520Y-121714286D02*
X91028282Y-121666667D01*
X91028282Y-121666667D02*
X90837806Y-121619048D01*
X90837806Y-121619048D02*
X90694949Y-121619048D01*
X90694949Y-121619048D02*
X90504473Y-121666667D01*
X90504473Y-121666667D02*
X90409235Y-121714286D01*
X90409235Y-121714286D02*
X90313997Y-121809524D01*
X90313997Y-121809524D02*
X90266378Y-121952381D01*
X90266378Y-121952381D02*
X90266378Y-122047619D01*
X90266378Y-122047619D02*
X90313997Y-122190476D01*
X90313997Y-122190476D02*
X90361616Y-122238095D01*
X93711140Y-119857142D02*
X93758760Y-119809523D01*
X93758760Y-119809523D02*
X93806379Y-119666666D01*
X93806379Y-119666666D02*
X93806379Y-119571428D01*
X93806379Y-119571428D02*
X93758760Y-119428571D01*
X93758760Y-119428571D02*
X93663521Y-119333333D01*
X93663521Y-119333333D02*
X93568283Y-119285714D01*
X93568283Y-119285714D02*
X93377807Y-119238095D01*
X93377807Y-119238095D02*
X93234950Y-119238095D01*
X93234950Y-119238095D02*
X93044474Y-119285714D01*
X93044474Y-119285714D02*
X92949236Y-119333333D01*
X92949236Y-119333333D02*
X92853998Y-119428571D01*
X92853998Y-119428571D02*
X92806379Y-119571428D01*
X92806379Y-119571428D02*
X92806379Y-119666666D01*
X92806379Y-119666666D02*
X92853998Y-119809523D01*
X92853998Y-119809523D02*
X92901617Y-119857142D01*
X93806379Y-120857142D02*
X93330188Y-120523809D01*
X93806379Y-120285714D02*
X92806379Y-120285714D01*
X92806379Y-120285714D02*
X92806379Y-120666666D01*
X92806379Y-120666666D02*
X92853998Y-120761904D01*
X92853998Y-120761904D02*
X92901617Y-120809523D01*
X92901617Y-120809523D02*
X92996855Y-120857142D01*
X92996855Y-120857142D02*
X93139712Y-120857142D01*
X93139712Y-120857142D02*
X93234950Y-120809523D01*
X93234950Y-120809523D02*
X93282569Y-120761904D01*
X93282569Y-120761904D02*
X93330188Y-120666666D01*
X93330188Y-120666666D02*
X93330188Y-120285714D01*
X92901617Y-121238095D02*
X92853998Y-121285714D01*
X92853998Y-121285714D02*
X92806379Y-121380952D01*
X92806379Y-121380952D02*
X92806379Y-121619047D01*
X92806379Y-121619047D02*
X92853998Y-121714285D01*
X92853998Y-121714285D02*
X92901617Y-121761904D01*
X92901617Y-121761904D02*
X92996855Y-121809523D01*
X92996855Y-121809523D02*
X93092093Y-121809523D01*
X93092093Y-121809523D02*
X93234950Y-121761904D01*
X93234950Y-121761904D02*
X93806379Y-121190476D01*
X93806379Y-121190476D02*
X93806379Y-121809523D01*
X93806379Y-122761904D02*
X93806379Y-122190476D01*
X93806379Y-122476190D02*
X92806379Y-122476190D01*
X92806379Y-122476190D02*
X92949236Y-122380952D01*
X92949236Y-122380952D02*
X93044474Y-122285714D01*
X93044474Y-122285714D02*
X93092093Y-122190476D01*
X96251140Y-119857142D02*
X96298760Y-119809523D01*
X96298760Y-119809523D02*
X96346379Y-119666666D01*
X96346379Y-119666666D02*
X96346379Y-119571428D01*
X96346379Y-119571428D02*
X96298760Y-119428571D01*
X96298760Y-119428571D02*
X96203521Y-119333333D01*
X96203521Y-119333333D02*
X96108283Y-119285714D01*
X96108283Y-119285714D02*
X95917807Y-119238095D01*
X95917807Y-119238095D02*
X95774950Y-119238095D01*
X95774950Y-119238095D02*
X95584474Y-119285714D01*
X95584474Y-119285714D02*
X95489236Y-119333333D01*
X95489236Y-119333333D02*
X95393998Y-119428571D01*
X95393998Y-119428571D02*
X95346379Y-119571428D01*
X95346379Y-119571428D02*
X95346379Y-119666666D01*
X95346379Y-119666666D02*
X95393998Y-119809523D01*
X95393998Y-119809523D02*
X95441617Y-119857142D01*
X96346379Y-120857142D02*
X95870188Y-120523809D01*
X96346379Y-120285714D02*
X95346379Y-120285714D01*
X95346379Y-120285714D02*
X95346379Y-120666666D01*
X95346379Y-120666666D02*
X95393998Y-120761904D01*
X95393998Y-120761904D02*
X95441617Y-120809523D01*
X95441617Y-120809523D02*
X95536855Y-120857142D01*
X95536855Y-120857142D02*
X95679712Y-120857142D01*
X95679712Y-120857142D02*
X95774950Y-120809523D01*
X95774950Y-120809523D02*
X95822569Y-120761904D01*
X95822569Y-120761904D02*
X95870188Y-120666666D01*
X95870188Y-120666666D02*
X95870188Y-120285714D01*
X95441617Y-121238095D02*
X95393998Y-121285714D01*
X95393998Y-121285714D02*
X95346379Y-121380952D01*
X95346379Y-121380952D02*
X95346379Y-121619047D01*
X95346379Y-121619047D02*
X95393998Y-121714285D01*
X95393998Y-121714285D02*
X95441617Y-121761904D01*
X95441617Y-121761904D02*
X95536855Y-121809523D01*
X95536855Y-121809523D02*
X95632093Y-121809523D01*
X95632093Y-121809523D02*
X95774950Y-121761904D01*
X95774950Y-121761904D02*
X96346379Y-121190476D01*
X96346379Y-121190476D02*
X96346379Y-121809523D01*
X95346379Y-122142857D02*
X95346379Y-122761904D01*
X95346379Y-122761904D02*
X95727331Y-122428571D01*
X95727331Y-122428571D02*
X95727331Y-122571428D01*
X95727331Y-122571428D02*
X95774950Y-122666666D01*
X95774950Y-122666666D02*
X95822569Y-122714285D01*
X95822569Y-122714285D02*
X95917807Y-122761904D01*
X95917807Y-122761904D02*
X96155902Y-122761904D01*
X96155902Y-122761904D02*
X96251140Y-122714285D01*
X96251140Y-122714285D02*
X96298760Y-122666666D01*
X96298760Y-122666666D02*
X96346379Y-122571428D01*
X96346379Y-122571428D02*
X96346379Y-122285714D01*
X96346379Y-122285714D02*
X96298760Y-122190476D01*
X96298760Y-122190476D02*
X96251140Y-122142857D01*
X98791140Y-119857142D02*
X98838760Y-119809523D01*
X98838760Y-119809523D02*
X98886379Y-119666666D01*
X98886379Y-119666666D02*
X98886379Y-119571428D01*
X98886379Y-119571428D02*
X98838760Y-119428571D01*
X98838760Y-119428571D02*
X98743521Y-119333333D01*
X98743521Y-119333333D02*
X98648283Y-119285714D01*
X98648283Y-119285714D02*
X98457807Y-119238095D01*
X98457807Y-119238095D02*
X98314950Y-119238095D01*
X98314950Y-119238095D02*
X98124474Y-119285714D01*
X98124474Y-119285714D02*
X98029236Y-119333333D01*
X98029236Y-119333333D02*
X97933998Y-119428571D01*
X97933998Y-119428571D02*
X97886379Y-119571428D01*
X97886379Y-119571428D02*
X97886379Y-119666666D01*
X97886379Y-119666666D02*
X97933998Y-119809523D01*
X97933998Y-119809523D02*
X97981617Y-119857142D01*
X98886379Y-120857142D02*
X98410188Y-120523809D01*
X98886379Y-120285714D02*
X97886379Y-120285714D01*
X97886379Y-120285714D02*
X97886379Y-120666666D01*
X97886379Y-120666666D02*
X97933998Y-120761904D01*
X97933998Y-120761904D02*
X97981617Y-120809523D01*
X97981617Y-120809523D02*
X98076855Y-120857142D01*
X98076855Y-120857142D02*
X98219712Y-120857142D01*
X98219712Y-120857142D02*
X98314950Y-120809523D01*
X98314950Y-120809523D02*
X98362569Y-120761904D01*
X98362569Y-120761904D02*
X98410188Y-120666666D01*
X98410188Y-120666666D02*
X98410188Y-120285714D01*
X97981617Y-121238095D02*
X97933998Y-121285714D01*
X97933998Y-121285714D02*
X97886379Y-121380952D01*
X97886379Y-121380952D02*
X97886379Y-121619047D01*
X97886379Y-121619047D02*
X97933998Y-121714285D01*
X97933998Y-121714285D02*
X97981617Y-121761904D01*
X97981617Y-121761904D02*
X98076855Y-121809523D01*
X98076855Y-121809523D02*
X98172093Y-121809523D01*
X98172093Y-121809523D02*
X98314950Y-121761904D01*
X98314950Y-121761904D02*
X98886379Y-121190476D01*
X98886379Y-121190476D02*
X98886379Y-121809523D01*
X97886379Y-122714285D02*
X97886379Y-122238095D01*
X97886379Y-122238095D02*
X98362569Y-122190476D01*
X98362569Y-122190476D02*
X98314950Y-122238095D01*
X98314950Y-122238095D02*
X98267331Y-122333333D01*
X98267331Y-122333333D02*
X98267331Y-122571428D01*
X98267331Y-122571428D02*
X98314950Y-122666666D01*
X98314950Y-122666666D02*
X98362569Y-122714285D01*
X98362569Y-122714285D02*
X98457807Y-122761904D01*
X98457807Y-122761904D02*
X98695902Y-122761904D01*
X98695902Y-122761904D02*
X98791140Y-122714285D01*
X98791140Y-122714285D02*
X98838760Y-122666666D01*
X98838760Y-122666666D02*
X98886379Y-122571428D01*
X98886379Y-122571428D02*
X98886379Y-122333333D01*
X98886379Y-122333333D02*
X98838760Y-122238095D01*
X98838760Y-122238095D02*
X98791140Y-122190476D01*
X101331140Y-119857142D02*
X101378760Y-119809523D01*
X101378760Y-119809523D02*
X101426379Y-119666666D01*
X101426379Y-119666666D02*
X101426379Y-119571428D01*
X101426379Y-119571428D02*
X101378760Y-119428571D01*
X101378760Y-119428571D02*
X101283521Y-119333333D01*
X101283521Y-119333333D02*
X101188283Y-119285714D01*
X101188283Y-119285714D02*
X100997807Y-119238095D01*
X100997807Y-119238095D02*
X100854950Y-119238095D01*
X100854950Y-119238095D02*
X100664474Y-119285714D01*
X100664474Y-119285714D02*
X100569236Y-119333333D01*
X100569236Y-119333333D02*
X100473998Y-119428571D01*
X100473998Y-119428571D02*
X100426379Y-119571428D01*
X100426379Y-119571428D02*
X100426379Y-119666666D01*
X100426379Y-119666666D02*
X100473998Y-119809523D01*
X100473998Y-119809523D02*
X100521617Y-119857142D01*
X101426379Y-120857142D02*
X100950188Y-120523809D01*
X101426379Y-120285714D02*
X100426379Y-120285714D01*
X100426379Y-120285714D02*
X100426379Y-120666666D01*
X100426379Y-120666666D02*
X100473998Y-120761904D01*
X100473998Y-120761904D02*
X100521617Y-120809523D01*
X100521617Y-120809523D02*
X100616855Y-120857142D01*
X100616855Y-120857142D02*
X100759712Y-120857142D01*
X100759712Y-120857142D02*
X100854950Y-120809523D01*
X100854950Y-120809523D02*
X100902569Y-120761904D01*
X100902569Y-120761904D02*
X100950188Y-120666666D01*
X100950188Y-120666666D02*
X100950188Y-120285714D01*
X100521617Y-121238095D02*
X100473998Y-121285714D01*
X100473998Y-121285714D02*
X100426379Y-121380952D01*
X100426379Y-121380952D02*
X100426379Y-121619047D01*
X100426379Y-121619047D02*
X100473998Y-121714285D01*
X100473998Y-121714285D02*
X100521617Y-121761904D01*
X100521617Y-121761904D02*
X100616855Y-121809523D01*
X100616855Y-121809523D02*
X100712093Y-121809523D01*
X100712093Y-121809523D02*
X100854950Y-121761904D01*
X100854950Y-121761904D02*
X101426379Y-121190476D01*
X101426379Y-121190476D02*
X101426379Y-121809523D01*
X100426379Y-122142857D02*
X100426379Y-122809523D01*
X100426379Y-122809523D02*
X101426379Y-122380952D01*
X103871139Y-119857142D02*
X103918759Y-119809523D01*
X103918759Y-119809523D02*
X103966378Y-119666666D01*
X103966378Y-119666666D02*
X103966378Y-119571428D01*
X103966378Y-119571428D02*
X103918759Y-119428571D01*
X103918759Y-119428571D02*
X103823520Y-119333333D01*
X103823520Y-119333333D02*
X103728282Y-119285714D01*
X103728282Y-119285714D02*
X103537806Y-119238095D01*
X103537806Y-119238095D02*
X103394949Y-119238095D01*
X103394949Y-119238095D02*
X103204473Y-119285714D01*
X103204473Y-119285714D02*
X103109235Y-119333333D01*
X103109235Y-119333333D02*
X103013997Y-119428571D01*
X103013997Y-119428571D02*
X102966378Y-119571428D01*
X102966378Y-119571428D02*
X102966378Y-119666666D01*
X102966378Y-119666666D02*
X103013997Y-119809523D01*
X103013997Y-119809523D02*
X103061616Y-119857142D01*
X103966378Y-120857142D02*
X103490187Y-120523809D01*
X103966378Y-120285714D02*
X102966378Y-120285714D01*
X102966378Y-120285714D02*
X102966378Y-120666666D01*
X102966378Y-120666666D02*
X103013997Y-120761904D01*
X103013997Y-120761904D02*
X103061616Y-120809523D01*
X103061616Y-120809523D02*
X103156854Y-120857142D01*
X103156854Y-120857142D02*
X103299711Y-120857142D01*
X103299711Y-120857142D02*
X103394949Y-120809523D01*
X103394949Y-120809523D02*
X103442568Y-120761904D01*
X103442568Y-120761904D02*
X103490187Y-120666666D01*
X103490187Y-120666666D02*
X103490187Y-120285714D01*
X103061616Y-121238095D02*
X103013997Y-121285714D01*
X103013997Y-121285714D02*
X102966378Y-121380952D01*
X102966378Y-121380952D02*
X102966378Y-121619047D01*
X102966378Y-121619047D02*
X103013997Y-121714285D01*
X103013997Y-121714285D02*
X103061616Y-121761904D01*
X103061616Y-121761904D02*
X103156854Y-121809523D01*
X103156854Y-121809523D02*
X103252092Y-121809523D01*
X103252092Y-121809523D02*
X103394949Y-121761904D01*
X103394949Y-121761904D02*
X103966378Y-121190476D01*
X103966378Y-121190476D02*
X103966378Y-121809523D01*
X103966378Y-122285714D02*
X103966378Y-122476190D01*
X103966378Y-122476190D02*
X103918759Y-122571428D01*
X103918759Y-122571428D02*
X103871139Y-122619047D01*
X103871139Y-122619047D02*
X103728282Y-122714285D01*
X103728282Y-122714285D02*
X103537806Y-122761904D01*
X103537806Y-122761904D02*
X103156854Y-122761904D01*
X103156854Y-122761904D02*
X103061616Y-122714285D01*
X103061616Y-122714285D02*
X103013997Y-122666666D01*
X103013997Y-122666666D02*
X102966378Y-122571428D01*
X102966378Y-122571428D02*
X102966378Y-122380952D01*
X102966378Y-122380952D02*
X103013997Y-122285714D01*
X103013997Y-122285714D02*
X103061616Y-122238095D01*
X103061616Y-122238095D02*
X103156854Y-122190476D01*
X103156854Y-122190476D02*
X103394949Y-122190476D01*
X103394949Y-122190476D02*
X103490187Y-122238095D01*
X103490187Y-122238095D02*
X103537806Y-122285714D01*
X103537806Y-122285714D02*
X103585425Y-122380952D01*
X103585425Y-122380952D02*
X103585425Y-122571428D01*
X103585425Y-122571428D02*
X103537806Y-122666666D01*
X103537806Y-122666666D02*
X103490187Y-122714285D01*
X103490187Y-122714285D02*
X103394949Y-122761904D01*
X106411140Y-119857142D02*
X106458760Y-119809523D01*
X106458760Y-119809523D02*
X106506379Y-119666666D01*
X106506379Y-119666666D02*
X106506379Y-119571428D01*
X106506379Y-119571428D02*
X106458760Y-119428571D01*
X106458760Y-119428571D02*
X106363521Y-119333333D01*
X106363521Y-119333333D02*
X106268283Y-119285714D01*
X106268283Y-119285714D02*
X106077807Y-119238095D01*
X106077807Y-119238095D02*
X105934950Y-119238095D01*
X105934950Y-119238095D02*
X105744474Y-119285714D01*
X105744474Y-119285714D02*
X105649236Y-119333333D01*
X105649236Y-119333333D02*
X105553998Y-119428571D01*
X105553998Y-119428571D02*
X105506379Y-119571428D01*
X105506379Y-119571428D02*
X105506379Y-119666666D01*
X105506379Y-119666666D02*
X105553998Y-119809523D01*
X105553998Y-119809523D02*
X105601617Y-119857142D01*
X106506379Y-120857142D02*
X106030188Y-120523809D01*
X106506379Y-120285714D02*
X105506379Y-120285714D01*
X105506379Y-120285714D02*
X105506379Y-120666666D01*
X105506379Y-120666666D02*
X105553998Y-120761904D01*
X105553998Y-120761904D02*
X105601617Y-120809523D01*
X105601617Y-120809523D02*
X105696855Y-120857142D01*
X105696855Y-120857142D02*
X105839712Y-120857142D01*
X105839712Y-120857142D02*
X105934950Y-120809523D01*
X105934950Y-120809523D02*
X105982569Y-120761904D01*
X105982569Y-120761904D02*
X106030188Y-120666666D01*
X106030188Y-120666666D02*
X106030188Y-120285714D01*
X105506379Y-121190476D02*
X105506379Y-121809523D01*
X105506379Y-121809523D02*
X105887331Y-121476190D01*
X105887331Y-121476190D02*
X105887331Y-121619047D01*
X105887331Y-121619047D02*
X105934950Y-121714285D01*
X105934950Y-121714285D02*
X105982569Y-121761904D01*
X105982569Y-121761904D02*
X106077807Y-121809523D01*
X106077807Y-121809523D02*
X106315902Y-121809523D01*
X106315902Y-121809523D02*
X106411140Y-121761904D01*
X106411140Y-121761904D02*
X106458760Y-121714285D01*
X106458760Y-121714285D02*
X106506379Y-121619047D01*
X106506379Y-121619047D02*
X106506379Y-121333333D01*
X106506379Y-121333333D02*
X106458760Y-121238095D01*
X106458760Y-121238095D02*
X106411140Y-121190476D01*
X106506379Y-122761904D02*
X106506379Y-122190476D01*
X106506379Y-122476190D02*
X105506379Y-122476190D01*
X105506379Y-122476190D02*
X105649236Y-122380952D01*
X105649236Y-122380952D02*
X105744474Y-122285714D01*
X105744474Y-122285714D02*
X105792093Y-122190476D01*
X108522568Y-119952381D02*
X108522568Y-119619048D01*
X109046378Y-119619048D02*
X108046378Y-119619048D01*
X108046378Y-119619048D02*
X108046378Y-120095238D01*
X109046378Y-120476191D02*
X108046378Y-120476191D01*
X108046378Y-120857143D02*
X109046378Y-121523809D01*
X108046378Y-121523809D02*
X109046378Y-120857143D01*
X108046378Y-122095238D02*
X108046378Y-122190476D01*
X108046378Y-122190476D02*
X108093997Y-122285714D01*
X108093997Y-122285714D02*
X108141616Y-122333333D01*
X108141616Y-122333333D02*
X108236854Y-122380952D01*
X108236854Y-122380952D02*
X108427330Y-122428571D01*
X108427330Y-122428571D02*
X108665425Y-122428571D01*
X108665425Y-122428571D02*
X108855901Y-122380952D01*
X108855901Y-122380952D02*
X108951139Y-122333333D01*
X108951139Y-122333333D02*
X108998759Y-122285714D01*
X108998759Y-122285714D02*
X109046378Y-122190476D01*
X109046378Y-122190476D02*
X109046378Y-122095238D01*
X109046378Y-122095238D02*
X108998759Y-122000000D01*
X108998759Y-122000000D02*
X108951139Y-121952381D01*
X108951139Y-121952381D02*
X108855901Y-121904762D01*
X108855901Y-121904762D02*
X108665425Y-121857143D01*
X108665425Y-121857143D02*
X108427330Y-121857143D01*
X108427330Y-121857143D02*
X108236854Y-121904762D01*
X108236854Y-121904762D02*
X108141616Y-121952381D01*
X108141616Y-121952381D02*
X108093997Y-122000000D01*
X108093997Y-122000000D02*
X108046378Y-122095238D01*
X111062569Y-119952381D02*
X111062569Y-119619048D01*
X111586379Y-119619048D02*
X110586379Y-119619048D01*
X110586379Y-119619048D02*
X110586379Y-120095238D01*
X111586379Y-120476191D02*
X110586379Y-120476191D01*
X110586379Y-120857143D02*
X111586379Y-121523809D01*
X110586379Y-121523809D02*
X111586379Y-120857143D01*
X111586379Y-122428571D02*
X111586379Y-121857143D01*
X111586379Y-122142857D02*
X110586379Y-122142857D01*
X110586379Y-122142857D02*
X110729236Y-122047619D01*
X110729236Y-122047619D02*
X110824474Y-121952381D01*
X110824474Y-121952381D02*
X110872093Y-121857143D01*
X113602568Y-119952381D02*
X113602568Y-119619048D01*
X114126378Y-119619048D02*
X113126378Y-119619048D01*
X113126378Y-119619048D02*
X113126378Y-120095238D01*
X114126378Y-120476191D02*
X113126378Y-120476191D01*
X113126378Y-120857143D02*
X114126378Y-121523809D01*
X113126378Y-121523809D02*
X114126378Y-120857143D01*
X113221616Y-121857143D02*
X113173997Y-121904762D01*
X113173997Y-121904762D02*
X113126378Y-122000000D01*
X113126378Y-122000000D02*
X113126378Y-122238095D01*
X113126378Y-122238095D02*
X113173997Y-122333333D01*
X113173997Y-122333333D02*
X113221616Y-122380952D01*
X113221616Y-122380952D02*
X113316854Y-122428571D01*
X113316854Y-122428571D02*
X113412092Y-122428571D01*
X113412092Y-122428571D02*
X113554949Y-122380952D01*
X113554949Y-122380952D02*
X114126378Y-121809524D01*
X114126378Y-121809524D02*
X114126378Y-122428571D01*
X116142569Y-119952381D02*
X116142569Y-119619048D01*
X116666379Y-119619048D02*
X115666379Y-119619048D01*
X115666379Y-119619048D02*
X115666379Y-120095238D01*
X116666379Y-120476191D02*
X115666379Y-120476191D01*
X115666379Y-120857143D02*
X116666379Y-121523809D01*
X115666379Y-121523809D02*
X116666379Y-120857143D01*
X115666379Y-121809524D02*
X115666379Y-122428571D01*
X115666379Y-122428571D02*
X116047331Y-122095238D01*
X116047331Y-122095238D02*
X116047331Y-122238095D01*
X116047331Y-122238095D02*
X116094950Y-122333333D01*
X116094950Y-122333333D02*
X116142569Y-122380952D01*
X116142569Y-122380952D02*
X116237807Y-122428571D01*
X116237807Y-122428571D02*
X116475902Y-122428571D01*
X116475902Y-122428571D02*
X116571140Y-122380952D01*
X116571140Y-122380952D02*
X116618760Y-122333333D01*
X116618760Y-122333333D02*
X116666379Y-122238095D01*
X116666379Y-122238095D02*
X116666379Y-121952381D01*
X116666379Y-121952381D02*
X116618760Y-121857143D01*
X116618760Y-121857143D02*
X116571140Y-121809524D01*
X118682569Y-119952381D02*
X118682569Y-119619048D01*
X119206379Y-119619048D02*
X118206379Y-119619048D01*
X118206379Y-119619048D02*
X118206379Y-120095238D01*
X119206379Y-120476191D02*
X118206379Y-120476191D01*
X118206379Y-120857143D02*
X119206379Y-121523809D01*
X118206379Y-121523809D02*
X119206379Y-120857143D01*
X118539712Y-122333333D02*
X119206379Y-122333333D01*
X118158760Y-122095238D02*
X118873045Y-121857143D01*
X118873045Y-121857143D02*
X118873045Y-122476190D01*
X121222568Y-119952381D02*
X121222568Y-119619048D01*
X121746378Y-119619048D02*
X120746378Y-119619048D01*
X120746378Y-119619048D02*
X120746378Y-120095238D01*
X121746378Y-120476191D02*
X120746378Y-120476191D01*
X120746378Y-120857143D02*
X121746378Y-121523809D01*
X120746378Y-121523809D02*
X121746378Y-120857143D01*
X120746378Y-122380952D02*
X120746378Y-121904762D01*
X120746378Y-121904762D02*
X121222568Y-121857143D01*
X121222568Y-121857143D02*
X121174949Y-121904762D01*
X121174949Y-121904762D02*
X121127330Y-122000000D01*
X121127330Y-122000000D02*
X121127330Y-122238095D01*
X121127330Y-122238095D02*
X121174949Y-122333333D01*
X121174949Y-122333333D02*
X121222568Y-122380952D01*
X121222568Y-122380952D02*
X121317806Y-122428571D01*
X121317806Y-122428571D02*
X121555901Y-122428571D01*
X121555901Y-122428571D02*
X121651139Y-122380952D01*
X121651139Y-122380952D02*
X121698759Y-122333333D01*
X121698759Y-122333333D02*
X121746378Y-122238095D01*
X121746378Y-122238095D02*
X121746378Y-122000000D01*
X121746378Y-122000000D02*
X121698759Y-121904762D01*
X121698759Y-121904762D02*
X121651139Y-121857143D01*
X123762569Y-119952381D02*
X123762569Y-119619048D01*
X124286379Y-119619048D02*
X123286379Y-119619048D01*
X123286379Y-119619048D02*
X123286379Y-120095238D01*
X124286379Y-120476191D02*
X123286379Y-120476191D01*
X123286379Y-120857143D02*
X124286379Y-121523809D01*
X123286379Y-121523809D02*
X124286379Y-120857143D01*
X123286379Y-122333333D02*
X123286379Y-122142857D01*
X123286379Y-122142857D02*
X123333998Y-122047619D01*
X123333998Y-122047619D02*
X123381617Y-122000000D01*
X123381617Y-122000000D02*
X123524474Y-121904762D01*
X123524474Y-121904762D02*
X123714950Y-121857143D01*
X123714950Y-121857143D02*
X124095902Y-121857143D01*
X124095902Y-121857143D02*
X124191140Y-121904762D01*
X124191140Y-121904762D02*
X124238760Y-121952381D01*
X124238760Y-121952381D02*
X124286379Y-122047619D01*
X124286379Y-122047619D02*
X124286379Y-122238095D01*
X124286379Y-122238095D02*
X124238760Y-122333333D01*
X124238760Y-122333333D02*
X124191140Y-122380952D01*
X124191140Y-122380952D02*
X124095902Y-122428571D01*
X124095902Y-122428571D02*
X123857807Y-122428571D01*
X123857807Y-122428571D02*
X123762569Y-122380952D01*
X123762569Y-122380952D02*
X123714950Y-122333333D01*
X123714950Y-122333333D02*
X123667331Y-122238095D01*
X123667331Y-122238095D02*
X123667331Y-122047619D01*
X123667331Y-122047619D02*
X123714950Y-121952381D01*
X123714950Y-121952381D02*
X123762569Y-121904762D01*
X123762569Y-121904762D02*
X123857807Y-121857143D01*
X126302568Y-119952381D02*
X126302568Y-119619048D01*
X126826378Y-119619048D02*
X125826378Y-119619048D01*
X125826378Y-119619048D02*
X125826378Y-120095238D01*
X126826378Y-120476191D02*
X125826378Y-120476191D01*
X125826378Y-120857143D02*
X126826378Y-121523809D01*
X125826378Y-121523809D02*
X126826378Y-120857143D01*
X125826378Y-121809524D02*
X125826378Y-122476190D01*
X125826378Y-122476190D02*
X126826378Y-122047619D01*
X129318760Y-118642857D02*
X129366379Y-118785714D01*
X129366379Y-118785714D02*
X129366379Y-119023809D01*
X129366379Y-119023809D02*
X129318760Y-119119047D01*
X129318760Y-119119047D02*
X129271140Y-119166666D01*
X129271140Y-119166666D02*
X129175902Y-119214285D01*
X129175902Y-119214285D02*
X129080664Y-119214285D01*
X129080664Y-119214285D02*
X128985426Y-119166666D01*
X128985426Y-119166666D02*
X128937807Y-119119047D01*
X128937807Y-119119047D02*
X128890188Y-119023809D01*
X128890188Y-119023809D02*
X128842569Y-118833333D01*
X128842569Y-118833333D02*
X128794950Y-118738095D01*
X128794950Y-118738095D02*
X128747331Y-118690476D01*
X128747331Y-118690476D02*
X128652093Y-118642857D01*
X128652093Y-118642857D02*
X128556855Y-118642857D01*
X128556855Y-118642857D02*
X128461617Y-118690476D01*
X128461617Y-118690476D02*
X128413998Y-118738095D01*
X128413998Y-118738095D02*
X128366379Y-118833333D01*
X128366379Y-118833333D02*
X128366379Y-119071428D01*
X128366379Y-119071428D02*
X128413998Y-119214285D01*
X129366379Y-119642857D02*
X128366379Y-119642857D01*
X128366379Y-119642857D02*
X128366379Y-119880952D01*
X128366379Y-119880952D02*
X128413998Y-120023809D01*
X128413998Y-120023809D02*
X128509236Y-120119047D01*
X128509236Y-120119047D02*
X128604474Y-120166666D01*
X128604474Y-120166666D02*
X128794950Y-120214285D01*
X128794950Y-120214285D02*
X128937807Y-120214285D01*
X128937807Y-120214285D02*
X129128283Y-120166666D01*
X129128283Y-120166666D02*
X129223521Y-120119047D01*
X129223521Y-120119047D02*
X129318760Y-120023809D01*
X129318760Y-120023809D02*
X129366379Y-119880952D01*
X129366379Y-119880952D02*
X129366379Y-119642857D01*
X129366379Y-120642857D02*
X128366379Y-120642857D01*
X128366379Y-120642857D02*
X129080664Y-120976190D01*
X129080664Y-120976190D02*
X128366379Y-121309523D01*
X128366379Y-121309523D02*
X129366379Y-121309523D01*
X129366379Y-122357142D02*
X128890188Y-122023809D01*
X129366379Y-121785714D02*
X128366379Y-121785714D01*
X128366379Y-121785714D02*
X128366379Y-122166666D01*
X128366379Y-122166666D02*
X128413998Y-122261904D01*
X128413998Y-122261904D02*
X128461617Y-122309523D01*
X128461617Y-122309523D02*
X128556855Y-122357142D01*
X128556855Y-122357142D02*
X128699712Y-122357142D01*
X128699712Y-122357142D02*
X128794950Y-122309523D01*
X128794950Y-122309523D02*
X128842569Y-122261904D01*
X128842569Y-122261904D02*
X128890188Y-122166666D01*
X128890188Y-122166666D02*
X128890188Y-121785714D01*
X129366379Y-122785714D02*
X128366379Y-122785714D01*
X128366379Y-122785714D02*
X128366379Y-123023809D01*
X128366379Y-123023809D02*
X128413998Y-123166666D01*
X128413998Y-123166666D02*
X128509236Y-123261904D01*
X128509236Y-123261904D02*
X128604474Y-123309523D01*
X128604474Y-123309523D02*
X128794950Y-123357142D01*
X128794950Y-123357142D02*
X128937807Y-123357142D01*
X128937807Y-123357142D02*
X129128283Y-123309523D01*
X129128283Y-123309523D02*
X129223521Y-123261904D01*
X129223521Y-123261904D02*
X129318760Y-123166666D01*
X129318760Y-123166666D02*
X129366379Y-123023809D01*
X129366379Y-123023809D02*
X129366379Y-122785714D01*
X131858759Y-119238095D02*
X131906378Y-119380952D01*
X131906378Y-119380952D02*
X131906378Y-119619047D01*
X131906378Y-119619047D02*
X131858759Y-119714285D01*
X131858759Y-119714285D02*
X131811139Y-119761904D01*
X131811139Y-119761904D02*
X131715901Y-119809523D01*
X131715901Y-119809523D02*
X131620663Y-119809523D01*
X131620663Y-119809523D02*
X131525425Y-119761904D01*
X131525425Y-119761904D02*
X131477806Y-119714285D01*
X131477806Y-119714285D02*
X131430187Y-119619047D01*
X131430187Y-119619047D02*
X131382568Y-119428571D01*
X131382568Y-119428571D02*
X131334949Y-119333333D01*
X131334949Y-119333333D02*
X131287330Y-119285714D01*
X131287330Y-119285714D02*
X131192092Y-119238095D01*
X131192092Y-119238095D02*
X131096854Y-119238095D01*
X131096854Y-119238095D02*
X131001616Y-119285714D01*
X131001616Y-119285714D02*
X130953997Y-119333333D01*
X130953997Y-119333333D02*
X130906378Y-119428571D01*
X130906378Y-119428571D02*
X130906378Y-119666666D01*
X130906378Y-119666666D02*
X130953997Y-119809523D01*
X131906378Y-120238095D02*
X130906378Y-120238095D01*
X130906378Y-120238095D02*
X130906378Y-120476190D01*
X130906378Y-120476190D02*
X130953997Y-120619047D01*
X130953997Y-120619047D02*
X131049235Y-120714285D01*
X131049235Y-120714285D02*
X131144473Y-120761904D01*
X131144473Y-120761904D02*
X131334949Y-120809523D01*
X131334949Y-120809523D02*
X131477806Y-120809523D01*
X131477806Y-120809523D02*
X131668282Y-120761904D01*
X131668282Y-120761904D02*
X131763520Y-120714285D01*
X131763520Y-120714285D02*
X131858759Y-120619047D01*
X131858759Y-120619047D02*
X131906378Y-120476190D01*
X131906378Y-120476190D02*
X131906378Y-120238095D01*
X131906378Y-121238095D02*
X130906378Y-121238095D01*
X130906378Y-121238095D02*
X130906378Y-121476190D01*
X130906378Y-121476190D02*
X130953997Y-121619047D01*
X130953997Y-121619047D02*
X131049235Y-121714285D01*
X131049235Y-121714285D02*
X131144473Y-121761904D01*
X131144473Y-121761904D02*
X131334949Y-121809523D01*
X131334949Y-121809523D02*
X131477806Y-121809523D01*
X131477806Y-121809523D02*
X131668282Y-121761904D01*
X131668282Y-121761904D02*
X131763520Y-121714285D01*
X131763520Y-121714285D02*
X131858759Y-121619047D01*
X131858759Y-121619047D02*
X131906378Y-121476190D01*
X131906378Y-121476190D02*
X131906378Y-121238095D01*
X130906378Y-122428571D02*
X130906378Y-122523809D01*
X130906378Y-122523809D02*
X130953997Y-122619047D01*
X130953997Y-122619047D02*
X131001616Y-122666666D01*
X131001616Y-122666666D02*
X131096854Y-122714285D01*
X131096854Y-122714285D02*
X131287330Y-122761904D01*
X131287330Y-122761904D02*
X131525425Y-122761904D01*
X131525425Y-122761904D02*
X131715901Y-122714285D01*
X131715901Y-122714285D02*
X131811139Y-122666666D01*
X131811139Y-122666666D02*
X131858759Y-122619047D01*
X131858759Y-122619047D02*
X131906378Y-122523809D01*
X131906378Y-122523809D02*
X131906378Y-122428571D01*
X131906378Y-122428571D02*
X131858759Y-122333333D01*
X131858759Y-122333333D02*
X131811139Y-122285714D01*
X131811139Y-122285714D02*
X131715901Y-122238095D01*
X131715901Y-122238095D02*
X131525425Y-122190476D01*
X131525425Y-122190476D02*
X131287330Y-122190476D01*
X131287330Y-122190476D02*
X131096854Y-122238095D01*
X131096854Y-122238095D02*
X131001616Y-122285714D01*
X131001616Y-122285714D02*
X130953997Y-122333333D01*
X130953997Y-122333333D02*
X130906378Y-122428571D01*
X134398760Y-119238095D02*
X134446379Y-119380952D01*
X134446379Y-119380952D02*
X134446379Y-119619047D01*
X134446379Y-119619047D02*
X134398760Y-119714285D01*
X134398760Y-119714285D02*
X134351140Y-119761904D01*
X134351140Y-119761904D02*
X134255902Y-119809523D01*
X134255902Y-119809523D02*
X134160664Y-119809523D01*
X134160664Y-119809523D02*
X134065426Y-119761904D01*
X134065426Y-119761904D02*
X134017807Y-119714285D01*
X134017807Y-119714285D02*
X133970188Y-119619047D01*
X133970188Y-119619047D02*
X133922569Y-119428571D01*
X133922569Y-119428571D02*
X133874950Y-119333333D01*
X133874950Y-119333333D02*
X133827331Y-119285714D01*
X133827331Y-119285714D02*
X133732093Y-119238095D01*
X133732093Y-119238095D02*
X133636855Y-119238095D01*
X133636855Y-119238095D02*
X133541617Y-119285714D01*
X133541617Y-119285714D02*
X133493998Y-119333333D01*
X133493998Y-119333333D02*
X133446379Y-119428571D01*
X133446379Y-119428571D02*
X133446379Y-119666666D01*
X133446379Y-119666666D02*
X133493998Y-119809523D01*
X134446379Y-120238095D02*
X133446379Y-120238095D01*
X133446379Y-120238095D02*
X133446379Y-120476190D01*
X133446379Y-120476190D02*
X133493998Y-120619047D01*
X133493998Y-120619047D02*
X133589236Y-120714285D01*
X133589236Y-120714285D02*
X133684474Y-120761904D01*
X133684474Y-120761904D02*
X133874950Y-120809523D01*
X133874950Y-120809523D02*
X134017807Y-120809523D01*
X134017807Y-120809523D02*
X134208283Y-120761904D01*
X134208283Y-120761904D02*
X134303521Y-120714285D01*
X134303521Y-120714285D02*
X134398760Y-120619047D01*
X134398760Y-120619047D02*
X134446379Y-120476190D01*
X134446379Y-120476190D02*
X134446379Y-120238095D01*
X134446379Y-121238095D02*
X133446379Y-121238095D01*
X133446379Y-121238095D02*
X133446379Y-121476190D01*
X133446379Y-121476190D02*
X133493998Y-121619047D01*
X133493998Y-121619047D02*
X133589236Y-121714285D01*
X133589236Y-121714285D02*
X133684474Y-121761904D01*
X133684474Y-121761904D02*
X133874950Y-121809523D01*
X133874950Y-121809523D02*
X134017807Y-121809523D01*
X134017807Y-121809523D02*
X134208283Y-121761904D01*
X134208283Y-121761904D02*
X134303521Y-121714285D01*
X134303521Y-121714285D02*
X134398760Y-121619047D01*
X134398760Y-121619047D02*
X134446379Y-121476190D01*
X134446379Y-121476190D02*
X134446379Y-121238095D01*
X134446379Y-122761904D02*
X134446379Y-122190476D01*
X134446379Y-122476190D02*
X133446379Y-122476190D01*
X133446379Y-122476190D02*
X133589236Y-122380952D01*
X133589236Y-122380952D02*
X133684474Y-122285714D01*
X133684474Y-122285714D02*
X133732093Y-122190476D01*
X136938760Y-119238095D02*
X136986379Y-119380952D01*
X136986379Y-119380952D02*
X136986379Y-119619047D01*
X136986379Y-119619047D02*
X136938760Y-119714285D01*
X136938760Y-119714285D02*
X136891140Y-119761904D01*
X136891140Y-119761904D02*
X136795902Y-119809523D01*
X136795902Y-119809523D02*
X136700664Y-119809523D01*
X136700664Y-119809523D02*
X136605426Y-119761904D01*
X136605426Y-119761904D02*
X136557807Y-119714285D01*
X136557807Y-119714285D02*
X136510188Y-119619047D01*
X136510188Y-119619047D02*
X136462569Y-119428571D01*
X136462569Y-119428571D02*
X136414950Y-119333333D01*
X136414950Y-119333333D02*
X136367331Y-119285714D01*
X136367331Y-119285714D02*
X136272093Y-119238095D01*
X136272093Y-119238095D02*
X136176855Y-119238095D01*
X136176855Y-119238095D02*
X136081617Y-119285714D01*
X136081617Y-119285714D02*
X136033998Y-119333333D01*
X136033998Y-119333333D02*
X135986379Y-119428571D01*
X135986379Y-119428571D02*
X135986379Y-119666666D01*
X135986379Y-119666666D02*
X136033998Y-119809523D01*
X136986379Y-120238095D02*
X135986379Y-120238095D01*
X135986379Y-120238095D02*
X135986379Y-120476190D01*
X135986379Y-120476190D02*
X136033998Y-120619047D01*
X136033998Y-120619047D02*
X136129236Y-120714285D01*
X136129236Y-120714285D02*
X136224474Y-120761904D01*
X136224474Y-120761904D02*
X136414950Y-120809523D01*
X136414950Y-120809523D02*
X136557807Y-120809523D01*
X136557807Y-120809523D02*
X136748283Y-120761904D01*
X136748283Y-120761904D02*
X136843521Y-120714285D01*
X136843521Y-120714285D02*
X136938760Y-120619047D01*
X136938760Y-120619047D02*
X136986379Y-120476190D01*
X136986379Y-120476190D02*
X136986379Y-120238095D01*
X136986379Y-121238095D02*
X135986379Y-121238095D01*
X135986379Y-121238095D02*
X135986379Y-121476190D01*
X135986379Y-121476190D02*
X136033998Y-121619047D01*
X136033998Y-121619047D02*
X136129236Y-121714285D01*
X136129236Y-121714285D02*
X136224474Y-121761904D01*
X136224474Y-121761904D02*
X136414950Y-121809523D01*
X136414950Y-121809523D02*
X136557807Y-121809523D01*
X136557807Y-121809523D02*
X136748283Y-121761904D01*
X136748283Y-121761904D02*
X136843521Y-121714285D01*
X136843521Y-121714285D02*
X136938760Y-121619047D01*
X136938760Y-121619047D02*
X136986379Y-121476190D01*
X136986379Y-121476190D02*
X136986379Y-121238095D01*
X136081617Y-122190476D02*
X136033998Y-122238095D01*
X136033998Y-122238095D02*
X135986379Y-122333333D01*
X135986379Y-122333333D02*
X135986379Y-122571428D01*
X135986379Y-122571428D02*
X136033998Y-122666666D01*
X136033998Y-122666666D02*
X136081617Y-122714285D01*
X136081617Y-122714285D02*
X136176855Y-122761904D01*
X136176855Y-122761904D02*
X136272093Y-122761904D01*
X136272093Y-122761904D02*
X136414950Y-122714285D01*
X136414950Y-122714285D02*
X136986379Y-122142857D01*
X136986379Y-122142857D02*
X136986379Y-122761904D01*
X139478760Y-119238095D02*
X139526379Y-119380952D01*
X139526379Y-119380952D02*
X139526379Y-119619047D01*
X139526379Y-119619047D02*
X139478760Y-119714285D01*
X139478760Y-119714285D02*
X139431140Y-119761904D01*
X139431140Y-119761904D02*
X139335902Y-119809523D01*
X139335902Y-119809523D02*
X139240664Y-119809523D01*
X139240664Y-119809523D02*
X139145426Y-119761904D01*
X139145426Y-119761904D02*
X139097807Y-119714285D01*
X139097807Y-119714285D02*
X139050188Y-119619047D01*
X139050188Y-119619047D02*
X139002569Y-119428571D01*
X139002569Y-119428571D02*
X138954950Y-119333333D01*
X138954950Y-119333333D02*
X138907331Y-119285714D01*
X138907331Y-119285714D02*
X138812093Y-119238095D01*
X138812093Y-119238095D02*
X138716855Y-119238095D01*
X138716855Y-119238095D02*
X138621617Y-119285714D01*
X138621617Y-119285714D02*
X138573998Y-119333333D01*
X138573998Y-119333333D02*
X138526379Y-119428571D01*
X138526379Y-119428571D02*
X138526379Y-119666666D01*
X138526379Y-119666666D02*
X138573998Y-119809523D01*
X139526379Y-120238095D02*
X138526379Y-120238095D01*
X138526379Y-120238095D02*
X138526379Y-120476190D01*
X138526379Y-120476190D02*
X138573998Y-120619047D01*
X138573998Y-120619047D02*
X138669236Y-120714285D01*
X138669236Y-120714285D02*
X138764474Y-120761904D01*
X138764474Y-120761904D02*
X138954950Y-120809523D01*
X138954950Y-120809523D02*
X139097807Y-120809523D01*
X139097807Y-120809523D02*
X139288283Y-120761904D01*
X139288283Y-120761904D02*
X139383521Y-120714285D01*
X139383521Y-120714285D02*
X139478760Y-120619047D01*
X139478760Y-120619047D02*
X139526379Y-120476190D01*
X139526379Y-120476190D02*
X139526379Y-120238095D01*
X139526379Y-121238095D02*
X138526379Y-121238095D01*
X138526379Y-121238095D02*
X138526379Y-121476190D01*
X138526379Y-121476190D02*
X138573998Y-121619047D01*
X138573998Y-121619047D02*
X138669236Y-121714285D01*
X138669236Y-121714285D02*
X138764474Y-121761904D01*
X138764474Y-121761904D02*
X138954950Y-121809523D01*
X138954950Y-121809523D02*
X139097807Y-121809523D01*
X139097807Y-121809523D02*
X139288283Y-121761904D01*
X139288283Y-121761904D02*
X139383521Y-121714285D01*
X139383521Y-121714285D02*
X139478760Y-121619047D01*
X139478760Y-121619047D02*
X139526379Y-121476190D01*
X139526379Y-121476190D02*
X139526379Y-121238095D01*
X138526379Y-122142857D02*
X138526379Y-122761904D01*
X138526379Y-122761904D02*
X138907331Y-122428571D01*
X138907331Y-122428571D02*
X138907331Y-122571428D01*
X138907331Y-122571428D02*
X138954950Y-122666666D01*
X138954950Y-122666666D02*
X139002569Y-122714285D01*
X139002569Y-122714285D02*
X139097807Y-122761904D01*
X139097807Y-122761904D02*
X139335902Y-122761904D01*
X139335902Y-122761904D02*
X139431140Y-122714285D01*
X139431140Y-122714285D02*
X139478760Y-122666666D01*
X139478760Y-122666666D02*
X139526379Y-122571428D01*
X139526379Y-122571428D02*
X139526379Y-122285714D01*
X139526379Y-122285714D02*
X139478760Y-122190476D01*
X139478760Y-122190476D02*
X139431140Y-122142857D01*
X142018760Y-119238095D02*
X142066379Y-119380952D01*
X142066379Y-119380952D02*
X142066379Y-119619047D01*
X142066379Y-119619047D02*
X142018760Y-119714285D01*
X142018760Y-119714285D02*
X141971140Y-119761904D01*
X141971140Y-119761904D02*
X141875902Y-119809523D01*
X141875902Y-119809523D02*
X141780664Y-119809523D01*
X141780664Y-119809523D02*
X141685426Y-119761904D01*
X141685426Y-119761904D02*
X141637807Y-119714285D01*
X141637807Y-119714285D02*
X141590188Y-119619047D01*
X141590188Y-119619047D02*
X141542569Y-119428571D01*
X141542569Y-119428571D02*
X141494950Y-119333333D01*
X141494950Y-119333333D02*
X141447331Y-119285714D01*
X141447331Y-119285714D02*
X141352093Y-119238095D01*
X141352093Y-119238095D02*
X141256855Y-119238095D01*
X141256855Y-119238095D02*
X141161617Y-119285714D01*
X141161617Y-119285714D02*
X141113998Y-119333333D01*
X141113998Y-119333333D02*
X141066379Y-119428571D01*
X141066379Y-119428571D02*
X141066379Y-119666666D01*
X141066379Y-119666666D02*
X141113998Y-119809523D01*
X142066379Y-120238095D02*
X141066379Y-120238095D01*
X141066379Y-120238095D02*
X141066379Y-120476190D01*
X141066379Y-120476190D02*
X141113998Y-120619047D01*
X141113998Y-120619047D02*
X141209236Y-120714285D01*
X141209236Y-120714285D02*
X141304474Y-120761904D01*
X141304474Y-120761904D02*
X141494950Y-120809523D01*
X141494950Y-120809523D02*
X141637807Y-120809523D01*
X141637807Y-120809523D02*
X141828283Y-120761904D01*
X141828283Y-120761904D02*
X141923521Y-120714285D01*
X141923521Y-120714285D02*
X142018760Y-120619047D01*
X142018760Y-120619047D02*
X142066379Y-120476190D01*
X142066379Y-120476190D02*
X142066379Y-120238095D01*
X142066379Y-121238095D02*
X141066379Y-121238095D01*
X141066379Y-121238095D02*
X141066379Y-121476190D01*
X141066379Y-121476190D02*
X141113998Y-121619047D01*
X141113998Y-121619047D02*
X141209236Y-121714285D01*
X141209236Y-121714285D02*
X141304474Y-121761904D01*
X141304474Y-121761904D02*
X141494950Y-121809523D01*
X141494950Y-121809523D02*
X141637807Y-121809523D01*
X141637807Y-121809523D02*
X141828283Y-121761904D01*
X141828283Y-121761904D02*
X141923521Y-121714285D01*
X141923521Y-121714285D02*
X142018760Y-121619047D01*
X142018760Y-121619047D02*
X142066379Y-121476190D01*
X142066379Y-121476190D02*
X142066379Y-121238095D01*
X141399712Y-122666666D02*
X142066379Y-122666666D01*
X141018760Y-122428571D02*
X141733045Y-122190476D01*
X141733045Y-122190476D02*
X141733045Y-122809523D01*
X144558760Y-119238095D02*
X144606379Y-119380952D01*
X144606379Y-119380952D02*
X144606379Y-119619047D01*
X144606379Y-119619047D02*
X144558760Y-119714285D01*
X144558760Y-119714285D02*
X144511140Y-119761904D01*
X144511140Y-119761904D02*
X144415902Y-119809523D01*
X144415902Y-119809523D02*
X144320664Y-119809523D01*
X144320664Y-119809523D02*
X144225426Y-119761904D01*
X144225426Y-119761904D02*
X144177807Y-119714285D01*
X144177807Y-119714285D02*
X144130188Y-119619047D01*
X144130188Y-119619047D02*
X144082569Y-119428571D01*
X144082569Y-119428571D02*
X144034950Y-119333333D01*
X144034950Y-119333333D02*
X143987331Y-119285714D01*
X143987331Y-119285714D02*
X143892093Y-119238095D01*
X143892093Y-119238095D02*
X143796855Y-119238095D01*
X143796855Y-119238095D02*
X143701617Y-119285714D01*
X143701617Y-119285714D02*
X143653998Y-119333333D01*
X143653998Y-119333333D02*
X143606379Y-119428571D01*
X143606379Y-119428571D02*
X143606379Y-119666666D01*
X143606379Y-119666666D02*
X143653998Y-119809523D01*
X144606379Y-120238095D02*
X143606379Y-120238095D01*
X143606379Y-120238095D02*
X143606379Y-120476190D01*
X143606379Y-120476190D02*
X143653998Y-120619047D01*
X143653998Y-120619047D02*
X143749236Y-120714285D01*
X143749236Y-120714285D02*
X143844474Y-120761904D01*
X143844474Y-120761904D02*
X144034950Y-120809523D01*
X144034950Y-120809523D02*
X144177807Y-120809523D01*
X144177807Y-120809523D02*
X144368283Y-120761904D01*
X144368283Y-120761904D02*
X144463521Y-120714285D01*
X144463521Y-120714285D02*
X144558760Y-120619047D01*
X144558760Y-120619047D02*
X144606379Y-120476190D01*
X144606379Y-120476190D02*
X144606379Y-120238095D01*
X144606379Y-121238095D02*
X143606379Y-121238095D01*
X143606379Y-121238095D02*
X143606379Y-121476190D01*
X143606379Y-121476190D02*
X143653998Y-121619047D01*
X143653998Y-121619047D02*
X143749236Y-121714285D01*
X143749236Y-121714285D02*
X143844474Y-121761904D01*
X143844474Y-121761904D02*
X144034950Y-121809523D01*
X144034950Y-121809523D02*
X144177807Y-121809523D01*
X144177807Y-121809523D02*
X144368283Y-121761904D01*
X144368283Y-121761904D02*
X144463521Y-121714285D01*
X144463521Y-121714285D02*
X144558760Y-121619047D01*
X144558760Y-121619047D02*
X144606379Y-121476190D01*
X144606379Y-121476190D02*
X144606379Y-121238095D01*
X143606379Y-122714285D02*
X143606379Y-122238095D01*
X143606379Y-122238095D02*
X144082569Y-122190476D01*
X144082569Y-122190476D02*
X144034950Y-122238095D01*
X144034950Y-122238095D02*
X143987331Y-122333333D01*
X143987331Y-122333333D02*
X143987331Y-122571428D01*
X143987331Y-122571428D02*
X144034950Y-122666666D01*
X144034950Y-122666666D02*
X144082569Y-122714285D01*
X144082569Y-122714285D02*
X144177807Y-122761904D01*
X144177807Y-122761904D02*
X144415902Y-122761904D01*
X144415902Y-122761904D02*
X144511140Y-122714285D01*
X144511140Y-122714285D02*
X144558760Y-122666666D01*
X144558760Y-122666666D02*
X144606379Y-122571428D01*
X144606379Y-122571428D02*
X144606379Y-122333333D01*
X144606379Y-122333333D02*
X144558760Y-122238095D01*
X144558760Y-122238095D02*
X144511140Y-122190476D01*
X147098760Y-119238095D02*
X147146379Y-119380952D01*
X147146379Y-119380952D02*
X147146379Y-119619047D01*
X147146379Y-119619047D02*
X147098760Y-119714285D01*
X147098760Y-119714285D02*
X147051140Y-119761904D01*
X147051140Y-119761904D02*
X146955902Y-119809523D01*
X146955902Y-119809523D02*
X146860664Y-119809523D01*
X146860664Y-119809523D02*
X146765426Y-119761904D01*
X146765426Y-119761904D02*
X146717807Y-119714285D01*
X146717807Y-119714285D02*
X146670188Y-119619047D01*
X146670188Y-119619047D02*
X146622569Y-119428571D01*
X146622569Y-119428571D02*
X146574950Y-119333333D01*
X146574950Y-119333333D02*
X146527331Y-119285714D01*
X146527331Y-119285714D02*
X146432093Y-119238095D01*
X146432093Y-119238095D02*
X146336855Y-119238095D01*
X146336855Y-119238095D02*
X146241617Y-119285714D01*
X146241617Y-119285714D02*
X146193998Y-119333333D01*
X146193998Y-119333333D02*
X146146379Y-119428571D01*
X146146379Y-119428571D02*
X146146379Y-119666666D01*
X146146379Y-119666666D02*
X146193998Y-119809523D01*
X147146379Y-120238095D02*
X146146379Y-120238095D01*
X146146379Y-120238095D02*
X146146379Y-120476190D01*
X146146379Y-120476190D02*
X146193998Y-120619047D01*
X146193998Y-120619047D02*
X146289236Y-120714285D01*
X146289236Y-120714285D02*
X146384474Y-120761904D01*
X146384474Y-120761904D02*
X146574950Y-120809523D01*
X146574950Y-120809523D02*
X146717807Y-120809523D01*
X146717807Y-120809523D02*
X146908283Y-120761904D01*
X146908283Y-120761904D02*
X147003521Y-120714285D01*
X147003521Y-120714285D02*
X147098760Y-120619047D01*
X147098760Y-120619047D02*
X147146379Y-120476190D01*
X147146379Y-120476190D02*
X147146379Y-120238095D01*
X147146379Y-121238095D02*
X146146379Y-121238095D01*
X146146379Y-121238095D02*
X146146379Y-121476190D01*
X146146379Y-121476190D02*
X146193998Y-121619047D01*
X146193998Y-121619047D02*
X146289236Y-121714285D01*
X146289236Y-121714285D02*
X146384474Y-121761904D01*
X146384474Y-121761904D02*
X146574950Y-121809523D01*
X146574950Y-121809523D02*
X146717807Y-121809523D01*
X146717807Y-121809523D02*
X146908283Y-121761904D01*
X146908283Y-121761904D02*
X147003521Y-121714285D01*
X147003521Y-121714285D02*
X147098760Y-121619047D01*
X147098760Y-121619047D02*
X147146379Y-121476190D01*
X147146379Y-121476190D02*
X147146379Y-121238095D01*
X146146379Y-122666666D02*
X146146379Y-122476190D01*
X146146379Y-122476190D02*
X146193998Y-122380952D01*
X146193998Y-122380952D02*
X146241617Y-122333333D01*
X146241617Y-122333333D02*
X146384474Y-122238095D01*
X146384474Y-122238095D02*
X146574950Y-122190476D01*
X146574950Y-122190476D02*
X146955902Y-122190476D01*
X146955902Y-122190476D02*
X147051140Y-122238095D01*
X147051140Y-122238095D02*
X147098760Y-122285714D01*
X147098760Y-122285714D02*
X147146379Y-122380952D01*
X147146379Y-122380952D02*
X147146379Y-122571428D01*
X147146379Y-122571428D02*
X147098760Y-122666666D01*
X147098760Y-122666666D02*
X147051140Y-122714285D01*
X147051140Y-122714285D02*
X146955902Y-122761904D01*
X146955902Y-122761904D02*
X146717807Y-122761904D01*
X146717807Y-122761904D02*
X146622569Y-122714285D01*
X146622569Y-122714285D02*
X146574950Y-122666666D01*
X146574950Y-122666666D02*
X146527331Y-122571428D01*
X146527331Y-122571428D02*
X146527331Y-122380952D01*
X146527331Y-122380952D02*
X146574950Y-122285714D01*
X146574950Y-122285714D02*
X146622569Y-122238095D01*
X146622569Y-122238095D02*
X146717807Y-122190476D01*
X149638760Y-119238095D02*
X149686379Y-119380952D01*
X149686379Y-119380952D02*
X149686379Y-119619047D01*
X149686379Y-119619047D02*
X149638760Y-119714285D01*
X149638760Y-119714285D02*
X149591140Y-119761904D01*
X149591140Y-119761904D02*
X149495902Y-119809523D01*
X149495902Y-119809523D02*
X149400664Y-119809523D01*
X149400664Y-119809523D02*
X149305426Y-119761904D01*
X149305426Y-119761904D02*
X149257807Y-119714285D01*
X149257807Y-119714285D02*
X149210188Y-119619047D01*
X149210188Y-119619047D02*
X149162569Y-119428571D01*
X149162569Y-119428571D02*
X149114950Y-119333333D01*
X149114950Y-119333333D02*
X149067331Y-119285714D01*
X149067331Y-119285714D02*
X148972093Y-119238095D01*
X148972093Y-119238095D02*
X148876855Y-119238095D01*
X148876855Y-119238095D02*
X148781617Y-119285714D01*
X148781617Y-119285714D02*
X148733998Y-119333333D01*
X148733998Y-119333333D02*
X148686379Y-119428571D01*
X148686379Y-119428571D02*
X148686379Y-119666666D01*
X148686379Y-119666666D02*
X148733998Y-119809523D01*
X149686379Y-120238095D02*
X148686379Y-120238095D01*
X148686379Y-120238095D02*
X148686379Y-120476190D01*
X148686379Y-120476190D02*
X148733998Y-120619047D01*
X148733998Y-120619047D02*
X148829236Y-120714285D01*
X148829236Y-120714285D02*
X148924474Y-120761904D01*
X148924474Y-120761904D02*
X149114950Y-120809523D01*
X149114950Y-120809523D02*
X149257807Y-120809523D01*
X149257807Y-120809523D02*
X149448283Y-120761904D01*
X149448283Y-120761904D02*
X149543521Y-120714285D01*
X149543521Y-120714285D02*
X149638760Y-120619047D01*
X149638760Y-120619047D02*
X149686379Y-120476190D01*
X149686379Y-120476190D02*
X149686379Y-120238095D01*
X149686379Y-121238095D02*
X148686379Y-121238095D01*
X148686379Y-121238095D02*
X148686379Y-121476190D01*
X148686379Y-121476190D02*
X148733998Y-121619047D01*
X148733998Y-121619047D02*
X148829236Y-121714285D01*
X148829236Y-121714285D02*
X148924474Y-121761904D01*
X148924474Y-121761904D02*
X149114950Y-121809523D01*
X149114950Y-121809523D02*
X149257807Y-121809523D01*
X149257807Y-121809523D02*
X149448283Y-121761904D01*
X149448283Y-121761904D02*
X149543521Y-121714285D01*
X149543521Y-121714285D02*
X149638760Y-121619047D01*
X149638760Y-121619047D02*
X149686379Y-121476190D01*
X149686379Y-121476190D02*
X149686379Y-121238095D01*
X148686379Y-122142857D02*
X148686379Y-122809523D01*
X148686379Y-122809523D02*
X149686379Y-122380952D01*
X152178759Y-118619048D02*
X152226378Y-118761905D01*
X152226378Y-118761905D02*
X152226378Y-119000000D01*
X152226378Y-119000000D02*
X152178759Y-119095238D01*
X152178759Y-119095238D02*
X152131139Y-119142857D01*
X152131139Y-119142857D02*
X152035901Y-119190476D01*
X152035901Y-119190476D02*
X151940663Y-119190476D01*
X151940663Y-119190476D02*
X151845425Y-119142857D01*
X151845425Y-119142857D02*
X151797806Y-119095238D01*
X151797806Y-119095238D02*
X151750187Y-119000000D01*
X151750187Y-119000000D02*
X151702568Y-118809524D01*
X151702568Y-118809524D02*
X151654949Y-118714286D01*
X151654949Y-118714286D02*
X151607330Y-118666667D01*
X151607330Y-118666667D02*
X151512092Y-118619048D01*
X151512092Y-118619048D02*
X151416854Y-118619048D01*
X151416854Y-118619048D02*
X151321616Y-118666667D01*
X151321616Y-118666667D02*
X151273997Y-118714286D01*
X151273997Y-118714286D02*
X151226378Y-118809524D01*
X151226378Y-118809524D02*
X151226378Y-119047619D01*
X151226378Y-119047619D02*
X151273997Y-119190476D01*
X152226378Y-119619048D02*
X151226378Y-119619048D01*
X151226378Y-119619048D02*
X151226378Y-119857143D01*
X151226378Y-119857143D02*
X151273997Y-120000000D01*
X151273997Y-120000000D02*
X151369235Y-120095238D01*
X151369235Y-120095238D02*
X151464473Y-120142857D01*
X151464473Y-120142857D02*
X151654949Y-120190476D01*
X151654949Y-120190476D02*
X151797806Y-120190476D01*
X151797806Y-120190476D02*
X151988282Y-120142857D01*
X151988282Y-120142857D02*
X152083520Y-120095238D01*
X152083520Y-120095238D02*
X152178759Y-120000000D01*
X152178759Y-120000000D02*
X152226378Y-119857143D01*
X152226378Y-119857143D02*
X152226378Y-119619048D01*
X152226378Y-121190476D02*
X151750187Y-120857143D01*
X152226378Y-120619048D02*
X151226378Y-120619048D01*
X151226378Y-120619048D02*
X151226378Y-121000000D01*
X151226378Y-121000000D02*
X151273997Y-121095238D01*
X151273997Y-121095238D02*
X151321616Y-121142857D01*
X151321616Y-121142857D02*
X151416854Y-121190476D01*
X151416854Y-121190476D02*
X151559711Y-121190476D01*
X151559711Y-121190476D02*
X151654949Y-121142857D01*
X151654949Y-121142857D02*
X151702568Y-121095238D01*
X151702568Y-121095238D02*
X151750187Y-121000000D01*
X151750187Y-121000000D02*
X151750187Y-120619048D01*
X151226378Y-121809524D02*
X151226378Y-122000000D01*
X151226378Y-122000000D02*
X151273997Y-122095238D01*
X151273997Y-122095238D02*
X151369235Y-122190476D01*
X151369235Y-122190476D02*
X151559711Y-122238095D01*
X151559711Y-122238095D02*
X151893044Y-122238095D01*
X151893044Y-122238095D02*
X152083520Y-122190476D01*
X152083520Y-122190476D02*
X152178759Y-122095238D01*
X152178759Y-122095238D02*
X152226378Y-122000000D01*
X152226378Y-122000000D02*
X152226378Y-121809524D01*
X152226378Y-121809524D02*
X152178759Y-121714286D01*
X152178759Y-121714286D02*
X152083520Y-121619048D01*
X152083520Y-121619048D02*
X151893044Y-121571429D01*
X151893044Y-121571429D02*
X151559711Y-121571429D01*
X151559711Y-121571429D02*
X151369235Y-121619048D01*
X151369235Y-121619048D02*
X151273997Y-121714286D01*
X151273997Y-121714286D02*
X151226378Y-121809524D01*
X152226378Y-122666667D02*
X151226378Y-122666667D01*
X151226378Y-122666667D02*
X151940663Y-123000000D01*
X151940663Y-123000000D02*
X151226378Y-123333333D01*
X151226378Y-123333333D02*
X152226378Y-123333333D01*
X154718760Y-118833333D02*
X154766379Y-118976190D01*
X154766379Y-118976190D02*
X154766379Y-119214285D01*
X154766379Y-119214285D02*
X154718760Y-119309523D01*
X154718760Y-119309523D02*
X154671140Y-119357142D01*
X154671140Y-119357142D02*
X154575902Y-119404761D01*
X154575902Y-119404761D02*
X154480664Y-119404761D01*
X154480664Y-119404761D02*
X154385426Y-119357142D01*
X154385426Y-119357142D02*
X154337807Y-119309523D01*
X154337807Y-119309523D02*
X154290188Y-119214285D01*
X154290188Y-119214285D02*
X154242569Y-119023809D01*
X154242569Y-119023809D02*
X154194950Y-118928571D01*
X154194950Y-118928571D02*
X154147331Y-118880952D01*
X154147331Y-118880952D02*
X154052093Y-118833333D01*
X154052093Y-118833333D02*
X153956855Y-118833333D01*
X153956855Y-118833333D02*
X153861617Y-118880952D01*
X153861617Y-118880952D02*
X153813998Y-118928571D01*
X153813998Y-118928571D02*
X153766379Y-119023809D01*
X153766379Y-119023809D02*
X153766379Y-119261904D01*
X153766379Y-119261904D02*
X153813998Y-119404761D01*
X154766379Y-119833333D02*
X153766379Y-119833333D01*
X153766379Y-119833333D02*
X153766379Y-120071428D01*
X153766379Y-120071428D02*
X153813998Y-120214285D01*
X153813998Y-120214285D02*
X153909236Y-120309523D01*
X153909236Y-120309523D02*
X154004474Y-120357142D01*
X154004474Y-120357142D02*
X154194950Y-120404761D01*
X154194950Y-120404761D02*
X154337807Y-120404761D01*
X154337807Y-120404761D02*
X154528283Y-120357142D01*
X154528283Y-120357142D02*
X154623521Y-120309523D01*
X154623521Y-120309523D02*
X154718760Y-120214285D01*
X154718760Y-120214285D02*
X154766379Y-120071428D01*
X154766379Y-120071428D02*
X154766379Y-119833333D01*
X154480664Y-120785714D02*
X154480664Y-121261904D01*
X154766379Y-120690476D02*
X153766379Y-121023809D01*
X153766379Y-121023809D02*
X154766379Y-121357142D01*
X154766379Y-122214285D02*
X154766379Y-121642857D01*
X154766379Y-121928571D02*
X153766379Y-121928571D01*
X153766379Y-121928571D02*
X153909236Y-121833333D01*
X153909236Y-121833333D02*
X154004474Y-121738095D01*
X154004474Y-121738095D02*
X154052093Y-121642857D01*
X153766379Y-123119047D02*
X153766379Y-122642857D01*
X153766379Y-122642857D02*
X154242569Y-122595238D01*
X154242569Y-122595238D02*
X154194950Y-122642857D01*
X154194950Y-122642857D02*
X154147331Y-122738095D01*
X154147331Y-122738095D02*
X154147331Y-122976190D01*
X154147331Y-122976190D02*
X154194950Y-123071428D01*
X154194950Y-123071428D02*
X154242569Y-123119047D01*
X154242569Y-123119047D02*
X154337807Y-123166666D01*
X154337807Y-123166666D02*
X154575902Y-123166666D01*
X154575902Y-123166666D02*
X154671140Y-123119047D01*
X154671140Y-123119047D02*
X154718760Y-123071428D01*
X154718760Y-123071428D02*
X154766379Y-122976190D01*
X154766379Y-122976190D02*
X154766379Y-122738095D01*
X154766379Y-122738095D02*
X154718760Y-122642857D01*
X154718760Y-122642857D02*
X154671140Y-122595238D01*
X156353998Y-120238095D02*
X156306379Y-120142857D01*
X156306379Y-120142857D02*
X156306379Y-120000000D01*
X156306379Y-120000000D02*
X156353998Y-119857143D01*
X156353998Y-119857143D02*
X156449236Y-119761905D01*
X156449236Y-119761905D02*
X156544474Y-119714286D01*
X156544474Y-119714286D02*
X156734950Y-119666667D01*
X156734950Y-119666667D02*
X156877807Y-119666667D01*
X156877807Y-119666667D02*
X157068283Y-119714286D01*
X157068283Y-119714286D02*
X157163521Y-119761905D01*
X157163521Y-119761905D02*
X157258760Y-119857143D01*
X157258760Y-119857143D02*
X157306379Y-120000000D01*
X157306379Y-120000000D02*
X157306379Y-120095238D01*
X157306379Y-120095238D02*
X157258760Y-120238095D01*
X157258760Y-120238095D02*
X157211140Y-120285714D01*
X157211140Y-120285714D02*
X156877807Y-120285714D01*
X156877807Y-120285714D02*
X156877807Y-120095238D01*
X157306379Y-120714286D02*
X156306379Y-120714286D01*
X156306379Y-120714286D02*
X157306379Y-121285714D01*
X157306379Y-121285714D02*
X156306379Y-121285714D01*
X157306379Y-121761905D02*
X156306379Y-121761905D01*
X156306379Y-121761905D02*
X156306379Y-122000000D01*
X156306379Y-122000000D02*
X156353998Y-122142857D01*
X156353998Y-122142857D02*
X156449236Y-122238095D01*
X156449236Y-122238095D02*
X156544474Y-122285714D01*
X156544474Y-122285714D02*
X156734950Y-122333333D01*
X156734950Y-122333333D02*
X156877807Y-122333333D01*
X156877807Y-122333333D02*
X157068283Y-122285714D01*
X157068283Y-122285714D02*
X157163521Y-122238095D01*
X157163521Y-122238095D02*
X157258760Y-122142857D01*
X157258760Y-122142857D02*
X157306379Y-122000000D01*
X157306379Y-122000000D02*
X157306379Y-121761905D01*
X158893998Y-120238095D02*
X158846379Y-120142857D01*
X158846379Y-120142857D02*
X158846379Y-120000000D01*
X158846379Y-120000000D02*
X158893998Y-119857143D01*
X158893998Y-119857143D02*
X158989236Y-119761905D01*
X158989236Y-119761905D02*
X159084474Y-119714286D01*
X159084474Y-119714286D02*
X159274950Y-119666667D01*
X159274950Y-119666667D02*
X159417807Y-119666667D01*
X159417807Y-119666667D02*
X159608283Y-119714286D01*
X159608283Y-119714286D02*
X159703521Y-119761905D01*
X159703521Y-119761905D02*
X159798760Y-119857143D01*
X159798760Y-119857143D02*
X159846379Y-120000000D01*
X159846379Y-120000000D02*
X159846379Y-120095238D01*
X159846379Y-120095238D02*
X159798760Y-120238095D01*
X159798760Y-120238095D02*
X159751140Y-120285714D01*
X159751140Y-120285714D02*
X159417807Y-120285714D01*
X159417807Y-120285714D02*
X159417807Y-120095238D01*
X159846379Y-120714286D02*
X158846379Y-120714286D01*
X158846379Y-120714286D02*
X159846379Y-121285714D01*
X159846379Y-121285714D02*
X158846379Y-121285714D01*
X159846379Y-121761905D02*
X158846379Y-121761905D01*
X158846379Y-121761905D02*
X158846379Y-122000000D01*
X158846379Y-122000000D02*
X158893998Y-122142857D01*
X158893998Y-122142857D02*
X158989236Y-122238095D01*
X158989236Y-122238095D02*
X159084474Y-122285714D01*
X159084474Y-122285714D02*
X159274950Y-122333333D01*
X159274950Y-122333333D02*
X159417807Y-122333333D01*
X159417807Y-122333333D02*
X159608283Y-122285714D01*
X159608283Y-122285714D02*
X159703521Y-122238095D01*
X159703521Y-122238095D02*
X159798760Y-122142857D01*
X159798760Y-122142857D02*
X159846379Y-122000000D01*
X159846379Y-122000000D02*
X159846379Y-121761905D01*
X161433998Y-120238095D02*
X161386379Y-120142857D01*
X161386379Y-120142857D02*
X161386379Y-120000000D01*
X161386379Y-120000000D02*
X161433998Y-119857143D01*
X161433998Y-119857143D02*
X161529236Y-119761905D01*
X161529236Y-119761905D02*
X161624474Y-119714286D01*
X161624474Y-119714286D02*
X161814950Y-119666667D01*
X161814950Y-119666667D02*
X161957807Y-119666667D01*
X161957807Y-119666667D02*
X162148283Y-119714286D01*
X162148283Y-119714286D02*
X162243521Y-119761905D01*
X162243521Y-119761905D02*
X162338760Y-119857143D01*
X162338760Y-119857143D02*
X162386379Y-120000000D01*
X162386379Y-120000000D02*
X162386379Y-120095238D01*
X162386379Y-120095238D02*
X162338760Y-120238095D01*
X162338760Y-120238095D02*
X162291140Y-120285714D01*
X162291140Y-120285714D02*
X161957807Y-120285714D01*
X161957807Y-120285714D02*
X161957807Y-120095238D01*
X162386379Y-120714286D02*
X161386379Y-120714286D01*
X161386379Y-120714286D02*
X162386379Y-121285714D01*
X162386379Y-121285714D02*
X161386379Y-121285714D01*
X162386379Y-121761905D02*
X161386379Y-121761905D01*
X161386379Y-121761905D02*
X161386379Y-122000000D01*
X161386379Y-122000000D02*
X161433998Y-122142857D01*
X161433998Y-122142857D02*
X161529236Y-122238095D01*
X161529236Y-122238095D02*
X161624474Y-122285714D01*
X161624474Y-122285714D02*
X161814950Y-122333333D01*
X161814950Y-122333333D02*
X161957807Y-122333333D01*
X161957807Y-122333333D02*
X162148283Y-122285714D01*
X162148283Y-122285714D02*
X162243521Y-122238095D01*
X162243521Y-122238095D02*
X162338760Y-122142857D01*
X162338760Y-122142857D02*
X162386379Y-122000000D01*
X162386379Y-122000000D02*
X162386379Y-121761905D01*
M02*
