%TF.GenerationSoftware,KiCad,Pcbnew,9.0.8+dfsg-1*%
%TF.CreationDate,2026-04-29T22:30:23+02:00*%
%TF.ProjectId,cha_adapter_routed,6368615f-6164-4617-9074-65725f726f75,rev?*%
%TF.SameCoordinates,Original*%
%TF.FileFunction,Copper,L2,Bot*%
%TF.FilePolarity,Positive*%
%FSLAX46Y46*%
G04 Gerber Fmt 4.6, Leading zero omitted, Abs format (unit mm)*
G04 Created by KiCad (PCBNEW 9.0.8+dfsg-1) date 2026-04-29 22:30:23*
%MOMM*%
%LPD*%
G01*
G04 APERTURE LIST*
%TA.AperFunction,ComponentPad*%
%ADD10R,1.700000X1.700000*%
%TD*%
%TA.AperFunction,ComponentPad*%
%ADD11C,1.700000*%
%TD*%
%TA.AperFunction,SMDPad,CuDef*%
%ADD12R,1.500000X10.000000*%
%TD*%
%TA.AperFunction,ViaPad*%
%ADD13C,0.600000*%
%TD*%
%TA.AperFunction,Conductor*%
%ADD14C,0.200000*%
%TD*%
G04 APERTURE END LIST*
D10*
%TO.P,J2,1*%
%TO.N,VCC_3V3*%
X87000000Y-7000000D03*
D11*
%TO.P,J2,2*%
X89540000Y-7000000D03*
%TO.P,J2,3*%
%TO.N,VCC_5V*%
X87000000Y-9540000D03*
%TO.P,J2,4*%
X89540000Y-9540000D03*
%TO.P,J2,5*%
%TO.N,GND*%
X87000000Y-12080000D03*
%TO.P,J2,6*%
X89540000Y-12080000D03*
%TO.P,J2,7*%
X87000000Y-14620000D03*
%TO.P,J2,8*%
X89540000Y-14620000D03*
%TO.P,J2,9*%
%TO.N,CR0*%
X87000000Y-17160000D03*
%TO.P,J2,10*%
%TO.N,CR1*%
X89540000Y-17160000D03*
%TO.P,J2,11*%
%TO.N,CR2*%
X87000000Y-19700000D03*
%TO.P,J2,12*%
%TO.N,CR3*%
X89540000Y-19700000D03*
%TO.P,J2,13*%
%TO.N,CR4*%
X87000000Y-22240000D03*
%TO.P,J2,14*%
%TO.N,CR5*%
X89540000Y-22240000D03*
%TO.P,J2,15*%
%TO.N,CR6*%
X87000000Y-24780000D03*
%TO.P,J2,16*%
%TO.N,CR7*%
X89540000Y-24780000D03*
%TO.P,J2,17*%
%TO.N,CR8*%
X87000000Y-27320000D03*
%TO.P,J2,18*%
%TO.N,CR9*%
X89540000Y-27320000D03*
%TO.P,J2,19*%
%TO.N,CR10*%
X87000000Y-29860000D03*
%TO.P,J2,20*%
%TO.N,CR11*%
X89540000Y-29860000D03*
%TO.P,J2,21*%
%TO.N,CR12*%
X87000000Y-32400000D03*
%TO.P,J2,22*%
%TO.N,CR13*%
X89540000Y-32400000D03*
%TO.P,J2,23*%
%TO.N,CR14*%
X87000000Y-34940000D03*
%TO.P,J2,24*%
%TO.N,CR15*%
X89540000Y-34940000D03*
%TO.P,J2,25*%
%TO.N,CR16*%
X87000000Y-37480000D03*
%TO.P,J2,26*%
%TO.N,CR17*%
X89540000Y-37480000D03*
%TO.P,J2,27*%
%TO.N,CR18*%
X87000000Y-40020000D03*
%TO.P,J2,28*%
%TO.N,CR19*%
X89540000Y-40020000D03*
%TO.P,J2,29*%
%TO.N,CR20*%
X87000000Y-42560000D03*
%TO.P,J2,30*%
%TO.N,CR21*%
X89540000Y-42560000D03*
%TO.P,J2,31*%
%TO.N,CR22*%
X87000000Y-45100000D03*
%TO.P,J2,32*%
%TO.N,CR23*%
X89540000Y-45100000D03*
%TO.P,J2,33*%
%TO.N,CR24*%
X87000000Y-47640000D03*
%TO.P,J2,34*%
%TO.N,CR25*%
X89540000Y-47640000D03*
%TO.P,J2,35*%
%TO.N,CR26*%
X87000000Y-50180000D03*
%TO.P,J2,36*%
%TO.N,CR27*%
X89540000Y-50180000D03*
%TO.P,J2,37*%
%TO.N,CR28*%
X87000000Y-52720000D03*
%TO.P,J2,38*%
%TO.N,CR29*%
X89540000Y-52720000D03*
%TO.P,J2,39*%
%TO.N,CR30*%
X87000000Y-55260000D03*
%TO.P,J2,40*%
%TO.N,CR31*%
X89540000Y-55260000D03*
%TO.P,J2,41*%
%TO.N,SDD0*%
X87000000Y-57800000D03*
%TO.P,J2,42*%
%TO.N,SDD1*%
X89540000Y-57800000D03*
%TO.P,J2,43*%
%TO.N,SDD2*%
X87000000Y-60340000D03*
%TO.P,J2,44*%
%TO.N,SDD3*%
X89540000Y-60340000D03*
%TO.P,J2,45*%
%TO.N,SDD4*%
X87000000Y-62880000D03*
%TO.P,J2,46*%
%TO.N,SDD5*%
X89540000Y-62880000D03*
%TO.P,J2,47*%
%TO.N,SDD6*%
X87000000Y-65420000D03*
%TO.P,J2,48*%
%TO.N,SDD7*%
X89540000Y-65420000D03*
%TO.P,J2,49*%
%TO.N,FIX0*%
X87000000Y-67960000D03*
%TO.P,J2,50*%
%TO.N,FIX1*%
X89540000Y-67960000D03*
%TO.P,J2,51*%
%TO.N,FIX2*%
X87000000Y-70500000D03*
%TO.P,J2,52*%
%TO.N,FIX3*%
X89540000Y-70500000D03*
%TO.P,J2,53*%
%TO.N,FIX4*%
X87000000Y-73040000D03*
%TO.P,J2,54*%
%TO.N,FIX5*%
X89540000Y-73040000D03*
%TO.P,J2,55*%
%TO.N,FIX6*%
X87000000Y-75580000D03*
%TO.P,J2,56*%
%TO.N,FIX7*%
X89540000Y-75580000D03*
%TO.P,J2,57*%
%TO.N,SER_C*%
X87000000Y-78120000D03*
%TO.P,J2,58*%
%TO.N,CLK_C*%
X89540000Y-78120000D03*
%TO.P,J2,59*%
%TO.N,LOAD_C*%
X87000000Y-80660000D03*
%TO.P,J2,60*%
%TO.N,SER_S*%
X89540000Y-80660000D03*
%TO.P,J2,61*%
%TO.N,CLK_S*%
X87000000Y-83200000D03*
%TO.P,J2,62*%
%TO.N,LOAD_S*%
X89540000Y-83200000D03*
%TO.P,J2,63*%
%TO.N,PCK1B*%
X87000000Y-85740000D03*
%TO.P,J2,64*%
%TO.N,PCK2B*%
X89540000Y-85740000D03*
%TO.P,J2,65*%
%TO.N,CLK24M*%
X87000000Y-88280000D03*
%TO.P,J2,66*%
%TO.N,CLK12M*%
X89540000Y-88280000D03*
%TO.P,J2,67*%
%TO.N,CLK8M*%
X87000000Y-90820000D03*
%TO.P,J2,68*%
%TO.N,SIG_2H1*%
X89540000Y-90820000D03*
%TO.P,J2,69*%
%TO.N,CHA_CA4*%
X87000000Y-93360000D03*
%TO.P,J2,70*%
%TO.N,SYSTEMB*%
X89540000Y-93360000D03*
%TO.P,J2,71*%
%TO.N,SDMRD_CHA*%
X87000000Y-95900000D03*
%TO.P,J2,72*%
%TO.N,SDROM*%
X89540000Y-95900000D03*
%TO.P,J2,73*%
%TO.N,RESET_CHA*%
X87000000Y-98440000D03*
%TO.P,J2,74*%
%TO.N,GND*%
X89540000Y-98440000D03*
%TO.P,J2,75*%
X87000000Y-100980000D03*
%TO.P,J2,76*%
X89540000Y-100980000D03*
%TO.P,J2,77*%
X87000000Y-103520000D03*
%TO.P,J2,78*%
X89540000Y-103520000D03*
%TO.P,J2,79*%
X87000000Y-106060000D03*
%TO.P,J2,80*%
X89540000Y-106060000D03*
%TD*%
D12*
%TO.P,CTRG1,B1*%
%TO.N,GND*%
X12069999Y-129000000D03*
%TO.P,CTRG1,B2*%
X14609999Y-129000000D03*
%TO.P,CTRG1,B3*%
%TO.N,P1*%
X17149999Y-129000000D03*
%TO.P,CTRG1,B4*%
%TO.N,P3*%
X19689999Y-129000000D03*
%TO.P,CTRG1,B5*%
%TO.N,P5*%
X22229999Y-129000000D03*
%TO.P,CTRG1,B6*%
%TO.N,P7*%
X24769999Y-129000000D03*
%TO.P,CTRG1,B7*%
%TO.N,P9*%
X27309999Y-129000000D03*
%TO.P,CTRG1,B8*%
%TO.N,P11*%
X29849999Y-129000000D03*
%TO.P,CTRG1,B9*%
%TO.N,P13*%
X32389999Y-129000000D03*
%TO.P,CTRG1,B10*%
%TO.N,P15*%
X34929999Y-129000000D03*
%TO.P,CTRG1,B11*%
%TO.N,P17*%
X37469999Y-129000000D03*
%TO.P,CTRG1,B12*%
%TO.N,P19*%
X40009999Y-129000000D03*
%TO.P,CTRG1,B13*%
%TO.N,P21*%
X42549999Y-129000000D03*
%TO.P,CTRG1,B14*%
%TO.N,P23*%
X45089999Y-129000000D03*
%TO.P,CTRG1,B15*%
%TO.N,CLK24M*%
X47629999Y-129000000D03*
%TO.P,CTRG1,B16*%
%TO.N,CLK12M*%
X50169999Y-129000000D03*
%TO.P,CTRG1,B17*%
%TO.N,CLK8M*%
X52709999Y-129000000D03*
%TO.P,CTRG1,B18*%
%TO.N,RESET_CHA*%
X55249999Y-129000000D03*
%TO.P,CTRG1,B19*%
%TO.N,CR1*%
X57789999Y-129000000D03*
%TO.P,CTRG1,B20*%
%TO.N,CR3*%
X60329999Y-129000000D03*
%TO.P,CTRG1,B21*%
%TO.N,CR5*%
X62869999Y-129000000D03*
%TO.P,CTRG1,B22*%
%TO.N,CR7*%
X65409999Y-129000000D03*
%TO.P,CTRG1,B23*%
%TO.N,CR9*%
X67949999Y-129000000D03*
%TO.P,CTRG1,B24*%
%TO.N,CR11*%
X70489999Y-129000000D03*
%TO.P,CTRG1,B25*%
%TO.N,CR13*%
X73029999Y-129000000D03*
%TO.P,CTRG1,B26*%
%TO.N,CR15*%
X75569999Y-129000000D03*
%TO.P,CTRG1,B27*%
%TO.N,CR17*%
X78109999Y-129000000D03*
%TO.P,CTRG1,B28*%
%TO.N,CR19*%
X80649999Y-129000000D03*
%TO.P,CTRG1,B29*%
%TO.N,VCC_5V*%
X83189999Y-129000000D03*
%TO.P,CTRG1,B30*%
X85729999Y-129000000D03*
%TO.P,CTRG1,B31*%
X88269999Y-129000000D03*
%TO.P,CTRG1,B32*%
X90809999Y-129000000D03*
%TO.P,CTRG1,B33*%
%TO.N,CR21*%
X93349999Y-129000000D03*
%TO.P,CTRG1,B34*%
%TO.N,CR23*%
X95889999Y-129000000D03*
%TO.P,CTRG1,B35*%
%TO.N,CR25*%
X98429999Y-129000000D03*
%TO.P,CTRG1,B36*%
%TO.N,CR27*%
X100969999Y-129000000D03*
%TO.P,CTRG1,B37*%
%TO.N,CR29*%
X103509999Y-129000000D03*
%TO.P,CTRG1,B38*%
%TO.N,CR31*%
X106049999Y-129000000D03*
%TO.P,CTRG1,B39*%
%TO.N,FIX0*%
X108589999Y-129000000D03*
%TO.P,CTRG1,B40*%
%TO.N,FIX1*%
X111129999Y-129000000D03*
%TO.P,CTRG1,B41*%
%TO.N,FIX2*%
X113669999Y-129000000D03*
%TO.P,CTRG1,B42*%
%TO.N,FIX3*%
X116209999Y-129000000D03*
%TO.P,CTRG1,B43*%
%TO.N,FIX4*%
X118749999Y-129000000D03*
%TO.P,CTRG1,B44*%
%TO.N,FIX5*%
X121289999Y-129000000D03*
%TO.P,CTRG1,B45*%
%TO.N,FIX6*%
X123829999Y-129000000D03*
%TO.P,CTRG1,B46*%
%TO.N,FIX7*%
X126369999Y-129000000D03*
%TO.P,CTRG1,B47*%
%TO.N,SDMRD_CHA*%
X128909999Y-129000000D03*
%TO.P,CTRG1,B48*%
%TO.N,SDD0*%
X131449999Y-129000000D03*
%TO.P,CTRG1,B49*%
%TO.N,SDD1*%
X133989999Y-129000000D03*
%TO.P,CTRG1,B50*%
%TO.N,SDD2*%
X136529999Y-129000000D03*
%TO.P,CTRG1,B51*%
%TO.N,SDD3*%
X139069999Y-129000000D03*
%TO.P,CTRG1,B52*%
%TO.N,SDD4*%
X141609998Y-129000000D03*
%TO.P,CTRG1,B53*%
%TO.N,SDD5*%
X144149999Y-129000000D03*
%TO.P,CTRG1,B54*%
%TO.N,SDD6*%
X146689999Y-129000000D03*
%TO.P,CTRG1,B55*%
%TO.N,SDD7*%
X149229999Y-129000000D03*
%TO.P,CTRG1,B56*%
%TO.N,SDROM*%
X151769999Y-129000000D03*
%TO.P,CTRG1,B57*%
%TO.N,SDA15*%
X154309999Y-129000000D03*
%TO.P,CTRG1,B58*%
%TO.N,GND*%
X156849999Y-129000000D03*
%TO.P,CTRG1,B59*%
X159389999Y-129000000D03*
%TO.P,CTRG1,B60*%
X161929999Y-129000000D03*
%TD*%
D13*
%TO.N,GND*%
X119868500Y-119795000D03*
X46994800Y-84133900D03*
X160659900Y-127674500D03*
X113480000Y-31506100D03*
X13340100Y-126349100D03*
X85431500Y-84529400D03*
X15950000Y-84372600D03*
X41600100Y-83144600D03*
X92645000Y-97034200D03*
%TO.N,VCC_5V*%
X59508700Y-111058300D03*
X60489400Y-118696700D03*
X60341200Y-69982600D03*
X122474300Y-49104400D03*
X14050000Y-111245700D03*
X112520000Y-49104400D03*
X47520000Y-70837000D03*
X60341200Y-49406500D03*
X57343600Y-9540000D03*
X57475000Y-49696500D03*
X84459900Y-126349100D03*
X55655900Y-69982600D03*
%TO.N,CR1*%
X57167500Y-123159300D03*
%TO.N,CR3*%
X61329300Y-123330300D03*
%TO.N,CR5*%
X61092200Y-23510000D03*
X59720000Y-119643900D03*
%TO.N,CR7*%
X66680000Y-123698300D03*
%TO.N,CR9*%
X69220000Y-123698300D03*
%TO.N,CR11*%
X71760000Y-123698300D03*
%TO.N,CR13*%
X74300000Y-123698300D03*
%TO.N,CR15*%
X76669800Y-123626400D03*
%TO.N,CR17*%
X78892200Y-123447600D03*
%TO.N,CR19*%
X81713800Y-123595100D03*
%TO.N,CR21*%
X93817200Y-123463700D03*
%TO.N,CR23*%
X83720700Y-49279600D03*
X94686000Y-123698300D03*
%TO.N,CR25*%
X98101700Y-123005900D03*
%TO.N,CR27*%
X82315500Y-51450000D03*
X82315500Y-122358300D03*
%TO.N,CR29*%
X104780000Y-123698300D03*
%TO.N,CR30*%
X90953500Y-57215000D03*
%TO.N,CR31*%
X107320000Y-123698300D03*
%TO.N,SDD0*%
X104044800Y-110010900D03*
%TO.N,SDD1*%
X132595800Y-57823500D03*
X132595800Y-123085400D03*
%TO.N,SDD2*%
X131984600Y-121824400D03*
X124878200Y-59978400D03*
%TO.N,SDD3*%
X137800000Y-123698300D03*
X137800000Y-60580100D03*
%TO.N,SDD4*%
X140340000Y-66076600D03*
X140340000Y-127730000D03*
%TO.N,SDD5*%
X142880000Y-127730000D03*
X142880000Y-66746100D03*
%TO.N,SDD6*%
X145420000Y-72773800D03*
X145420000Y-123698300D03*
%TO.N,SDD7*%
X104446500Y-110823900D03*
%TO.N,FIX0*%
X103521500Y-121224700D03*
%TO.N,FIX1*%
X109860000Y-127730000D03*
X109860000Y-73577200D03*
%TO.N,FIX2*%
X105750000Y-73832600D03*
X105751600Y-122274100D03*
%TO.N,FIX3*%
X103930800Y-122652900D03*
%TO.N,FIX4*%
X110558800Y-74534700D03*
X117245200Y-123458500D03*
%TO.N,FIX5*%
X101884900Y-121728400D03*
%TO.N,FIX6*%
X96492900Y-120585600D03*
%TO.N,FIX7*%
X98600300Y-119837000D03*
%TO.N,P0*%
X17150000Y-111732700D03*
X50000000Y-111732700D03*
%TO.N,P1*%
X77282700Y-93830100D03*
%TO.N,P3*%
X20498200Y-123468500D03*
%TO.N,P5*%
X21555600Y-122949500D03*
%TO.N,P7*%
X24770000Y-123485600D03*
%TO.N,P9*%
X27310000Y-122813800D03*
%TO.N,P11*%
X29173100Y-123467300D03*
%TO.N,P13*%
X33769000Y-120849700D03*
%TO.N,P15*%
X35552500Y-123159300D03*
%TO.N,P17*%
X31563500Y-116694000D03*
%TO.N,P19*%
X40010000Y-123468500D03*
%TO.N,P21*%
X42550000Y-123468500D03*
%TO.N,P23*%
X44412000Y-123468500D03*
%TO.N,P0_R*%
X55225800Y-70686500D03*
X49180600Y-70776100D03*
%TO.N,P1_R*%
X53469100Y-49615500D03*
X78172100Y-48790400D03*
%TO.N,P3_R*%
X55776000Y-55700300D03*
X21417700Y-62013300D03*
%TO.N,P5_R*%
X56107100Y-61267600D03*
X22230000Y-61267600D03*
%TO.N,P6_R*%
X33774500Y-47934800D03*
X34931100Y-53198200D03*
%TO.N,P7_R*%
X28146300Y-60561000D03*
X58967200Y-56778100D03*
%TO.N,P9_R*%
X46688700Y-82890800D03*
X26671900Y-82542900D03*
%TO.N,P10_R*%
X40232500Y-49615500D03*
X56590700Y-45977900D03*
%TO.N,P11_R*%
X30032500Y-77170000D03*
X50992600Y-77170000D03*
%TO.N,P12_R*%
X44670500Y-46165000D03*
X54984700Y-43099900D03*
%TO.N,P14_R*%
X55343600Y-50906300D03*
X37017000Y-54695600D03*
%TO.N,P19_R*%
X41797200Y-103583200D03*
X55087000Y-103583200D03*
%TO.N,P21_R*%
X55688700Y-102778700D03*
X42550000Y-102778700D03*
%TO.N,P22_R*%
X45478600Y-53220400D03*
X45478600Y-78620900D03*
X54007500Y-53220400D03*
X49551300Y-83945700D03*
%TO.N,P23_R*%
X56300600Y-96821200D03*
X45090000Y-96821200D03*
%TO.N,SDA15*%
X154934000Y-123085400D03*
%TO.N,SDA0_R*%
X110558800Y-45925100D03*
X118802300Y-45925100D03*
%TO.N,SDA4_R*%
X116311700Y-90759200D03*
X126287300Y-91100800D03*
%TO.N,SDA6_R*%
X133990000Y-58272800D03*
X125313300Y-53921400D03*
%TO.N,SDA8_R*%
X118821400Y-96821200D03*
X139070000Y-96821200D03*
%TO.N,SDA9_R*%
X141610000Y-76740700D03*
X116883900Y-76740700D03*
%TO.N,SDA10_R*%
X144150000Y-87078700D03*
X116883900Y-87078700D03*
%TO.N,SDA11_R*%
X146690000Y-81909700D03*
X119423200Y-81909700D03*
%TO.N,SDA12_R*%
X149230000Y-87874300D03*
X115730200Y-87874300D03*
%TO.N,SDA13_R*%
X128322700Y-89737800D03*
X149863000Y-89737800D03*
%TO.N,SDA14_R*%
X129081100Y-90365100D03*
X153393300Y-93838900D03*
%TO.N,SDA15_R*%
X128415900Y-88669900D03*
X154310000Y-88669900D03*
%TO.N,PCK1B*%
X47869800Y-86097200D03*
%TO.N,PCK2B*%
X52194400Y-87101600D03*
%TO.N,SIG_2H1*%
X59563400Y-117197800D03*
%TO.N,CHA_CA4*%
X58467000Y-118737500D03*
%TO.N,SYSTEMB*%
X116590700Y-99803500D03*
%TO.N,SER_C*%
X59050500Y-78927200D03*
%TO.N,CLK_C*%
X52217200Y-62891200D03*
X54015600Y-51523500D03*
%TO.N,LOAD_C*%
X54007700Y-57572100D03*
X54775900Y-54143400D03*
X52525000Y-69184900D03*
%TO.N,SER_S*%
X126629400Y-75945100D03*
%TO.N,CLK_S*%
X115085200Y-81928400D03*
%TO.N,LOAD_S*%
X114444700Y-83200000D03*
%TD*%
D14*
%TO.N,GND*%
X89540000Y-106060000D02*
X87000000Y-106060000D01*
X152845900Y-119795000D02*
X119868500Y-119795000D01*
X161930000Y-129000000D02*
X161930000Y-123698300D01*
X97107700Y-97034200D02*
X92645000Y-97034200D01*
X54301700Y-84372600D02*
X54458500Y-84529400D01*
X14610000Y-126349100D02*
X13340100Y-126349100D01*
X41600100Y-84372600D02*
X46994800Y-84372600D01*
X15950000Y-84372600D02*
X41600100Y-84372600D01*
X159390000Y-127674500D02*
X160659900Y-127674500D01*
X41600100Y-84372600D02*
X41600100Y-83144600D01*
X156850000Y-129000000D02*
X156850000Y-123799100D01*
X159390000Y-126349100D02*
X159390000Y-126339100D01*
X106426100Y-31506100D02*
X113480000Y-31506100D01*
X14610000Y-129000000D02*
X14610000Y-126349100D01*
X46994800Y-84372600D02*
X46994800Y-84133900D01*
X89540000Y-14620000D02*
X106426100Y-31506100D01*
X14610000Y-123698300D02*
X12070000Y-123698300D01*
X89540000Y-100980000D02*
X87000000Y-100980000D01*
X161930000Y-123698300D02*
X159390000Y-123698300D01*
X159390000Y-126349100D02*
X159390000Y-123698300D01*
X159390000Y-129000000D02*
X159390000Y-127674500D01*
X119868500Y-119795000D02*
X97107700Y-97034200D01*
X89540000Y-103520000D02*
X87000000Y-103520000D01*
X12070000Y-129000000D02*
X12070000Y-123698300D01*
X14610000Y-126349100D02*
X14610000Y-123698300D01*
X46994800Y-84372600D02*
X47169600Y-84547400D01*
X54126900Y-84547400D02*
X54301700Y-84372600D01*
X89540000Y-14620000D02*
X87000000Y-14620000D01*
X159390000Y-126339100D02*
X156850000Y-123799100D01*
X156850000Y-123799100D02*
X152845900Y-119795000D01*
X159390000Y-127674500D02*
X159390000Y-126349100D01*
X47169600Y-84547400D02*
X54126900Y-84547400D01*
X54458500Y-84529400D02*
X85431500Y-84529400D01*
%TO.N,VCC_5V*%
X55655900Y-69982600D02*
X60341200Y-69982600D01*
X83190000Y-129000000D02*
X83190000Y-126349100D01*
X85730000Y-126349100D02*
X85730000Y-123698300D01*
X88270000Y-126349100D02*
X88270000Y-123698300D01*
X88270000Y-126349100D02*
X88270000Y-125318000D01*
X88270000Y-123698300D02*
X90810000Y-123698300D01*
X83190000Y-126349100D02*
X84459900Y-126349100D01*
X47520000Y-70837000D02*
X48374400Y-69982600D01*
X89540000Y-9540000D02*
X87000000Y-9540000D01*
X14237400Y-111058300D02*
X59508700Y-111058300D01*
X88270000Y-125318000D02*
X86650300Y-123698300D01*
X83190000Y-126349100D02*
X83190000Y-123972500D01*
X86650300Y-123698300D02*
X85730000Y-123698300D01*
X112520000Y-49104400D02*
X122474300Y-49104400D01*
X85730000Y-129000000D02*
X85730000Y-126349100D01*
X82949400Y-123972500D02*
X77673600Y-118696700D01*
X60341200Y-49406500D02*
X57765000Y-49406500D01*
X83190000Y-123972500D02*
X82949400Y-123972500D01*
X87000000Y-9540000D02*
X57343600Y-9540000D01*
X88270000Y-129000000D02*
X88270000Y-126349100D01*
X83353400Y-123972500D02*
X83190000Y-123972500D01*
X57765000Y-49406500D02*
X57475000Y-49696500D01*
X90810000Y-129000000D02*
X90810000Y-123698300D01*
X77673600Y-118696700D02*
X60489400Y-118696700D01*
X85730000Y-126349100D02*
X83353400Y-123972500D01*
X48374400Y-69982600D02*
X55655900Y-69982600D01*
X14050000Y-111245700D02*
X14237400Y-111058300D01*
%TO.N,VCC_3V3*%
X89540000Y-7000000D02*
X87000000Y-7000000D01*
%TO.N,CR1*%
X57706500Y-123698300D02*
X57167500Y-123159300D01*
X57790000Y-129000000D02*
X57790000Y-123698300D01*
X57790000Y-123698300D02*
X57706500Y-123698300D01*
%TO.N,CR3*%
X61329300Y-123330300D02*
X60961300Y-123698300D01*
X60330000Y-129000000D02*
X60330000Y-123698300D01*
X60961300Y-123698300D02*
X60330000Y-123698300D01*
%TO.N,CR5*%
X88270000Y-23510000D02*
X61092200Y-23510000D01*
X62870000Y-129000000D02*
X62870000Y-122793900D01*
X62870000Y-122793900D02*
X59720000Y-119643900D01*
X89540000Y-22240000D02*
X88270000Y-23510000D01*
%TO.N,CR7*%
X65410000Y-123698300D02*
X66680000Y-123698300D01*
X65410000Y-129000000D02*
X65410000Y-123698300D01*
%TO.N,CR9*%
X67950000Y-123698300D02*
X69220000Y-123698300D01*
X67950000Y-129000000D02*
X67950000Y-123698300D01*
%TO.N,CR11*%
X70490000Y-129000000D02*
X70490000Y-123698300D01*
X70490000Y-123698300D02*
X71760000Y-123698300D01*
%TO.N,CR13*%
X73030000Y-123698300D02*
X74300000Y-123698300D01*
X73030000Y-129000000D02*
X73030000Y-123698300D01*
%TO.N,CR15*%
X75570000Y-129000000D02*
X75570000Y-123698300D01*
X75570000Y-123698300D02*
X76597900Y-123698300D01*
X76597900Y-123698300D02*
X76669800Y-123626400D01*
%TO.N,CR17*%
X78641500Y-123698300D02*
X78110000Y-123698300D01*
X78110000Y-129000000D02*
X78110000Y-123698300D01*
X78892200Y-123447600D02*
X78641500Y-123698300D01*
%TO.N,CR19*%
X80650000Y-129000000D02*
X80650000Y-123698300D01*
X80650000Y-123698300D02*
X81610600Y-123698300D01*
X81610600Y-123698300D02*
X81713800Y-123595100D01*
%TO.N,CR21*%
X93582600Y-123698300D02*
X93817200Y-123463700D01*
X93350000Y-129000000D02*
X93350000Y-123698300D01*
X93350000Y-123698300D02*
X93582600Y-123698300D01*
%TO.N,CR23*%
X86630300Y-46370000D02*
X83720700Y-49279600D01*
X95890000Y-123698300D02*
X94686000Y-123698300D01*
X88270000Y-46370000D02*
X86630300Y-46370000D01*
X95890000Y-129000000D02*
X95890000Y-123698300D01*
X89540000Y-45100000D02*
X88270000Y-46370000D01*
%TO.N,CR25*%
X98430000Y-123334200D02*
X98101700Y-123005900D01*
X98430000Y-129000000D02*
X98430000Y-123334200D01*
%TO.N,CR27*%
X89540000Y-50180000D02*
X88270000Y-51450000D01*
X99630000Y-122358300D02*
X82315500Y-122358300D01*
X88270000Y-51450000D02*
X82315500Y-51450000D01*
X100970000Y-129000000D02*
X100970000Y-123698300D01*
X100970000Y-123698300D02*
X99630000Y-122358300D01*
%TO.N,CR29*%
X103510000Y-129000000D02*
X103510000Y-123698300D01*
X103510000Y-123698300D02*
X104780000Y-123698300D01*
%TO.N,CR30*%
X90386000Y-56647500D02*
X88387500Y-56647500D01*
X90953500Y-57215000D02*
X90386000Y-56647500D01*
X88387500Y-56647500D02*
X87000000Y-55260000D01*
%TO.N,CR31*%
X106050000Y-123698300D02*
X107320000Y-123698300D01*
X106050000Y-129000000D02*
X106050000Y-123698300D01*
%TO.N,SDD0*%
X103844800Y-111073000D02*
X103844800Y-110210900D01*
X131450000Y-129000000D02*
X131450000Y-123698300D01*
X104599000Y-111425600D02*
X104197400Y-111425600D01*
X103844800Y-110210900D02*
X104044800Y-110010900D01*
X114021600Y-120848200D02*
X104599000Y-111425600D01*
X104197400Y-111425600D02*
X103844800Y-111073000D01*
X115177400Y-121200200D02*
X114825400Y-120848200D01*
X131450000Y-123698300D02*
X128951900Y-121200200D01*
X128951900Y-121200200D02*
X115177400Y-121200200D01*
X114825400Y-120848200D02*
X114021600Y-120848200D01*
%TO.N,SDD1*%
X133208700Y-123698300D02*
X132595800Y-123085400D01*
X133990000Y-123698300D02*
X133208700Y-123698300D01*
X89540000Y-57800000D02*
X89563500Y-57823500D01*
X89563500Y-57823500D02*
X132595800Y-57823500D01*
X133990000Y-129000000D02*
X133990000Y-123698300D01*
%TO.N,SDD2*%
X134656100Y-121824400D02*
X131984600Y-121824400D01*
X136530000Y-129000000D02*
X136530000Y-123698300D01*
X136530000Y-123698300D02*
X134656100Y-121824400D01*
X124083300Y-59183500D02*
X88156500Y-59183500D01*
X124878200Y-59978400D02*
X124083300Y-59183500D01*
X88156500Y-59183500D02*
X87000000Y-60340000D01*
%TO.N,SDD3*%
X139070000Y-129000000D02*
X139070000Y-123698300D01*
X89540000Y-60340000D02*
X89780100Y-60580100D01*
X139070000Y-123698300D02*
X137800000Y-123698300D01*
X89780100Y-60580100D02*
X137800000Y-60580100D01*
%TO.N,SDD4*%
X141610000Y-123698300D02*
X140689700Y-123698300D01*
X88190600Y-61689400D02*
X135952800Y-61689400D01*
X140340100Y-124047900D02*
X140340100Y-127730000D01*
X140340100Y-127730000D02*
X140340000Y-127730000D01*
X87000000Y-62880000D02*
X88190600Y-61689400D01*
X141610000Y-129000000D02*
X141610000Y-123698300D01*
X140689700Y-123698300D02*
X140340100Y-124047900D01*
X135952800Y-61689400D02*
X140340000Y-66076600D01*
%TO.N,SDD5*%
X143229700Y-123698300D02*
X142880100Y-124047900D01*
X144150000Y-123698300D02*
X143229700Y-123698300D01*
X144150000Y-129000000D02*
X144150000Y-123698300D01*
X93406100Y-66746100D02*
X142880000Y-66746100D01*
X142880100Y-127730000D02*
X142880000Y-127730000D01*
X89540000Y-62880000D02*
X93406100Y-66746100D01*
X142880100Y-124047900D02*
X142880100Y-127730000D01*
%TO.N,SDD6*%
X146690000Y-129000000D02*
X146690000Y-123698300D01*
X90303100Y-66690000D02*
X96386900Y-72773800D01*
X146690000Y-123698300D02*
X145420000Y-123698300D01*
X87000000Y-65420000D02*
X88270000Y-66690000D01*
X88270000Y-66690000D02*
X90303100Y-66690000D01*
X96386900Y-72773800D02*
X145420000Y-72773800D01*
%TO.N,SDD7*%
X105369100Y-110823900D02*
X104446500Y-110823900D01*
X146330200Y-120798500D02*
X115343700Y-120798500D01*
X115343700Y-120798500D02*
X105369100Y-110823900D01*
X149230000Y-129000000D02*
X149230000Y-123698300D01*
X149230000Y-123698300D02*
X146330200Y-120798500D01*
%TO.N,FIX0*%
X104180000Y-123254600D02*
X104402600Y-123032000D01*
X101283200Y-121479300D02*
X101283200Y-121977500D01*
X102560300Y-123254600D02*
X104180000Y-123254600D01*
X103423500Y-121126700D02*
X101635800Y-121126700D01*
X108590000Y-129000000D02*
X108590000Y-123698300D01*
X104402600Y-123032000D02*
X107923700Y-123032000D01*
X101635800Y-121126700D02*
X101283200Y-121479300D01*
X101283200Y-121977500D02*
X102560300Y-123254600D01*
X107923700Y-123032000D02*
X108590000Y-123698300D01*
X103521500Y-121224700D02*
X103423500Y-121126700D01*
%TO.N,FIX1*%
X109860100Y-127730000D02*
X109860000Y-127730000D01*
X111130000Y-129000000D02*
X111130000Y-123698300D01*
X111130000Y-123698300D02*
X110209700Y-123698300D01*
X109513700Y-73230900D02*
X94810900Y-73230900D01*
X110209700Y-123698300D02*
X109860100Y-124047900D01*
X109860100Y-124047900D02*
X109860100Y-127730000D01*
X94810900Y-73230900D02*
X89540000Y-67960000D01*
X109860000Y-73577200D02*
X109513700Y-73230900D01*
%TO.N,FIX2*%
X91540600Y-71770000D02*
X93547700Y-73777100D01*
X87000000Y-70500000D02*
X88270000Y-71770000D01*
X105694500Y-73777100D02*
X105750000Y-73832600D01*
X112062800Y-123698300D02*
X110638600Y-122274100D01*
X113670000Y-129000000D02*
X113670000Y-123698300D01*
X93547700Y-73777100D02*
X105694500Y-73777100D01*
X88270000Y-71770000D02*
X91540600Y-71770000D01*
X110638600Y-122274100D02*
X105751600Y-122274100D01*
X113670000Y-123698300D02*
X112062800Y-123698300D01*
%TO.N,FIX3*%
X105500900Y-121672200D02*
X105149800Y-122023300D01*
X105149800Y-122023300D02*
X105149800Y-122143700D01*
X104319700Y-122264000D02*
X103930800Y-122652900D01*
X112551000Y-122856700D02*
X111366500Y-121672200D01*
X114557800Y-123698300D02*
X113716200Y-122856700D01*
X116210000Y-123698300D02*
X114557800Y-123698300D01*
X113716200Y-122856700D02*
X112551000Y-122856700D01*
X105029500Y-122264000D02*
X104319700Y-122264000D01*
X111366500Y-121672200D02*
X105500900Y-121672200D01*
X105149800Y-122143700D02*
X105029500Y-122264000D01*
X116210000Y-129000000D02*
X116210000Y-123698300D01*
%TO.N,FIX4*%
X117485000Y-123698300D02*
X117245200Y-123458500D01*
X118750000Y-129000000D02*
X118750000Y-123698300D01*
X104872500Y-74191700D02*
X105215500Y-74534700D01*
X88151700Y-74191700D02*
X104872500Y-74191700D01*
X87000000Y-73040000D02*
X88151700Y-74191700D01*
X105215500Y-74534700D02*
X110558800Y-74534700D01*
X118750000Y-123698300D02*
X117485000Y-123698300D01*
%TO.N,FIX5*%
X114160100Y-122455000D02*
X112717300Y-122455000D01*
X112717300Y-122455000D02*
X111532800Y-121270500D01*
X102018700Y-121862200D02*
X101884900Y-121728400D01*
X121290000Y-129000000D02*
X121290000Y-123698300D01*
X121290000Y-123698300D02*
X120448400Y-122856700D01*
X104742900Y-121862200D02*
X102018700Y-121862200D01*
X105334600Y-121270500D02*
X104742900Y-121862200D01*
X111532800Y-121270500D02*
X105334600Y-121270500D01*
X120448400Y-122856700D02*
X114561800Y-122856700D01*
X114561800Y-122856700D02*
X114160100Y-122455000D01*
%TO.N,FIX6*%
X123830000Y-123698300D02*
X122586700Y-122455000D01*
X114326500Y-122053300D02*
X112883600Y-122053300D01*
X123830000Y-129000000D02*
X123830000Y-123698300D01*
X122586700Y-122455000D02*
X114728200Y-122455000D01*
X114728200Y-122455000D02*
X114326500Y-122053300D01*
X111415900Y-120585600D02*
X96492900Y-120585600D01*
X112883600Y-122053300D02*
X111415900Y-120585600D01*
%TO.N,FIX7*%
X113436900Y-121651600D02*
X111622300Y-119837000D01*
X111622300Y-119837000D02*
X98600300Y-119837000D01*
X124675300Y-122003600D02*
X114844800Y-122003600D01*
X114844800Y-122003600D02*
X114492800Y-121651600D01*
X126370000Y-129000000D02*
X126370000Y-123698300D01*
X114492800Y-121651600D02*
X113436900Y-121651600D01*
X126370000Y-123698300D02*
X124675300Y-122003600D01*
%TO.N,P0*%
X50000000Y-111732700D02*
X17150000Y-111732700D01*
%TO.N,P1*%
X27720500Y-113127800D02*
X58290200Y-113127800D01*
X61315200Y-109797600D02*
X77282700Y-93830100D01*
X17150000Y-129000000D02*
X17150000Y-123698300D01*
X61315200Y-110102800D02*
X61315200Y-109797600D01*
X58290200Y-113127800D02*
X61315200Y-110102800D01*
X17150000Y-123698300D02*
X27720500Y-113127800D01*
%TO.N,P3*%
X20268400Y-123698300D02*
X20498200Y-123468500D01*
X19690000Y-123698300D02*
X20268400Y-123698300D01*
X19690000Y-129000000D02*
X19690000Y-123698300D01*
%TO.N,P5*%
X22230000Y-123623900D02*
X21555600Y-122949500D01*
X22230000Y-129000000D02*
X22230000Y-123623900D01*
%TO.N,P7*%
X24770000Y-129000000D02*
X24770000Y-123698300D01*
X24770000Y-123698300D02*
X24770000Y-123485600D01*
%TO.N,P9*%
X27310000Y-129000000D02*
X27310000Y-122813800D01*
%TO.N,P11*%
X29404100Y-123698300D02*
X29173100Y-123467300D01*
X29850000Y-129000000D02*
X29850000Y-123698300D01*
X29850000Y-123698300D02*
X29404100Y-123698300D01*
%TO.N,P13*%
X32390000Y-129000000D02*
X32390000Y-123698300D01*
X32390000Y-123698300D02*
X33769000Y-122319300D01*
X33769000Y-122319300D02*
X33769000Y-120849700D01*
%TO.N,P15*%
X35013500Y-123698300D02*
X35552500Y-123159300D01*
X34930000Y-129000000D02*
X34930000Y-123698300D01*
X34930000Y-123698300D02*
X35013500Y-123698300D01*
%TO.N,P17*%
X37470000Y-129000000D02*
X37470000Y-122600500D01*
X37470000Y-122600500D02*
X31563500Y-116694000D01*
%TO.N,P19*%
X40010000Y-123698300D02*
X40010000Y-123468500D01*
X40010000Y-129000000D02*
X40010000Y-123698300D01*
%TO.N,P21*%
X42550000Y-129000000D02*
X42550000Y-123698300D01*
X42550000Y-123698300D02*
X42550000Y-123468500D01*
%TO.N,P23*%
X45090000Y-123698300D02*
X44641800Y-123698300D01*
X44641800Y-123698300D02*
X44412000Y-123468500D01*
X45090000Y-129000000D02*
X45090000Y-123698300D01*
%TO.N,P0_R*%
X55136200Y-70776100D02*
X55225800Y-70686500D01*
X49180600Y-70776100D02*
X55136200Y-70776100D01*
%TO.N,P1_R*%
X54294200Y-48790400D02*
X78172100Y-48790400D01*
X53469100Y-49615500D02*
X54294200Y-48790400D01*
%TO.N,P3_R*%
X26916100Y-55700300D02*
X55776000Y-55700300D01*
X21417700Y-62013300D02*
X21417700Y-61198700D01*
X21417700Y-61198700D02*
X26916100Y-55700300D01*
%TO.N,P5_R*%
X22230000Y-61267600D02*
X56107100Y-61267600D01*
%TO.N,P6_R*%
X33774500Y-52041600D02*
X34931100Y-53198200D01*
X33774500Y-47934800D02*
X33774500Y-52041600D01*
%TO.N,P7_R*%
X28146300Y-60561000D02*
X55184300Y-60561000D01*
X55184300Y-60561000D02*
X58967200Y-56778100D01*
%TO.N,P9_R*%
X46340800Y-82542900D02*
X26671900Y-82542900D01*
X46688700Y-82890800D02*
X46340800Y-82542900D01*
%TO.N,P10_R*%
X56255900Y-45977900D02*
X52618300Y-49615500D01*
X56590700Y-45977900D02*
X56255900Y-45977900D01*
X52618300Y-49615500D02*
X40232500Y-49615500D01*
%TO.N,P11_R*%
X50992600Y-77170000D02*
X30032500Y-77170000D01*
%TO.N,P12_R*%
X44670500Y-46165000D02*
X47735500Y-43100000D01*
X47735500Y-43100000D02*
X54984700Y-43100000D01*
X54984700Y-43100000D02*
X54984700Y-43099900D01*
%TO.N,P14_R*%
X40806300Y-50906300D02*
X37017000Y-54695600D01*
X55343600Y-50906300D02*
X40806300Y-50906300D01*
%TO.N,P19_R*%
X41797200Y-103583200D02*
X55087000Y-103583200D01*
%TO.N,P21_R*%
X42550000Y-102778700D02*
X55688700Y-102778700D01*
%TO.N,P22_R*%
X54007500Y-53220400D02*
X45478600Y-53220400D01*
X49551300Y-82693600D02*
X45478600Y-78620900D01*
X49551300Y-83945700D02*
X49551300Y-82693600D01*
%TO.N,P23_R*%
X56300600Y-96821200D02*
X45090000Y-96821200D01*
%TO.N,SDA15*%
X154321100Y-123698300D02*
X154934000Y-123085400D01*
X154310000Y-129000000D02*
X154310000Y-123698300D01*
X154310000Y-123698300D02*
X154321100Y-123698300D01*
%TO.N,SDA0_R*%
X110558800Y-45925100D02*
X118802300Y-45925100D01*
%TO.N,SDA4_R*%
X116653300Y-91100800D02*
X116311700Y-90759200D01*
X126287300Y-91100800D02*
X116653300Y-91100800D01*
%TO.N,SDA6_R*%
X129638600Y-53921400D02*
X133990000Y-58272800D01*
X125313300Y-53921400D02*
X129638600Y-53921400D01*
%TO.N,SDA8_R*%
X139070000Y-96821200D02*
X118821400Y-96821200D01*
%TO.N,SDA9_R*%
X141610000Y-76740700D02*
X116883900Y-76740700D01*
%TO.N,SDA10_R*%
X144150000Y-87078700D02*
X116883900Y-87078700D01*
%TO.N,SDA11_R*%
X146690000Y-81909700D02*
X119423200Y-81909700D01*
%TO.N,SDA12_R*%
X149230000Y-87874300D02*
X115730200Y-87874300D01*
%TO.N,SDA13_R*%
X149863000Y-89737800D02*
X128322700Y-89737800D01*
%TO.N,SDA14_R*%
X132554900Y-93838900D02*
X129081100Y-90365100D01*
X153393300Y-93838900D02*
X132554900Y-93838900D01*
%TO.N,SDA15_R*%
X128415900Y-88669900D02*
X154310000Y-88669900D01*
%TO.N,PCK1B*%
X48227000Y-85740000D02*
X47869800Y-86097200D01*
X87000000Y-85740000D02*
X48227000Y-85740000D01*
%TO.N,PCK2B*%
X88178400Y-87101600D02*
X52194400Y-87101600D01*
X89540000Y-85740000D02*
X88178400Y-87101600D01*
%TO.N,CLK24M*%
X83706000Y-88280000D02*
X87000000Y-88280000D01*
X48287700Y-123698300D02*
X83706000Y-88280000D01*
X47630000Y-129000000D02*
X47630000Y-123698300D01*
X47630000Y-123698300D02*
X48287700Y-123698300D01*
%TO.N,CLK12M*%
X50170000Y-129000000D02*
X50170000Y-123698300D01*
X88221200Y-89598800D02*
X89540000Y-88280000D01*
X84269400Y-89598900D02*
X88221200Y-89598900D01*
X88221200Y-89598900D02*
X88221200Y-89598800D01*
X50170000Y-123698300D02*
X84269400Y-89598900D01*
%TO.N,CLK8M*%
X85089200Y-90820000D02*
X52710000Y-123199200D01*
X87000000Y-90820000D02*
X85089200Y-90820000D01*
X52710000Y-129000000D02*
X52710000Y-123698300D01*
X52710000Y-123199200D02*
X52710000Y-123698300D01*
%TO.N,SIG_2H1*%
X89540000Y-90820000D02*
X88270000Y-92090000D01*
X88270000Y-92090000D02*
X84671200Y-92090000D01*
X84671200Y-92090000D02*
X59563400Y-117197800D01*
%TO.N,CHA_CA4*%
X84329500Y-93360000D02*
X87000000Y-93360000D01*
X58952000Y-118737500D02*
X84329500Y-93360000D01*
X58467000Y-118737500D02*
X58952000Y-118737500D01*
%TO.N,SYSTEMB*%
X110147200Y-93360000D02*
X89540000Y-93360000D01*
X116590700Y-99803500D02*
X110147200Y-93360000D01*
%TO.N,SDROM*%
X103049200Y-109409200D02*
X89540000Y-95900000D01*
X151770000Y-123698300D02*
X148468500Y-120396800D01*
X151770000Y-129000000D02*
X151770000Y-123698300D01*
X104650700Y-109409200D02*
X103049200Y-109409200D01*
X148468500Y-120396800D02*
X115638300Y-120396800D01*
X115638300Y-120396800D02*
X104650700Y-109409200D01*
%TO.N,SDMRD_CHA*%
X114659100Y-121249900D02*
X113855300Y-121249900D01*
X113855300Y-121249900D02*
X104432700Y-111827300D01*
X103443100Y-111239300D02*
X103443100Y-110695700D01*
X115011100Y-121601900D02*
X114659100Y-121249900D01*
X88388300Y-97288300D02*
X87000000Y-95900000D01*
X90035700Y-97288300D02*
X88388300Y-97288300D01*
X104031100Y-111827300D02*
X103443100Y-111239300D01*
X128910000Y-129000000D02*
X128910000Y-123698300D01*
X126813600Y-121601900D02*
X115011100Y-121601900D01*
X128910000Y-123698300D02*
X126813600Y-121601900D01*
X104432700Y-111827300D02*
X104031100Y-111827300D01*
X103443100Y-110695700D02*
X90035700Y-97288300D01*
%TO.N,RESET_CHA*%
X55250000Y-123083900D02*
X79893900Y-98440000D01*
X55250000Y-129000000D02*
X55250000Y-123083900D01*
X79893900Y-98440000D02*
X87000000Y-98440000D01*
%TO.N,SER_C*%
X87000000Y-78120000D02*
X86192800Y-78927200D01*
X86192800Y-78927200D02*
X59050500Y-78927200D01*
%TO.N,CLK_C*%
X89540000Y-78120000D02*
X88270000Y-76850000D01*
X55408300Y-62891200D02*
X52217200Y-62891200D01*
X59594800Y-56491200D02*
X54627100Y-51523500D01*
X54627100Y-51523500D02*
X54015600Y-51523500D01*
X59594800Y-58704700D02*
X59594800Y-56491200D01*
X78035600Y-76850000D02*
X59890300Y-58704700D01*
X88270000Y-76850000D02*
X78035600Y-76850000D01*
X59890300Y-58704700D02*
X59594800Y-58704700D01*
X59594800Y-58704700D02*
X55408300Y-62891200D01*
%TO.N,LOAD_C*%
X54007700Y-57572100D02*
X54756100Y-57572100D01*
X56428900Y-80660000D02*
X46893700Y-71124800D01*
X56411600Y-55916600D02*
X56411600Y-55433100D01*
X56411600Y-55433100D02*
X55121900Y-54143400D01*
X87000000Y-80660000D02*
X56428900Y-80660000D01*
X46893700Y-71124800D02*
X46893700Y-70544600D01*
X48253400Y-69184900D02*
X52525000Y-69184900D01*
X55121900Y-54143400D02*
X54775900Y-54143400D01*
X46893700Y-70544600D02*
X48253400Y-69184900D01*
X54756100Y-57572100D02*
X56411600Y-55916600D01*
%TO.N,SER_S*%
X89540000Y-80660000D02*
X94254900Y-75945100D01*
X94254900Y-75945100D02*
X126629400Y-75945100D01*
%TO.N,CLK_S*%
X87000000Y-83200000D02*
X88271600Y-81928400D01*
X88271600Y-81928400D02*
X115085200Y-81928400D01*
%TO.N,LOAD_S*%
X89540000Y-83200000D02*
X114444700Y-83200000D01*
%TD*%
%TA.AperFunction,Conductor*%
%TO.N,GND*%
G36*
X4893539Y-520185D02*
G01*
X4939294Y-572989D01*
X4950500Y-624500D01*
X4950500Y-2565891D01*
X4984608Y-2693187D01*
X5017554Y-2750250D01*
X5050500Y-2807314D01*
X5143686Y-2900500D01*
X5257814Y-2966392D01*
X5385108Y-3000500D01*
X5385110Y-3000500D01*
X17516890Y-3000500D01*
X17516892Y-3000500D01*
X17644186Y-2966392D01*
X17758314Y-2900500D01*
X17851500Y-2807314D01*
X17917392Y-2693186D01*
X17951500Y-2565892D01*
X17951500Y-624500D01*
X17971185Y-557461D01*
X18023989Y-511706D01*
X18075500Y-500500D01*
X155826500Y-500500D01*
X155893539Y-520185D01*
X155939294Y-572989D01*
X155950500Y-624500D01*
X155950500Y-2565891D01*
X155984608Y-2693187D01*
X156017554Y-2750250D01*
X156050500Y-2807314D01*
X156143686Y-2900500D01*
X156257814Y-2966392D01*
X156385108Y-3000500D01*
X156385110Y-3000500D01*
X168516890Y-3000500D01*
X168516892Y-3000500D01*
X168644186Y-2966392D01*
X168758314Y-2900500D01*
X168851500Y-2807314D01*
X168917392Y-2693186D01*
X168951500Y-2565892D01*
X168951500Y-624500D01*
X168971185Y-557461D01*
X169023989Y-511706D01*
X169075500Y-500500D01*
X173275500Y-500500D01*
X173342539Y-520185D01*
X173388294Y-572989D01*
X173399500Y-624500D01*
X173399500Y-114375500D01*
X173379815Y-114442539D01*
X173327011Y-114488294D01*
X173275500Y-114499500D01*
X164185108Y-114499500D01*
X164057812Y-114533608D01*
X163943686Y-114599500D01*
X163943683Y-114599502D01*
X163850502Y-114692683D01*
X163850500Y-114692686D01*
X163784608Y-114806812D01*
X163750500Y-114934108D01*
X163750500Y-133375500D01*
X163730815Y-133442539D01*
X163678011Y-133488294D01*
X163626500Y-133499500D01*
X155684499Y-133499500D01*
X155617460Y-133479815D01*
X155571705Y-133427011D01*
X155560499Y-133375500D01*
X155560498Y-123952129D01*
X155560497Y-123952123D01*
X155560496Y-123952116D01*
X155554090Y-123892517D01*
X155513915Y-123784801D01*
X155501765Y-123752225D01*
X155496781Y-123682533D01*
X155530263Y-123621213D01*
X155555789Y-123595689D01*
X155643394Y-123464579D01*
X155646451Y-123457200D01*
X155671983Y-123395558D01*
X155703737Y-123318897D01*
X155734500Y-123164242D01*
X155734500Y-123006558D01*
X155734500Y-123006555D01*
X155734499Y-123006553D01*
X155728688Y-122977338D01*
X155703737Y-122851903D01*
X155701587Y-122846713D01*
X155643397Y-122706227D01*
X155643390Y-122706214D01*
X155555789Y-122575111D01*
X155555786Y-122575107D01*
X155444292Y-122463613D01*
X155444288Y-122463610D01*
X155313185Y-122376009D01*
X155313172Y-122376002D01*
X155167501Y-122315664D01*
X155167489Y-122315661D01*
X155012845Y-122284900D01*
X155012842Y-122284900D01*
X154855158Y-122284900D01*
X154855155Y-122284900D01*
X154700510Y-122315661D01*
X154700498Y-122315664D01*
X154554827Y-122376002D01*
X154554814Y-122376009D01*
X154423711Y-122463610D01*
X154423707Y-122463613D01*
X154312213Y-122575107D01*
X154312210Y-122575111D01*
X154224609Y-122706214D01*
X154224602Y-122706227D01*
X154164264Y-122851898D01*
X154164261Y-122851908D01*
X154133362Y-123007248D01*
X154124596Y-123024004D01*
X154120577Y-123042483D01*
X154101833Y-123067522D01*
X154100977Y-123069159D01*
X154099426Y-123070738D01*
X153979089Y-123191074D01*
X153953411Y-123210778D01*
X153941284Y-123217779D01*
X153829478Y-123329586D01*
X153829477Y-123329587D01*
X153767174Y-123437500D01*
X153716607Y-123485716D01*
X153659788Y-123499500D01*
X153512129Y-123499500D01*
X153512122Y-123499501D01*
X153452515Y-123505908D01*
X153317670Y-123556202D01*
X153317663Y-123556206D01*
X153202454Y-123642452D01*
X153202451Y-123642455D01*
X153139265Y-123726861D01*
X153083331Y-123768732D01*
X153013640Y-123773716D01*
X152952317Y-123740230D01*
X152940733Y-123726861D01*
X152877546Y-123642455D01*
X152877543Y-123642452D01*
X152762334Y-123556206D01*
X152762327Y-123556202D01*
X152627481Y-123505908D01*
X152627482Y-123505908D01*
X152567882Y-123499501D01*
X152567880Y-123499500D01*
X152567872Y-123499500D01*
X152567864Y-123499500D01*
X152420212Y-123499500D01*
X152408694Y-123496117D01*
X152396744Y-123497259D01*
X152375788Y-123486455D01*
X152353173Y-123479815D01*
X152343761Y-123469944D01*
X152334642Y-123465243D01*
X152312825Y-123437500D01*
X152298635Y-123412922D01*
X152298635Y-123412921D01*
X152250524Y-123329590D01*
X152250521Y-123329586D01*
X152250520Y-123329584D01*
X152138716Y-123217780D01*
X152138715Y-123217779D01*
X152134385Y-123213449D01*
X152134374Y-123213439D01*
X148956090Y-120035155D01*
X148956088Y-120035152D01*
X148837217Y-119916281D01*
X148837216Y-119916280D01*
X148750404Y-119866160D01*
X148750404Y-119866159D01*
X148750400Y-119866158D01*
X148700285Y-119837223D01*
X148547557Y-119796299D01*
X148389443Y-119796299D01*
X148381847Y-119796299D01*
X148381831Y-119796300D01*
X115938397Y-119796300D01*
X115871358Y-119776615D01*
X115850716Y-119759981D01*
X105138290Y-109047555D01*
X105138288Y-109047552D01*
X105019417Y-108928681D01*
X105019416Y-108928680D01*
X104932604Y-108878560D01*
X104932604Y-108878559D01*
X104932600Y-108878558D01*
X104882485Y-108849623D01*
X104729757Y-108808699D01*
X104571643Y-108808699D01*
X104564047Y-108808699D01*
X104564031Y-108808700D01*
X103349297Y-108808700D01*
X103282258Y-108789015D01*
X103261616Y-108772381D01*
X90873757Y-96384522D01*
X90840272Y-96323199D01*
X90843507Y-96258523D01*
X90857246Y-96216243D01*
X90890500Y-96006287D01*
X90890500Y-95793713D01*
X90857246Y-95583757D01*
X90791557Y-95381588D01*
X90695051Y-95192184D01*
X90695049Y-95192181D01*
X90695048Y-95192179D01*
X90570109Y-95020213D01*
X90419786Y-94869890D01*
X90247820Y-94744951D01*
X90247115Y-94744591D01*
X90239054Y-94740485D01*
X90188259Y-94692512D01*
X90171463Y-94624692D01*
X90193999Y-94558556D01*
X90239054Y-94519515D01*
X90247816Y-94515051D01*
X90269789Y-94499086D01*
X90419786Y-94390109D01*
X90419788Y-94390106D01*
X90419792Y-94390104D01*
X90570104Y-94239792D01*
X90570106Y-94239788D01*
X90570109Y-94239786D01*
X90628661Y-94159193D01*
X90695051Y-94067816D01*
X90695349Y-94067230D01*
X90715235Y-94028205D01*
X90763209Y-93977409D01*
X90825719Y-93960500D01*
X109847103Y-93960500D01*
X109914142Y-93980185D01*
X109934784Y-93996819D01*
X115756125Y-99818160D01*
X115789610Y-99879483D01*
X115790061Y-99881649D01*
X115820961Y-100036991D01*
X115820964Y-100037001D01*
X115881302Y-100182672D01*
X115881309Y-100182685D01*
X115968910Y-100313788D01*
X115968913Y-100313792D01*
X116080407Y-100425286D01*
X116080411Y-100425289D01*
X116211514Y-100512890D01*
X116211527Y-100512897D01*
X116357198Y-100573235D01*
X116357203Y-100573237D01*
X116511853Y-100603999D01*
X116511856Y-100604000D01*
X116511858Y-100604000D01*
X116669544Y-100604000D01*
X116669545Y-100603999D01*
X116824197Y-100573237D01*
X116969879Y-100512894D01*
X117100989Y-100425289D01*
X117212489Y-100313789D01*
X117300094Y-100182679D01*
X117360437Y-100036997D01*
X117391200Y-99882342D01*
X117391200Y-99724658D01*
X117391200Y-99724655D01*
X117391199Y-99724653D01*
X117365419Y-99595051D01*
X117360437Y-99570003D01*
X117360435Y-99569998D01*
X117300097Y-99424327D01*
X117300090Y-99424314D01*
X117212489Y-99293211D01*
X117212486Y-99293207D01*
X117100992Y-99181713D01*
X117100988Y-99181710D01*
X116969885Y-99094109D01*
X116969872Y-99094102D01*
X116824201Y-99033764D01*
X116824191Y-99033761D01*
X116668849Y-99002861D01*
X116606938Y-98970476D01*
X116605360Y-98968925D01*
X115420320Y-97783885D01*
X158499500Y-97783885D01*
X158499500Y-97803735D01*
X158499500Y-98216115D01*
X158533412Y-98647013D01*
X158601028Y-99073922D01*
X158701930Y-99494210D01*
X158701934Y-99494221D01*
X158835494Y-99905280D01*
X158890050Y-100036989D01*
X159000904Y-100304615D01*
X159153449Y-100604000D01*
X159197136Y-100689740D01*
X159197142Y-100689751D01*
X159422966Y-101058262D01*
X159422974Y-101058273D01*
X159677025Y-101407946D01*
X159677035Y-101407960D01*
X159957737Y-101736617D01*
X159957743Y-101736624D01*
X160263376Y-102042257D01*
X160295046Y-102069306D01*
X160592039Y-102322964D01*
X160592046Y-102322969D01*
X160941728Y-102577027D01*
X160941732Y-102577029D01*
X160941737Y-102577033D01*
X161310248Y-102802857D01*
X161310254Y-102802860D01*
X161310265Y-102802867D01*
X161695385Y-102999096D01*
X162078722Y-103157879D01*
X162094719Y-103164505D01*
X162199240Y-103198465D01*
X162505790Y-103298070D01*
X162926078Y-103398972D01*
X163352987Y-103466588D01*
X163783885Y-103500500D01*
X163783893Y-103500500D01*
X164216107Y-103500500D01*
X164216115Y-103500500D01*
X164647013Y-103466588D01*
X165073922Y-103398972D01*
X165494210Y-103298070D01*
X165905286Y-103164503D01*
X166304615Y-102999096D01*
X166689735Y-102802867D01*
X167058272Y-102577027D01*
X167407954Y-102322969D01*
X167736624Y-102042257D01*
X168042257Y-101736624D01*
X168322969Y-101407954D01*
X168577027Y-101058272D01*
X168802867Y-100689735D01*
X168999096Y-100304615D01*
X169164503Y-99905286D01*
X169298070Y-99494210D01*
X169398972Y-99073922D01*
X169466588Y-98647013D01*
X169500500Y-98216115D01*
X169500500Y-97783885D01*
X169466588Y-97352987D01*
X169398972Y-96926078D01*
X169298070Y-96505790D01*
X169170057Y-96111806D01*
X169164505Y-96094719D01*
X169127875Y-96006286D01*
X168999096Y-95695385D01*
X168802867Y-95310265D01*
X168802857Y-95310248D01*
X168577033Y-94941737D01*
X168577029Y-94941732D01*
X168577027Y-94941728D01*
X168322969Y-94592046D01*
X168322964Y-94592039D01*
X168042262Y-94263382D01*
X168042257Y-94263376D01*
X167736624Y-93957743D01*
X167689794Y-93917746D01*
X167407960Y-93677035D01*
X167407946Y-93677025D01*
X167170874Y-93504783D01*
X167058272Y-93422973D01*
X167058269Y-93422971D01*
X167058262Y-93422966D01*
X166689751Y-93197142D01*
X166689740Y-93197136D01*
X166689739Y-93197135D01*
X166689735Y-93197133D01*
X166304615Y-93000904D01*
X166057025Y-92898349D01*
X165905280Y-92835494D01*
X165610808Y-92739815D01*
X165494210Y-92701930D01*
X165073922Y-92601028D01*
X164647013Y-92533412D01*
X164216120Y-92499500D01*
X164216115Y-92499500D01*
X163783885Y-92499500D01*
X163783879Y-92499500D01*
X163352986Y-92533412D01*
X163352985Y-92533412D01*
X162926083Y-92601027D01*
X162926080Y-92601027D01*
X162926078Y-92601028D01*
X162775562Y-92637163D01*
X162505801Y-92701927D01*
X162505795Y-92701928D01*
X162505790Y-92701930D01*
X162505778Y-92701934D01*
X162094719Y-92835494D01*
X161695387Y-93000903D01*
X161310259Y-93197136D01*
X161310248Y-93197142D01*
X160941737Y-93422966D01*
X160941726Y-93422974D01*
X160592053Y-93677025D01*
X160592039Y-93677035D01*
X160263382Y-93957737D01*
X160263368Y-93957750D01*
X159957750Y-94263368D01*
X159957737Y-94263382D01*
X159677035Y-94592039D01*
X159677025Y-94592053D01*
X159422974Y-94941726D01*
X159422966Y-94941737D01*
X159197142Y-95310248D01*
X159197136Y-95310259D01*
X159000903Y-95695387D01*
X158835494Y-96094719D01*
X158701934Y-96505778D01*
X158701927Y-96505801D01*
X158601027Y-96926083D01*
X158533412Y-97352985D01*
X158533412Y-97352986D01*
X158503569Y-97732185D01*
X158499500Y-97783885D01*
X115420320Y-97783885D01*
X114378788Y-96742353D01*
X118020900Y-96742353D01*
X118020900Y-96900046D01*
X118051661Y-97054689D01*
X118051664Y-97054701D01*
X118112002Y-97200372D01*
X118112009Y-97200385D01*
X118199610Y-97331488D01*
X118199613Y-97331492D01*
X118311107Y-97442986D01*
X118311111Y-97442989D01*
X118442214Y-97530590D01*
X118442227Y-97530597D01*
X118587898Y-97590935D01*
X118587903Y-97590937D01*
X118742553Y-97621699D01*
X118742556Y-97621700D01*
X118742558Y-97621700D01*
X118900244Y-97621700D01*
X118900245Y-97621699D01*
X119054897Y-97590937D01*
X119200579Y-97530594D01*
X119200585Y-97530590D01*
X119332275Y-97442598D01*
X119398953Y-97421720D01*
X119401166Y-97421700D01*
X138490234Y-97421700D01*
X138557273Y-97441385D01*
X138559125Y-97442598D01*
X138690814Y-97530590D01*
X138690827Y-97530597D01*
X138836498Y-97590935D01*
X138836503Y-97590937D01*
X138991153Y-97621699D01*
X138991156Y-97621700D01*
X138991158Y-97621700D01*
X139148844Y-97621700D01*
X139148845Y-97621699D01*
X139303497Y-97590937D01*
X139449179Y-97530594D01*
X139580289Y-97442989D01*
X139691789Y-97331489D01*
X139779394Y-97200379D01*
X139839737Y-97054697D01*
X139870500Y-96900042D01*
X139870500Y-96742358D01*
X139870500Y-96742355D01*
X139870499Y-96742353D01*
X139851527Y-96646974D01*
X139839737Y-96587703D01*
X139839735Y-96587698D01*
X139779397Y-96442027D01*
X139779390Y-96442014D01*
X139691789Y-96310911D01*
X139691786Y-96310907D01*
X139580292Y-96199413D01*
X139580288Y-96199410D01*
X139449185Y-96111809D01*
X139449172Y-96111802D01*
X139303501Y-96051464D01*
X139303489Y-96051461D01*
X139148845Y-96020700D01*
X139148842Y-96020700D01*
X138991158Y-96020700D01*
X138991155Y-96020700D01*
X138836510Y-96051461D01*
X138836498Y-96051464D01*
X138690827Y-96111802D01*
X138690814Y-96111809D01*
X138559125Y-96199802D01*
X138492447Y-96220680D01*
X138490234Y-96220700D01*
X119401166Y-96220700D01*
X119334127Y-96201015D01*
X119332275Y-96199802D01*
X119200585Y-96111809D01*
X119200572Y-96111802D01*
X119054901Y-96051464D01*
X119054889Y-96051461D01*
X118900245Y-96020700D01*
X118900242Y-96020700D01*
X118742558Y-96020700D01*
X118742555Y-96020700D01*
X118587910Y-96051461D01*
X118587898Y-96051464D01*
X118442227Y-96111802D01*
X118442214Y-96111809D01*
X118311111Y-96199410D01*
X118311107Y-96199413D01*
X118199613Y-96310907D01*
X118199610Y-96310911D01*
X118112009Y-96442014D01*
X118112002Y-96442027D01*
X118051664Y-96587698D01*
X118051661Y-96587710D01*
X118020900Y-96742353D01*
X114378788Y-96742353D01*
X110634790Y-92998355D01*
X110634788Y-92998352D01*
X110515917Y-92879481D01*
X110515916Y-92879480D01*
X110429104Y-92829360D01*
X110429104Y-92829359D01*
X110429100Y-92829358D01*
X110378985Y-92800423D01*
X110226257Y-92759499D01*
X110068143Y-92759499D01*
X110060547Y-92759499D01*
X110060531Y-92759500D01*
X90825719Y-92759500D01*
X90758680Y-92739815D01*
X90715235Y-92691795D01*
X90695052Y-92652185D01*
X90695051Y-92652184D01*
X90570109Y-92480213D01*
X90419786Y-92329890D01*
X90247820Y-92204951D01*
X90247115Y-92204591D01*
X90239054Y-92200485D01*
X90188259Y-92152512D01*
X90171463Y-92084692D01*
X90193999Y-92018556D01*
X90239054Y-91979515D01*
X90247816Y-91975051D01*
X90269789Y-91959086D01*
X90419786Y-91850109D01*
X90419788Y-91850106D01*
X90419792Y-91850104D01*
X90570104Y-91699792D01*
X90570106Y-91699788D01*
X90570109Y-91699786D01*
X90694236Y-91528938D01*
X90695051Y-91527816D01*
X90791557Y-91338412D01*
X90857246Y-91136243D01*
X90890500Y-90926287D01*
X90890500Y-90713713D01*
X90885216Y-90680353D01*
X115511200Y-90680353D01*
X115511200Y-90838046D01*
X115541961Y-90992689D01*
X115541964Y-90992701D01*
X115602302Y-91138372D01*
X115602309Y-91138385D01*
X115689910Y-91269488D01*
X115689913Y-91269492D01*
X115801407Y-91380986D01*
X115801411Y-91380989D01*
X115932514Y-91468590D01*
X115932527Y-91468597D01*
X116075506Y-91527820D01*
X116078203Y-91528937D01*
X116232858Y-91559700D01*
X116236292Y-91560383D01*
X116276712Y-91578699D01*
X116277545Y-91577257D01*
X116421509Y-91660373D01*
X116421516Y-91660377D01*
X116533319Y-91690334D01*
X116574242Y-91701300D01*
X116574243Y-91701300D01*
X125707534Y-91701300D01*
X125774573Y-91720985D01*
X125776425Y-91722198D01*
X125908114Y-91810190D01*
X125908127Y-91810197D01*
X126004485Y-91850109D01*
X126053803Y-91870537D01*
X126208453Y-91901299D01*
X126208456Y-91901300D01*
X126208458Y-91901300D01*
X126366144Y-91901300D01*
X126366145Y-91901299D01*
X126520797Y-91870537D01*
X126666479Y-91810194D01*
X126797589Y-91722589D01*
X126909089Y-91611089D01*
X126996694Y-91479979D01*
X127001412Y-91468590D01*
X127021331Y-91420500D01*
X127057037Y-91334297D01*
X127087800Y-91179642D01*
X127087800Y-91021958D01*
X127087800Y-91021955D01*
X127087799Y-91021953D01*
X127080824Y-90986886D01*
X127057037Y-90867303D01*
X127057035Y-90867298D01*
X126996697Y-90721627D01*
X126996690Y-90721614D01*
X126909089Y-90590511D01*
X126909086Y-90590507D01*
X126797592Y-90479013D01*
X126797588Y-90479010D01*
X126666485Y-90391409D01*
X126666472Y-90391402D01*
X126520801Y-90331064D01*
X126520789Y-90331061D01*
X126366145Y-90300300D01*
X126366142Y-90300300D01*
X126208458Y-90300300D01*
X126208455Y-90300300D01*
X126053810Y-90331061D01*
X126053798Y-90331064D01*
X125908127Y-90391402D01*
X125908114Y-90391409D01*
X125776425Y-90479402D01*
X125709747Y-90500280D01*
X125707534Y-90500300D01*
X117153769Y-90500300D01*
X117086730Y-90480615D01*
X117040975Y-90427811D01*
X117039225Y-90423794D01*
X117021094Y-90380021D01*
X117021092Y-90380018D01*
X117021090Y-90380014D01*
X116933489Y-90248911D01*
X116933486Y-90248907D01*
X116821992Y-90137413D01*
X116821988Y-90137410D01*
X116690885Y-90049809D01*
X116690872Y-90049802D01*
X116545201Y-89989464D01*
X116545189Y-89989461D01*
X116390545Y-89958700D01*
X116390542Y-89958700D01*
X116232858Y-89958700D01*
X116232855Y-89958700D01*
X116078210Y-89989461D01*
X116078198Y-89989464D01*
X115932527Y-90049802D01*
X115932514Y-90049809D01*
X115801411Y-90137410D01*
X115801407Y-90137413D01*
X115689913Y-90248907D01*
X115689910Y-90248911D01*
X115602309Y-90380014D01*
X115602302Y-90380027D01*
X115541964Y-90525698D01*
X115541961Y-90525710D01*
X115511200Y-90680353D01*
X90885216Y-90680353D01*
X90857246Y-90503757D01*
X90791557Y-90301588D01*
X90695051Y-90112184D01*
X90695049Y-90112181D01*
X90695048Y-90112179D01*
X90570109Y-89940213D01*
X90419786Y-89789890D01*
X90247820Y-89664951D01*
X90247115Y-89664591D01*
X90239054Y-89660485D01*
X90188259Y-89612512D01*
X90171463Y-89544692D01*
X90193999Y-89478556D01*
X90239054Y-89439515D01*
X90247816Y-89435051D01*
X90269789Y-89419086D01*
X90419786Y-89310109D01*
X90419788Y-89310106D01*
X90419792Y-89310104D01*
X90570104Y-89159792D01*
X90570106Y-89159788D01*
X90570109Y-89159786D01*
X90695048Y-88987820D01*
X90695047Y-88987820D01*
X90695051Y-88987816D01*
X90791557Y-88798412D01*
X90857246Y-88596243D01*
X90890500Y-88386287D01*
X90890500Y-88173713D01*
X90857246Y-87963757D01*
X90802560Y-87795453D01*
X114929700Y-87795453D01*
X114929700Y-87953146D01*
X114960461Y-88107789D01*
X114960464Y-88107801D01*
X115020802Y-88253472D01*
X115020809Y-88253485D01*
X115108410Y-88384588D01*
X115108413Y-88384592D01*
X115219907Y-88496086D01*
X115219911Y-88496089D01*
X115351014Y-88583690D01*
X115351027Y-88583697D01*
X115496698Y-88644035D01*
X115496703Y-88644037D01*
X115651353Y-88674799D01*
X115651356Y-88674800D01*
X115651358Y-88674800D01*
X115809044Y-88674800D01*
X115809045Y-88674799D01*
X115963697Y-88644037D01*
X116109379Y-88583694D01*
X116163863Y-88547289D01*
X116241075Y-88495698D01*
X116307753Y-88474820D01*
X116309966Y-88474800D01*
X127491400Y-88474800D01*
X127558439Y-88494485D01*
X127604194Y-88547289D01*
X127615400Y-88598800D01*
X127615400Y-88748746D01*
X127646161Y-88903389D01*
X127646164Y-88903401D01*
X127706502Y-89049071D01*
X127706508Y-89049082D01*
X127719198Y-89068074D01*
X127740075Y-89134752D01*
X127721590Y-89202132D01*
X127703782Y-89224639D01*
X127700914Y-89227506D01*
X127700908Y-89227514D01*
X127613309Y-89358614D01*
X127613302Y-89358627D01*
X127552964Y-89504298D01*
X127552961Y-89504310D01*
X127522200Y-89658953D01*
X127522200Y-89816646D01*
X127552961Y-89971289D01*
X127552964Y-89971301D01*
X127613302Y-90116972D01*
X127613309Y-90116985D01*
X127700910Y-90248088D01*
X127700913Y-90248092D01*
X127812407Y-90359586D01*
X127812411Y-90359589D01*
X127943514Y-90447190D01*
X127943527Y-90447197D01*
X128071683Y-90500280D01*
X128089203Y-90507537D01*
X128147002Y-90519034D01*
X128225199Y-90534589D01*
X128287110Y-90566974D01*
X128315569Y-90608753D01*
X128371704Y-90744275D01*
X128371709Y-90744285D01*
X128459310Y-90875388D01*
X128459313Y-90875392D01*
X128570807Y-90986886D01*
X128570811Y-90986889D01*
X128701914Y-91074490D01*
X128701927Y-91074497D01*
X128847598Y-91134835D01*
X128847603Y-91134837D01*
X128912247Y-91147695D01*
X129002949Y-91165738D01*
X129064860Y-91198123D01*
X129066439Y-91199674D01*
X132070039Y-94203274D01*
X132070049Y-94203285D01*
X132074379Y-94207615D01*
X132074380Y-94207616D01*
X132186184Y-94319420D01*
X132237745Y-94349188D01*
X132272995Y-94369539D01*
X132272997Y-94369541D01*
X132308613Y-94390104D01*
X132323115Y-94398477D01*
X132475843Y-94439400D01*
X152813534Y-94439400D01*
X152880573Y-94459085D01*
X152882425Y-94460298D01*
X153014114Y-94548290D01*
X153014127Y-94548297D01*
X153119748Y-94592046D01*
X153159803Y-94608637D01*
X153314453Y-94639399D01*
X153314456Y-94639400D01*
X153314458Y-94639400D01*
X153472144Y-94639400D01*
X153472145Y-94639399D01*
X153626797Y-94608637D01*
X153772479Y-94548294D01*
X153903589Y-94460689D01*
X154015089Y-94349189D01*
X154102694Y-94218079D01*
X154163037Y-94072397D01*
X154193800Y-93917742D01*
X154193800Y-93760058D01*
X154193800Y-93760055D01*
X154193799Y-93760053D01*
X154183594Y-93708751D01*
X154163037Y-93605403D01*
X154135530Y-93538994D01*
X154102697Y-93459727D01*
X154102690Y-93459714D01*
X154015089Y-93328611D01*
X154015086Y-93328607D01*
X153903592Y-93217113D01*
X153903588Y-93217110D01*
X153772485Y-93129509D01*
X153772472Y-93129502D01*
X153626801Y-93069164D01*
X153626789Y-93069161D01*
X153472145Y-93038400D01*
X153472142Y-93038400D01*
X153314458Y-93038400D01*
X153314455Y-93038400D01*
X153159810Y-93069161D01*
X153159798Y-93069164D01*
X153014127Y-93129502D01*
X153014114Y-93129509D01*
X152882425Y-93217502D01*
X152815747Y-93238380D01*
X152813534Y-93238400D01*
X132854997Y-93238400D01*
X132787958Y-93218715D01*
X132767316Y-93202081D01*
X130115216Y-90549981D01*
X130081731Y-90488658D01*
X130086715Y-90418966D01*
X130128587Y-90363033D01*
X130194051Y-90338616D01*
X130202897Y-90338300D01*
X149283234Y-90338300D01*
X149350273Y-90357985D01*
X149352125Y-90359198D01*
X149483814Y-90447190D01*
X149483827Y-90447197D01*
X149611983Y-90500280D01*
X149629503Y-90507537D01*
X149765502Y-90534589D01*
X149784153Y-90538299D01*
X149784156Y-90538300D01*
X149784158Y-90538300D01*
X149941844Y-90538300D01*
X149941845Y-90538299D01*
X150096497Y-90507537D01*
X150242179Y-90447194D01*
X150373289Y-90359589D01*
X150484789Y-90248089D01*
X150572394Y-90116979D01*
X150632737Y-89971297D01*
X150663500Y-89816642D01*
X150663500Y-89658958D01*
X150663500Y-89658955D01*
X150663499Y-89658953D01*
X150645495Y-89568443D01*
X150632737Y-89504303D01*
X150606868Y-89441851D01*
X150599400Y-89372384D01*
X150630675Y-89309904D01*
X150690764Y-89274252D01*
X150721430Y-89270400D01*
X153730234Y-89270400D01*
X153797273Y-89290085D01*
X153799125Y-89291298D01*
X153930814Y-89379290D01*
X153930827Y-89379297D01*
X154065424Y-89435048D01*
X154076503Y-89439637D01*
X154231153Y-89470399D01*
X154231156Y-89470400D01*
X154231158Y-89470400D01*
X154388844Y-89470400D01*
X154388845Y-89470399D01*
X154543497Y-89439637D01*
X154689179Y-89379294D01*
X154820289Y-89291689D01*
X154931789Y-89180189D01*
X155019394Y-89049079D01*
X155079737Y-88903397D01*
X155110500Y-88748742D01*
X155110500Y-88591058D01*
X155110500Y-88591055D01*
X155110499Y-88591053D01*
X155091609Y-88496086D01*
X155079737Y-88436403D01*
X155079735Y-88436398D01*
X155019397Y-88290727D01*
X155019390Y-88290714D01*
X154931789Y-88159611D01*
X154931786Y-88159607D01*
X154820292Y-88048113D01*
X154820288Y-88048110D01*
X154689185Y-87960509D01*
X154689172Y-87960502D01*
X154543501Y-87900164D01*
X154543489Y-87900161D01*
X154388845Y-87869400D01*
X154388842Y-87869400D01*
X154231158Y-87869400D01*
X154231155Y-87869400D01*
X154076510Y-87900161D01*
X154076498Y-87900164D01*
X153930827Y-87960502D01*
X153930814Y-87960509D01*
X153799125Y-88048502D01*
X153732447Y-88069380D01*
X153730234Y-88069400D01*
X150154500Y-88069400D01*
X150087461Y-88049715D01*
X150041706Y-87996911D01*
X150030500Y-87945400D01*
X150030500Y-87795455D01*
X150030499Y-87795453D01*
X150015845Y-87721785D01*
X149999737Y-87640803D01*
X149987760Y-87611888D01*
X149939397Y-87495127D01*
X149939390Y-87495114D01*
X149851789Y-87364011D01*
X149851786Y-87364007D01*
X149740292Y-87252513D01*
X149740288Y-87252510D01*
X149609185Y-87164909D01*
X149609172Y-87164902D01*
X149463501Y-87104564D01*
X149463489Y-87104561D01*
X149308845Y-87073800D01*
X149308842Y-87073800D01*
X149151158Y-87073800D01*
X149151155Y-87073800D01*
X148996510Y-87104561D01*
X148996498Y-87104564D01*
X148850827Y-87164902D01*
X148850814Y-87164909D01*
X148719125Y-87252902D01*
X148652447Y-87273780D01*
X148650234Y-87273800D01*
X145074500Y-87273800D01*
X145007461Y-87254115D01*
X144961706Y-87201311D01*
X144950500Y-87149800D01*
X144950500Y-86999855D01*
X144950499Y-86999853D01*
X144929652Y-86895048D01*
X144919737Y-86845203D01*
X144903743Y-86806590D01*
X144859397Y-86699527D01*
X144859390Y-86699514D01*
X144771789Y-86568411D01*
X144771786Y-86568407D01*
X144660292Y-86456913D01*
X144660288Y-86456910D01*
X144529185Y-86369309D01*
X144529172Y-86369302D01*
X144383501Y-86308964D01*
X144383489Y-86308961D01*
X144228845Y-86278200D01*
X144228842Y-86278200D01*
X144071158Y-86278200D01*
X144071155Y-86278200D01*
X143916510Y-86308961D01*
X143916498Y-86308964D01*
X143770827Y-86369302D01*
X143770814Y-86369309D01*
X143639125Y-86457302D01*
X143572447Y-86478180D01*
X143570234Y-86478200D01*
X117463666Y-86478200D01*
X117396627Y-86458515D01*
X117394775Y-86457302D01*
X117263085Y-86369309D01*
X117263072Y-86369302D01*
X117117401Y-86308964D01*
X117117389Y-86308961D01*
X116962745Y-86278200D01*
X116962742Y-86278200D01*
X116805058Y-86278200D01*
X116805055Y-86278200D01*
X116650410Y-86308961D01*
X116650398Y-86308964D01*
X116504727Y-86369302D01*
X116504714Y-86369309D01*
X116373611Y-86456910D01*
X116373607Y-86456913D01*
X116262113Y-86568407D01*
X116262110Y-86568411D01*
X116174509Y-86699514D01*
X116174502Y-86699527D01*
X116114164Y-86845198D01*
X116114161Y-86845208D01*
X116083000Y-87001865D01*
X116050615Y-87063776D01*
X115989899Y-87098350D01*
X115937192Y-87099290D01*
X115809045Y-87073800D01*
X115809042Y-87073800D01*
X115651358Y-87073800D01*
X115651355Y-87073800D01*
X115496710Y-87104561D01*
X115496698Y-87104564D01*
X115351027Y-87164902D01*
X115351014Y-87164909D01*
X115219911Y-87252510D01*
X115219907Y-87252513D01*
X115108413Y-87364007D01*
X115108410Y-87364011D01*
X115020809Y-87495114D01*
X115020802Y-87495127D01*
X114960464Y-87640798D01*
X114960461Y-87640810D01*
X114929700Y-87795453D01*
X90802560Y-87795453D01*
X90791557Y-87761588D01*
X90791555Y-87761585D01*
X90791555Y-87761583D01*
X90730014Y-87640803D01*
X90695051Y-87572184D01*
X90695049Y-87572181D01*
X90695048Y-87572179D01*
X90570109Y-87400213D01*
X90419786Y-87249890D01*
X90247820Y-87124951D01*
X90247115Y-87124591D01*
X90239054Y-87120485D01*
X90188259Y-87072512D01*
X90171463Y-87004692D01*
X90193999Y-86938556D01*
X90239054Y-86899515D01*
X90247816Y-86895051D01*
X90284914Y-86868098D01*
X90419786Y-86770109D01*
X90419788Y-86770106D01*
X90419792Y-86770104D01*
X90570104Y-86619792D01*
X90570106Y-86619788D01*
X90570109Y-86619786D01*
X90695048Y-86447820D01*
X90695047Y-86447820D01*
X90695051Y-86447816D01*
X90791557Y-86258412D01*
X90857246Y-86056243D01*
X90890500Y-85846287D01*
X90890500Y-85633713D01*
X90857246Y-85423757D01*
X90791557Y-85221588D01*
X90695051Y-85032184D01*
X90695049Y-85032181D01*
X90695048Y-85032179D01*
X90570109Y-84860213D01*
X90419786Y-84709890D01*
X90247820Y-84584951D01*
X90247115Y-84584591D01*
X90239054Y-84580485D01*
X90188259Y-84532512D01*
X90171463Y-84464692D01*
X90193999Y-84398556D01*
X90239054Y-84359515D01*
X90247816Y-84355051D01*
X90289336Y-84324885D01*
X90419786Y-84230109D01*
X90419788Y-84230106D01*
X90419792Y-84230104D01*
X90570104Y-84079792D01*
X90570106Y-84079788D01*
X90570109Y-84079786D01*
X90650063Y-83969737D01*
X90695051Y-83907816D01*
X90695349Y-83907230D01*
X90715235Y-83868205D01*
X90763209Y-83817409D01*
X90825719Y-83800500D01*
X113864934Y-83800500D01*
X113931973Y-83820185D01*
X113933825Y-83821398D01*
X114065514Y-83909390D01*
X114065527Y-83909397D01*
X114211198Y-83969735D01*
X114211203Y-83969737D01*
X114365853Y-84000499D01*
X114365856Y-84000500D01*
X114365858Y-84000500D01*
X114523544Y-84000500D01*
X114523545Y-84000499D01*
X114678197Y-83969737D01*
X114823879Y-83909394D01*
X114954989Y-83821789D01*
X115066489Y-83710289D01*
X115154094Y-83579179D01*
X115214437Y-83433497D01*
X115245200Y-83278842D01*
X115245200Y-83121158D01*
X115245200Y-83121155D01*
X115245199Y-83121153D01*
X115239741Y-83093713D01*
X115214437Y-82966503D01*
X115177494Y-82877315D01*
X115170026Y-82807849D01*
X115201301Y-82745369D01*
X115261390Y-82709717D01*
X115267830Y-82708254D01*
X115318697Y-82698137D01*
X115464379Y-82637794D01*
X115595489Y-82550189D01*
X115706989Y-82438689D01*
X115794594Y-82307579D01*
X115854937Y-82161897D01*
X115885700Y-82007242D01*
X115885700Y-81849558D01*
X115885581Y-81848959D01*
X115885581Y-81848957D01*
X115881980Y-81830853D01*
X118622700Y-81830853D01*
X118622700Y-81988546D01*
X118653461Y-82143189D01*
X118653464Y-82143201D01*
X118713802Y-82288872D01*
X118713809Y-82288885D01*
X118801410Y-82419988D01*
X118801413Y-82419992D01*
X118912907Y-82531486D01*
X118912911Y-82531489D01*
X119044014Y-82619090D01*
X119044027Y-82619097D01*
X119136254Y-82657298D01*
X119189703Y-82679437D01*
X119283704Y-82698135D01*
X119344353Y-82710199D01*
X119344356Y-82710200D01*
X119344358Y-82710200D01*
X119502044Y-82710200D01*
X119502045Y-82710199D01*
X119656697Y-82679437D01*
X119769366Y-82632767D01*
X119802372Y-82619097D01*
X119802372Y-82619096D01*
X119802379Y-82619094D01*
X119809190Y-82614543D01*
X119934075Y-82531098D01*
X120000753Y-82510220D01*
X120002966Y-82510200D01*
X146110234Y-82510200D01*
X146177273Y-82529885D01*
X146179125Y-82531098D01*
X146310814Y-82619090D01*
X146310827Y-82619097D01*
X146403054Y-82657298D01*
X146456503Y-82679437D01*
X146550504Y-82698135D01*
X146611153Y-82710199D01*
X146611156Y-82710200D01*
X146611158Y-82710200D01*
X146768844Y-82710200D01*
X146768845Y-82710199D01*
X146923497Y-82679437D01*
X147036166Y-82632767D01*
X147069172Y-82619097D01*
X147069172Y-82619096D01*
X147069179Y-82619094D01*
X147200289Y-82531489D01*
X147311789Y-82419989D01*
X147399394Y-82288879D01*
X147459737Y-82143197D01*
X147490500Y-81988542D01*
X147490500Y-81830858D01*
X147490500Y-81830855D01*
X147490499Y-81830853D01*
X147463458Y-81694910D01*
X147459737Y-81676203D01*
X147459735Y-81676198D01*
X147399397Y-81530527D01*
X147399390Y-81530514D01*
X147311789Y-81399411D01*
X147311786Y-81399407D01*
X147200292Y-81287913D01*
X147200288Y-81287910D01*
X147069185Y-81200309D01*
X147069172Y-81200302D01*
X146923501Y-81139964D01*
X146923489Y-81139961D01*
X146768845Y-81109200D01*
X146768842Y-81109200D01*
X146611158Y-81109200D01*
X146611155Y-81109200D01*
X146456510Y-81139961D01*
X146456498Y-81139964D01*
X146310827Y-81200302D01*
X146310814Y-81200309D01*
X146179125Y-81288302D01*
X146112447Y-81309180D01*
X146110234Y-81309200D01*
X120002966Y-81309200D01*
X119935927Y-81289515D01*
X119934075Y-81288302D01*
X119802385Y-81200309D01*
X119802372Y-81200302D01*
X119656701Y-81139964D01*
X119656689Y-81139961D01*
X119502045Y-81109200D01*
X119502042Y-81109200D01*
X119344358Y-81109200D01*
X119344355Y-81109200D01*
X119189710Y-81139961D01*
X119189698Y-81139964D01*
X119044027Y-81200302D01*
X119044014Y-81200309D01*
X118912911Y-81287910D01*
X118912907Y-81287913D01*
X118801413Y-81399407D01*
X118801410Y-81399411D01*
X118713809Y-81530514D01*
X118713802Y-81530527D01*
X118653464Y-81676198D01*
X118653461Y-81676210D01*
X118622700Y-81830853D01*
X115881980Y-81830853D01*
X115854938Y-81694910D01*
X115854937Y-81694903D01*
X115847189Y-81676198D01*
X115794597Y-81549227D01*
X115794590Y-81549214D01*
X115706989Y-81418111D01*
X115706986Y-81418107D01*
X115595492Y-81306613D01*
X115595488Y-81306610D01*
X115464385Y-81219009D01*
X115464372Y-81219002D01*
X115318701Y-81158664D01*
X115318689Y-81158661D01*
X115164045Y-81127900D01*
X115164042Y-81127900D01*
X115006358Y-81127900D01*
X115006355Y-81127900D01*
X114851710Y-81158661D01*
X114851698Y-81158664D01*
X114706027Y-81219002D01*
X114706014Y-81219009D01*
X114574325Y-81307002D01*
X114507647Y-81327880D01*
X114505434Y-81327900D01*
X90913656Y-81327900D01*
X90846617Y-81308215D01*
X90800862Y-81255411D01*
X90790918Y-81186253D01*
X90795723Y-81165590D01*
X90857246Y-80976243D01*
X90890500Y-80766287D01*
X90890500Y-80553713D01*
X90857246Y-80343757D01*
X90843506Y-80301473D01*
X90841512Y-80231635D01*
X90873755Y-80175478D01*
X94467317Y-76581919D01*
X94528640Y-76548434D01*
X94554998Y-76545600D01*
X115959400Y-76545600D01*
X116026439Y-76565285D01*
X116072194Y-76618089D01*
X116083400Y-76669600D01*
X116083400Y-76819546D01*
X116114161Y-76974189D01*
X116114164Y-76974201D01*
X116174502Y-77119872D01*
X116174509Y-77119885D01*
X116262110Y-77250988D01*
X116262113Y-77250992D01*
X116373607Y-77362486D01*
X116373611Y-77362489D01*
X116504714Y-77450090D01*
X116504727Y-77450097D01*
X116650398Y-77510435D01*
X116650403Y-77510437D01*
X116805053Y-77541199D01*
X116805056Y-77541200D01*
X116805058Y-77541200D01*
X116962744Y-77541200D01*
X116962745Y-77541199D01*
X117117397Y-77510437D01*
X117263079Y-77450094D01*
X117278891Y-77439529D01*
X117394775Y-77362098D01*
X117461453Y-77341220D01*
X117463666Y-77341200D01*
X141030234Y-77341200D01*
X141097273Y-77360885D01*
X141099125Y-77362098D01*
X141230814Y-77450090D01*
X141230827Y-77450097D01*
X141376498Y-77510435D01*
X141376503Y-77510437D01*
X141531153Y-77541199D01*
X141531156Y-77541200D01*
X141531158Y-77541200D01*
X141688844Y-77541200D01*
X141688845Y-77541199D01*
X141843497Y-77510437D01*
X141989179Y-77450094D01*
X142120289Y-77362489D01*
X142231789Y-77250989D01*
X142319394Y-77119879D01*
X142379737Y-76974197D01*
X142410500Y-76819542D01*
X142410500Y-76661858D01*
X142410500Y-76661855D01*
X142410499Y-76661853D01*
X142394599Y-76581919D01*
X142379737Y-76507203D01*
X142360436Y-76460606D01*
X142319397Y-76361527D01*
X142319390Y-76361514D01*
X142231789Y-76230411D01*
X142231786Y-76230407D01*
X142120292Y-76118913D01*
X142120288Y-76118910D01*
X141989185Y-76031309D01*
X141989172Y-76031302D01*
X141843501Y-75970964D01*
X141843489Y-75970961D01*
X141688845Y-75940200D01*
X141688842Y-75940200D01*
X141531158Y-75940200D01*
X141531155Y-75940200D01*
X141376510Y-75970961D01*
X141376498Y-75970964D01*
X141230827Y-76031302D01*
X141230814Y-76031309D01*
X141099125Y-76119302D01*
X141032447Y-76140180D01*
X141030234Y-76140200D01*
X127553900Y-76140200D01*
X127486861Y-76120515D01*
X127441106Y-76067711D01*
X127429900Y-76016200D01*
X127429900Y-75866255D01*
X127429899Y-75866253D01*
X127399138Y-75711610D01*
X127399137Y-75711603D01*
X127388651Y-75686287D01*
X127338797Y-75565927D01*
X127338790Y-75565914D01*
X127251189Y-75434811D01*
X127251186Y-75434807D01*
X127139692Y-75323313D01*
X127139688Y-75323310D01*
X127008585Y-75235709D01*
X127008572Y-75235702D01*
X126862901Y-75175364D01*
X126862889Y-75175361D01*
X126708245Y-75144600D01*
X126708242Y-75144600D01*
X126550558Y-75144600D01*
X126550555Y-75144600D01*
X126395910Y-75175361D01*
X126395898Y-75175364D01*
X126250227Y-75235702D01*
X126250214Y-75235709D01*
X126118525Y-75323702D01*
X126051847Y-75344580D01*
X126049634Y-75344600D01*
X111180341Y-75344600D01*
X111113302Y-75324915D01*
X111067547Y-75272111D01*
X111057603Y-75202953D01*
X111086628Y-75139397D01*
X111092660Y-75132919D01*
X111180586Y-75044992D01*
X111180589Y-75044989D01*
X111268194Y-74913879D01*
X111328537Y-74768197D01*
X111359300Y-74613542D01*
X111359300Y-74455858D01*
X111359300Y-74455855D01*
X111359299Y-74455853D01*
X111352264Y-74420484D01*
X111328537Y-74301203D01*
X111306289Y-74247491D01*
X111268197Y-74155527D01*
X111268190Y-74155514D01*
X111180589Y-74024411D01*
X111180586Y-74024407D01*
X111069092Y-73912913D01*
X111069088Y-73912910D01*
X110937985Y-73825309D01*
X110937972Y-73825302D01*
X110792301Y-73764964D01*
X110792292Y-73764961D01*
X110760307Y-73758599D01*
X110732176Y-73743883D01*
X110703297Y-73730695D01*
X110701439Y-73727805D01*
X110698396Y-73726213D01*
X110682687Y-73698625D01*
X110665523Y-73671917D01*
X110664862Y-73667321D01*
X110663823Y-73665496D01*
X110660500Y-73636982D01*
X110660500Y-73498300D01*
X110680185Y-73431261D01*
X110732989Y-73385506D01*
X110784500Y-73374300D01*
X144840234Y-73374300D01*
X144907273Y-73393985D01*
X144909125Y-73395198D01*
X145040814Y-73483190D01*
X145040827Y-73483197D01*
X145126567Y-73518711D01*
X145186503Y-73543537D01*
X145327157Y-73571515D01*
X145341153Y-73574299D01*
X145341156Y-73574300D01*
X145341158Y-73574300D01*
X145498844Y-73574300D01*
X145498845Y-73574299D01*
X145653497Y-73543537D01*
X145799179Y-73483194D01*
X145930289Y-73395589D01*
X146041789Y-73284089D01*
X146129394Y-73152979D01*
X146189737Y-73007297D01*
X146220500Y-72852642D01*
X146220500Y-72694958D01*
X146220500Y-72694955D01*
X146220499Y-72694953D01*
X146189737Y-72540303D01*
X146134447Y-72406819D01*
X146129397Y-72394627D01*
X146129390Y-72394614D01*
X146041789Y-72263511D01*
X146041786Y-72263507D01*
X145930292Y-72152013D01*
X145930288Y-72152010D01*
X145799185Y-72064409D01*
X145799172Y-72064402D01*
X145653501Y-72004064D01*
X145653489Y-72004061D01*
X145498845Y-71973300D01*
X145498842Y-71973300D01*
X145341158Y-71973300D01*
X145341155Y-71973300D01*
X145186510Y-72004061D01*
X145186498Y-72004064D01*
X145040827Y-72064402D01*
X145040814Y-72064409D01*
X144909125Y-72152402D01*
X144842447Y-72173280D01*
X144840234Y-72173300D01*
X96686997Y-72173300D01*
X96619958Y-72153615D01*
X96599316Y-72136981D01*
X90790690Y-66328355D01*
X90783621Y-66321286D01*
X90783620Y-66321284D01*
X90723344Y-66261008D01*
X90701688Y-66221345D01*
X90689862Y-66199688D01*
X90694846Y-66129996D01*
X90700535Y-66117051D01*
X90791557Y-65938412D01*
X90857246Y-65736243D01*
X90890500Y-65526287D01*
X90890500Y-65379097D01*
X90910185Y-65312058D01*
X90962989Y-65266303D01*
X91032147Y-65256359D01*
X91095703Y-65285384D01*
X91102181Y-65291416D01*
X92921239Y-67110474D01*
X92921249Y-67110485D01*
X92925579Y-67114815D01*
X92925580Y-67114816D01*
X93037384Y-67226620D01*
X93088945Y-67256388D01*
X93124195Y-67276739D01*
X93124197Y-67276741D01*
X93162251Y-67298711D01*
X93174315Y-67305677D01*
X93327043Y-67346600D01*
X93485157Y-67346600D01*
X142300234Y-67346600D01*
X142367273Y-67366285D01*
X142369125Y-67367498D01*
X142500814Y-67455490D01*
X142500827Y-67455497D01*
X142646498Y-67515835D01*
X142646503Y-67515837D01*
X142801153Y-67546599D01*
X142801156Y-67546600D01*
X142801158Y-67546600D01*
X142958844Y-67546600D01*
X142958845Y-67546599D01*
X143113497Y-67515837D01*
X143259179Y-67455494D01*
X143390289Y-67367889D01*
X143501789Y-67256389D01*
X143589394Y-67125279D01*
X143649737Y-66979597D01*
X143680500Y-66824942D01*
X143680500Y-66667258D01*
X143680500Y-66667255D01*
X143680499Y-66667253D01*
X143662159Y-66575051D01*
X143649737Y-66512603D01*
X143649735Y-66512598D01*
X143589397Y-66366927D01*
X143589390Y-66366914D01*
X143501789Y-66235811D01*
X143501786Y-66235807D01*
X143390292Y-66124313D01*
X143390288Y-66124310D01*
X143259185Y-66036709D01*
X143259172Y-66036702D01*
X143113501Y-65976364D01*
X143113489Y-65976361D01*
X142958845Y-65945600D01*
X142958842Y-65945600D01*
X142801158Y-65945600D01*
X142801155Y-65945600D01*
X142646510Y-65976361D01*
X142646498Y-65976364D01*
X142500827Y-66036702D01*
X142500814Y-66036709D01*
X142369125Y-66124702D01*
X142302447Y-66145580D01*
X142300234Y-66145600D01*
X141264500Y-66145600D01*
X141197461Y-66125915D01*
X141151706Y-66073111D01*
X141140500Y-66021600D01*
X141140500Y-65997755D01*
X141140499Y-65997753D01*
X141128695Y-65938412D01*
X141109737Y-65843103D01*
X141109735Y-65843098D01*
X141049397Y-65697427D01*
X141049390Y-65697414D01*
X140961789Y-65566311D01*
X140961786Y-65566307D01*
X140850292Y-65454813D01*
X140850288Y-65454810D01*
X140719185Y-65367209D01*
X140719172Y-65367202D01*
X140573501Y-65306864D01*
X140573491Y-65306861D01*
X140418151Y-65275962D01*
X140356241Y-65243577D01*
X140354662Y-65242026D01*
X138454286Y-63341650D01*
X136504915Y-61392280D01*
X136471431Y-61330958D01*
X136476415Y-61261266D01*
X136518287Y-61205333D01*
X136583751Y-61180916D01*
X136592597Y-61180600D01*
X137220234Y-61180600D01*
X137287273Y-61200285D01*
X137289125Y-61201498D01*
X137420814Y-61289490D01*
X137420827Y-61289497D01*
X137566498Y-61349835D01*
X137566503Y-61349837D01*
X137668417Y-61370109D01*
X137721153Y-61380599D01*
X137721156Y-61380600D01*
X137721158Y-61380600D01*
X137878844Y-61380600D01*
X137878845Y-61380599D01*
X138033497Y-61349837D01*
X138179179Y-61289494D01*
X138310289Y-61201889D01*
X138421789Y-61090389D01*
X138509394Y-60959279D01*
X138569737Y-60813597D01*
X138600500Y-60658942D01*
X138600500Y-60501258D01*
X138600500Y-60501255D01*
X138600499Y-60501253D01*
X138596700Y-60482153D01*
X138569737Y-60346603D01*
X138569735Y-60346598D01*
X138509397Y-60200927D01*
X138509390Y-60200914D01*
X138421789Y-60069811D01*
X138421786Y-60069807D01*
X138310292Y-59958313D01*
X138310288Y-59958310D01*
X138179185Y-59870709D01*
X138179172Y-59870702D01*
X138033501Y-59810364D01*
X138033489Y-59810361D01*
X137878845Y-59779600D01*
X137878842Y-59779600D01*
X137721158Y-59779600D01*
X137721155Y-59779600D01*
X137566510Y-59810361D01*
X137566498Y-59810364D01*
X137420827Y-59870702D01*
X137420814Y-59870709D01*
X137289125Y-59958702D01*
X137222447Y-59979580D01*
X137220234Y-59979600D01*
X125796386Y-59979600D01*
X125729347Y-59959915D01*
X125683592Y-59907111D01*
X125674769Y-59879792D01*
X125647938Y-59744908D01*
X125647937Y-59744907D01*
X125647937Y-59744903D01*
X125601246Y-59632179D01*
X125587597Y-59599227D01*
X125587590Y-59599214D01*
X125499989Y-59468111D01*
X125499986Y-59468107D01*
X125388492Y-59356613D01*
X125388488Y-59356610D01*
X125257385Y-59269009D01*
X125257372Y-59269002D01*
X125111701Y-59208664D01*
X125111691Y-59208661D01*
X124956349Y-59177761D01*
X124894438Y-59145376D01*
X124892860Y-59143825D01*
X124570890Y-58821855D01*
X124570888Y-58821852D01*
X124452017Y-58702981D01*
X124452016Y-58702980D01*
X124369582Y-58655387D01*
X124321367Y-58604821D01*
X124308143Y-58536214D01*
X124334111Y-58471349D01*
X124391025Y-58430820D01*
X124431582Y-58424000D01*
X132016034Y-58424000D01*
X132083073Y-58443685D01*
X132084925Y-58444898D01*
X132216614Y-58532890D01*
X132216627Y-58532897D01*
X132362298Y-58593235D01*
X132362303Y-58593237D01*
X132516571Y-58623923D01*
X132516953Y-58623999D01*
X132516956Y-58624000D01*
X132516958Y-58624000D01*
X132674644Y-58624000D01*
X132674645Y-58623999D01*
X132829297Y-58593237D01*
X132941966Y-58546567D01*
X132974972Y-58532897D01*
X132974972Y-58532896D01*
X132974979Y-58532894D01*
X133050091Y-58482705D01*
X133116767Y-58461828D01*
X133184147Y-58480312D01*
X133230837Y-58532290D01*
X133233542Y-58538356D01*
X133280602Y-58651972D01*
X133280609Y-58651985D01*
X133368210Y-58783088D01*
X133368213Y-58783092D01*
X133479707Y-58894586D01*
X133479711Y-58894589D01*
X133610814Y-58982190D01*
X133610827Y-58982197D01*
X133756498Y-59042535D01*
X133756503Y-59042537D01*
X133894568Y-59070000D01*
X133911153Y-59073299D01*
X133911156Y-59073300D01*
X133911158Y-59073300D01*
X134068844Y-59073300D01*
X134068845Y-59073299D01*
X134223497Y-59042537D01*
X134369179Y-58982194D01*
X134500289Y-58894589D01*
X134611789Y-58783089D01*
X134699394Y-58651979D01*
X134759737Y-58506297D01*
X134790500Y-58351642D01*
X134790500Y-58193958D01*
X134790500Y-58193955D01*
X134790499Y-58193953D01*
X134775041Y-58116243D01*
X134759737Y-58039303D01*
X134718943Y-57940816D01*
X134699397Y-57893627D01*
X134699390Y-57893614D01*
X134611789Y-57762511D01*
X134611786Y-57762507D01*
X134500292Y-57651013D01*
X134500288Y-57651010D01*
X134369185Y-57563409D01*
X134369172Y-57563402D01*
X134223501Y-57503064D01*
X134223491Y-57503061D01*
X134068149Y-57472161D01*
X134006238Y-57439776D01*
X134004660Y-57438225D01*
X130126190Y-53559755D01*
X130126188Y-53559752D01*
X130007317Y-53440881D01*
X130007309Y-53440875D01*
X129890893Y-53373663D01*
X129890892Y-53373662D01*
X129876477Y-53365340D01*
X129870385Y-53361823D01*
X129717657Y-53320899D01*
X129559543Y-53320899D01*
X129551947Y-53320899D01*
X129551931Y-53320900D01*
X125893066Y-53320900D01*
X125826027Y-53301215D01*
X125824175Y-53300002D01*
X125692485Y-53212009D01*
X125692472Y-53212002D01*
X125546801Y-53151664D01*
X125546789Y-53151661D01*
X125392145Y-53120900D01*
X125392142Y-53120900D01*
X125234458Y-53120900D01*
X125234455Y-53120900D01*
X125079810Y-53151661D01*
X125079798Y-53151664D01*
X124934127Y-53212002D01*
X124934114Y-53212009D01*
X124803011Y-53299610D01*
X124803007Y-53299613D01*
X124691513Y-53411107D01*
X124691510Y-53411111D01*
X124603909Y-53542214D01*
X124603902Y-53542227D01*
X124543564Y-53687898D01*
X124543561Y-53687910D01*
X124512800Y-53842553D01*
X124512800Y-54000246D01*
X124543561Y-54154889D01*
X124543564Y-54154901D01*
X124603902Y-54300572D01*
X124603909Y-54300585D01*
X124691510Y-54431688D01*
X124691513Y-54431692D01*
X124803007Y-54543186D01*
X124803011Y-54543189D01*
X124934114Y-54630790D01*
X124934127Y-54630797D01*
X125079798Y-54691135D01*
X125079803Y-54691137D01*
X125234453Y-54721899D01*
X125234456Y-54721900D01*
X125234458Y-54721900D01*
X125392144Y-54721900D01*
X125392145Y-54721899D01*
X125546797Y-54691137D01*
X125692479Y-54630794D01*
X125797014Y-54560946D01*
X125824175Y-54542798D01*
X125890853Y-54521920D01*
X125893066Y-54521900D01*
X129338503Y-54521900D01*
X129405542Y-54541585D01*
X129426184Y-54558219D01*
X131879284Y-57011319D01*
X131912769Y-57072642D01*
X131907785Y-57142334D01*
X131865913Y-57198267D01*
X131800449Y-57222684D01*
X131791603Y-57223000D01*
X91873038Y-57223000D01*
X91805999Y-57203315D01*
X91760244Y-57150511D01*
X91751421Y-57123191D01*
X91723238Y-56981510D01*
X91723237Y-56981503D01*
X91696150Y-56916108D01*
X91662897Y-56835827D01*
X91662890Y-56835814D01*
X91575289Y-56704711D01*
X91575286Y-56704707D01*
X91463792Y-56593213D01*
X91463788Y-56593210D01*
X91332685Y-56505609D01*
X91332672Y-56505602D01*
X91187001Y-56445264D01*
X91186991Y-56445261D01*
X91031649Y-56414361D01*
X91014892Y-56405595D01*
X90996414Y-56401576D01*
X90971377Y-56382833D01*
X90969738Y-56381976D01*
X90968160Y-56380425D01*
X90873590Y-56285855D01*
X90873588Y-56285852D01*
X90754717Y-56166981D01*
X90754716Y-56166980D01*
X90749027Y-56163695D01*
X90730007Y-56152714D01*
X90681792Y-56102146D01*
X90668570Y-56033539D01*
X90691694Y-55972436D01*
X90695051Y-55967816D01*
X90791557Y-55778412D01*
X90857246Y-55576243D01*
X90890500Y-55366287D01*
X90890500Y-55153713D01*
X90857246Y-54943757D01*
X90791557Y-54741588D01*
X90695051Y-54552184D01*
X90695049Y-54552181D01*
X90695048Y-54552179D01*
X90570109Y-54380213D01*
X90419786Y-54229890D01*
X90247820Y-54104951D01*
X90244862Y-54103444D01*
X90239054Y-54100485D01*
X90188259Y-54052512D01*
X90171463Y-53984692D01*
X90193999Y-53918556D01*
X90239054Y-53879515D01*
X90247816Y-53875051D01*
X90295255Y-53840585D01*
X90419786Y-53750109D01*
X90419788Y-53750106D01*
X90419792Y-53750104D01*
X90570104Y-53599792D01*
X90570106Y-53599788D01*
X90570109Y-53599786D01*
X90685559Y-53440881D01*
X90695051Y-53427816D01*
X90791557Y-53238412D01*
X90857246Y-53036243D01*
X90890500Y-52826287D01*
X90890500Y-52613713D01*
X90857246Y-52403757D01*
X90791557Y-52201588D01*
X90695051Y-52012184D01*
X90695049Y-52012181D01*
X90695048Y-52012179D01*
X90570109Y-51840213D01*
X90419786Y-51689890D01*
X90247820Y-51564951D01*
X90247115Y-51564591D01*
X90239054Y-51560485D01*
X90188259Y-51512512D01*
X90171463Y-51444692D01*
X90193999Y-51378556D01*
X90239054Y-51339515D01*
X90247816Y-51335051D01*
X90316038Y-51285485D01*
X90419786Y-51210109D01*
X90419788Y-51210106D01*
X90419792Y-51210104D01*
X90570104Y-51059792D01*
X90570106Y-51059788D01*
X90570109Y-51059786D01*
X90695048Y-50887820D01*
X90695047Y-50887820D01*
X90695051Y-50887816D01*
X90791557Y-50698412D01*
X90857246Y-50496243D01*
X90890500Y-50286287D01*
X90890500Y-50073713D01*
X90857246Y-49863757D01*
X90791557Y-49661588D01*
X90695051Y-49472184D01*
X90695049Y-49472181D01*
X90695048Y-49472179D01*
X90570109Y-49300213D01*
X90419792Y-49149896D01*
X90379111Y-49120340D01*
X90248647Y-49025553D01*
X111719500Y-49025553D01*
X111719500Y-49183246D01*
X111750261Y-49337889D01*
X111750264Y-49337901D01*
X111810602Y-49483572D01*
X111810609Y-49483585D01*
X111898210Y-49614688D01*
X111898213Y-49614692D01*
X112009707Y-49726186D01*
X112009711Y-49726189D01*
X112140814Y-49813790D01*
X112140827Y-49813797D01*
X112286498Y-49874135D01*
X112286503Y-49874137D01*
X112423492Y-49901386D01*
X112441153Y-49904899D01*
X112441156Y-49904900D01*
X112441158Y-49904900D01*
X112598844Y-49904900D01*
X112598845Y-49904899D01*
X112753497Y-49874137D01*
X112899179Y-49813794D01*
X112934951Y-49789892D01*
X113030875Y-49725798D01*
X113097553Y-49704920D01*
X113099766Y-49704900D01*
X121894534Y-49704900D01*
X121961573Y-49724585D01*
X121963425Y-49725798D01*
X122095114Y-49813790D01*
X122095127Y-49813797D01*
X122240798Y-49874135D01*
X122240803Y-49874137D01*
X122377792Y-49901386D01*
X122395453Y-49904899D01*
X122395456Y-49904900D01*
X122395458Y-49904900D01*
X122553144Y-49904900D01*
X122553145Y-49904899D01*
X122707797Y-49874137D01*
X122853479Y-49813794D01*
X122984589Y-49726189D01*
X123096089Y-49614689D01*
X123183694Y-49483579D01*
X123244037Y-49337897D01*
X123274800Y-49183242D01*
X123274800Y-49025558D01*
X123274800Y-49025555D01*
X123274799Y-49025553D01*
X123266026Y-48981447D01*
X123244037Y-48870903D01*
X123221601Y-48816737D01*
X123183697Y-48725227D01*
X123183690Y-48725214D01*
X123096089Y-48594111D01*
X123096086Y-48594107D01*
X122984592Y-48482613D01*
X122984588Y-48482610D01*
X122853485Y-48395009D01*
X122853472Y-48395002D01*
X122707801Y-48334664D01*
X122707789Y-48334661D01*
X122553145Y-48303900D01*
X122553142Y-48303900D01*
X122395458Y-48303900D01*
X122395455Y-48303900D01*
X122240810Y-48334661D01*
X122240798Y-48334664D01*
X122095127Y-48395002D01*
X122095114Y-48395009D01*
X121963425Y-48483002D01*
X121896747Y-48503880D01*
X121894534Y-48503900D01*
X113099766Y-48503900D01*
X113032727Y-48484215D01*
X113030875Y-48483002D01*
X112899185Y-48395009D01*
X112899172Y-48395002D01*
X112753501Y-48334664D01*
X112753489Y-48334661D01*
X112598845Y-48303900D01*
X112598842Y-48303900D01*
X112441158Y-48303900D01*
X112441155Y-48303900D01*
X112286510Y-48334661D01*
X112286498Y-48334664D01*
X112140827Y-48395002D01*
X112140814Y-48395009D01*
X112009711Y-48482610D01*
X112009707Y-48482613D01*
X111898213Y-48594107D01*
X111898210Y-48594111D01*
X111810609Y-48725214D01*
X111810602Y-48725227D01*
X111750264Y-48870898D01*
X111750261Y-48870910D01*
X111719500Y-49025553D01*
X90248647Y-49025553D01*
X90247816Y-49024949D01*
X90231254Y-49016510D01*
X90224088Y-49011478D01*
X90207551Y-48990731D01*
X90188259Y-48972512D01*
X90186109Y-48963832D01*
X90180537Y-48956842D01*
X90177841Y-48930445D01*
X90171463Y-48904692D01*
X90174346Y-48896229D01*
X90173438Y-48887334D01*
X90185441Y-48863669D01*
X90193999Y-48838556D01*
X90201458Y-48832092D01*
X90205045Y-48825022D01*
X90219179Y-48816737D01*
X90239054Y-48799515D01*
X90247816Y-48795051D01*
X90283250Y-48769307D01*
X90419786Y-48670109D01*
X90419788Y-48670106D01*
X90419792Y-48670104D01*
X90570104Y-48519792D01*
X90570106Y-48519788D01*
X90570109Y-48519786D01*
X90695048Y-48347820D01*
X90695047Y-48347820D01*
X90695051Y-48347816D01*
X90791557Y-48158412D01*
X90857246Y-47956243D01*
X90890500Y-47746287D01*
X90890500Y-47533713D01*
X90857246Y-47323757D01*
X90791557Y-47121588D01*
X90695051Y-46932184D01*
X90695049Y-46932181D01*
X90695048Y-46932179D01*
X90570109Y-46760213D01*
X90419786Y-46609890D01*
X90247820Y-46484951D01*
X90247115Y-46484591D01*
X90239054Y-46480485D01*
X90188259Y-46432512D01*
X90171463Y-46364692D01*
X90193999Y-46298556D01*
X90239054Y-46259515D01*
X90247816Y-46255051D01*
X90304683Y-46213735D01*
X90419786Y-46130109D01*
X90419788Y-46130106D01*
X90419792Y-46130104D01*
X90570104Y-45979792D01*
X90570106Y-45979788D01*
X90570109Y-45979786D01*
X90667121Y-45846258D01*
X90667125Y-45846253D01*
X109758300Y-45846253D01*
X109758300Y-46003946D01*
X109789061Y-46158589D01*
X109789064Y-46158601D01*
X109849402Y-46304272D01*
X109849409Y-46304285D01*
X109937010Y-46435388D01*
X109937013Y-46435392D01*
X110048507Y-46546886D01*
X110048511Y-46546889D01*
X110179614Y-46634490D01*
X110179627Y-46634497D01*
X110325298Y-46694835D01*
X110325303Y-46694837D01*
X110479953Y-46725599D01*
X110479956Y-46725600D01*
X110479958Y-46725600D01*
X110637644Y-46725600D01*
X110637645Y-46725599D01*
X110792297Y-46694837D01*
X110937979Y-46634494D01*
X110937985Y-46634490D01*
X111069675Y-46546498D01*
X111136353Y-46525620D01*
X111138566Y-46525600D01*
X118222534Y-46525600D01*
X118289573Y-46545285D01*
X118291425Y-46546498D01*
X118423114Y-46634490D01*
X118423127Y-46634497D01*
X118568798Y-46694835D01*
X118568803Y-46694837D01*
X118723453Y-46725599D01*
X118723456Y-46725600D01*
X118723458Y-46725600D01*
X118881144Y-46725600D01*
X118881145Y-46725599D01*
X119035797Y-46694837D01*
X119181479Y-46634494D01*
X119312589Y-46546889D01*
X119424089Y-46435389D01*
X119511694Y-46304279D01*
X119572037Y-46158597D01*
X119602800Y-46003942D01*
X119602800Y-45846258D01*
X119602800Y-45846255D01*
X119602799Y-45846253D01*
X119582541Y-45744410D01*
X119572037Y-45691603D01*
X119556754Y-45654707D01*
X119511697Y-45545927D01*
X119511690Y-45545914D01*
X119424089Y-45414811D01*
X119424086Y-45414807D01*
X119312592Y-45303313D01*
X119312588Y-45303310D01*
X119181485Y-45215709D01*
X119181472Y-45215702D01*
X119035801Y-45155364D01*
X119035789Y-45155361D01*
X118881145Y-45124600D01*
X118881142Y-45124600D01*
X118723458Y-45124600D01*
X118723455Y-45124600D01*
X118568810Y-45155361D01*
X118568798Y-45155364D01*
X118423127Y-45215702D01*
X118423114Y-45215709D01*
X118291425Y-45303702D01*
X118224747Y-45324580D01*
X118222534Y-45324600D01*
X111138566Y-45324600D01*
X111071527Y-45304915D01*
X111069675Y-45303702D01*
X110937985Y-45215709D01*
X110937972Y-45215702D01*
X110792301Y-45155364D01*
X110792289Y-45155361D01*
X110637645Y-45124600D01*
X110637642Y-45124600D01*
X110479958Y-45124600D01*
X110479955Y-45124600D01*
X110325310Y-45155361D01*
X110325298Y-45155364D01*
X110179627Y-45215702D01*
X110179614Y-45215709D01*
X110048511Y-45303310D01*
X110048507Y-45303313D01*
X109937013Y-45414807D01*
X109937010Y-45414811D01*
X109849409Y-45545914D01*
X109849402Y-45545927D01*
X109789064Y-45691598D01*
X109789061Y-45691610D01*
X109758300Y-45846253D01*
X90667125Y-45846253D01*
X90695051Y-45807816D01*
X90791557Y-45618412D01*
X90857246Y-45416243D01*
X90890500Y-45206287D01*
X90890500Y-44993713D01*
X90857246Y-44783757D01*
X90791557Y-44581588D01*
X90695051Y-44392184D01*
X90695049Y-44392181D01*
X90695048Y-44392179D01*
X90570109Y-44220213D01*
X90419786Y-44069890D01*
X90247820Y-43944951D01*
X90247115Y-43944591D01*
X90239054Y-43940485D01*
X90188259Y-43892512D01*
X90171463Y-43824692D01*
X90193999Y-43758556D01*
X90239054Y-43719515D01*
X90247816Y-43715051D01*
X90269789Y-43699086D01*
X90419786Y-43590109D01*
X90419788Y-43590106D01*
X90419792Y-43590104D01*
X90570104Y-43439792D01*
X90570106Y-43439788D01*
X90570109Y-43439786D01*
X90695048Y-43267820D01*
X90695047Y-43267820D01*
X90695051Y-43267816D01*
X90791557Y-43078412D01*
X90857246Y-42876243D01*
X90890500Y-42666287D01*
X90890500Y-42453713D01*
X90857246Y-42243757D01*
X90791557Y-42041588D01*
X90695051Y-41852184D01*
X90695049Y-41852181D01*
X90695048Y-41852179D01*
X90570109Y-41680213D01*
X90419786Y-41529890D01*
X90247820Y-41404951D01*
X90247115Y-41404591D01*
X90239054Y-41400485D01*
X90188259Y-41352512D01*
X90171463Y-41284692D01*
X90193999Y-41218556D01*
X90239054Y-41179515D01*
X90247816Y-41175051D01*
X90269789Y-41159086D01*
X90419786Y-41050109D01*
X90419788Y-41050106D01*
X90419792Y-41050104D01*
X90570104Y-40899792D01*
X90570106Y-40899788D01*
X90570109Y-40899786D01*
X90695048Y-40727820D01*
X90695047Y-40727820D01*
X90695051Y-40727816D01*
X90791557Y-40538412D01*
X90857246Y-40336243D01*
X90890500Y-40126287D01*
X90890500Y-39913713D01*
X90857246Y-39703757D01*
X90791557Y-39501588D01*
X90695051Y-39312184D01*
X90695049Y-39312181D01*
X90695048Y-39312179D01*
X90570109Y-39140213D01*
X90419786Y-38989890D01*
X90247820Y-38864951D01*
X90247115Y-38864591D01*
X90239054Y-38860485D01*
X90188259Y-38812512D01*
X90171463Y-38744692D01*
X90193999Y-38678556D01*
X90239054Y-38639515D01*
X90247816Y-38635051D01*
X90269789Y-38619086D01*
X90419786Y-38510109D01*
X90419788Y-38510106D01*
X90419792Y-38510104D01*
X90570104Y-38359792D01*
X90570106Y-38359788D01*
X90570109Y-38359786D01*
X90695048Y-38187820D01*
X90695047Y-38187820D01*
X90695051Y-38187816D01*
X90791557Y-37998412D01*
X90857246Y-37796243D01*
X90890500Y-37586287D01*
X90890500Y-37373713D01*
X90857246Y-37163757D01*
X90791557Y-36961588D01*
X90695051Y-36772184D01*
X90695049Y-36772181D01*
X90695048Y-36772179D01*
X90570109Y-36600213D01*
X90419786Y-36449890D01*
X90247820Y-36324951D01*
X90247115Y-36324591D01*
X90239054Y-36320485D01*
X90188259Y-36272512D01*
X90171463Y-36204692D01*
X90193999Y-36138556D01*
X90239054Y-36099515D01*
X90247816Y-36095051D01*
X90269789Y-36079086D01*
X90419786Y-35970109D01*
X90419788Y-35970106D01*
X90419792Y-35970104D01*
X90570104Y-35819792D01*
X90570106Y-35819788D01*
X90570109Y-35819786D01*
X90695048Y-35647820D01*
X90695047Y-35647820D01*
X90695051Y-35647816D01*
X90791557Y-35458412D01*
X90857246Y-35256243D01*
X90890500Y-35046287D01*
X90890500Y-34833713D01*
X90857246Y-34623757D01*
X90791557Y-34421588D01*
X90695051Y-34232184D01*
X90695049Y-34232181D01*
X90695048Y-34232179D01*
X90570109Y-34060213D01*
X90419786Y-33909890D01*
X90247820Y-33784951D01*
X90247115Y-33784591D01*
X90239054Y-33780485D01*
X90188259Y-33732512D01*
X90171463Y-33664692D01*
X90193999Y-33598556D01*
X90239054Y-33559515D01*
X90247816Y-33555051D01*
X90269789Y-33539086D01*
X90419786Y-33430109D01*
X90419788Y-33430106D01*
X90419792Y-33430104D01*
X90570104Y-33279792D01*
X90570106Y-33279788D01*
X90570109Y-33279786D01*
X90695048Y-33107820D01*
X90695047Y-33107820D01*
X90695051Y-33107816D01*
X90791557Y-32918412D01*
X90857246Y-32716243D01*
X90890500Y-32506287D01*
X90890500Y-32293713D01*
X90857246Y-32083757D01*
X90791557Y-31881588D01*
X90695051Y-31692184D01*
X90695049Y-31692181D01*
X90695048Y-31692179D01*
X90570109Y-31520213D01*
X90419786Y-31369890D01*
X90247820Y-31244951D01*
X90247115Y-31244591D01*
X90239054Y-31240485D01*
X90188259Y-31192512D01*
X90171463Y-31124692D01*
X90193999Y-31058556D01*
X90239054Y-31019515D01*
X90247816Y-31015051D01*
X90269789Y-30999086D01*
X90419786Y-30890109D01*
X90419788Y-30890106D01*
X90419792Y-30890104D01*
X90570104Y-30739792D01*
X90570106Y-30739788D01*
X90570109Y-30739786D01*
X90695048Y-30567820D01*
X90695047Y-30567820D01*
X90695051Y-30567816D01*
X90791557Y-30378412D01*
X90857246Y-30176243D01*
X90890500Y-29966287D01*
X90890500Y-29753713D01*
X90857246Y-29543757D01*
X90791557Y-29341588D01*
X90695051Y-29152184D01*
X90695049Y-29152181D01*
X90695048Y-29152179D01*
X90570109Y-28980213D01*
X90419786Y-28829890D01*
X90247820Y-28704951D01*
X90247115Y-28704591D01*
X90239054Y-28700485D01*
X90188259Y-28652512D01*
X90171463Y-28584692D01*
X90193999Y-28518556D01*
X90239054Y-28479515D01*
X90247816Y-28475051D01*
X90269789Y-28459086D01*
X90419786Y-28350109D01*
X90419788Y-28350106D01*
X90419792Y-28350104D01*
X90570104Y-28199792D01*
X90570106Y-28199788D01*
X90570109Y-28199786D01*
X90695048Y-28027820D01*
X90695047Y-28027820D01*
X90695051Y-28027816D01*
X90791557Y-27838412D01*
X90857246Y-27636243D01*
X90890500Y-27426287D01*
X90890500Y-27213713D01*
X90857246Y-27003757D01*
X90791557Y-26801588D01*
X90695051Y-26612184D01*
X90695049Y-26612181D01*
X90695048Y-26612179D01*
X90570109Y-26440213D01*
X90419786Y-26289890D01*
X90247820Y-26164951D01*
X90247115Y-26164591D01*
X90239054Y-26160485D01*
X90188259Y-26112512D01*
X90171463Y-26044692D01*
X90193999Y-25978556D01*
X90239054Y-25939515D01*
X90247816Y-25935051D01*
X90269789Y-25919086D01*
X90419786Y-25810109D01*
X90419788Y-25810106D01*
X90419792Y-25810104D01*
X90570104Y-25659792D01*
X90570106Y-25659788D01*
X90570109Y-25659786D01*
X90695048Y-25487820D01*
X90695047Y-25487820D01*
X90695051Y-25487816D01*
X90791557Y-25298412D01*
X90857246Y-25096243D01*
X90890500Y-24886287D01*
X90890500Y-24673713D01*
X90857246Y-24463757D01*
X90791557Y-24261588D01*
X90695051Y-24072184D01*
X90695049Y-24072181D01*
X90695048Y-24072179D01*
X90570109Y-23900213D01*
X90419786Y-23749890D01*
X90247820Y-23624951D01*
X90247115Y-23624591D01*
X90239054Y-23620485D01*
X90188259Y-23572512D01*
X90171463Y-23504692D01*
X90193999Y-23438556D01*
X90239054Y-23399515D01*
X90247816Y-23395051D01*
X90269789Y-23379086D01*
X90419786Y-23270109D01*
X90419788Y-23270106D01*
X90419792Y-23270104D01*
X90570104Y-23119792D01*
X90570106Y-23119788D01*
X90570109Y-23119786D01*
X90695048Y-22947820D01*
X90695047Y-22947820D01*
X90695051Y-22947816D01*
X90791557Y-22758412D01*
X90857246Y-22556243D01*
X90890500Y-22346287D01*
X90890500Y-22133713D01*
X90857246Y-21923757D01*
X90791557Y-21721588D01*
X90695051Y-21532184D01*
X90695049Y-21532181D01*
X90695048Y-21532179D01*
X90570109Y-21360213D01*
X90419786Y-21209890D01*
X90247820Y-21084951D01*
X90247115Y-21084591D01*
X90239054Y-21080485D01*
X90188259Y-21032512D01*
X90171463Y-20964692D01*
X90193999Y-20898556D01*
X90239054Y-20859515D01*
X90247816Y-20855051D01*
X90269789Y-20839086D01*
X90419786Y-20730109D01*
X90419788Y-20730106D01*
X90419792Y-20730104D01*
X90570104Y-20579792D01*
X90570106Y-20579788D01*
X90570109Y-20579786D01*
X90695048Y-20407820D01*
X90695047Y-20407820D01*
X90695051Y-20407816D01*
X90791557Y-20218412D01*
X90857246Y-20016243D01*
X90890500Y-19806287D01*
X90890500Y-19593713D01*
X90857246Y-19383757D01*
X90791557Y-19181588D01*
X90695051Y-18992184D01*
X90695049Y-18992181D01*
X90695048Y-18992179D01*
X90570109Y-18820213D01*
X90419786Y-18669890D01*
X90247820Y-18544951D01*
X90247115Y-18544591D01*
X90239054Y-18540485D01*
X90188259Y-18492512D01*
X90171463Y-18424692D01*
X90193999Y-18358556D01*
X90239054Y-18319515D01*
X90247816Y-18315051D01*
X90269789Y-18299086D01*
X90419786Y-18190109D01*
X90419788Y-18190106D01*
X90419792Y-18190104D01*
X90570104Y-18039792D01*
X90570106Y-18039788D01*
X90570109Y-18039786D01*
X90695048Y-17867820D01*
X90695047Y-17867820D01*
X90695051Y-17867816D01*
X90791557Y-17678412D01*
X90857246Y-17476243D01*
X90890500Y-17266287D01*
X90890500Y-17053713D01*
X90857246Y-16843757D01*
X90791557Y-16641588D01*
X90695051Y-16452184D01*
X90695049Y-16452181D01*
X90695048Y-16452179D01*
X90570109Y-16280213D01*
X90419786Y-16129890D01*
X90247820Y-16004951D01*
X90058414Y-15908444D01*
X90058413Y-15908443D01*
X90058412Y-15908443D01*
X89856243Y-15842754D01*
X89856241Y-15842753D01*
X89856240Y-15842753D01*
X89694957Y-15817208D01*
X89646287Y-15809500D01*
X89433713Y-15809500D01*
X89385042Y-15817208D01*
X89223760Y-15842753D01*
X89021585Y-15908444D01*
X88832179Y-16004951D01*
X88660213Y-16129890D01*
X88509890Y-16280213D01*
X88384949Y-16452182D01*
X88380484Y-16460946D01*
X88332509Y-16511742D01*
X88264688Y-16528536D01*
X88198553Y-16505998D01*
X88159516Y-16460946D01*
X88155050Y-16452182D01*
X88030109Y-16280213D01*
X87879786Y-16129890D01*
X87707820Y-16004951D01*
X87518414Y-15908444D01*
X87518413Y-15908443D01*
X87518412Y-15908443D01*
X87316243Y-15842754D01*
X87316241Y-15842753D01*
X87316240Y-15842753D01*
X87154957Y-15817208D01*
X87106287Y-15809500D01*
X86893713Y-15809500D01*
X86845042Y-15817208D01*
X86683760Y-15842753D01*
X86481585Y-15908444D01*
X86292179Y-16004951D01*
X86120213Y-16129890D01*
X85969890Y-16280213D01*
X85844951Y-16452179D01*
X85748444Y-16641585D01*
X85682753Y-16843760D01*
X85649500Y-17053713D01*
X85649500Y-17266286D01*
X85682753Y-17476239D01*
X85748444Y-17678414D01*
X85844951Y-17867820D01*
X85969890Y-18039786D01*
X86120213Y-18190109D01*
X86292182Y-18315050D01*
X86300946Y-18319516D01*
X86351742Y-18367491D01*
X86368536Y-18435312D01*
X86345998Y-18501447D01*
X86300946Y-18540484D01*
X86292182Y-18544949D01*
X86120213Y-18669890D01*
X85969890Y-18820213D01*
X85844951Y-18992179D01*
X85748444Y-19181585D01*
X85682753Y-19383760D01*
X85649500Y-19593713D01*
X85649500Y-19806286D01*
X85682753Y-20016239D01*
X85748444Y-20218414D01*
X85844951Y-20407820D01*
X85969890Y-20579786D01*
X86120213Y-20730109D01*
X86292182Y-20855050D01*
X86300946Y-20859516D01*
X86351742Y-20907491D01*
X86368536Y-20975312D01*
X86345998Y-21041447D01*
X86300946Y-21080484D01*
X86292182Y-21084949D01*
X86120213Y-21209890D01*
X85969890Y-21360213D01*
X85844951Y-21532179D01*
X85748444Y-21721585D01*
X85682753Y-21923760D01*
X85649500Y-22133713D01*
X85649500Y-22346286D01*
X85682753Y-22556240D01*
X85744794Y-22747182D01*
X85746789Y-22817023D01*
X85710709Y-22876856D01*
X85648008Y-22907684D01*
X85626863Y-22909500D01*
X61671966Y-22909500D01*
X61604927Y-22889815D01*
X61603075Y-22888602D01*
X61471385Y-22800609D01*
X61471372Y-22800602D01*
X61325701Y-22740264D01*
X61325689Y-22740261D01*
X61171045Y-22709500D01*
X61171042Y-22709500D01*
X61013358Y-22709500D01*
X61013355Y-22709500D01*
X60858710Y-22740261D01*
X60858698Y-22740264D01*
X60713027Y-22800602D01*
X60713014Y-22800609D01*
X60581911Y-22888210D01*
X60581907Y-22888213D01*
X60470413Y-22999707D01*
X60470410Y-22999711D01*
X60382809Y-23130814D01*
X60382802Y-23130827D01*
X60322464Y-23276498D01*
X60322461Y-23276510D01*
X60291700Y-23431153D01*
X60291700Y-23588846D01*
X60322461Y-23743489D01*
X60322464Y-23743501D01*
X60382802Y-23889172D01*
X60382809Y-23889185D01*
X60470410Y-24020288D01*
X60470413Y-24020292D01*
X60581907Y-24131786D01*
X60581911Y-24131789D01*
X60713014Y-24219390D01*
X60713027Y-24219397D01*
X60814887Y-24261588D01*
X60858703Y-24279737D01*
X61013353Y-24310499D01*
X61013356Y-24310500D01*
X61013358Y-24310500D01*
X61171044Y-24310500D01*
X61171045Y-24310499D01*
X61325697Y-24279737D01*
X61471379Y-24219394D01*
X61525863Y-24182989D01*
X61603075Y-24131398D01*
X61669753Y-24110520D01*
X61671966Y-24110500D01*
X85626863Y-24110500D01*
X85693902Y-24130185D01*
X85739657Y-24182989D01*
X85749601Y-24252147D01*
X85744794Y-24272818D01*
X85682753Y-24463759D01*
X85649500Y-24673713D01*
X85649500Y-24886286D01*
X85682753Y-25096239D01*
X85748444Y-25298414D01*
X85844951Y-25487820D01*
X85969890Y-25659786D01*
X86120213Y-25810109D01*
X86292182Y-25935050D01*
X86300946Y-25939516D01*
X86351742Y-25987491D01*
X86368536Y-26055312D01*
X86345998Y-26121447D01*
X86300946Y-26160484D01*
X86292182Y-26164949D01*
X86120213Y-26289890D01*
X85969890Y-26440213D01*
X85844951Y-26612179D01*
X85748444Y-26801585D01*
X85682753Y-27003760D01*
X85649500Y-27213713D01*
X85649500Y-27426286D01*
X85682753Y-27636239D01*
X85748444Y-27838414D01*
X85844951Y-28027820D01*
X85969890Y-28199786D01*
X86120213Y-28350109D01*
X86292182Y-28475050D01*
X86300946Y-28479516D01*
X86351742Y-28527491D01*
X86368536Y-28595312D01*
X86345998Y-28661447D01*
X86300946Y-28700484D01*
X86292182Y-28704949D01*
X86120213Y-28829890D01*
X85969890Y-28980213D01*
X85844951Y-29152179D01*
X85748444Y-29341585D01*
X85682753Y-29543760D01*
X85649500Y-29753713D01*
X85649500Y-29966286D01*
X85682753Y-30176239D01*
X85748444Y-30378414D01*
X85844951Y-30567820D01*
X85969890Y-30739786D01*
X86120213Y-30890109D01*
X86292182Y-31015050D01*
X86300946Y-31019516D01*
X86351742Y-31067491D01*
X86368536Y-31135312D01*
X86345998Y-31201447D01*
X86300946Y-31240484D01*
X86292182Y-31244949D01*
X86120213Y-31369890D01*
X85969890Y-31520213D01*
X85844951Y-31692179D01*
X85748444Y-31881585D01*
X85682753Y-32083760D01*
X85649500Y-32293713D01*
X85649500Y-32506286D01*
X85682753Y-32716239D01*
X85748444Y-32918414D01*
X85844951Y-33107820D01*
X85969890Y-33279786D01*
X86120213Y-33430109D01*
X86292182Y-33555050D01*
X86300946Y-33559516D01*
X86351742Y-33607491D01*
X86368536Y-33675312D01*
X86345998Y-33741447D01*
X86300946Y-33780484D01*
X86292182Y-33784949D01*
X86120213Y-33909890D01*
X85969890Y-34060213D01*
X85844951Y-34232179D01*
X85748444Y-34421585D01*
X85682753Y-34623760D01*
X85649500Y-34833713D01*
X85649500Y-35046286D01*
X85682753Y-35256239D01*
X85748444Y-35458414D01*
X85844951Y-35647820D01*
X85969890Y-35819786D01*
X86120213Y-35970109D01*
X86292182Y-36095050D01*
X86300946Y-36099516D01*
X86351742Y-36147491D01*
X86368536Y-36215312D01*
X86345998Y-36281447D01*
X86300946Y-36320484D01*
X86292182Y-36324949D01*
X86120213Y-36449890D01*
X85969890Y-36600213D01*
X85844951Y-36772179D01*
X85748444Y-36961585D01*
X85682753Y-37163760D01*
X85649500Y-37373713D01*
X85649500Y-37586286D01*
X85682753Y-37796239D01*
X85748444Y-37998414D01*
X85844951Y-38187820D01*
X85969890Y-38359786D01*
X86120213Y-38510109D01*
X86292182Y-38635050D01*
X86300946Y-38639516D01*
X86351742Y-38687491D01*
X86368536Y-38755312D01*
X86345998Y-38821447D01*
X86300946Y-38860484D01*
X86292182Y-38864949D01*
X86120213Y-38989890D01*
X85969890Y-39140213D01*
X85844951Y-39312179D01*
X85748444Y-39501585D01*
X85682753Y-39703760D01*
X85649500Y-39913713D01*
X85649500Y-40126286D01*
X85682753Y-40336239D01*
X85748444Y-40538414D01*
X85844951Y-40727820D01*
X85969890Y-40899786D01*
X86120213Y-41050109D01*
X86292182Y-41175050D01*
X86300946Y-41179516D01*
X86351742Y-41227491D01*
X86368536Y-41295312D01*
X86345998Y-41361447D01*
X86300946Y-41400484D01*
X86292182Y-41404949D01*
X86120213Y-41529890D01*
X85969890Y-41680213D01*
X85844951Y-41852179D01*
X85748444Y-42041585D01*
X85682753Y-42243760D01*
X85649500Y-42453713D01*
X85649500Y-42666286D01*
X85681196Y-42866410D01*
X85682754Y-42876243D01*
X85729807Y-43021058D01*
X85748444Y-43078414D01*
X85844951Y-43267820D01*
X85969890Y-43439786D01*
X86120213Y-43590109D01*
X86292182Y-43715050D01*
X86300946Y-43719516D01*
X86351742Y-43767491D01*
X86368536Y-43835312D01*
X86345998Y-43901447D01*
X86300946Y-43940484D01*
X86292182Y-43944949D01*
X86120213Y-44069890D01*
X85969890Y-44220213D01*
X85844951Y-44392179D01*
X85748444Y-44581585D01*
X85682753Y-44783760D01*
X85649500Y-44993713D01*
X85649500Y-45206286D01*
X85682526Y-45414807D01*
X85682754Y-45416243D01*
X85745445Y-45609186D01*
X85748444Y-45618414D01*
X85844951Y-45807820D01*
X85969890Y-45979786D01*
X85982903Y-45992799D01*
X86016388Y-46054122D01*
X86011404Y-46123814D01*
X85982903Y-46168161D01*
X83706039Y-48445025D01*
X83644716Y-48478510D01*
X83642550Y-48478961D01*
X83487208Y-48509861D01*
X83487198Y-48509864D01*
X83341527Y-48570202D01*
X83341514Y-48570209D01*
X83210411Y-48657810D01*
X83210407Y-48657813D01*
X83098913Y-48769307D01*
X83098910Y-48769311D01*
X83011309Y-48900414D01*
X83011302Y-48900427D01*
X82950964Y-49046098D01*
X82950961Y-49046110D01*
X82920200Y-49200753D01*
X82920200Y-49358446D01*
X82950961Y-49513089D01*
X82950964Y-49513101D01*
X83011302Y-49658772D01*
X83011309Y-49658785D01*
X83098910Y-49789888D01*
X83098913Y-49789892D01*
X83210407Y-49901386D01*
X83210411Y-49901389D01*
X83341514Y-49988990D01*
X83341527Y-49988997D01*
X83436388Y-50028289D01*
X83487203Y-50049337D01*
X83641853Y-50080099D01*
X83641856Y-50080100D01*
X83641858Y-50080100D01*
X83799544Y-50080100D01*
X83799545Y-50080099D01*
X83954197Y-50049337D01*
X84099879Y-49988994D01*
X84230989Y-49901389D01*
X84342489Y-49789889D01*
X84430094Y-49658779D01*
X84490437Y-49513097D01*
X84510828Y-49410585D01*
X84521338Y-49357750D01*
X84553723Y-49295839D01*
X84555218Y-49294316D01*
X85608414Y-48241120D01*
X85669735Y-48207637D01*
X85739427Y-48212621D01*
X85795360Y-48254493D01*
X85806578Y-48272508D01*
X85844951Y-48347820D01*
X85969890Y-48519786D01*
X86120213Y-48670109D01*
X86292182Y-48795050D01*
X86300946Y-48799516D01*
X86351742Y-48847491D01*
X86368536Y-48915312D01*
X86345998Y-48981447D01*
X86300946Y-49020484D01*
X86292182Y-49024949D01*
X86120213Y-49149890D01*
X85969890Y-49300213D01*
X85844951Y-49472179D01*
X85748444Y-49661585D01*
X85682753Y-49863760D01*
X85653361Y-50049335D01*
X85649500Y-50073713D01*
X85649500Y-50286287D01*
X85652591Y-50305800D01*
X85682753Y-50496240D01*
X85744794Y-50687182D01*
X85746789Y-50757023D01*
X85710709Y-50816856D01*
X85648008Y-50847684D01*
X85626863Y-50849500D01*
X82895266Y-50849500D01*
X82828227Y-50829815D01*
X82826375Y-50828602D01*
X82694685Y-50740609D01*
X82694672Y-50740602D01*
X82549001Y-50680264D01*
X82548989Y-50680261D01*
X82394345Y-50649500D01*
X82394342Y-50649500D01*
X82236658Y-50649500D01*
X82236655Y-50649500D01*
X82082010Y-50680261D01*
X82081998Y-50680264D01*
X81936327Y-50740602D01*
X81936314Y-50740609D01*
X81805211Y-50828210D01*
X81805207Y-50828213D01*
X81693713Y-50939707D01*
X81693710Y-50939711D01*
X81606109Y-51070814D01*
X81606102Y-51070827D01*
X81545764Y-51216498D01*
X81545761Y-51216510D01*
X81515000Y-51371153D01*
X81515000Y-51528846D01*
X81545761Y-51683489D01*
X81545764Y-51683501D01*
X81606102Y-51829172D01*
X81606109Y-51829184D01*
X81693710Y-51960288D01*
X81693713Y-51960292D01*
X81805207Y-52071786D01*
X81805211Y-52071789D01*
X81936314Y-52159390D01*
X81936327Y-52159397D01*
X82038187Y-52201588D01*
X82082003Y-52219737D01*
X82236653Y-52250499D01*
X82236656Y-52250500D01*
X82236658Y-52250500D01*
X82394344Y-52250500D01*
X82394345Y-52250499D01*
X82548997Y-52219737D01*
X82694679Y-52159394D01*
X82752653Y-52120657D01*
X82826375Y-52071398D01*
X82893053Y-52050520D01*
X82895266Y-52050500D01*
X85626863Y-52050500D01*
X85693902Y-52070185D01*
X85739657Y-52122989D01*
X85749601Y-52192147D01*
X85744794Y-52212818D01*
X85682753Y-52403759D01*
X85651892Y-52598610D01*
X85649500Y-52613713D01*
X85649500Y-52826287D01*
X85682754Y-53036243D01*
X85720256Y-53151663D01*
X85748444Y-53238414D01*
X85844951Y-53427820D01*
X85969890Y-53599786D01*
X86120213Y-53750109D01*
X86292182Y-53875050D01*
X86300946Y-53879516D01*
X86351742Y-53927491D01*
X86368536Y-53995312D01*
X86345998Y-54061447D01*
X86300946Y-54100484D01*
X86292182Y-54104949D01*
X86120213Y-54229890D01*
X85969890Y-54380213D01*
X85844951Y-54552179D01*
X85748444Y-54741585D01*
X85682753Y-54943760D01*
X85649500Y-55153713D01*
X85649500Y-55366286D01*
X85682753Y-55576239D01*
X85748444Y-55778414D01*
X85844951Y-55967820D01*
X85969890Y-56139786D01*
X86120213Y-56290109D01*
X86292182Y-56415050D01*
X86300946Y-56419516D01*
X86351742Y-56467491D01*
X86368536Y-56535312D01*
X86345998Y-56601447D01*
X86300946Y-56640484D01*
X86292182Y-56644949D01*
X86120213Y-56769890D01*
X85969890Y-56920213D01*
X85844951Y-57092179D01*
X85748444Y-57281585D01*
X85682753Y-57483760D01*
X85656263Y-57651011D01*
X85649500Y-57693713D01*
X85649500Y-57906287D01*
X85682754Y-58116243D01*
X85736446Y-58281490D01*
X85748444Y-58318414D01*
X85844951Y-58507820D01*
X85969890Y-58679786D01*
X86120213Y-58830109D01*
X86292182Y-58955050D01*
X86300946Y-58959516D01*
X86351742Y-59007491D01*
X86368536Y-59075312D01*
X86345998Y-59141447D01*
X86300946Y-59180484D01*
X86292182Y-59184949D01*
X86120213Y-59309890D01*
X85969890Y-59460213D01*
X85844951Y-59632179D01*
X85748444Y-59821585D01*
X85682753Y-60023760D01*
X85657720Y-60181814D01*
X85649500Y-60233713D01*
X85649500Y-60446287D01*
X85657601Y-60497436D01*
X85682698Y-60655894D01*
X85682754Y-60656243D01*
X85692145Y-60685146D01*
X85748444Y-60858414D01*
X85844951Y-61047820D01*
X85969890Y-61219786D01*
X86120213Y-61370109D01*
X86292182Y-61495050D01*
X86300946Y-61499516D01*
X86351742Y-61547491D01*
X86368536Y-61615312D01*
X86345998Y-61681447D01*
X86300946Y-61720484D01*
X86292182Y-61724949D01*
X86120213Y-61849890D01*
X85969890Y-62000213D01*
X85844951Y-62172179D01*
X85748444Y-62361585D01*
X85682753Y-62563760D01*
X85649500Y-62773713D01*
X85649500Y-62986286D01*
X85682753Y-63196239D01*
X85682753Y-63196241D01*
X85682754Y-63196243D01*
X85739770Y-63371720D01*
X85748444Y-63398414D01*
X85844951Y-63587820D01*
X85969890Y-63759786D01*
X86120213Y-63910109D01*
X86292182Y-64035050D01*
X86300946Y-64039516D01*
X86351742Y-64087491D01*
X86368536Y-64155312D01*
X86345998Y-64221447D01*
X86300946Y-64260484D01*
X86292182Y-64264949D01*
X86120213Y-64389890D01*
X85969890Y-64540213D01*
X85844951Y-64712179D01*
X85748444Y-64901585D01*
X85682753Y-65103760D01*
X85650585Y-65306861D01*
X85649500Y-65313713D01*
X85649500Y-65526287D01*
X85682754Y-65736243D01*
X85717477Y-65843110D01*
X85748444Y-65938414D01*
X85844951Y-66127820D01*
X85969890Y-66299786D01*
X86120213Y-66450109D01*
X86292182Y-66575050D01*
X86300946Y-66579516D01*
X86351742Y-66627491D01*
X86368536Y-66695312D01*
X86345998Y-66761447D01*
X86300946Y-66800484D01*
X86292182Y-66804949D01*
X86120213Y-66929890D01*
X85969890Y-67080213D01*
X85844951Y-67252179D01*
X85748444Y-67441585D01*
X85682753Y-67643760D01*
X85649500Y-67853713D01*
X85649500Y-68066287D01*
X85682754Y-68276243D01*
X85747497Y-68475502D01*
X85748444Y-68478414D01*
X85844951Y-68667820D01*
X85969890Y-68839786D01*
X86120213Y-68990109D01*
X86292182Y-69115050D01*
X86300946Y-69119516D01*
X86351742Y-69167491D01*
X86368536Y-69235312D01*
X86345998Y-69301447D01*
X86300946Y-69340484D01*
X86292182Y-69344949D01*
X86120213Y-69469890D01*
X85969890Y-69620213D01*
X85844951Y-69792179D01*
X85748444Y-69981585D01*
X85682753Y-70183760D01*
X85649500Y-70393713D01*
X85649500Y-70606286D01*
X85682753Y-70816239D01*
X85682753Y-70816241D01*
X85682754Y-70816243D01*
X85716467Y-70920001D01*
X85748444Y-71018414D01*
X85844951Y-71207820D01*
X85969890Y-71379786D01*
X86120213Y-71530109D01*
X86292182Y-71655050D01*
X86300946Y-71659516D01*
X86351742Y-71707491D01*
X86368536Y-71775312D01*
X86345998Y-71841447D01*
X86300946Y-71880484D01*
X86292182Y-71884949D01*
X86120213Y-72009890D01*
X85969890Y-72160213D01*
X85844951Y-72332179D01*
X85748444Y-72521585D01*
X85682753Y-72723760D01*
X85649500Y-72933713D01*
X85649500Y-73146286D01*
X85682753Y-73356239D01*
X85682753Y-73356241D01*
X85682754Y-73356243D01*
X85735543Y-73518711D01*
X85748444Y-73558414D01*
X85844951Y-73747820D01*
X85969890Y-73919786D01*
X86120213Y-74070109D01*
X86292182Y-74195050D01*
X86300946Y-74199516D01*
X86351742Y-74247491D01*
X86368536Y-74315312D01*
X86345998Y-74381447D01*
X86300946Y-74420484D01*
X86292182Y-74424949D01*
X86120213Y-74549890D01*
X85969890Y-74700213D01*
X85844951Y-74872179D01*
X85748444Y-75061585D01*
X85682753Y-75263760D01*
X85649500Y-75473713D01*
X85649500Y-75686286D01*
X85682753Y-75896240D01*
X85744794Y-76087182D01*
X85746789Y-76157023D01*
X85710709Y-76216856D01*
X85648008Y-76247684D01*
X85626863Y-76249500D01*
X78335697Y-76249500D01*
X78268658Y-76229815D01*
X78248016Y-76213181D01*
X60378941Y-58344106D01*
X60370821Y-58335986D01*
X60370820Y-58335984D01*
X60259016Y-58224180D01*
X60244438Y-58215763D01*
X60233697Y-58205514D01*
X60223358Y-58187592D01*
X60209083Y-58172619D01*
X60204990Y-58155750D01*
X60198785Y-58144992D01*
X60199379Y-58132616D01*
X60195300Y-58115802D01*
X60195300Y-56580260D01*
X60195301Y-56580247D01*
X60195301Y-56412144D01*
X60193546Y-56405595D01*
X60154377Y-56259416D01*
X60133215Y-56222762D01*
X60075324Y-56122490D01*
X60075318Y-56122482D01*
X57920771Y-53967935D01*
X55737151Y-51784316D01*
X55703667Y-51722994D01*
X55708651Y-51653302D01*
X55750523Y-51597369D01*
X55755905Y-51593559D01*
X55853889Y-51528089D01*
X55965389Y-51416589D01*
X56052994Y-51285479D01*
X56113337Y-51139797D01*
X56144100Y-50985142D01*
X56144100Y-50827458D01*
X56144100Y-50827455D01*
X56144099Y-50827453D01*
X56141991Y-50816856D01*
X56113337Y-50672803D01*
X56091964Y-50621203D01*
X56052997Y-50527127D01*
X56052990Y-50527114D01*
X55965389Y-50396011D01*
X55965386Y-50396007D01*
X55853892Y-50284513D01*
X55853888Y-50284510D01*
X55722785Y-50196909D01*
X55722772Y-50196902D01*
X55577101Y-50136564D01*
X55577089Y-50136561D01*
X55422445Y-50105800D01*
X55422442Y-50105800D01*
X55264758Y-50105800D01*
X55264755Y-50105800D01*
X55110110Y-50136561D01*
X55110098Y-50136564D01*
X54964427Y-50196902D01*
X54964414Y-50196909D01*
X54832725Y-50284902D01*
X54766047Y-50305780D01*
X54763834Y-50305800D01*
X54202598Y-50305800D01*
X54135559Y-50286115D01*
X54089804Y-50233311D01*
X54079860Y-50164153D01*
X54099496Y-50112909D01*
X54178490Y-49994685D01*
X54178490Y-49994684D01*
X54178494Y-49994679D01*
X54180851Y-49988990D01*
X54205289Y-49929989D01*
X54238837Y-49848997D01*
X54267500Y-49704900D01*
X54269738Y-49693650D01*
X54302123Y-49631739D01*
X54303560Y-49630274D01*
X54506618Y-49427216D01*
X54567941Y-49393734D01*
X54594298Y-49390900D01*
X56568510Y-49390900D01*
X56635549Y-49410585D01*
X56681304Y-49463389D01*
X56691248Y-49532547D01*
X56690127Y-49539091D01*
X56674500Y-49617653D01*
X56674500Y-49775346D01*
X56705261Y-49929989D01*
X56705264Y-49930001D01*
X56765602Y-50075672D01*
X56765609Y-50075685D01*
X56853210Y-50206788D01*
X56853213Y-50206792D01*
X56964707Y-50318286D01*
X56964711Y-50318289D01*
X57095814Y-50405890D01*
X57095827Y-50405897D01*
X57143830Y-50425780D01*
X57241503Y-50466237D01*
X57353371Y-50488489D01*
X57396153Y-50496999D01*
X57396156Y-50497000D01*
X57396158Y-50497000D01*
X57553844Y-50497000D01*
X57553845Y-50496999D01*
X57708497Y-50466237D01*
X57821669Y-50419360D01*
X57854172Y-50405897D01*
X57854172Y-50405896D01*
X57854179Y-50405894D01*
X57985289Y-50318289D01*
X58096789Y-50206789D01*
X58184394Y-50075679D01*
X58184395Y-50075677D01*
X58186069Y-50072547D01*
X58187377Y-50071215D01*
X58187779Y-50070614D01*
X58187892Y-50070690D01*
X58235031Y-50022703D01*
X58295427Y-50007000D01*
X59761434Y-50007000D01*
X59828473Y-50026685D01*
X59830325Y-50027898D01*
X59962014Y-50115890D01*
X59962027Y-50115897D01*
X60078529Y-50164153D01*
X60107703Y-50176237D01*
X60261292Y-50206788D01*
X60262353Y-50206999D01*
X60262356Y-50207000D01*
X60262358Y-50207000D01*
X60420044Y-50207000D01*
X60420045Y-50206999D01*
X60574697Y-50176237D01*
X60720379Y-50115894D01*
X60851489Y-50028289D01*
X60962989Y-49916789D01*
X61050594Y-49785679D01*
X61110937Y-49639997D01*
X61131494Y-49536653D01*
X61140633Y-49490709D01*
X61173018Y-49428798D01*
X61233734Y-49394224D01*
X61262250Y-49390900D01*
X77592334Y-49390900D01*
X77659373Y-49410585D01*
X77661225Y-49411798D01*
X77792914Y-49499790D01*
X77792927Y-49499797D01*
X77871994Y-49532547D01*
X77938603Y-49560137D01*
X78093253Y-49590899D01*
X78093256Y-49590900D01*
X78093258Y-49590900D01*
X78250944Y-49590900D01*
X78250945Y-49590899D01*
X78405597Y-49560137D01*
X78551279Y-49499794D01*
X78682389Y-49412189D01*
X78793889Y-49300689D01*
X78881494Y-49169579D01*
X78941837Y-49023897D01*
X78972600Y-48869242D01*
X78972600Y-48711558D01*
X78972600Y-48711555D01*
X78972599Y-48711553D01*
X78949237Y-48594107D01*
X78941837Y-48556903D01*
X78919883Y-48503900D01*
X78881497Y-48411227D01*
X78881490Y-48411214D01*
X78793889Y-48280111D01*
X78793886Y-48280107D01*
X78682392Y-48168613D01*
X78682388Y-48168610D01*
X78551285Y-48081009D01*
X78551272Y-48081002D01*
X78405601Y-48020664D01*
X78405589Y-48020661D01*
X78250945Y-47989900D01*
X78250942Y-47989900D01*
X78093258Y-47989900D01*
X78093255Y-47989900D01*
X77938610Y-48020661D01*
X77938598Y-48020664D01*
X77792927Y-48081002D01*
X77792914Y-48081009D01*
X77661225Y-48169002D01*
X77594547Y-48189880D01*
X77592334Y-48189900D01*
X55192497Y-48189900D01*
X55125458Y-48170215D01*
X55079703Y-48117411D01*
X55069759Y-48048253D01*
X55098784Y-47984697D01*
X55104816Y-47978219D01*
X55381737Y-47701298D01*
X56292149Y-46790884D01*
X56353470Y-46757401D01*
X56404019Y-46756950D01*
X56511853Y-46778399D01*
X56511856Y-46778400D01*
X56511858Y-46778400D01*
X56669544Y-46778400D01*
X56669545Y-46778399D01*
X56824197Y-46747637D01*
X56951666Y-46694838D01*
X56969872Y-46687297D01*
X56969872Y-46687296D01*
X56969879Y-46687294D01*
X57100989Y-46599689D01*
X57212489Y-46488189D01*
X57300094Y-46357079D01*
X57360437Y-46211397D01*
X57391200Y-46056742D01*
X57391200Y-45899058D01*
X57391200Y-45899055D01*
X57391199Y-45899053D01*
X57380696Y-45846253D01*
X57360437Y-45744403D01*
X57323284Y-45654707D01*
X57300097Y-45598727D01*
X57300090Y-45598714D01*
X57212489Y-45467611D01*
X57212486Y-45467607D01*
X57100992Y-45356113D01*
X57100988Y-45356110D01*
X56969885Y-45268509D01*
X56969872Y-45268502D01*
X56824201Y-45208164D01*
X56824189Y-45208161D01*
X56669545Y-45177400D01*
X56669542Y-45177400D01*
X56511858Y-45177400D01*
X56511855Y-45177400D01*
X56357210Y-45208161D01*
X56357198Y-45208164D01*
X56211527Y-45268502D01*
X56211514Y-45268509D01*
X56080414Y-45356108D01*
X56021659Y-45414862D01*
X55995983Y-45434564D01*
X55978638Y-45444579D01*
X55978634Y-45444581D01*
X55887187Y-45497377D01*
X55887182Y-45497381D01*
X55775378Y-45609186D01*
X52405884Y-48978681D01*
X52344561Y-49012166D01*
X52318203Y-49015000D01*
X40812266Y-49015000D01*
X40745227Y-48995315D01*
X40743375Y-48994102D01*
X40611685Y-48906109D01*
X40611672Y-48906102D01*
X40466001Y-48845764D01*
X40465989Y-48845761D01*
X40311345Y-48815000D01*
X40311342Y-48815000D01*
X40153658Y-48815000D01*
X40153655Y-48815000D01*
X39999010Y-48845761D01*
X39998998Y-48845764D01*
X39853327Y-48906102D01*
X39853314Y-48906109D01*
X39722211Y-48993710D01*
X39722207Y-48993713D01*
X39610713Y-49105207D01*
X39610710Y-49105211D01*
X39523109Y-49236314D01*
X39523102Y-49236327D01*
X39462764Y-49381998D01*
X39462761Y-49382010D01*
X39432000Y-49536653D01*
X39432000Y-49694346D01*
X39462761Y-49848989D01*
X39462764Y-49849001D01*
X39523102Y-49994672D01*
X39523109Y-49994685D01*
X39610710Y-50125788D01*
X39610713Y-50125792D01*
X39722207Y-50237286D01*
X39722211Y-50237289D01*
X39853314Y-50324890D01*
X39853327Y-50324897D01*
X39998998Y-50385235D01*
X39999003Y-50385237D01*
X40153658Y-50416000D01*
X40153663Y-50416000D01*
X40159718Y-50416597D01*
X40159445Y-50419360D01*
X40215041Y-50435685D01*
X40260796Y-50488489D01*
X40270740Y-50557647D01*
X40241715Y-50621203D01*
X40235683Y-50627681D01*
X37002339Y-53861025D01*
X36941016Y-53894510D01*
X36938850Y-53894961D01*
X36783508Y-53925861D01*
X36783498Y-53925864D01*
X36637827Y-53986202D01*
X36637814Y-53986209D01*
X36506711Y-54073810D01*
X36506707Y-54073813D01*
X36395213Y-54185307D01*
X36395210Y-54185311D01*
X36307609Y-54316414D01*
X36307602Y-54316427D01*
X36247264Y-54462098D01*
X36247261Y-54462110D01*
X36216500Y-54616753D01*
X36216500Y-54774446D01*
X36247261Y-54929089D01*
X36249031Y-54934924D01*
X36247701Y-54935327D01*
X36254424Y-54997807D01*
X36223154Y-55060288D01*
X36163068Y-55095946D01*
X36132392Y-55099800D01*
X27002769Y-55099800D01*
X27002753Y-55099799D01*
X26995157Y-55099799D01*
X26837043Y-55099799D01*
X26722497Y-55130492D01*
X26684314Y-55140723D01*
X26661816Y-55153713D01*
X26661815Y-55153713D01*
X26547387Y-55219777D01*
X26547382Y-55219781D01*
X20937179Y-60829984D01*
X20920767Y-60858412D01*
X20903554Y-60888227D01*
X20880838Y-60927571D01*
X20858123Y-60966914D01*
X20858123Y-60966915D01*
X20817199Y-61119643D01*
X20817199Y-61119645D01*
X20817199Y-61287746D01*
X20817200Y-61287759D01*
X20817200Y-61433534D01*
X20797515Y-61500573D01*
X20796302Y-61502425D01*
X20708309Y-61634114D01*
X20708302Y-61634127D01*
X20647964Y-61779798D01*
X20647961Y-61779810D01*
X20617200Y-61934453D01*
X20617200Y-62092146D01*
X20647961Y-62246789D01*
X20647964Y-62246801D01*
X20708302Y-62392472D01*
X20708309Y-62392485D01*
X20795910Y-62523588D01*
X20795913Y-62523592D01*
X20907407Y-62635086D01*
X20907411Y-62635089D01*
X21038514Y-62722690D01*
X21038527Y-62722697D01*
X21184198Y-62783035D01*
X21184203Y-62783037D01*
X21331609Y-62812358D01*
X21338853Y-62813799D01*
X21338856Y-62813800D01*
X21338858Y-62813800D01*
X21496544Y-62813800D01*
X21496545Y-62813799D01*
X21651197Y-62783037D01*
X21796879Y-62722694D01*
X21927989Y-62635089D01*
X22039489Y-62523589D01*
X22127094Y-62392479D01*
X22187437Y-62246797D01*
X22203325Y-62166922D01*
X22235709Y-62105012D01*
X22296425Y-62070438D01*
X22302882Y-62069362D01*
X22302868Y-62069289D01*
X22389334Y-62052088D01*
X22463497Y-62037337D01*
X22609179Y-61976994D01*
X22672846Y-61934453D01*
X22740875Y-61888998D01*
X22807553Y-61868120D01*
X22809766Y-61868100D01*
X51998451Y-61868100D01*
X52065490Y-61887785D01*
X52111245Y-61940589D01*
X52121189Y-62009747D01*
X52092164Y-62073303D01*
X52033386Y-62111077D01*
X52022642Y-62113717D01*
X51983710Y-62121461D01*
X51983698Y-62121464D01*
X51838027Y-62181802D01*
X51838014Y-62181809D01*
X51706911Y-62269410D01*
X51706907Y-62269413D01*
X51595413Y-62380907D01*
X51595410Y-62380911D01*
X51507809Y-62512014D01*
X51507802Y-62512027D01*
X51447464Y-62657698D01*
X51447461Y-62657710D01*
X51416700Y-62812353D01*
X51416700Y-62970046D01*
X51447461Y-63124689D01*
X51447464Y-63124701D01*
X51507802Y-63270372D01*
X51507809Y-63270385D01*
X51595410Y-63401488D01*
X51595413Y-63401492D01*
X51706907Y-63512986D01*
X51706911Y-63512989D01*
X51838014Y-63600590D01*
X51838027Y-63600597D01*
X51983698Y-63660935D01*
X51983703Y-63660937D01*
X52138353Y-63691699D01*
X52138356Y-63691700D01*
X52138358Y-63691700D01*
X52296044Y-63691700D01*
X52296045Y-63691699D01*
X52450697Y-63660937D01*
X52596379Y-63600594D01*
X52628613Y-63579056D01*
X52728075Y-63512598D01*
X52794753Y-63491720D01*
X52796966Y-63491700D01*
X55321631Y-63491700D01*
X55321647Y-63491701D01*
X55329243Y-63491701D01*
X55487354Y-63491701D01*
X55487357Y-63491701D01*
X55640085Y-63450777D01*
X55690204Y-63421839D01*
X55777016Y-63371720D01*
X55888820Y-63259916D01*
X55888820Y-63259914D01*
X55899028Y-63249707D01*
X55899029Y-63249704D01*
X59654872Y-59493862D01*
X59716191Y-59460380D01*
X59785883Y-59465364D01*
X59830230Y-59493865D01*
X77550739Y-77214374D01*
X77550749Y-77214385D01*
X77555079Y-77218715D01*
X77555080Y-77218716D01*
X77666884Y-77330520D01*
X77666886Y-77330521D01*
X77666890Y-77330524D01*
X77719478Y-77360885D01*
X77803816Y-77409577D01*
X77915619Y-77439534D01*
X77956542Y-77450500D01*
X77956543Y-77450500D01*
X85626863Y-77450500D01*
X85693902Y-77470185D01*
X85739657Y-77522989D01*
X85749601Y-77592147D01*
X85744794Y-77612818D01*
X85682753Y-77803759D01*
X85649500Y-78013713D01*
X85649500Y-78202700D01*
X85629815Y-78269739D01*
X85577011Y-78315494D01*
X85525500Y-78326700D01*
X59630266Y-78326700D01*
X59563227Y-78307015D01*
X59561375Y-78305802D01*
X59429685Y-78217809D01*
X59429672Y-78217802D01*
X59284001Y-78157464D01*
X59283989Y-78157461D01*
X59129345Y-78126700D01*
X59129342Y-78126700D01*
X58971658Y-78126700D01*
X58971655Y-78126700D01*
X58817010Y-78157461D01*
X58816998Y-78157464D01*
X58671327Y-78217802D01*
X58671314Y-78217809D01*
X58540211Y-78305410D01*
X58540207Y-78305413D01*
X58428713Y-78416907D01*
X58428710Y-78416911D01*
X58341109Y-78548014D01*
X58341102Y-78548027D01*
X58280764Y-78693698D01*
X58280761Y-78693710D01*
X58250000Y-78848353D01*
X58250000Y-79006046D01*
X58280761Y-79160689D01*
X58280764Y-79160701D01*
X58341102Y-79306372D01*
X58341109Y-79306385D01*
X58428710Y-79437488D01*
X58428713Y-79437492D01*
X58540207Y-79548986D01*
X58540211Y-79548989D01*
X58671314Y-79636590D01*
X58671327Y-79636597D01*
X58750394Y-79669347D01*
X58817003Y-79696937D01*
X58971653Y-79727699D01*
X58971656Y-79727700D01*
X58971658Y-79727700D01*
X59129344Y-79727700D01*
X59129345Y-79727699D01*
X59283997Y-79696937D01*
X59429679Y-79636594D01*
X59484163Y-79600189D01*
X59561375Y-79548598D01*
X59628053Y-79527720D01*
X59630266Y-79527700D01*
X85923042Y-79527700D01*
X85990081Y-79547385D01*
X86035836Y-79600189D01*
X86045780Y-79669347D01*
X86016755Y-79732903D01*
X86010723Y-79739381D01*
X85969894Y-79780209D01*
X85969890Y-79780213D01*
X85844948Y-79952184D01*
X85844947Y-79952185D01*
X85824765Y-79991795D01*
X85776791Y-80042591D01*
X85714281Y-80059500D01*
X56728997Y-80059500D01*
X56661958Y-80039815D01*
X56641316Y-80023181D01*
X48141287Y-71523152D01*
X48107802Y-71461829D01*
X48112786Y-71392137D01*
X48138360Y-71352348D01*
X48137928Y-71351993D01*
X48140974Y-71348281D01*
X48141294Y-71347783D01*
X48141789Y-71347289D01*
X48229394Y-71216179D01*
X48248850Y-71169205D01*
X48292689Y-71114804D01*
X48358983Y-71092738D01*
X48426683Y-71110016D01*
X48466181Y-71151309D01*
X48467821Y-71150214D01*
X48558810Y-71286388D01*
X48558813Y-71286392D01*
X48670307Y-71397886D01*
X48670311Y-71397889D01*
X48801414Y-71485490D01*
X48801427Y-71485497D01*
X48909132Y-71530109D01*
X48947103Y-71545837D01*
X49101753Y-71576599D01*
X49101756Y-71576600D01*
X49101758Y-71576600D01*
X49259444Y-71576600D01*
X49259445Y-71576599D01*
X49414097Y-71545837D01*
X49559779Y-71485494D01*
X49634644Y-71435471D01*
X49691475Y-71397498D01*
X49758153Y-71376620D01*
X49760366Y-71376600D01*
X54780131Y-71376600D01*
X54840550Y-71394341D01*
X54841254Y-71393025D01*
X54846625Y-71395896D01*
X54942169Y-71435471D01*
X54992303Y-71456237D01*
X55139367Y-71485490D01*
X55146953Y-71486999D01*
X55146956Y-71487000D01*
X55146958Y-71487000D01*
X55304644Y-71487000D01*
X55304645Y-71486999D01*
X55459297Y-71456237D01*
X55571966Y-71409567D01*
X55604972Y-71395897D01*
X55604972Y-71395896D01*
X55604979Y-71395894D01*
X55736089Y-71308289D01*
X55847589Y-71196789D01*
X55935194Y-71065679D01*
X55995537Y-70919997D01*
X56026300Y-70765342D01*
X56026300Y-70764139D01*
X56026478Y-70763530D01*
X56026897Y-70759282D01*
X56027702Y-70759361D01*
X56028536Y-70756521D01*
X56027267Y-70748685D01*
X56038240Y-70723475D01*
X56045985Y-70697100D01*
X56052694Y-70690269D01*
X56055153Y-70684621D01*
X56081407Y-70661038D01*
X56143217Y-70619737D01*
X56166776Y-70603997D01*
X56233453Y-70583120D01*
X56235666Y-70583100D01*
X59761434Y-70583100D01*
X59828473Y-70602785D01*
X59830325Y-70603998D01*
X59962014Y-70691990D01*
X59962027Y-70691997D01*
X60038023Y-70723475D01*
X60107703Y-70752337D01*
X60262353Y-70783099D01*
X60262356Y-70783100D01*
X60262358Y-70783100D01*
X60420044Y-70783100D01*
X60420045Y-70783099D01*
X60574697Y-70752337D01*
X60720379Y-70691994D01*
X60851489Y-70604389D01*
X60962989Y-70492889D01*
X61050594Y-70361779D01*
X61110937Y-70216097D01*
X61141700Y-70061442D01*
X61141700Y-69903758D01*
X61141700Y-69903755D01*
X61141699Y-69903753D01*
X61110938Y-69749110D01*
X61110937Y-69749103D01*
X61110935Y-69749098D01*
X61050597Y-69603427D01*
X61050590Y-69603414D01*
X60962989Y-69472311D01*
X60962986Y-69472307D01*
X60851492Y-69360813D01*
X60851488Y-69360810D01*
X60720385Y-69273209D01*
X60720372Y-69273202D01*
X60574701Y-69212864D01*
X60574689Y-69212861D01*
X60420045Y-69182100D01*
X60420042Y-69182100D01*
X60262358Y-69182100D01*
X60262355Y-69182100D01*
X60107710Y-69212861D01*
X60107698Y-69212864D01*
X59962027Y-69273202D01*
X59962014Y-69273209D01*
X59830325Y-69361202D01*
X59763647Y-69382080D01*
X59761434Y-69382100D01*
X56235666Y-69382100D01*
X56168627Y-69362415D01*
X56166775Y-69361202D01*
X56035085Y-69273209D01*
X56035072Y-69273202D01*
X55889401Y-69212864D01*
X55889389Y-69212861D01*
X55734745Y-69182100D01*
X55734742Y-69182100D01*
X55577058Y-69182100D01*
X55577055Y-69182100D01*
X55422410Y-69212861D01*
X55422398Y-69212864D01*
X55276727Y-69273202D01*
X55276714Y-69273209D01*
X55145025Y-69361202D01*
X55078347Y-69382080D01*
X55076134Y-69382100D01*
X53449500Y-69382100D01*
X53382461Y-69362415D01*
X53336706Y-69309611D01*
X53325500Y-69258100D01*
X53325500Y-69106055D01*
X53325499Y-69106053D01*
X53294738Y-68951410D01*
X53294737Y-68951403D01*
X53238728Y-68816184D01*
X53234397Y-68805727D01*
X53234390Y-68805714D01*
X53146789Y-68674611D01*
X53146786Y-68674607D01*
X53035292Y-68563113D01*
X53035288Y-68563110D01*
X52904185Y-68475509D01*
X52904172Y-68475502D01*
X52758501Y-68415164D01*
X52758489Y-68415161D01*
X52603845Y-68384400D01*
X52603842Y-68384400D01*
X52446158Y-68384400D01*
X52446155Y-68384400D01*
X52291510Y-68415161D01*
X52291498Y-68415164D01*
X52145827Y-68475502D01*
X52145814Y-68475509D01*
X52014125Y-68563502D01*
X51947447Y-68584380D01*
X51945234Y-68584400D01*
X48332457Y-68584400D01*
X48174343Y-68584400D01*
X48021615Y-68625323D01*
X48021614Y-68625323D01*
X48021612Y-68625324D01*
X48021609Y-68625325D01*
X47971496Y-68654259D01*
X47971495Y-68654260D01*
X47936253Y-68674607D01*
X47884685Y-68704379D01*
X47884682Y-68704381D01*
X46413181Y-70175882D01*
X46413175Y-70175890D01*
X46364307Y-70260534D01*
X46364307Y-70260535D01*
X46334123Y-70312815D01*
X46293199Y-70465543D01*
X46293199Y-70465545D01*
X46293199Y-70633646D01*
X46293200Y-70633659D01*
X46293200Y-71038130D01*
X46293199Y-71038148D01*
X46293199Y-71203854D01*
X46293198Y-71203854D01*
X46293199Y-71203857D01*
X46334123Y-71356585D01*
X46334124Y-71356587D01*
X46334123Y-71356587D01*
X46347522Y-71379793D01*
X46347523Y-71379795D01*
X46413175Y-71493509D01*
X46413181Y-71493517D01*
X46532049Y-71612385D01*
X46532055Y-71612390D01*
X51077484Y-76157819D01*
X51110969Y-76219142D01*
X51105985Y-76288834D01*
X51064113Y-76344767D01*
X50998649Y-76369184D01*
X50989803Y-76369500D01*
X50913755Y-76369500D01*
X50759110Y-76400261D01*
X50759098Y-76400264D01*
X50613427Y-76460602D01*
X50613414Y-76460609D01*
X50481725Y-76548602D01*
X50415047Y-76569480D01*
X50412834Y-76569500D01*
X30612266Y-76569500D01*
X30545227Y-76549815D01*
X30543375Y-76548602D01*
X30411685Y-76460609D01*
X30411672Y-76460602D01*
X30266001Y-76400264D01*
X30265989Y-76400261D01*
X30111345Y-76369500D01*
X30111342Y-76369500D01*
X29953658Y-76369500D01*
X29953655Y-76369500D01*
X29799010Y-76400261D01*
X29798998Y-76400264D01*
X29653327Y-76460602D01*
X29653314Y-76460609D01*
X29522211Y-76548210D01*
X29522207Y-76548213D01*
X29410713Y-76659707D01*
X29410710Y-76659711D01*
X29323109Y-76790814D01*
X29323102Y-76790827D01*
X29262764Y-76936498D01*
X29262761Y-76936510D01*
X29232000Y-77091153D01*
X29232000Y-77248846D01*
X29262761Y-77403489D01*
X29262764Y-77403501D01*
X29323102Y-77549172D01*
X29323109Y-77549185D01*
X29410710Y-77680288D01*
X29410713Y-77680292D01*
X29522207Y-77791786D01*
X29522211Y-77791789D01*
X29653314Y-77879390D01*
X29653327Y-77879397D01*
X29732394Y-77912147D01*
X29799003Y-77939737D01*
X29953653Y-77970499D01*
X29953656Y-77970500D01*
X29953658Y-77970500D01*
X30111344Y-77970500D01*
X30111345Y-77970499D01*
X30265997Y-77939737D01*
X30411679Y-77879394D01*
X30499970Y-77820400D01*
X30543375Y-77791398D01*
X30610053Y-77770520D01*
X30612266Y-77770500D01*
X44901678Y-77770500D01*
X44968717Y-77790185D01*
X45014472Y-77842989D01*
X45024416Y-77912147D01*
X44995391Y-77975703D01*
X44970568Y-77997603D01*
X44968308Y-77999112D01*
X44856813Y-78110607D01*
X44856810Y-78110611D01*
X44769209Y-78241714D01*
X44769202Y-78241727D01*
X44708864Y-78387398D01*
X44708861Y-78387410D01*
X44678100Y-78542053D01*
X44678100Y-78699746D01*
X44708861Y-78854389D01*
X44708864Y-78854401D01*
X44769202Y-79000072D01*
X44769209Y-79000085D01*
X44856810Y-79131188D01*
X44856813Y-79131192D01*
X44968307Y-79242686D01*
X44968311Y-79242689D01*
X45099414Y-79330290D01*
X45099427Y-79330297D01*
X45199039Y-79371557D01*
X45245103Y-79390637D01*
X45309747Y-79403495D01*
X45400449Y-79421538D01*
X45462360Y-79453923D01*
X45463939Y-79455474D01*
X48914481Y-82906016D01*
X48947966Y-82967339D01*
X48950800Y-82993697D01*
X48950800Y-83365934D01*
X48931115Y-83432973D01*
X48929902Y-83434825D01*
X48841909Y-83566514D01*
X48841902Y-83566527D01*
X48781564Y-83712198D01*
X48781561Y-83712210D01*
X48750800Y-83866853D01*
X48750800Y-84024546D01*
X48781561Y-84179189D01*
X48781564Y-84179201D01*
X48841902Y-84324872D01*
X48841909Y-84324885D01*
X48929510Y-84455988D01*
X48929513Y-84455992D01*
X49041007Y-84567486D01*
X49041011Y-84567489D01*
X49172114Y-84655090D01*
X49172127Y-84655097D01*
X49317798Y-84715435D01*
X49317803Y-84715437D01*
X49472453Y-84746199D01*
X49472456Y-84746200D01*
X49472458Y-84746200D01*
X49630144Y-84746200D01*
X49630145Y-84746199D01*
X49784797Y-84715437D01*
X49930479Y-84655094D01*
X50061589Y-84567489D01*
X50173089Y-84455989D01*
X50260694Y-84324879D01*
X50321037Y-84179197D01*
X50351800Y-84024542D01*
X50351800Y-83866858D01*
X50351800Y-83866855D01*
X50351799Y-83866853D01*
X50342835Y-83821789D01*
X50321037Y-83712203D01*
X50321035Y-83712198D01*
X50260697Y-83566527D01*
X50260690Y-83566514D01*
X50172698Y-83434825D01*
X50151820Y-83368147D01*
X50151800Y-83365934D01*
X50151800Y-82782660D01*
X50151801Y-82782647D01*
X50151801Y-82614544D01*
X50147770Y-82599500D01*
X50110877Y-82461816D01*
X50110873Y-82461809D01*
X50031824Y-82324890D01*
X50031818Y-82324882D01*
X46313173Y-78606237D01*
X46279688Y-78544914D01*
X46279237Y-78542747D01*
X46258052Y-78436243D01*
X46248337Y-78387403D01*
X46218552Y-78315494D01*
X46187997Y-78241727D01*
X46187990Y-78241714D01*
X46100389Y-78110611D01*
X46100386Y-78110607D01*
X45988891Y-77999112D01*
X45986632Y-77997603D01*
X45985715Y-77996506D01*
X45984181Y-77995247D01*
X45984419Y-77994955D01*
X45941827Y-77943991D01*
X45933119Y-77874666D01*
X45963273Y-77811638D01*
X46022716Y-77774918D01*
X46055522Y-77770500D01*
X50412834Y-77770500D01*
X50479873Y-77790185D01*
X50481725Y-77791398D01*
X50613414Y-77879390D01*
X50613427Y-77879397D01*
X50692494Y-77912147D01*
X50759103Y-77939737D01*
X50913753Y-77970499D01*
X50913756Y-77970500D01*
X50913758Y-77970500D01*
X51071444Y-77970500D01*
X51071445Y-77970499D01*
X51226097Y-77939737D01*
X51371779Y-77879394D01*
X51502889Y-77791789D01*
X51614389Y-77680289D01*
X51701994Y-77549179D01*
X51762337Y-77403497D01*
X51793100Y-77248842D01*
X51793100Y-77172797D01*
X51812785Y-77105758D01*
X51865589Y-77060003D01*
X51934747Y-77050059D01*
X51998303Y-77079084D01*
X52004781Y-77085116D01*
X55944039Y-81024374D01*
X55944049Y-81024385D01*
X55948379Y-81028715D01*
X55948380Y-81028716D01*
X56060184Y-81140520D01*
X56103594Y-81165582D01*
X56146995Y-81190639D01*
X56146997Y-81190641D01*
X56185051Y-81212611D01*
X56197115Y-81219577D01*
X56349843Y-81260500D01*
X85714281Y-81260500D01*
X85781320Y-81280185D01*
X85824765Y-81328205D01*
X85844947Y-81367814D01*
X85844948Y-81367815D01*
X85969890Y-81539786D01*
X86120213Y-81690109D01*
X86292182Y-81815050D01*
X86300946Y-81819516D01*
X86351742Y-81867491D01*
X86368536Y-81935312D01*
X86345998Y-82001447D01*
X86300946Y-82040484D01*
X86292182Y-82044949D01*
X86120213Y-82169890D01*
X85969890Y-82320213D01*
X85844951Y-82492179D01*
X85748444Y-82681585D01*
X85682753Y-82883760D01*
X85655918Y-83053189D01*
X85649500Y-83093713D01*
X85649500Y-83306287D01*
X85650506Y-83312637D01*
X85682174Y-83512586D01*
X85682754Y-83516243D01*
X85745803Y-83710288D01*
X85748444Y-83718414D01*
X85844951Y-83907820D01*
X85969890Y-84079786D01*
X86120213Y-84230109D01*
X86292182Y-84355050D01*
X86300946Y-84359516D01*
X86351742Y-84407491D01*
X86368536Y-84475312D01*
X86345998Y-84541447D01*
X86300946Y-84580484D01*
X86292182Y-84584949D01*
X86120213Y-84709890D01*
X85969890Y-84860213D01*
X85844948Y-85032184D01*
X85844947Y-85032185D01*
X85824765Y-85071795D01*
X85776791Y-85122591D01*
X85714281Y-85139500D01*
X48306057Y-85139500D01*
X48147943Y-85139500D01*
X47995215Y-85180423D01*
X47995214Y-85180423D01*
X47995212Y-85180424D01*
X47995209Y-85180425D01*
X47947207Y-85208140D01*
X47947195Y-85208147D01*
X47945095Y-85209360D01*
X47858284Y-85259480D01*
X47845346Y-85272417D01*
X47833630Y-85279811D01*
X47812809Y-85285737D01*
X47793807Y-85296113D01*
X47791648Y-85296562D01*
X47636308Y-85327461D01*
X47636298Y-85327464D01*
X47490627Y-85387802D01*
X47490614Y-85387809D01*
X47359511Y-85475410D01*
X47359507Y-85475413D01*
X47248013Y-85586907D01*
X47248010Y-85586911D01*
X47160409Y-85718014D01*
X47160402Y-85718027D01*
X47100064Y-85863698D01*
X47100061Y-85863710D01*
X47069300Y-86018353D01*
X47069300Y-86176046D01*
X47100061Y-86330689D01*
X47100064Y-86330701D01*
X47160402Y-86476372D01*
X47160409Y-86476385D01*
X47248010Y-86607488D01*
X47248013Y-86607492D01*
X47359507Y-86718986D01*
X47359511Y-86718989D01*
X47490614Y-86806590D01*
X47490627Y-86806597D01*
X47636298Y-86866935D01*
X47636303Y-86866937D01*
X47777626Y-86895048D01*
X47790953Y-86897699D01*
X47790956Y-86897700D01*
X47790958Y-86897700D01*
X47948644Y-86897700D01*
X47948645Y-86897699D01*
X48103297Y-86866937D01*
X48248979Y-86806594D01*
X48380089Y-86718989D01*
X48491589Y-86607489D01*
X48579194Y-86476379D01*
X48603769Y-86417046D01*
X48647609Y-86362645D01*
X48713903Y-86340579D01*
X48718330Y-86340500D01*
X51524059Y-86340500D01*
X51591098Y-86360185D01*
X51636853Y-86412989D01*
X51646797Y-86482147D01*
X51617772Y-86545703D01*
X51611740Y-86552181D01*
X51572613Y-86591307D01*
X51572610Y-86591311D01*
X51485009Y-86722414D01*
X51485002Y-86722427D01*
X51424664Y-86868098D01*
X51424661Y-86868110D01*
X51393900Y-87022753D01*
X51393900Y-87180446D01*
X51424661Y-87335089D01*
X51424664Y-87335101D01*
X51485002Y-87480772D01*
X51485009Y-87480785D01*
X51572610Y-87611888D01*
X51572613Y-87611892D01*
X51684107Y-87723386D01*
X51684111Y-87723389D01*
X51815214Y-87810990D01*
X51815227Y-87810997D01*
X51960898Y-87871335D01*
X51960903Y-87871337D01*
X52105810Y-87900161D01*
X52115553Y-87902099D01*
X52115556Y-87902100D01*
X52115558Y-87902100D01*
X52273244Y-87902100D01*
X52273245Y-87902099D01*
X52427897Y-87871337D01*
X52573579Y-87810994D01*
X52628063Y-87774589D01*
X52705275Y-87722998D01*
X52771953Y-87702120D01*
X52774166Y-87702100D01*
X83135302Y-87702100D01*
X83202341Y-87721785D01*
X83248096Y-87774589D01*
X83258040Y-87843747D01*
X83229015Y-87907303D01*
X83222983Y-87913781D01*
X77946152Y-93190611D01*
X77884829Y-93224096D01*
X77815137Y-93219112D01*
X77789581Y-93206032D01*
X77661890Y-93120712D01*
X77661872Y-93120702D01*
X77516201Y-93060364D01*
X77516189Y-93060361D01*
X77361545Y-93029600D01*
X77361542Y-93029600D01*
X77203858Y-93029600D01*
X77203855Y-93029600D01*
X77049210Y-93060361D01*
X77049198Y-93060364D01*
X76903527Y-93120702D01*
X76903514Y-93120709D01*
X76772411Y-93208310D01*
X76772407Y-93208313D01*
X76660913Y-93319807D01*
X76660910Y-93319811D01*
X76573309Y-93450914D01*
X76573302Y-93450927D01*
X76512964Y-93596598D01*
X76512961Y-93596608D01*
X76482061Y-93751950D01*
X76449676Y-93813861D01*
X76448125Y-93815439D01*
X60834681Y-109428882D01*
X60834677Y-109428887D01*
X60793269Y-109500610D01*
X60793269Y-109500611D01*
X60755623Y-109565814D01*
X60755623Y-109565815D01*
X60714699Y-109718543D01*
X60714699Y-109718545D01*
X60714699Y-109802703D01*
X60695014Y-109869742D01*
X60678380Y-109890384D01*
X60158844Y-110409919D01*
X60097521Y-110443404D01*
X60027829Y-110438420D01*
X60002272Y-110425340D01*
X59887885Y-110348909D01*
X59887872Y-110348902D01*
X59742201Y-110288564D01*
X59742189Y-110288561D01*
X59587545Y-110257800D01*
X59587542Y-110257800D01*
X59429858Y-110257800D01*
X59429855Y-110257800D01*
X59275210Y-110288561D01*
X59275198Y-110288564D01*
X59129527Y-110348902D01*
X59129514Y-110348909D01*
X58997825Y-110436902D01*
X58931147Y-110457780D01*
X58928934Y-110457800D01*
X14324069Y-110457800D01*
X14316461Y-110457799D01*
X14316458Y-110457799D01*
X14204392Y-110457799D01*
X14204391Y-110457798D01*
X14180201Y-110455416D01*
X14128844Y-110445200D01*
X14128842Y-110445200D01*
X13971158Y-110445200D01*
X13971155Y-110445200D01*
X13816510Y-110475961D01*
X13816498Y-110475964D01*
X13670827Y-110536302D01*
X13670814Y-110536309D01*
X13539711Y-110623910D01*
X13539707Y-110623913D01*
X13428213Y-110735407D01*
X13428210Y-110735411D01*
X13340609Y-110866514D01*
X13340602Y-110866527D01*
X13280264Y-111012198D01*
X13280261Y-111012210D01*
X13249500Y-111166853D01*
X13249500Y-111324546D01*
X13280260Y-111479185D01*
X13280264Y-111479201D01*
X13340602Y-111624872D01*
X13340609Y-111624885D01*
X13428210Y-111755988D01*
X13428213Y-111755992D01*
X13539707Y-111867486D01*
X13539711Y-111867489D01*
X13670814Y-111955090D01*
X13670827Y-111955097D01*
X13816498Y-112015435D01*
X13816503Y-112015437D01*
X13971153Y-112046199D01*
X13971156Y-112046200D01*
X13971158Y-112046200D01*
X14128844Y-112046200D01*
X14128845Y-112046199D01*
X14283497Y-112015437D01*
X14429179Y-111955094D01*
X14560289Y-111867489D01*
X14671789Y-111755989D01*
X14699906Y-111713909D01*
X14753518Y-111669104D01*
X14803008Y-111658800D01*
X16225500Y-111658800D01*
X16292539Y-111678485D01*
X16338294Y-111731289D01*
X16349500Y-111782800D01*
X16349500Y-111811546D01*
X16380261Y-111966189D01*
X16380264Y-111966201D01*
X16440602Y-112111872D01*
X16440609Y-112111885D01*
X16528210Y-112242988D01*
X16528213Y-112242992D01*
X16639707Y-112354486D01*
X16639711Y-112354489D01*
X16770814Y-112442090D01*
X16770827Y-112442097D01*
X16916498Y-112502435D01*
X16916503Y-112502437D01*
X17027250Y-112524466D01*
X17071153Y-112533199D01*
X17071156Y-112533200D01*
X17071158Y-112533200D01*
X17228844Y-112533200D01*
X17228845Y-112533199D01*
X17383497Y-112502437D01*
X17529179Y-112442094D01*
X17550570Y-112427801D01*
X17660875Y-112354098D01*
X17727553Y-112333220D01*
X17729766Y-112333200D01*
X27433014Y-112333200D01*
X27500053Y-112352885D01*
X27545808Y-112405689D01*
X27555752Y-112474847D01*
X27526727Y-112538403D01*
X27495013Y-112564588D01*
X27488717Y-112568222D01*
X27488716Y-112568223D01*
X27414590Y-112611018D01*
X27351785Y-112647279D01*
X27351782Y-112647281D01*
X16669481Y-123329582D01*
X16669475Y-123329590D01*
X16621365Y-123412921D01*
X16621363Y-123412925D01*
X16607172Y-123437503D01*
X16556604Y-123485717D01*
X16499788Y-123499500D01*
X16352129Y-123499500D01*
X16352122Y-123499501D01*
X16292515Y-123505908D01*
X16157670Y-123556202D01*
X16157663Y-123556206D01*
X16042454Y-123642452D01*
X16042451Y-123642455D01*
X15956205Y-123757664D01*
X15956201Y-123757671D01*
X15905907Y-123892517D01*
X15899500Y-123952116D01*
X15899500Y-123952123D01*
X15899499Y-123952135D01*
X15899500Y-133375500D01*
X15879815Y-133442539D01*
X15827011Y-133488294D01*
X15775500Y-133499500D01*
X10275500Y-133499500D01*
X10208461Y-133479815D01*
X10162706Y-133427011D01*
X10151500Y-133375500D01*
X10151500Y-114934110D01*
X10151500Y-114934108D01*
X10117392Y-114806814D01*
X10051500Y-114692686D01*
X9958314Y-114599500D01*
X9901250Y-114566554D01*
X9844187Y-114533608D01*
X9780539Y-114516554D01*
X9716892Y-114499500D01*
X9716891Y-114499500D01*
X624500Y-114499500D01*
X557461Y-114479815D01*
X511706Y-114427011D01*
X500500Y-114375500D01*
X500500Y-103504353D01*
X40996700Y-103504353D01*
X40996700Y-103662046D01*
X41027461Y-103816689D01*
X41027464Y-103816701D01*
X41087802Y-103962372D01*
X41087809Y-103962385D01*
X41175410Y-104093488D01*
X41175413Y-104093492D01*
X41286907Y-104204986D01*
X41286911Y-104204989D01*
X41418014Y-104292590D01*
X41418027Y-104292597D01*
X41563698Y-104352935D01*
X41563703Y-104352937D01*
X41718353Y-104383699D01*
X41718356Y-104383700D01*
X41718358Y-104383700D01*
X41876044Y-104383700D01*
X41876045Y-104383699D01*
X42030697Y-104352937D01*
X42176379Y-104292594D01*
X42176385Y-104292590D01*
X42308075Y-104204598D01*
X42374753Y-104183720D01*
X42376966Y-104183700D01*
X54507234Y-104183700D01*
X54574273Y-104203385D01*
X54576125Y-104204598D01*
X54707814Y-104292590D01*
X54707827Y-104292597D01*
X54853498Y-104352935D01*
X54853503Y-104352937D01*
X55008153Y-104383699D01*
X55008156Y-104383700D01*
X55008158Y-104383700D01*
X55165844Y-104383700D01*
X55165845Y-104383699D01*
X55320497Y-104352937D01*
X55466179Y-104292594D01*
X55597289Y-104204989D01*
X55708789Y-104093489D01*
X55796394Y-103962379D01*
X55856737Y-103816697D01*
X55887500Y-103662042D01*
X55887500Y-103645663D01*
X55907185Y-103578624D01*
X55959989Y-103532869D01*
X55964048Y-103531102D01*
X56067872Y-103488097D01*
X56067872Y-103488096D01*
X56067879Y-103488094D01*
X56198989Y-103400489D01*
X56310489Y-103288989D01*
X56398094Y-103157879D01*
X56458437Y-103012197D01*
X56489200Y-102857542D01*
X56489200Y-102699858D01*
X56489200Y-102699855D01*
X56489199Y-102699853D01*
X56458438Y-102545210D01*
X56458438Y-102545208D01*
X56458437Y-102545203D01*
X56458435Y-102545198D01*
X56398097Y-102399527D01*
X56398090Y-102399514D01*
X56310489Y-102268411D01*
X56310486Y-102268407D01*
X56198992Y-102156913D01*
X56198988Y-102156910D01*
X56067885Y-102069309D01*
X56067872Y-102069302D01*
X55922201Y-102008964D01*
X55922189Y-102008961D01*
X55767545Y-101978200D01*
X55767542Y-101978200D01*
X55609858Y-101978200D01*
X55609855Y-101978200D01*
X55455210Y-102008961D01*
X55455198Y-102008964D01*
X55309527Y-102069302D01*
X55309514Y-102069309D01*
X55177825Y-102157302D01*
X55111147Y-102178180D01*
X55108934Y-102178200D01*
X43129766Y-102178200D01*
X43062727Y-102158515D01*
X43060875Y-102157302D01*
X42929185Y-102069309D01*
X42929172Y-102069302D01*
X42783501Y-102008964D01*
X42783489Y-102008961D01*
X42628845Y-101978200D01*
X42628842Y-101978200D01*
X42471158Y-101978200D01*
X42471155Y-101978200D01*
X42316510Y-102008961D01*
X42316498Y-102008964D01*
X42170827Y-102069302D01*
X42170814Y-102069309D01*
X42039711Y-102156910D01*
X42039707Y-102156913D01*
X41928213Y-102268407D01*
X41928210Y-102268411D01*
X41840609Y-102399514D01*
X41840602Y-102399527D01*
X41780264Y-102545198D01*
X41780261Y-102545208D01*
X41749789Y-102698401D01*
X41717404Y-102760312D01*
X41656688Y-102794886D01*
X41652364Y-102795826D01*
X41563708Y-102813461D01*
X41563698Y-102813464D01*
X41418027Y-102873802D01*
X41418014Y-102873809D01*
X41286911Y-102961410D01*
X41286907Y-102961413D01*
X41175413Y-103072907D01*
X41175410Y-103072911D01*
X41087809Y-103204014D01*
X41087802Y-103204027D01*
X41027464Y-103349698D01*
X41027461Y-103349710D01*
X40996700Y-103504353D01*
X500500Y-103504353D01*
X500500Y-97783885D01*
X4499500Y-97783885D01*
X4499500Y-97803735D01*
X4499500Y-98216115D01*
X4533412Y-98647013D01*
X4601028Y-99073922D01*
X4701930Y-99494210D01*
X4701934Y-99494221D01*
X4835494Y-99905280D01*
X4890050Y-100036989D01*
X5000904Y-100304615D01*
X5153449Y-100604000D01*
X5197136Y-100689740D01*
X5197142Y-100689751D01*
X5422966Y-101058262D01*
X5422974Y-101058273D01*
X5677025Y-101407946D01*
X5677035Y-101407960D01*
X5957737Y-101736617D01*
X5957743Y-101736624D01*
X6263376Y-102042257D01*
X6295046Y-102069306D01*
X6592039Y-102322964D01*
X6592046Y-102322969D01*
X6941728Y-102577027D01*
X6941732Y-102577029D01*
X6941737Y-102577033D01*
X7310248Y-102802857D01*
X7310254Y-102802860D01*
X7310265Y-102802867D01*
X7695385Y-102999096D01*
X8078722Y-103157879D01*
X8094719Y-103164505D01*
X8199240Y-103198465D01*
X8505790Y-103298070D01*
X8926078Y-103398972D01*
X9352987Y-103466588D01*
X9783885Y-103500500D01*
X9783893Y-103500500D01*
X10216107Y-103500500D01*
X10216115Y-103500500D01*
X10647013Y-103466588D01*
X11073922Y-103398972D01*
X11494210Y-103298070D01*
X11905286Y-103164503D01*
X12304615Y-102999096D01*
X12689735Y-102802867D01*
X13058272Y-102577027D01*
X13407954Y-102322969D01*
X13736624Y-102042257D01*
X14042257Y-101736624D01*
X14322969Y-101407954D01*
X14577027Y-101058272D01*
X14802867Y-100689735D01*
X14999096Y-100304615D01*
X15164503Y-99905286D01*
X15298070Y-99494210D01*
X15398972Y-99073922D01*
X15466588Y-98647013D01*
X15500500Y-98216115D01*
X15500500Y-97783885D01*
X15466588Y-97352987D01*
X15398972Y-96926078D01*
X15354864Y-96742353D01*
X44289500Y-96742353D01*
X44289500Y-96900046D01*
X44320261Y-97054689D01*
X44320264Y-97054701D01*
X44380602Y-97200372D01*
X44380609Y-97200385D01*
X44468210Y-97331488D01*
X44468213Y-97331492D01*
X44579707Y-97442986D01*
X44579711Y-97442989D01*
X44710814Y-97530590D01*
X44710827Y-97530597D01*
X44856498Y-97590935D01*
X44856503Y-97590937D01*
X45011153Y-97621699D01*
X45011156Y-97621700D01*
X45011158Y-97621700D01*
X45168844Y-97621700D01*
X45168845Y-97621699D01*
X45323497Y-97590937D01*
X45469179Y-97530594D01*
X45469185Y-97530590D01*
X45600875Y-97442598D01*
X45667553Y-97421720D01*
X45669766Y-97421700D01*
X55720834Y-97421700D01*
X55787873Y-97441385D01*
X55789725Y-97442598D01*
X55921414Y-97530590D01*
X55921427Y-97530597D01*
X56067098Y-97590935D01*
X56067103Y-97590937D01*
X56221753Y-97621699D01*
X56221756Y-97621700D01*
X56221758Y-97621700D01*
X56379444Y-97621700D01*
X56379445Y-97621699D01*
X56534097Y-97590937D01*
X56679779Y-97530594D01*
X56810889Y-97442989D01*
X56922389Y-97331489D01*
X57009994Y-97200379D01*
X57070337Y-97054697D01*
X57101100Y-96900042D01*
X57101100Y-96742358D01*
X57101100Y-96742355D01*
X57101099Y-96742353D01*
X57082127Y-96646974D01*
X57070337Y-96587703D01*
X57070335Y-96587698D01*
X57009997Y-96442027D01*
X57009990Y-96442014D01*
X56922389Y-96310911D01*
X56922386Y-96310907D01*
X56810892Y-96199413D01*
X56810888Y-96199410D01*
X56679785Y-96111809D01*
X56679772Y-96111802D01*
X56534101Y-96051464D01*
X56534089Y-96051461D01*
X56379445Y-96020700D01*
X56379442Y-96020700D01*
X56221758Y-96020700D01*
X56221755Y-96020700D01*
X56067110Y-96051461D01*
X56067098Y-96051464D01*
X55921427Y-96111802D01*
X55921414Y-96111809D01*
X55789725Y-96199802D01*
X55723047Y-96220680D01*
X55720834Y-96220700D01*
X45669766Y-96220700D01*
X45602727Y-96201015D01*
X45600875Y-96199802D01*
X45469185Y-96111809D01*
X45469172Y-96111802D01*
X45323501Y-96051464D01*
X45323489Y-96051461D01*
X45168845Y-96020700D01*
X45168842Y-96020700D01*
X45011158Y-96020700D01*
X45011155Y-96020700D01*
X44856510Y-96051461D01*
X44856498Y-96051464D01*
X44710827Y-96111802D01*
X44710814Y-96111809D01*
X44579711Y-96199410D01*
X44579707Y-96199413D01*
X44468213Y-96310907D01*
X44468210Y-96310911D01*
X44380609Y-96442014D01*
X44380602Y-96442027D01*
X44320264Y-96587698D01*
X44320261Y-96587710D01*
X44289500Y-96742353D01*
X15354864Y-96742353D01*
X15298070Y-96505790D01*
X15170057Y-96111806D01*
X15164505Y-96094719D01*
X15127875Y-96006286D01*
X14999096Y-95695385D01*
X14802867Y-95310265D01*
X14802857Y-95310248D01*
X14577033Y-94941737D01*
X14577029Y-94941732D01*
X14577027Y-94941728D01*
X14322969Y-94592046D01*
X14322964Y-94592039D01*
X14042262Y-94263382D01*
X14042257Y-94263376D01*
X13736624Y-93957743D01*
X13689794Y-93917746D01*
X13407960Y-93677035D01*
X13407946Y-93677025D01*
X13170874Y-93504783D01*
X13058272Y-93422973D01*
X13058269Y-93422971D01*
X13058262Y-93422966D01*
X12689751Y-93197142D01*
X12689740Y-93197136D01*
X12689739Y-93197135D01*
X12689735Y-93197133D01*
X12304615Y-93000904D01*
X12057025Y-92898349D01*
X11905280Y-92835494D01*
X11610808Y-92739815D01*
X11494210Y-92701930D01*
X11073922Y-92601028D01*
X10647013Y-92533412D01*
X10216120Y-92499500D01*
X10216115Y-92499500D01*
X9783885Y-92499500D01*
X9783879Y-92499500D01*
X9352986Y-92533412D01*
X9352985Y-92533412D01*
X8926083Y-92601027D01*
X8926080Y-92601027D01*
X8926078Y-92601028D01*
X8775562Y-92637163D01*
X8505801Y-92701927D01*
X8505795Y-92701928D01*
X8505790Y-92701930D01*
X8505778Y-92701934D01*
X8094719Y-92835494D01*
X7695387Y-93000903D01*
X7310259Y-93197136D01*
X7310248Y-93197142D01*
X6941737Y-93422966D01*
X6941726Y-93422974D01*
X6592053Y-93677025D01*
X6592039Y-93677035D01*
X6263382Y-93957737D01*
X6263368Y-93957750D01*
X5957750Y-94263368D01*
X5957737Y-94263382D01*
X5677035Y-94592039D01*
X5677025Y-94592053D01*
X5422974Y-94941726D01*
X5422966Y-94941737D01*
X5197142Y-95310248D01*
X5197136Y-95310259D01*
X5000903Y-95695387D01*
X4835494Y-96094719D01*
X4701934Y-96505778D01*
X4701927Y-96505801D01*
X4601027Y-96926083D01*
X4533412Y-97352985D01*
X4533412Y-97352986D01*
X4503569Y-97732185D01*
X4499500Y-97783885D01*
X500500Y-97783885D01*
X500500Y-82464053D01*
X25871400Y-82464053D01*
X25871400Y-82621746D01*
X25902161Y-82776389D01*
X25902164Y-82776401D01*
X25962502Y-82922072D01*
X25962509Y-82922085D01*
X26050110Y-83053188D01*
X26050113Y-83053192D01*
X26161607Y-83164686D01*
X26161611Y-83164689D01*
X26292714Y-83252290D01*
X26292727Y-83252297D01*
X26438398Y-83312635D01*
X26438403Y-83312637D01*
X26593053Y-83343399D01*
X26593056Y-83343400D01*
X26593058Y-83343400D01*
X26750744Y-83343400D01*
X26750745Y-83343399D01*
X26905397Y-83312637D01*
X27051079Y-83252294D01*
X27105563Y-83215889D01*
X27182775Y-83164298D01*
X27249453Y-83143420D01*
X27251666Y-83143400D01*
X45844022Y-83143400D01*
X45911061Y-83163085D01*
X45956816Y-83215889D01*
X45958567Y-83219910D01*
X45971981Y-83252294D01*
X45979308Y-83269983D01*
X46066910Y-83401088D01*
X46066913Y-83401092D01*
X46178407Y-83512586D01*
X46178411Y-83512589D01*
X46309514Y-83600190D01*
X46309527Y-83600197D01*
X46455198Y-83660535D01*
X46455203Y-83660537D01*
X46609853Y-83691299D01*
X46609856Y-83691300D01*
X46609858Y-83691300D01*
X46767544Y-83691300D01*
X46767545Y-83691299D01*
X46922197Y-83660537D01*
X47067879Y-83600194D01*
X47198989Y-83512589D01*
X47310489Y-83401089D01*
X47398094Y-83269979D01*
X47458437Y-83124297D01*
X47489200Y-82969642D01*
X47489200Y-82811958D01*
X47489200Y-82811955D01*
X47489199Y-82811953D01*
X47481383Y-82772658D01*
X47458437Y-82657303D01*
X47458435Y-82657298D01*
X47398097Y-82511627D01*
X47398090Y-82511614D01*
X47310489Y-82380511D01*
X47310486Y-82380507D01*
X47198992Y-82269013D01*
X47198988Y-82269010D01*
X47067885Y-82181409D01*
X47067872Y-82181402D01*
X46922201Y-82121064D01*
X46922191Y-82121061D01*
X46766684Y-82090128D01*
X46762392Y-82088475D01*
X46759820Y-82088559D01*
X46749366Y-82083460D01*
X46727257Y-82074947D01*
X46714395Y-82067259D01*
X46709516Y-82062380D01*
X46614013Y-82007242D01*
X46613192Y-82006768D01*
X46613177Y-82006759D01*
X46572583Y-81983322D01*
X46516681Y-81968343D01*
X46419857Y-81942399D01*
X46261743Y-81942399D01*
X46254147Y-81942399D01*
X46254131Y-81942400D01*
X27251666Y-81942400D01*
X27184627Y-81922715D01*
X27182775Y-81921502D01*
X27051085Y-81833509D01*
X27051072Y-81833502D01*
X26905401Y-81773164D01*
X26905389Y-81773161D01*
X26750745Y-81742400D01*
X26750742Y-81742400D01*
X26593058Y-81742400D01*
X26593055Y-81742400D01*
X26438410Y-81773161D01*
X26438398Y-81773164D01*
X26292727Y-81833502D01*
X26292714Y-81833509D01*
X26161611Y-81921110D01*
X26161607Y-81921113D01*
X26050113Y-82032607D01*
X26050110Y-82032611D01*
X25962509Y-82163714D01*
X25962502Y-82163727D01*
X25902164Y-82309398D01*
X25902161Y-82309410D01*
X25871400Y-82464053D01*
X500500Y-82464053D01*
X500500Y-47855953D01*
X32974000Y-47855953D01*
X32974000Y-48013646D01*
X33004761Y-48168289D01*
X33004764Y-48168301D01*
X33065102Y-48313972D01*
X33065109Y-48313985D01*
X33153102Y-48445674D01*
X33173980Y-48512351D01*
X33174000Y-48514565D01*
X33174000Y-51954930D01*
X33173999Y-51954948D01*
X33173999Y-52120654D01*
X33173998Y-52120654D01*
X33186156Y-52166027D01*
X33214923Y-52273385D01*
X33214924Y-52273387D01*
X33214923Y-52273387D01*
X33226385Y-52293238D01*
X33226386Y-52293240D01*
X33293975Y-52410309D01*
X33293981Y-52410317D01*
X33412849Y-52529185D01*
X33412855Y-52529190D01*
X34096525Y-53212860D01*
X34130010Y-53274183D01*
X34130461Y-53276349D01*
X34161361Y-53431691D01*
X34161364Y-53431701D01*
X34221702Y-53577372D01*
X34221709Y-53577385D01*
X34309310Y-53708488D01*
X34309313Y-53708492D01*
X34420807Y-53819986D01*
X34420811Y-53819989D01*
X34551914Y-53907590D01*
X34551927Y-53907597D01*
X34697598Y-53967935D01*
X34697603Y-53967937D01*
X34852253Y-53998699D01*
X34852256Y-53998700D01*
X34852258Y-53998700D01*
X35009944Y-53998700D01*
X35009945Y-53998699D01*
X35164597Y-53967937D01*
X35310279Y-53907594D01*
X35441389Y-53819989D01*
X35552889Y-53708489D01*
X35640494Y-53577379D01*
X35700837Y-53431697D01*
X35731600Y-53277042D01*
X35731600Y-53119358D01*
X35731600Y-53119355D01*
X35731599Y-53119353D01*
X35700838Y-52964710D01*
X35700837Y-52964703D01*
X35649692Y-52841227D01*
X35640497Y-52819027D01*
X35640490Y-52819014D01*
X35552889Y-52687911D01*
X35552886Y-52687907D01*
X35441392Y-52576413D01*
X35441388Y-52576410D01*
X35310285Y-52488809D01*
X35310272Y-52488802D01*
X35164601Y-52428464D01*
X35164591Y-52428461D01*
X35009249Y-52397561D01*
X34947338Y-52365176D01*
X34945760Y-52363625D01*
X34411319Y-51829184D01*
X34377834Y-51767861D01*
X34375000Y-51741503D01*
X34375000Y-48514565D01*
X34394685Y-48447526D01*
X34395898Y-48445674D01*
X34418924Y-48411214D01*
X34483894Y-48313979D01*
X34494548Y-48288259D01*
X34514072Y-48241122D01*
X34544237Y-48168297D01*
X34575000Y-48013642D01*
X34575000Y-47855958D01*
X34575000Y-47855955D01*
X34574999Y-47855953D01*
X34553185Y-47746287D01*
X34544237Y-47701303D01*
X34544235Y-47701298D01*
X34483897Y-47555627D01*
X34483890Y-47555614D01*
X34396289Y-47424511D01*
X34396286Y-47424507D01*
X34284792Y-47313013D01*
X34284788Y-47313010D01*
X34153685Y-47225409D01*
X34153672Y-47225402D01*
X34008001Y-47165064D01*
X34007989Y-47165061D01*
X33853345Y-47134300D01*
X33853342Y-47134300D01*
X33695658Y-47134300D01*
X33695655Y-47134300D01*
X33541010Y-47165061D01*
X33540998Y-47165064D01*
X33395327Y-47225402D01*
X33395314Y-47225409D01*
X33264211Y-47313010D01*
X33264207Y-47313013D01*
X33152713Y-47424507D01*
X33152710Y-47424511D01*
X33065109Y-47555614D01*
X33065102Y-47555627D01*
X33004764Y-47701298D01*
X33004761Y-47701310D01*
X32974000Y-47855953D01*
X500500Y-47855953D01*
X500500Y-46086153D01*
X43870000Y-46086153D01*
X43870000Y-46243846D01*
X43900761Y-46398489D01*
X43900764Y-46398501D01*
X43961102Y-46544172D01*
X43961109Y-46544185D01*
X44048710Y-46675288D01*
X44048713Y-46675292D01*
X44160207Y-46786786D01*
X44160211Y-46786789D01*
X44291314Y-46874390D01*
X44291327Y-46874397D01*
X44430827Y-46932179D01*
X44437003Y-46934737D01*
X44591261Y-46965421D01*
X44591653Y-46965499D01*
X44591656Y-46965500D01*
X44591658Y-46965500D01*
X44749344Y-46965500D01*
X44749345Y-46965499D01*
X44903997Y-46934737D01*
X45049679Y-46874394D01*
X45180789Y-46786789D01*
X45292289Y-46675289D01*
X45379894Y-46544179D01*
X45440237Y-46398497D01*
X45467883Y-46259514D01*
X45471138Y-46243150D01*
X45503523Y-46181239D01*
X45505017Y-46179717D01*
X47947917Y-43736819D01*
X48009240Y-43703334D01*
X48035598Y-43700500D01*
X54405084Y-43700500D01*
X54472123Y-43720185D01*
X54473975Y-43721398D01*
X54605514Y-43809290D01*
X54605527Y-43809297D01*
X54751198Y-43869635D01*
X54751203Y-43869637D01*
X54866203Y-43892512D01*
X54905853Y-43900399D01*
X54905856Y-43900400D01*
X54905858Y-43900400D01*
X55063544Y-43900400D01*
X55063545Y-43900399D01*
X55218197Y-43869637D01*
X55363879Y-43809294D01*
X55494989Y-43721689D01*
X55606489Y-43610189D01*
X55694094Y-43479079D01*
X55754437Y-43333397D01*
X55785200Y-43178742D01*
X55785200Y-43021058D01*
X55785200Y-43021055D01*
X55785199Y-43021053D01*
X55756394Y-42876243D01*
X55754437Y-42866403D01*
X55754435Y-42866398D01*
X55694097Y-42720727D01*
X55694090Y-42720714D01*
X55606489Y-42589611D01*
X55606486Y-42589607D01*
X55494992Y-42478113D01*
X55494988Y-42478110D01*
X55363885Y-42390509D01*
X55363872Y-42390502D01*
X55218201Y-42330164D01*
X55218189Y-42330161D01*
X55063545Y-42299400D01*
X55063542Y-42299400D01*
X54905858Y-42299400D01*
X54905855Y-42299400D01*
X54751210Y-42330161D01*
X54751198Y-42330164D01*
X54605527Y-42390502D01*
X54605514Y-42390509D01*
X54473676Y-42478602D01*
X54406999Y-42499480D01*
X54404785Y-42499500D01*
X47822170Y-42499500D01*
X47822154Y-42499499D01*
X47814558Y-42499499D01*
X47656443Y-42499499D01*
X47580079Y-42519961D01*
X47503714Y-42540423D01*
X47503709Y-42540426D01*
X47366790Y-42619475D01*
X47366782Y-42619481D01*
X44655839Y-45330425D01*
X44594516Y-45363910D01*
X44592350Y-45364361D01*
X44437008Y-45395261D01*
X44436998Y-45395264D01*
X44291327Y-45455602D01*
X44291314Y-45455609D01*
X44160211Y-45543210D01*
X44160207Y-45543213D01*
X44048713Y-45654707D01*
X44048710Y-45654711D01*
X43961109Y-45785814D01*
X43961102Y-45785827D01*
X43900764Y-45931498D01*
X43900761Y-45931510D01*
X43870000Y-46086153D01*
X500500Y-46086153D01*
X500500Y-9461153D01*
X56543100Y-9461153D01*
X56543100Y-9618846D01*
X56573861Y-9773489D01*
X56573864Y-9773501D01*
X56634202Y-9919172D01*
X56634209Y-9919185D01*
X56721810Y-10050288D01*
X56721813Y-10050292D01*
X56833307Y-10161786D01*
X56833311Y-10161789D01*
X56964414Y-10249390D01*
X56964427Y-10249397D01*
X57110098Y-10309735D01*
X57110103Y-10309737D01*
X57264753Y-10340499D01*
X57264756Y-10340500D01*
X57264758Y-10340500D01*
X57422444Y-10340500D01*
X57422445Y-10340499D01*
X57577097Y-10309737D01*
X57722779Y-10249394D01*
X57784423Y-10208205D01*
X57854475Y-10161398D01*
X57921153Y-10140520D01*
X57923366Y-10140500D01*
X85714281Y-10140500D01*
X85781320Y-10160185D01*
X85824765Y-10208205D01*
X85844947Y-10247814D01*
X85844948Y-10247815D01*
X85969890Y-10419786D01*
X86120213Y-10570109D01*
X86292179Y-10695048D01*
X86292181Y-10695049D01*
X86292184Y-10695051D01*
X86481588Y-10791557D01*
X86683757Y-10857246D01*
X86893713Y-10890500D01*
X86893714Y-10890500D01*
X87106286Y-10890500D01*
X87106287Y-10890500D01*
X87316243Y-10857246D01*
X87518412Y-10791557D01*
X87707816Y-10695051D01*
X87729789Y-10679086D01*
X87879786Y-10570109D01*
X87879788Y-10570106D01*
X87879792Y-10570104D01*
X88030104Y-10419792D01*
X88030106Y-10419788D01*
X88030109Y-10419786D01*
X88153902Y-10249397D01*
X88155051Y-10247816D01*
X88159514Y-10239055D01*
X88207488Y-10188259D01*
X88275308Y-10171463D01*
X88341444Y-10193999D01*
X88380486Y-10239056D01*
X88384951Y-10247820D01*
X88509890Y-10419786D01*
X88660213Y-10570109D01*
X88832179Y-10695048D01*
X88832181Y-10695049D01*
X88832184Y-10695051D01*
X89021588Y-10791557D01*
X89223757Y-10857246D01*
X89433713Y-10890500D01*
X89433714Y-10890500D01*
X89646286Y-10890500D01*
X89646287Y-10890500D01*
X89856243Y-10857246D01*
X90058412Y-10791557D01*
X90247816Y-10695051D01*
X90269789Y-10679086D01*
X90419786Y-10570109D01*
X90419788Y-10570106D01*
X90419792Y-10570104D01*
X90570104Y-10419792D01*
X90570106Y-10419788D01*
X90570109Y-10419786D01*
X90693902Y-10249397D01*
X90695051Y-10247816D01*
X90791557Y-10058412D01*
X90857246Y-9856243D01*
X90890500Y-9646287D01*
X90890500Y-9433713D01*
X90857246Y-9223757D01*
X90791557Y-9021588D01*
X90695051Y-8832184D01*
X90695049Y-8832181D01*
X90695048Y-8832179D01*
X90570109Y-8660213D01*
X90419786Y-8509890D01*
X90247820Y-8384951D01*
X90247115Y-8384591D01*
X90239054Y-8380485D01*
X90188259Y-8332512D01*
X90171463Y-8264692D01*
X90193999Y-8198556D01*
X90239054Y-8159515D01*
X90247816Y-8155051D01*
X90334138Y-8092335D01*
X90419786Y-8030109D01*
X90419788Y-8030106D01*
X90419792Y-8030104D01*
X90570104Y-7879792D01*
X90570106Y-7879788D01*
X90570109Y-7879786D01*
X90695048Y-7707820D01*
X90695047Y-7707820D01*
X90695051Y-7707816D01*
X90791557Y-7518412D01*
X90857246Y-7316243D01*
X90890500Y-7106287D01*
X90890500Y-6893713D01*
X90857246Y-6683757D01*
X90791557Y-6481588D01*
X90695051Y-6292184D01*
X90695049Y-6292181D01*
X90695048Y-6292179D01*
X90570109Y-6120213D01*
X90419786Y-5969890D01*
X90247820Y-5844951D01*
X90058414Y-5748444D01*
X90058413Y-5748443D01*
X90058412Y-5748443D01*
X89856243Y-5682754D01*
X89856241Y-5682753D01*
X89856240Y-5682753D01*
X89694957Y-5657208D01*
X89646287Y-5649500D01*
X89433713Y-5649500D01*
X89385042Y-5657208D01*
X89223760Y-5682753D01*
X89021585Y-5748444D01*
X88832179Y-5844951D01*
X88660215Y-5969889D01*
X88546673Y-6083431D01*
X88485350Y-6116915D01*
X88415658Y-6111931D01*
X88359725Y-6070059D01*
X88342810Y-6039082D01*
X88293797Y-5907671D01*
X88293793Y-5907664D01*
X88207547Y-5792455D01*
X88207544Y-5792452D01*
X88092335Y-5706206D01*
X88092328Y-5706202D01*
X87957482Y-5655908D01*
X87957483Y-5655908D01*
X87897883Y-5649501D01*
X87897881Y-5649500D01*
X87897873Y-5649500D01*
X87897864Y-5649500D01*
X86102129Y-5649500D01*
X86102123Y-5649501D01*
X86042516Y-5655908D01*
X85907671Y-5706202D01*
X85907664Y-5706206D01*
X85792455Y-5792452D01*
X85792452Y-5792455D01*
X85706206Y-5907664D01*
X85706202Y-5907671D01*
X85655908Y-6042517D01*
X85649501Y-6102116D01*
X85649500Y-6102135D01*
X85649500Y-7897870D01*
X85649501Y-7897876D01*
X85655908Y-7957483D01*
X85706202Y-8092328D01*
X85706206Y-8092335D01*
X85792452Y-8207544D01*
X85792455Y-8207547D01*
X85907664Y-8293793D01*
X85907671Y-8293797D01*
X86039082Y-8342810D01*
X86095016Y-8384681D01*
X86119433Y-8450145D01*
X86104582Y-8518418D01*
X86083431Y-8546673D01*
X85969889Y-8660215D01*
X85844948Y-8832184D01*
X85844947Y-8832185D01*
X85824765Y-8871795D01*
X85776791Y-8922591D01*
X85714281Y-8939500D01*
X57923366Y-8939500D01*
X57856327Y-8919815D01*
X57854475Y-8918602D01*
X57722785Y-8830609D01*
X57722772Y-8830602D01*
X57577101Y-8770264D01*
X57577089Y-8770261D01*
X57422445Y-8739500D01*
X57422442Y-8739500D01*
X57264758Y-8739500D01*
X57264755Y-8739500D01*
X57110110Y-8770261D01*
X57110098Y-8770264D01*
X56964427Y-8830602D01*
X56964414Y-8830609D01*
X56833311Y-8918210D01*
X56833307Y-8918213D01*
X56721813Y-9029707D01*
X56721810Y-9029711D01*
X56634209Y-9160814D01*
X56634202Y-9160827D01*
X56573864Y-9306498D01*
X56573861Y-9306510D01*
X56543100Y-9461153D01*
X500500Y-9461153D01*
X500500Y-624500D01*
X520185Y-557461D01*
X572989Y-511706D01*
X624500Y-500500D01*
X4826500Y-500500D01*
X4893539Y-520185D01*
G37*
%TD.AperFunction*%
%TA.AperFunction,Conductor*%
G36*
X89802642Y-97908485D02*
G01*
X89823284Y-97925119D01*
X102806281Y-110908116D01*
X102820984Y-110935043D01*
X102837577Y-110960862D01*
X102838468Y-110967062D01*
X102839766Y-110969439D01*
X102842600Y-110995797D01*
X102842600Y-111152630D01*
X102842599Y-111152648D01*
X102842599Y-111318354D01*
X102842598Y-111318354D01*
X102842599Y-111318357D01*
X102883523Y-111471085D01*
X102888201Y-111479187D01*
X102888204Y-111479199D01*
X102888208Y-111479198D01*
X102962580Y-111608016D01*
X103074384Y-111719820D01*
X103074385Y-111719821D01*
X103662384Y-112307820D01*
X103662386Y-112307821D01*
X103662390Y-112307824D01*
X103797196Y-112385653D01*
X103799316Y-112386877D01*
X103952043Y-112427801D01*
X103952045Y-112427801D01*
X104117754Y-112427801D01*
X104117770Y-112427800D01*
X104132603Y-112427800D01*
X104199642Y-112447485D01*
X104220284Y-112464119D01*
X110780983Y-119024819D01*
X110814468Y-119086142D01*
X110809484Y-119155834D01*
X110767612Y-119211767D01*
X110702148Y-119236184D01*
X110693302Y-119236500D01*
X99180066Y-119236500D01*
X99113027Y-119216815D01*
X99111175Y-119215602D01*
X98979485Y-119127609D01*
X98979472Y-119127602D01*
X98833801Y-119067264D01*
X98833789Y-119067261D01*
X98679145Y-119036500D01*
X98679142Y-119036500D01*
X98521458Y-119036500D01*
X98521455Y-119036500D01*
X98366810Y-119067261D01*
X98366798Y-119067264D01*
X98221127Y-119127602D01*
X98221114Y-119127609D01*
X98090011Y-119215210D01*
X98090007Y-119215213D01*
X97978513Y-119326707D01*
X97978510Y-119326711D01*
X97890909Y-119457814D01*
X97890902Y-119457827D01*
X97830564Y-119603498D01*
X97830561Y-119603510D01*
X97799800Y-119758153D01*
X97799800Y-119861100D01*
X97780115Y-119928139D01*
X97727311Y-119973894D01*
X97675800Y-119985100D01*
X97072666Y-119985100D01*
X97005627Y-119965415D01*
X97003775Y-119964202D01*
X96872085Y-119876209D01*
X96872072Y-119876202D01*
X96726401Y-119815864D01*
X96726389Y-119815861D01*
X96571745Y-119785100D01*
X96571742Y-119785100D01*
X96414058Y-119785100D01*
X96414055Y-119785100D01*
X96259410Y-119815861D01*
X96259398Y-119815864D01*
X96113727Y-119876202D01*
X96113714Y-119876209D01*
X95982611Y-119963810D01*
X95982607Y-119963813D01*
X95871113Y-120075307D01*
X95871110Y-120075311D01*
X95783509Y-120206414D01*
X95783502Y-120206427D01*
X95723164Y-120352098D01*
X95723161Y-120352110D01*
X95692400Y-120506753D01*
X95692400Y-120664446D01*
X95723161Y-120819089D01*
X95723164Y-120819101D01*
X95783502Y-120964772D01*
X95783509Y-120964785D01*
X95871110Y-121095888D01*
X95871113Y-121095892D01*
X95982607Y-121207386D01*
X95982611Y-121207389D01*
X96113714Y-121294990D01*
X96113727Y-121294997D01*
X96259398Y-121355335D01*
X96259403Y-121355337D01*
X96414053Y-121386099D01*
X96414056Y-121386100D01*
X96414058Y-121386100D01*
X96571744Y-121386100D01*
X96571745Y-121386099D01*
X96726397Y-121355337D01*
X96872079Y-121294994D01*
X96926563Y-121258589D01*
X97003775Y-121206998D01*
X97070453Y-121186120D01*
X97072666Y-121186100D01*
X100578479Y-121186100D01*
X100645518Y-121205785D01*
X100691273Y-121258589D01*
X100701217Y-121327747D01*
X100698255Y-121342184D01*
X100682699Y-121400243D01*
X100682699Y-121400245D01*
X100682699Y-121568346D01*
X100682700Y-121568359D01*
X100682700Y-121890830D01*
X100682699Y-121890848D01*
X100682699Y-122056554D01*
X100682698Y-122056554D01*
X100723623Y-122209286D01*
X100731013Y-122222085D01*
X100738692Y-122235385D01*
X100766221Y-122283067D01*
X100790085Y-122324401D01*
X100806557Y-122392301D01*
X100783704Y-122458328D01*
X100728782Y-122501518D01*
X100659229Y-122508159D01*
X100597127Y-122476142D01*
X100595016Y-122474081D01*
X100117590Y-121996655D01*
X100117588Y-121996652D01*
X99998717Y-121877781D01*
X99998709Y-121877775D01*
X99880412Y-121809477D01*
X99880412Y-121809476D01*
X99880407Y-121809475D01*
X99870227Y-121803597D01*
X99861786Y-121798723D01*
X99823603Y-121788492D01*
X99709057Y-121757799D01*
X99550943Y-121757799D01*
X99543347Y-121757799D01*
X99543331Y-121757800D01*
X82895266Y-121757800D01*
X82828227Y-121738115D01*
X82826375Y-121736902D01*
X82694685Y-121648909D01*
X82694672Y-121648902D01*
X82549001Y-121588564D01*
X82548989Y-121588561D01*
X82394345Y-121557800D01*
X82394342Y-121557800D01*
X82236658Y-121557800D01*
X82236655Y-121557800D01*
X82082010Y-121588561D01*
X82081998Y-121588564D01*
X81936327Y-121648902D01*
X81936314Y-121648909D01*
X81805211Y-121736510D01*
X81805207Y-121736513D01*
X81771609Y-121770112D01*
X81710286Y-121803597D01*
X81640594Y-121798613D01*
X81596247Y-121770112D01*
X78161190Y-118335055D01*
X78161188Y-118335052D01*
X78042317Y-118216181D01*
X78042316Y-118216180D01*
X77946801Y-118161035D01*
X77946800Y-118161034D01*
X77905383Y-118137122D01*
X77849481Y-118122143D01*
X77752657Y-118096199D01*
X77594543Y-118096199D01*
X77586947Y-118096199D01*
X77586931Y-118096200D01*
X61386297Y-118096200D01*
X61319258Y-118076515D01*
X61273503Y-118023711D01*
X61263559Y-117954553D01*
X61292584Y-117890997D01*
X61298616Y-117884519D01*
X80106317Y-99076819D01*
X80167640Y-99043334D01*
X80193998Y-99040500D01*
X85714281Y-99040500D01*
X85781320Y-99060185D01*
X85824765Y-99108205D01*
X85844947Y-99147814D01*
X85844948Y-99147815D01*
X85969890Y-99319786D01*
X86120213Y-99470109D01*
X86292179Y-99595048D01*
X86292181Y-99595049D01*
X86292184Y-99595051D01*
X86481588Y-99691557D01*
X86683757Y-99757246D01*
X86893713Y-99790500D01*
X86893714Y-99790500D01*
X87106286Y-99790500D01*
X87106287Y-99790500D01*
X87316243Y-99757246D01*
X87518412Y-99691557D01*
X87707816Y-99595051D01*
X87846613Y-99494210D01*
X87879786Y-99470109D01*
X87879788Y-99470106D01*
X87879792Y-99470104D01*
X88030104Y-99319792D01*
X88030106Y-99319788D01*
X88030109Y-99319786D01*
X88155048Y-99147820D01*
X88155047Y-99147820D01*
X88155051Y-99147816D01*
X88251557Y-98958412D01*
X88317246Y-98756243D01*
X88350500Y-98546287D01*
X88350500Y-98333713D01*
X88317246Y-98123757D01*
X88293643Y-98051117D01*
X88292840Y-98023001D01*
X88288837Y-97995156D01*
X88291856Y-97988543D01*
X88291649Y-97981278D01*
X88306176Y-97957186D01*
X88317861Y-97931600D01*
X88323974Y-97927670D01*
X88327729Y-97921445D01*
X88352973Y-97909032D01*
X88376638Y-97893824D01*
X88386911Y-97892346D01*
X88390430Y-97890617D01*
X88411573Y-97888801D01*
X88467358Y-97888801D01*
X88467361Y-97888800D01*
X88474968Y-97888800D01*
X89735603Y-97888800D01*
X89802642Y-97908485D01*
G37*
%TD.AperFunction*%
%TD*%
M02*
