M48
; DRILL file KiCad 10.0.3 date 2026-09-24T15:50:19
; FORMAT={-:-/ absolute / metric / decimal}
; #@! TF.CreationDate,2026-09-24T15:50:19+02:00
; #@! TF.GenerationSoftware,Kicad,Pcbnew,10.0.3
; #@! TF.FileFunction,MixedPlating,1,2
FMAT,2
METRIC
; #@! TA.AperFunction,Plated,PTH,ComponentDrill
T1C1.000
%
G90
G05
T1
X67.35Y-139.69
X67.35Y-142.24
X69.89Y-139.69
X69.89Y-142.24
X74.97Y-137.15
X74.97Y-139.7
X77.51Y-137.15
X77.51Y-139.7
X80.05Y-137.15
X80.05Y-139.7
X82.59Y-137.15
X82.59Y-139.7
X85.13Y-137.15
X85.13Y-139.7
X87.67Y-137.15
X87.67Y-139.7
X90.21Y-137.15
X90.21Y-139.7
X92.75Y-137.15
X92.75Y-139.7
X95.29Y-137.15
X95.29Y-139.7
X97.83Y-137.15
X97.83Y-139.7
X100.37Y-137.15
X100.37Y-139.7
X102.91Y-137.15
X102.91Y-139.7
X105.45Y-137.15
X105.45Y-139.7
X107.99Y-137.15
X107.99Y-139.7
X110.53Y-137.15
X110.53Y-139.7
X113.07Y-137.15
X113.07Y-139.7
X115.61Y-137.15
X115.61Y-139.7
X118.15Y-137.15
X118.15Y-139.7
X120.69Y-137.15
X120.69Y-139.7
X123.23Y-137.15
X123.23Y-139.7
X125.77Y-137.15
X125.77Y-139.7
X128.31Y-137.15
X128.31Y-139.7
X130.85Y-137.15
X130.85Y-139.7
X133.39Y-137.15
X133.39Y-139.7
X138.47Y-139.69
X138.47Y-142.24
X141.01Y-139.69
X141.01Y-142.24
X146.09Y-137.15
X146.09Y-139.7
X148.63Y-137.15
X148.63Y-139.7
X151.17Y-137.15
X151.17Y-139.7
X153.71Y-137.15
X153.71Y-139.7
X156.25Y-137.15
X156.25Y-139.7
X158.79Y-137.15
X158.79Y-139.7
X161.33Y-137.15
X161.33Y-139.7
X163.87Y-137.15
X163.87Y-139.7
X166.41Y-137.15
X166.41Y-139.7
X168.95Y-137.15
X168.95Y-139.7
X171.49Y-137.15
X171.49Y-139.7
X174.03Y-137.15
X174.03Y-139.7
X176.57Y-137.15
X176.57Y-139.7
X179.11Y-137.15
X179.11Y-139.7
X181.65Y-137.15
X181.65Y-139.7
X184.19Y-137.15
X184.19Y-139.7
X186.73Y-137.15
X186.73Y-139.7
X189.27Y-137.15
X189.27Y-139.7
X191.81Y-137.15
X191.81Y-139.7
X194.35Y-137.15
X194.35Y-139.7
X196.89Y-137.15
X196.89Y-139.7
X199.43Y-137.15
X199.43Y-139.7
X201.97Y-137.15
X201.97Y-139.7
X204.51Y-137.15
X204.51Y-139.7
X209.59Y-139.69
X209.59Y-142.24
X212.13Y-139.69
X212.13Y-142.24
M30
