G04 #@! TF.GenerationSoftware,KiCad,Pcbnew,10.0.3*
G04 #@! TF.CreationDate,2026-09-24T15:50:19+02:00*
G04 #@! TF.ProjectId,neocart_blank_prog,6e656f63-6172-4745-9f62-6c616e6b5f70,rev?*
G04 #@! TF.SameCoordinates,Original*
G04 #@! TF.FileFunction,Soldermask,Top*
G04 #@! TF.FilePolarity,Negative*
%FSLAX46Y46*%
G04 Gerber Fmt 4.6, Leading zero omitted, Abs format (unit mm)*
G04 Created by KiCad (PCBNEW 10.0.3) date 2026-09-24 15:50:19*
%MOMM*%
%LPD*%
G01*
G04 APERTURE LIST*
G04 Aperture macros list*
%AMFreePoly0*
4,1,11,0.750000,-5.000000,0.421000,-5.000000,0.127000,-5.588000,0.127000,-6.350000,-0.127000,-6.350000,-0.127000,-5.588000,-0.421000,-5.000000,-0.750000,-5.000000,-0.750000,5.000000,0.750000,5.000000,0.750000,-5.000000,0.750000,-5.000000,$1*%
G04 Aperture macros list end*
%ADD10FreePoly0,0.000000*%
%ADD11O,1.700000X1.700000*%
G04 APERTURE END LIST*
D10*
X214680000Y-150650000D03*
X212140000Y-150650000D03*
X209600000Y-150650000D03*
X207060000Y-150650000D03*
X204520000Y-150650000D03*
X201980000Y-150650000D03*
X199440000Y-150650000D03*
X196900000Y-150650000D03*
X194360000Y-150650000D03*
X191820000Y-150650000D03*
X189280000Y-150650000D03*
X186740000Y-150650000D03*
X184200000Y-150650000D03*
X181660000Y-150650000D03*
X179120000Y-150650000D03*
X176580000Y-150650000D03*
X174040000Y-150650000D03*
X171500000Y-150650000D03*
X168960000Y-150650000D03*
X166420000Y-150650000D03*
X163880000Y-150650000D03*
X161340000Y-150650000D03*
X158800000Y-150650000D03*
X156260000Y-150650000D03*
X153720000Y-150650000D03*
X151180000Y-150650000D03*
X148640000Y-150650000D03*
X146100000Y-150650000D03*
X143560000Y-150650000D03*
X141020000Y-150650000D03*
X138480000Y-150650000D03*
X135940000Y-150650000D03*
X133400000Y-150650000D03*
X130860000Y-150650000D03*
X128320000Y-150650000D03*
X125780000Y-150650000D03*
X123240000Y-150650000D03*
X120700000Y-150650000D03*
X118160000Y-150650000D03*
X115620000Y-150650000D03*
X113080000Y-150650000D03*
X110540000Y-150650000D03*
X108000000Y-150650000D03*
X105460000Y-150650000D03*
X102920000Y-150650000D03*
X100380000Y-150650000D03*
X97840000Y-150650000D03*
X95300000Y-150650000D03*
X92760000Y-150650000D03*
X90220000Y-150650000D03*
X87680000Y-150650000D03*
X85140000Y-150650000D03*
X82600000Y-150650000D03*
X80060000Y-150650000D03*
X77520000Y-150650000D03*
X74980000Y-150650000D03*
X72440000Y-150650000D03*
X69900000Y-150650000D03*
X67360000Y-150650000D03*
X64820000Y-150650000D03*
D11*
X212130000Y-139690000D03*
X209590000Y-139690000D03*
X204510000Y-137150000D03*
X201970000Y-137150000D03*
X199430000Y-137150000D03*
X196890000Y-137150000D03*
X194350000Y-137150000D03*
X191810000Y-137150000D03*
X189270000Y-137150000D03*
X186730000Y-137150000D03*
X184190000Y-137150000D03*
X181650000Y-137150000D03*
X179110000Y-137150000D03*
X176570000Y-137150000D03*
X174030000Y-137150000D03*
X171490000Y-137150000D03*
X168950000Y-137150000D03*
X166410000Y-137150000D03*
X163870000Y-137150000D03*
X161330000Y-137150000D03*
X158790000Y-137150000D03*
X156250000Y-137150000D03*
X153710000Y-137150000D03*
X151170000Y-137150000D03*
X148630000Y-137150000D03*
X146090000Y-137150000D03*
X141010000Y-139690000D03*
X138470000Y-139690000D03*
X133390000Y-137150000D03*
X130850000Y-137150000D03*
X128310000Y-137150000D03*
X125770000Y-137150000D03*
X123230000Y-137150000D03*
X120690000Y-137150000D03*
X118150000Y-137150000D03*
X115610000Y-137150000D03*
X113070000Y-137150000D03*
X110530000Y-137150000D03*
X107990000Y-137150000D03*
X105450000Y-137150000D03*
X102910000Y-137150000D03*
X100370000Y-137150000D03*
X97830000Y-137150000D03*
X95290000Y-137150000D03*
X92750000Y-137150000D03*
X90210000Y-137150000D03*
X87670000Y-137150000D03*
X85130000Y-137150000D03*
X82590000Y-137150000D03*
X80050000Y-137150000D03*
X77510000Y-137150000D03*
X74970000Y-137150000D03*
X69890000Y-139690000D03*
X67350000Y-139690000D03*
X212130000Y-142240000D03*
X209590000Y-142240000D03*
X204510000Y-139700000D03*
X201970000Y-139700000D03*
X199430000Y-139700000D03*
X196890000Y-139700000D03*
X194350000Y-139700000D03*
X191810000Y-139700000D03*
X189270000Y-139700000D03*
X186730000Y-139700000D03*
X184190000Y-139700000D03*
X181650000Y-139700000D03*
X179110000Y-139700000D03*
X176570000Y-139700000D03*
X174030000Y-139700000D03*
X171490000Y-139700000D03*
X168950000Y-139700000D03*
X166410000Y-139700000D03*
X163870000Y-139700000D03*
X161330000Y-139700000D03*
X158790000Y-139700000D03*
X156250000Y-139700000D03*
X153710000Y-139700000D03*
X151170000Y-139700000D03*
X148630000Y-139700000D03*
X146090000Y-139700000D03*
X141010000Y-142240000D03*
X138470000Y-142240000D03*
X133390000Y-139700000D03*
X130850000Y-139700000D03*
X128310000Y-139700000D03*
X125770000Y-139700000D03*
X123230000Y-139700000D03*
X120690000Y-139700000D03*
X118150000Y-139700000D03*
X115610000Y-139700000D03*
X113070000Y-139700000D03*
X110530000Y-139700000D03*
X107990000Y-139700000D03*
X105450000Y-139700000D03*
X102910000Y-139700000D03*
X100370000Y-139700000D03*
X97830000Y-139700000D03*
X95290000Y-139700000D03*
X92750000Y-139700000D03*
X90210000Y-139700000D03*
X87670000Y-139700000D03*
X85130000Y-139700000D03*
X82590000Y-139700000D03*
X80050000Y-139700000D03*
X77510000Y-139700000D03*
X74970000Y-139700000D03*
X69890000Y-142240000D03*
X67350000Y-142240000D03*
M02*
