G04 #@! TF.GenerationSoftware,KiCad,Pcbnew,10.0.3*
G04 #@! TF.CreationDate,2026-09-24T15:50:19+02:00*
G04 #@! TF.ProjectId,neocart_blank_prog,6e656f63-6172-4745-9f62-6c616e6b5f70,rev?*
G04 #@! TF.SameCoordinates,Original*
G04 #@! TF.FileFunction,Copper,L2,Bot*
G04 #@! TF.FilePolarity,Positive*
%FSLAX46Y46*%
G04 Gerber Fmt 4.6, Leading zero omitted, Abs format (unit mm)*
G04 Created by KiCad (PCBNEW 10.0.3) date 2026-09-24 15:50:19*
%MOMM*%
%LPD*%
G01*
G04 APERTURE LIST*
G04 Aperture macros list*
%AMFreePoly0*
4,1,11,0.127000,5.588000,0.421000,5.000000,0.750000,5.000000,0.750000,-5.000000,-0.750000,-5.000000,-0.750000,5.000000,-0.421000,5.000000,-0.127000,5.588000,-0.127000,6.350000,0.127000,6.350000,0.127000,5.588000,0.127000,5.588000,$1*%
G04 Aperture macros list end*
G04 #@! TA.AperFunction,ComponentPad*
%ADD10O,1.700000X1.700000*%
G04 #@! TD*
G04 #@! TA.AperFunction,ConnectorPad*
%ADD11FreePoly0,180.000000*%
G04 #@! TD*
G04 #@! TA.AperFunction,Conductor*
%ADD12C,0.250000*%
G04 #@! TD*
G04 APERTURE END LIST*
D10*
X212130000Y-139690000D03*
X209590000Y-139690000D03*
X204510000Y-137150000D03*
X201970000Y-137150000D03*
X199430000Y-137150000D03*
X196890000Y-137150000D03*
X194350000Y-137150000D03*
X191810000Y-137150000D03*
X189270000Y-137150000D03*
X186730000Y-137150000D03*
X184190000Y-137150000D03*
X181650000Y-137150000D03*
X179110000Y-137150000D03*
X176570000Y-137150000D03*
X174030000Y-137150000D03*
X171490000Y-137150000D03*
X168950000Y-137150000D03*
X166410000Y-137150000D03*
X163870000Y-137150000D03*
X161330000Y-137150000D03*
X158790000Y-137150000D03*
X156250000Y-137150000D03*
X153710000Y-137150000D03*
X151170000Y-137150000D03*
X148630000Y-137150000D03*
X146090000Y-137150000D03*
X141010000Y-139690000D03*
X138470000Y-139690000D03*
X133390000Y-137150000D03*
X130850000Y-137150000D03*
X128310000Y-137150000D03*
X125770000Y-137150000D03*
X123230000Y-137150000D03*
X120690000Y-137150000D03*
X118150000Y-137150000D03*
X115610000Y-137150000D03*
X113070000Y-137150000D03*
X110530000Y-137150000D03*
X107990000Y-137150000D03*
X105450000Y-137150000D03*
X102910000Y-137150000D03*
X100370000Y-137150000D03*
X97830000Y-137150000D03*
X95290000Y-137150000D03*
X92750000Y-137150000D03*
X90210000Y-137150000D03*
X87670000Y-137150000D03*
X85130000Y-137150000D03*
X82590000Y-137150000D03*
X80050000Y-137150000D03*
X77510000Y-137150000D03*
X74970000Y-137150000D03*
X69890000Y-139690000D03*
X67350000Y-139690000D03*
X212130000Y-142240000D03*
X209590000Y-142240000D03*
X204510000Y-139700000D03*
X201970000Y-139700000D03*
X199430000Y-139700000D03*
X196890000Y-139700000D03*
X194350000Y-139700000D03*
X191810000Y-139700000D03*
X189270000Y-139700000D03*
X186730000Y-139700000D03*
X184190000Y-139700000D03*
X181650000Y-139700000D03*
X179110000Y-139700000D03*
X176570000Y-139700000D03*
X174030000Y-139700000D03*
X171490000Y-139700000D03*
X168950000Y-139700000D03*
X166410000Y-139700000D03*
X163870000Y-139700000D03*
X161330000Y-139700000D03*
X158790000Y-139700000D03*
X156250000Y-139700000D03*
X153710000Y-139700000D03*
X151170000Y-139700000D03*
X148630000Y-139700000D03*
X146090000Y-139700000D03*
X141010000Y-142240000D03*
X138470000Y-142240000D03*
X133390000Y-139700000D03*
X130850000Y-139700000D03*
X128310000Y-139700000D03*
X125770000Y-139700000D03*
X123230000Y-139700000D03*
X120690000Y-139700000D03*
X118150000Y-139700000D03*
X115610000Y-139700000D03*
X113070000Y-139700000D03*
X110530000Y-139700000D03*
X107990000Y-139700000D03*
X105450000Y-139700000D03*
X102910000Y-139700000D03*
X100370000Y-139700000D03*
X97830000Y-139700000D03*
X95290000Y-139700000D03*
X92750000Y-139700000D03*
X90210000Y-139700000D03*
X87670000Y-139700000D03*
X85130000Y-139700000D03*
X82590000Y-139700000D03*
X80050000Y-139700000D03*
X77510000Y-139700000D03*
X74970000Y-139700000D03*
X69890000Y-142240000D03*
X67350000Y-142240000D03*
D11*
X214680000Y-150650000D03*
X212140000Y-150650000D03*
X209600000Y-150650000D03*
X207060000Y-150650000D03*
X204520000Y-150650000D03*
X201980000Y-150650000D03*
X199440000Y-150650000D03*
X196900000Y-150650000D03*
X194360000Y-150650000D03*
X191820000Y-150650000D03*
X189280000Y-150650000D03*
X186740000Y-150650000D03*
X184200000Y-150650000D03*
X181660000Y-150650000D03*
X179120000Y-150650000D03*
X176580000Y-150650000D03*
X174040000Y-150650000D03*
X171500000Y-150650000D03*
X168960000Y-150650000D03*
X166420000Y-150650000D03*
X163880000Y-150650000D03*
X161340000Y-150650000D03*
X158800000Y-150650000D03*
X156260000Y-150650000D03*
X153720000Y-150650000D03*
X151180000Y-150650000D03*
X148640000Y-150650000D03*
X146100000Y-150650000D03*
X143560000Y-150650000D03*
X141020000Y-150650000D03*
X138480000Y-150650000D03*
X135940000Y-150650000D03*
X133400000Y-150650000D03*
X130860000Y-150650000D03*
X128320000Y-150650000D03*
X125780000Y-150650000D03*
X123240000Y-150650000D03*
X120700000Y-150650000D03*
X118160000Y-150650000D03*
X115620000Y-150650000D03*
X113080000Y-150650000D03*
X110540000Y-150650000D03*
X108000000Y-150650000D03*
X105460000Y-150650000D03*
X102920000Y-150650000D03*
X100380000Y-150650000D03*
X97840000Y-150650000D03*
X95300000Y-150650000D03*
X92760000Y-150650000D03*
X90220000Y-150650000D03*
X87680000Y-150650000D03*
X85140000Y-150650000D03*
X82600000Y-150650000D03*
X80060000Y-150650000D03*
X77520000Y-150650000D03*
X74980000Y-150650000D03*
X72440000Y-150650000D03*
X69900000Y-150650000D03*
X67360000Y-150650000D03*
X64820000Y-150650000D03*
D12*
X210850000Y-143750000D02*
X210850000Y-140980000D01*
X214680000Y-150650000D02*
X214680000Y-143700000D01*
X208310000Y-143750000D02*
X208310000Y-140980000D01*
X208310000Y-140980000D02*
X209590000Y-139690000D01*
X69900000Y-150650000D02*
X69900000Y-143700000D01*
X72440000Y-150650000D02*
X72440000Y-143700000D01*
X209600000Y-150650000D02*
X209600000Y-143700000D01*
X68610000Y-143750000D02*
X68610000Y-140980000D01*
X207060000Y-150650000D02*
X207060000Y-143700000D01*
X210850000Y-140980000D02*
X212130000Y-139690000D01*
X66069999Y-143750000D02*
X66069999Y-140980000D01*
X209600000Y-145040000D02*
X208310000Y-143750000D01*
X69900000Y-145040000D02*
X68610000Y-143750000D01*
X212140000Y-150650000D02*
X212140000Y-143700000D01*
X209600000Y-150650000D02*
X209600000Y-145040000D01*
X69900000Y-150650000D02*
X69900000Y-145040000D01*
X212140000Y-150650000D02*
X212140000Y-145040000D01*
X67360000Y-150650000D02*
X67360000Y-143700000D01*
X68610000Y-140980000D02*
X69890000Y-139690000D01*
X64819999Y-150650000D02*
X64819999Y-143700000D01*
X67360000Y-145040000D02*
X66069999Y-143750000D01*
X67360000Y-150650000D02*
X67360000Y-145040000D01*
X212140000Y-145040000D02*
X210850000Y-143750000D01*
X66069999Y-140980000D02*
X67350000Y-139690000D01*
X143560000Y-150650000D02*
X143560000Y-144750000D01*
X138480000Y-150650000D02*
X138480000Y-145040000D01*
X141020000Y-150650000D02*
X141020000Y-145040000D01*
X138480000Y-145040000D02*
X137190000Y-143750000D01*
X135940000Y-150650000D02*
X135940000Y-144750000D01*
X139730000Y-140980000D02*
X141010000Y-139690000D01*
X137190000Y-143750000D02*
X137190000Y-140980000D01*
X141020000Y-145040000D02*
X139730000Y-143750000D01*
X138480000Y-150650000D02*
X138480000Y-144750000D01*
X135940000Y-144750000D02*
X143560000Y-144750000D01*
X141020000Y-150650000D02*
X141020000Y-144750000D01*
X137190000Y-140980000D02*
X138470000Y-139690000D01*
X139730000Y-143750000D02*
X139730000Y-140980000D01*
X203230000Y-138440000D02*
X204510000Y-137150000D01*
X203230000Y-141209999D02*
X203230000Y-138440000D01*
X204520000Y-150650000D02*
X204520000Y-142500000D01*
X204520000Y-142500000D02*
X203230000Y-141209999D01*
X201980000Y-150650000D02*
X201980000Y-142500000D01*
X200690000Y-141209999D02*
X200690000Y-138440000D01*
X200690000Y-138440000D02*
X201970000Y-137150000D01*
X201980000Y-142500000D02*
X200690000Y-141209999D01*
X199440000Y-142500000D02*
X198150000Y-141209999D01*
X198150000Y-138440000D02*
X199430000Y-137150000D01*
X199440000Y-150650000D02*
X199440000Y-142500000D01*
X198150000Y-141209999D02*
X198150000Y-138440000D01*
X196900000Y-150650000D02*
X196900000Y-142500000D01*
X195610000Y-141209999D02*
X195610000Y-138440000D01*
X196900000Y-142500000D02*
X195610000Y-141209999D01*
X195610000Y-138440000D02*
X196890000Y-137150000D01*
X193070000Y-141209999D02*
X193070000Y-138440000D01*
X193070000Y-138440000D02*
X194350000Y-137150000D01*
X194360000Y-142500000D02*
X193070000Y-141209999D01*
X194360000Y-150650000D02*
X194360000Y-142500000D01*
X191820000Y-150650000D02*
X191820000Y-142500000D01*
X190530000Y-138440000D02*
X191810000Y-137150000D01*
X191820000Y-142500000D02*
X190530000Y-141209999D01*
X190530000Y-141209999D02*
X190530000Y-138440000D01*
X187990000Y-138440000D02*
X189270000Y-137150000D01*
X189280000Y-142500000D02*
X187990000Y-141209999D01*
X189280000Y-150650000D02*
X189280000Y-142500000D01*
X187990000Y-141209999D02*
X187990000Y-138440000D01*
X186740000Y-150650000D02*
X186740000Y-142500000D01*
X185450000Y-141209999D02*
X185450000Y-138440000D01*
X185450000Y-138440000D02*
X186730000Y-137150000D01*
X186740000Y-142500000D02*
X185450000Y-141209999D01*
X182910000Y-141209999D02*
X182910000Y-138440000D01*
X184200000Y-142500000D02*
X182910000Y-141209999D01*
X182910000Y-138440000D02*
X184190000Y-137150000D01*
X184200000Y-150650000D02*
X184200000Y-142500000D01*
X181660000Y-142500000D02*
X180370000Y-141209999D01*
X180370000Y-138440000D02*
X181650000Y-137150000D01*
X181660000Y-150650000D02*
X181660000Y-142500000D01*
X180370000Y-141209999D02*
X180370000Y-138440000D01*
X177830000Y-141209999D02*
X177830000Y-138440000D01*
X177830000Y-138440000D02*
X179110000Y-137150000D01*
X179120000Y-142500000D02*
X177830000Y-141209999D01*
X179120000Y-150650000D02*
X179120000Y-142500000D01*
X176580000Y-150650000D02*
X176580000Y-142500000D01*
X176580000Y-142500000D02*
X175290000Y-141209999D01*
X175290000Y-138440000D02*
X176570000Y-137150000D01*
X175290000Y-141209999D02*
X175290000Y-138440000D01*
X172750000Y-141209999D02*
X172750000Y-138440000D01*
X174040000Y-150650000D02*
X174040000Y-142500000D01*
X174040000Y-142500000D02*
X172750000Y-141209999D01*
X172750000Y-138440000D02*
X174030000Y-137150000D01*
X170210000Y-138440000D02*
X171490000Y-137150000D01*
X171500000Y-150650000D02*
X171500000Y-142500000D01*
X170210000Y-141209999D02*
X170210000Y-138440000D01*
X171500000Y-142500000D02*
X170210000Y-141209999D01*
X167670000Y-141209999D02*
X167670000Y-138440000D01*
X167670000Y-138440000D02*
X168950000Y-137150000D01*
X168960000Y-142500000D02*
X167670000Y-141209999D01*
X168960000Y-150650000D02*
X168960000Y-142500000D01*
X165130000Y-141209999D02*
X165130000Y-138440000D01*
X166420000Y-142500000D02*
X165130000Y-141209999D01*
X166420000Y-150650000D02*
X166420000Y-142500000D01*
X165130000Y-138440000D02*
X166410000Y-137150000D01*
X163880000Y-150650000D02*
X163880000Y-142500000D01*
X163880000Y-142500000D02*
X162590000Y-141209999D01*
X162590000Y-141209999D02*
X162590000Y-138440000D01*
X162590000Y-138440000D02*
X163870000Y-137150000D01*
X160050000Y-138440000D02*
X161330000Y-137150000D01*
X160050000Y-141209999D02*
X160050000Y-138440000D01*
X161340000Y-150650000D02*
X161340000Y-142500000D01*
X161340000Y-142500000D02*
X160050000Y-141209999D01*
X157510000Y-141209999D02*
X157510000Y-138440000D01*
X158800000Y-142500000D02*
X157510000Y-141209999D01*
X158800000Y-150650000D02*
X158800000Y-142500000D01*
X157510000Y-138440000D02*
X158790000Y-137150000D01*
X154970000Y-138440000D02*
X156250000Y-137150000D01*
X154970000Y-141209999D02*
X154970000Y-138440000D01*
X156260000Y-150650000D02*
X156260000Y-142500000D01*
X156260000Y-142500000D02*
X154970000Y-141209999D01*
X152430000Y-141209999D02*
X152430000Y-138440000D01*
X152430000Y-138440000D02*
X153710000Y-137150000D01*
X153720000Y-142500000D02*
X152430000Y-141209999D01*
X153720000Y-150650000D02*
X153720000Y-142500000D01*
X149890000Y-141209999D02*
X149890000Y-138440000D01*
X151180000Y-142500000D02*
X149890000Y-141209999D01*
X151180000Y-150650000D02*
X151180000Y-142500000D01*
X149890000Y-138440000D02*
X151170000Y-137150000D01*
X148640000Y-142500000D02*
X147350000Y-141209999D01*
X147350000Y-141209999D02*
X147350000Y-138440000D01*
X147350000Y-138440000D02*
X148630000Y-137150000D01*
X148640000Y-150650000D02*
X148640000Y-142500000D01*
X144810000Y-141209999D02*
X144810000Y-138440000D01*
X146100000Y-142500000D02*
X144810000Y-141209999D01*
X144810000Y-138440000D02*
X146090000Y-137150000D01*
X146100000Y-150650000D02*
X146100000Y-142500000D01*
X133400000Y-142500000D02*
X132110000Y-141209999D01*
X132110000Y-138440000D02*
X133389999Y-137150000D01*
X132110000Y-141209999D02*
X132110000Y-138440000D01*
X133400000Y-150650000D02*
X133400000Y-142500000D01*
X129570000Y-138440000D02*
X130850000Y-137150000D01*
X130860000Y-142500000D02*
X129570000Y-141209999D01*
X130860000Y-150650000D02*
X130860000Y-142500000D01*
X129570000Y-141209999D02*
X129570000Y-138440000D01*
X128320000Y-150650000D02*
X128320000Y-142500000D01*
X128320000Y-142500000D02*
X127029999Y-141209999D01*
X127029999Y-138440000D02*
X128310000Y-137150000D01*
X127029999Y-141209999D02*
X127029999Y-138440000D01*
X124490000Y-138440000D02*
X125770000Y-137150000D01*
X125780000Y-142500000D02*
X124490000Y-141209999D01*
X125780000Y-150650000D02*
X125780000Y-142500000D01*
X124490000Y-141209999D02*
X124490000Y-138440000D01*
X123240000Y-142500000D02*
X121949999Y-141209999D01*
X121949999Y-138440000D02*
X123230000Y-137150000D01*
X123240000Y-150650000D02*
X123240000Y-142500000D01*
X121949999Y-141209999D02*
X121949999Y-138440000D01*
X119410000Y-141209999D02*
X119410000Y-138440000D01*
X120700000Y-142500000D02*
X119410000Y-141209999D01*
X120700000Y-150650000D02*
X120700000Y-142500000D01*
X119410000Y-138440000D02*
X120690000Y-137150000D01*
X118160000Y-150650000D02*
X118160000Y-142500000D01*
X118160000Y-142500000D02*
X116869999Y-141209999D01*
X116869999Y-141209999D02*
X116869999Y-138440000D01*
X116869999Y-138440000D02*
X118150000Y-137150000D01*
X114330000Y-141209999D02*
X114330000Y-138440000D01*
X115620000Y-150650000D02*
X115620000Y-142500000D01*
X115620000Y-142500000D02*
X114330000Y-141209999D01*
X114330000Y-138440000D02*
X115610000Y-137150000D01*
X113080000Y-150650000D02*
X113080000Y-142500000D01*
X111789999Y-138440000D02*
X113070000Y-137150000D01*
X113080000Y-142500000D02*
X111789999Y-141209999D01*
X111789999Y-141209999D02*
X111789999Y-138440000D01*
X110540000Y-150650000D02*
X110540000Y-142500000D01*
X109250000Y-141209999D02*
X109250000Y-138440000D01*
X109250000Y-138440000D02*
X110530000Y-137150000D01*
X110540000Y-142500000D02*
X109250000Y-141209999D01*
X108000000Y-150650000D02*
X108000000Y-142500000D01*
X106710000Y-141209999D02*
X106710000Y-138440000D01*
X106710000Y-138440000D02*
X107990000Y-137150000D01*
X108000000Y-142500000D02*
X106710000Y-141209999D01*
X104169999Y-141209999D02*
X104169999Y-138440000D01*
X104169999Y-138440000D02*
X105450000Y-137150000D01*
X105460000Y-142500000D02*
X104169999Y-141209999D01*
X105460000Y-150650000D02*
X105460000Y-142500000D01*
X102920000Y-150650000D02*
X102920000Y-142500000D01*
X102920000Y-142500000D02*
X101630000Y-141209999D01*
X101630000Y-138440000D02*
X102910000Y-137150000D01*
X101630000Y-141209999D02*
X101630000Y-138440000D01*
X99089999Y-138440000D02*
X100370000Y-137150000D01*
X99089999Y-141209999D02*
X99089999Y-138440000D01*
X100380000Y-142500000D02*
X99089999Y-141209999D01*
X100380000Y-150650000D02*
X100380000Y-142500000D01*
X96550000Y-141209999D02*
X96550000Y-138440000D01*
X97840000Y-150650000D02*
X97840000Y-142500000D01*
X97840000Y-142500000D02*
X96550000Y-141209999D01*
X96550000Y-138440000D02*
X97830000Y-137150000D01*
X94009999Y-141209999D02*
X94009999Y-138440000D01*
X94009999Y-138440000D02*
X95290000Y-137150000D01*
X95300000Y-150650000D02*
X95300000Y-142500000D01*
X95300000Y-142500000D02*
X94009999Y-141209999D01*
X92760000Y-150650000D02*
X92760000Y-142500000D01*
X91470000Y-138440000D02*
X92750000Y-137150000D01*
X92760000Y-142500000D02*
X91470000Y-141209999D01*
X91470000Y-141209999D02*
X91470000Y-138440000D01*
X90220000Y-150650000D02*
X90220000Y-142500000D01*
X90220000Y-142500000D02*
X88930000Y-141209999D01*
X88930000Y-141209999D02*
X88930000Y-138440000D01*
X88930000Y-138440000D02*
X90210000Y-137150000D01*
X86390000Y-138440000D02*
X87670000Y-137150000D01*
X87680000Y-150650000D02*
X87680000Y-142500000D01*
X87680000Y-142500000D02*
X86390000Y-141209999D01*
X86390000Y-141209999D02*
X86390000Y-138440000D01*
X85140000Y-142500000D02*
X83850000Y-141209999D01*
X83850000Y-141209999D02*
X83850000Y-138440000D01*
X83850000Y-138440000D02*
X85130000Y-137150000D01*
X85140000Y-150650000D02*
X85140000Y-142500000D01*
X82600000Y-150650000D02*
X82600000Y-142500000D01*
X82600000Y-142500000D02*
X81309999Y-141209999D01*
X81309999Y-138440000D02*
X82590000Y-137150000D01*
X81309999Y-141209999D02*
X81309999Y-138440000D01*
X80060000Y-150650000D02*
X80060000Y-142500000D01*
X78770000Y-141209999D02*
X78770000Y-138440000D01*
X78770000Y-138440000D02*
X80050000Y-137150000D01*
X80060000Y-142500000D02*
X78770000Y-141209999D01*
X76229999Y-138440000D02*
X77510000Y-137150000D01*
X77520000Y-142500000D02*
X76229999Y-141209999D01*
X77520000Y-150650000D02*
X77520000Y-142500000D01*
X76229999Y-141209999D02*
X76229999Y-138440000D01*
X74980000Y-150650000D02*
X74980000Y-142500000D01*
X74980000Y-142500000D02*
X73690000Y-141209999D01*
X73690000Y-141209999D02*
X73690000Y-138440000D01*
X73690000Y-138440000D02*
X74970000Y-137150000D01*
G04 #@! TA.AperFunction,Conductor*
G36*
X69424075Y-142047007D02*
G01*
X69390000Y-142174174D01*
X69390000Y-142305826D01*
X69424075Y-142432993D01*
X69428120Y-142440000D01*
X67811880Y-142440000D01*
X67815925Y-142432993D01*
X67850000Y-142305826D01*
X67850000Y-142174174D01*
X67815925Y-142047007D01*
X67811880Y-142040000D01*
X69428120Y-142040000D01*
X69424075Y-142047007D01*
G37*
G04 #@! TD.AperFunction*
G04 #@! TA.AperFunction,Conductor*
G36*
X68691445Y-140122630D02*
G01*
X68730485Y-140167685D01*
X68820902Y-140345141D01*
X68936555Y-140504321D01*
X69075678Y-140643444D01*
X69234856Y-140759095D01*
X69410168Y-140848420D01*
X69414660Y-140850281D01*
X69413787Y-140852386D01*
X69463688Y-140886509D01*
X69490884Y-140950868D01*
X69478968Y-141019714D01*
X69431723Y-141071189D01*
X69414403Y-141079098D01*
X69414660Y-141079719D01*
X69410168Y-141081579D01*
X69234856Y-141170904D01*
X69075678Y-141286555D01*
X68936555Y-141425678D01*
X68820904Y-141584856D01*
X68730485Y-141762315D01*
X68682511Y-141813111D01*
X68614690Y-141829906D01*
X68548555Y-141807369D01*
X68509515Y-141762315D01*
X68419095Y-141584856D01*
X68303444Y-141425678D01*
X68164321Y-141286555D01*
X68005143Y-141170904D01*
X67829831Y-141081579D01*
X67825340Y-141079719D01*
X67826217Y-141077599D01*
X67776360Y-141043550D01*
X67749124Y-140979208D01*
X67760997Y-140910354D01*
X67808211Y-140858851D01*
X67825600Y-140850908D01*
X67825340Y-140850281D01*
X67829831Y-140848420D01*
X68005143Y-140759095D01*
X68164321Y-140643444D01*
X68303444Y-140504321D01*
X68419097Y-140345141D01*
X68509515Y-140167685D01*
X68557489Y-140116888D01*
X68625310Y-140100093D01*
X68691445Y-140122630D01*
G37*
G04 #@! TD.AperFunction*
G04 #@! TA.AperFunction,Conductor*
G36*
X67550000Y-141778120D02*
G01*
X67542993Y-141774075D01*
X67415826Y-141740000D01*
X67284174Y-141740000D01*
X67157007Y-141774075D01*
X67150000Y-141778120D01*
X67150000Y-140151879D01*
X67157007Y-140155925D01*
X67284174Y-140190000D01*
X67415826Y-140190000D01*
X67542993Y-140155925D01*
X67550000Y-140151879D01*
X67550000Y-141778120D01*
G37*
G04 #@! TD.AperFunction*
G04 #@! TA.AperFunction,Conductor*
G36*
X70090000Y-141778120D02*
G01*
X70082993Y-141774075D01*
X69955826Y-141740000D01*
X69824174Y-141740000D01*
X69697007Y-141774075D01*
X69690000Y-141778120D01*
X69690000Y-140151879D01*
X69697007Y-140155925D01*
X69824174Y-140190000D01*
X69955826Y-140190000D01*
X70082993Y-140155925D01*
X70090000Y-140151879D01*
X70090000Y-141778120D01*
G37*
G04 #@! TD.AperFunction*
G04 #@! TA.AperFunction,Conductor*
G36*
X69424075Y-139497007D02*
G01*
X69390000Y-139624174D01*
X69390000Y-139755826D01*
X69424075Y-139882993D01*
X69428120Y-139890000D01*
X67811880Y-139890000D01*
X67815925Y-139882993D01*
X67850000Y-139755826D01*
X67850000Y-139624174D01*
X67815925Y-139497007D01*
X67811880Y-139490000D01*
X69428120Y-139490000D01*
X69424075Y-139497007D01*
G37*
G04 #@! TD.AperFunction*
G04 #@! TA.AperFunction,Conductor*
G36*
X211664075Y-142047007D02*
G01*
X211630000Y-142174174D01*
X211630000Y-142305826D01*
X211664075Y-142432993D01*
X211668120Y-142440000D01*
X210051880Y-142440000D01*
X210055925Y-142432993D01*
X210090000Y-142305826D01*
X210090000Y-142174174D01*
X210055925Y-142047007D01*
X210051880Y-142040000D01*
X211668120Y-142040000D01*
X211664075Y-142047007D01*
G37*
G04 #@! TD.AperFunction*
G04 #@! TA.AperFunction,Conductor*
G36*
X210931445Y-140122630D02*
G01*
X210970485Y-140167685D01*
X211060902Y-140345141D01*
X211176555Y-140504321D01*
X211315678Y-140643444D01*
X211474856Y-140759095D01*
X211650168Y-140848420D01*
X211654660Y-140850281D01*
X211653787Y-140852386D01*
X211703688Y-140886509D01*
X211730884Y-140950868D01*
X211718968Y-141019714D01*
X211671723Y-141071189D01*
X211654403Y-141079098D01*
X211654660Y-141079719D01*
X211650168Y-141081579D01*
X211474856Y-141170904D01*
X211315678Y-141286555D01*
X211176555Y-141425678D01*
X211060904Y-141584856D01*
X210970485Y-141762315D01*
X210922511Y-141813111D01*
X210854690Y-141829906D01*
X210788555Y-141807369D01*
X210749515Y-141762315D01*
X210659095Y-141584856D01*
X210543444Y-141425678D01*
X210404321Y-141286555D01*
X210245143Y-141170904D01*
X210069831Y-141081579D01*
X210065340Y-141079719D01*
X210066217Y-141077599D01*
X210016360Y-141043550D01*
X209989124Y-140979208D01*
X210000997Y-140910354D01*
X210048211Y-140858851D01*
X210065600Y-140850908D01*
X210065340Y-140850281D01*
X210069831Y-140848420D01*
X210245143Y-140759095D01*
X210404321Y-140643444D01*
X210543444Y-140504321D01*
X210659097Y-140345141D01*
X210749515Y-140167685D01*
X210797489Y-140116888D01*
X210865310Y-140100093D01*
X210931445Y-140122630D01*
G37*
G04 #@! TD.AperFunction*
G04 #@! TA.AperFunction,Conductor*
G36*
X209790000Y-141778120D02*
G01*
X209782993Y-141774075D01*
X209655826Y-141740000D01*
X209524174Y-141740000D01*
X209397007Y-141774075D01*
X209390000Y-141778120D01*
X209390000Y-140151879D01*
X209397007Y-140155925D01*
X209524174Y-140190000D01*
X209655826Y-140190000D01*
X209782993Y-140155925D01*
X209790000Y-140151879D01*
X209790000Y-141778120D01*
G37*
G04 #@! TD.AperFunction*
G04 #@! TA.AperFunction,Conductor*
G36*
X212330000Y-141778120D02*
G01*
X212322993Y-141774075D01*
X212195826Y-141740000D01*
X212064174Y-141740000D01*
X211937007Y-141774075D01*
X211930000Y-141778120D01*
X211930000Y-140151879D01*
X211937007Y-140155925D01*
X212064174Y-140190000D01*
X212195826Y-140190000D01*
X212322993Y-140155925D01*
X212330000Y-140151879D01*
X212330000Y-141778120D01*
G37*
G04 #@! TD.AperFunction*
G04 #@! TA.AperFunction,Conductor*
G36*
X211664075Y-139497007D02*
G01*
X211630000Y-139624174D01*
X211630000Y-139755826D01*
X211664075Y-139882993D01*
X211668120Y-139890000D01*
X210051880Y-139890000D01*
X210055925Y-139882993D01*
X210090000Y-139755826D01*
X210090000Y-139624174D01*
X210055925Y-139497007D01*
X210051880Y-139490000D01*
X211668120Y-139490000D01*
X211664075Y-139497007D01*
G37*
G04 #@! TD.AperFunction*
G04 #@! TA.AperFunction,Conductor*
G36*
X88192539Y-24270185D02*
G01*
X88238294Y-24322989D01*
X88249500Y-24374500D01*
X88249500Y-26315891D01*
X88283608Y-26443187D01*
X88316554Y-26500250D01*
X88349500Y-26557314D01*
X88442686Y-26650500D01*
X88556814Y-26716392D01*
X88684108Y-26750500D01*
X88684110Y-26750500D01*
X100815890Y-26750500D01*
X100815892Y-26750500D01*
X100943186Y-26716392D01*
X101057314Y-26650500D01*
X101150500Y-26557314D01*
X101216392Y-26443186D01*
X101250500Y-26315892D01*
X101250500Y-24374500D01*
X101270185Y-24307461D01*
X101322989Y-24261706D01*
X101374500Y-24250500D01*
X178125500Y-24250500D01*
X178192539Y-24270185D01*
X178238294Y-24322989D01*
X178249500Y-24374500D01*
X178249500Y-26315891D01*
X178283608Y-26443187D01*
X178316554Y-26500250D01*
X178349500Y-26557314D01*
X178442686Y-26650500D01*
X178556814Y-26716392D01*
X178684108Y-26750500D01*
X178684110Y-26750500D01*
X190815890Y-26750500D01*
X190815892Y-26750500D01*
X190943186Y-26716392D01*
X191057314Y-26650500D01*
X191150500Y-26557314D01*
X191216392Y-26443186D01*
X191250500Y-26315892D01*
X191250500Y-24374500D01*
X191270185Y-24307461D01*
X191322989Y-24261706D01*
X191374500Y-24250500D01*
X226125500Y-24250500D01*
X226192539Y-24270185D01*
X226238294Y-24322989D01*
X226249500Y-24374500D01*
X226249500Y-138125500D01*
X226229815Y-138192539D01*
X226177011Y-138238294D01*
X226125500Y-138249500D01*
X216984108Y-138249500D01*
X216856812Y-138283608D01*
X216742686Y-138349500D01*
X216742683Y-138349502D01*
X216649502Y-138442683D01*
X216649500Y-138442686D01*
X216583608Y-138556812D01*
X216549500Y-138684108D01*
X216549500Y-144176000D01*
X216529815Y-144243039D01*
X216477011Y-144288794D01*
X216425500Y-144300000D01*
X205069500Y-144300000D01*
X205002461Y-144280315D01*
X204956706Y-144227511D01*
X204945500Y-144176000D01*
X204945500Y-142443984D01*
X204945500Y-142443982D01*
X204916503Y-142335763D01*
X204860485Y-142238737D01*
X204781263Y-142159515D01*
X203691819Y-141070070D01*
X203677115Y-141043142D01*
X203660523Y-141017324D01*
X203659631Y-141011123D01*
X203658334Y-141008747D01*
X203655500Y-140982389D01*
X203655500Y-140744630D01*
X203675185Y-140677591D01*
X203727989Y-140631836D01*
X203797147Y-140621892D01*
X203852384Y-140644311D01*
X203907006Y-140683996D01*
X203940959Y-140701296D01*
X204068360Y-140766211D01*
X204068363Y-140766212D01*
X204097396Y-140775645D01*
X204240591Y-140822171D01*
X204323429Y-140835291D01*
X204419449Y-140850500D01*
X204419454Y-140850500D01*
X204600551Y-140850500D01*
X204687259Y-140836765D01*
X204779409Y-140822171D01*
X204951639Y-140766211D01*
X205112994Y-140683996D01*
X205259501Y-140577553D01*
X205387553Y-140449501D01*
X205493996Y-140302994D01*
X205576211Y-140141639D01*
X205632171Y-139969409D01*
X205653691Y-139833538D01*
X205660500Y-139790550D01*
X205660500Y-139609447D01*
X205650524Y-139546460D01*
X205641580Y-139490000D01*
X208356095Y-139490000D01*
X209128120Y-139490000D01*
X209124075Y-139497007D01*
X209090000Y-139624174D01*
X209090000Y-139755826D01*
X209124075Y-139882993D01*
X209128120Y-139890000D01*
X208356095Y-139890000D01*
X208370778Y-139982705D01*
X208431581Y-140169835D01*
X208520904Y-140345143D01*
X208636555Y-140504321D01*
X208775678Y-140643444D01*
X208934856Y-140759095D01*
X209110168Y-140848420D01*
X209114660Y-140850281D01*
X209113787Y-140852386D01*
X209163688Y-140886509D01*
X209190884Y-140950868D01*
X209178968Y-141019714D01*
X209131723Y-141071189D01*
X209114403Y-141079098D01*
X209114660Y-141079719D01*
X209110168Y-141081579D01*
X208934856Y-141170904D01*
X208775678Y-141286555D01*
X208636555Y-141425678D01*
X208520904Y-141584856D01*
X208431581Y-141760164D01*
X208370778Y-141947294D01*
X208356095Y-142040000D01*
X209128120Y-142040000D01*
X209124075Y-142047007D01*
X209090000Y-142174174D01*
X209090000Y-142305826D01*
X209124075Y-142432993D01*
X209128120Y-142440000D01*
X208356095Y-142440000D01*
X208370778Y-142532705D01*
X208431581Y-142719835D01*
X208520904Y-142895143D01*
X208636555Y-143054321D01*
X208775678Y-143193444D01*
X208934856Y-143309095D01*
X209110162Y-143398418D01*
X209297286Y-143459219D01*
X209297292Y-143459221D01*
X209390000Y-143473904D01*
X209390000Y-142701879D01*
X209397007Y-142705925D01*
X209524174Y-142740000D01*
X209655826Y-142740000D01*
X209782993Y-142705925D01*
X209790000Y-142701879D01*
X209790000Y-143473904D01*
X209882707Y-143459221D01*
X209882713Y-143459219D01*
X210069837Y-143398418D01*
X210245143Y-143309095D01*
X210404321Y-143193444D01*
X210543444Y-143054321D01*
X210659097Y-142895141D01*
X210749515Y-142717685D01*
X210797489Y-142666888D01*
X210865310Y-142650093D01*
X210931445Y-142672630D01*
X210970485Y-142717685D01*
X211060902Y-142895141D01*
X211176555Y-143054321D01*
X211315678Y-143193444D01*
X211474856Y-143309095D01*
X211650162Y-143398418D01*
X211837286Y-143459219D01*
X211837292Y-143459221D01*
X211930000Y-143473904D01*
X211930000Y-142701879D01*
X211937007Y-142705925D01*
X212064174Y-142740000D01*
X212195826Y-142740000D01*
X212322993Y-142705925D01*
X212330000Y-142701879D01*
X212330000Y-143473903D01*
X212422707Y-143459221D01*
X212422713Y-143459219D01*
X212609837Y-143398418D01*
X212785143Y-143309095D01*
X212944321Y-143193444D01*
X213083444Y-143054321D01*
X213199095Y-142895143D01*
X213288418Y-142719835D01*
X213349221Y-142532705D01*
X213363905Y-142440000D01*
X212591880Y-142440000D01*
X212595925Y-142432993D01*
X212630000Y-142305826D01*
X212630000Y-142174174D01*
X212595925Y-142047007D01*
X212591880Y-142040000D01*
X213363905Y-142040000D01*
X213349221Y-141947294D01*
X213288418Y-141760164D01*
X213199095Y-141584856D01*
X213083444Y-141425678D01*
X212944321Y-141286555D01*
X212785143Y-141170904D01*
X212609831Y-141081579D01*
X212605340Y-141079719D01*
X212606217Y-141077599D01*
X212556360Y-141043550D01*
X212529124Y-140979208D01*
X212540997Y-140910354D01*
X212588211Y-140858851D01*
X212605600Y-140850908D01*
X212605340Y-140850281D01*
X212609831Y-140848420D01*
X212785143Y-140759095D01*
X212944321Y-140643444D01*
X213083444Y-140504321D01*
X213199095Y-140345143D01*
X213288418Y-140169835D01*
X213349221Y-139982705D01*
X213363905Y-139890000D01*
X212591880Y-139890000D01*
X212595925Y-139882993D01*
X212630000Y-139755826D01*
X212630000Y-139624174D01*
X212595925Y-139497007D01*
X212591880Y-139490000D01*
X213363905Y-139490000D01*
X213349221Y-139397294D01*
X213288418Y-139210164D01*
X213199095Y-139034856D01*
X213083444Y-138875678D01*
X212944321Y-138736555D01*
X212785143Y-138620904D01*
X212609835Y-138531581D01*
X212422705Y-138470778D01*
X212330000Y-138456094D01*
X212330000Y-139228120D01*
X212322993Y-139224075D01*
X212195826Y-139190000D01*
X212064174Y-139190000D01*
X211937007Y-139224075D01*
X211930000Y-139228120D01*
X211930000Y-138456094D01*
X211837294Y-138470778D01*
X211650164Y-138531581D01*
X211474856Y-138620904D01*
X211315678Y-138736555D01*
X211176555Y-138875678D01*
X211060904Y-139034856D01*
X210970485Y-139212315D01*
X210922511Y-139263111D01*
X210854690Y-139279906D01*
X210788555Y-139257369D01*
X210749515Y-139212315D01*
X210659095Y-139034856D01*
X210543444Y-138875678D01*
X210404321Y-138736555D01*
X210245143Y-138620904D01*
X210069835Y-138531581D01*
X209882705Y-138470778D01*
X209790000Y-138456094D01*
X209790000Y-139228120D01*
X209782993Y-139224075D01*
X209655826Y-139190000D01*
X209524174Y-139190000D01*
X209397007Y-139224075D01*
X209390000Y-139228120D01*
X209390000Y-138456094D01*
X209297294Y-138470778D01*
X209110164Y-138531581D01*
X208934856Y-138620904D01*
X208775678Y-138736555D01*
X208636555Y-138875678D01*
X208520904Y-139034856D01*
X208431581Y-139210164D01*
X208370778Y-139397294D01*
X208356095Y-139490000D01*
X205641580Y-139490000D01*
X205638729Y-139471999D01*
X205632171Y-139430591D01*
X205586459Y-139289901D01*
X205576212Y-139258363D01*
X205576211Y-139258360D01*
X205541379Y-139190000D01*
X205493996Y-139097006D01*
X205448842Y-139034856D01*
X205387558Y-138950505D01*
X205387554Y-138950500D01*
X205259499Y-138822445D01*
X205259494Y-138822441D01*
X205112997Y-138716006D01*
X205112996Y-138716005D01*
X205112994Y-138716004D01*
X205050395Y-138684108D01*
X204951639Y-138633788D01*
X204951636Y-138633787D01*
X204779410Y-138577829D01*
X204600551Y-138549500D01*
X204600546Y-138549500D01*
X204419454Y-138549500D01*
X204419449Y-138549500D01*
X204240589Y-138577829D01*
X204068363Y-138633787D01*
X204068360Y-138633788D01*
X203907004Y-138716005D01*
X203891449Y-138727306D01*
X203825642Y-138750784D01*
X203757589Y-138734957D01*
X203708895Y-138684850D01*
X203695021Y-138616372D01*
X203720372Y-138551263D01*
X203730538Y-138539652D01*
X204001836Y-138266235D01*
X204063027Y-138232513D01*
X204128174Y-138235645D01*
X204240589Y-138272171D01*
X204419449Y-138300500D01*
X204419454Y-138300500D01*
X204600551Y-138300500D01*
X204687259Y-138286765D01*
X204779409Y-138272171D01*
X204951639Y-138216211D01*
X205112994Y-138133996D01*
X205259501Y-138027553D01*
X205387553Y-137899501D01*
X205493996Y-137752994D01*
X205576211Y-137591639D01*
X205632171Y-137419409D01*
X205646765Y-137327259D01*
X205660500Y-137240551D01*
X205660500Y-137059448D01*
X205644019Y-136955397D01*
X205632171Y-136880591D01*
X205576211Y-136708361D01*
X205576211Y-136708360D01*
X205547740Y-136652484D01*
X205493996Y-136547006D01*
X205480396Y-136528287D01*
X205387558Y-136400505D01*
X205387554Y-136400500D01*
X205259499Y-136272445D01*
X205259494Y-136272441D01*
X205112997Y-136166006D01*
X205112996Y-136166005D01*
X205112994Y-136166004D01*
X205061300Y-136139664D01*
X204951639Y-136083788D01*
X204951636Y-136083787D01*
X204779410Y-136027829D01*
X204600551Y-135999500D01*
X204600546Y-135999500D01*
X204419454Y-135999500D01*
X204419449Y-135999500D01*
X204240589Y-136027829D01*
X204068363Y-136083787D01*
X204068360Y-136083788D01*
X203907002Y-136166006D01*
X203760505Y-136272441D01*
X203760500Y-136272445D01*
X203632445Y-136400500D01*
X203632441Y-136400505D01*
X203526006Y-136547002D01*
X203443788Y-136708360D01*
X203443787Y-136708363D01*
X203387829Y-136880589D01*
X203362473Y-137040678D01*
X203332544Y-137103813D01*
X203273232Y-137140744D01*
X203203369Y-137139746D01*
X203145137Y-137101136D01*
X203117527Y-137040678D01*
X203103740Y-136953639D01*
X203092171Y-136880591D01*
X203036211Y-136708361D01*
X203036211Y-136708360D01*
X203007740Y-136652484D01*
X202953996Y-136547006D01*
X202940396Y-136528287D01*
X202847558Y-136400505D01*
X202847554Y-136400500D01*
X202719499Y-136272445D01*
X202719494Y-136272441D01*
X202572997Y-136166006D01*
X202572996Y-136166005D01*
X202572994Y-136166004D01*
X202521300Y-136139664D01*
X202411639Y-136083788D01*
X202411636Y-136083787D01*
X202239410Y-136027829D01*
X202060551Y-135999500D01*
X202060546Y-135999500D01*
X201879454Y-135999500D01*
X201879449Y-135999500D01*
X201700589Y-136027829D01*
X201528363Y-136083787D01*
X201528360Y-136083788D01*
X201367002Y-136166006D01*
X201220505Y-136272441D01*
X201220500Y-136272445D01*
X201092445Y-136400500D01*
X201092441Y-136400505D01*
X200986006Y-136547002D01*
X200903788Y-136708360D01*
X200903787Y-136708363D01*
X200847829Y-136880589D01*
X200822473Y-137040678D01*
X200792544Y-137103813D01*
X200733232Y-137140744D01*
X200663369Y-137139746D01*
X200605137Y-137101136D01*
X200577527Y-137040678D01*
X200563740Y-136953639D01*
X200552171Y-136880591D01*
X200496211Y-136708361D01*
X200496211Y-136708360D01*
X200467740Y-136652484D01*
X200413996Y-136547006D01*
X200400396Y-136528287D01*
X200307558Y-136400505D01*
X200307554Y-136400500D01*
X200179499Y-136272445D01*
X200179494Y-136272441D01*
X200032997Y-136166006D01*
X200032996Y-136166005D01*
X200032994Y-136166004D01*
X199981300Y-136139664D01*
X199871639Y-136083788D01*
X199871636Y-136083787D01*
X199699410Y-136027829D01*
X199520551Y-135999500D01*
X199520546Y-135999500D01*
X199339454Y-135999500D01*
X199339449Y-135999500D01*
X199160589Y-136027829D01*
X198988363Y-136083787D01*
X198988360Y-136083788D01*
X198827002Y-136166006D01*
X198680505Y-136272441D01*
X198680500Y-136272445D01*
X198552445Y-136400500D01*
X198552441Y-136400505D01*
X198446006Y-136547002D01*
X198363788Y-136708360D01*
X198363787Y-136708363D01*
X198307829Y-136880589D01*
X198282473Y-137040678D01*
X198252544Y-137103813D01*
X198193232Y-137140744D01*
X198123369Y-137139746D01*
X198065137Y-137101136D01*
X198037527Y-137040678D01*
X198023740Y-136953639D01*
X198012171Y-136880591D01*
X197956211Y-136708361D01*
X197956211Y-136708360D01*
X197927740Y-136652484D01*
X197873996Y-136547006D01*
X197860396Y-136528287D01*
X197767558Y-136400505D01*
X197767554Y-136400500D01*
X197639499Y-136272445D01*
X197639494Y-136272441D01*
X197492997Y-136166006D01*
X197492996Y-136166005D01*
X197492994Y-136166004D01*
X197441300Y-136139664D01*
X197331639Y-136083788D01*
X197331636Y-136083787D01*
X197159410Y-136027829D01*
X196980551Y-135999500D01*
X196980546Y-135999500D01*
X196799454Y-135999500D01*
X196799449Y-135999500D01*
X196620589Y-136027829D01*
X196448363Y-136083787D01*
X196448360Y-136083788D01*
X196287002Y-136166006D01*
X196140505Y-136272441D01*
X196140500Y-136272445D01*
X196012445Y-136400500D01*
X196012441Y-136400505D01*
X195906006Y-136547002D01*
X195823788Y-136708360D01*
X195823787Y-136708363D01*
X195767829Y-136880589D01*
X195742473Y-137040678D01*
X195712544Y-137103813D01*
X195653232Y-137140744D01*
X195583369Y-137139746D01*
X195525137Y-137101136D01*
X195497527Y-137040678D01*
X195483740Y-136953639D01*
X195472171Y-136880591D01*
X195416211Y-136708361D01*
X195416211Y-136708360D01*
X195387740Y-136652484D01*
X195333996Y-136547006D01*
X195320396Y-136528287D01*
X195227558Y-136400505D01*
X195227554Y-136400500D01*
X195099499Y-136272445D01*
X195099494Y-136272441D01*
X194952997Y-136166006D01*
X194952996Y-136166005D01*
X194952994Y-136166004D01*
X194901300Y-136139664D01*
X194791639Y-136083788D01*
X194791636Y-136083787D01*
X194619410Y-136027829D01*
X194440551Y-135999500D01*
X194440546Y-135999500D01*
X194259454Y-135999500D01*
X194259449Y-135999500D01*
X194080589Y-136027829D01*
X193908363Y-136083787D01*
X193908360Y-136083788D01*
X193747002Y-136166006D01*
X193600505Y-136272441D01*
X193600500Y-136272445D01*
X193472445Y-136400500D01*
X193472441Y-136400505D01*
X193366006Y-136547002D01*
X193283788Y-136708360D01*
X193283787Y-136708363D01*
X193227829Y-136880589D01*
X193202473Y-137040678D01*
X193172544Y-137103813D01*
X193113232Y-137140744D01*
X193043369Y-137139746D01*
X192985137Y-137101136D01*
X192957527Y-137040678D01*
X192943740Y-136953639D01*
X192932171Y-136880591D01*
X192876211Y-136708361D01*
X192876211Y-136708360D01*
X192847740Y-136652484D01*
X192793996Y-136547006D01*
X192780396Y-136528287D01*
X192687558Y-136400505D01*
X192687554Y-136400500D01*
X192559499Y-136272445D01*
X192559494Y-136272441D01*
X192412997Y-136166006D01*
X192412996Y-136166005D01*
X192412994Y-136166004D01*
X192361300Y-136139664D01*
X192251639Y-136083788D01*
X192251636Y-136083787D01*
X192079410Y-136027829D01*
X191900551Y-135999500D01*
X191900546Y-135999500D01*
X191719454Y-135999500D01*
X191719449Y-135999500D01*
X191540589Y-136027829D01*
X191368363Y-136083787D01*
X191368360Y-136083788D01*
X191207002Y-136166006D01*
X191060505Y-136272441D01*
X191060500Y-136272445D01*
X190932445Y-136400500D01*
X190932441Y-136400505D01*
X190826006Y-136547002D01*
X190743788Y-136708360D01*
X190743787Y-136708363D01*
X190687829Y-136880589D01*
X190662473Y-137040678D01*
X190632544Y-137103813D01*
X190573232Y-137140744D01*
X190503369Y-137139746D01*
X190445137Y-137101136D01*
X190417527Y-137040678D01*
X190403740Y-136953639D01*
X190392171Y-136880591D01*
X190336211Y-136708361D01*
X190336211Y-136708360D01*
X190307740Y-136652484D01*
X190253996Y-136547006D01*
X190240396Y-136528287D01*
X190147558Y-136400505D01*
X190147554Y-136400500D01*
X190019499Y-136272445D01*
X190019494Y-136272441D01*
X189872997Y-136166006D01*
X189872996Y-136166005D01*
X189872994Y-136166004D01*
X189821300Y-136139664D01*
X189711639Y-136083788D01*
X189711636Y-136083787D01*
X189539410Y-136027829D01*
X189360551Y-135999500D01*
X189360546Y-135999500D01*
X189179454Y-135999500D01*
X189179449Y-135999500D01*
X189000589Y-136027829D01*
X188828363Y-136083787D01*
X188828360Y-136083788D01*
X188667002Y-136166006D01*
X188520505Y-136272441D01*
X188520500Y-136272445D01*
X188392445Y-136400500D01*
X188392441Y-136400505D01*
X188286006Y-136547002D01*
X188203788Y-136708360D01*
X188203787Y-136708363D01*
X188147829Y-136880589D01*
X188122473Y-137040678D01*
X188092544Y-137103813D01*
X188033232Y-137140744D01*
X187963369Y-137139746D01*
X187905137Y-137101136D01*
X187877527Y-137040678D01*
X187863740Y-136953639D01*
X187852171Y-136880591D01*
X187796211Y-136708361D01*
X187796211Y-136708360D01*
X187767740Y-136652484D01*
X187713996Y-136547006D01*
X187700396Y-136528287D01*
X187607558Y-136400505D01*
X187607554Y-136400500D01*
X187479499Y-136272445D01*
X187479494Y-136272441D01*
X187332997Y-136166006D01*
X187332996Y-136166005D01*
X187332994Y-136166004D01*
X187281300Y-136139664D01*
X187171639Y-136083788D01*
X187171636Y-136083787D01*
X186999410Y-136027829D01*
X186820551Y-135999500D01*
X186820546Y-135999500D01*
X186639454Y-135999500D01*
X186639449Y-135999500D01*
X186460589Y-136027829D01*
X186288363Y-136083787D01*
X186288360Y-136083788D01*
X186127002Y-136166006D01*
X185980505Y-136272441D01*
X185980500Y-136272445D01*
X185852445Y-136400500D01*
X185852441Y-136400505D01*
X185746006Y-136547002D01*
X185663788Y-136708360D01*
X185663787Y-136708363D01*
X185607829Y-136880589D01*
X185582473Y-137040678D01*
X185552544Y-137103813D01*
X185493232Y-137140744D01*
X185423369Y-137139746D01*
X185365137Y-137101136D01*
X185337527Y-137040678D01*
X185323740Y-136953639D01*
X185312171Y-136880591D01*
X185256211Y-136708361D01*
X185256211Y-136708360D01*
X185227740Y-136652484D01*
X185173996Y-136547006D01*
X185160396Y-136528287D01*
X185067558Y-136400505D01*
X185067554Y-136400500D01*
X184939499Y-136272445D01*
X184939494Y-136272441D01*
X184792997Y-136166006D01*
X184792996Y-136166005D01*
X184792994Y-136166004D01*
X184741300Y-136139664D01*
X184631639Y-136083788D01*
X184631636Y-136083787D01*
X184459410Y-136027829D01*
X184280551Y-135999500D01*
X184280546Y-135999500D01*
X184099454Y-135999500D01*
X184099449Y-135999500D01*
X183920589Y-136027829D01*
X183748363Y-136083787D01*
X183748360Y-136083788D01*
X183587002Y-136166006D01*
X183440505Y-136272441D01*
X183440500Y-136272445D01*
X183312445Y-136400500D01*
X183312441Y-136400505D01*
X183206006Y-136547002D01*
X183123788Y-136708360D01*
X183123787Y-136708363D01*
X183067829Y-136880589D01*
X183042473Y-137040678D01*
X183012544Y-137103813D01*
X182953232Y-137140744D01*
X182883369Y-137139746D01*
X182825137Y-137101136D01*
X182797527Y-137040678D01*
X182783740Y-136953639D01*
X182772171Y-136880591D01*
X182716211Y-136708361D01*
X182716211Y-136708360D01*
X182687740Y-136652484D01*
X182633996Y-136547006D01*
X182620396Y-136528287D01*
X182527558Y-136400505D01*
X182527554Y-136400500D01*
X182399499Y-136272445D01*
X182399494Y-136272441D01*
X182252997Y-136166006D01*
X182252996Y-136166005D01*
X182252994Y-136166004D01*
X182201300Y-136139664D01*
X182091639Y-136083788D01*
X182091636Y-136083787D01*
X181919410Y-136027829D01*
X181740551Y-135999500D01*
X181740546Y-135999500D01*
X181559454Y-135999500D01*
X181559449Y-135999500D01*
X181380589Y-136027829D01*
X181208363Y-136083787D01*
X181208360Y-136083788D01*
X181047002Y-136166006D01*
X180900505Y-136272441D01*
X180900500Y-136272445D01*
X180772445Y-136400500D01*
X180772441Y-136400505D01*
X180666006Y-136547002D01*
X180583788Y-136708360D01*
X180583787Y-136708363D01*
X180527829Y-136880589D01*
X180502473Y-137040678D01*
X180472544Y-137103813D01*
X180413232Y-137140744D01*
X180343369Y-137139746D01*
X180285137Y-137101136D01*
X180257527Y-137040678D01*
X180243740Y-136953639D01*
X180232171Y-136880591D01*
X180176211Y-136708361D01*
X180176211Y-136708360D01*
X180147740Y-136652484D01*
X180093996Y-136547006D01*
X180080396Y-136528287D01*
X179987558Y-136400505D01*
X179987554Y-136400500D01*
X179859499Y-136272445D01*
X179859494Y-136272441D01*
X179712997Y-136166006D01*
X179712996Y-136166005D01*
X179712994Y-136166004D01*
X179661300Y-136139664D01*
X179551639Y-136083788D01*
X179551636Y-136083787D01*
X179379410Y-136027829D01*
X179200551Y-135999500D01*
X179200546Y-135999500D01*
X179019454Y-135999500D01*
X179019449Y-135999500D01*
X178840589Y-136027829D01*
X178668363Y-136083787D01*
X178668360Y-136083788D01*
X178507002Y-136166006D01*
X178360505Y-136272441D01*
X178360500Y-136272445D01*
X178232445Y-136400500D01*
X178232441Y-136400505D01*
X178126006Y-136547002D01*
X178043788Y-136708360D01*
X178043787Y-136708363D01*
X177987829Y-136880589D01*
X177962473Y-137040678D01*
X177932544Y-137103813D01*
X177873232Y-137140744D01*
X177803369Y-137139746D01*
X177745137Y-137101136D01*
X177717527Y-137040678D01*
X177703740Y-136953639D01*
X177692171Y-136880591D01*
X177636211Y-136708361D01*
X177636211Y-136708360D01*
X177607740Y-136652484D01*
X177553996Y-136547006D01*
X177540396Y-136528287D01*
X177447558Y-136400505D01*
X177447554Y-136400500D01*
X177319499Y-136272445D01*
X177319494Y-136272441D01*
X177172997Y-136166006D01*
X177172996Y-136166005D01*
X177172994Y-136166004D01*
X177121300Y-136139664D01*
X177011639Y-136083788D01*
X177011636Y-136083787D01*
X176839410Y-136027829D01*
X176660551Y-135999500D01*
X176660546Y-135999500D01*
X176479454Y-135999500D01*
X176479449Y-135999500D01*
X176300589Y-136027829D01*
X176128363Y-136083787D01*
X176128360Y-136083788D01*
X175967002Y-136166006D01*
X175820505Y-136272441D01*
X175820500Y-136272445D01*
X175692445Y-136400500D01*
X175692441Y-136400505D01*
X175586006Y-136547002D01*
X175503788Y-136708360D01*
X175503787Y-136708363D01*
X175447829Y-136880589D01*
X175422473Y-137040678D01*
X175392544Y-137103813D01*
X175333232Y-137140744D01*
X175263369Y-137139746D01*
X175205137Y-137101136D01*
X175177527Y-137040678D01*
X175163740Y-136953639D01*
X175152171Y-136880591D01*
X175096211Y-136708361D01*
X175096211Y-136708360D01*
X175067740Y-136652484D01*
X175013996Y-136547006D01*
X175000396Y-136528287D01*
X174907558Y-136400505D01*
X174907554Y-136400500D01*
X174779499Y-136272445D01*
X174779494Y-136272441D01*
X174632997Y-136166006D01*
X174632996Y-136166005D01*
X174632994Y-136166004D01*
X174581300Y-136139664D01*
X174471639Y-136083788D01*
X174471636Y-136083787D01*
X174299410Y-136027829D01*
X174120551Y-135999500D01*
X174120546Y-135999500D01*
X173939454Y-135999500D01*
X173939449Y-135999500D01*
X173760589Y-136027829D01*
X173588363Y-136083787D01*
X173588360Y-136083788D01*
X173427002Y-136166006D01*
X173280505Y-136272441D01*
X173280500Y-136272445D01*
X173152445Y-136400500D01*
X173152441Y-136400505D01*
X173046006Y-136547002D01*
X172963788Y-136708360D01*
X172963787Y-136708363D01*
X172907829Y-136880589D01*
X172882473Y-137040678D01*
X172852544Y-137103813D01*
X172793232Y-137140744D01*
X172723369Y-137139746D01*
X172665137Y-137101136D01*
X172637527Y-137040678D01*
X172623740Y-136953639D01*
X172612171Y-136880591D01*
X172556211Y-136708361D01*
X172556211Y-136708360D01*
X172527740Y-136652484D01*
X172473996Y-136547006D01*
X172460396Y-136528287D01*
X172367558Y-136400505D01*
X172367554Y-136400500D01*
X172239499Y-136272445D01*
X172239494Y-136272441D01*
X172092997Y-136166006D01*
X172092996Y-136166005D01*
X172092994Y-136166004D01*
X172041300Y-136139664D01*
X171931639Y-136083788D01*
X171931636Y-136083787D01*
X171759410Y-136027829D01*
X171580551Y-135999500D01*
X171580546Y-135999500D01*
X171399454Y-135999500D01*
X171399449Y-135999500D01*
X171220589Y-136027829D01*
X171048363Y-136083787D01*
X171048360Y-136083788D01*
X170887002Y-136166006D01*
X170740505Y-136272441D01*
X170740500Y-136272445D01*
X170612445Y-136400500D01*
X170612441Y-136400505D01*
X170506006Y-136547002D01*
X170423788Y-136708360D01*
X170423787Y-136708363D01*
X170367829Y-136880589D01*
X170342473Y-137040678D01*
X170312544Y-137103813D01*
X170253232Y-137140744D01*
X170183369Y-137139746D01*
X170125137Y-137101136D01*
X170097527Y-137040678D01*
X170083740Y-136953639D01*
X170072171Y-136880591D01*
X170016211Y-136708361D01*
X170016211Y-136708360D01*
X169987740Y-136652484D01*
X169933996Y-136547006D01*
X169920396Y-136528287D01*
X169827558Y-136400505D01*
X169827554Y-136400500D01*
X169699499Y-136272445D01*
X169699494Y-136272441D01*
X169552997Y-136166006D01*
X169552996Y-136166005D01*
X169552994Y-136166004D01*
X169501300Y-136139664D01*
X169391639Y-136083788D01*
X169391636Y-136083787D01*
X169219410Y-136027829D01*
X169040551Y-135999500D01*
X169040546Y-135999500D01*
X168859454Y-135999500D01*
X168859449Y-135999500D01*
X168680589Y-136027829D01*
X168508363Y-136083787D01*
X168508360Y-136083788D01*
X168347002Y-136166006D01*
X168200505Y-136272441D01*
X168200500Y-136272445D01*
X168072445Y-136400500D01*
X168072441Y-136400505D01*
X167966006Y-136547002D01*
X167883788Y-136708360D01*
X167883787Y-136708363D01*
X167827829Y-136880589D01*
X167802473Y-137040678D01*
X167772544Y-137103813D01*
X167713232Y-137140744D01*
X167643369Y-137139746D01*
X167585137Y-137101136D01*
X167557527Y-137040678D01*
X167543740Y-136953639D01*
X167532171Y-136880591D01*
X167476211Y-136708361D01*
X167476211Y-136708360D01*
X167447740Y-136652484D01*
X167393996Y-136547006D01*
X167380396Y-136528287D01*
X167287558Y-136400505D01*
X167287554Y-136400500D01*
X167159499Y-136272445D01*
X167159494Y-136272441D01*
X167012997Y-136166006D01*
X167012996Y-136166005D01*
X167012994Y-136166004D01*
X166961300Y-136139664D01*
X166851639Y-136083788D01*
X166851636Y-136083787D01*
X166679410Y-136027829D01*
X166500551Y-135999500D01*
X166500546Y-135999500D01*
X166319454Y-135999500D01*
X166319449Y-135999500D01*
X166140589Y-136027829D01*
X165968363Y-136083787D01*
X165968360Y-136083788D01*
X165807002Y-136166006D01*
X165660505Y-136272441D01*
X165660500Y-136272445D01*
X165532445Y-136400500D01*
X165532441Y-136400505D01*
X165426006Y-136547002D01*
X165343788Y-136708360D01*
X165343787Y-136708363D01*
X165287829Y-136880589D01*
X165262473Y-137040678D01*
X165232544Y-137103813D01*
X165173232Y-137140744D01*
X165103369Y-137139746D01*
X165045137Y-137101136D01*
X165017527Y-137040678D01*
X165003740Y-136953639D01*
X164992171Y-136880591D01*
X164936211Y-136708361D01*
X164936211Y-136708360D01*
X164907740Y-136652484D01*
X164853996Y-136547006D01*
X164840396Y-136528287D01*
X164747558Y-136400505D01*
X164747554Y-136400500D01*
X164619499Y-136272445D01*
X164619494Y-136272441D01*
X164472997Y-136166006D01*
X164472996Y-136166005D01*
X164472994Y-136166004D01*
X164421300Y-136139664D01*
X164311639Y-136083788D01*
X164311636Y-136083787D01*
X164139410Y-136027829D01*
X163960551Y-135999500D01*
X163960546Y-135999500D01*
X163779454Y-135999500D01*
X163779449Y-135999500D01*
X163600589Y-136027829D01*
X163428363Y-136083787D01*
X163428360Y-136083788D01*
X163267002Y-136166006D01*
X163120505Y-136272441D01*
X163120500Y-136272445D01*
X162992445Y-136400500D01*
X162992441Y-136400505D01*
X162886006Y-136547002D01*
X162803788Y-136708360D01*
X162803787Y-136708363D01*
X162747829Y-136880589D01*
X162722473Y-137040678D01*
X162692544Y-137103813D01*
X162633232Y-137140744D01*
X162563369Y-137139746D01*
X162505137Y-137101136D01*
X162477527Y-137040678D01*
X162463740Y-136953639D01*
X162452171Y-136880591D01*
X162396211Y-136708361D01*
X162396211Y-136708360D01*
X162367740Y-136652484D01*
X162313996Y-136547006D01*
X162300396Y-136528287D01*
X162207558Y-136400505D01*
X162207554Y-136400500D01*
X162079499Y-136272445D01*
X162079494Y-136272441D01*
X161932997Y-136166006D01*
X161932996Y-136166005D01*
X161932994Y-136166004D01*
X161881300Y-136139664D01*
X161771639Y-136083788D01*
X161771636Y-136083787D01*
X161599410Y-136027829D01*
X161420551Y-135999500D01*
X161420546Y-135999500D01*
X161239454Y-135999500D01*
X161239449Y-135999500D01*
X161060589Y-136027829D01*
X160888363Y-136083787D01*
X160888360Y-136083788D01*
X160727002Y-136166006D01*
X160580505Y-136272441D01*
X160580500Y-136272445D01*
X160452445Y-136400500D01*
X160452441Y-136400505D01*
X160346006Y-136547002D01*
X160263788Y-136708360D01*
X160263787Y-136708363D01*
X160207829Y-136880589D01*
X160182473Y-137040678D01*
X160152544Y-137103813D01*
X160093232Y-137140744D01*
X160023369Y-137139746D01*
X159965137Y-137101136D01*
X159937527Y-137040678D01*
X159923740Y-136953639D01*
X159912171Y-136880591D01*
X159856211Y-136708361D01*
X159856211Y-136708360D01*
X159827740Y-136652484D01*
X159773996Y-136547006D01*
X159760396Y-136528287D01*
X159667558Y-136400505D01*
X159667554Y-136400500D01*
X159539499Y-136272445D01*
X159539494Y-136272441D01*
X159392997Y-136166006D01*
X159392996Y-136166005D01*
X159392994Y-136166004D01*
X159341300Y-136139664D01*
X159231639Y-136083788D01*
X159231636Y-136083787D01*
X159059410Y-136027829D01*
X158880551Y-135999500D01*
X158880546Y-135999500D01*
X158699454Y-135999500D01*
X158699449Y-135999500D01*
X158520589Y-136027829D01*
X158348363Y-136083787D01*
X158348360Y-136083788D01*
X158187002Y-136166006D01*
X158040505Y-136272441D01*
X158040500Y-136272445D01*
X157912445Y-136400500D01*
X157912441Y-136400505D01*
X157806006Y-136547002D01*
X157723788Y-136708360D01*
X157723787Y-136708363D01*
X157667829Y-136880589D01*
X157642473Y-137040678D01*
X157612544Y-137103813D01*
X157553232Y-137140744D01*
X157483369Y-137139746D01*
X157425137Y-137101136D01*
X157397527Y-137040678D01*
X157383740Y-136953639D01*
X157372171Y-136880591D01*
X157316211Y-136708361D01*
X157316211Y-136708360D01*
X157287740Y-136652484D01*
X157233996Y-136547006D01*
X157220396Y-136528287D01*
X157127558Y-136400505D01*
X157127554Y-136400500D01*
X156999499Y-136272445D01*
X156999494Y-136272441D01*
X156852997Y-136166006D01*
X156852996Y-136166005D01*
X156852994Y-136166004D01*
X156801300Y-136139664D01*
X156691639Y-136083788D01*
X156691636Y-136083787D01*
X156519410Y-136027829D01*
X156340551Y-135999500D01*
X156340546Y-135999500D01*
X156159454Y-135999500D01*
X156159449Y-135999500D01*
X155980589Y-136027829D01*
X155808363Y-136083787D01*
X155808360Y-136083788D01*
X155647002Y-136166006D01*
X155500505Y-136272441D01*
X155500500Y-136272445D01*
X155372445Y-136400500D01*
X155372441Y-136400505D01*
X155266006Y-136547002D01*
X155183788Y-136708360D01*
X155183787Y-136708363D01*
X155127829Y-136880589D01*
X155102473Y-137040678D01*
X155072544Y-137103813D01*
X155013232Y-137140744D01*
X154943369Y-137139746D01*
X154885137Y-137101136D01*
X154857527Y-137040678D01*
X154843740Y-136953639D01*
X154832171Y-136880591D01*
X154776211Y-136708361D01*
X154776211Y-136708360D01*
X154747740Y-136652484D01*
X154693996Y-136547006D01*
X154680396Y-136528287D01*
X154587558Y-136400505D01*
X154587554Y-136400500D01*
X154459499Y-136272445D01*
X154459494Y-136272441D01*
X154312997Y-136166006D01*
X154312996Y-136166005D01*
X154312994Y-136166004D01*
X154261300Y-136139664D01*
X154151639Y-136083788D01*
X154151636Y-136083787D01*
X153979410Y-136027829D01*
X153800551Y-135999500D01*
X153800546Y-135999500D01*
X153619454Y-135999500D01*
X153619449Y-135999500D01*
X153440589Y-136027829D01*
X153268363Y-136083787D01*
X153268360Y-136083788D01*
X153107002Y-136166006D01*
X152960505Y-136272441D01*
X152960500Y-136272445D01*
X152832445Y-136400500D01*
X152832441Y-136400505D01*
X152726006Y-136547002D01*
X152643788Y-136708360D01*
X152643787Y-136708363D01*
X152587829Y-136880589D01*
X152562473Y-137040678D01*
X152532544Y-137103813D01*
X152473232Y-137140744D01*
X152403369Y-137139746D01*
X152345137Y-137101136D01*
X152317527Y-137040678D01*
X152303740Y-136953639D01*
X152292171Y-136880591D01*
X152236211Y-136708361D01*
X152236211Y-136708360D01*
X152207740Y-136652484D01*
X152153996Y-136547006D01*
X152140396Y-136528287D01*
X152047558Y-136400505D01*
X152047554Y-136400500D01*
X151919499Y-136272445D01*
X151919494Y-136272441D01*
X151772997Y-136166006D01*
X151772996Y-136166005D01*
X151772994Y-136166004D01*
X151721300Y-136139664D01*
X151611639Y-136083788D01*
X151611636Y-136083787D01*
X151439410Y-136027829D01*
X151260551Y-135999500D01*
X151260546Y-135999500D01*
X151079454Y-135999500D01*
X151079449Y-135999500D01*
X150900589Y-136027829D01*
X150728363Y-136083787D01*
X150728360Y-136083788D01*
X150567002Y-136166006D01*
X150420505Y-136272441D01*
X150420500Y-136272445D01*
X150292445Y-136400500D01*
X150292441Y-136400505D01*
X150186006Y-136547002D01*
X150103788Y-136708360D01*
X150103787Y-136708363D01*
X150047829Y-136880589D01*
X150022473Y-137040678D01*
X149992544Y-137103813D01*
X149933232Y-137140744D01*
X149863369Y-137139746D01*
X149805137Y-137101136D01*
X149777527Y-137040678D01*
X149763740Y-136953639D01*
X149752171Y-136880591D01*
X149696211Y-136708361D01*
X149696211Y-136708360D01*
X149667740Y-136652484D01*
X149613996Y-136547006D01*
X149600396Y-136528287D01*
X149507558Y-136400505D01*
X149507554Y-136400500D01*
X149379499Y-136272445D01*
X149379494Y-136272441D01*
X149232997Y-136166006D01*
X149232996Y-136166005D01*
X149232994Y-136166004D01*
X149181300Y-136139664D01*
X149071639Y-136083788D01*
X149071636Y-136083787D01*
X148899410Y-136027829D01*
X148720551Y-135999500D01*
X148720546Y-135999500D01*
X148539454Y-135999500D01*
X148539449Y-135999500D01*
X148360589Y-136027829D01*
X148188363Y-136083787D01*
X148188360Y-136083788D01*
X148027002Y-136166006D01*
X147880505Y-136272441D01*
X147880500Y-136272445D01*
X147752445Y-136400500D01*
X147752441Y-136400505D01*
X147646006Y-136547002D01*
X147563788Y-136708360D01*
X147563787Y-136708363D01*
X147507829Y-136880589D01*
X147482473Y-137040678D01*
X147452544Y-137103813D01*
X147393232Y-137140744D01*
X147323369Y-137139746D01*
X147265137Y-137101136D01*
X147237527Y-137040678D01*
X147223740Y-136953639D01*
X147212171Y-136880591D01*
X147156211Y-136708361D01*
X147156211Y-136708360D01*
X147127740Y-136652484D01*
X147073996Y-136547006D01*
X147060396Y-136528287D01*
X146967558Y-136400505D01*
X146967554Y-136400500D01*
X146839499Y-136272445D01*
X146839494Y-136272441D01*
X146692997Y-136166006D01*
X146692996Y-136166005D01*
X146692994Y-136166004D01*
X146641300Y-136139664D01*
X146531639Y-136083788D01*
X146531636Y-136083787D01*
X146359410Y-136027829D01*
X146180551Y-135999500D01*
X146180546Y-135999500D01*
X145999454Y-135999500D01*
X145999449Y-135999500D01*
X145820589Y-136027829D01*
X145648363Y-136083787D01*
X145648360Y-136083788D01*
X145487002Y-136166006D01*
X145340505Y-136272441D01*
X145340500Y-136272445D01*
X145212445Y-136400500D01*
X145212441Y-136400505D01*
X145106006Y-136547002D01*
X145023788Y-136708360D01*
X145023787Y-136708363D01*
X144967829Y-136880589D01*
X144939500Y-137059448D01*
X144939500Y-137240551D01*
X144967829Y-137419412D01*
X145007458Y-137541381D01*
X145009453Y-137611222D01*
X144977549Y-137667037D01*
X144508706Y-138139541D01*
X144508707Y-138139542D01*
X144508460Y-138139790D01*
X144469515Y-138178737D01*
X144469093Y-138179466D01*
X144468501Y-138180064D01*
X144468486Y-138180089D01*
X144468486Y-138180090D01*
X144441212Y-138227755D01*
X144441211Y-138227754D01*
X144440893Y-138228309D01*
X144413497Y-138275763D01*
X144413279Y-138276575D01*
X144412860Y-138277308D01*
X144398843Y-138330445D01*
X144398720Y-138330907D01*
X144384498Y-138383984D01*
X144384413Y-138384632D01*
X144384352Y-138385100D01*
X144384284Y-138385612D01*
X144384498Y-138440619D01*
X144384500Y-138440885D01*
X144384500Y-141153980D01*
X144384500Y-141266017D01*
X144413497Y-141374236D01*
X144469515Y-141471262D01*
X144469517Y-141471264D01*
X145638181Y-142639928D01*
X145671666Y-142701251D01*
X145674500Y-142727609D01*
X145674500Y-144176000D01*
X145654815Y-144243039D01*
X145602011Y-144288794D01*
X145550500Y-144300000D01*
X140933110Y-144300000D01*
X140866071Y-144280315D01*
X140845429Y-144263681D01*
X140191819Y-143610071D01*
X140177115Y-143583143D01*
X140160523Y-143557325D01*
X140159631Y-143551124D01*
X140158334Y-143548748D01*
X140155500Y-143522390D01*
X140155500Y-143284630D01*
X140175185Y-143217591D01*
X140227989Y-143171836D01*
X140297147Y-143161892D01*
X140352384Y-143184311D01*
X140407006Y-143223996D01*
X140486145Y-143264319D01*
X140568360Y-143306211D01*
X140568363Y-143306212D01*
X140654476Y-143334191D01*
X140740591Y-143362171D01*
X140823429Y-143375291D01*
X140919449Y-143390500D01*
X140919454Y-143390500D01*
X141100551Y-143390500D01*
X141187259Y-143376765D01*
X141279409Y-143362171D01*
X141451639Y-143306211D01*
X141612994Y-143223996D01*
X141759501Y-143117553D01*
X141887553Y-142989501D01*
X141993996Y-142842994D01*
X142076211Y-142681639D01*
X142132171Y-142509409D01*
X142159674Y-142335763D01*
X142160500Y-142330551D01*
X142160500Y-142149448D01*
X142143164Y-142040000D01*
X142132171Y-141970591D01*
X142089708Y-141839901D01*
X142076212Y-141798363D01*
X142076211Y-141798360D01*
X142046474Y-141740000D01*
X141993996Y-141637006D01*
X141956107Y-141584856D01*
X141887558Y-141490505D01*
X141887554Y-141490500D01*
X141759499Y-141362445D01*
X141759494Y-141362441D01*
X141612997Y-141256006D01*
X141612996Y-141256005D01*
X141612994Y-141256004D01*
X141551851Y-141224850D01*
X141451639Y-141173788D01*
X141451636Y-141173787D01*
X141279410Y-141117829D01*
X141100551Y-141089500D01*
X141100546Y-141089500D01*
X140919454Y-141089500D01*
X140919449Y-141089500D01*
X140740589Y-141117829D01*
X140568363Y-141173787D01*
X140568360Y-141173788D01*
X140407004Y-141256005D01*
X140391449Y-141267306D01*
X140325642Y-141290784D01*
X140257589Y-141274957D01*
X140208895Y-141224850D01*
X140195021Y-141156372D01*
X140220372Y-141091263D01*
X140230538Y-141079652D01*
X140501836Y-140806235D01*
X140563027Y-140772513D01*
X140628174Y-140775645D01*
X140740589Y-140812171D01*
X140919449Y-140840500D01*
X140919454Y-140840500D01*
X141100551Y-140840500D01*
X141187259Y-140826765D01*
X141279409Y-140812171D01*
X141451639Y-140756211D01*
X141612994Y-140673996D01*
X141759501Y-140567553D01*
X141887553Y-140439501D01*
X141993996Y-140292994D01*
X142076211Y-140131639D01*
X142132171Y-139959409D01*
X142152107Y-139833538D01*
X142160500Y-139780551D01*
X142160500Y-139599448D01*
X142143164Y-139490000D01*
X142132171Y-139420591D01*
X142089708Y-139289901D01*
X142076212Y-139248363D01*
X142076211Y-139248360D01*
X142026348Y-139150500D01*
X141993996Y-139087006D01*
X141894823Y-138950505D01*
X141887558Y-138940505D01*
X141887554Y-138940500D01*
X141759499Y-138812445D01*
X141759494Y-138812441D01*
X141612997Y-138706006D01*
X141612996Y-138706005D01*
X141612994Y-138706004D01*
X141561300Y-138679664D01*
X141451639Y-138623788D01*
X141451636Y-138623787D01*
X141279410Y-138567829D01*
X141100551Y-138539500D01*
X141100546Y-138539500D01*
X140919454Y-138539500D01*
X140919449Y-138539500D01*
X140740589Y-138567829D01*
X140568363Y-138623787D01*
X140568360Y-138623788D01*
X140407002Y-138706006D01*
X140260505Y-138812441D01*
X140260500Y-138812445D01*
X140132445Y-138940500D01*
X140132441Y-138940505D01*
X140026006Y-139087002D01*
X139943788Y-139248360D01*
X139943787Y-139248363D01*
X139887829Y-139420589D01*
X139862473Y-139580678D01*
X139832544Y-139643813D01*
X139773232Y-139680744D01*
X139703369Y-139679746D01*
X139645137Y-139641136D01*
X139617527Y-139580678D01*
X139603164Y-139490000D01*
X139592171Y-139420591D01*
X139549708Y-139289901D01*
X139536212Y-139248363D01*
X139536211Y-139248360D01*
X139486348Y-139150500D01*
X139453996Y-139087006D01*
X139354823Y-138950505D01*
X139347558Y-138940505D01*
X139347554Y-138940500D01*
X139219499Y-138812445D01*
X139219494Y-138812441D01*
X139072997Y-138706006D01*
X139072996Y-138706005D01*
X139072994Y-138706004D01*
X139021300Y-138679664D01*
X138911639Y-138623788D01*
X138911636Y-138623787D01*
X138739410Y-138567829D01*
X138560551Y-138539500D01*
X138560546Y-138539500D01*
X138379454Y-138539500D01*
X138379449Y-138539500D01*
X138200589Y-138567829D01*
X138028363Y-138623787D01*
X138028360Y-138623788D01*
X137867002Y-138706006D01*
X137720505Y-138812441D01*
X137720500Y-138812445D01*
X137592445Y-138940500D01*
X137592441Y-138940505D01*
X137486006Y-139087002D01*
X137403788Y-139248360D01*
X137403787Y-139248363D01*
X137347829Y-139420589D01*
X137319500Y-139599448D01*
X137319500Y-139780551D01*
X137347829Y-139959412D01*
X137387458Y-140081381D01*
X137389453Y-140151222D01*
X137357549Y-140207037D01*
X136888706Y-140679541D01*
X136888707Y-140679542D01*
X136888460Y-140679790D01*
X136849515Y-140718737D01*
X136849093Y-140719466D01*
X136848501Y-140720064D01*
X136848486Y-140720089D01*
X136848486Y-140720090D01*
X136821212Y-140767755D01*
X136821211Y-140767754D01*
X136820893Y-140768309D01*
X136793497Y-140815763D01*
X136793279Y-140816575D01*
X136792860Y-140817308D01*
X136778843Y-140870445D01*
X136778720Y-140870907D01*
X136764498Y-140923984D01*
X136764413Y-140924632D01*
X136764352Y-140925100D01*
X136764284Y-140925612D01*
X136764383Y-140950868D01*
X136764500Y-140980885D01*
X136764500Y-143693982D01*
X136764500Y-143806018D01*
X136793497Y-143914237D01*
X136849515Y-144011263D01*
X136849517Y-144011265D01*
X136926571Y-144088319D01*
X136960056Y-144149642D01*
X136955072Y-144219334D01*
X136913200Y-144275267D01*
X136847736Y-144299684D01*
X136838890Y-144300000D01*
X133949500Y-144300000D01*
X133882461Y-144280315D01*
X133836706Y-144227511D01*
X133825500Y-144176000D01*
X133825500Y-142443984D01*
X133825500Y-142443982D01*
X133796503Y-142335763D01*
X133740485Y-142238737D01*
X133661263Y-142159515D01*
X132571819Y-141070070D01*
X132557115Y-141043142D01*
X132540523Y-141017324D01*
X132539631Y-141011123D01*
X132538334Y-141008747D01*
X132535500Y-140982389D01*
X132535500Y-140744630D01*
X132555185Y-140677591D01*
X132607989Y-140631836D01*
X132677147Y-140621892D01*
X132732384Y-140644311D01*
X132787006Y-140683996D01*
X132820959Y-140701296D01*
X132948360Y-140766211D01*
X132948363Y-140766212D01*
X132977396Y-140775645D01*
X133120591Y-140822171D01*
X133203429Y-140835291D01*
X133299449Y-140850500D01*
X133299454Y-140850500D01*
X133480551Y-140850500D01*
X133567259Y-140836765D01*
X133659409Y-140822171D01*
X133831639Y-140766211D01*
X133992994Y-140683996D01*
X134139501Y-140577553D01*
X134267553Y-140449501D01*
X134373996Y-140302994D01*
X134456211Y-140141639D01*
X134512171Y-139969409D01*
X134533691Y-139833538D01*
X134540500Y-139790551D01*
X134540500Y-139609448D01*
X134521580Y-139490000D01*
X134512171Y-139430591D01*
X134466459Y-139289901D01*
X134456212Y-139258363D01*
X134456211Y-139258360D01*
X134421379Y-139190000D01*
X134373996Y-139097006D01*
X134328842Y-139034856D01*
X134267558Y-138950505D01*
X134267554Y-138950500D01*
X134139499Y-138822445D01*
X134139494Y-138822441D01*
X133992997Y-138716006D01*
X133992996Y-138716005D01*
X133992994Y-138716004D01*
X133930395Y-138684108D01*
X133831639Y-138633788D01*
X133831636Y-138633787D01*
X133659410Y-138577829D01*
X133480551Y-138549500D01*
X133480546Y-138549500D01*
X133299454Y-138549500D01*
X133299449Y-138549500D01*
X133120589Y-138577829D01*
X132948363Y-138633787D01*
X132948360Y-138633788D01*
X132787005Y-138716004D01*
X132771446Y-138727308D01*
X132705638Y-138750784D01*
X132637585Y-138734956D01*
X132588893Y-138684848D01*
X132575020Y-138616369D01*
X132600373Y-138551261D01*
X132610531Y-138539659D01*
X132881834Y-138266236D01*
X132943027Y-138232513D01*
X133008174Y-138235645D01*
X133120589Y-138272171D01*
X133299449Y-138300500D01*
X133299454Y-138300500D01*
X133480551Y-138300500D01*
X133567259Y-138286765D01*
X133659409Y-138272171D01*
X133831639Y-138216211D01*
X133992994Y-138133996D01*
X134139501Y-138027553D01*
X134267553Y-137899501D01*
X134373996Y-137752994D01*
X134456211Y-137591639D01*
X134512171Y-137419409D01*
X134526765Y-137327259D01*
X134540500Y-137240551D01*
X134540500Y-137059448D01*
X134524019Y-136955397D01*
X134512171Y-136880591D01*
X134456211Y-136708361D01*
X134456211Y-136708360D01*
X134427740Y-136652484D01*
X134373996Y-136547006D01*
X134360396Y-136528287D01*
X134267558Y-136400505D01*
X134267554Y-136400500D01*
X134139499Y-136272445D01*
X134139494Y-136272441D01*
X133992997Y-136166006D01*
X133992996Y-136166005D01*
X133992994Y-136166004D01*
X133941300Y-136139664D01*
X133831639Y-136083788D01*
X133831636Y-136083787D01*
X133659410Y-136027829D01*
X133480551Y-135999500D01*
X133480546Y-135999500D01*
X133299454Y-135999500D01*
X133299449Y-135999500D01*
X133120589Y-136027829D01*
X132948363Y-136083787D01*
X132948360Y-136083788D01*
X132787002Y-136166006D01*
X132640505Y-136272441D01*
X132640500Y-136272445D01*
X132512445Y-136400500D01*
X132512441Y-136400505D01*
X132406006Y-136547002D01*
X132323788Y-136708360D01*
X132323787Y-136708363D01*
X132267829Y-136880589D01*
X132242473Y-137040678D01*
X132212544Y-137103813D01*
X132153232Y-137140744D01*
X132083369Y-137139746D01*
X132025137Y-137101136D01*
X131997527Y-137040678D01*
X131983740Y-136953639D01*
X131972171Y-136880591D01*
X131916211Y-136708361D01*
X131916211Y-136708360D01*
X131887740Y-136652484D01*
X131833996Y-136547006D01*
X131820396Y-136528287D01*
X131727558Y-136400505D01*
X131727554Y-136400500D01*
X131599499Y-136272445D01*
X131599494Y-136272441D01*
X131452997Y-136166006D01*
X131452996Y-136166005D01*
X131452994Y-136166004D01*
X131401300Y-136139664D01*
X131291639Y-136083788D01*
X131291636Y-136083787D01*
X131119410Y-136027829D01*
X130940551Y-135999500D01*
X130940546Y-135999500D01*
X130759454Y-135999500D01*
X130759449Y-135999500D01*
X130580589Y-136027829D01*
X130408363Y-136083787D01*
X130408360Y-136083788D01*
X130247002Y-136166006D01*
X130100505Y-136272441D01*
X130100500Y-136272445D01*
X129972445Y-136400500D01*
X129972441Y-136400505D01*
X129866006Y-136547002D01*
X129783788Y-136708360D01*
X129783787Y-136708363D01*
X129727829Y-136880589D01*
X129702473Y-137040678D01*
X129672544Y-137103813D01*
X129613232Y-137140744D01*
X129543369Y-137139746D01*
X129485137Y-137101136D01*
X129457527Y-137040678D01*
X129443740Y-136953639D01*
X129432171Y-136880591D01*
X129376211Y-136708361D01*
X129376211Y-136708360D01*
X129347740Y-136652484D01*
X129293996Y-136547006D01*
X129280396Y-136528287D01*
X129187558Y-136400505D01*
X129187554Y-136400500D01*
X129059499Y-136272445D01*
X129059494Y-136272441D01*
X128912997Y-136166006D01*
X128912996Y-136166005D01*
X128912994Y-136166004D01*
X128861300Y-136139664D01*
X128751639Y-136083788D01*
X128751636Y-136083787D01*
X128579410Y-136027829D01*
X128400551Y-135999500D01*
X128400546Y-135999500D01*
X128219454Y-135999500D01*
X128219449Y-135999500D01*
X128040589Y-136027829D01*
X127868363Y-136083787D01*
X127868360Y-136083788D01*
X127707002Y-136166006D01*
X127560505Y-136272441D01*
X127560500Y-136272445D01*
X127432445Y-136400500D01*
X127432441Y-136400505D01*
X127326006Y-136547002D01*
X127243788Y-136708360D01*
X127243787Y-136708363D01*
X127187829Y-136880589D01*
X127162473Y-137040678D01*
X127132544Y-137103813D01*
X127073232Y-137140744D01*
X127003369Y-137139746D01*
X126945137Y-137101136D01*
X126917527Y-137040678D01*
X126903740Y-136953639D01*
X126892171Y-136880591D01*
X126836211Y-136708361D01*
X126836211Y-136708360D01*
X126807740Y-136652484D01*
X126753996Y-136547006D01*
X126740396Y-136528287D01*
X126647558Y-136400505D01*
X126647554Y-136400500D01*
X126519499Y-136272445D01*
X126519494Y-136272441D01*
X126372997Y-136166006D01*
X126372996Y-136166005D01*
X126372994Y-136166004D01*
X126321300Y-136139664D01*
X126211639Y-136083788D01*
X126211636Y-136083787D01*
X126039410Y-136027829D01*
X125860551Y-135999500D01*
X125860546Y-135999500D01*
X125679454Y-135999500D01*
X125679449Y-135999500D01*
X125500589Y-136027829D01*
X125328363Y-136083787D01*
X125328360Y-136083788D01*
X125167002Y-136166006D01*
X125020505Y-136272441D01*
X125020500Y-136272445D01*
X124892445Y-136400500D01*
X124892441Y-136400505D01*
X124786006Y-136547002D01*
X124703788Y-136708360D01*
X124703787Y-136708363D01*
X124647829Y-136880589D01*
X124622473Y-137040678D01*
X124592544Y-137103813D01*
X124533232Y-137140744D01*
X124463369Y-137139746D01*
X124405137Y-137101136D01*
X124377527Y-137040678D01*
X124363740Y-136953639D01*
X124352171Y-136880591D01*
X124296211Y-136708361D01*
X124296211Y-136708360D01*
X124267740Y-136652484D01*
X124213996Y-136547006D01*
X124200396Y-136528287D01*
X124107558Y-136400505D01*
X124107554Y-136400500D01*
X123979499Y-136272445D01*
X123979494Y-136272441D01*
X123832997Y-136166006D01*
X123832996Y-136166005D01*
X123832994Y-136166004D01*
X123781300Y-136139664D01*
X123671639Y-136083788D01*
X123671636Y-136083787D01*
X123499410Y-136027829D01*
X123320551Y-135999500D01*
X123320546Y-135999500D01*
X123139454Y-135999500D01*
X123139449Y-135999500D01*
X122960589Y-136027829D01*
X122788363Y-136083787D01*
X122788360Y-136083788D01*
X122627002Y-136166006D01*
X122480505Y-136272441D01*
X122480500Y-136272445D01*
X122352445Y-136400500D01*
X122352441Y-136400505D01*
X122246006Y-136547002D01*
X122163788Y-136708360D01*
X122163787Y-136708363D01*
X122107829Y-136880589D01*
X122082473Y-137040678D01*
X122052544Y-137103813D01*
X121993232Y-137140744D01*
X121923369Y-137139746D01*
X121865137Y-137101136D01*
X121837527Y-137040678D01*
X121823740Y-136953639D01*
X121812171Y-136880591D01*
X121756211Y-136708361D01*
X121756211Y-136708360D01*
X121727740Y-136652484D01*
X121673996Y-136547006D01*
X121660396Y-136528287D01*
X121567558Y-136400505D01*
X121567554Y-136400500D01*
X121439499Y-136272445D01*
X121439494Y-136272441D01*
X121292997Y-136166006D01*
X121292996Y-136166005D01*
X121292994Y-136166004D01*
X121241300Y-136139664D01*
X121131639Y-136083788D01*
X121131636Y-136083787D01*
X120959410Y-136027829D01*
X120780551Y-135999500D01*
X120780546Y-135999500D01*
X120599454Y-135999500D01*
X120599449Y-135999500D01*
X120420589Y-136027829D01*
X120248363Y-136083787D01*
X120248360Y-136083788D01*
X120087002Y-136166006D01*
X119940505Y-136272441D01*
X119940500Y-136272445D01*
X119812445Y-136400500D01*
X119812441Y-136400505D01*
X119706006Y-136547002D01*
X119623788Y-136708360D01*
X119623787Y-136708363D01*
X119567829Y-136880589D01*
X119542473Y-137040678D01*
X119512544Y-137103813D01*
X119453232Y-137140744D01*
X119383369Y-137139746D01*
X119325137Y-137101136D01*
X119297527Y-137040678D01*
X119283740Y-136953639D01*
X119272171Y-136880591D01*
X119216211Y-136708361D01*
X119216211Y-136708360D01*
X119187740Y-136652484D01*
X119133996Y-136547006D01*
X119120396Y-136528287D01*
X119027558Y-136400505D01*
X119027554Y-136400500D01*
X118899499Y-136272445D01*
X118899494Y-136272441D01*
X118752997Y-136166006D01*
X118752996Y-136166005D01*
X118752994Y-136166004D01*
X118701300Y-136139664D01*
X118591639Y-136083788D01*
X118591636Y-136083787D01*
X118419410Y-136027829D01*
X118240551Y-135999500D01*
X118240546Y-135999500D01*
X118059454Y-135999500D01*
X118059449Y-135999500D01*
X117880589Y-136027829D01*
X117708363Y-136083787D01*
X117708360Y-136083788D01*
X117547002Y-136166006D01*
X117400505Y-136272441D01*
X117400500Y-136272445D01*
X117272445Y-136400500D01*
X117272441Y-136400505D01*
X117166006Y-136547002D01*
X117083788Y-136708360D01*
X117083787Y-136708363D01*
X117027829Y-136880589D01*
X117002473Y-137040678D01*
X116972544Y-137103813D01*
X116913232Y-137140744D01*
X116843369Y-137139746D01*
X116785137Y-137101136D01*
X116757527Y-137040678D01*
X116743740Y-136953639D01*
X116732171Y-136880591D01*
X116676211Y-136708361D01*
X116676211Y-136708360D01*
X116647740Y-136652484D01*
X116593996Y-136547006D01*
X116580396Y-136528287D01*
X116487558Y-136400505D01*
X116487554Y-136400500D01*
X116359499Y-136272445D01*
X116359494Y-136272441D01*
X116212997Y-136166006D01*
X116212996Y-136166005D01*
X116212994Y-136166004D01*
X116161300Y-136139664D01*
X116051639Y-136083788D01*
X116051636Y-136083787D01*
X115879410Y-136027829D01*
X115700551Y-135999500D01*
X115700546Y-135999500D01*
X115519454Y-135999500D01*
X115519449Y-135999500D01*
X115340589Y-136027829D01*
X115168363Y-136083787D01*
X115168360Y-136083788D01*
X115007002Y-136166006D01*
X114860505Y-136272441D01*
X114860500Y-136272445D01*
X114732445Y-136400500D01*
X114732441Y-136400505D01*
X114626006Y-136547002D01*
X114543788Y-136708360D01*
X114543787Y-136708363D01*
X114487829Y-136880589D01*
X114462473Y-137040678D01*
X114432544Y-137103813D01*
X114373232Y-137140744D01*
X114303369Y-137139746D01*
X114245137Y-137101136D01*
X114217527Y-137040678D01*
X114203740Y-136953639D01*
X114192171Y-136880591D01*
X114136211Y-136708361D01*
X114136211Y-136708360D01*
X114107740Y-136652484D01*
X114053996Y-136547006D01*
X114040396Y-136528287D01*
X113947558Y-136400505D01*
X113947554Y-136400500D01*
X113819499Y-136272445D01*
X113819494Y-136272441D01*
X113672997Y-136166006D01*
X113672996Y-136166005D01*
X113672994Y-136166004D01*
X113621300Y-136139664D01*
X113511639Y-136083788D01*
X113511636Y-136083787D01*
X113339410Y-136027829D01*
X113160551Y-135999500D01*
X113160546Y-135999500D01*
X112979454Y-135999500D01*
X112979449Y-135999500D01*
X112800589Y-136027829D01*
X112628363Y-136083787D01*
X112628360Y-136083788D01*
X112467002Y-136166006D01*
X112320505Y-136272441D01*
X112320500Y-136272445D01*
X112192445Y-136400500D01*
X112192441Y-136400505D01*
X112086006Y-136547002D01*
X112003788Y-136708360D01*
X112003787Y-136708363D01*
X111947829Y-136880589D01*
X111922473Y-137040678D01*
X111892544Y-137103813D01*
X111833232Y-137140744D01*
X111763369Y-137139746D01*
X111705137Y-137101136D01*
X111677527Y-137040678D01*
X111663740Y-136953639D01*
X111652171Y-136880591D01*
X111596211Y-136708361D01*
X111596211Y-136708360D01*
X111567740Y-136652484D01*
X111513996Y-136547006D01*
X111500396Y-136528287D01*
X111407558Y-136400505D01*
X111407554Y-136400500D01*
X111279499Y-136272445D01*
X111279494Y-136272441D01*
X111132997Y-136166006D01*
X111132996Y-136166005D01*
X111132994Y-136166004D01*
X111081300Y-136139664D01*
X110971639Y-136083788D01*
X110971636Y-136083787D01*
X110799410Y-136027829D01*
X110620551Y-135999500D01*
X110620546Y-135999500D01*
X110439454Y-135999500D01*
X110439449Y-135999500D01*
X110260589Y-136027829D01*
X110088363Y-136083787D01*
X110088360Y-136083788D01*
X109927002Y-136166006D01*
X109780505Y-136272441D01*
X109780500Y-136272445D01*
X109652445Y-136400500D01*
X109652441Y-136400505D01*
X109546006Y-136547002D01*
X109463788Y-136708360D01*
X109463787Y-136708363D01*
X109407829Y-136880589D01*
X109382473Y-137040678D01*
X109352544Y-137103813D01*
X109293232Y-137140744D01*
X109223369Y-137139746D01*
X109165137Y-137101136D01*
X109137527Y-137040678D01*
X109123740Y-136953639D01*
X109112171Y-136880591D01*
X109056211Y-136708361D01*
X109056211Y-136708360D01*
X109027740Y-136652484D01*
X108973996Y-136547006D01*
X108960396Y-136528287D01*
X108867558Y-136400505D01*
X108867554Y-136400500D01*
X108739499Y-136272445D01*
X108739494Y-136272441D01*
X108592997Y-136166006D01*
X108592996Y-136166005D01*
X108592994Y-136166004D01*
X108541300Y-136139664D01*
X108431639Y-136083788D01*
X108431636Y-136083787D01*
X108259410Y-136027829D01*
X108080551Y-135999500D01*
X108080546Y-135999500D01*
X107899454Y-135999500D01*
X107899449Y-135999500D01*
X107720589Y-136027829D01*
X107548363Y-136083787D01*
X107548360Y-136083788D01*
X107387002Y-136166006D01*
X107240505Y-136272441D01*
X107240500Y-136272445D01*
X107112445Y-136400500D01*
X107112441Y-136400505D01*
X107006006Y-136547002D01*
X106923788Y-136708360D01*
X106923787Y-136708363D01*
X106867829Y-136880589D01*
X106842473Y-137040678D01*
X106812544Y-137103813D01*
X106753232Y-137140744D01*
X106683369Y-137139746D01*
X106625137Y-137101136D01*
X106597527Y-137040678D01*
X106583740Y-136953639D01*
X106572171Y-136880591D01*
X106516211Y-136708361D01*
X106516211Y-136708360D01*
X106487740Y-136652484D01*
X106433996Y-136547006D01*
X106420396Y-136528287D01*
X106327558Y-136400505D01*
X106327554Y-136400500D01*
X106199499Y-136272445D01*
X106199494Y-136272441D01*
X106052997Y-136166006D01*
X106052996Y-136166005D01*
X106052994Y-136166004D01*
X106001300Y-136139664D01*
X105891639Y-136083788D01*
X105891636Y-136083787D01*
X105719410Y-136027829D01*
X105540551Y-135999500D01*
X105540546Y-135999500D01*
X105359454Y-135999500D01*
X105359449Y-135999500D01*
X105180589Y-136027829D01*
X105008363Y-136083787D01*
X105008360Y-136083788D01*
X104847002Y-136166006D01*
X104700505Y-136272441D01*
X104700500Y-136272445D01*
X104572445Y-136400500D01*
X104572441Y-136400505D01*
X104466006Y-136547002D01*
X104383788Y-136708360D01*
X104383787Y-136708363D01*
X104327829Y-136880589D01*
X104302473Y-137040678D01*
X104272544Y-137103813D01*
X104213232Y-137140744D01*
X104143369Y-137139746D01*
X104085137Y-137101136D01*
X104057527Y-137040678D01*
X104043740Y-136953639D01*
X104032171Y-136880591D01*
X103976211Y-136708361D01*
X103976211Y-136708360D01*
X103947740Y-136652484D01*
X103893996Y-136547006D01*
X103880396Y-136528287D01*
X103787558Y-136400505D01*
X103787554Y-136400500D01*
X103659499Y-136272445D01*
X103659494Y-136272441D01*
X103512997Y-136166006D01*
X103512996Y-136166005D01*
X103512994Y-136166004D01*
X103461300Y-136139664D01*
X103351639Y-136083788D01*
X103351636Y-136083787D01*
X103179410Y-136027829D01*
X103000551Y-135999500D01*
X103000546Y-135999500D01*
X102819454Y-135999500D01*
X102819449Y-135999500D01*
X102640589Y-136027829D01*
X102468363Y-136083787D01*
X102468360Y-136083788D01*
X102307002Y-136166006D01*
X102160505Y-136272441D01*
X102160500Y-136272445D01*
X102032445Y-136400500D01*
X102032441Y-136400505D01*
X101926006Y-136547002D01*
X101843788Y-136708360D01*
X101843787Y-136708363D01*
X101787829Y-136880589D01*
X101762473Y-137040678D01*
X101732544Y-137103813D01*
X101673232Y-137140744D01*
X101603369Y-137139746D01*
X101545137Y-137101136D01*
X101517527Y-137040678D01*
X101503740Y-136953639D01*
X101492171Y-136880591D01*
X101436211Y-136708361D01*
X101436211Y-136708360D01*
X101407740Y-136652484D01*
X101353996Y-136547006D01*
X101340396Y-136528287D01*
X101247558Y-136400505D01*
X101247554Y-136400500D01*
X101119499Y-136272445D01*
X101119494Y-136272441D01*
X100972997Y-136166006D01*
X100972996Y-136166005D01*
X100972994Y-136166004D01*
X100921300Y-136139664D01*
X100811639Y-136083788D01*
X100811636Y-136083787D01*
X100639410Y-136027829D01*
X100460551Y-135999500D01*
X100460546Y-135999500D01*
X100279454Y-135999500D01*
X100279449Y-135999500D01*
X100100589Y-136027829D01*
X99928363Y-136083787D01*
X99928360Y-136083788D01*
X99767002Y-136166006D01*
X99620505Y-136272441D01*
X99620500Y-136272445D01*
X99492445Y-136400500D01*
X99492441Y-136400505D01*
X99386006Y-136547002D01*
X99303788Y-136708360D01*
X99303787Y-136708363D01*
X99247829Y-136880589D01*
X99222473Y-137040678D01*
X99192544Y-137103813D01*
X99133232Y-137140744D01*
X99063369Y-137139746D01*
X99005137Y-137101136D01*
X98977527Y-137040678D01*
X98963740Y-136953639D01*
X98952171Y-136880591D01*
X98896211Y-136708361D01*
X98896211Y-136708360D01*
X98867740Y-136652484D01*
X98813996Y-136547006D01*
X98800396Y-136528287D01*
X98707558Y-136400505D01*
X98707554Y-136400500D01*
X98579499Y-136272445D01*
X98579494Y-136272441D01*
X98432997Y-136166006D01*
X98432996Y-136166005D01*
X98432994Y-136166004D01*
X98381300Y-136139664D01*
X98271639Y-136083788D01*
X98271636Y-136083787D01*
X98099410Y-136027829D01*
X97920551Y-135999500D01*
X97920546Y-135999500D01*
X97739454Y-135999500D01*
X97739449Y-135999500D01*
X97560589Y-136027829D01*
X97388363Y-136083787D01*
X97388360Y-136083788D01*
X97227002Y-136166006D01*
X97080505Y-136272441D01*
X97080500Y-136272445D01*
X96952445Y-136400500D01*
X96952441Y-136400505D01*
X96846006Y-136547002D01*
X96763788Y-136708360D01*
X96763787Y-136708363D01*
X96707829Y-136880589D01*
X96682473Y-137040678D01*
X96652544Y-137103813D01*
X96593232Y-137140744D01*
X96523369Y-137139746D01*
X96465137Y-137101136D01*
X96437527Y-137040678D01*
X96423740Y-136953639D01*
X96412171Y-136880591D01*
X96356211Y-136708361D01*
X96356211Y-136708360D01*
X96327740Y-136652484D01*
X96273996Y-136547006D01*
X96260396Y-136528287D01*
X96167558Y-136400505D01*
X96167554Y-136400500D01*
X96039499Y-136272445D01*
X96039494Y-136272441D01*
X95892997Y-136166006D01*
X95892996Y-136166005D01*
X95892994Y-136166004D01*
X95841300Y-136139664D01*
X95731639Y-136083788D01*
X95731636Y-136083787D01*
X95559410Y-136027829D01*
X95380551Y-135999500D01*
X95380546Y-135999500D01*
X95199454Y-135999500D01*
X95199449Y-135999500D01*
X95020589Y-136027829D01*
X94848363Y-136083787D01*
X94848360Y-136083788D01*
X94687002Y-136166006D01*
X94540505Y-136272441D01*
X94540500Y-136272445D01*
X94412445Y-136400500D01*
X94412441Y-136400505D01*
X94306006Y-136547002D01*
X94223788Y-136708360D01*
X94223787Y-136708363D01*
X94167829Y-136880589D01*
X94142473Y-137040678D01*
X94112544Y-137103813D01*
X94053232Y-137140744D01*
X93983369Y-137139746D01*
X93925137Y-137101136D01*
X93897527Y-137040678D01*
X93883740Y-136953639D01*
X93872171Y-136880591D01*
X93816211Y-136708361D01*
X93816211Y-136708360D01*
X93787740Y-136652484D01*
X93733996Y-136547006D01*
X93720396Y-136528287D01*
X93627558Y-136400505D01*
X93627554Y-136400500D01*
X93499499Y-136272445D01*
X93499494Y-136272441D01*
X93352997Y-136166006D01*
X93352996Y-136166005D01*
X93352994Y-136166004D01*
X93301300Y-136139664D01*
X93191639Y-136083788D01*
X93191636Y-136083787D01*
X93019410Y-136027829D01*
X92840551Y-135999500D01*
X92840546Y-135999500D01*
X92659454Y-135999500D01*
X92659449Y-135999500D01*
X92480589Y-136027829D01*
X92308363Y-136083787D01*
X92308360Y-136083788D01*
X92147002Y-136166006D01*
X92000505Y-136272441D01*
X92000500Y-136272445D01*
X91872445Y-136400500D01*
X91872441Y-136400505D01*
X91766006Y-136547002D01*
X91683788Y-136708360D01*
X91683787Y-136708363D01*
X91627829Y-136880589D01*
X91602473Y-137040678D01*
X91572544Y-137103813D01*
X91513232Y-137140744D01*
X91443369Y-137139746D01*
X91385137Y-137101136D01*
X91357527Y-137040678D01*
X91343740Y-136953639D01*
X91332171Y-136880591D01*
X91276211Y-136708361D01*
X91276211Y-136708360D01*
X91247740Y-136652484D01*
X91193996Y-136547006D01*
X91180396Y-136528287D01*
X91087558Y-136400505D01*
X91087554Y-136400500D01*
X90959499Y-136272445D01*
X90959494Y-136272441D01*
X90812997Y-136166006D01*
X90812996Y-136166005D01*
X90812994Y-136166004D01*
X90761300Y-136139664D01*
X90651639Y-136083788D01*
X90651636Y-136083787D01*
X90479410Y-136027829D01*
X90300551Y-135999500D01*
X90300546Y-135999500D01*
X90119454Y-135999500D01*
X90119449Y-135999500D01*
X89940589Y-136027829D01*
X89768363Y-136083787D01*
X89768360Y-136083788D01*
X89607002Y-136166006D01*
X89460505Y-136272441D01*
X89460500Y-136272445D01*
X89332445Y-136400500D01*
X89332441Y-136400505D01*
X89226006Y-136547002D01*
X89143788Y-136708360D01*
X89143787Y-136708363D01*
X89087829Y-136880589D01*
X89062473Y-137040678D01*
X89032544Y-137103813D01*
X88973232Y-137140744D01*
X88903369Y-137139746D01*
X88845137Y-137101136D01*
X88817527Y-137040678D01*
X88803740Y-136953639D01*
X88792171Y-136880591D01*
X88736211Y-136708361D01*
X88736211Y-136708360D01*
X88707740Y-136652484D01*
X88653996Y-136547006D01*
X88640396Y-136528287D01*
X88547558Y-136400505D01*
X88547554Y-136400500D01*
X88419499Y-136272445D01*
X88419494Y-136272441D01*
X88272997Y-136166006D01*
X88272996Y-136166005D01*
X88272994Y-136166004D01*
X88221300Y-136139664D01*
X88111639Y-136083788D01*
X88111636Y-136083787D01*
X87939410Y-136027829D01*
X87760551Y-135999500D01*
X87760546Y-135999500D01*
X87579454Y-135999500D01*
X87579449Y-135999500D01*
X87400589Y-136027829D01*
X87228363Y-136083787D01*
X87228360Y-136083788D01*
X87067002Y-136166006D01*
X86920505Y-136272441D01*
X86920500Y-136272445D01*
X86792445Y-136400500D01*
X86792441Y-136400505D01*
X86686006Y-136547002D01*
X86603788Y-136708360D01*
X86603787Y-136708363D01*
X86547829Y-136880589D01*
X86522473Y-137040678D01*
X86492544Y-137103813D01*
X86433232Y-137140744D01*
X86363369Y-137139746D01*
X86305137Y-137101136D01*
X86277527Y-137040678D01*
X86263740Y-136953639D01*
X86252171Y-136880591D01*
X86196211Y-136708361D01*
X86196211Y-136708360D01*
X86167740Y-136652484D01*
X86113996Y-136547006D01*
X86100396Y-136528287D01*
X86007558Y-136400505D01*
X86007554Y-136400500D01*
X85879499Y-136272445D01*
X85879494Y-136272441D01*
X85732997Y-136166006D01*
X85732996Y-136166005D01*
X85732994Y-136166004D01*
X85681300Y-136139664D01*
X85571639Y-136083788D01*
X85571636Y-136083787D01*
X85399410Y-136027829D01*
X85220551Y-135999500D01*
X85220546Y-135999500D01*
X85039454Y-135999500D01*
X85039449Y-135999500D01*
X84860589Y-136027829D01*
X84688363Y-136083787D01*
X84688360Y-136083788D01*
X84527002Y-136166006D01*
X84380505Y-136272441D01*
X84380500Y-136272445D01*
X84252445Y-136400500D01*
X84252441Y-136400505D01*
X84146006Y-136547002D01*
X84063788Y-136708360D01*
X84063787Y-136708363D01*
X84007829Y-136880589D01*
X83982473Y-137040678D01*
X83952544Y-137103813D01*
X83893232Y-137140744D01*
X83823369Y-137139746D01*
X83765137Y-137101136D01*
X83737527Y-137040678D01*
X83723740Y-136953639D01*
X83712171Y-136880591D01*
X83656211Y-136708361D01*
X83656211Y-136708360D01*
X83627740Y-136652484D01*
X83573996Y-136547006D01*
X83560396Y-136528287D01*
X83467558Y-136400505D01*
X83467554Y-136400500D01*
X83339499Y-136272445D01*
X83339494Y-136272441D01*
X83192997Y-136166006D01*
X83192996Y-136166005D01*
X83192994Y-136166004D01*
X83141300Y-136139664D01*
X83031639Y-136083788D01*
X83031636Y-136083787D01*
X82859410Y-136027829D01*
X82680551Y-135999500D01*
X82680546Y-135999500D01*
X82499454Y-135999500D01*
X82499449Y-135999500D01*
X82320589Y-136027829D01*
X82148363Y-136083787D01*
X82148360Y-136083788D01*
X81987002Y-136166006D01*
X81840505Y-136272441D01*
X81840500Y-136272445D01*
X81712445Y-136400500D01*
X81712441Y-136400505D01*
X81606006Y-136547002D01*
X81523788Y-136708360D01*
X81523787Y-136708363D01*
X81467829Y-136880589D01*
X81442473Y-137040678D01*
X81412544Y-137103813D01*
X81353232Y-137140744D01*
X81283369Y-137139746D01*
X81225137Y-137101136D01*
X81197527Y-137040678D01*
X81183740Y-136953639D01*
X81172171Y-136880591D01*
X81116211Y-136708361D01*
X81116211Y-136708360D01*
X81087740Y-136652484D01*
X81033996Y-136547006D01*
X81020396Y-136528287D01*
X80927558Y-136400505D01*
X80927554Y-136400500D01*
X80799499Y-136272445D01*
X80799494Y-136272441D01*
X80652997Y-136166006D01*
X80652996Y-136166005D01*
X80652994Y-136166004D01*
X80601300Y-136139664D01*
X80491639Y-136083788D01*
X80491636Y-136083787D01*
X80319410Y-136027829D01*
X80140551Y-135999500D01*
X80140546Y-135999500D01*
X79959454Y-135999500D01*
X79959449Y-135999500D01*
X79780589Y-136027829D01*
X79608363Y-136083787D01*
X79608360Y-136083788D01*
X79447002Y-136166006D01*
X79300505Y-136272441D01*
X79300500Y-136272445D01*
X79172445Y-136400500D01*
X79172441Y-136400505D01*
X79066006Y-136547002D01*
X78983788Y-136708360D01*
X78983787Y-136708363D01*
X78927829Y-136880589D01*
X78902473Y-137040678D01*
X78872544Y-137103813D01*
X78813232Y-137140744D01*
X78743369Y-137139746D01*
X78685137Y-137101136D01*
X78657527Y-137040678D01*
X78643740Y-136953639D01*
X78632171Y-136880591D01*
X78576211Y-136708361D01*
X78576211Y-136708360D01*
X78547740Y-136652484D01*
X78493996Y-136547006D01*
X78480396Y-136528287D01*
X78387558Y-136400505D01*
X78387554Y-136400500D01*
X78259499Y-136272445D01*
X78259494Y-136272441D01*
X78112997Y-136166006D01*
X78112996Y-136166005D01*
X78112994Y-136166004D01*
X78061300Y-136139664D01*
X77951639Y-136083788D01*
X77951636Y-136083787D01*
X77779410Y-136027829D01*
X77600551Y-135999500D01*
X77600546Y-135999500D01*
X77419454Y-135999500D01*
X77419449Y-135999500D01*
X77240589Y-136027829D01*
X77068363Y-136083787D01*
X77068360Y-136083788D01*
X76907002Y-136166006D01*
X76760505Y-136272441D01*
X76760500Y-136272445D01*
X76632445Y-136400500D01*
X76632441Y-136400505D01*
X76526006Y-136547002D01*
X76443788Y-136708360D01*
X76443787Y-136708363D01*
X76387829Y-136880589D01*
X76362473Y-137040678D01*
X76332544Y-137103813D01*
X76273232Y-137140744D01*
X76203369Y-137139746D01*
X76145137Y-137101136D01*
X76117527Y-137040678D01*
X76103740Y-136953639D01*
X76092171Y-136880591D01*
X76036211Y-136708361D01*
X76036211Y-136708360D01*
X76007740Y-136652484D01*
X75953996Y-136547006D01*
X75940396Y-136528287D01*
X75847558Y-136400505D01*
X75847554Y-136400500D01*
X75719499Y-136272445D01*
X75719494Y-136272441D01*
X75572997Y-136166006D01*
X75572996Y-136166005D01*
X75572994Y-136166004D01*
X75521300Y-136139664D01*
X75411639Y-136083788D01*
X75411636Y-136083787D01*
X75239410Y-136027829D01*
X75060551Y-135999500D01*
X75060546Y-135999500D01*
X74879454Y-135999500D01*
X74879449Y-135999500D01*
X74700589Y-136027829D01*
X74528363Y-136083787D01*
X74528360Y-136083788D01*
X74367002Y-136166006D01*
X74220505Y-136272441D01*
X74220500Y-136272445D01*
X74092445Y-136400500D01*
X74092441Y-136400505D01*
X73986006Y-136547002D01*
X73903788Y-136708360D01*
X73903787Y-136708363D01*
X73847829Y-136880589D01*
X73819500Y-137059448D01*
X73819500Y-137240551D01*
X73847829Y-137419412D01*
X73887458Y-137541381D01*
X73889453Y-137611222D01*
X73857549Y-137667037D01*
X73388706Y-138139541D01*
X73388707Y-138139542D01*
X73388460Y-138139790D01*
X73349515Y-138178737D01*
X73349093Y-138179466D01*
X73348501Y-138180064D01*
X73348486Y-138180089D01*
X73348486Y-138180090D01*
X73321212Y-138227755D01*
X73321211Y-138227754D01*
X73320893Y-138228309D01*
X73293497Y-138275763D01*
X73293279Y-138276575D01*
X73292860Y-138277308D01*
X73278843Y-138330445D01*
X73278720Y-138330907D01*
X73264498Y-138383984D01*
X73264413Y-138384632D01*
X73264352Y-138385100D01*
X73264284Y-138385612D01*
X73264498Y-138440619D01*
X73264500Y-138440885D01*
X73264500Y-141153980D01*
X73264500Y-141266017D01*
X73293497Y-141374236D01*
X73349515Y-141471262D01*
X73349517Y-141471264D01*
X74518181Y-142639928D01*
X74551666Y-142701251D01*
X74554500Y-142727609D01*
X74554500Y-144176000D01*
X74534815Y-144243039D01*
X74482011Y-144288794D01*
X74430500Y-144300000D01*
X63074500Y-144300000D01*
X63007461Y-144280315D01*
X62961706Y-144227511D01*
X62950500Y-144176000D01*
X62950500Y-139490000D01*
X66116095Y-139490000D01*
X66888120Y-139490000D01*
X66884075Y-139497007D01*
X66850000Y-139624174D01*
X66850000Y-139755826D01*
X66884075Y-139882993D01*
X66888120Y-139890000D01*
X66116095Y-139890000D01*
X66130778Y-139982705D01*
X66191581Y-140169835D01*
X66280904Y-140345143D01*
X66396555Y-140504321D01*
X66535678Y-140643444D01*
X66694856Y-140759095D01*
X66870168Y-140848420D01*
X66874660Y-140850281D01*
X66873787Y-140852386D01*
X66923688Y-140886509D01*
X66950884Y-140950868D01*
X66938968Y-141019714D01*
X66891723Y-141071189D01*
X66874403Y-141079098D01*
X66874660Y-141079719D01*
X66870168Y-141081579D01*
X66694856Y-141170904D01*
X66535678Y-141286555D01*
X66396555Y-141425678D01*
X66280904Y-141584856D01*
X66191581Y-141760164D01*
X66130778Y-141947294D01*
X66116095Y-142040000D01*
X66888120Y-142040000D01*
X66884075Y-142047007D01*
X66850000Y-142174174D01*
X66850000Y-142305826D01*
X66884075Y-142432993D01*
X66888120Y-142440000D01*
X66116095Y-142440000D01*
X66130778Y-142532705D01*
X66191581Y-142719835D01*
X66280904Y-142895143D01*
X66396555Y-143054321D01*
X66535678Y-143193444D01*
X66694856Y-143309095D01*
X66870162Y-143398418D01*
X67057286Y-143459219D01*
X67057292Y-143459221D01*
X67150000Y-143473904D01*
X67150000Y-142701879D01*
X67157007Y-142705925D01*
X67284174Y-142740000D01*
X67415826Y-142740000D01*
X67542993Y-142705925D01*
X67550000Y-142701879D01*
X67550000Y-143473903D01*
X67642707Y-143459221D01*
X67642713Y-143459219D01*
X67829837Y-143398418D01*
X68005143Y-143309095D01*
X68164321Y-143193444D01*
X68303444Y-143054321D01*
X68419097Y-142895141D01*
X68509515Y-142717685D01*
X68557489Y-142666888D01*
X68625310Y-142650093D01*
X68691445Y-142672630D01*
X68730485Y-142717685D01*
X68820902Y-142895141D01*
X68936555Y-143054321D01*
X69075678Y-143193444D01*
X69234856Y-143309095D01*
X69410162Y-143398418D01*
X69597286Y-143459219D01*
X69597292Y-143459221D01*
X69690000Y-143473904D01*
X69690000Y-142701879D01*
X69697007Y-142705925D01*
X69824174Y-142740000D01*
X69955826Y-142740000D01*
X70082993Y-142705925D01*
X70090000Y-142701879D01*
X70090000Y-143473903D01*
X70182707Y-143459221D01*
X70182713Y-143459219D01*
X70369837Y-143398418D01*
X70545143Y-143309095D01*
X70704321Y-143193444D01*
X70843444Y-143054321D01*
X70959095Y-142895143D01*
X71048418Y-142719835D01*
X71109221Y-142532705D01*
X71123905Y-142440000D01*
X70351880Y-142440000D01*
X70355925Y-142432993D01*
X70390000Y-142305826D01*
X70390000Y-142174174D01*
X70355925Y-142047007D01*
X70351880Y-142040000D01*
X71123905Y-142040000D01*
X71109221Y-141947294D01*
X71048418Y-141760164D01*
X70959095Y-141584856D01*
X70843444Y-141425678D01*
X70704321Y-141286555D01*
X70545143Y-141170904D01*
X70369831Y-141081579D01*
X70365340Y-141079719D01*
X70366217Y-141077599D01*
X70316360Y-141043550D01*
X70289124Y-140979208D01*
X70300997Y-140910354D01*
X70348211Y-140858851D01*
X70365600Y-140850908D01*
X70365340Y-140850281D01*
X70369831Y-140848420D01*
X70545143Y-140759095D01*
X70704321Y-140643444D01*
X70843444Y-140504321D01*
X70959095Y-140345143D01*
X71048418Y-140169835D01*
X71109221Y-139982705D01*
X71123905Y-139890000D01*
X70351880Y-139890000D01*
X70355925Y-139882993D01*
X70390000Y-139755826D01*
X70390000Y-139624174D01*
X70355925Y-139497007D01*
X70351880Y-139490000D01*
X71123905Y-139490000D01*
X71109221Y-139397294D01*
X71048418Y-139210164D01*
X70959095Y-139034856D01*
X70843444Y-138875678D01*
X70704321Y-138736555D01*
X70545143Y-138620904D01*
X70369835Y-138531581D01*
X70182705Y-138470778D01*
X70090000Y-138456094D01*
X70090000Y-139228120D01*
X70082993Y-139224075D01*
X69955826Y-139190000D01*
X69824174Y-139190000D01*
X69697007Y-139224075D01*
X69690000Y-139228120D01*
X69690000Y-138456094D01*
X69597294Y-138470778D01*
X69410164Y-138531581D01*
X69234856Y-138620904D01*
X69075678Y-138736555D01*
X68936555Y-138875678D01*
X68820904Y-139034856D01*
X68730485Y-139212315D01*
X68682511Y-139263111D01*
X68614690Y-139279906D01*
X68548555Y-139257369D01*
X68509515Y-139212315D01*
X68419095Y-139034856D01*
X68303444Y-138875678D01*
X68164321Y-138736555D01*
X68005143Y-138620904D01*
X67829835Y-138531581D01*
X67642705Y-138470778D01*
X67550000Y-138456094D01*
X67550000Y-139228120D01*
X67542993Y-139224075D01*
X67415826Y-139190000D01*
X67284174Y-139190000D01*
X67157007Y-139224075D01*
X67150000Y-139228120D01*
X67150000Y-138456094D01*
X67057294Y-138470778D01*
X66870164Y-138531581D01*
X66694856Y-138620904D01*
X66535678Y-138736555D01*
X66396555Y-138875678D01*
X66280904Y-139034856D01*
X66191581Y-139210164D01*
X66130778Y-139397294D01*
X66116095Y-139490000D01*
X62950500Y-139490000D01*
X62950500Y-138684110D01*
X62950500Y-138684108D01*
X62916392Y-138556814D01*
X62850500Y-138442686D01*
X62757314Y-138349500D01*
X62672444Y-138300500D01*
X62643187Y-138283608D01*
X62578356Y-138266237D01*
X62515892Y-138249500D01*
X62515891Y-138249500D01*
X53374500Y-138249500D01*
X53307461Y-138229815D01*
X53261706Y-138177011D01*
X53250500Y-138125500D01*
X53250500Y-126783885D01*
X89249500Y-126783885D01*
X89249500Y-126803735D01*
X89249500Y-127216115D01*
X89283412Y-127647013D01*
X89351028Y-128073922D01*
X89451930Y-128494210D01*
X89451934Y-128494221D01*
X89585494Y-128905280D01*
X89656887Y-129077638D01*
X89750904Y-129304615D01*
X89808463Y-129417580D01*
X89947136Y-129689740D01*
X89947142Y-129689751D01*
X90172966Y-130058262D01*
X90172974Y-130058273D01*
X90427025Y-130407946D01*
X90427035Y-130407960D01*
X90707737Y-130736617D01*
X90707743Y-130736624D01*
X91013376Y-131042257D01*
X91013382Y-131042262D01*
X91342039Y-131322964D01*
X91342046Y-131322969D01*
X91691728Y-131577027D01*
X91691732Y-131577029D01*
X91691737Y-131577033D01*
X92060248Y-131802857D01*
X92060254Y-131802860D01*
X92060265Y-131802867D01*
X92445385Y-131999096D01*
X92844714Y-132164503D01*
X92844719Y-132164505D01*
X92949240Y-132198465D01*
X93255790Y-132298070D01*
X93676078Y-132398972D01*
X94102987Y-132466588D01*
X94533885Y-132500500D01*
X94533893Y-132500500D01*
X94966107Y-132500500D01*
X94966115Y-132500500D01*
X95397013Y-132466588D01*
X95823922Y-132398972D01*
X96244210Y-132298070D01*
X96655286Y-132164503D01*
X97054615Y-131999096D01*
X97439735Y-131802867D01*
X97808272Y-131577027D01*
X98157954Y-131322969D01*
X98486624Y-131042257D01*
X98792257Y-130736624D01*
X99072969Y-130407954D01*
X99327027Y-130058272D01*
X99552867Y-129689735D01*
X99749096Y-129304615D01*
X99914503Y-128905286D01*
X100048070Y-128494210D01*
X100148972Y-128073922D01*
X100216588Y-127647013D01*
X100250500Y-127216115D01*
X100250500Y-126783885D01*
X179249500Y-126783885D01*
X179249500Y-126803735D01*
X179249500Y-127216115D01*
X179283412Y-127647013D01*
X179351028Y-128073922D01*
X179451930Y-128494210D01*
X179451934Y-128494221D01*
X179585494Y-128905280D01*
X179656887Y-129077638D01*
X179750904Y-129304615D01*
X179808463Y-129417580D01*
X179947136Y-129689740D01*
X179947142Y-129689751D01*
X180172966Y-130058262D01*
X180172974Y-130058273D01*
X180427025Y-130407946D01*
X180427035Y-130407960D01*
X180707737Y-130736617D01*
X180707743Y-130736624D01*
X181013376Y-131042257D01*
X181013382Y-131042262D01*
X181342039Y-131322964D01*
X181342046Y-131322969D01*
X181691728Y-131577027D01*
X181691732Y-131577029D01*
X181691737Y-131577033D01*
X182060248Y-131802857D01*
X182060254Y-131802860D01*
X182060265Y-131802867D01*
X182445385Y-131999096D01*
X182844714Y-132164503D01*
X182844719Y-132164505D01*
X182949240Y-132198465D01*
X183255790Y-132298070D01*
X183676078Y-132398972D01*
X184102987Y-132466588D01*
X184533885Y-132500500D01*
X184533893Y-132500500D01*
X184966107Y-132500500D01*
X184966115Y-132500500D01*
X185397013Y-132466588D01*
X185823922Y-132398972D01*
X186244210Y-132298070D01*
X186655286Y-132164503D01*
X187054615Y-131999096D01*
X187439735Y-131802867D01*
X187808272Y-131577027D01*
X188157954Y-131322969D01*
X188486624Y-131042257D01*
X188792257Y-130736624D01*
X189072969Y-130407954D01*
X189327027Y-130058272D01*
X189552867Y-129689735D01*
X189749096Y-129304615D01*
X189914503Y-128905286D01*
X190048070Y-128494210D01*
X190148972Y-128073922D01*
X190216588Y-127647013D01*
X190250500Y-127216115D01*
X190250500Y-126783885D01*
X190216588Y-126352987D01*
X190148972Y-125926078D01*
X190048070Y-125505790D01*
X189914503Y-125094714D01*
X189749096Y-124695385D01*
X189552867Y-124310265D01*
X189327027Y-123941728D01*
X189072969Y-123592046D01*
X189072964Y-123592039D01*
X188792262Y-123263382D01*
X188792257Y-123263376D01*
X188486624Y-122957743D01*
X188352283Y-122843004D01*
X188157960Y-122677035D01*
X188157946Y-122677025D01*
X187808273Y-122422974D01*
X187808262Y-122422966D01*
X187439751Y-122197142D01*
X187439740Y-122197136D01*
X187439739Y-122197135D01*
X187439735Y-122197133D01*
X187054615Y-122000904D01*
X186926677Y-121947910D01*
X186655280Y-121835494D01*
X186362796Y-121740461D01*
X186244210Y-121701930D01*
X185823922Y-121601028D01*
X185397013Y-121533412D01*
X184966120Y-121499500D01*
X184966115Y-121499500D01*
X184533885Y-121499500D01*
X184533879Y-121499500D01*
X184102986Y-121533412D01*
X184102985Y-121533412D01*
X183676083Y-121601027D01*
X183676080Y-121601027D01*
X183676078Y-121601028D01*
X183525562Y-121637163D01*
X183255801Y-121701927D01*
X183255795Y-121701928D01*
X183255790Y-121701930D01*
X183255778Y-121701934D01*
X182844719Y-121835494D01*
X182445387Y-122000903D01*
X182060259Y-122197136D01*
X182060248Y-122197142D01*
X181691737Y-122422966D01*
X181691726Y-122422974D01*
X181342053Y-122677025D01*
X181342039Y-122677035D01*
X181013382Y-122957737D01*
X181013368Y-122957750D01*
X180707750Y-123263368D01*
X180707737Y-123263382D01*
X180427035Y-123592039D01*
X180427025Y-123592053D01*
X180172974Y-123941726D01*
X180172966Y-123941737D01*
X179947142Y-124310248D01*
X179947136Y-124310259D01*
X179750903Y-124695387D01*
X179585494Y-125094719D01*
X179461066Y-125477669D01*
X179451930Y-125505790D01*
X179351028Y-125926078D01*
X179283412Y-126352987D01*
X179249500Y-126783885D01*
X100250500Y-126783885D01*
X100216588Y-126352987D01*
X100148972Y-125926078D01*
X100048070Y-125505790D01*
X99914503Y-125094714D01*
X99749096Y-124695385D01*
X99552867Y-124310265D01*
X99327027Y-123941728D01*
X99072969Y-123592046D01*
X99072964Y-123592039D01*
X98792262Y-123263382D01*
X98792257Y-123263376D01*
X98486624Y-122957743D01*
X98352283Y-122843004D01*
X98157960Y-122677035D01*
X98157946Y-122677025D01*
X97808273Y-122422974D01*
X97808262Y-122422966D01*
X97439751Y-122197142D01*
X97439740Y-122197136D01*
X97439739Y-122197135D01*
X97439735Y-122197133D01*
X97054615Y-122000904D01*
X96926677Y-121947910D01*
X96655280Y-121835494D01*
X96362796Y-121740461D01*
X96244210Y-121701930D01*
X95823922Y-121601028D01*
X95397013Y-121533412D01*
X94966120Y-121499500D01*
X94966115Y-121499500D01*
X94533885Y-121499500D01*
X94533879Y-121499500D01*
X94102986Y-121533412D01*
X94102985Y-121533412D01*
X93676083Y-121601027D01*
X93676080Y-121601027D01*
X93676078Y-121601028D01*
X93525562Y-121637163D01*
X93255801Y-121701927D01*
X93255795Y-121701928D01*
X93255790Y-121701930D01*
X93255778Y-121701934D01*
X92844719Y-121835494D01*
X92445387Y-122000903D01*
X92060259Y-122197136D01*
X92060248Y-122197142D01*
X91691737Y-122422966D01*
X91691726Y-122422974D01*
X91342053Y-122677025D01*
X91342039Y-122677035D01*
X91013382Y-122957737D01*
X91013368Y-122957750D01*
X90707750Y-123263368D01*
X90707737Y-123263382D01*
X90427035Y-123592039D01*
X90427025Y-123592053D01*
X90172974Y-123941726D01*
X90172966Y-123941737D01*
X89947142Y-124310248D01*
X89947136Y-124310259D01*
X89750903Y-124695387D01*
X89585494Y-125094719D01*
X89461066Y-125477669D01*
X89451930Y-125505790D01*
X89351028Y-125926078D01*
X89283412Y-126352987D01*
X89249500Y-126783885D01*
X53250500Y-126783885D01*
X53250500Y-24374500D01*
X53270185Y-24307461D01*
X53322989Y-24261706D01*
X53374500Y-24250500D01*
X88125500Y-24250500D01*
X88192539Y-24270185D01*
G37*
G04 #@! TD.AperFunction*
M02*
