M48
METRIC,TZ
T1C0.300
%
T1
X405000Y570000
X405000Y670000
X215000Y190000
X952500Y670000
X500000Y675000
X500000Y570000
X505000Y680000
X500000Y340000
X500000Y340000
X505000Y335000
X937500Y767500
X927500Y767500
X762500Y667500
X400000Y315000
X400000Y310000
X410000Y310000
X762500Y682500
X500000Y332500
X500000Y332500
X957500Y332500
X1400000Y332500
X762500Y697500
X400000Y347500
X397500Y317500
X767500Y340000
X762500Y672500
X497500Y327500
X400000Y325000
X400000Y325000
X510000Y327500
X762500Y677500
X495000Y342500
X400000Y332500
X400000Y332500
X1300000Y332500
X762500Y652500
X762500Y320000
X400000Y307500
X400000Y300000
X410000Y300000
X912500Y727500
X680000Y772500
X680000Y1280000
X242500Y1140000
X762500Y692500
X490000Y355000
X400000Y355000
X400000Y295000
X772500Y345000
X490000Y645000
X490000Y570000
X937500Y780000
X675000Y780000
X777500Y350000
X777500Y295000
X782500Y205000
X400000Y205000
X862500Y350000
X772500Y220000
X500000Y220000
X782500Y215000
X947500Y350000
X947500Y295000
X1300000Y220000
X497500Y220000
X400000Y220000
X937500Y792500
X675000Y792500
X867500Y352500
X772500Y227500
X1300000Y195000
X1300000Y220000
X942500Y350000
X1305000Y327500
X1305000Y310000
X952500Y227500
X770000Y227500
X400000Y227500
X872500Y357500
X772500Y245000
X500000Y245000
X957500Y245000
X1310000Y245000
X937500Y352500
X1310000Y327500
X1300000Y250000
X952500Y240000
X852500Y240000
X400000Y240000
X917500Y727500
X705000Y772500
X705000Y1280000
X320000Y1145000
X877500Y362500
X772500Y252500
X500000Y252500
X1310000Y252500
X932500Y357500
X1305000Y257500
X1300000Y255000
X1300000Y252500
X947500Y252500
X397500Y247500
X937500Y807500
X675000Y807500
X882500Y367500
X772500Y267500
X500000Y267500
X1310000Y267500
X927500Y362500
X1295000Y247500
X952500Y272500
X837500Y272500
X400000Y267500
X887500Y372500
X772500Y277500
X500000Y275000
X1310000Y275000
X922500Y350000
X922500Y305000
X957500Y305000
X957500Y295000
X1300000Y275000
X767500Y275000
X400000Y275000
X907500Y377500
X772500Y290000
X500000Y292500
X1310000Y292500
X917500Y350000
X942500Y297500
X962500Y297500
X962500Y295000
X1300000Y292500
X500000Y292500
X400000Y290000
X430000Y727500
X217500Y727500
X217500Y1030000
X222500Y1280000
X937500Y820000
X675000Y820000
X430000Y732500
X242500Y732500
X240000Y1135000
X247500Y1280000
X927500Y727500
X627500Y825000
X627500Y1280000
X395000Y1150000
X430000Y737500
X267500Y737500
X267500Y1145000
X272500Y1280000
X937500Y832500
X622500Y832500
X505000Y347500
X500000Y347500
X500000Y347500
X1315000Y317500
X1400000Y347500
X505000Y360000
X500000Y360000
X500000Y355000
X500000Y355000
X505000Y365000
X430000Y742500
X292500Y742500
X292500Y1145000
X297500Y1280000
X787500Y370000
X767500Y370000
X505000Y370000
X500000Y365000
X500000Y365000
X505000Y375000
X787500Y512500
X400000Y365000
X400000Y365000
X1300000Y337500
X1300000Y365000
X802500Y512500
X767500Y525000
X505000Y380000
X500000Y372500
X500000Y372500
X505000Y385000
X852500Y372500
X957500Y372500
X1300000Y372500
X1300000Y372500
X410000Y315000
X410000Y360000
X400000Y360000
X430000Y747500
X320000Y747500
X320000Y1150000
X325000Y1280000
X937500Y845000
X622500Y845000
X807500Y512500
X802500Y530000
X505000Y390000
X500000Y382500
X500000Y380000
X500000Y380000
X500000Y377500
X505000Y395000
X847500Y512500
X772500Y580000
X400000Y580000
X400000Y570000
X400000Y380000
X510000Y355000
X770000Y355000
X957500Y377500
X1300000Y380000
X812500Y512500
X812500Y535000
X505000Y400000
X500000Y397500
X500000Y387500
X837500Y512500
X767500Y592500
X410000Y592500
X400000Y387500
X400000Y387500
X505000Y405000
X827500Y512500
X500000Y395000
X847500Y507500
X400000Y395000
X400000Y395000
X505000Y410000
X430000Y752500
X345000Y752500
X345000Y1150000
X350000Y1280000
X430000Y757500
X370000Y757500
X370000Y1150000
X375000Y1280000
X430000Y762500
X395000Y762500
X395000Y1155000
X400000Y1280000
X830000Y727500
X675000Y727500
X420000Y767500
X420000Y1155000
X425000Y1280000
X820000Y732500
X675000Y732500
X445000Y767500
X445000Y1155000
X450000Y1280000
X820000Y737500
X675000Y737500
X472500Y772500
X472500Y1155000
X477500Y1280000
X820000Y742500
X675000Y742500
X497500Y785000
X497500Y1155000
X502500Y1280000
X820000Y747500
X675000Y747500
X522500Y797500
X522500Y1155000
X527500Y1280000
X815000Y752500
X675000Y752500
X547500Y812500
X547500Y1155000
X552500Y1280000
X887500Y762500
X622500Y827500
X572500Y1155000
X577500Y1280000
X927500Y762500
X622500Y837500
X597500Y1155000
X602500Y1280000
X927500Y757500
X622500Y850000
X622500Y1277500
X627500Y1280000
X927500Y752500
X675000Y855000
X415000Y657500
X400000Y340000
X977500Y602500
X1300000Y807500
X977500Y597500
X1300000Y792500
X1300000Y602500
X1300000Y780000
X1295000Y687500
X1300000Y845000
X1295000Y682500
X1300000Y832500
X942500Y727500
X932500Y727500
X1300000Y582500
X1300000Y600000
X977500Y532500
X1300000Y587500
X955000Y655000
X1302500Y355000
X977500Y585000
X975000Y602500
X972500Y585000
X1300000Y665000
X1302500Y585000
X1300000Y652500
X1297500Y552500
X1300000Y627500
X1192500Y567500
X1300000Y640000
X1297500Y547500
X1300000Y612500
X405000Y570000
X405000Y670000
X215000Y190000
X952500Y670000
X500000Y675000
X500000Y570000
X505000Y680000
X500000Y340000
X500000Y340000
X505000Y335000
X937500Y767500
X927500Y767500
X762500Y667500
X400000Y315000
X400000Y310000
X410000Y310000
X762500Y682500
X500000Y332500
X500000Y332500
X957500Y332500
X1400000Y332500
X762500Y697500
X400000Y347500
X397500Y317500
X767500Y340000
X762500Y672500
X497500Y327500
X400000Y325000
X400000Y325000
X510000Y327500
X762500Y677500
X495000Y342500
X400000Y332500
X400000Y332500
X1300000Y332500
X762500Y652500
X762500Y320000
X400000Y307500
X400000Y300000
X410000Y300000
X912500Y727500
X680000Y772500
X680000Y1280000
X242500Y1140000
X762500Y692500
X490000Y355000
X400000Y355000
X400000Y295000
X772500Y345000
X490000Y645000
X490000Y570000
X937500Y780000
X675000Y780000
X777500Y350000
X777500Y295000
X782500Y205000
X400000Y205000
X862500Y350000
X772500Y220000
X500000Y220000
X782500Y215000
X947500Y350000
X947500Y295000
X1300000Y220000
X497500Y220000
X400000Y220000
X937500Y792500
X675000Y792500
X867500Y352500
X772500Y227500
X1300000Y195000
X1300000Y220000
X942500Y350000
X1305000Y327500
X1305000Y310000
X952500Y227500
X770000Y227500
X400000Y227500
X872500Y357500
X772500Y245000
X500000Y245000
X957500Y245000
X1310000Y245000
X937500Y352500
X1310000Y327500
X1300000Y250000
X952500Y240000
X852500Y240000
X400000Y240000
X917500Y727500
X705000Y772500
X705000Y1280000
X320000Y1145000
X877500Y362500
X772500Y252500
X500000Y252500
X1310000Y252500
X932500Y357500
X1305000Y257500
X1300000Y255000
X1300000Y252500
X947500Y252500
X397500Y247500
X937500Y807500
X675000Y807500
X882500Y367500
X772500Y267500
X500000Y267500
X1310000Y267500
X927500Y362500
X1295000Y247500
X952500Y272500
X837500Y272500
X400000Y267500
X887500Y372500
X772500Y277500
X500000Y275000
X1310000Y275000
X922500Y350000
X922500Y305000
X957500Y305000
X957500Y295000
X1300000Y275000
X767500Y275000
X400000Y275000
X907500Y377500
X772500Y290000
X500000Y292500
X1310000Y292500
X917500Y350000
X942500Y297500
X962500Y297500
X962500Y295000
X1300000Y292500
X500000Y292500
X400000Y290000
X430000Y727500
X217500Y727500
X217500Y1030000
X222500Y1280000
X937500Y820000
X675000Y820000
X430000Y732500
X242500Y732500
X240000Y1135000
X247500Y1280000
X927500Y727500
X627500Y825000
X627500Y1280000
X395000Y1150000
X430000Y737500
X267500Y737500
X267500Y1145000
X272500Y1280000
X937500Y832500
X622500Y832500
X505000Y347500
X500000Y347500
X500000Y347500
X1315000Y317500
X1400000Y347500
X505000Y360000
X500000Y360000
X500000Y355000
X500000Y355000
X505000Y365000
X430000Y742500
X292500Y742500
X292500Y1145000
X297500Y1280000
X787500Y370000
X767500Y370000
X505000Y370000
X500000Y365000
X500000Y365000
X505000Y375000
X787500Y512500
X400000Y365000
X400000Y365000
X1300000Y337500
X1300000Y365000
X802500Y512500
X767500Y525000
X505000Y380000
X500000Y372500
X500000Y372500
X505000Y385000
X852500Y372500
X957500Y372500
X1300000Y372500
X1300000Y372500
X410000Y315000
X410000Y360000
X400000Y360000
X430000Y747500
X320000Y747500
X320000Y1150000
X325000Y1280000
X937500Y845000
X622500Y845000
X807500Y512500
X802500Y530000
X505000Y390000
X500000Y382500
X500000Y380000
X500000Y380000
X500000Y377500
X505000Y395000
X847500Y512500
X772500Y580000
X400000Y580000
X400000Y570000
X400000Y380000
X510000Y355000
X770000Y355000
X957500Y377500
X1300000Y380000
X812500Y512500
X812500Y535000
X505000Y400000
X500000Y397500
X500000Y387500
X837500Y512500
X767500Y592500
X410000Y592500
X400000Y387500
X400000Y387500
X505000Y405000
X827500Y512500
X500000Y395000
X847500Y507500
X400000Y395000
X400000Y395000
X505000Y410000
X430000Y752500
X345000Y752500
X345000Y1150000
X350000Y1280000
X430000Y757500
X370000Y757500
X370000Y1150000
X375000Y1280000
X430000Y762500
X395000Y762500
X395000Y1155000
X400000Y1280000
X830000Y727500
X675000Y727500
X420000Y767500
X420000Y1155000
X425000Y1280000
X820000Y732500
X675000Y732500
X445000Y767500
X445000Y1155000
X450000Y1280000
X820000Y737500
X675000Y737500
X472500Y772500
X472500Y1155000
X477500Y1280000
X820000Y742500
X675000Y742500
X497500Y785000
X497500Y1155000
X502500Y1280000
X820000Y747500
X675000Y747500
X522500Y797500
X522500Y1155000
X527500Y1280000
X815000Y752500
X675000Y752500
X547500Y812500
X547500Y1155000
X552500Y1280000
X887500Y762500
X622500Y827500
X572500Y1155000
X577500Y1280000
X927500Y762500
X622500Y837500
X597500Y1155000
X602500Y1280000
X927500Y757500
X622500Y850000
X622500Y1277500
X627500Y1280000
X927500Y752500
X675000Y855000
X415000Y657500
X400000Y340000
X977500Y602500
X1300000Y807500
X977500Y597500
X1300000Y792500
X1300000Y602500
X1300000Y780000
X1295000Y687500
X1300000Y845000
X1295000Y682500
X1300000Y832500
X942500Y727500
X932500Y727500
X1300000Y582500
X1300000Y600000
X977500Y532500
X1300000Y587500
M30
