%FSLAX46Y46*%
%MOMM*%
G04 Generated by PCB Engine 2026-04-28T17:33:28.022635*
%ADD10R,0.25X0.25*%
%ADD11R,0.600X1.000*%
D10*
X76250000Y65250000D02*
X76250000Y32000000D01*
D10*
X130000000Y25250000D02*
X94750000Y25250000D01*
D10*
X130000000Y27500000D02*
X76750000Y27500000D01*
D10*
X130000000Y29250000D02*
X50000000Y29250000D01*
D10*
X50000000Y34750000D02*
X75750000Y34750000D01*
D10*
X75750000Y34750000D02*
X75750000Y31750000D01*
D10*
X75750000Y31750000D02*
X131500000Y31750000D01*
D10*
X50000000Y35500000D02*
X50500000Y35500000D01*
D10*
X50500000Y35500000D02*
X50500000Y36500000D01*
D10*
X50000000Y36500000D02*
X50000000Y36750000D01*
D10*
X50000000Y36750000D02*
X50500000Y36750000D01*
D10*
X50500000Y36750000D02*
X50500000Y37500000D01*
D10*
X40000000Y36500000D02*
X49500000Y36500000D01*
D10*
X49500000Y36500000D02*
X49500000Y36250000D01*
D10*
X49500000Y36250000D02*
X49750000Y36250000D01*
D10*
X49750000Y36250000D02*
X49750000Y34250000D01*
D10*
X49750000Y34250000D02*
X75250000Y34250000D01*
D10*
X75250000Y34250000D02*
X75250000Y31500000D01*
D10*
X75250000Y31500000D02*
X75500000Y31500000D01*
D10*
X75500000Y31500000D02*
X75500000Y31250000D01*
D10*
X75500000Y31250000D02*
X131750000Y31250000D01*
D10*
X131750000Y31250000D02*
X131750000Y32250000D01*
D10*
X131750000Y32250000D02*
X130000000Y32250000D01*
D10*
X130000000Y32250000D02*
X130000000Y33750000D01*
D10*
X50000000Y37250000D02*
X50000000Y37750000D01*
D10*
X50000000Y37750000D02*
X50500000Y37750000D01*
D10*
X50500000Y37750000D02*
X50500000Y38500000D01*
D10*
X130000000Y37250000D02*
X130000000Y34000000D01*
D10*
X130000000Y34000000D02*
X130500000Y34000000D01*
D10*
X130500000Y34000000D02*
X130500000Y32750000D01*
D10*
X130500000Y32750000D02*
X132000000Y32750000D01*
D10*
X132000000Y32750000D02*
X132000000Y32500000D01*
D10*
X132000000Y32500000D02*
X132250000Y32500000D01*
D10*
X132250000Y32500000D02*
X132250000Y31000000D01*
D10*
X132250000Y31000000D02*
X132000000Y31000000D01*
D10*
X132000000Y31000000D02*
X132000000Y30750000D01*
D10*
X132000000Y30750000D02*
X41000000Y30750000D01*
D10*
X41000000Y30750000D02*
X41000000Y31500000D01*
D10*
X40000000Y38000000D02*
X49750000Y38000000D01*
D10*
X49750000Y38000000D02*
X49750000Y38250000D01*
D10*
X49750000Y38250000D02*
X50000000Y38250000D01*
D10*
X50000000Y38250000D02*
X50000000Y38750000D01*
D10*
X50000000Y38750000D02*
X51000000Y38750000D01*
D10*
X51000000Y38750000D02*
X51000000Y35500000D01*
D10*
X82750000Y51250000D02*
X76750000Y51250000D01*
D10*
X76750000Y51250000D02*
X76750000Y65500000D01*
D10*
X76750000Y65500000D02*
X75750000Y65500000D01*
D10*
X75750000Y65500000D02*
X75750000Y39500000D01*
D10*
X75750000Y39500000D02*
X50000000Y39500000D01*
D10*
X130000000Y60250000D02*
X130000000Y78000000D01*
D10*
X129750000Y54750000D02*
X130000000Y54750000D01*
D10*
X130000000Y54750000D02*
X130000000Y61250000D01*
D10*
X76250000Y65250000D02*
X76250000Y32000000D01*
D10*
X130000000Y25250000D02*
X94750000Y25250000D01*
D10*
X130000000Y27500000D02*
X76750000Y27500000D01*
D10*
X130000000Y29250000D02*
X50000000Y29250000D01*
D10*
X50000000Y34750000D02*
X75750000Y34750000D01*
D10*
X75750000Y34750000D02*
X75750000Y31750000D01*
D10*
X75750000Y31750000D02*
X131500000Y31750000D01*
D10*
X50000000Y35500000D02*
X50500000Y35500000D01*
D10*
X50500000Y35500000D02*
X50500000Y36500000D01*
D10*
X50000000Y36500000D02*
X50000000Y36750000D01*
D10*
X50000000Y36750000D02*
X50500000Y36750000D01*
D10*
X50500000Y36750000D02*
X50500000Y37500000D01*
D10*
X40000000Y36500000D02*
X49500000Y36500000D01*
D10*
X49500000Y36500000D02*
X49500000Y36250000D01*
D10*
X49500000Y36250000D02*
X49750000Y36250000D01*
D10*
X49750000Y36250000D02*
X49750000Y34250000D01*
D10*
X49750000Y34250000D02*
X75250000Y34250000D01*
D10*
X75250000Y34250000D02*
X75250000Y31500000D01*
D10*
X75250000Y31500000D02*
X75500000Y31500000D01*
D10*
X75500000Y31500000D02*
X75500000Y31250000D01*
D10*
X75500000Y31250000D02*
X131750000Y31250000D01*
D10*
X131750000Y31250000D02*
X131750000Y32250000D01*
D10*
X131750000Y32250000D02*
X130000000Y32250000D01*
D10*
X130000000Y32250000D02*
X130000000Y33750000D01*
D10*
X50000000Y37250000D02*
X50000000Y37750000D01*
D10*
X50000000Y37750000D02*
X50500000Y37750000D01*
D10*
X50500000Y37750000D02*
X50500000Y38500000D01*
D10*
X130000000Y37250000D02*
X130000000Y34000000D01*
D10*
X130000000Y34000000D02*
X130500000Y34000000D01*
D10*
X130500000Y34000000D02*
X130500000Y32750000D01*
D10*
X130500000Y32750000D02*
X132000000Y32750000D01*
D10*
X132000000Y32750000D02*
X132000000Y32500000D01*
D10*
X132000000Y32500000D02*
X132250000Y32500000D01*
D10*
X132250000Y32500000D02*
X132250000Y31000000D01*
D10*
X132250000Y31000000D02*
X132000000Y31000000D01*
D10*
X132000000Y31000000D02*
X132000000Y30750000D01*
D10*
X132000000Y30750000D02*
X41000000Y30750000D01*
D10*
X41000000Y30750000D02*
X41000000Y31500000D01*
D10*
X40000000Y38000000D02*
X49750000Y38000000D01*
D10*
X49750000Y38000000D02*
X49750000Y38250000D01*
D10*
X49750000Y38250000D02*
X50000000Y38250000D01*
D10*
X50000000Y38250000D02*
X50000000Y38750000D01*
D10*
X50000000Y38750000D02*
X51000000Y38750000D01*
D10*
X51000000Y38750000D02*
X51000000Y35500000D01*
D10*
X82750000Y51250000D02*
X76750000Y51250000D01*
D10*
X76750000Y51250000D02*
X76750000Y65500000D01*
D10*
X76750000Y65500000D02*
X75750000Y65500000D01*
D10*
X75750000Y65500000D02*
X75750000Y39500000D01*
D10*
X75750000Y39500000D02*
X50000000Y39500000D01*
D10*
X130000000Y60250000D02*
X130000000Y78000000D01*
D11*
X12070000Y128000000D03*
X14610000Y128000000D03*
X17150000Y128000000D03*
X19690000Y128000000D03*
X22230000Y128000000D03*
X24770000Y128000000D03*
X27310000Y128000000D03*
X29850000Y128000000D03*
X32390000Y128000000D03*
X34930000Y128000000D03*
X37470000Y128000000D03*
X40010000Y128000000D03*
X42550000Y128000000D03*
X45090000Y128000000D03*
X47630000Y128000000D03*
X50170000Y128000000D03*
X52710000Y128000000D03*
X55250000Y128000000D03*
X57790000Y128000000D03*
X60330000Y128000000D03*
X62870000Y128000000D03*
X65410000Y128000000D03*
X67950000Y128000000D03*
X70490000Y128000000D03*
X73030000Y128000000D03*
X75570000Y128000000D03*
X78110000Y128000000D03*
X80650000Y128000000D03*
X83190000Y128000000D03*
X85730000Y128000000D03*
X88270000Y128000000D03*
X90810000Y128000000D03*
X93350000Y128000000D03*
X95890000Y128000000D03*
X98430000Y128000000D03*
X100970000Y128000000D03*
X103510000Y128000000D03*
X106050000Y128000000D03*
X108590000Y128000000D03*
X111130000Y128000000D03*
X113670000Y128000000D03*
X116210000Y128000000D03*
X118750000Y128000000D03*
X121290000Y128000000D03*
X123830000Y128000000D03*
X126370000Y128000000D03*
X128910000Y128000000D03*
X131450000Y128000000D03*
X133990000Y128000000D03*
X136530000Y128000000D03*
X139070000Y128000000D03*
X141610000Y128000000D03*
X144150000Y128000000D03*
X146690000Y128000000D03*
X149230000Y128000000D03*
X151770000Y128000000D03*
X154310000Y128000000D03*
X156850000Y128000000D03*
X159390000Y128000000D03*
X161930000Y128000000D03*
X12070000Y128000000D03*
X14610000Y128000000D03*
X17150000Y128000000D03*
X19690000Y128000000D03*
X22230000Y128000000D03*
X24770000Y128000000D03*
X27310000Y128000000D03*
X29850000Y128000000D03*
X32390000Y128000000D03*
X34930000Y128000000D03*
X37470000Y128000000D03*
X40010000Y128000000D03*
X42550000Y128000000D03*
X45090000Y128000000D03*
X47630000Y128000000D03*
X50170000Y128000000D03*
X52710000Y128000000D03*
X55250000Y128000000D03*
X57790000Y128000000D03*
X60330000Y128000000D03*
X62870000Y128000000D03*
X65410000Y128000000D03*
X67950000Y128000000D03*
X70490000Y128000000D03*
X73030000Y128000000D03*
X75570000Y128000000D03*
X78110000Y128000000D03*
X80650000Y128000000D03*
X83190000Y128000000D03*
X85730000Y128000000D03*
X88270000Y128000000D03*
X90810000Y128000000D03*
X93350000Y128000000D03*
X95890000Y128000000D03*
X98430000Y128000000D03*
X100970000Y128000000D03*
X103510000Y128000000D03*
X106050000Y128000000D03*
X108590000Y128000000D03*
X111130000Y128000000D03*
X113670000Y128000000D03*
X116210000Y128000000D03*
X118750000Y128000000D03*
X121290000Y128000000D03*
X123830000Y128000000D03*
X126370000Y128000000D03*
X128910000Y128000000D03*
X131450000Y128000000D03*
X133990000Y128000000D03*
X136530000Y128000000D03*
X139070000Y128000000D03*
X141610000Y128000000D03*
X144150000Y128000000D03*
X146690000Y128000000D03*
X149230000Y128000000D03*
X151770000Y128000000D03*
X154310000Y128000000D03*
X156850000Y128000000D03*
X159390000Y128000000D03*
X161930000Y128000000D03*
M02*
