%TF.GenerationSoftware,KiCad,Pcbnew,9.0.8+dfsg-1*%
%TF.CreationDate,2026-04-30T12:36:03+02:00*%
%TF.ProjectId,cha_adapter_routed,6368615f-6164-4617-9074-65725f726f75,rev?*%
%TF.SameCoordinates,Original*%
%TF.FileFunction,Copper,L1,Top*%
%TF.FilePolarity,Positive*%
%FSLAX46Y46*%
G04 Gerber Fmt 4.6, Leading zero omitted, Abs format (unit mm)*
G04 Created by KiCad (PCBNEW 9.0.8+dfsg-1) date 2026-04-30 12:36:03*
%MOMM*%
%LPD*%
G01*
G04 APERTURE LIST*
G04 Aperture macros list*
%AMRoundRect*
0 Rectangle with rounded corners*
0 $1 Rounding radius*
0 $2 $3 $4 $5 $6 $7 $8 $9 X,Y pos of 4 corners*
0 Add a 4 corners polygon primitive as box body*
4,1,4,$2,$3,$4,$5,$6,$7,$8,$9,$2,$3,0*
0 Add four circle primitives for the rounded corners*
1,1,$1+$1,$2,$3*
1,1,$1+$1,$4,$5*
1,1,$1+$1,$6,$7*
1,1,$1+$1,$8,$9*
0 Add four rect primitives between the rounded corners*
20,1,$1+$1,$2,$3,$4,$5,0*
20,1,$1+$1,$4,$5,$6,$7,0*
20,1,$1+$1,$6,$7,$8,$9,0*
20,1,$1+$1,$8,$9,$2,$3,0*%
G04 Aperture macros list end*
%TA.AperFunction,SMDPad,CuDef*%
%ADD10RoundRect,0.135000X0.185000X-0.135000X0.185000X0.135000X-0.185000X0.135000X-0.185000X-0.135000X0*%
%TD*%
%TA.AperFunction,SMDPad,CuDef*%
%ADD11RoundRect,0.150000X-0.825000X-0.150000X0.825000X-0.150000X0.825000X0.150000X-0.825000X0.150000X0*%
%TD*%
%TA.AperFunction,SMDPad,CuDef*%
%ADD12R,1.500000X10.000000*%
%TD*%
%TA.AperFunction,SMDPad,CuDef*%
%ADD13RoundRect,0.140000X-0.140000X-0.170000X0.140000X-0.170000X0.140000X0.170000X-0.140000X0.170000X0*%
%TD*%
%TA.AperFunction,SMDPad,CuDef*%
%ADD14RoundRect,0.250000X-0.250000X-0.475000X0.250000X-0.475000X0.250000X0.475000X-0.250000X0.475000X0*%
%TD*%
%TA.AperFunction,ComponentPad*%
%ADD15R,1.700000X1.700000*%
%TD*%
%TA.AperFunction,ComponentPad*%
%ADD16C,1.700000*%
%TD*%
%TA.AperFunction,ViaPad*%
%ADD17C,0.600000*%
%TD*%
%TA.AperFunction,Conductor*%
%ADD18C,0.200000*%
%TD*%
G04 APERTURE END LIST*
D10*
%TO.P,R15,1*%
%TO.N,P5*%
X22229999Y-100510000D03*
%TO.P,R15,2*%
%TO.N,P5_R*%
X22229999Y-99490000D03*
%TD*%
%TO.P,R37,1*%
%TO.N,SDA12*%
X149230000Y-100510000D03*
%TO.P,R37,2*%
%TO.N,SDA12_R*%
X149230000Y-99490000D03*
%TD*%
%TO.P,R35,1*%
%TO.N,SDA10*%
X144150000Y-105510000D03*
%TO.P,R35,2*%
%TO.N,SDA10_R*%
X144150000Y-104490000D03*
%TD*%
%TO.P,R17,1*%
%TO.N,P9*%
X27309999Y-105510000D03*
%TO.P,R17,2*%
%TO.N,P9_R*%
X27309999Y-104490000D03*
%TD*%
%TO.P,R32,1*%
%TO.N,SDA7*%
X136530000Y-105510000D03*
%TO.P,R32,2*%
%TO.N,SDA7_R*%
X136530000Y-104490000D03*
%TD*%
D11*
%TO.P,U1,1*%
%TO.N,LOAD_C*%
X52525000Y-30555000D03*
%TO.P,U1,2*%
%TO.N,CLK_C*%
X52525000Y-31825000D03*
%TO.P,U1,3*%
%TO.N,P8_R*%
X52525000Y-33095000D03*
%TO.P,U1,4*%
%TO.N,P6_R*%
X52525000Y-34365000D03*
%TO.P,U1,5*%
%TO.N,P4_R*%
X52525000Y-35635000D03*
%TO.P,U1,6*%
%TO.N,P2_R*%
X52525000Y-36905000D03*
%TO.P,U1,7*%
%TO.N,P0_R*%
X52525000Y-38175000D03*
%TO.P,U1,8*%
%TO.N,GND*%
X52525000Y-39445000D03*
%TO.P,U1,9*%
%TO.N,CSR1_OUT*%
X57475000Y-39445000D03*
%TO.P,U1,10*%
%TO.N,GND*%
X57475000Y-38175000D03*
%TO.P,U1,11*%
%TO.N,P14_R*%
X57475000Y-36905000D03*
%TO.P,U1,12*%
%TO.N,P12_R*%
X57475000Y-35635000D03*
%TO.P,U1,13*%
%TO.N,P10_R*%
X57475000Y-34365000D03*
%TO.P,U1,14*%
%TO.N,GND*%
X57475000Y-33095000D03*
%TO.P,U1,15*%
%TO.N,N/C*%
X57475000Y-31825000D03*
%TO.P,U1,16*%
%TO.N,VCC_5V*%
X57475000Y-30555000D03*
%TD*%
D12*
%TO.P,CTRG1,A1*%
%TO.N,GND*%
X12069999Y-129000000D03*
%TO.P,CTRG1,A2*%
X14609999Y-129000000D03*
%TO.P,CTRG1,A3*%
%TO.N,P0*%
X17149999Y-129000000D03*
%TO.P,CTRG1,A4*%
%TO.N,P2*%
X19689999Y-129000000D03*
%TO.P,CTRG1,A5*%
%TO.N,P4*%
X22229999Y-129000000D03*
%TO.P,CTRG1,A6*%
%TO.N,P6*%
X24769999Y-129000000D03*
%TO.P,CTRG1,A7*%
%TO.N,P8*%
X27309999Y-129000000D03*
%TO.P,CTRG1,A8*%
%TO.N,P10*%
X29849999Y-129000000D03*
%TO.P,CTRG1,A9*%
%TO.N,P12*%
X32389999Y-129000000D03*
%TO.P,CTRG1,A10*%
%TO.N,P14*%
X34929999Y-129000000D03*
%TO.P,CTRG1,A11*%
%TO.N,P16*%
X37469999Y-129000000D03*
%TO.P,CTRG1,A12*%
%TO.N,P18*%
X40009999Y-129000000D03*
%TO.P,CTRG1,A13*%
%TO.N,P20*%
X42549999Y-129000000D03*
%TO.P,CTRG1,A14*%
%TO.N,P22*%
X45089999Y-129000000D03*
%TO.P,CTRG1,A15*%
%TO.N,PCK1B*%
X47629999Y-129000000D03*
%TO.P,CTRG1,A16*%
%TO.N,PCK2B*%
X50169999Y-129000000D03*
%TO.P,CTRG1,A17*%
%TO.N,SIG_2H1*%
X52709999Y-129000000D03*
%TO.P,CTRG1,A18*%
%TO.N,CHA_CA4*%
X55249999Y-129000000D03*
%TO.P,CTRG1,A19*%
%TO.N,CR0*%
X57789999Y-129000000D03*
%TO.P,CTRG1,A20*%
%TO.N,CR2*%
X60329999Y-129000000D03*
%TO.P,CTRG1,A21*%
%TO.N,CR4*%
X62869999Y-129000000D03*
%TO.P,CTRG1,A22*%
%TO.N,CR6*%
X65409999Y-129000000D03*
%TO.P,CTRG1,A23*%
%TO.N,CR8*%
X67949999Y-129000000D03*
%TO.P,CTRG1,A24*%
%TO.N,CR10*%
X70489999Y-129000000D03*
%TO.P,CTRG1,A25*%
%TO.N,CR12*%
X73029999Y-129000000D03*
%TO.P,CTRG1,A26*%
%TO.N,CR14*%
X75569999Y-129000000D03*
%TO.P,CTRG1,A27*%
%TO.N,CR16*%
X78109999Y-129000000D03*
%TO.P,CTRG1,A28*%
%TO.N,CR18*%
X80649999Y-129000000D03*
%TO.P,CTRG1,A29*%
%TO.N,VCC_5V*%
X83189999Y-129000000D03*
%TO.P,CTRG1,A30*%
X85729999Y-129000000D03*
%TO.P,CTRG1,A31*%
X88269999Y-129000000D03*
%TO.P,CTRG1,A32*%
X90809999Y-129000000D03*
%TO.P,CTRG1,A33*%
%TO.N,CR20*%
X93349999Y-129000000D03*
%TO.P,CTRG1,A34*%
%TO.N,CR22*%
X95889999Y-129000000D03*
%TO.P,CTRG1,A35*%
%TO.N,CR24*%
X98429999Y-129000000D03*
%TO.P,CTRG1,A36*%
%TO.N,CR26*%
X100969999Y-129000000D03*
%TO.P,CTRG1,A37*%
%TO.N,CR28*%
X103509999Y-129000000D03*
%TO.P,CTRG1,A38*%
%TO.N,CR30*%
X106049999Y-129000000D03*
%TO.P,CTRG1,A39*%
%TO.N,N/C*%
X108589999Y-129000000D03*
%TO.P,CTRG1,A40*%
X111129999Y-129000000D03*
%TO.P,CTRG1,A41*%
X113669999Y-129000000D03*
%TO.P,CTRG1,A42*%
%TO.N,SYSTEMB*%
X116209999Y-129000000D03*
%TO.P,CTRG1,A43*%
%TO.N,SDA0*%
X118749999Y-129000000D03*
%TO.P,CTRG1,A44*%
%TO.N,SDA1*%
X121289999Y-129000000D03*
%TO.P,CTRG1,A45*%
%TO.N,SDA2*%
X123829999Y-129000000D03*
%TO.P,CTRG1,A46*%
%TO.N,SDA3*%
X126369999Y-129000000D03*
%TO.P,CTRG1,A47*%
%TO.N,SDA4*%
X128909999Y-129000000D03*
%TO.P,CTRG1,A48*%
%TO.N,SDA5*%
X131449999Y-129000000D03*
%TO.P,CTRG1,A49*%
%TO.N,SDA6*%
X133989999Y-129000000D03*
%TO.P,CTRG1,A50*%
%TO.N,SDA7*%
X136529999Y-129000000D03*
%TO.P,CTRG1,A51*%
%TO.N,SDA8*%
X139069999Y-129000000D03*
%TO.P,CTRG1,A52*%
%TO.N,SDA9*%
X141609998Y-129000000D03*
%TO.P,CTRG1,A53*%
%TO.N,SDA10*%
X144149999Y-129000000D03*
%TO.P,CTRG1,A54*%
%TO.N,SDA11*%
X146689999Y-129000000D03*
%TO.P,CTRG1,A55*%
%TO.N,SDA12*%
X149229999Y-129000000D03*
%TO.P,CTRG1,A56*%
%TO.N,SDA13*%
X151769999Y-129000000D03*
%TO.P,CTRG1,A57*%
%TO.N,SDA14*%
X154309999Y-129000000D03*
%TO.P,CTRG1,A58*%
%TO.N,GND*%
X156849999Y-129000000D03*
%TO.P,CTRG1,A59*%
X159389999Y-129000000D03*
%TO.P,CTRG1,A60*%
X161929999Y-129000000D03*
%TD*%
D10*
%TO.P,R9,1*%
%TO.N,P16*%
X37469999Y-110510000D03*
%TO.P,R9,2*%
%TO.N,P16_R*%
X37469999Y-109490000D03*
%TD*%
%TO.P,R36,1*%
%TO.N,SDA11*%
X146690000Y-110510000D03*
%TO.P,R36,2*%
%TO.N,SDA11_R*%
X146690000Y-109490000D03*
%TD*%
%TO.P,R13,1*%
%TO.N,P1*%
X78000000Y-110510000D03*
%TO.P,R13,2*%
%TO.N,P1_R*%
X78000000Y-109490000D03*
%TD*%
D13*
%TO.P,C5,1*%
%TO.N,VCC_5V*%
X112520000Y-50000000D03*
%TO.P,C5,2*%
%TO.N,GND*%
X113480000Y-50000000D03*
%TD*%
D10*
%TO.P,R11,1*%
%TO.N,P20*%
X42550000Y-100510000D03*
%TO.P,R11,2*%
%TO.N,P20_R*%
X42550000Y-99490000D03*
%TD*%
D11*
%TO.P,U4,1*%
%TO.N,LOAD_S*%
X117525000Y-30555000D03*
%TO.P,U4,2*%
%TO.N,CLK_S*%
X117525000Y-31825000D03*
%TO.P,U4,3*%
%TO.N,SDA4_R*%
X117525000Y-33095000D03*
%TO.P,U4,4*%
%TO.N,SDA3_R*%
X117525000Y-34365000D03*
%TO.P,U4,5*%
%TO.N,SDA2_R*%
X117525000Y-35635000D03*
%TO.P,U4,6*%
%TO.N,SDA1_R*%
X117525000Y-36905000D03*
%TO.P,U4,7*%
%TO.N,SDA0_R*%
X117525000Y-38175000D03*
%TO.P,U4,8*%
%TO.N,GND*%
X117525000Y-39445000D03*
%TO.P,U4,9*%
%TO.N,SSR1_OUT*%
X122475000Y-39445000D03*
%TO.P,U4,10*%
%TO.N,GND*%
X122475000Y-38175000D03*
%TO.P,U4,11*%
%TO.N,SDA7_R*%
X122475000Y-36905000D03*
%TO.P,U4,12*%
%TO.N,SDA6_R*%
X122475000Y-35635000D03*
%TO.P,U4,13*%
%TO.N,SDA5_R*%
X122475000Y-34365000D03*
%TO.P,U4,14*%
%TO.N,GND*%
X122475000Y-33095000D03*
%TO.P,U4,15*%
%TO.N,N/C*%
X122475000Y-31825000D03*
%TO.P,U4,16*%
%TO.N,VCC_5V*%
X122475000Y-30555000D03*
%TD*%
D10*
%TO.P,R29,1*%
%TO.N,SDA4*%
X128910000Y-105510000D03*
%TO.P,R29,2*%
%TO.N,SDA4_R*%
X128910000Y-104490000D03*
%TD*%
D11*
%TO.P,U2,1*%
%TO.N,LOAD_C*%
X52525000Y-50555000D03*
%TO.P,U2,2*%
%TO.N,CLK_C*%
X52525000Y-51825000D03*
%TO.P,U2,3*%
%TO.N,P1_R*%
X52525000Y-53095000D03*
%TO.P,U2,4*%
%TO.N,P22_R*%
X52525000Y-54365000D03*
%TO.P,U2,5*%
%TO.N,P20_R*%
X52525000Y-55635000D03*
%TO.P,U2,6*%
%TO.N,P18_R*%
X52525000Y-56905000D03*
%TO.P,U2,7*%
%TO.N,P16_R*%
X52525000Y-58175000D03*
%TO.P,U2,8*%
%TO.N,GND*%
X52525000Y-59445000D03*
%TO.P,U2,9*%
%TO.N,CSR2_OUT*%
X57475000Y-59445000D03*
%TO.P,U2,10*%
%TO.N,CSR1_OUT*%
X57475000Y-58175000D03*
%TO.P,U2,11*%
%TO.N,P7_R*%
X57475000Y-56905000D03*
%TO.P,U2,12*%
%TO.N,P5_R*%
X57475000Y-55635000D03*
%TO.P,U2,13*%
%TO.N,P3_R*%
X57475000Y-54365000D03*
%TO.P,U2,14*%
%TO.N,GND*%
X57475000Y-53095000D03*
%TO.P,U2,15*%
%TO.N,N/C*%
X57475000Y-51825000D03*
%TO.P,U2,16*%
%TO.N,VCC_5V*%
X57475000Y-50555000D03*
%TD*%
D10*
%TO.P,R34,1*%
%TO.N,SDA9*%
X141610000Y-100510000D03*
%TO.P,R34,2*%
%TO.N,SDA9_R*%
X141610000Y-99490000D03*
%TD*%
D13*
%TO.P,C4,1*%
%TO.N,VCC_5V*%
X112520000Y-30000000D03*
%TO.P,C4,2*%
%TO.N,GND*%
X113480000Y-30000000D03*
%TD*%
D10*
%TO.P,R22,1*%
%TO.N,P19*%
X40009999Y-110510000D03*
%TO.P,R22,2*%
%TO.N,P19_R*%
X40009999Y-109490000D03*
%TD*%
%TO.P,R14,1*%
%TO.N,P3*%
X19689999Y-105510000D03*
%TO.P,R14,2*%
%TO.N,P3_R*%
X19689999Y-104490000D03*
%TD*%
%TO.P,R26,1*%
%TO.N,SDA1*%
X121289999Y-105510000D03*
%TO.P,R26,2*%
%TO.N,SDA1_R*%
X121289999Y-104490000D03*
%TD*%
%TO.P,R25,1*%
%TO.N,SDA0*%
X118750000Y-100510000D03*
%TO.P,R25,2*%
%TO.N,SDA0_R*%
X118750000Y-99490000D03*
%TD*%
%TO.P,R6,1*%
%TO.N,P10*%
X29849999Y-110510000D03*
%TO.P,R6,2*%
%TO.N,P10_R*%
X29849999Y-109490000D03*
%TD*%
%TO.P,R24,1*%
%TO.N,P23*%
X45090000Y-100510000D03*
%TO.P,R24,2*%
%TO.N,P23_R*%
X45090000Y-99490000D03*
%TD*%
%TO.P,R12,1*%
%TO.N,P22*%
X45090000Y-110510000D03*
%TO.P,R12,2*%
%TO.N,P22_R*%
X45090000Y-109490000D03*
%TD*%
%TO.P,R10,1*%
%TO.N,P18*%
X40009999Y-105510000D03*
%TO.P,R10,2*%
%TO.N,P18_R*%
X40009999Y-104490000D03*
%TD*%
%TO.P,R31,1*%
%TO.N,SDA6*%
X133990000Y-100510000D03*
%TO.P,R31,2*%
%TO.N,SDA6_R*%
X133990000Y-99490000D03*
%TD*%
D14*
%TO.P,C6,1*%
%TO.N,VCC_5V*%
X14050000Y-110000000D03*
%TO.P,C6,2*%
%TO.N,GND*%
X15950000Y-110000000D03*
%TD*%
D13*
%TO.P,C3,1*%
%TO.N,VCC_5V*%
X47520000Y-70000000D03*
%TO.P,C3,2*%
%TO.N,GND*%
X48480000Y-70000000D03*
%TD*%
D10*
%TO.P,R1,1*%
%TO.N,P0*%
X50000000Y-105510000D03*
%TO.P,R1,2*%
%TO.N,P0_R*%
X50000000Y-104490000D03*
%TD*%
%TO.P,R19,1*%
%TO.N,P13*%
X32389999Y-110510000D03*
%TO.P,R19,2*%
%TO.N,P13_R*%
X32389999Y-109490000D03*
%TD*%
%TO.P,R5,1*%
%TO.N,P8*%
X27309999Y-100510000D03*
%TO.P,R5,2*%
%TO.N,P8_R*%
X27309999Y-99490000D03*
%TD*%
%TO.P,R3,1*%
%TO.N,P4*%
X22229999Y-110510000D03*
%TO.P,R3,2*%
%TO.N,P4_R*%
X22229999Y-109490000D03*
%TD*%
%TO.P,R27,1*%
%TO.N,SDA2*%
X123830000Y-110510000D03*
%TO.P,R27,2*%
%TO.N,SDA2_R*%
X123830000Y-109490000D03*
%TD*%
%TO.P,R8,1*%
%TO.N,P14*%
X34929999Y-100510000D03*
%TO.P,R8,2*%
%TO.N,P14_R*%
X34929999Y-99490000D03*
%TD*%
%TO.P,R30,1*%
%TO.N,SDA5*%
X131449999Y-110510000D03*
%TO.P,R30,2*%
%TO.N,SDA5_R*%
X131449999Y-109490000D03*
%TD*%
%TO.P,R40,1*%
%TO.N,SDA15*%
X154310000Y-100510000D03*
%TO.P,R40,2*%
%TO.N,SDA15_R*%
X154310000Y-99490000D03*
%TD*%
%TO.P,R33,1*%
%TO.N,SDA8*%
X139070000Y-110510000D03*
%TO.P,R33,2*%
%TO.N,SDA8_R*%
X139070000Y-109490000D03*
%TD*%
D11*
%TO.P,U3,1*%
%TO.N,LOAD_C*%
X52525000Y-70555000D03*
%TO.P,U3,2*%
%TO.N,CLK_C*%
X52525000Y-71825000D03*
%TO.P,U3,3*%
%TO.N,P17_R*%
X52525000Y-73095000D03*
%TO.P,U3,4*%
%TO.N,P15_R*%
X52525000Y-74365000D03*
%TO.P,U3,5*%
%TO.N,P13_R*%
X52525000Y-75635000D03*
%TO.P,U3,6*%
%TO.N,P11_R*%
X52525000Y-76905000D03*
%TO.P,U3,7*%
%TO.N,P9_R*%
X52525000Y-78175000D03*
%TO.P,U3,8*%
%TO.N,GND*%
X52525000Y-79445000D03*
%TO.P,U3,9*%
%TO.N,SER_C*%
X57475000Y-79445000D03*
%TO.P,U3,10*%
%TO.N,CSR2_OUT*%
X57475000Y-78175000D03*
%TO.P,U3,11*%
%TO.N,P23_R*%
X57475000Y-76905000D03*
%TO.P,U3,12*%
%TO.N,P21_R*%
X57475000Y-75635000D03*
%TO.P,U3,13*%
%TO.N,P19_R*%
X57475000Y-74365000D03*
%TO.P,U3,14*%
%TO.N,GND*%
X57475000Y-73095000D03*
%TO.P,U3,15*%
%TO.N,N/C*%
X57475000Y-71825000D03*
%TO.P,U3,16*%
%TO.N,VCC_5V*%
X57475000Y-70555000D03*
%TD*%
D10*
%TO.P,R28,1*%
%TO.N,SDA3*%
X126369999Y-100510000D03*
%TO.P,R28,2*%
%TO.N,SDA3_R*%
X126369999Y-99490000D03*
%TD*%
%TO.P,R18,1*%
%TO.N,P11*%
X29849999Y-100510000D03*
%TO.P,R18,2*%
%TO.N,P11_R*%
X29849999Y-99490000D03*
%TD*%
%TO.P,R2,1*%
%TO.N,P2*%
X19689999Y-100510000D03*
%TO.P,R2,2*%
%TO.N,P2_R*%
X19689999Y-99490000D03*
%TD*%
%TO.P,R21,1*%
%TO.N,P17*%
X37469999Y-100510000D03*
%TO.P,R21,2*%
%TO.N,P17_R*%
X37469999Y-99490000D03*
%TD*%
%TO.P,R39,1*%
%TO.N,SDA14*%
X154310000Y-110510000D03*
%TO.P,R39,2*%
%TO.N,SDA14_R*%
X154310000Y-109490000D03*
%TD*%
%TO.P,R38,1*%
%TO.N,SDA13*%
X151769999Y-105510000D03*
%TO.P,R38,2*%
%TO.N,SDA13_R*%
X151769999Y-104490000D03*
%TD*%
%TO.P,R20,1*%
%TO.N,P15*%
X34929999Y-105510000D03*
%TO.P,R20,2*%
%TO.N,P15_R*%
X34929999Y-104490000D03*
%TD*%
D11*
%TO.P,U5,1*%
%TO.N,LOAD_S*%
X117525000Y-50555000D03*
%TO.P,U5,2*%
%TO.N,CLK_S*%
X117525000Y-51825000D03*
%TO.P,U5,3*%
%TO.N,SDA12_R*%
X117525000Y-53095000D03*
%TO.P,U5,4*%
%TO.N,SDA11_R*%
X117525000Y-54365000D03*
%TO.P,U5,5*%
%TO.N,SDA10_R*%
X117525000Y-55635000D03*
%TO.P,U5,6*%
%TO.N,SDA9_R*%
X117525000Y-56905000D03*
%TO.P,U5,7*%
%TO.N,SDA8_R*%
X117525000Y-58175000D03*
%TO.P,U5,8*%
%TO.N,GND*%
X117525000Y-59445000D03*
%TO.P,U5,9*%
%TO.N,SER_S*%
X122475000Y-59445000D03*
%TO.P,U5,10*%
%TO.N,SSR1_OUT*%
X122475000Y-58175000D03*
%TO.P,U5,11*%
%TO.N,SDA15_R*%
X122475000Y-56905000D03*
%TO.P,U5,12*%
%TO.N,SDA14_R*%
X122475000Y-55635000D03*
%TO.P,U5,13*%
%TO.N,SDA13_R*%
X122475000Y-54365000D03*
%TO.P,U5,14*%
%TO.N,GND*%
X122475000Y-53095000D03*
%TO.P,U5,15*%
%TO.N,N/C*%
X122475000Y-51825000D03*
%TO.P,U5,16*%
%TO.N,VCC_5V*%
X122475000Y-50555000D03*
%TD*%
D10*
%TO.P,R4,1*%
%TO.N,P6*%
X24769999Y-105510000D03*
%TO.P,R4,2*%
%TO.N,P6_R*%
X24769999Y-104490000D03*
%TD*%
%TO.P,R16,1*%
%TO.N,P7*%
X24769999Y-110510000D03*
%TO.P,R16,2*%
%TO.N,P7_R*%
X24769999Y-109490000D03*
%TD*%
D13*
%TO.P,C1,1*%
%TO.N,VCC_5V*%
X47520000Y-30000000D03*
%TO.P,C1,2*%
%TO.N,GND*%
X48480000Y-30000000D03*
%TD*%
D10*
%TO.P,R7,1*%
%TO.N,P12*%
X32389999Y-105510000D03*
%TO.P,R7,2*%
%TO.N,P12_R*%
X32389999Y-104490000D03*
%TD*%
D13*
%TO.P,C2,1*%
%TO.N,VCC_5V*%
X47520000Y-50000000D03*
%TO.P,C2,2*%
%TO.N,GND*%
X48480000Y-50000000D03*
%TD*%
D15*
%TO.P,J2,1*%
%TO.N,VCC_3V3*%
X87000000Y-7000000D03*
D16*
%TO.P,J2,2*%
X89540000Y-7000000D03*
%TO.P,J2,3*%
%TO.N,VCC_5V*%
X87000000Y-9540000D03*
%TO.P,J2,4*%
X89540000Y-9540000D03*
%TO.P,J2,5*%
%TO.N,GND*%
X87000000Y-12080000D03*
%TO.P,J2,6*%
X89540000Y-12080000D03*
%TO.P,J2,7*%
X87000000Y-14620000D03*
%TO.P,J2,8*%
X89540000Y-14620000D03*
%TO.P,J2,9*%
%TO.N,CR0*%
X87000000Y-17160000D03*
%TO.P,J2,10*%
%TO.N,CR1*%
X89540000Y-17160000D03*
%TO.P,J2,11*%
%TO.N,CR2*%
X87000000Y-19700000D03*
%TO.P,J2,12*%
%TO.N,CR3*%
X89540000Y-19700000D03*
%TO.P,J2,13*%
%TO.N,CR4*%
X87000000Y-22240000D03*
%TO.P,J2,14*%
%TO.N,CR5*%
X89540000Y-22240000D03*
%TO.P,J2,15*%
%TO.N,CR6*%
X87000000Y-24780000D03*
%TO.P,J2,16*%
%TO.N,CR7*%
X89540000Y-24780000D03*
%TO.P,J2,17*%
%TO.N,CR8*%
X87000000Y-27320000D03*
%TO.P,J2,18*%
%TO.N,CR9*%
X89540000Y-27320000D03*
%TO.P,J2,19*%
%TO.N,CR10*%
X87000000Y-29860000D03*
%TO.P,J2,20*%
%TO.N,CR11*%
X89540000Y-29860000D03*
%TO.P,J2,21*%
%TO.N,CR12*%
X87000000Y-32400000D03*
%TO.P,J2,22*%
%TO.N,CR13*%
X89540000Y-32400000D03*
%TO.P,J2,23*%
%TO.N,CR14*%
X87000000Y-34940000D03*
%TO.P,J2,24*%
%TO.N,CR15*%
X89540000Y-34940000D03*
%TO.P,J2,25*%
%TO.N,CR16*%
X87000000Y-37480000D03*
%TO.P,J2,26*%
%TO.N,CR17*%
X89540000Y-37480000D03*
%TO.P,J2,27*%
%TO.N,CR18*%
X87000000Y-40020000D03*
%TO.P,J2,28*%
%TO.N,CR19*%
X89540000Y-40020000D03*
%TO.P,J2,29*%
%TO.N,CR20*%
X87000000Y-42560000D03*
%TO.P,J2,30*%
%TO.N,CR21*%
X89540000Y-42560000D03*
%TO.P,J2,31*%
%TO.N,CR22*%
X87000000Y-45100000D03*
%TO.P,J2,32*%
%TO.N,CR23*%
X89540000Y-45100000D03*
%TO.P,J2,33*%
%TO.N,CR24*%
X87000000Y-47640000D03*
%TO.P,J2,34*%
%TO.N,CR25*%
X89540000Y-47640000D03*
%TO.P,J2,35*%
%TO.N,CR26*%
X87000000Y-50180000D03*
%TO.P,J2,36*%
%TO.N,CR27*%
X89540000Y-50180000D03*
%TO.P,J2,37*%
%TO.N,CR28*%
X87000000Y-52720000D03*
%TO.P,J2,38*%
%TO.N,CR29*%
X89540000Y-52720000D03*
%TO.P,J2,39*%
%TO.N,CR30*%
X87000000Y-55260000D03*
%TO.P,J2,40*%
%TO.N,CR31*%
X89540000Y-55260000D03*
%TO.P,J2,41*%
%TO.N,SDD0*%
X87000000Y-57800000D03*
%TO.P,J2,42*%
%TO.N,SDD1*%
X89540000Y-57800000D03*
%TO.P,J2,43*%
%TO.N,SDD2*%
X87000000Y-60340000D03*
%TO.P,J2,44*%
%TO.N,SDD3*%
X89540000Y-60340000D03*
%TO.P,J2,45*%
%TO.N,SDD4*%
X87000000Y-62880000D03*
%TO.P,J2,46*%
%TO.N,SDD5*%
X89540000Y-62880000D03*
%TO.P,J2,47*%
%TO.N,SDD6*%
X87000000Y-65420000D03*
%TO.P,J2,48*%
%TO.N,SDD7*%
X89540000Y-65420000D03*
%TO.P,J2,49*%
%TO.N,FIX0*%
X87000000Y-67960000D03*
%TO.P,J2,50*%
%TO.N,FIX1*%
X89540000Y-67960000D03*
%TO.P,J2,51*%
%TO.N,FIX2*%
X87000000Y-70500000D03*
%TO.P,J2,52*%
%TO.N,FIX3*%
X89540000Y-70500000D03*
%TO.P,J2,53*%
%TO.N,FIX4*%
X87000000Y-73040000D03*
%TO.P,J2,54*%
%TO.N,FIX5*%
X89540000Y-73040000D03*
%TO.P,J2,55*%
%TO.N,FIX6*%
X87000000Y-75580000D03*
%TO.P,J2,56*%
%TO.N,FIX7*%
X89540000Y-75580000D03*
%TO.P,J2,57*%
%TO.N,SER_C*%
X87000000Y-78120000D03*
%TO.P,J2,58*%
%TO.N,CLK_C*%
X89540000Y-78120000D03*
%TO.P,J2,59*%
%TO.N,LOAD_C*%
X87000000Y-80660000D03*
%TO.P,J2,60*%
%TO.N,SER_S*%
X89540000Y-80660000D03*
%TO.P,J2,61*%
%TO.N,CLK_S*%
X87000000Y-83200000D03*
%TO.P,J2,62*%
%TO.N,LOAD_S*%
X89540000Y-83200000D03*
%TO.P,J2,63*%
%TO.N,PCK1B*%
X87000000Y-85740000D03*
%TO.P,J2,64*%
%TO.N,PCK2B*%
X89540000Y-85740000D03*
%TO.P,J2,65*%
%TO.N,CLK24M*%
X87000000Y-88280000D03*
%TO.P,J2,66*%
%TO.N,CLK12M*%
X89540000Y-88280000D03*
%TO.P,J2,67*%
%TO.N,CLK8M*%
X87000000Y-90820000D03*
%TO.P,J2,68*%
%TO.N,SIG_2H1*%
X89540000Y-90820000D03*
%TO.P,J2,69*%
%TO.N,CHA_CA4*%
X87000000Y-93360000D03*
%TO.P,J2,70*%
%TO.N,SYSTEMB*%
X89540000Y-93360000D03*
%TO.P,J2,71*%
%TO.N,SDMRD_CHA*%
X87000000Y-95900000D03*
%TO.P,J2,72*%
%TO.N,SDROM*%
X89540000Y-95900000D03*
%TO.P,J2,73*%
%TO.N,RESET_CHA*%
X87000000Y-98440000D03*
%TO.P,J2,74*%
%TO.N,GND*%
X89540000Y-98440000D03*
%TO.P,J2,75*%
X87000000Y-100980000D03*
%TO.P,J2,76*%
X89540000Y-100980000D03*
%TO.P,J2,77*%
X87000000Y-103520000D03*
%TO.P,J2,78*%
X89540000Y-103520000D03*
%TO.P,J2,79*%
X87000000Y-106060000D03*
%TO.P,J2,80*%
X89540000Y-106060000D03*
%TD*%
D10*
%TO.P,R23,1*%
%TO.N,P21*%
X42550000Y-105510000D03*
%TO.P,R23,2*%
%TO.N,P21_R*%
X42550000Y-104490000D03*
%TD*%
D17*
%TO.N,GND*%
X13340100Y-126349100D03*
X41600100Y-83144600D03*
X15950000Y-84372600D03*
X85431500Y-84529400D03*
X119868500Y-119795000D03*
X113480000Y-31506100D03*
X92645000Y-97034200D03*
X46994800Y-84133900D03*
X160659900Y-127674500D03*
%TO.N,VCC_5V*%
X60489400Y-118696700D03*
X60341200Y-49406500D03*
X112520000Y-49104400D03*
X122474300Y-49104400D03*
X57343600Y-9540000D03*
X47520000Y-70837000D03*
X59508700Y-111058300D03*
X55655900Y-69982600D03*
X57475000Y-49696500D03*
X84459900Y-126349100D03*
X60341200Y-69982600D03*
X14050000Y-111245700D03*
%TO.N,CR1*%
X57167500Y-123159300D03*
%TO.N,CR3*%
X61329300Y-123330300D03*
%TO.N,CR5*%
X59720000Y-119643900D03*
X61092200Y-23510000D03*
%TO.N,CR7*%
X66680000Y-123698300D03*
%TO.N,CR9*%
X69220000Y-123698300D03*
%TO.N,CR11*%
X71760000Y-123698300D03*
%TO.N,CR13*%
X74300000Y-123698300D03*
%TO.N,CR15*%
X76669800Y-123626400D03*
%TO.N,CR17*%
X78892200Y-123447600D03*
%TO.N,CR19*%
X81713800Y-123595100D03*
%TO.N,CR21*%
X93817200Y-123463700D03*
%TO.N,CR23*%
X94686000Y-123698300D03*
X83720700Y-49279600D03*
%TO.N,CR25*%
X98101700Y-123005900D03*
%TO.N,CR27*%
X82315500Y-122358300D03*
X82315500Y-51450000D03*
%TO.N,CR29*%
X104780000Y-123698300D03*
%TO.N,CR30*%
X90953500Y-57215000D03*
%TO.N,CR31*%
X107320000Y-123698300D03*
%TO.N,SDD0*%
X104044800Y-110010900D03*
%TO.N,SDD1*%
X132595800Y-57823500D03*
X132595800Y-123085400D03*
%TO.N,SDD2*%
X131984600Y-121824400D03*
X124878200Y-59978400D03*
%TO.N,SDD3*%
X137800000Y-60580100D03*
X137800000Y-123698300D03*
%TO.N,SDD4*%
X140340000Y-66076600D03*
X140340000Y-127730000D03*
%TO.N,SDD5*%
X142880000Y-66746100D03*
X142880000Y-127730000D03*
%TO.N,SDD6*%
X145420000Y-123698300D03*
X145420000Y-72773800D03*
%TO.N,SDD7*%
X104446500Y-110823900D03*
%TO.N,FIX0*%
X103521500Y-121224700D03*
%TO.N,FIX1*%
X109860000Y-127730000D03*
X109860000Y-73577200D03*
%TO.N,FIX2*%
X105750000Y-73832600D03*
X105751600Y-122274100D03*
%TO.N,FIX3*%
X103930800Y-122652900D03*
%TO.N,FIX4*%
X117245200Y-123458500D03*
X110558800Y-74534700D03*
%TO.N,FIX5*%
X101884900Y-121728400D03*
%TO.N,FIX6*%
X96492900Y-120585600D03*
%TO.N,FIX7*%
X98600300Y-119837000D03*
%TO.N,P0*%
X17150000Y-111732700D03*
X50000000Y-111732700D03*
%TO.N,P1*%
X77282700Y-93830100D03*
%TO.N,P3*%
X20498200Y-123468500D03*
%TO.N,P5*%
X21555600Y-122949500D03*
%TO.N,P7*%
X24770000Y-123485600D03*
%TO.N,P9*%
X27310000Y-122813800D03*
%TO.N,P11*%
X29173100Y-123467300D03*
%TO.N,P13*%
X33769000Y-120849700D03*
%TO.N,P15*%
X35552500Y-123159300D03*
%TO.N,P17*%
X31563500Y-116694000D03*
%TO.N,P19*%
X40010000Y-123468500D03*
%TO.N,P21*%
X42550000Y-123468500D03*
%TO.N,P23*%
X44412000Y-123468500D03*
%TO.N,P0_R*%
X55225800Y-70686500D03*
X49180600Y-70776100D03*
%TO.N,P1_R*%
X53469100Y-49615500D03*
X78172100Y-48790400D03*
%TO.N,P3_R*%
X55776000Y-55700300D03*
X21417700Y-62013300D03*
%TO.N,P5_R*%
X56107100Y-61267600D03*
X22230000Y-61267600D03*
%TO.N,P6_R*%
X33774500Y-47934800D03*
X34931100Y-53198200D03*
%TO.N,P7_R*%
X58967200Y-56778100D03*
X28146300Y-60561000D03*
%TO.N,P9_R*%
X46688700Y-82890800D03*
X26671900Y-82542900D03*
%TO.N,P10_R*%
X56590700Y-45977900D03*
X40232500Y-49615500D03*
%TO.N,P11_R*%
X30032500Y-77170000D03*
X50992600Y-77170000D03*
%TO.N,P12_R*%
X44670500Y-46165000D03*
X54984700Y-43099900D03*
%TO.N,P14_R*%
X55343600Y-50906300D03*
X37017000Y-54695600D03*
%TO.N,P19_R*%
X41797200Y-103583200D03*
X55087000Y-103583200D03*
%TO.N,P21_R*%
X42550000Y-102778700D03*
X55688700Y-102778700D03*
%TO.N,P22_R*%
X54007500Y-53220400D03*
X49551300Y-83945700D03*
X45478600Y-78620900D03*
X45478600Y-53220400D03*
%TO.N,P23_R*%
X45090000Y-96821200D03*
X56300600Y-96821200D03*
%TO.N,SDA15*%
X154934000Y-123085400D03*
%TO.N,SDA0_R*%
X110558800Y-45925100D03*
X118802300Y-45925100D03*
%TO.N,SDA4_R*%
X126287300Y-91100800D03*
X116311700Y-90759200D03*
%TO.N,SDA6_R*%
X125313300Y-53921400D03*
X133990000Y-58272800D03*
%TO.N,SDA8_R*%
X118821400Y-96821200D03*
X139070000Y-96821200D03*
%TO.N,SDA9_R*%
X116883900Y-76740700D03*
X141610000Y-76740700D03*
%TO.N,SDA10_R*%
X144150000Y-87078700D03*
X116883900Y-87078700D03*
%TO.N,SDA11_R*%
X119423200Y-81909700D03*
X146690000Y-81909700D03*
%TO.N,SDA12_R*%
X115730200Y-87874300D03*
X149230000Y-87874300D03*
%TO.N,SDA13_R*%
X128322700Y-89737800D03*
X149863000Y-89737800D03*
%TO.N,SDA14_R*%
X153393300Y-93838900D03*
X129081100Y-90365100D03*
%TO.N,SDA15_R*%
X128415900Y-88669900D03*
X154310000Y-88669900D03*
%TO.N,PCK1B*%
X47869800Y-86097200D03*
%TO.N,PCK2B*%
X52194400Y-87101600D03*
%TO.N,SIG_2H1*%
X59563400Y-117197800D03*
%TO.N,CHA_CA4*%
X58467000Y-118737500D03*
%TO.N,SYSTEMB*%
X116590700Y-99803500D03*
%TO.N,SER_C*%
X59050500Y-78927200D03*
%TO.N,CLK_C*%
X54015600Y-51523500D03*
X52217200Y-62891200D03*
%TO.N,LOAD_C*%
X52525000Y-69184900D03*
X54775900Y-54143400D03*
X54007700Y-57572100D03*
%TO.N,SER_S*%
X126629400Y-75945100D03*
%TO.N,CLK_S*%
X115085200Y-81928400D03*
%TO.N,LOAD_S*%
X114444700Y-83200000D03*
%TD*%
D18*
%TO.N,GND*%
X57928300Y-33095000D02*
X58752300Y-33919000D01*
X14610000Y-129000000D02*
X14610000Y-123698300D01*
X89540000Y-106060000D02*
X89540000Y-103520000D01*
X122130200Y-38175000D02*
X122475000Y-38175000D01*
X57883000Y-73095000D02*
X58752300Y-72225700D01*
X56028000Y-42724300D02*
X55796000Y-42492300D01*
X55174300Y-56749500D02*
X55174300Y-55051000D01*
X116536300Y-33730000D02*
X118619900Y-33730000D01*
X118189100Y-97900600D02*
X119868500Y-99580000D01*
X12070000Y-129000000D02*
X12070000Y-123698300D01*
X89540000Y-98440000D02*
X88388300Y-97288300D01*
X123781800Y-33993400D02*
X123781800Y-34697900D01*
X44647800Y-80492000D02*
X44730400Y-80492000D01*
X119254900Y-33095000D02*
X119254900Y-30056100D01*
X122475000Y-38175000D02*
X122863700Y-38175000D01*
X57475000Y-73095000D02*
X57883000Y-73095000D01*
X46838100Y-78384300D02*
X46838100Y-74103400D01*
X118189100Y-92033500D02*
X118189100Y-97900600D01*
X122475000Y-33095000D02*
X122883400Y-33095000D01*
X49219400Y-50000000D02*
X48480000Y-50000000D01*
X119868500Y-99580000D02*
X119868500Y-119795000D01*
X159390000Y-126349100D02*
X159390000Y-123698300D01*
X55796000Y-43787300D02*
X56028000Y-43555300D01*
X58752300Y-33919000D02*
X58752300Y-34998500D01*
X122883400Y-33095000D02*
X123781800Y-33993400D01*
X117525000Y-91369400D02*
X116021800Y-91369400D01*
X113480000Y-31506100D02*
X113480000Y-50000000D01*
X58755000Y-52160800D02*
X58755000Y-50118300D01*
X116236500Y-34029800D02*
X116536300Y-33730000D01*
X58752300Y-34998500D02*
X58752300Y-37273500D01*
X51183500Y-55346700D02*
X51183500Y-58531600D01*
X161009700Y-123698300D02*
X160660000Y-124048000D01*
X86621900Y-89550000D02*
X85431500Y-88359600D01*
X52525000Y-59445000D02*
X52311000Y-59659000D01*
X116464700Y-38779000D02*
X116236500Y-38550800D01*
X116236500Y-38550800D02*
X116236500Y-34029800D01*
X161930000Y-123698300D02*
X161009700Y-123698300D01*
X117525000Y-59445000D02*
X117525000Y-91369400D01*
X13340100Y-124047900D02*
X13340100Y-126349100D01*
X118619900Y-33730000D02*
X119254900Y-33095000D01*
X119254900Y-33095000D02*
X122475000Y-33095000D01*
X157770300Y-123698300D02*
X156850000Y-123698300D01*
X55123300Y-55000000D02*
X51530200Y-55000000D01*
X121113900Y-37158700D02*
X122130200Y-38175000D01*
X116859100Y-38779000D02*
X116464700Y-38779000D01*
X55438000Y-57013200D02*
X55174300Y-56749500D01*
X161930000Y-129000000D02*
X161930000Y-123698300D01*
X51183500Y-58531600D02*
X52311000Y-59659000D01*
X44730400Y-80492000D02*
X46838100Y-78384300D01*
X87394100Y-89550000D02*
X86621900Y-89550000D01*
X113390000Y-50090000D02*
X113480000Y-50000000D01*
X15950000Y-122358300D02*
X15950000Y-110000000D01*
X55174300Y-55051000D02*
X55123300Y-55000000D01*
X14610000Y-123698300D02*
X13689700Y-123698300D01*
X113945200Y-29534800D02*
X113480000Y-30000000D01*
X159390000Y-129000000D02*
X159390000Y-126349100D01*
X56562300Y-38175000D02*
X57475000Y-38175000D01*
X44302800Y-80441900D02*
X44597700Y-80441900D01*
X55796000Y-38941300D02*
X56562300Y-38175000D01*
X41600100Y-83144600D02*
X44302800Y-80441900D01*
X123771600Y-52197100D02*
X122873700Y-53095000D01*
X49295100Y-70000000D02*
X48480000Y-70000000D01*
X88388300Y-90544200D02*
X87394100Y-89550000D01*
X52525000Y-46694400D02*
X49219400Y-50000000D01*
X48561600Y-29918400D02*
X53553900Y-29918400D01*
X156850000Y-129000000D02*
X156850000Y-123698300D01*
X56028000Y-43555300D02*
X56028000Y-42724300D01*
X57475000Y-33095000D02*
X57928300Y-33095000D01*
X49219400Y-52689200D02*
X51530200Y-55000000D01*
X58755000Y-50118300D02*
X55796000Y-47159300D01*
X123771600Y-39082900D02*
X123771600Y-52197100D01*
X117525000Y-91369400D02*
X118189100Y-92033500D01*
X57475000Y-53095000D02*
X57820800Y-53095000D01*
X48480000Y-63490000D02*
X48480000Y-70000000D01*
X55795500Y-34307500D02*
X56486500Y-34998500D01*
X49782400Y-70487300D02*
X49295100Y-70000000D01*
X58752300Y-37273500D02*
X57850800Y-38175000D01*
X113390000Y-88737600D02*
X113390000Y-50090000D01*
X53553900Y-29918400D02*
X55795500Y-32160000D01*
X159390000Y-126349100D02*
X159390000Y-125318000D01*
X55795500Y-32160000D02*
X55795500Y-34307500D01*
X51530200Y-55000000D02*
X51183500Y-55346700D01*
X117525000Y-39445000D02*
X116859100Y-38779100D01*
X58752300Y-72225700D02*
X58752300Y-65814200D01*
X15950000Y-110000000D02*
X15950000Y-84372600D01*
X89540000Y-100980000D02*
X89540000Y-98440000D01*
X46838100Y-74103400D02*
X49782400Y-71159100D01*
X55796000Y-47159300D02*
X55796000Y-43787300D01*
X44597700Y-80441900D02*
X44647800Y-80492000D01*
X55174300Y-55051000D02*
X57130300Y-53095000D01*
X116021800Y-91369400D02*
X113390000Y-88737600D01*
X12990500Y-123698300D02*
X12070000Y-123698300D01*
X55796000Y-42492300D02*
X55796000Y-38941300D01*
X48480000Y-30000000D02*
X48561600Y-29918400D01*
X113480000Y-30000000D02*
X113480000Y-31506100D01*
X160659900Y-124047900D02*
X160659900Y-127674500D01*
X160310300Y-123698300D02*
X160659900Y-124047900D01*
X49782400Y-71159100D02*
X49782400Y-70487300D01*
X89540000Y-14620000D02*
X89540000Y-12080000D01*
X49219400Y-50000000D02*
X49219400Y-52689200D01*
X159390000Y-123698300D02*
X160310300Y-123698300D01*
X13340100Y-124047900D02*
X12990500Y-123698300D01*
X91239200Y-98440000D02*
X89540000Y-98440000D01*
X57850800Y-38175000D02*
X57475000Y-38175000D01*
X159390000Y-125318000D02*
X157770300Y-123698300D01*
X116859100Y-38779100D02*
X116859100Y-38779000D01*
X55438000Y-62499900D02*
X55438000Y-57013200D01*
X122873700Y-53095000D02*
X122475000Y-53095000D01*
X57130300Y-53095000D02*
X57475000Y-53095000D01*
X118733600Y-29534800D02*
X113945200Y-29534800D01*
X85431500Y-88359600D02*
X85431500Y-84529400D01*
X123512400Y-34967300D02*
X121494600Y-34967300D01*
X89540000Y-103520000D02*
X89540000Y-100980000D01*
X52311000Y-59659000D02*
X48480000Y-63490000D01*
X13689700Y-123698300D02*
X13340100Y-124047900D01*
X52525000Y-79445000D02*
X51683700Y-79445000D01*
X160660000Y-124048000D02*
X160660000Y-127674500D01*
X56486500Y-34998500D02*
X58752300Y-34998500D01*
X121113900Y-35348000D02*
X121113900Y-37158700D01*
X51683700Y-79445000D02*
X46994800Y-84133900D01*
X52525000Y-39445000D02*
X52525000Y-46694400D01*
X119254900Y-30056100D02*
X118733600Y-29534800D01*
X14610000Y-123698300D02*
X15950000Y-122358300D01*
X88388300Y-97288300D02*
X88388300Y-90544200D01*
X92645000Y-97034200D02*
X91239200Y-98440000D01*
X123781800Y-34697900D02*
X123512400Y-34967300D01*
X160660000Y-127674500D02*
X160659900Y-127674500D01*
X58752300Y-65814200D02*
X55438000Y-62499900D01*
X87000000Y-14620000D02*
X87000000Y-12080000D01*
X122863700Y-38175000D02*
X123771600Y-39082900D01*
X57820800Y-53095000D02*
X58755000Y-52160800D01*
X121494600Y-34967300D02*
X121113900Y-35348000D01*
%TO.N,VCC_5V*%
X86650300Y-123698300D02*
X85730000Y-123698300D01*
X112520000Y-50000000D02*
X112520000Y-49104400D01*
X83190000Y-129000000D02*
X83190000Y-123698300D01*
X110000000Y-30000000D02*
X112520000Y-30000000D01*
X112520000Y-49104400D02*
X112520000Y-30000000D01*
X57475000Y-50555000D02*
X57475000Y-49696500D01*
X56228300Y-70555000D02*
X55655900Y-69982600D01*
X60489400Y-112039000D02*
X60489400Y-118696700D01*
X90810000Y-129000000D02*
X90810000Y-123698300D01*
X47520000Y-70000000D02*
X47520000Y-50000000D01*
X85730000Y-126349100D02*
X85730000Y-123698300D01*
X57343600Y-30423600D02*
X57475000Y-30555000D01*
X88270000Y-126349100D02*
X88270000Y-123698300D01*
X57475000Y-70555000D02*
X56228300Y-70555000D01*
X84110300Y-123698300D02*
X84459900Y-124047900D01*
X59508700Y-111058300D02*
X60489400Y-112039000D01*
X85730000Y-129000000D02*
X85730000Y-126349100D01*
X60341200Y-110225800D02*
X59508700Y-111058300D01*
X84459900Y-124047900D02*
X84459900Y-126349100D01*
X121053100Y-29133100D02*
X113386900Y-29133100D01*
X83190000Y-123698300D02*
X84110300Y-123698300D01*
X89540000Y-9540000D02*
X110000000Y-30000000D01*
X57475000Y-30555000D02*
X57825200Y-30555000D01*
X90810000Y-123698300D02*
X88270000Y-123698300D01*
X88270000Y-125318000D02*
X86650300Y-123698300D01*
X48200600Y-29319400D02*
X47520000Y-30000000D01*
X113386900Y-29133100D02*
X112520000Y-30000000D01*
X57825200Y-30555000D02*
X60341200Y-33071000D01*
X57343600Y-29319400D02*
X57343600Y-9540000D01*
X60341200Y-69982600D02*
X60341200Y-110225800D01*
X57343600Y-29319400D02*
X57343600Y-30423600D01*
X122474300Y-50554300D02*
X122474300Y-49104400D01*
X47520000Y-70000000D02*
X47520000Y-70837000D01*
X14050000Y-110000000D02*
X14050000Y-111245700D01*
X122475000Y-30555000D02*
X121053100Y-29133100D01*
X88270000Y-126349100D02*
X88270000Y-125318000D01*
X60341200Y-33071000D02*
X60341200Y-49406500D01*
X85730000Y-126349100D02*
X84459900Y-126349100D01*
X57343600Y-29319400D02*
X48200600Y-29319400D01*
X60341200Y-49406500D02*
X60341200Y-69982600D01*
X88270000Y-129000000D02*
X88270000Y-126349100D01*
X122475000Y-50555000D02*
X122474300Y-50554300D01*
%TO.N,CR0*%
X61895600Y-42264400D02*
X87000000Y-17160000D01*
X61895600Y-119278500D02*
X61895600Y-42264400D01*
X57790000Y-123384100D02*
X61895600Y-119278500D01*
X57790000Y-129000000D02*
X57790000Y-123384100D01*
%TO.N,CR1*%
X60906000Y-119700100D02*
X61493900Y-119112200D01*
X61493900Y-41007600D02*
X86532100Y-15969400D01*
X88349400Y-15969400D02*
X89540000Y-17160000D01*
X86532100Y-15969400D02*
X88349400Y-15969400D01*
X61493900Y-119112200D02*
X61493900Y-41007600D01*
X60626700Y-119700100D02*
X60906000Y-119700100D01*
X57167500Y-123159300D02*
X60626700Y-119700100D01*
%TO.N,CR2*%
X62297300Y-44402700D02*
X87000000Y-19700000D01*
X60330000Y-123478800D02*
X62297300Y-121511500D01*
X62297300Y-121511500D02*
X62297300Y-44402700D01*
X60330000Y-129000000D02*
X60330000Y-123698300D01*
X60330000Y-123698300D02*
X60330000Y-123478800D01*
%TO.N,CR3*%
X62870000Y-121789600D02*
X61329300Y-123330300D01*
X62870000Y-44664500D02*
X62870000Y-121789600D01*
X86446200Y-21088300D02*
X62870000Y-44664500D01*
X89540000Y-19700000D02*
X88151700Y-21088300D01*
X88151700Y-21088300D02*
X86446200Y-21088300D01*
%TO.N,CR4*%
X63271700Y-45968300D02*
X87000000Y-22240000D01*
X63271700Y-123296600D02*
X63271700Y-45968300D01*
X62870000Y-129000000D02*
X62870000Y-123698300D01*
X62870000Y-123698300D02*
X63271700Y-123296600D01*
%TO.N,CR5*%
X60739700Y-119298400D02*
X61092200Y-118945900D01*
X61092200Y-118945900D02*
X61092200Y-23510000D01*
X60065500Y-119298400D02*
X60739700Y-119298400D01*
X59720000Y-119643900D02*
X60065500Y-119298400D01*
%TO.N,CR6*%
X65410000Y-46370000D02*
X87000000Y-24780000D01*
X65410000Y-129000000D02*
X65410000Y-46370000D01*
%TO.N,CR7*%
X88270000Y-26050000D02*
X86585400Y-26050000D01*
X86585400Y-26050000D02*
X66680000Y-45955400D01*
X89540000Y-24780000D02*
X88270000Y-26050000D01*
X66680000Y-45955400D02*
X66680000Y-123698300D01*
%TO.N,CR8*%
X87000000Y-27320000D02*
X67950000Y-46370000D01*
X67950000Y-46370000D02*
X67950000Y-129000000D01*
%TO.N,CR9*%
X86484000Y-28708300D02*
X69220000Y-45972300D01*
X89540000Y-27320000D02*
X88151700Y-28708300D01*
X88151700Y-28708300D02*
X86484000Y-28708300D01*
X69220000Y-45972300D02*
X69220000Y-123698300D01*
%TO.N,CR10*%
X70490000Y-129000000D02*
X70490000Y-46370000D01*
X70490000Y-46370000D02*
X87000000Y-29860000D01*
%TO.N,CR11*%
X71760000Y-45970000D02*
X71760000Y-123698300D01*
X88270000Y-31130000D02*
X86600000Y-31130000D01*
X89540000Y-29860000D02*
X88270000Y-31130000D01*
X86600000Y-31130000D02*
X71760000Y-45970000D01*
%TO.N,CR12*%
X87000000Y-32400000D02*
X73030000Y-46370000D01*
X73030000Y-129000000D02*
X73030000Y-123698300D01*
X73030000Y-46370000D02*
X73030000Y-123698300D01*
%TO.N,CR13*%
X89540000Y-32400000D02*
X88165100Y-33774900D01*
X86524600Y-33774900D02*
X74300000Y-45999500D01*
X88165100Y-33774900D02*
X86524600Y-33774900D01*
X74300000Y-45999500D02*
X74300000Y-123698300D01*
%TO.N,CR14*%
X75570000Y-46370000D02*
X75570000Y-129000000D01*
X87000000Y-34940000D02*
X75570000Y-46370000D01*
%TO.N,CR15*%
X88270000Y-36210000D02*
X86556600Y-36210000D01*
X89540000Y-34940000D02*
X88270000Y-36210000D01*
X86556600Y-36210000D02*
X76669800Y-46096800D01*
X76669800Y-46096800D02*
X76669800Y-123626400D01*
%TO.N,CR16*%
X80140600Y-113304800D02*
X80140600Y-44339400D01*
X80140600Y-44339400D02*
X87000000Y-37480000D01*
X78110000Y-129000000D02*
X78110000Y-115335400D01*
X78110000Y-115335400D02*
X80140600Y-113304800D01*
%TO.N,CR17*%
X80542400Y-121797400D02*
X80542400Y-44809900D01*
X80542400Y-44809900D02*
X86484000Y-38868300D01*
X88151700Y-38868300D02*
X89540000Y-37480000D01*
X86484000Y-38868300D02*
X88151700Y-38868300D01*
X78892200Y-123447600D02*
X80542400Y-121797400D01*
%TO.N,CR18*%
X80650000Y-129000000D02*
X80650000Y-123698300D01*
X80944100Y-46075900D02*
X87000000Y-40020000D01*
X80650000Y-123698300D02*
X80944100Y-123404200D01*
X80944100Y-123404200D02*
X80944100Y-46075900D01*
%TO.N,CR19*%
X86490300Y-41394900D02*
X81713800Y-46171400D01*
X81713800Y-46171400D02*
X81713800Y-123595100D01*
X88165100Y-41394900D02*
X86490300Y-41394900D01*
X89540000Y-40020000D02*
X88165100Y-41394900D01*
%TO.N,CR20*%
X82717300Y-49806500D02*
X82917300Y-50006500D01*
X82917300Y-50006500D02*
X82917300Y-109188300D01*
X92948300Y-119219300D02*
X92948300Y-128598300D01*
X92948300Y-128598300D02*
X93350000Y-129000000D01*
X82717300Y-46842700D02*
X82717300Y-49806500D01*
X87000000Y-42560000D02*
X82717300Y-46842700D01*
X82917300Y-109188300D02*
X92948300Y-119219300D01*
%TO.N,CR21*%
X83319000Y-92869200D02*
X83428000Y-92978200D01*
X88190600Y-43909400D02*
X86561900Y-43909400D01*
X83428000Y-92978200D02*
X83428000Y-109131000D01*
X93817200Y-119520200D02*
X93817200Y-123463700D01*
X86561900Y-43909400D02*
X83119000Y-47352300D01*
X83319000Y-49840200D02*
X83319000Y-92869200D01*
X89540000Y-42560000D02*
X88190600Y-43909400D01*
X83119000Y-49640200D02*
X83319000Y-49840200D01*
X83428000Y-109131000D02*
X93817200Y-119520200D01*
X83119000Y-47352300D02*
X83119000Y-49640200D01*
%TO.N,CR22*%
X95890000Y-129000000D02*
X95890000Y-123698300D01*
X88270000Y-86158400D02*
X89121600Y-87010000D01*
X87000000Y-45100000D02*
X84322400Y-47777600D01*
X87418400Y-84470000D02*
X88270000Y-85321600D01*
X84122400Y-81977200D02*
X86615200Y-84470000D01*
X86615200Y-84470000D02*
X87418400Y-84470000D01*
X95087700Y-122896000D02*
X95890000Y-123698300D01*
X89121600Y-87010000D02*
X89905900Y-87010000D01*
X95087700Y-92191800D02*
X95087700Y-122896000D01*
X84122400Y-49840300D02*
X84122400Y-81977200D01*
X89905900Y-87010000D02*
X95087700Y-92191800D01*
X84322400Y-49640300D02*
X84122400Y-49840300D01*
X84322400Y-47777600D02*
X84322400Y-49640300D01*
X88270000Y-85321600D02*
X88270000Y-86158400D01*
%TO.N,CR23*%
X87275800Y-99591700D02*
X88270000Y-100585900D01*
X94686000Y-118788800D02*
X94686000Y-123698300D01*
X85117300Y-93899300D02*
X85117300Y-98214200D01*
X88270000Y-112372800D02*
X94686000Y-118788800D01*
X85117300Y-98214200D02*
X86494800Y-99591700D01*
X83720700Y-92502700D02*
X85117300Y-93899300D01*
X88270000Y-100585900D02*
X88270000Y-112372800D01*
X86494800Y-99591700D02*
X87275800Y-99591700D01*
X83720700Y-49279600D02*
X83720700Y-92502700D01*
%TO.N,CR24*%
X87418400Y-81930000D02*
X88270000Y-82781600D01*
X88270000Y-83618400D02*
X89121600Y-84470000D01*
X84524100Y-50115900D02*
X84524100Y-79853300D01*
X86600800Y-81930000D02*
X87418400Y-81930000D01*
X97933100Y-123698300D02*
X98430000Y-123698300D01*
X89121600Y-84470000D02*
X89905900Y-84470000D01*
X95489400Y-90053500D02*
X95489400Y-121254600D01*
X89905900Y-84470000D02*
X95489400Y-90053500D01*
X98430000Y-129000000D02*
X98430000Y-123698300D01*
X84524100Y-79853300D02*
X86600800Y-81930000D01*
X87000000Y-47640000D02*
X84524100Y-50115900D01*
X88270000Y-82781600D02*
X88270000Y-83618400D01*
X95489400Y-121254600D02*
X97933100Y-123698300D01*
%TO.N,CR25*%
X97969900Y-123005900D02*
X98101700Y-123005900D01*
X89540000Y-47640000D02*
X88270000Y-48910000D01*
X95891100Y-120927100D02*
X97969900Y-123005900D01*
X95891100Y-87900200D02*
X95891100Y-120927100D01*
X84925800Y-50625500D02*
X84925800Y-77681700D01*
X88270000Y-80241600D02*
X88270000Y-81060000D01*
X88270000Y-81060000D02*
X89258300Y-82048300D01*
X86634100Y-79390000D02*
X87418400Y-79390000D01*
X89258300Y-82048300D02*
X90039200Y-82048300D01*
X88270000Y-48910000D02*
X86641300Y-48910000D01*
X84925800Y-77681700D02*
X86634100Y-79390000D01*
X87418400Y-79390000D02*
X88270000Y-80241600D01*
X86641300Y-48910000D02*
X84925800Y-50625500D01*
X90039200Y-82048300D02*
X95891100Y-87900200D01*
%TO.N,CR26*%
X100970000Y-85305600D02*
X89974400Y-74310000D01*
X85340600Y-51839400D02*
X87000000Y-50180000D01*
X100970000Y-129000000D02*
X100970000Y-85305600D01*
X89974400Y-74310000D02*
X86621900Y-74310000D01*
X85340600Y-73028700D02*
X85340600Y-51839400D01*
X86621900Y-74310000D02*
X85340600Y-73028700D01*
%TO.N,CR27*%
X82315500Y-51450000D02*
X82315500Y-122358300D01*
%TO.N,CR28*%
X103510000Y-129000000D02*
X103510000Y-123698300D01*
X86641200Y-71769900D02*
X89904700Y-71769900D01*
X102486700Y-122675000D02*
X103510000Y-123698300D01*
X87000000Y-52720000D02*
X85819900Y-53900100D01*
X89904700Y-71769900D02*
X102486700Y-84351900D01*
X102486700Y-84351900D02*
X102486700Y-122675000D01*
X85819900Y-53900100D02*
X85819900Y-70948600D01*
X85819900Y-70948600D02*
X86641200Y-71769900D01*
%TO.N,CR29*%
X88381400Y-58270100D02*
X89181100Y-59069800D01*
X88381400Y-53878600D02*
X88381400Y-58270100D01*
X89181100Y-59069800D02*
X89925900Y-59069800D01*
X105048300Y-123430000D02*
X104780000Y-123698300D01*
X89925900Y-59069800D02*
X105048300Y-74192200D01*
X89540000Y-52720000D02*
X88381400Y-53878600D01*
X105048300Y-74192200D02*
X105048300Y-123430000D01*
%TO.N,CR30*%
X106050000Y-123698300D02*
X106353300Y-123395000D01*
X106050000Y-129000000D02*
X106050000Y-123698300D01*
X106353300Y-72614800D02*
X90953500Y-57215000D01*
X106353300Y-123395000D02*
X106353300Y-72614800D01*
%TO.N,CR31*%
X89849400Y-55260000D02*
X89540000Y-55260000D01*
X107320000Y-72730600D02*
X89849400Y-55260000D01*
X107320000Y-123698300D02*
X107320000Y-72730600D01*
%TO.N,SDD0*%
X104044800Y-80769900D02*
X104044800Y-110010900D01*
X89964900Y-66690000D02*
X104044800Y-80769900D01*
X88270000Y-59070000D02*
X88270000Y-65782700D01*
X88270000Y-65782700D02*
X89177300Y-66690000D01*
X87000000Y-57800000D02*
X88270000Y-59070000D01*
X89177300Y-66690000D02*
X89964900Y-66690000D01*
%TO.N,SDD1*%
X132595800Y-123085400D02*
X132595800Y-57823500D01*
%TO.N,SDD2*%
X124878200Y-59978400D02*
X127721000Y-62821200D01*
X127721000Y-62821200D02*
X127721000Y-91424800D01*
X132095100Y-95798900D02*
X132095100Y-121713900D01*
X132095100Y-121713900D02*
X131984600Y-121824400D01*
X127721000Y-91424800D02*
X132095100Y-95798900D01*
%TO.N,SDD3*%
X137800000Y-123698300D02*
X137800000Y-60580100D01*
%TO.N,SDD4*%
X140340000Y-66076600D02*
X140340000Y-127730000D01*
%TO.N,SDD5*%
X142880000Y-127730000D02*
X142880000Y-66746100D01*
%TO.N,SDD6*%
X145420000Y-123698300D02*
X145420000Y-72773800D01*
%TO.N,SDD7*%
X89540000Y-65420000D02*
X104646600Y-80526600D01*
X104646600Y-110623800D02*
X104446500Y-110823900D01*
X104646600Y-80526600D02*
X104646600Y-110623800D01*
%TO.N,FIX0*%
X88270000Y-69230000D02*
X87000000Y-67960000D01*
X89935900Y-69230000D02*
X88270000Y-69230000D01*
X103521500Y-121224700D02*
X103443100Y-121146300D01*
X103443100Y-82737200D02*
X89935900Y-69230000D01*
X103443100Y-121146300D02*
X103443100Y-82737200D01*
%TO.N,FIX1*%
X109860000Y-73577200D02*
X109860000Y-127730000D01*
%TO.N,FIX2*%
X105750000Y-73832600D02*
X105750000Y-122272500D01*
X105750000Y-122272500D02*
X105751600Y-122274100D01*
%TO.N,FIX3*%
X102888500Y-83848500D02*
X89540000Y-70500000D01*
X102888500Y-121610600D02*
X102888500Y-83848500D01*
X103930800Y-122652900D02*
X102888500Y-121610600D01*
%TO.N,FIX4*%
X117243700Y-94476600D02*
X117243700Y-123457000D01*
X117243700Y-123457000D02*
X117245200Y-123458500D01*
X110558800Y-87791700D02*
X117243700Y-94476600D01*
X110558800Y-74534700D02*
X110558800Y-87791700D01*
%TO.N,FIX5*%
X101884900Y-85384900D02*
X101884900Y-121728400D01*
X89540000Y-73040000D02*
X101884900Y-85384900D01*
%TO.N,FIX6*%
X96492900Y-85954800D02*
X96492900Y-120585600D01*
X87000000Y-75580000D02*
X88270000Y-76850000D01*
X89928100Y-79390000D02*
X96492900Y-85954800D01*
X88270000Y-78538400D02*
X89121600Y-79390000D01*
X88270000Y-76850000D02*
X88270000Y-78538400D01*
X89121600Y-79390000D02*
X89928100Y-79390000D01*
%TO.N,FIX7*%
X98600300Y-84640300D02*
X89540000Y-75580000D01*
X98600300Y-119837000D02*
X98600300Y-84640300D01*
%TO.N,P0*%
X17150000Y-123698300D02*
X17150000Y-111732700D01*
X17150000Y-129000000D02*
X17150000Y-123698300D01*
X50000000Y-105510000D02*
X50000000Y-111732700D01*
%TO.N,P1*%
X77282700Y-109792700D02*
X77282700Y-93830100D01*
X78000000Y-110510000D02*
X77282700Y-109792700D01*
%TO.N,P2*%
X19690000Y-123698300D02*
X19050000Y-123058300D01*
X19050000Y-101150000D02*
X19690000Y-100510000D01*
X19690000Y-129000000D02*
X19690000Y-123698300D01*
X19050000Y-123058300D02*
X19050000Y-101150000D01*
%TO.N,P3*%
X20498200Y-106318200D02*
X20498200Y-123468500D01*
X19690000Y-105510000D02*
X20498200Y-106318200D01*
%TO.N,P4*%
X22230000Y-129000000D02*
X22230000Y-110510000D01*
%TO.N,P5*%
X22230000Y-100510000D02*
X21555600Y-101184400D01*
X21555600Y-101184400D02*
X21555600Y-122949500D01*
%TO.N,P6*%
X25460100Y-128309900D02*
X25460100Y-106200100D01*
X25460100Y-106200100D02*
X24770000Y-105510000D01*
X24770000Y-129000000D02*
X25460100Y-128309900D01*
%TO.N,P7*%
X24770000Y-110510000D02*
X24770000Y-123485600D01*
%TO.N,P8*%
X27310000Y-123698300D02*
X27982400Y-123025900D01*
X27982400Y-123025900D02*
X27982400Y-101182400D01*
X27310000Y-129000000D02*
X27310000Y-123698300D01*
X27982400Y-101182400D02*
X27310000Y-100510000D01*
%TO.N,P9*%
X27310000Y-105510000D02*
X27310000Y-122813800D01*
%TO.N,P10*%
X29850000Y-129000000D02*
X29850000Y-123698300D01*
X29803800Y-110556200D02*
X29803800Y-123652100D01*
X29803800Y-123652100D02*
X29850000Y-123698300D01*
X29850000Y-110510000D02*
X29803800Y-110556200D01*
%TO.N,P11*%
X29173100Y-101186900D02*
X29850000Y-100510000D01*
X29173100Y-123467300D02*
X29173100Y-101186900D01*
%TO.N,P12*%
X30559200Y-121867500D02*
X32390000Y-123698300D01*
X32390000Y-129000000D02*
X32390000Y-123698300D01*
X30559200Y-107340800D02*
X30559200Y-121867500D01*
X32390000Y-105510000D02*
X30559200Y-107340800D01*
%TO.N,P13*%
X33769000Y-120849700D02*
X33769000Y-111889000D01*
X33769000Y-111889000D02*
X32390000Y-110510000D01*
%TO.N,P14*%
X34930000Y-123429500D02*
X34930000Y-129000000D01*
X31408900Y-117390100D02*
X31408900Y-119908400D01*
X33669000Y-101771000D02*
X33669000Y-105367000D01*
X31408800Y-117390100D02*
X31408900Y-117390100D01*
X31408900Y-119908400D02*
X34930000Y-123429500D01*
X33669000Y-105367000D02*
X30960900Y-108075100D01*
X30960900Y-116942200D02*
X31408800Y-117390100D01*
X30960900Y-108075100D02*
X30960900Y-116942200D01*
X34930000Y-100510000D02*
X33669000Y-101771000D01*
%TO.N,P15*%
X33167300Y-121098800D02*
X33167300Y-117446800D01*
X35552500Y-123159300D02*
X33844600Y-121451400D01*
X33844600Y-121451400D02*
X33519900Y-121451400D01*
X33167300Y-117446800D02*
X31765800Y-116045300D01*
X31765800Y-116045300D02*
X31765800Y-108674200D01*
X31765800Y-108674200D02*
X34930000Y-105510000D01*
X33519900Y-121451400D02*
X33167300Y-121098800D01*
%TO.N,P16*%
X37470000Y-129000000D02*
X37470000Y-110510000D01*
%TO.N,P17*%
X34130300Y-105607700D02*
X34130300Y-103849700D01*
X31364100Y-116494600D02*
X31364100Y-108373900D01*
X31563500Y-116694000D02*
X31364100Y-116494600D01*
X34130300Y-103849700D02*
X37470000Y-100510000D01*
X31364100Y-108373900D02*
X34130300Y-105607700D01*
%TO.N,P18*%
X39370800Y-128360800D02*
X39370800Y-106149200D01*
X39370800Y-106149200D02*
X40010000Y-105510000D01*
X40010000Y-129000000D02*
X39370800Y-128360800D01*
%TO.N,P19*%
X40010000Y-110510000D02*
X40010000Y-123468500D01*
%TO.N,P20*%
X42550000Y-129000000D02*
X43192700Y-128357300D01*
X43192700Y-101152700D02*
X42550000Y-100510000D01*
X43192700Y-128357300D02*
X43192700Y-101152700D01*
%TO.N,P21*%
X42550000Y-105510000D02*
X42550000Y-123468500D01*
%TO.N,P22*%
X45090000Y-129000000D02*
X45090000Y-110510000D01*
%TO.N,P23*%
X45090000Y-100510000D02*
X44412000Y-101188000D01*
X44412000Y-101188000D02*
X44412000Y-123468500D01*
%TO.N,P0_R*%
X54799700Y-79965900D02*
X54799700Y-77073800D01*
X55036300Y-70876000D02*
X55225800Y-70686500D01*
X55036300Y-76837200D02*
X55036300Y-70876000D01*
X52180300Y-38175000D02*
X46893700Y-43461600D01*
X50000000Y-84765600D02*
X54799700Y-79965900D01*
X48482900Y-71473800D02*
X49180600Y-70776100D01*
X46893700Y-71110700D02*
X47256800Y-71473800D01*
X52525000Y-38175000D02*
X52180300Y-38175000D01*
X46893700Y-43461600D02*
X46893700Y-71110700D01*
X47256800Y-71473800D02*
X48482900Y-71473800D01*
X50000000Y-104490000D02*
X50000000Y-84765600D01*
X54799700Y-77073800D02*
X55036300Y-76837200D01*
%TO.N,P1_R*%
X50806300Y-52393800D02*
X50806300Y-50628100D01*
X51818900Y-49615500D02*
X53469100Y-49615500D01*
X78172100Y-109317900D02*
X78172100Y-48790400D01*
X50806300Y-50628100D02*
X51818900Y-49615500D01*
X78000000Y-109490000D02*
X78172100Y-109317900D01*
X51507500Y-53095000D02*
X50806300Y-52393800D01*
X52525000Y-53095000D02*
X51507500Y-53095000D01*
%TO.N,P2_R*%
X53529700Y-35000000D02*
X53831800Y-35302100D01*
X47578900Y-35000000D02*
X53529700Y-35000000D01*
X19690000Y-99490000D02*
X19690000Y-62888900D01*
X19690000Y-62888900D02*
X47578900Y-35000000D01*
X53831800Y-35976700D02*
X52903500Y-36905000D01*
X53831800Y-35302100D02*
X53831800Y-35976700D01*
X52903500Y-36905000D02*
X52525000Y-36905000D01*
%TO.N,P3_R*%
X21417700Y-100354700D02*
X21417700Y-62013300D01*
X57111300Y-54365000D02*
X55776000Y-55700300D01*
X19690000Y-102082400D02*
X21417700Y-100354700D01*
X57475000Y-54365000D02*
X57111300Y-54365000D01*
X19690000Y-104490000D02*
X19690000Y-102082400D01*
%TO.N,P4_R*%
X52525000Y-35635000D02*
X51643500Y-35635000D01*
X23397100Y-63881400D02*
X23397100Y-108322900D01*
X51643500Y-35635000D02*
X23397100Y-63881400D01*
X23397100Y-108322900D02*
X22230000Y-109490000D01*
%TO.N,P5_R*%
X57475000Y-55635000D02*
X57089400Y-55635000D01*
X22230000Y-99490000D02*
X22230000Y-61267600D01*
X56107100Y-56617300D02*
X56107100Y-61267600D01*
X57089400Y-55635000D02*
X56107100Y-56617300D01*
%TO.N,P6_R*%
X24770000Y-82588700D02*
X24770000Y-104490000D01*
X34931100Y-53198200D02*
X28787800Y-59341500D01*
X28787800Y-78570900D02*
X24770000Y-82588700D01*
X47344300Y-34365000D02*
X33774500Y-47934800D01*
X28787800Y-59341500D02*
X28787800Y-78570900D01*
X52525000Y-34365000D02*
X47344300Y-34365000D01*
%TO.N,P7_R*%
X57601900Y-56778100D02*
X58967200Y-56778100D01*
X28146300Y-60561000D02*
X24102300Y-64605000D01*
X24102300Y-108822300D02*
X24770000Y-109490000D01*
X24102300Y-64605000D02*
X24102300Y-108822300D01*
X57475000Y-56905000D02*
X57601900Y-56778100D01*
%TO.N,P8_R*%
X54286000Y-36441100D02*
X54286000Y-34408100D01*
X27310000Y-99490000D02*
X29232000Y-97568000D01*
X29232000Y-59748200D02*
X51440100Y-37540100D01*
X29232000Y-97568000D02*
X29232000Y-59748200D01*
X54286000Y-34408100D02*
X52972900Y-33095000D01*
X51440100Y-37540000D02*
X53510100Y-37540000D01*
X53902200Y-36824900D02*
X54286000Y-36441100D01*
X51440100Y-37540100D02*
X51440100Y-37540000D01*
X53510100Y-37540000D02*
X53902200Y-37147900D01*
X53902200Y-37147900D02*
X53902200Y-36824900D01*
X52972900Y-33095000D02*
X52525000Y-33095000D01*
%TO.N,P9_R*%
X26671900Y-103851900D02*
X26671900Y-82542900D01*
X27310000Y-104490000D02*
X26671900Y-103851900D01*
X51404500Y-78175000D02*
X46688700Y-82890800D01*
X52525000Y-78175000D02*
X51404500Y-78175000D01*
%TO.N,P10_R*%
X56197700Y-39107600D02*
X56197700Y-42326000D01*
X56197700Y-33432400D02*
X56197700Y-32757600D01*
X57130300Y-34365000D02*
X56197700Y-33432400D01*
X57475000Y-34365000D02*
X57130300Y-34365000D01*
X31769300Y-58078700D02*
X31769300Y-99872100D01*
X40232500Y-49615500D02*
X31769300Y-58078700D01*
X58473400Y-32462700D02*
X59179000Y-33168300D01*
X29850000Y-101791400D02*
X29850000Y-109490000D01*
X58530300Y-38777300D02*
X56528000Y-38777300D01*
X59179000Y-38128600D02*
X58530300Y-38777300D01*
X56492600Y-32462700D02*
X58473400Y-32462700D01*
X56528000Y-38777300D02*
X56197700Y-39107600D01*
X31769300Y-99872100D02*
X29850000Y-101791400D01*
X56197700Y-32757600D02*
X56492600Y-32462700D01*
X59179000Y-33168300D02*
X59179000Y-38128600D01*
X56590700Y-42719000D02*
X56590700Y-45977900D01*
X56197700Y-42326000D02*
X56590700Y-42719000D01*
%TO.N,P11_R*%
X29850000Y-99490000D02*
X30032500Y-99307500D01*
X30032500Y-99307500D02*
X30032500Y-77170000D01*
X52525000Y-76905000D02*
X51257600Y-76905000D01*
X51257600Y-76905000D02*
X50992600Y-77170000D01*
%TO.N,P12_R*%
X57130300Y-35635000D02*
X57475000Y-35635000D01*
X54705600Y-42820800D02*
X54705600Y-38427500D01*
X32390000Y-58445500D02*
X44670500Y-46165000D01*
X55507500Y-37625600D02*
X55507500Y-37257800D01*
X54705600Y-38427500D02*
X55507500Y-37625600D01*
X54984700Y-43099900D02*
X54705600Y-42820800D01*
X32390000Y-104490000D02*
X32390000Y-58445500D01*
X55507500Y-37257800D02*
X57130300Y-35635000D01*
%TO.N,P13_R*%
X50875400Y-75868300D02*
X48456500Y-78287200D01*
X52291700Y-75868300D02*
X50875400Y-75868300D01*
X40005500Y-87306200D02*
X40005500Y-101874500D01*
X48456500Y-78855200D02*
X40005500Y-87306200D01*
X52525000Y-75635000D02*
X52291700Y-75868300D01*
X48456500Y-78287200D02*
X48456500Y-78855200D01*
X40005500Y-101874500D02*
X32390000Y-109490000D01*
%TO.N,P14_R*%
X55343600Y-50906300D02*
X55343600Y-43671700D01*
X55626300Y-42890600D02*
X55343600Y-42607900D01*
X57116000Y-36905000D02*
X57475000Y-36905000D01*
X55343600Y-42607900D02*
X55343600Y-38677400D01*
X34930000Y-56782600D02*
X37017000Y-54695600D01*
X55343600Y-38677400D02*
X57116000Y-36905000D01*
X34930000Y-99490000D02*
X34930000Y-56782600D01*
X55343600Y-43671700D02*
X55626300Y-43389000D01*
X55626300Y-43389000D02*
X55626300Y-42890600D01*
%TO.N,P15_R*%
X39603800Y-86754600D02*
X47641500Y-78716900D01*
X34930000Y-104490000D02*
X39603800Y-99816200D01*
X47641500Y-78716900D02*
X47641500Y-78534200D01*
X39603800Y-99816200D02*
X39603800Y-86754600D01*
X47641500Y-78534200D02*
X51810700Y-74365000D01*
X51810700Y-74365000D02*
X52525000Y-74365000D01*
%TO.N,P16_R*%
X48899500Y-78412200D02*
X48899500Y-79502000D01*
X53504800Y-72460000D02*
X53814600Y-72769800D01*
X37470000Y-105198100D02*
X37470000Y-109490000D01*
X53814600Y-72769800D02*
X53814600Y-75983000D01*
X51529600Y-72460000D02*
X53504800Y-72460000D01*
X40407300Y-87994200D02*
X40407300Y-102260800D01*
X52525000Y-58175000D02*
X52869700Y-58175000D01*
X48899500Y-79502000D02*
X40407300Y-87994200D01*
X52869700Y-58175000D02*
X53807100Y-59112400D01*
X53807100Y-60402300D02*
X50784900Y-63424500D01*
X53814600Y-75983000D02*
X53527600Y-76270000D01*
X51041700Y-76270000D02*
X48899500Y-78412200D01*
X50784900Y-63424500D02*
X50784900Y-71715300D01*
X53807100Y-59112400D02*
X53807100Y-60402300D01*
X40407300Y-102260800D02*
X37470000Y-105198100D01*
X50784900Y-71715300D02*
X51529600Y-72460000D01*
X53527600Y-76270000D02*
X51041700Y-76270000D01*
%TO.N,P17_R*%
X37470000Y-99490000D02*
X37470000Y-88125600D01*
X47239800Y-77982600D02*
X52127400Y-73095000D01*
X37470000Y-88125600D02*
X42201800Y-83393800D01*
X47239800Y-78550600D02*
X47239800Y-77982600D01*
X42201800Y-83110900D02*
X44450200Y-80862500D01*
X44450200Y-80862500D02*
X44450300Y-80862500D01*
X42201800Y-83393800D02*
X42201800Y-83110900D01*
X44522800Y-80935000D02*
X44855400Y-80935000D01*
X44855400Y-80935000D02*
X47239800Y-78550600D01*
X52127400Y-73095000D02*
X52525000Y-73095000D01*
X44450300Y-80862500D02*
X44522800Y-80935000D01*
%TO.N,P18_R*%
X52928600Y-56501400D02*
X53790200Y-56501400D01*
X53087000Y-80542600D02*
X51437300Y-80542600D01*
X54198000Y-61488900D02*
X54198000Y-71077800D01*
X51437300Y-80542600D02*
X41008900Y-90971000D01*
X53940600Y-79689000D02*
X53087000Y-80542600D01*
X54634600Y-57345800D02*
X54634600Y-61052300D01*
X54232900Y-71112700D02*
X54232900Y-76304400D01*
X54232900Y-76304400D02*
X53940600Y-76596700D01*
X54634600Y-61052300D02*
X54198000Y-61488900D01*
X53790200Y-56501400D02*
X54634600Y-57345800D01*
X52525000Y-56905000D02*
X52928600Y-56501400D01*
X54198000Y-71077800D02*
X54232900Y-71112700D01*
X41008900Y-103491100D02*
X40010000Y-104490000D01*
X53940600Y-76596700D02*
X53940600Y-79689000D01*
X41008900Y-90971000D02*
X41008900Y-103491100D01*
%TO.N,P19_R*%
X57028600Y-74365000D02*
X55438000Y-75955600D01*
X55243400Y-86745300D02*
X55087000Y-86901700D01*
X41797200Y-103583200D02*
X41797200Y-107702800D01*
X55243400Y-77198100D02*
X55243400Y-86745300D01*
X57475000Y-74365000D02*
X57028600Y-74365000D01*
X55438000Y-77003500D02*
X55243400Y-77198100D01*
X55438000Y-75955600D02*
X55438000Y-77003500D01*
X41797200Y-107702800D02*
X40010000Y-109490000D01*
X55087000Y-86901700D02*
X55087000Y-103583200D01*
%TO.N,P20_R*%
X54599700Y-70911500D02*
X54634600Y-70946400D01*
X54383600Y-79814000D02*
X53253300Y-80944300D01*
X42550000Y-90565900D02*
X42550000Y-99490000D01*
X54634600Y-76670900D02*
X54383600Y-76921900D01*
X53491800Y-55635000D02*
X55036300Y-57179500D01*
X54634600Y-70946400D02*
X54634600Y-76670900D01*
X55036300Y-61218600D02*
X54599700Y-61655200D01*
X54383600Y-76921900D02*
X54383600Y-79814000D01*
X51701900Y-80944300D02*
X48168800Y-84477400D01*
X53253300Y-80944300D02*
X51701900Y-80944300D01*
X54599700Y-61655200D02*
X54599700Y-70911500D01*
X46477600Y-86638300D02*
X42550000Y-90565900D01*
X48168800Y-84477400D02*
X48070500Y-84477400D01*
X52525000Y-55635000D02*
X53491800Y-55635000D01*
X46477600Y-86070300D02*
X46477600Y-86638300D01*
X55036300Y-57179500D02*
X55036300Y-61218600D01*
X48070500Y-84477400D02*
X46477600Y-86070300D01*
%TO.N,P21_R*%
X55839700Y-76851500D02*
X55839700Y-77169800D01*
X42550000Y-104490000D02*
X42550000Y-102778700D01*
X55687100Y-77322400D02*
X55687100Y-102777100D01*
X55687100Y-102777100D02*
X55688700Y-102778700D01*
X57475000Y-75635000D02*
X57056200Y-75635000D01*
X55839700Y-77169800D02*
X55687100Y-77322400D01*
X57056200Y-75635000D02*
X55839700Y-76851500D01*
%TO.N,P22_R*%
X52525000Y-54365000D02*
X52931300Y-54365000D01*
X52931300Y-54365000D02*
X54007500Y-53288800D01*
X46879300Y-86236600D02*
X46879300Y-107700700D01*
X46879300Y-107700700D02*
X45090000Y-109490000D01*
X48195500Y-84920400D02*
X46879300Y-86236600D01*
X45478600Y-78620900D02*
X45478600Y-53220400D01*
X48576600Y-84920400D02*
X48195500Y-84920400D01*
X54007500Y-53288800D02*
X54007500Y-53220400D01*
X49551300Y-83945700D02*
X48576600Y-84920400D01*
%TO.N,P23_R*%
X57088200Y-76905000D02*
X56162700Y-77830500D01*
X45090000Y-99490000D02*
X45090000Y-96821200D01*
X56162700Y-96683300D02*
X56300600Y-96821200D01*
X57475000Y-76905000D02*
X57088200Y-76905000D01*
X56162700Y-77830500D02*
X56162700Y-96683300D01*
%TO.N,SDA0*%
X118750000Y-129000000D02*
X118750000Y-100510000D01*
%TO.N,SDA1*%
X121290000Y-129000000D02*
X121290000Y-105510000D01*
%TO.N,SDA2*%
X123830000Y-129000000D02*
X123830000Y-110510000D01*
%TO.N,SDA3*%
X126370000Y-129000000D02*
X126370000Y-100510000D01*
%TO.N,SDA4*%
X128910000Y-123698300D02*
X128910000Y-105510000D01*
X128910000Y-129000000D02*
X128910000Y-123698300D01*
%TO.N,SDA5*%
X131346000Y-123594300D02*
X131450000Y-123698300D01*
X131450000Y-110510000D02*
X131346000Y-110614000D01*
X131346000Y-110614000D02*
X131346000Y-123594300D01*
X131450000Y-129000000D02*
X131450000Y-123698300D01*
%TO.N,SDA6*%
X133990000Y-129000000D02*
X133990000Y-100510000D01*
%TO.N,SDA7*%
X136530000Y-129000000D02*
X136530000Y-105510000D01*
%TO.N,SDA8*%
X139070000Y-129000000D02*
X139070000Y-110510000D01*
%TO.N,SDA9*%
X141610000Y-129000000D02*
X141610000Y-100510000D01*
%TO.N,SDA10*%
X144150000Y-129000000D02*
X144150000Y-105510000D01*
%TO.N,SDA11*%
X146690000Y-129000000D02*
X146690000Y-110510000D01*
%TO.N,SDA12*%
X149230000Y-129000000D02*
X149230000Y-100510000D01*
%TO.N,SDA13*%
X151770000Y-129000000D02*
X151770000Y-105510000D01*
%TO.N,SDA14*%
X154310000Y-129000000D02*
X154310000Y-110510000D01*
%TO.N,SDA15*%
X154934000Y-101134000D02*
X154934000Y-123085400D01*
X154310000Y-100510000D02*
X154934000Y-101134000D01*
%TO.N,SDA0_R*%
X117645400Y-93594700D02*
X112900500Y-88849800D01*
X118802300Y-39045900D02*
X118802300Y-45925100D01*
X117525000Y-38175000D02*
X117931400Y-38175000D01*
X112900500Y-51446100D02*
X110558800Y-49104400D01*
X117931400Y-38175000D02*
X118802300Y-39045900D01*
X112900500Y-88849800D02*
X112900500Y-51446100D01*
X110558800Y-49104400D02*
X110558800Y-45925100D01*
X118750000Y-99490000D02*
X117645400Y-98385400D01*
X117645400Y-98385400D02*
X117645400Y-93594700D01*
%TO.N,SDA1_R*%
X120394300Y-60746400D02*
X120394300Y-103594300D01*
X117525000Y-36905000D02*
X117935700Y-36905000D01*
X119992600Y-58681400D02*
X119992600Y-60344700D01*
X119992600Y-60344700D02*
X120394300Y-60746400D01*
X117935700Y-36905000D02*
X119423200Y-38392500D01*
X119423200Y-58112000D02*
X119992600Y-58681400D01*
X119423200Y-38392500D02*
X119423200Y-58112000D01*
X120394300Y-103594300D02*
X121290000Y-104490000D01*
%TO.N,SDA2_R*%
X120796000Y-62310400D02*
X123830000Y-65344400D01*
X120394300Y-58515100D02*
X120394300Y-60178400D01*
X123830000Y-65344400D02*
X123830000Y-109490000D01*
X120796000Y-60580100D02*
X120796000Y-62310400D01*
X119824900Y-37547600D02*
X119824900Y-57945700D01*
X120394300Y-60178400D02*
X120796000Y-60580100D01*
X119824900Y-57945700D02*
X120394300Y-58515100D01*
X117912300Y-35635000D02*
X119824900Y-37547600D01*
X117525000Y-35635000D02*
X117912300Y-35635000D01*
%TO.N,SDA3_R*%
X117900400Y-34365000D02*
X120226600Y-36691200D01*
X120796000Y-60012100D02*
X125626000Y-64842100D01*
X125626000Y-64842100D02*
X125626000Y-98746000D01*
X125626000Y-98746000D02*
X126370000Y-99490000D01*
X120796000Y-58348800D02*
X120796000Y-60012100D01*
X117525000Y-34365000D02*
X117900400Y-34365000D01*
X120226600Y-57779400D02*
X120796000Y-58348800D01*
X120226600Y-36691200D02*
X120226600Y-57779400D01*
%TO.N,SDA4_R*%
X114882800Y-31582500D02*
X116528800Y-29936500D01*
X116311700Y-90759200D02*
X113836300Y-88283800D01*
X114882800Y-49772400D02*
X114882800Y-31582500D01*
X118853200Y-30222400D02*
X118853200Y-32182000D01*
X117940200Y-33095000D02*
X117525000Y-33095000D01*
X128910000Y-100490500D02*
X128910000Y-104490000D01*
X113836300Y-88283800D02*
X113836300Y-50818900D01*
X113836300Y-50818900D02*
X114882800Y-49772400D01*
X126287300Y-91100800D02*
X126287300Y-97867800D01*
X126287300Y-97867800D02*
X128910000Y-100490500D01*
X116528800Y-29936500D02*
X118567300Y-29936500D01*
X118853200Y-32182000D02*
X117940200Y-33095000D01*
X118567300Y-29936500D02*
X118853200Y-30222400D01*
%TO.N,SDA5_R*%
X126889000Y-90851600D02*
X126889000Y-91360600D01*
X122475000Y-34365000D02*
X121528900Y-34365000D01*
X121197700Y-59782400D02*
X126027700Y-64612400D01*
X120628300Y-57613100D02*
X121197700Y-58182500D01*
X126027700Y-89990300D02*
X126889000Y-90851600D01*
X126889000Y-91360600D02*
X131450000Y-95921600D01*
X126027700Y-64612400D02*
X126027700Y-89990300D01*
X120628300Y-35265600D02*
X120628300Y-57613100D01*
X121528900Y-34365000D02*
X120628300Y-35265600D01*
X131450000Y-95921600D02*
X131450000Y-109490000D01*
X121197700Y-58182500D02*
X121197700Y-59782400D01*
%TO.N,SDA6_R*%
X122881400Y-35635000D02*
X122475000Y-35635000D01*
X125313300Y-38066900D02*
X122881400Y-35635000D01*
X125313300Y-53921400D02*
X125313300Y-38066900D01*
X133990000Y-99490000D02*
X133990000Y-58272800D01*
%TO.N,SDA7_R*%
X122819700Y-36905000D02*
X124232000Y-38317300D01*
X127433800Y-56913100D02*
X133488400Y-56913100D01*
X136530000Y-59954700D02*
X136530000Y-104490000D01*
X124232000Y-38317300D02*
X124232000Y-53711300D01*
X122475000Y-36905000D02*
X122819700Y-36905000D01*
X124232000Y-53711300D02*
X127433800Y-56913100D01*
X133488400Y-56913100D02*
X136530000Y-59954700D01*
%TO.N,SDA8_R*%
X139070000Y-109490000D02*
X139070000Y-96821200D01*
X117954600Y-58175000D02*
X118821400Y-59041800D01*
X117525000Y-58175000D02*
X117954600Y-58175000D01*
X118821400Y-59041800D02*
X118821400Y-96821200D01*
%TO.N,SDA9_R*%
X116191200Y-76045900D02*
X116883900Y-76738600D01*
X141610000Y-99490000D02*
X141610000Y-76740700D01*
X117525000Y-56905000D02*
X117126300Y-56905000D01*
X117126300Y-56905000D02*
X116191200Y-57840100D01*
X116191200Y-57840100D02*
X116191200Y-76045900D01*
X116883900Y-76738600D02*
X116883900Y-76740700D01*
%TO.N,SDA10_R*%
X117119000Y-55635000D02*
X115731700Y-57022300D01*
X117525000Y-55635000D02*
X117119000Y-55635000D01*
X115731700Y-76247600D02*
X115931700Y-76447600D01*
X115731700Y-57022300D02*
X115731700Y-76247600D01*
X144150000Y-104490000D02*
X144150000Y-87078700D01*
X116024900Y-76447600D02*
X116131900Y-76554600D01*
X116131900Y-86326700D02*
X116883900Y-87078700D01*
X116131900Y-76554600D02*
X116131900Y-86326700D01*
X115931700Y-76447600D02*
X116024900Y-76447600D01*
%TO.N,SDA11_R*%
X117525000Y-54365000D02*
X117923700Y-54365000D01*
X146690000Y-109490000D02*
X146690000Y-81909700D01*
X119021500Y-55462800D02*
X119021500Y-58278300D01*
X117923700Y-54365000D02*
X119021500Y-55462800D01*
X119423200Y-58680000D02*
X119423200Y-81909700D01*
X119021500Y-58278300D02*
X119423200Y-58680000D01*
%TO.N,SDA12_R*%
X117525000Y-53095000D02*
X117162500Y-53095000D01*
X115730200Y-76814100D02*
X115730200Y-87874300D01*
X115330000Y-54927500D02*
X115330000Y-76413900D01*
X115330000Y-76413900D02*
X115730200Y-76814100D01*
X117162500Y-53095000D02*
X115330000Y-54927500D01*
X149230000Y-99490000D02*
X149230000Y-87874300D01*
%TO.N,SDA13_R*%
X128800000Y-90966900D02*
X128322700Y-90489600D01*
X129713200Y-61204500D02*
X129713200Y-90611700D01*
X129713200Y-90611700D02*
X129358000Y-90966900D01*
X129358000Y-90966900D02*
X128800000Y-90966900D01*
X122475000Y-54365000D02*
X122873700Y-54365000D01*
X151770000Y-104490000D02*
X149863000Y-102583000D01*
X128322700Y-90489600D02*
X128322700Y-89737800D01*
X149863000Y-102583000D02*
X149863000Y-89737800D01*
X122873700Y-54365000D02*
X129713200Y-61204500D01*
%TO.N,SDA14_R*%
X154310000Y-109490000D02*
X153393300Y-108573300D01*
X129081100Y-61842400D02*
X129081100Y-90365100D01*
X153393300Y-108573300D02*
X153393300Y-93838900D01*
X122873700Y-55635000D02*
X129081100Y-61842400D01*
X122475000Y-55635000D02*
X122873700Y-55635000D01*
%TO.N,SDA15_R*%
X128415900Y-62421500D02*
X128415900Y-88669900D01*
X122899400Y-56905000D02*
X128415900Y-62421500D01*
X122475000Y-56905000D02*
X122899400Y-56905000D01*
X154310000Y-99490000D02*
X154310000Y-88669900D01*
%TO.N,PCK1B*%
X47630000Y-86337000D02*
X47869800Y-86097200D01*
X47630000Y-129000000D02*
X47630000Y-86337000D01*
%TO.N,PCK2B*%
X50170000Y-113822700D02*
X52194400Y-111798300D01*
X50170000Y-129000000D02*
X50170000Y-113822700D01*
X52194400Y-111798300D02*
X52194400Y-87101600D01*
%TO.N,SIG_2H1*%
X52710000Y-123698300D02*
X52710000Y-123643700D01*
X52710000Y-129000000D02*
X52710000Y-123698300D01*
X59155900Y-117197800D02*
X59563400Y-117197800D01*
X52710000Y-123643700D02*
X59155900Y-117197800D01*
%TO.N,CHA_CA4*%
X55250000Y-121954500D02*
X58467000Y-118737500D01*
X55250000Y-129000000D02*
X55250000Y-121954500D01*
%TO.N,SYSTEMB*%
X116590700Y-123317600D02*
X116590700Y-99803500D01*
X116210000Y-123698300D02*
X116590700Y-123317600D01*
X116210000Y-129000000D02*
X116210000Y-123698300D01*
%TO.N,SER_C*%
X58532700Y-79445000D02*
X59050500Y-78927200D01*
X57475000Y-79445000D02*
X58532700Y-79445000D01*
%TO.N,CLK_C*%
X54701200Y-33656500D02*
X52869700Y-31825000D01*
X52826500Y-51523500D02*
X52525000Y-51825000D01*
X54070800Y-51468300D02*
X54070800Y-49366300D01*
X53902200Y-38094900D02*
X54303900Y-37693200D01*
X52869700Y-31825000D02*
X52525000Y-31825000D01*
X51186600Y-63921800D02*
X52217200Y-62891200D01*
X53902200Y-49197700D02*
X53902200Y-38094900D01*
X54015600Y-51523500D02*
X54070800Y-51468300D01*
X52525000Y-71825000D02*
X52180300Y-71825000D01*
X54015600Y-51523500D02*
X52826500Y-51523500D01*
X54070800Y-49366300D02*
X53902200Y-49197700D01*
X54303900Y-36991200D02*
X54701200Y-36593900D01*
X54303900Y-37693200D02*
X54303900Y-36991200D01*
X54701200Y-36593900D02*
X54701200Y-33656500D01*
X52180300Y-71825000D02*
X51186600Y-70831300D01*
X51186600Y-70831300D02*
X51186600Y-63921800D01*
%TO.N,LOAD_C*%
X54705600Y-43671600D02*
X54705600Y-51900700D01*
X52890500Y-30555000D02*
X55107300Y-32771800D01*
X52525000Y-30555000D02*
X52890500Y-30555000D01*
X54303900Y-38261200D02*
X54303900Y-43269900D01*
X54705600Y-37157500D02*
X54705600Y-37859500D01*
X51244300Y-51445900D02*
X52135200Y-50555000D01*
X54232900Y-60685800D02*
X54232900Y-57797300D01*
X54303900Y-43269900D02*
X54705600Y-43671600D01*
X52135200Y-50555000D02*
X52525000Y-50555000D01*
X52525000Y-69184900D02*
X53749800Y-67960100D01*
X51244300Y-52214000D02*
X51244300Y-51445900D01*
X55107300Y-36755800D02*
X54705600Y-37157500D01*
X54705600Y-37859500D02*
X54303900Y-38261200D01*
X54775900Y-53089600D02*
X54146300Y-52460000D01*
X54705600Y-51900700D02*
X54146300Y-52460000D01*
X54232900Y-57797300D02*
X54007700Y-57572100D01*
X55107300Y-32771800D02*
X55107300Y-36755800D01*
X54146300Y-52460000D02*
X51490300Y-52460000D01*
X54775900Y-54143400D02*
X54775900Y-53089600D01*
X52525000Y-70555000D02*
X52525000Y-69184900D01*
X53749800Y-61168900D02*
X54232900Y-60685800D01*
X51490300Y-52460000D02*
X51244300Y-52214000D01*
X53749800Y-67960100D02*
X53749800Y-61168900D01*
%TO.N,SER_S*%
X122475000Y-59445000D02*
X126629400Y-63599400D01*
X126629400Y-63599400D02*
X126629400Y-75945100D01*
%TO.N,CLK_S*%
X118802900Y-49059100D02*
X118802900Y-50955800D01*
X118802900Y-50955800D02*
X117933700Y-51825000D01*
X115821800Y-46078000D02*
X118802900Y-49059100D01*
X114928300Y-81771500D02*
X115085200Y-81928400D01*
X117141300Y-51825000D02*
X114928300Y-54038000D01*
X117112600Y-31825000D02*
X115821800Y-33115800D01*
X114928300Y-54038000D02*
X114928300Y-81771500D01*
X117525000Y-51825000D02*
X117141300Y-51825000D01*
X117933700Y-51825000D02*
X117525000Y-51825000D01*
X115821800Y-33115800D02*
X115821800Y-46078000D01*
X117525000Y-31825000D02*
X117112600Y-31825000D01*
%TO.N,LOAD_S*%
X115420100Y-32262500D02*
X115420100Y-48859200D01*
X117115900Y-50555000D02*
X114444700Y-53226200D01*
X117525000Y-30555000D02*
X117127600Y-30555000D01*
X114444700Y-53226200D02*
X114444700Y-83200000D01*
X117127600Y-30555000D02*
X115420100Y-32262500D01*
X115420100Y-48859200D02*
X117115900Y-50555000D01*
X117525000Y-50555000D02*
X117115900Y-50555000D01*
%TO.N,CSR1_OUT*%
X59590100Y-57006100D02*
X58421200Y-58175000D01*
X59590100Y-41560100D02*
X59590100Y-57006100D01*
X58421200Y-58175000D02*
X57475000Y-58175000D01*
X57475000Y-39445000D02*
X59590100Y-41560100D01*
%TO.N,CSR2_OUT*%
X57876500Y-78175000D02*
X57475000Y-78175000D01*
X59175300Y-61145300D02*
X59175300Y-76876200D01*
X57475000Y-59445000D02*
X59175300Y-61145300D01*
X59175300Y-76876200D02*
X57876500Y-78175000D01*
%TO.N,SSR1_OUT*%
X121177000Y-40743000D02*
X121177000Y-57328600D01*
X121177000Y-57328600D02*
X122023400Y-58175000D01*
X122475000Y-39445000D02*
X121177000Y-40743000D01*
X122023400Y-58175000D02*
X122475000Y-58175000D01*
%TD*%
%TA.AperFunction,Conductor*%
%TO.N,GND*%
G36*
X4893539Y-520185D02*
G01*
X4939294Y-572989D01*
X4950500Y-624500D01*
X4950500Y-2565891D01*
X4984608Y-2693187D01*
X5017554Y-2750250D01*
X5050500Y-2807314D01*
X5143686Y-2900500D01*
X5257814Y-2966392D01*
X5385108Y-3000500D01*
X5385110Y-3000500D01*
X17516890Y-3000500D01*
X17516892Y-3000500D01*
X17644186Y-2966392D01*
X17758314Y-2900500D01*
X17851500Y-2807314D01*
X17917392Y-2693186D01*
X17951500Y-2565892D01*
X17951500Y-624500D01*
X17971185Y-557461D01*
X18023989Y-511706D01*
X18075500Y-500500D01*
X155826500Y-500500D01*
X155893539Y-520185D01*
X155939294Y-572989D01*
X155950500Y-624500D01*
X155950500Y-2565891D01*
X155984608Y-2693187D01*
X156017554Y-2750250D01*
X156050500Y-2807314D01*
X156143686Y-2900500D01*
X156257814Y-2966392D01*
X156385108Y-3000500D01*
X156385110Y-3000500D01*
X168516890Y-3000500D01*
X168516892Y-3000500D01*
X168644186Y-2966392D01*
X168758314Y-2900500D01*
X168851500Y-2807314D01*
X168917392Y-2693186D01*
X168951500Y-2565892D01*
X168951500Y-624500D01*
X168971185Y-557461D01*
X169023989Y-511706D01*
X169075500Y-500500D01*
X173275500Y-500500D01*
X173342539Y-520185D01*
X173388294Y-572989D01*
X173399500Y-624500D01*
X173399500Y-114375500D01*
X173379815Y-114442539D01*
X173327011Y-114488294D01*
X173275500Y-114499500D01*
X164185108Y-114499500D01*
X164057812Y-114533608D01*
X163943686Y-114599500D01*
X163943683Y-114599502D01*
X163850502Y-114692683D01*
X163850500Y-114692686D01*
X163784608Y-114806812D01*
X163750500Y-114934108D01*
X163750500Y-133375500D01*
X163730815Y-133442539D01*
X163678011Y-133488294D01*
X163626500Y-133499500D01*
X155684499Y-133499500D01*
X155617460Y-133479815D01*
X155571705Y-133427011D01*
X155560499Y-133375500D01*
X155560498Y-123952129D01*
X155560497Y-123952123D01*
X155560496Y-123952116D01*
X155554090Y-123892517D01*
X155510730Y-123776262D01*
X155501765Y-123752225D01*
X155496781Y-123682533D01*
X155530263Y-123621213D01*
X155555789Y-123595689D01*
X155643394Y-123464579D01*
X155703737Y-123318897D01*
X155734500Y-123164242D01*
X155734500Y-123006558D01*
X155734500Y-123006555D01*
X155734499Y-123006553D01*
X155729066Y-122979239D01*
X155703737Y-122851903D01*
X155686200Y-122809564D01*
X155643397Y-122706227D01*
X155643390Y-122706214D01*
X155555398Y-122574525D01*
X155534520Y-122507847D01*
X155534500Y-122505634D01*
X155534500Y-101054944D01*
X155534500Y-101054943D01*
X155530448Y-101039818D01*
X155493577Y-100902215D01*
X155493575Y-100902211D01*
X155454897Y-100835219D01*
X155414522Y-100765287D01*
X155414521Y-100765286D01*
X155414520Y-100765284D01*
X155302716Y-100653480D01*
X155302715Y-100653479D01*
X155298385Y-100649149D01*
X155298374Y-100649139D01*
X155166818Y-100517583D01*
X155133333Y-100456260D01*
X155133333Y-100456259D01*
X155130499Y-100429902D01*
X155130499Y-100310831D01*
X155130498Y-100310806D01*
X155129229Y-100294682D01*
X155127665Y-100274796D01*
X155082869Y-100120607D01*
X155048869Y-100063117D01*
X155031688Y-99995398D01*
X155048869Y-99936882D01*
X155082869Y-99879393D01*
X155110546Y-99784130D01*
X155127664Y-99725208D01*
X155127664Y-99725206D01*
X155127665Y-99725204D01*
X155130500Y-99689181D01*
X155130499Y-99290820D01*
X155127665Y-99254796D01*
X155082869Y-99100607D01*
X155001135Y-98962402D01*
X155001133Y-98962400D01*
X155001130Y-98962396D01*
X154946819Y-98908085D01*
X154913334Y-98846762D01*
X154910500Y-98820404D01*
X154910500Y-97783879D01*
X158499500Y-97783879D01*
X158499500Y-98216120D01*
X158533412Y-98647013D01*
X158533412Y-98647014D01*
X158572703Y-98895084D01*
X158601028Y-99073922D01*
X158653103Y-99290830D01*
X158699098Y-99482416D01*
X158701930Y-99494210D01*
X158709899Y-99518735D01*
X158835494Y-99905280D01*
X158937572Y-100151718D01*
X159000904Y-100304615D01*
X159197133Y-100689735D01*
X159197136Y-100689740D01*
X159197142Y-100689751D01*
X159422966Y-101058262D01*
X159422971Y-101058269D01*
X159422973Y-101058272D01*
X159499495Y-101163596D01*
X159677025Y-101407946D01*
X159677035Y-101407960D01*
X159957737Y-101736617D01*
X159957743Y-101736624D01*
X160263376Y-102042257D01*
X160295046Y-102069306D01*
X160592039Y-102322964D01*
X160592046Y-102322969D01*
X160941728Y-102577027D01*
X160941732Y-102577029D01*
X160941737Y-102577033D01*
X161310248Y-102802857D01*
X161310254Y-102802860D01*
X161310265Y-102802867D01*
X161695385Y-102999096D01*
X162078722Y-103157879D01*
X162094719Y-103164505D01*
X162199240Y-103198465D01*
X162505790Y-103298070D01*
X162926078Y-103398972D01*
X163352987Y-103466588D01*
X163783885Y-103500500D01*
X163783893Y-103500500D01*
X164216107Y-103500500D01*
X164216115Y-103500500D01*
X164647013Y-103466588D01*
X165073922Y-103398972D01*
X165494210Y-103298070D01*
X165905286Y-103164503D01*
X166304615Y-102999096D01*
X166689735Y-102802867D01*
X167058272Y-102577027D01*
X167407954Y-102322969D01*
X167736624Y-102042257D01*
X168042257Y-101736624D01*
X168301462Y-101433135D01*
X168322964Y-101407960D01*
X168322964Y-101407959D01*
X168322969Y-101407954D01*
X168577027Y-101058272D01*
X168802867Y-100689735D01*
X168999096Y-100304615D01*
X169164503Y-99905286D01*
X169298070Y-99494210D01*
X169398972Y-99073922D01*
X169466588Y-98647013D01*
X169500500Y-98216115D01*
X169500500Y-97783885D01*
X169466588Y-97352987D01*
X169398972Y-96926078D01*
X169298070Y-96505790D01*
X169170057Y-96111806D01*
X169164505Y-96094719D01*
X169127875Y-96006286D01*
X168999096Y-95695385D01*
X168802867Y-95310265D01*
X168802857Y-95310248D01*
X168577033Y-94941737D01*
X168577029Y-94941732D01*
X168577027Y-94941728D01*
X168322969Y-94592046D01*
X168322964Y-94592039D01*
X168042262Y-94263382D01*
X168042257Y-94263376D01*
X167736624Y-93957743D01*
X167628486Y-93865384D01*
X167407960Y-93677035D01*
X167407946Y-93677025D01*
X167117887Y-93466286D01*
X167058272Y-93422973D01*
X167058269Y-93422971D01*
X167058262Y-93422966D01*
X166689751Y-93197142D01*
X166689740Y-93197136D01*
X166689739Y-93197135D01*
X166689735Y-93197133D01*
X166304615Y-93000904D01*
X166057025Y-92898349D01*
X165905280Y-92835494D01*
X165612796Y-92740461D01*
X165494210Y-92701930D01*
X165073922Y-92601028D01*
X164647013Y-92533412D01*
X164216120Y-92499500D01*
X164216115Y-92499500D01*
X163783885Y-92499500D01*
X163783879Y-92499500D01*
X163352986Y-92533412D01*
X163352985Y-92533412D01*
X162926083Y-92601027D01*
X162926080Y-92601027D01*
X162926078Y-92601028D01*
X162775562Y-92637163D01*
X162505801Y-92701927D01*
X162505795Y-92701928D01*
X162505790Y-92701930D01*
X162505778Y-92701934D01*
X162094719Y-92835494D01*
X161695387Y-93000903D01*
X161310259Y-93197136D01*
X161310248Y-93197142D01*
X160941737Y-93422966D01*
X160941726Y-93422974D01*
X160592053Y-93677025D01*
X160592039Y-93677035D01*
X160263382Y-93957737D01*
X160263368Y-93957750D01*
X159957750Y-94263368D01*
X159957737Y-94263382D01*
X159677035Y-94592039D01*
X159677025Y-94592053D01*
X159422974Y-94941726D01*
X159422966Y-94941737D01*
X159197142Y-95310248D01*
X159197136Y-95310259D01*
X159000903Y-95695387D01*
X158835494Y-96094719D01*
X158701934Y-96505778D01*
X158701927Y-96505801D01*
X158601027Y-96926083D01*
X158533412Y-97352985D01*
X158533412Y-97352986D01*
X158499500Y-97783879D01*
X154910500Y-97783879D01*
X154910500Y-89249665D01*
X154930185Y-89182626D01*
X154931398Y-89180774D01*
X155019390Y-89049085D01*
X155019390Y-89049084D01*
X155019394Y-89049079D01*
X155079737Y-88903397D01*
X155110500Y-88748742D01*
X155110500Y-88591058D01*
X155110500Y-88591055D01*
X155110499Y-88591053D01*
X155109034Y-88583690D01*
X155079737Y-88436403D01*
X155079735Y-88436398D01*
X155019397Y-88290727D01*
X155019390Y-88290714D01*
X154931789Y-88159611D01*
X154931786Y-88159607D01*
X154820292Y-88048113D01*
X154820288Y-88048110D01*
X154689185Y-87960509D01*
X154689172Y-87960502D01*
X154543501Y-87900164D01*
X154543489Y-87900161D01*
X154388845Y-87869400D01*
X154388842Y-87869400D01*
X154231158Y-87869400D01*
X154231155Y-87869400D01*
X154076510Y-87900161D01*
X154076498Y-87900164D01*
X153930827Y-87960502D01*
X153930814Y-87960509D01*
X153799711Y-88048110D01*
X153799707Y-88048113D01*
X153688213Y-88159607D01*
X153688210Y-88159611D01*
X153600609Y-88290714D01*
X153600602Y-88290727D01*
X153540264Y-88436398D01*
X153540261Y-88436410D01*
X153509500Y-88591053D01*
X153509500Y-88748746D01*
X153540261Y-88903389D01*
X153540264Y-88903401D01*
X153600602Y-89049072D01*
X153600609Y-89049085D01*
X153688602Y-89180774D01*
X153709480Y-89247451D01*
X153709500Y-89249665D01*
X153709500Y-92934518D01*
X153689815Y-93001557D01*
X153637011Y-93047312D01*
X153567853Y-93057256D01*
X153561310Y-93056136D01*
X153472142Y-93038400D01*
X153314458Y-93038400D01*
X153314455Y-93038400D01*
X153159810Y-93069161D01*
X153159798Y-93069164D01*
X153014127Y-93129502D01*
X153014114Y-93129509D01*
X152883011Y-93217110D01*
X152883007Y-93217113D01*
X152771513Y-93328607D01*
X152771510Y-93328611D01*
X152683909Y-93459714D01*
X152683902Y-93459727D01*
X152623564Y-93605398D01*
X152623561Y-93605410D01*
X152592800Y-93760053D01*
X152592800Y-93917746D01*
X152623561Y-94072389D01*
X152623564Y-94072401D01*
X152683902Y-94218072D01*
X152683909Y-94218085D01*
X152771902Y-94349774D01*
X152792780Y-94416451D01*
X152792800Y-94418665D01*
X152792800Y-104089609D01*
X152773115Y-104156648D01*
X152720311Y-104202403D01*
X152651153Y-104212347D01*
X152587597Y-104183322D01*
X152549823Y-104124544D01*
X152549724Y-104124204D01*
X152542868Y-104100607D01*
X152542867Y-104100605D01*
X152461135Y-103962404D01*
X152461134Y-103962402D01*
X152461132Y-103962400D01*
X152461129Y-103962396D01*
X152347602Y-103848869D01*
X152347594Y-103848863D01*
X152209392Y-103767131D01*
X152209387Y-103767129D01*
X152055207Y-103722335D01*
X152055201Y-103722334D01*
X152019187Y-103719500D01*
X152019180Y-103719500D01*
X151900097Y-103719500D01*
X151833058Y-103699815D01*
X151812416Y-103683181D01*
X150499819Y-102370584D01*
X150466334Y-102309261D01*
X150463500Y-102282903D01*
X150463500Y-90317565D01*
X150483185Y-90250526D01*
X150484398Y-90248674D01*
X150539641Y-90165998D01*
X150572394Y-90116979D01*
X150632737Y-89971297D01*
X150663500Y-89816642D01*
X150663500Y-89658958D01*
X150663500Y-89658955D01*
X150663499Y-89658953D01*
X150632737Y-89504303D01*
X150604051Y-89435048D01*
X150572397Y-89358627D01*
X150572390Y-89358614D01*
X150484789Y-89227511D01*
X150484786Y-89227507D01*
X150373292Y-89116013D01*
X150373288Y-89116010D01*
X150242185Y-89028409D01*
X150242172Y-89028402D01*
X150096501Y-88968064D01*
X150096489Y-88968061D01*
X149935868Y-88936111D01*
X149936121Y-88934838D01*
X149877550Y-88911181D01*
X149837196Y-88854143D01*
X149830500Y-88813946D01*
X149830500Y-88454065D01*
X149850185Y-88387026D01*
X149851398Y-88385174D01*
X149858641Y-88374335D01*
X149939394Y-88253479D01*
X149943762Y-88242935D01*
X149959617Y-88204657D01*
X149999737Y-88107797D01*
X150030500Y-87953142D01*
X150030500Y-87795458D01*
X150030500Y-87795455D01*
X150030499Y-87795453D01*
X150007365Y-87679151D01*
X149999737Y-87640803D01*
X149981293Y-87596275D01*
X149939397Y-87495127D01*
X149939390Y-87495114D01*
X149851789Y-87364011D01*
X149851786Y-87364007D01*
X149740292Y-87252513D01*
X149740288Y-87252510D01*
X149609185Y-87164909D01*
X149609172Y-87164902D01*
X149463501Y-87104564D01*
X149463489Y-87104561D01*
X149308845Y-87073800D01*
X149308842Y-87073800D01*
X149151158Y-87073800D01*
X149151155Y-87073800D01*
X148996510Y-87104561D01*
X148996498Y-87104564D01*
X148850827Y-87164902D01*
X148850814Y-87164909D01*
X148719711Y-87252510D01*
X148719707Y-87252513D01*
X148608213Y-87364007D01*
X148608210Y-87364011D01*
X148520609Y-87495114D01*
X148520602Y-87495127D01*
X148460264Y-87640798D01*
X148460261Y-87640810D01*
X148429500Y-87795453D01*
X148429500Y-87953146D01*
X148460261Y-88107789D01*
X148460264Y-88107801D01*
X148520602Y-88253472D01*
X148520609Y-88253485D01*
X148577092Y-88338016D01*
X148601359Y-88374335D01*
X148608602Y-88385174D01*
X148629480Y-88451851D01*
X148629500Y-88454065D01*
X148629500Y-98820404D01*
X148609815Y-98887443D01*
X148593181Y-98908085D01*
X148538869Y-98962396D01*
X148538863Y-98962404D01*
X148457131Y-99100606D01*
X148457129Y-99100611D01*
X148412335Y-99254791D01*
X148412334Y-99254797D01*
X148409500Y-99290811D01*
X148409500Y-99689169D01*
X148409501Y-99689191D01*
X148412335Y-99725205D01*
X148457129Y-99879388D01*
X148457132Y-99879395D01*
X148491128Y-99936881D01*
X148508309Y-100004605D01*
X148491128Y-100063119D01*
X148457132Y-100120604D01*
X148457129Y-100120611D01*
X148412335Y-100274791D01*
X148412334Y-100274797D01*
X148409500Y-100310811D01*
X148409500Y-100709169D01*
X148409501Y-100709191D01*
X148412335Y-100745205D01*
X148457129Y-100899388D01*
X148457131Y-100899393D01*
X148522248Y-101009501D01*
X148538865Y-101037598D01*
X148593182Y-101091915D01*
X148626666Y-101153236D01*
X148629500Y-101179595D01*
X148629500Y-123375500D01*
X148609815Y-123442539D01*
X148557011Y-123488294D01*
X148505502Y-123499500D01*
X148432129Y-123499500D01*
X148432122Y-123499501D01*
X148372515Y-123505908D01*
X148237670Y-123556202D01*
X148237663Y-123556206D01*
X148122454Y-123642452D01*
X148122451Y-123642455D01*
X148059265Y-123726861D01*
X148003331Y-123768732D01*
X147933640Y-123773716D01*
X147872317Y-123740230D01*
X147860733Y-123726861D01*
X147797546Y-123642455D01*
X147797543Y-123642452D01*
X147682334Y-123556206D01*
X147682327Y-123556202D01*
X147547481Y-123505908D01*
X147547482Y-123505908D01*
X147487882Y-123499501D01*
X147487880Y-123499500D01*
X147487872Y-123499500D01*
X147487864Y-123499500D01*
X147414500Y-123499500D01*
X147347461Y-123479815D01*
X147301706Y-123427011D01*
X147290500Y-123375500D01*
X147290500Y-111179595D01*
X147310185Y-111112556D01*
X147326814Y-111091918D01*
X147381135Y-111037598D01*
X147462869Y-110899393D01*
X147507665Y-110745204D01*
X147510500Y-110709181D01*
X147510499Y-110310820D01*
X147507665Y-110274796D01*
X147462869Y-110120607D01*
X147428869Y-110063117D01*
X147411688Y-109995398D01*
X147428869Y-109936882D01*
X147462869Y-109879393D01*
X147507665Y-109725204D01*
X147510500Y-109689181D01*
X147510499Y-109290820D01*
X147507665Y-109254796D01*
X147462869Y-109100607D01*
X147381135Y-108962402D01*
X147381133Y-108962400D01*
X147381130Y-108962396D01*
X147326819Y-108908085D01*
X147293334Y-108846762D01*
X147290500Y-108820404D01*
X147290500Y-82489465D01*
X147310185Y-82422426D01*
X147311398Y-82420574D01*
X147399390Y-82288885D01*
X147399390Y-82288884D01*
X147399394Y-82288879D01*
X147459737Y-82143197D01*
X147490500Y-81988542D01*
X147490500Y-81830858D01*
X147490500Y-81830855D01*
X147490499Y-81830853D01*
X147468958Y-81722561D01*
X147459737Y-81676203D01*
X147452742Y-81659315D01*
X147399397Y-81530527D01*
X147399390Y-81530514D01*
X147311789Y-81399411D01*
X147311786Y-81399407D01*
X147200292Y-81287913D01*
X147200288Y-81287910D01*
X147069185Y-81200309D01*
X147069172Y-81200302D01*
X146923501Y-81139964D01*
X146923489Y-81139961D01*
X146768845Y-81109200D01*
X146768842Y-81109200D01*
X146611158Y-81109200D01*
X146611155Y-81109200D01*
X146456510Y-81139961D01*
X146456498Y-81139964D01*
X146310827Y-81200302D01*
X146310814Y-81200309D01*
X146213391Y-81265406D01*
X146146713Y-81286284D01*
X146079333Y-81267799D01*
X146032643Y-81215821D01*
X146020500Y-81162304D01*
X146020500Y-73353565D01*
X146040185Y-73286526D01*
X146041398Y-73284674D01*
X146090751Y-73210813D01*
X146129394Y-73152979D01*
X146189737Y-73007297D01*
X146220500Y-72852642D01*
X146220500Y-72694958D01*
X146220500Y-72694955D01*
X146220499Y-72694953D01*
X146212905Y-72656774D01*
X146189737Y-72540303D01*
X146170175Y-72493076D01*
X146129397Y-72394627D01*
X146129390Y-72394614D01*
X146041789Y-72263511D01*
X146041786Y-72263507D01*
X145930292Y-72152013D01*
X145930288Y-72152010D01*
X145799185Y-72064409D01*
X145799172Y-72064402D01*
X145653501Y-72004064D01*
X145653489Y-72004061D01*
X145498845Y-71973300D01*
X145498842Y-71973300D01*
X145341158Y-71973300D01*
X145341155Y-71973300D01*
X145186510Y-72004061D01*
X145186498Y-72004064D01*
X145040827Y-72064402D01*
X145040814Y-72064409D01*
X144909711Y-72152010D01*
X144909707Y-72152013D01*
X144798213Y-72263507D01*
X144798210Y-72263511D01*
X144710609Y-72394614D01*
X144710602Y-72394627D01*
X144650264Y-72540298D01*
X144650261Y-72540310D01*
X144619500Y-72694953D01*
X144619500Y-72852646D01*
X144650261Y-73007289D01*
X144650264Y-73007301D01*
X144710602Y-73152972D01*
X144710609Y-73152985D01*
X144798602Y-73284674D01*
X144819480Y-73351351D01*
X144819500Y-73353565D01*
X144819500Y-86331304D01*
X144799815Y-86398343D01*
X144747011Y-86444098D01*
X144677853Y-86454042D01*
X144626609Y-86434406D01*
X144529185Y-86369309D01*
X144529172Y-86369302D01*
X144383501Y-86308964D01*
X144383489Y-86308961D01*
X144228845Y-86278200D01*
X144228842Y-86278200D01*
X144071158Y-86278200D01*
X144071155Y-86278200D01*
X143916510Y-86308961D01*
X143916498Y-86308964D01*
X143770827Y-86369302D01*
X143770814Y-86369309D01*
X143673391Y-86434406D01*
X143606713Y-86455284D01*
X143539333Y-86436799D01*
X143492643Y-86384821D01*
X143480500Y-86331304D01*
X143480500Y-67325865D01*
X143500185Y-67258826D01*
X143501398Y-67256974D01*
X143589390Y-67125285D01*
X143589390Y-67125284D01*
X143589394Y-67125279D01*
X143649737Y-66979597D01*
X143680500Y-66824942D01*
X143680500Y-66667258D01*
X143680500Y-66667255D01*
X143680499Y-66667253D01*
X143675154Y-66640380D01*
X143649737Y-66512603D01*
X143649735Y-66512598D01*
X143589397Y-66366927D01*
X143589390Y-66366914D01*
X143501789Y-66235811D01*
X143501786Y-66235807D01*
X143390292Y-66124313D01*
X143390288Y-66124310D01*
X143259185Y-66036709D01*
X143259172Y-66036702D01*
X143113501Y-65976364D01*
X143113489Y-65976361D01*
X142958845Y-65945600D01*
X142958842Y-65945600D01*
X142801158Y-65945600D01*
X142801155Y-65945600D01*
X142646510Y-65976361D01*
X142646498Y-65976364D01*
X142500827Y-66036702D01*
X142500814Y-66036709D01*
X142369711Y-66124310D01*
X142369707Y-66124313D01*
X142258213Y-66235807D01*
X142258210Y-66235811D01*
X142170609Y-66366914D01*
X142170602Y-66366927D01*
X142110264Y-66512598D01*
X142110261Y-66512610D01*
X142079500Y-66667253D01*
X142079500Y-66824946D01*
X142110261Y-66979589D01*
X142110264Y-66979601D01*
X142170602Y-67125272D01*
X142170609Y-67125285D01*
X142258602Y-67256974D01*
X142279480Y-67323651D01*
X142279500Y-67325865D01*
X142279500Y-75993304D01*
X142259815Y-76060343D01*
X142207011Y-76106098D01*
X142137853Y-76116042D01*
X142086609Y-76096406D01*
X141989185Y-76031309D01*
X141989172Y-76031302D01*
X141843501Y-75970964D01*
X141843489Y-75970961D01*
X141688845Y-75940200D01*
X141688842Y-75940200D01*
X141531158Y-75940200D01*
X141531155Y-75940200D01*
X141376510Y-75970961D01*
X141376498Y-75970964D01*
X141230827Y-76031302D01*
X141230814Y-76031309D01*
X141133391Y-76096406D01*
X141066713Y-76117284D01*
X140999333Y-76098799D01*
X140952643Y-76046821D01*
X140940500Y-75993304D01*
X140940500Y-66656365D01*
X140960185Y-66589326D01*
X140961398Y-66587474D01*
X141049390Y-66455785D01*
X141049390Y-66455784D01*
X141049394Y-66455779D01*
X141109737Y-66310097D01*
X141140500Y-66155442D01*
X141140500Y-65997758D01*
X141140500Y-65997755D01*
X141140499Y-65997753D01*
X141109738Y-65843110D01*
X141109737Y-65843103D01*
X141109735Y-65843098D01*
X141049397Y-65697427D01*
X141049390Y-65697414D01*
X140961789Y-65566311D01*
X140961786Y-65566307D01*
X140850292Y-65454813D01*
X140850288Y-65454810D01*
X140719185Y-65367209D01*
X140719172Y-65367202D01*
X140573501Y-65306864D01*
X140573489Y-65306861D01*
X140418845Y-65276100D01*
X140418842Y-65276100D01*
X140261158Y-65276100D01*
X140261155Y-65276100D01*
X140106510Y-65306861D01*
X140106498Y-65306864D01*
X139960827Y-65367202D01*
X139960814Y-65367209D01*
X139829711Y-65454810D01*
X139829707Y-65454813D01*
X139718213Y-65566307D01*
X139718210Y-65566311D01*
X139630609Y-65697414D01*
X139630602Y-65697427D01*
X139570264Y-65843098D01*
X139570261Y-65843110D01*
X139539500Y-65997753D01*
X139539500Y-66155446D01*
X139570261Y-66310089D01*
X139570264Y-66310101D01*
X139630602Y-66455772D01*
X139630609Y-66455785D01*
X139718602Y-66587474D01*
X139739480Y-66654151D01*
X139739500Y-66656365D01*
X139739500Y-96073804D01*
X139719815Y-96140843D01*
X139667011Y-96186598D01*
X139597853Y-96196542D01*
X139546609Y-96176906D01*
X139449185Y-96111809D01*
X139449172Y-96111802D01*
X139303501Y-96051464D01*
X139303489Y-96051461D01*
X139148845Y-96020700D01*
X139148842Y-96020700D01*
X138991158Y-96020700D01*
X138991155Y-96020700D01*
X138836510Y-96051461D01*
X138836498Y-96051464D01*
X138690827Y-96111802D01*
X138690814Y-96111809D01*
X138593391Y-96176906D01*
X138526713Y-96197784D01*
X138459333Y-96179299D01*
X138412643Y-96127321D01*
X138400500Y-96073804D01*
X138400500Y-61159865D01*
X138420185Y-61092826D01*
X138421398Y-61090974D01*
X138509390Y-60959285D01*
X138509390Y-60959284D01*
X138509394Y-60959279D01*
X138569737Y-60813597D01*
X138600500Y-60658942D01*
X138600500Y-60501258D01*
X138600500Y-60501255D01*
X138600499Y-60501253D01*
X138569737Y-60346603D01*
X138526195Y-60241482D01*
X138509397Y-60200927D01*
X138509390Y-60200914D01*
X138421789Y-60069811D01*
X138421786Y-60069807D01*
X138310292Y-59958313D01*
X138310288Y-59958310D01*
X138179185Y-59870709D01*
X138179172Y-59870702D01*
X138033501Y-59810364D01*
X138033489Y-59810361D01*
X137878845Y-59779600D01*
X137878842Y-59779600D01*
X137721158Y-59779600D01*
X137721155Y-59779600D01*
X137566510Y-59810361D01*
X137566498Y-59810364D01*
X137420827Y-59870702D01*
X137420814Y-59870709D01*
X137317343Y-59939847D01*
X137250665Y-59960725D01*
X137183285Y-59942240D01*
X137136595Y-59890261D01*
X137128680Y-59868847D01*
X137089577Y-59722915D01*
X137074393Y-59696617D01*
X137053653Y-59660693D01*
X137053652Y-59660692D01*
X137010521Y-59585986D01*
X137010520Y-59585984D01*
X136898716Y-59474180D01*
X136898715Y-59474179D01*
X136894385Y-59469849D01*
X136894374Y-59469839D01*
X133975990Y-56551455D01*
X133975988Y-56551452D01*
X133857117Y-56432581D01*
X133857116Y-56432580D01*
X133770304Y-56382460D01*
X133770304Y-56382459D01*
X133770300Y-56382458D01*
X133720185Y-56353523D01*
X133567457Y-56312599D01*
X133409343Y-56312599D01*
X133401747Y-56312599D01*
X133401731Y-56312600D01*
X127733897Y-56312600D01*
X127666858Y-56292915D01*
X127646216Y-56276281D01*
X125953588Y-54583653D01*
X125920103Y-54522330D01*
X125925087Y-54452638D01*
X125938161Y-54427090D01*
X126022694Y-54300579D01*
X126083037Y-54154897D01*
X126113800Y-54000242D01*
X126113800Y-53842558D01*
X126113800Y-53842555D01*
X126113799Y-53842553D01*
X126098219Y-53764227D01*
X126083037Y-53687903D01*
X126059982Y-53632243D01*
X126022697Y-53542227D01*
X126022690Y-53542214D01*
X125934698Y-53410525D01*
X125913820Y-53343847D01*
X125913800Y-53341634D01*
X125913800Y-38155959D01*
X125913801Y-38155946D01*
X125913801Y-37987845D01*
X125913801Y-37987843D01*
X125872877Y-37835115D01*
X125836313Y-37771785D01*
X125836313Y-37771784D01*
X125793822Y-37698187D01*
X125793821Y-37698186D01*
X125793820Y-37698184D01*
X125682016Y-37586380D01*
X125682015Y-37586379D01*
X125677685Y-37582049D01*
X125677674Y-37582039D01*
X123986819Y-35891184D01*
X123953334Y-35829861D01*
X123950500Y-35803503D01*
X123950500Y-35419313D01*
X123950499Y-35419298D01*
X123949833Y-35410840D01*
X123947598Y-35382431D01*
X123936624Y-35344660D01*
X123901745Y-35224606D01*
X123901744Y-35224603D01*
X123901744Y-35224602D01*
X123818081Y-35083135D01*
X123818078Y-35083132D01*
X123813298Y-35076969D01*
X123815750Y-35075066D01*
X123789155Y-35026421D01*
X123794104Y-34956726D01*
X123814940Y-34924304D01*
X123813298Y-34923031D01*
X123818075Y-34916870D01*
X123818081Y-34916865D01*
X123901744Y-34775398D01*
X123947598Y-34617569D01*
X123950500Y-34580694D01*
X123950500Y-34149306D01*
X123947598Y-34112431D01*
X123946642Y-34109141D01*
X123901745Y-33954606D01*
X123901744Y-33954603D01*
X123901744Y-33954602D01*
X123818081Y-33813135D01*
X123818080Y-33813134D01*
X123818076Y-33813129D01*
X123701870Y-33696923D01*
X123701862Y-33696917D01*
X123560396Y-33613255D01*
X123560393Y-33613254D01*
X123402573Y-33567402D01*
X123402567Y-33567401D01*
X123365701Y-33564500D01*
X123365694Y-33564500D01*
X121584306Y-33564500D01*
X121584298Y-33564500D01*
X121547432Y-33567401D01*
X121547426Y-33567402D01*
X121389606Y-33613254D01*
X121389603Y-33613255D01*
X121248137Y-33696917D01*
X121248129Y-33696923D01*
X121131923Y-33813129D01*
X121131919Y-33813135D01*
X121048255Y-33954603D01*
X121040018Y-33982955D01*
X121008623Y-34036039D01*
X120259586Y-34785078D01*
X120147781Y-34896882D01*
X120147775Y-34896890D01*
X120107346Y-34966917D01*
X120107346Y-34966919D01*
X120068723Y-35033814D01*
X120068723Y-35033815D01*
X120027799Y-35186543D01*
X120027799Y-35186545D01*
X120027799Y-35343801D01*
X120008114Y-35410840D01*
X119955310Y-35456595D01*
X119886152Y-35466539D01*
X119822596Y-35437514D01*
X119816118Y-35431482D01*
X119036819Y-34652183D01*
X119003334Y-34590860D01*
X119000500Y-34564502D01*
X119000500Y-34149313D01*
X119000499Y-34149298D01*
X119000497Y-34149276D01*
X118997598Y-34112431D01*
X118996642Y-34109141D01*
X118951745Y-33954606D01*
X118951744Y-33954603D01*
X118951744Y-33954602D01*
X118868081Y-33813135D01*
X118868080Y-33813134D01*
X118863298Y-33806969D01*
X118865750Y-33805066D01*
X118839155Y-33756421D01*
X118844104Y-33686726D01*
X118864940Y-33654304D01*
X118863298Y-33653031D01*
X118868075Y-33646870D01*
X118868081Y-33646865D01*
X118951744Y-33505398D01*
X118997598Y-33347569D01*
X119000500Y-33310694D01*
X119000500Y-32935296D01*
X119009144Y-32905855D01*
X119015668Y-32875869D01*
X119019422Y-32870853D01*
X119020185Y-32868257D01*
X119036815Y-32847619D01*
X119211706Y-32672727D01*
X119211711Y-32672724D01*
X119221914Y-32662520D01*
X119221916Y-32662520D01*
X119333720Y-32550716D01*
X119406013Y-32425500D01*
X119412777Y-32413785D01*
X119453701Y-32261057D01*
X119453701Y-32102943D01*
X119453701Y-32095348D01*
X119453700Y-32095330D01*
X119453700Y-30311460D01*
X119453701Y-30311447D01*
X119453701Y-30143344D01*
X119429509Y-30053059D01*
X119412777Y-29990616D01*
X119371775Y-29919599D01*
X119355303Y-29851700D01*
X119378156Y-29785673D01*
X119433077Y-29742482D01*
X119479163Y-29733600D01*
X120753003Y-29733600D01*
X120820042Y-29753285D01*
X120840684Y-29769919D01*
X121042345Y-29971580D01*
X121075830Y-30032903D01*
X121070846Y-30102595D01*
X121061397Y-30122380D01*
X121048258Y-30144596D01*
X121048254Y-30144607D01*
X121002402Y-30302426D01*
X121002401Y-30302432D01*
X120999500Y-30339298D01*
X120999500Y-30770701D01*
X121002401Y-30807567D01*
X121002402Y-30807573D01*
X121048254Y-30965393D01*
X121048255Y-30965396D01*
X121131917Y-31106862D01*
X121136702Y-31113031D01*
X121134256Y-31114927D01*
X121160857Y-31163642D01*
X121155873Y-31233334D01*
X121135069Y-31265703D01*
X121136702Y-31266969D01*
X121131917Y-31273137D01*
X121048255Y-31414603D01*
X121048254Y-31414606D01*
X121002402Y-31572426D01*
X121002401Y-31572432D01*
X120999500Y-31609298D01*
X120999500Y-32040701D01*
X121002401Y-32077567D01*
X121002402Y-32077573D01*
X121048254Y-32235393D01*
X121048255Y-32235396D01*
X121131917Y-32376862D01*
X121131923Y-32376870D01*
X121248129Y-32493076D01*
X121248133Y-32493079D01*
X121248135Y-32493081D01*
X121389602Y-32576744D01*
X121431224Y-32588836D01*
X121547426Y-32622597D01*
X121547429Y-32622597D01*
X121547431Y-32622598D01*
X121584306Y-32625500D01*
X121584314Y-32625500D01*
X123365686Y-32625500D01*
X123365694Y-32625500D01*
X123402569Y-32622598D01*
X123402571Y-32622597D01*
X123402573Y-32622597D01*
X123444191Y-32610505D01*
X123560398Y-32576744D01*
X123701865Y-32493081D01*
X123818081Y-32376865D01*
X123901744Y-32235398D01*
X123947598Y-32077569D01*
X123950500Y-32040694D01*
X123950500Y-31609306D01*
X123947598Y-31572431D01*
X123901744Y-31414602D01*
X123818081Y-31273135D01*
X123818078Y-31273132D01*
X123813298Y-31266969D01*
X123815750Y-31265066D01*
X123789155Y-31216421D01*
X123794104Y-31146726D01*
X123814940Y-31114304D01*
X123813298Y-31113031D01*
X123818075Y-31106870D01*
X123818081Y-31106865D01*
X123901744Y-30965398D01*
X123946407Y-30811670D01*
X123947597Y-30807573D01*
X123947598Y-30807567D01*
X123948921Y-30790760D01*
X123950500Y-30770694D01*
X123950500Y-30339306D01*
X123947598Y-30302431D01*
X123947316Y-30301461D01*
X123901745Y-30144606D01*
X123901744Y-30144603D01*
X123901744Y-30144602D01*
X123818081Y-30003135D01*
X123818079Y-30003133D01*
X123818076Y-30003129D01*
X123701870Y-29886923D01*
X123701862Y-29886917D01*
X123560396Y-29803255D01*
X123560393Y-29803254D01*
X123402573Y-29757402D01*
X123402567Y-29757401D01*
X123365701Y-29754500D01*
X123365694Y-29754500D01*
X122575097Y-29754500D01*
X122508058Y-29734815D01*
X122487416Y-29718181D01*
X121540690Y-28771455D01*
X121540688Y-28771452D01*
X121421817Y-28652581D01*
X121421816Y-28652580D01*
X121335004Y-28602460D01*
X121335004Y-28602459D01*
X121335000Y-28602458D01*
X121284885Y-28573523D01*
X121132157Y-28532599D01*
X120974043Y-28532599D01*
X120966447Y-28532599D01*
X120966431Y-28532600D01*
X113473570Y-28532600D01*
X113473554Y-28532599D01*
X113465958Y-28532599D01*
X113307843Y-28532599D01*
X113231479Y-28553061D01*
X113155114Y-28573523D01*
X113155109Y-28573526D01*
X113018190Y-28652575D01*
X113018182Y-28652581D01*
X112517584Y-29153181D01*
X112456261Y-29186666D01*
X112429903Y-29189500D01*
X112315302Y-29189500D01*
X112279008Y-29192356D01*
X112279002Y-29192357D01*
X112123609Y-29237504D01*
X112123606Y-29237505D01*
X111984315Y-29319881D01*
X111984307Y-29319887D01*
X111941016Y-29363180D01*
X111879693Y-29396666D01*
X111853334Y-29399500D01*
X110300097Y-29399500D01*
X110233058Y-29379815D01*
X110212416Y-29363181D01*
X90873757Y-10024522D01*
X90840272Y-9963199D01*
X90843507Y-9898523D01*
X90857246Y-9856243D01*
X90890500Y-9646287D01*
X90890500Y-9433713D01*
X90857246Y-9223757D01*
X90791557Y-9021588D01*
X90695051Y-8832184D01*
X90695049Y-8832181D01*
X90695048Y-8832179D01*
X90570109Y-8660213D01*
X90419786Y-8509890D01*
X90247820Y-8384951D01*
X90247115Y-8384591D01*
X90239054Y-8380485D01*
X90188259Y-8332512D01*
X90171463Y-8264692D01*
X90193999Y-8198556D01*
X90239054Y-8159515D01*
X90247816Y-8155051D01*
X90334138Y-8092335D01*
X90419786Y-8030109D01*
X90419788Y-8030106D01*
X90419792Y-8030104D01*
X90570104Y-7879792D01*
X90570106Y-7879788D01*
X90570109Y-7879786D01*
X90695048Y-7707820D01*
X90695047Y-7707820D01*
X90695051Y-7707816D01*
X90791557Y-7518412D01*
X90857246Y-7316243D01*
X90890500Y-7106287D01*
X90890500Y-6893713D01*
X90857246Y-6683757D01*
X90791557Y-6481588D01*
X90695051Y-6292184D01*
X90695049Y-6292181D01*
X90695048Y-6292179D01*
X90570109Y-6120213D01*
X90419786Y-5969890D01*
X90247820Y-5844951D01*
X90058414Y-5748444D01*
X90058413Y-5748443D01*
X90058412Y-5748443D01*
X89856243Y-5682754D01*
X89856241Y-5682753D01*
X89856240Y-5682753D01*
X89694957Y-5657208D01*
X89646287Y-5649500D01*
X89433713Y-5649500D01*
X89385042Y-5657208D01*
X89223760Y-5682753D01*
X89021585Y-5748444D01*
X88832179Y-5844951D01*
X88660215Y-5969889D01*
X88546673Y-6083431D01*
X88485350Y-6116915D01*
X88415658Y-6111931D01*
X88359725Y-6070059D01*
X88342810Y-6039082D01*
X88293797Y-5907671D01*
X88293793Y-5907664D01*
X88207547Y-5792455D01*
X88207544Y-5792452D01*
X88092335Y-5706206D01*
X88092328Y-5706202D01*
X87957482Y-5655908D01*
X87957483Y-5655908D01*
X87897883Y-5649501D01*
X87897881Y-5649500D01*
X87897873Y-5649500D01*
X87897864Y-5649500D01*
X86102129Y-5649500D01*
X86102123Y-5649501D01*
X86042516Y-5655908D01*
X85907671Y-5706202D01*
X85907664Y-5706206D01*
X85792455Y-5792452D01*
X85792452Y-5792455D01*
X85706206Y-5907664D01*
X85706202Y-5907671D01*
X85655908Y-6042517D01*
X85649501Y-6102116D01*
X85649500Y-6102135D01*
X85649500Y-7897870D01*
X85649501Y-7897876D01*
X85655908Y-7957483D01*
X85706202Y-8092328D01*
X85706206Y-8092335D01*
X85792452Y-8207544D01*
X85792455Y-8207547D01*
X85907664Y-8293793D01*
X85907671Y-8293797D01*
X86039082Y-8342810D01*
X86095016Y-8384681D01*
X86119433Y-8450145D01*
X86104582Y-8518418D01*
X86083431Y-8546673D01*
X85969889Y-8660215D01*
X85844951Y-8832179D01*
X85748444Y-9021585D01*
X85682753Y-9223760D01*
X85649500Y-9433713D01*
X85649500Y-9646286D01*
X85682753Y-9856239D01*
X85682753Y-9856241D01*
X85682754Y-9856243D01*
X85746595Y-10052726D01*
X85748444Y-10058414D01*
X85844951Y-10247820D01*
X85969890Y-10419786D01*
X86120213Y-10570109D01*
X86292179Y-10695048D01*
X86292181Y-10695049D01*
X86292184Y-10695051D01*
X86481588Y-10791557D01*
X86683757Y-10857246D01*
X86893713Y-10890500D01*
X86893714Y-10890500D01*
X87106286Y-10890500D01*
X87106287Y-10890500D01*
X87316243Y-10857246D01*
X87518412Y-10791557D01*
X87707816Y-10695051D01*
X87729789Y-10679086D01*
X87879786Y-10570109D01*
X87879788Y-10570106D01*
X87879792Y-10570104D01*
X88030104Y-10419792D01*
X88030106Y-10419788D01*
X88030109Y-10419786D01*
X88155048Y-10247820D01*
X88155047Y-10247820D01*
X88155051Y-10247816D01*
X88159514Y-10239054D01*
X88207488Y-10188259D01*
X88275308Y-10171463D01*
X88341444Y-10193999D01*
X88380486Y-10239056D01*
X88384951Y-10247820D01*
X88509890Y-10419786D01*
X88660213Y-10570109D01*
X88832179Y-10695048D01*
X88832181Y-10695049D01*
X88832184Y-10695051D01*
X89021588Y-10791557D01*
X89223757Y-10857246D01*
X89433713Y-10890500D01*
X89433714Y-10890500D01*
X89646286Y-10890500D01*
X89646287Y-10890500D01*
X89856243Y-10857246D01*
X89898523Y-10843507D01*
X89968362Y-10841511D01*
X90024522Y-10873757D01*
X109515139Y-30364374D01*
X109515149Y-30364385D01*
X109519479Y-30368715D01*
X109519480Y-30368716D01*
X109631284Y-30480520D01*
X109631286Y-30480521D01*
X109631290Y-30480524D01*
X109768209Y-30559573D01*
X109768216Y-30559577D01*
X109880019Y-30589534D01*
X109920942Y-30600500D01*
X109920943Y-30600500D01*
X111795500Y-30600500D01*
X111862539Y-30620185D01*
X111908294Y-30672989D01*
X111919500Y-30724500D01*
X111919500Y-48524634D01*
X111899815Y-48591673D01*
X111898602Y-48593525D01*
X111810609Y-48725214D01*
X111810602Y-48725227D01*
X111750264Y-48870898D01*
X111750261Y-48870910D01*
X111719500Y-49025553D01*
X111719500Y-49116503D01*
X111699815Y-49183542D01*
X111647011Y-49229297D01*
X111577853Y-49239241D01*
X111514297Y-49210216D01*
X111507819Y-49204184D01*
X111195619Y-48891984D01*
X111162134Y-48830661D01*
X111159300Y-48804303D01*
X111159300Y-46504865D01*
X111178985Y-46437826D01*
X111180198Y-46435974D01*
X111206309Y-46396897D01*
X111268194Y-46304279D01*
X111328537Y-46158597D01*
X111359300Y-46003942D01*
X111359300Y-45846258D01*
X111359300Y-45846255D01*
X111359299Y-45846253D01*
X111340948Y-45753999D01*
X111328537Y-45691603D01*
X111313254Y-45654707D01*
X111268197Y-45545927D01*
X111268190Y-45545914D01*
X111180589Y-45414811D01*
X111180586Y-45414807D01*
X111069092Y-45303313D01*
X111069088Y-45303310D01*
X110937985Y-45215709D01*
X110937972Y-45215702D01*
X110792301Y-45155364D01*
X110792289Y-45155361D01*
X110637645Y-45124600D01*
X110637642Y-45124600D01*
X110479958Y-45124600D01*
X110479955Y-45124600D01*
X110325310Y-45155361D01*
X110325298Y-45155364D01*
X110179627Y-45215702D01*
X110179614Y-45215709D01*
X110048511Y-45303310D01*
X110048507Y-45303313D01*
X109937013Y-45414807D01*
X109937010Y-45414811D01*
X109849409Y-45545914D01*
X109849402Y-45545927D01*
X109789064Y-45691598D01*
X109789061Y-45691610D01*
X109758300Y-45846253D01*
X109758300Y-46003946D01*
X109789061Y-46158589D01*
X109789064Y-46158601D01*
X109849402Y-46304272D01*
X109849409Y-46304285D01*
X109937402Y-46435974D01*
X109958280Y-46502651D01*
X109958300Y-46504865D01*
X109958300Y-49017730D01*
X109958299Y-49017748D01*
X109958299Y-49183454D01*
X109958298Y-49183454D01*
X109960684Y-49192357D01*
X109999223Y-49336185D01*
X110025676Y-49382003D01*
X110078277Y-49473112D01*
X110078281Y-49473117D01*
X110197149Y-49591985D01*
X110197155Y-49591990D01*
X112263681Y-51658516D01*
X112297166Y-51719839D01*
X112300000Y-51746197D01*
X112300000Y-88384303D01*
X112280315Y-88451342D01*
X112227511Y-88497097D01*
X112158353Y-88507041D01*
X112094797Y-88478016D01*
X112088319Y-88471984D01*
X111195619Y-87579284D01*
X111162134Y-87517961D01*
X111159300Y-87491603D01*
X111159300Y-75114465D01*
X111178985Y-75047426D01*
X111180198Y-75045574D01*
X111268190Y-74913885D01*
X111268190Y-74913884D01*
X111268194Y-74913879D01*
X111328537Y-74768197D01*
X111359300Y-74613542D01*
X111359300Y-74455858D01*
X111359300Y-74455855D01*
X111359299Y-74455853D01*
X111349107Y-74404616D01*
X111328537Y-74301203D01*
X111328535Y-74301198D01*
X111268197Y-74155527D01*
X111268190Y-74155514D01*
X111180589Y-74024411D01*
X111180586Y-74024407D01*
X111069092Y-73912913D01*
X111069088Y-73912910D01*
X110937985Y-73825309D01*
X110937972Y-73825302D01*
X110792301Y-73764964D01*
X110792292Y-73764961D01*
X110760307Y-73758599D01*
X110698396Y-73726213D01*
X110663823Y-73665496D01*
X110660500Y-73636982D01*
X110660500Y-73498355D01*
X110660499Y-73498353D01*
X110632975Y-73359983D01*
X110629737Y-73343703D01*
X110617191Y-73313413D01*
X110569397Y-73198027D01*
X110569390Y-73198014D01*
X110481789Y-73066911D01*
X110481786Y-73066907D01*
X110370292Y-72955413D01*
X110370288Y-72955410D01*
X110239185Y-72867809D01*
X110239172Y-72867802D01*
X110093501Y-72807464D01*
X110093489Y-72807461D01*
X109938845Y-72776700D01*
X109938842Y-72776700D01*
X109781158Y-72776700D01*
X109781155Y-72776700D01*
X109626510Y-72807461D01*
X109626498Y-72807464D01*
X109480827Y-72867802D01*
X109480814Y-72867809D01*
X109349711Y-72955410D01*
X109349707Y-72955413D01*
X109238213Y-73066907D01*
X109238210Y-73066911D01*
X109150609Y-73198014D01*
X109150602Y-73198027D01*
X109090264Y-73343698D01*
X109090261Y-73343710D01*
X109059500Y-73498353D01*
X109059500Y-73656046D01*
X109090261Y-73810689D01*
X109090264Y-73810701D01*
X109150602Y-73956372D01*
X109150609Y-73956385D01*
X109238602Y-74088074D01*
X109259480Y-74154751D01*
X109259500Y-74156965D01*
X109259500Y-123375500D01*
X109239815Y-123442539D01*
X109187011Y-123488294D01*
X109135500Y-123499500D01*
X108186964Y-123499500D01*
X108119925Y-123479815D01*
X108074170Y-123427011D01*
X108072403Y-123422953D01*
X108036657Y-123336655D01*
X108029394Y-123319121D01*
X108029392Y-123319118D01*
X108029390Y-123319114D01*
X107941398Y-123187425D01*
X107920520Y-123120747D01*
X107920500Y-123118534D01*
X107920500Y-72651545D01*
X107920500Y-72651543D01*
X107879577Y-72498816D01*
X107819417Y-72394614D01*
X107800524Y-72361890D01*
X107800521Y-72361886D01*
X107800520Y-72361884D01*
X107688716Y-72250080D01*
X107688715Y-72250079D01*
X107684385Y-72245749D01*
X107684374Y-72245739D01*
X90923474Y-55484839D01*
X90889989Y-55423516D01*
X90888683Y-55377757D01*
X90890500Y-55366287D01*
X90890500Y-55153713D01*
X90857246Y-54943757D01*
X90791557Y-54741588D01*
X90695051Y-54552184D01*
X90695049Y-54552181D01*
X90695048Y-54552179D01*
X90570109Y-54380213D01*
X90419786Y-54229890D01*
X90247820Y-54104951D01*
X90247115Y-54104591D01*
X90239054Y-54100485D01*
X90188259Y-54052512D01*
X90171463Y-53984692D01*
X90193999Y-53918556D01*
X90239054Y-53879515D01*
X90247816Y-53875051D01*
X90340065Y-53808029D01*
X90419786Y-53750109D01*
X90419788Y-53750106D01*
X90419792Y-53750104D01*
X90570104Y-53599792D01*
X90570106Y-53599788D01*
X90570109Y-53599786D01*
X90695048Y-53427820D01*
X90695047Y-53427820D01*
X90695051Y-53427816D01*
X90791557Y-53238412D01*
X90857246Y-53036243D01*
X90890500Y-52826287D01*
X90890500Y-52613713D01*
X90857246Y-52403757D01*
X90791557Y-52201588D01*
X90695051Y-52012184D01*
X90695049Y-52012181D01*
X90695048Y-52012179D01*
X90570109Y-51840213D01*
X90419786Y-51689890D01*
X90247820Y-51564951D01*
X90247115Y-51564591D01*
X90239054Y-51560485D01*
X90188259Y-51512512D01*
X90171463Y-51444692D01*
X90193999Y-51378556D01*
X90239054Y-51339515D01*
X90247816Y-51335051D01*
X90269789Y-51319086D01*
X90419786Y-51210109D01*
X90419788Y-51210106D01*
X90419792Y-51210104D01*
X90570104Y-51059792D01*
X90570106Y-51059788D01*
X90570109Y-51059786D01*
X90695048Y-50887820D01*
X90695047Y-50887820D01*
X90695051Y-50887816D01*
X90791557Y-50698412D01*
X90857246Y-50496243D01*
X90890500Y-50286287D01*
X90890500Y-50073713D01*
X90857246Y-49863757D01*
X90791557Y-49661588D01*
X90695051Y-49472184D01*
X90695049Y-49472181D01*
X90695048Y-49472179D01*
X90570109Y-49300213D01*
X90419786Y-49149890D01*
X90247820Y-49024951D01*
X90245751Y-49023897D01*
X90239054Y-49020485D01*
X90188259Y-48972512D01*
X90171463Y-48904692D01*
X90193999Y-48838556D01*
X90239054Y-48799515D01*
X90247816Y-48795051D01*
X90269789Y-48779086D01*
X90419786Y-48670109D01*
X90419788Y-48670106D01*
X90419792Y-48670104D01*
X90570104Y-48519792D01*
X90570106Y-48519788D01*
X90570109Y-48519786D01*
X90695048Y-48347820D01*
X90695047Y-48347820D01*
X90695051Y-48347816D01*
X90791557Y-48158412D01*
X90857246Y-47956243D01*
X90890500Y-47746287D01*
X90890500Y-47533713D01*
X90857246Y-47323757D01*
X90791557Y-47121588D01*
X90695051Y-46932184D01*
X90695049Y-46932181D01*
X90695048Y-46932179D01*
X90570109Y-46760213D01*
X90419786Y-46609890D01*
X90247820Y-46484951D01*
X90247115Y-46484591D01*
X90239054Y-46480485D01*
X90188259Y-46432512D01*
X90171463Y-46364692D01*
X90193999Y-46298556D01*
X90239054Y-46259515D01*
X90247816Y-46255051D01*
X90300141Y-46217035D01*
X90419786Y-46130109D01*
X90419788Y-46130106D01*
X90419792Y-46130104D01*
X90570104Y-45979792D01*
X90570106Y-45979788D01*
X90570109Y-45979786D01*
X90695048Y-45807820D01*
X90695047Y-45807820D01*
X90695051Y-45807816D01*
X90791557Y-45618412D01*
X90857246Y-45416243D01*
X90890500Y-45206287D01*
X90890500Y-44993713D01*
X90857246Y-44783757D01*
X90791557Y-44581588D01*
X90695051Y-44392184D01*
X90695049Y-44392181D01*
X90695048Y-44392179D01*
X90570109Y-44220213D01*
X90419786Y-44069890D01*
X90247820Y-43944951D01*
X90247115Y-43944591D01*
X90239054Y-43940485D01*
X90188259Y-43892512D01*
X90171463Y-43824692D01*
X90193999Y-43758556D01*
X90239054Y-43719515D01*
X90247816Y-43715051D01*
X90304296Y-43674016D01*
X90419786Y-43590109D01*
X90419788Y-43590106D01*
X90419792Y-43590104D01*
X90570104Y-43439792D01*
X90570106Y-43439788D01*
X90570109Y-43439786D01*
X90695048Y-43267820D01*
X90695047Y-43267820D01*
X90695051Y-43267816D01*
X90791557Y-43078412D01*
X90857246Y-42876243D01*
X90890500Y-42666287D01*
X90890500Y-42453713D01*
X90857246Y-42243757D01*
X90791557Y-42041588D01*
X90695051Y-41852184D01*
X90695049Y-41852181D01*
X90695048Y-41852179D01*
X90570109Y-41680213D01*
X90419786Y-41529890D01*
X90247820Y-41404951D01*
X90247115Y-41404591D01*
X90239054Y-41400485D01*
X90188259Y-41352512D01*
X90171463Y-41284692D01*
X90193999Y-41218556D01*
X90239054Y-41179515D01*
X90247816Y-41175051D01*
X90269789Y-41159086D01*
X90419786Y-41050109D01*
X90419788Y-41050106D01*
X90419792Y-41050104D01*
X90570104Y-40899792D01*
X90570106Y-40899788D01*
X90570109Y-40899786D01*
X90695048Y-40727820D01*
X90695047Y-40727820D01*
X90695051Y-40727816D01*
X90791557Y-40538412D01*
X90857246Y-40336243D01*
X90890500Y-40126287D01*
X90890500Y-39913713D01*
X90857246Y-39703757D01*
X90791557Y-39501588D01*
X90695051Y-39312184D01*
X90695049Y-39312181D01*
X90695048Y-39312179D01*
X90570109Y-39140213D01*
X90419786Y-38989890D01*
X90247820Y-38864951D01*
X90247115Y-38864591D01*
X90239054Y-38860485D01*
X90188259Y-38812512D01*
X90171463Y-38744692D01*
X90193999Y-38678556D01*
X90239054Y-38639515D01*
X90247816Y-38635051D01*
X90303864Y-38594330D01*
X90419786Y-38510109D01*
X90419788Y-38510106D01*
X90419792Y-38510104D01*
X90570104Y-38359792D01*
X90570106Y-38359788D01*
X90570109Y-38359786D01*
X90695048Y-38187820D01*
X90695047Y-38187820D01*
X90695051Y-38187816D01*
X90791557Y-37998412D01*
X90857246Y-37796243D01*
X90890500Y-37586287D01*
X90890500Y-37373713D01*
X90857246Y-37163757D01*
X90791557Y-36961588D01*
X90695051Y-36772184D01*
X90695049Y-36772181D01*
X90695048Y-36772179D01*
X90570109Y-36600213D01*
X90419786Y-36449890D01*
X90247820Y-36324951D01*
X90247115Y-36324591D01*
X90239054Y-36320485D01*
X90188259Y-36272512D01*
X90171463Y-36204692D01*
X90193999Y-36138556D01*
X90239054Y-36099515D01*
X90247816Y-36095051D01*
X90344118Y-36025084D01*
X90419786Y-35970109D01*
X90419788Y-35970106D01*
X90419792Y-35970104D01*
X90570104Y-35819792D01*
X90570106Y-35819788D01*
X90570109Y-35819786D01*
X90695048Y-35647820D01*
X90695047Y-35647820D01*
X90695051Y-35647816D01*
X90791557Y-35458412D01*
X90857246Y-35256243D01*
X90890500Y-35046287D01*
X90890500Y-34833713D01*
X90857246Y-34623757D01*
X90791557Y-34421588D01*
X90695051Y-34232184D01*
X90695049Y-34232181D01*
X90695048Y-34232179D01*
X90570109Y-34060213D01*
X90419786Y-33909890D01*
X90247820Y-33784951D01*
X90247115Y-33784591D01*
X90239054Y-33780485D01*
X90188259Y-33732512D01*
X90171463Y-33664692D01*
X90193999Y-33598556D01*
X90239054Y-33559515D01*
X90247816Y-33555051D01*
X90336610Y-33490539D01*
X90419786Y-33430109D01*
X90419788Y-33430106D01*
X90419792Y-33430104D01*
X90570104Y-33279792D01*
X90570106Y-33279788D01*
X90570109Y-33279786D01*
X90695048Y-33107820D01*
X90695047Y-33107820D01*
X90695051Y-33107816D01*
X90791557Y-32918412D01*
X90857246Y-32716243D01*
X90890500Y-32506287D01*
X90890500Y-32293713D01*
X90857246Y-32083757D01*
X90791557Y-31881588D01*
X90695051Y-31692184D01*
X90695049Y-31692181D01*
X90695048Y-31692179D01*
X90570109Y-31520213D01*
X90419786Y-31369890D01*
X90247820Y-31244951D01*
X90247115Y-31244591D01*
X90239054Y-31240485D01*
X90188259Y-31192512D01*
X90171463Y-31124692D01*
X90193999Y-31058556D01*
X90239054Y-31019515D01*
X90247816Y-31015051D01*
X90316165Y-30965393D01*
X90419786Y-30890109D01*
X90419788Y-30890106D01*
X90419792Y-30890104D01*
X90570104Y-30739792D01*
X90570106Y-30739788D01*
X90570109Y-30739786D01*
X90695048Y-30567820D01*
X90695047Y-30567820D01*
X90695051Y-30567816D01*
X90791557Y-30378412D01*
X90857246Y-30176243D01*
X90890500Y-29966287D01*
X90890500Y-29753713D01*
X90857246Y-29543757D01*
X90791557Y-29341588D01*
X90695051Y-29152184D01*
X90695049Y-29152181D01*
X90695048Y-29152179D01*
X90570109Y-28980213D01*
X90419786Y-28829890D01*
X90247820Y-28704951D01*
X90247115Y-28704591D01*
X90239054Y-28700485D01*
X90188259Y-28652512D01*
X90171463Y-28584692D01*
X90193999Y-28518556D01*
X90239054Y-28479515D01*
X90247816Y-28475051D01*
X90269789Y-28459086D01*
X90419786Y-28350109D01*
X90419788Y-28350106D01*
X90419792Y-28350104D01*
X90570104Y-28199792D01*
X90570106Y-28199788D01*
X90570109Y-28199786D01*
X90695048Y-28027820D01*
X90695047Y-28027820D01*
X90695051Y-28027816D01*
X90791557Y-27838412D01*
X90857246Y-27636243D01*
X90890500Y-27426287D01*
X90890500Y-27213713D01*
X90857246Y-27003757D01*
X90791557Y-26801588D01*
X90695051Y-26612184D01*
X90695049Y-26612181D01*
X90695048Y-26612179D01*
X90570109Y-26440213D01*
X90419786Y-26289890D01*
X90247820Y-26164951D01*
X90247115Y-26164591D01*
X90239054Y-26160485D01*
X90188259Y-26112512D01*
X90171463Y-26044692D01*
X90193999Y-25978556D01*
X90239054Y-25939515D01*
X90247816Y-25935051D01*
X90269789Y-25919086D01*
X90419786Y-25810109D01*
X90419788Y-25810106D01*
X90419792Y-25810104D01*
X90570104Y-25659792D01*
X90570106Y-25659788D01*
X90570109Y-25659786D01*
X90695048Y-25487820D01*
X90695047Y-25487820D01*
X90695051Y-25487816D01*
X90791557Y-25298412D01*
X90857246Y-25096243D01*
X90890500Y-24886287D01*
X90890500Y-24673713D01*
X90857246Y-24463757D01*
X90791557Y-24261588D01*
X90695051Y-24072184D01*
X90695049Y-24072181D01*
X90695048Y-24072179D01*
X90570109Y-23900213D01*
X90419786Y-23749890D01*
X90247820Y-23624951D01*
X90247115Y-23624591D01*
X90239054Y-23620485D01*
X90188259Y-23572512D01*
X90171463Y-23504692D01*
X90193999Y-23438556D01*
X90239054Y-23399515D01*
X90247816Y-23395051D01*
X90269789Y-23379086D01*
X90419786Y-23270109D01*
X90419788Y-23270106D01*
X90419792Y-23270104D01*
X90570104Y-23119792D01*
X90570106Y-23119788D01*
X90570109Y-23119786D01*
X90695048Y-22947820D01*
X90695047Y-22947820D01*
X90695051Y-22947816D01*
X90791557Y-22758412D01*
X90857246Y-22556243D01*
X90890500Y-22346287D01*
X90890500Y-22133713D01*
X90857246Y-21923757D01*
X90791557Y-21721588D01*
X90695051Y-21532184D01*
X90695049Y-21532181D01*
X90695048Y-21532179D01*
X90570109Y-21360213D01*
X90419786Y-21209890D01*
X90247820Y-21084951D01*
X90247115Y-21084591D01*
X90239054Y-21080485D01*
X90188259Y-21032512D01*
X90171463Y-20964692D01*
X90193999Y-20898556D01*
X90239054Y-20859515D01*
X90247816Y-20855051D01*
X90269789Y-20839086D01*
X90419786Y-20730109D01*
X90419788Y-20730106D01*
X90419792Y-20730104D01*
X90570104Y-20579792D01*
X90570106Y-20579788D01*
X90570109Y-20579786D01*
X90695048Y-20407820D01*
X90695047Y-20407820D01*
X90695051Y-20407816D01*
X90791557Y-20218412D01*
X90857246Y-20016243D01*
X90890500Y-19806287D01*
X90890500Y-19593713D01*
X90857246Y-19383757D01*
X90791557Y-19181588D01*
X90695051Y-18992184D01*
X90695049Y-18992181D01*
X90695048Y-18992179D01*
X90570109Y-18820213D01*
X90419786Y-18669890D01*
X90247820Y-18544951D01*
X90247115Y-18544591D01*
X90239054Y-18540485D01*
X90188259Y-18492512D01*
X90171463Y-18424692D01*
X90193999Y-18358556D01*
X90239054Y-18319515D01*
X90247816Y-18315051D01*
X90269789Y-18299086D01*
X90419786Y-18190109D01*
X90419788Y-18190106D01*
X90419792Y-18190104D01*
X90570104Y-18039792D01*
X90570106Y-18039788D01*
X90570109Y-18039786D01*
X90695048Y-17867820D01*
X90695047Y-17867820D01*
X90695051Y-17867816D01*
X90791557Y-17678412D01*
X90857246Y-17476243D01*
X90890500Y-17266287D01*
X90890500Y-17053713D01*
X90857246Y-16843757D01*
X90791557Y-16641588D01*
X90695051Y-16452184D01*
X90695049Y-16452181D01*
X90695048Y-16452179D01*
X90570109Y-16280213D01*
X90419786Y-16129890D01*
X90247820Y-16004951D01*
X90058414Y-15908444D01*
X90058413Y-15908443D01*
X90058412Y-15908443D01*
X89856243Y-15842754D01*
X89856241Y-15842753D01*
X89856240Y-15842753D01*
X89694957Y-15817208D01*
X89646287Y-15809500D01*
X89433713Y-15809500D01*
X89405006Y-15814046D01*
X89223757Y-15842753D01*
X89181473Y-15856492D01*
X89111632Y-15858486D01*
X89055476Y-15826241D01*
X88836990Y-15607755D01*
X88836988Y-15607752D01*
X88718117Y-15488881D01*
X88718116Y-15488880D01*
X88631304Y-15438760D01*
X88631304Y-15438759D01*
X88631300Y-15438758D01*
X88581185Y-15409823D01*
X88428457Y-15368899D01*
X88270343Y-15368899D01*
X88262747Y-15368899D01*
X88262731Y-15368900D01*
X86618769Y-15368900D01*
X86618753Y-15368899D01*
X86611157Y-15368899D01*
X86453043Y-15368899D01*
X86345687Y-15397665D01*
X86300310Y-15409824D01*
X86300309Y-15409825D01*
X86250196Y-15438759D01*
X86250195Y-15438760D01*
X86206789Y-15463820D01*
X86163385Y-15488879D01*
X86163382Y-15488881D01*
X61904381Y-39747883D01*
X61843058Y-39781368D01*
X61773366Y-39776384D01*
X61717433Y-39734512D01*
X61693016Y-39669048D01*
X61692700Y-39660202D01*
X61692700Y-24089765D01*
X61712385Y-24022726D01*
X61713598Y-24020874D01*
X61801590Y-23889185D01*
X61801590Y-23889184D01*
X61801594Y-23889179D01*
X61861937Y-23743497D01*
X61892700Y-23588842D01*
X61892700Y-23431158D01*
X61892700Y-23431155D01*
X61892699Y-23431153D01*
X61886406Y-23399516D01*
X61861937Y-23276503D01*
X61859289Y-23270109D01*
X61801597Y-23130827D01*
X61801590Y-23130814D01*
X61713989Y-22999711D01*
X61713986Y-22999707D01*
X61602492Y-22888213D01*
X61602488Y-22888210D01*
X61471385Y-22800609D01*
X61471372Y-22800602D01*
X61325701Y-22740264D01*
X61325689Y-22740261D01*
X61171045Y-22709500D01*
X61171042Y-22709500D01*
X61013358Y-22709500D01*
X61013355Y-22709500D01*
X60858710Y-22740261D01*
X60858698Y-22740264D01*
X60713027Y-22800602D01*
X60713014Y-22800609D01*
X60581911Y-22888210D01*
X60581907Y-22888213D01*
X60470413Y-22999707D01*
X60470410Y-22999711D01*
X60382809Y-23130814D01*
X60382802Y-23130827D01*
X60322464Y-23276498D01*
X60322461Y-23276510D01*
X60291700Y-23431153D01*
X60291700Y-23588846D01*
X60322461Y-23743489D01*
X60322464Y-23743501D01*
X60382802Y-23889172D01*
X60382809Y-23889185D01*
X60470802Y-24020874D01*
X60491680Y-24087551D01*
X60491700Y-24089765D01*
X60491700Y-32072903D01*
X60472015Y-32139942D01*
X60419211Y-32185697D01*
X60350053Y-32195641D01*
X60286497Y-32166616D01*
X60280019Y-32160584D01*
X58986517Y-30867082D01*
X58953032Y-30805759D01*
X58950820Y-30773148D01*
X58950404Y-30773132D01*
X58950500Y-30770686D01*
X58950500Y-30339313D01*
X58950499Y-30339298D01*
X58948308Y-30311460D01*
X58947598Y-30302431D01*
X58947316Y-30301461D01*
X58901745Y-30144606D01*
X58901744Y-30144603D01*
X58901744Y-30144602D01*
X58818081Y-30003135D01*
X58818079Y-30003133D01*
X58818076Y-30003129D01*
X58701870Y-29886923D01*
X58701862Y-29886917D01*
X58560396Y-29803255D01*
X58560393Y-29803254D01*
X58402573Y-29757402D01*
X58402567Y-29757401D01*
X58365701Y-29754500D01*
X58365694Y-29754500D01*
X58068100Y-29754500D01*
X58001061Y-29734815D01*
X57955306Y-29682011D01*
X57944100Y-29630500D01*
X57944100Y-10119765D01*
X57963785Y-10052726D01*
X57964998Y-10050874D01*
X58052990Y-9919185D01*
X58052990Y-9919184D01*
X58052994Y-9919179D01*
X58113337Y-9773497D01*
X58144100Y-9618842D01*
X58144100Y-9461158D01*
X58144100Y-9461155D01*
X58144099Y-9461153D01*
X58113338Y-9306510D01*
X58113337Y-9306503D01*
X58079063Y-9223757D01*
X58052997Y-9160827D01*
X58052990Y-9160814D01*
X57965389Y-9029711D01*
X57965386Y-9029707D01*
X57853892Y-8918213D01*
X57853888Y-8918210D01*
X57722785Y-8830609D01*
X57722772Y-8830602D01*
X57577101Y-8770264D01*
X57577089Y-8770261D01*
X57422445Y-8739500D01*
X57422442Y-8739500D01*
X57264758Y-8739500D01*
X57264755Y-8739500D01*
X57110110Y-8770261D01*
X57110098Y-8770264D01*
X56964427Y-8830602D01*
X56964414Y-8830609D01*
X56833311Y-8918210D01*
X56833307Y-8918213D01*
X56721813Y-9029707D01*
X56721810Y-9029711D01*
X56634209Y-9160814D01*
X56634202Y-9160827D01*
X56573864Y-9306498D01*
X56573861Y-9306510D01*
X56543100Y-9461153D01*
X56543100Y-9618846D01*
X56573861Y-9773489D01*
X56573864Y-9773501D01*
X56634202Y-9919172D01*
X56634209Y-9919185D01*
X56722202Y-10050874D01*
X56743080Y-10117551D01*
X56743100Y-10119765D01*
X56743100Y-28594900D01*
X56723415Y-28661939D01*
X56670611Y-28707694D01*
X56619100Y-28718900D01*
X48287270Y-28718900D01*
X48287254Y-28718899D01*
X48279658Y-28718899D01*
X48121543Y-28718899D01*
X48045179Y-28739361D01*
X47968814Y-28759823D01*
X47968809Y-28759826D01*
X47831890Y-28838875D01*
X47831882Y-28838881D01*
X47517583Y-29153181D01*
X47456260Y-29186666D01*
X47429902Y-29189500D01*
X47315302Y-29189500D01*
X47279008Y-29192356D01*
X47279002Y-29192357D01*
X47123609Y-29237504D01*
X47123606Y-29237505D01*
X46984315Y-29319881D01*
X46984307Y-29319887D01*
X46869887Y-29434307D01*
X46869881Y-29434315D01*
X46787505Y-29573606D01*
X46787504Y-29573609D01*
X46742357Y-29729002D01*
X46742356Y-29729008D01*
X46739500Y-29765302D01*
X46739500Y-30234697D01*
X46742356Y-30270991D01*
X46742357Y-30270997D01*
X46787504Y-30426390D01*
X46787505Y-30426393D01*
X46869881Y-30565684D01*
X46869887Y-30565692D01*
X46984307Y-30680112D01*
X46984311Y-30680115D01*
X46984313Y-30680117D01*
X47123605Y-30762494D01*
X47160221Y-30773132D01*
X47279002Y-30807642D01*
X47279005Y-30807642D01*
X47279007Y-30807643D01*
X47315310Y-30810500D01*
X47315318Y-30810500D01*
X47724682Y-30810500D01*
X47724690Y-30810500D01*
X47760993Y-30807643D01*
X47760995Y-30807642D01*
X47760997Y-30807642D01*
X47819104Y-30790760D01*
X47916395Y-30762494D01*
X48055687Y-30680117D01*
X48170117Y-30565687D01*
X48252494Y-30426395D01*
X48297643Y-30270993D01*
X48300500Y-30234690D01*
X48300500Y-30120097D01*
X48309144Y-30090660D01*
X48315668Y-30060670D01*
X48319423Y-30055653D01*
X48320185Y-30053059D01*
X48336819Y-30032416D01*
X48413018Y-29956218D01*
X48474342Y-29922734D01*
X48500699Y-29919900D01*
X51013749Y-29919900D01*
X51080788Y-29939585D01*
X51126543Y-29992389D01*
X51136487Y-30061547D01*
X51120482Y-30107020D01*
X51098254Y-30144605D01*
X51098254Y-30144606D01*
X51052402Y-30302426D01*
X51052401Y-30302432D01*
X51049500Y-30339298D01*
X51049500Y-30770701D01*
X51052401Y-30807567D01*
X51052402Y-30807573D01*
X51098254Y-30965393D01*
X51098255Y-30965396D01*
X51181917Y-31106862D01*
X51186702Y-31113031D01*
X51184256Y-31114927D01*
X51210857Y-31163642D01*
X51205873Y-31233334D01*
X51185069Y-31265703D01*
X51186702Y-31266969D01*
X51181917Y-31273137D01*
X51098255Y-31414603D01*
X51098254Y-31414606D01*
X51052402Y-31572426D01*
X51052401Y-31572432D01*
X51049500Y-31609298D01*
X51049500Y-32040701D01*
X51052401Y-32077567D01*
X51052402Y-32077573D01*
X51098254Y-32235393D01*
X51098255Y-32235396D01*
X51181917Y-32376862D01*
X51186702Y-32383031D01*
X51184256Y-32384927D01*
X51210857Y-32433642D01*
X51205873Y-32503334D01*
X51185069Y-32535703D01*
X51186702Y-32536969D01*
X51181917Y-32543137D01*
X51098255Y-32684603D01*
X51098254Y-32684606D01*
X51052402Y-32842426D01*
X51052401Y-32842432D01*
X51049500Y-32879298D01*
X51049500Y-33310701D01*
X51052401Y-33347567D01*
X51052402Y-33347573D01*
X51098254Y-33505393D01*
X51098257Y-33505400D01*
X51140825Y-33577380D01*
X51158008Y-33645104D01*
X51135848Y-33711366D01*
X51081381Y-33755129D01*
X51034093Y-33764500D01*
X47423357Y-33764500D01*
X47265242Y-33764500D01*
X47112515Y-33805423D01*
X47099169Y-33813129D01*
X47099160Y-33813134D01*
X47099157Y-33813135D01*
X46975590Y-33884475D01*
X46975582Y-33884481D01*
X33759839Y-47100225D01*
X33698516Y-47133710D01*
X33696350Y-47134161D01*
X33541008Y-47165061D01*
X33540998Y-47165064D01*
X33395327Y-47225402D01*
X33395314Y-47225409D01*
X33264211Y-47313010D01*
X33264207Y-47313013D01*
X33152713Y-47424507D01*
X33152710Y-47424511D01*
X33065109Y-47555614D01*
X33065102Y-47555627D01*
X33004764Y-47701298D01*
X33004761Y-47701310D01*
X32974000Y-47855953D01*
X32974000Y-48013646D01*
X33004761Y-48168289D01*
X33004764Y-48168301D01*
X33065102Y-48313972D01*
X33065112Y-48313990D01*
X33148990Y-48439523D01*
X33169868Y-48506200D01*
X33151383Y-48573580D01*
X33133569Y-48596094D01*
X19321286Y-62408378D01*
X19209481Y-62520182D01*
X19209479Y-62520185D01*
X19170233Y-62588163D01*
X19170232Y-62588164D01*
X19130423Y-62657115D01*
X19089499Y-62809843D01*
X19089499Y-62809845D01*
X19089499Y-62977946D01*
X19089500Y-62977959D01*
X19089500Y-98820403D01*
X19069815Y-98887442D01*
X19053181Y-98908084D01*
X18998868Y-98962396D01*
X18998862Y-98962404D01*
X18917130Y-99100606D01*
X18917128Y-99100611D01*
X18872334Y-99254791D01*
X18872333Y-99254797D01*
X18869499Y-99290811D01*
X18869499Y-99689169D01*
X18869500Y-99689191D01*
X18872334Y-99725205D01*
X18917128Y-99879388D01*
X18917131Y-99879395D01*
X18951127Y-99936881D01*
X18968308Y-100004605D01*
X18951127Y-100063119D01*
X18917131Y-100120604D01*
X18917128Y-100120611D01*
X18872334Y-100274791D01*
X18872333Y-100274797D01*
X18869499Y-100310811D01*
X18869499Y-100429903D01*
X18849814Y-100496942D01*
X18833180Y-100517584D01*
X18569482Y-100781281D01*
X18569480Y-100781283D01*
X18569480Y-100781284D01*
X18524486Y-100859216D01*
X18524485Y-100859216D01*
X18490424Y-100918212D01*
X18490423Y-100918213D01*
X18475119Y-100975330D01*
X18449499Y-101070943D01*
X18449499Y-101070945D01*
X18449499Y-101239046D01*
X18449500Y-101239059D01*
X18449500Y-122971630D01*
X18449499Y-122971648D01*
X18449499Y-123137354D01*
X18449498Y-123137354D01*
X18490423Y-123290087D01*
X18490425Y-123290090D01*
X18510793Y-123325368D01*
X18510798Y-123325375D01*
X18513228Y-123329584D01*
X18569480Y-123427016D01*
X18605114Y-123462650D01*
X18611572Y-123472049D01*
X18619037Y-123494851D01*
X18630536Y-123515910D01*
X18629710Y-123527453D01*
X18633311Y-123538451D01*
X18627263Y-123561668D01*
X18625552Y-123585602D01*
X18618616Y-123594866D01*
X18615700Y-123606064D01*
X18598063Y-123622323D01*
X18588131Y-123635590D01*
X18588724Y-123636183D01*
X18584604Y-123640302D01*
X18583684Y-123641532D01*
X18582454Y-123642452D01*
X18582451Y-123642455D01*
X18519265Y-123726861D01*
X18463331Y-123768732D01*
X18393640Y-123773716D01*
X18332317Y-123740230D01*
X18320733Y-123726861D01*
X18257546Y-123642455D01*
X18257543Y-123642452D01*
X18142334Y-123556206D01*
X18142327Y-123556202D01*
X18007481Y-123505908D01*
X18007482Y-123505908D01*
X17947882Y-123499501D01*
X17947880Y-123499500D01*
X17947872Y-123499500D01*
X17947864Y-123499500D01*
X17874500Y-123499500D01*
X17807461Y-123479815D01*
X17761706Y-123427011D01*
X17750500Y-123375500D01*
X17750500Y-112312465D01*
X17770185Y-112245426D01*
X17771398Y-112243574D01*
X17784543Y-112223902D01*
X17859394Y-112111879D01*
X17919737Y-111966197D01*
X17950500Y-111811542D01*
X17950500Y-111653858D01*
X17950500Y-111653855D01*
X17950499Y-111653853D01*
X17938253Y-111592291D01*
X17919737Y-111499203D01*
X17894173Y-111437485D01*
X17859397Y-111353527D01*
X17859390Y-111353514D01*
X17771789Y-111222411D01*
X17771786Y-111222407D01*
X17660292Y-111110913D01*
X17660288Y-111110910D01*
X17529185Y-111023309D01*
X17529172Y-111023302D01*
X17383501Y-110962964D01*
X17383489Y-110962961D01*
X17228845Y-110932200D01*
X17228842Y-110932200D01*
X17071158Y-110932200D01*
X17071155Y-110932200D01*
X16916510Y-110962961D01*
X16916498Y-110962964D01*
X16770827Y-111023302D01*
X16770814Y-111023309D01*
X16639711Y-111110910D01*
X16639707Y-111110913D01*
X16528213Y-111222407D01*
X16528210Y-111222411D01*
X16440609Y-111353514D01*
X16440602Y-111353527D01*
X16380264Y-111499198D01*
X16380261Y-111499210D01*
X16349500Y-111653853D01*
X16349500Y-111811546D01*
X16380261Y-111966189D01*
X16380264Y-111966201D01*
X16440602Y-112111872D01*
X16440609Y-112111885D01*
X16528602Y-112243574D01*
X16549480Y-112310251D01*
X16549500Y-112312465D01*
X16549500Y-123375500D01*
X16529815Y-123442539D01*
X16477011Y-123488294D01*
X16425502Y-123499500D01*
X16352129Y-123499500D01*
X16352122Y-123499501D01*
X16292515Y-123505908D01*
X16157670Y-123556202D01*
X16157663Y-123556206D01*
X16042454Y-123642452D01*
X16042451Y-123642455D01*
X15956205Y-123757664D01*
X15956201Y-123757671D01*
X15905907Y-123892517D01*
X15900600Y-123941886D01*
X15899500Y-123952123D01*
X15899499Y-123952135D01*
X15899500Y-133375500D01*
X15879815Y-133442539D01*
X15827011Y-133488294D01*
X15775500Y-133499500D01*
X10275500Y-133499500D01*
X10208461Y-133479815D01*
X10162706Y-133427011D01*
X10151500Y-133375500D01*
X10151500Y-114934110D01*
X10151500Y-114934108D01*
X10117392Y-114806814D01*
X10051500Y-114692686D01*
X9958314Y-114599500D01*
X9897547Y-114564416D01*
X9844187Y-114533608D01*
X9780539Y-114516554D01*
X9716892Y-114499500D01*
X9716891Y-114499500D01*
X624500Y-114499500D01*
X557461Y-114479815D01*
X511706Y-114427011D01*
X500500Y-114375500D01*
X500500Y-109474983D01*
X13049500Y-109474983D01*
X13049500Y-110525001D01*
X13049501Y-110525019D01*
X13060000Y-110627796D01*
X13060001Y-110627799D01*
X13098905Y-110745202D01*
X13115186Y-110794334D01*
X13179983Y-110899388D01*
X13207289Y-110943657D01*
X13232661Y-110969029D01*
X13266146Y-111030352D01*
X13266597Y-111080901D01*
X13249500Y-111166853D01*
X13249500Y-111324546D01*
X13280261Y-111479189D01*
X13280264Y-111479201D01*
X13340602Y-111624872D01*
X13340609Y-111624885D01*
X13428210Y-111755988D01*
X13428213Y-111755992D01*
X13539707Y-111867486D01*
X13539711Y-111867489D01*
X13670814Y-111955090D01*
X13670827Y-111955097D01*
X13816498Y-112015435D01*
X13816503Y-112015437D01*
X13971153Y-112046199D01*
X13971156Y-112046200D01*
X13971158Y-112046200D01*
X14128844Y-112046200D01*
X14128845Y-112046199D01*
X14283497Y-112015437D01*
X14429179Y-111955094D01*
X14560289Y-111867489D01*
X14671789Y-111755989D01*
X14759394Y-111624879D01*
X14759593Y-111624400D01*
X14775286Y-111586511D01*
X14819737Y-111479197D01*
X14850500Y-111324542D01*
X14850500Y-111166858D01*
X14850500Y-111166855D01*
X14833402Y-111080903D01*
X14839629Y-111011312D01*
X14867337Y-110969029D01*
X14892712Y-110943656D01*
X14984814Y-110794334D01*
X15039999Y-110627797D01*
X15050500Y-110525009D01*
X15050499Y-109474992D01*
X15039999Y-109372203D01*
X14984814Y-109205666D01*
X14892712Y-109056344D01*
X14768656Y-108932288D01*
X14629997Y-108846763D01*
X14619336Y-108840187D01*
X14619331Y-108840185D01*
X14617862Y-108839698D01*
X14452797Y-108785001D01*
X14452795Y-108785000D01*
X14350010Y-108774500D01*
X13749998Y-108774500D01*
X13749980Y-108774501D01*
X13647203Y-108785000D01*
X13647200Y-108785001D01*
X13480668Y-108840185D01*
X13480663Y-108840187D01*
X13331342Y-108932289D01*
X13207289Y-109056342D01*
X13115187Y-109205663D01*
X13115185Y-109205668D01*
X13087349Y-109289670D01*
X13060001Y-109372203D01*
X13060001Y-109372204D01*
X13060000Y-109372204D01*
X13049500Y-109474983D01*
X500500Y-109474983D01*
X500500Y-97783879D01*
X4499500Y-97783879D01*
X4499500Y-98216120D01*
X4533412Y-98647013D01*
X4533412Y-98647014D01*
X4572703Y-98895084D01*
X4601028Y-99073922D01*
X4653103Y-99290830D01*
X4699098Y-99482416D01*
X4701930Y-99494210D01*
X4709899Y-99518735D01*
X4835494Y-99905280D01*
X4937572Y-100151718D01*
X5000904Y-100304615D01*
X5197133Y-100689735D01*
X5197136Y-100689740D01*
X5197142Y-100689751D01*
X5422966Y-101058262D01*
X5422971Y-101058269D01*
X5422973Y-101058272D01*
X5499495Y-101163596D01*
X5677025Y-101407946D01*
X5677035Y-101407960D01*
X5957737Y-101736617D01*
X5957743Y-101736624D01*
X6263376Y-102042257D01*
X6295046Y-102069306D01*
X6592039Y-102322964D01*
X6592046Y-102322969D01*
X6941728Y-102577027D01*
X6941732Y-102577029D01*
X6941737Y-102577033D01*
X7310248Y-102802857D01*
X7310254Y-102802860D01*
X7310265Y-102802867D01*
X7695385Y-102999096D01*
X8078722Y-103157879D01*
X8094719Y-103164505D01*
X8199240Y-103198465D01*
X8505790Y-103298070D01*
X8926078Y-103398972D01*
X9352987Y-103466588D01*
X9783885Y-103500500D01*
X9783893Y-103500500D01*
X10216107Y-103500500D01*
X10216115Y-103500500D01*
X10647013Y-103466588D01*
X11073922Y-103398972D01*
X11494210Y-103298070D01*
X11905286Y-103164503D01*
X12304615Y-102999096D01*
X12689735Y-102802867D01*
X13058272Y-102577027D01*
X13407954Y-102322969D01*
X13736624Y-102042257D01*
X14042257Y-101736624D01*
X14301462Y-101433135D01*
X14322964Y-101407960D01*
X14322964Y-101407959D01*
X14322969Y-101407954D01*
X14577027Y-101058272D01*
X14802867Y-100689735D01*
X14999096Y-100304615D01*
X15164503Y-99905286D01*
X15298070Y-99494210D01*
X15398972Y-99073922D01*
X15466588Y-98647013D01*
X15500500Y-98216115D01*
X15500500Y-97783885D01*
X15466588Y-97352987D01*
X15398972Y-96926078D01*
X15298070Y-96505790D01*
X15170057Y-96111806D01*
X15164505Y-96094719D01*
X15127875Y-96006286D01*
X14999096Y-95695385D01*
X14802867Y-95310265D01*
X14802857Y-95310248D01*
X14577033Y-94941737D01*
X14577029Y-94941732D01*
X14577027Y-94941728D01*
X14322969Y-94592046D01*
X14322964Y-94592039D01*
X14042262Y-94263382D01*
X14042257Y-94263376D01*
X13736624Y-93957743D01*
X13628486Y-93865384D01*
X13407960Y-93677035D01*
X13407946Y-93677025D01*
X13117887Y-93466286D01*
X13058272Y-93422973D01*
X13058269Y-93422971D01*
X13058262Y-93422966D01*
X12689751Y-93197142D01*
X12689740Y-93197136D01*
X12689739Y-93197135D01*
X12689735Y-93197133D01*
X12304615Y-93000904D01*
X12057025Y-92898349D01*
X11905280Y-92835494D01*
X11612796Y-92740461D01*
X11494210Y-92701930D01*
X11073922Y-92601028D01*
X10647013Y-92533412D01*
X10216120Y-92499500D01*
X10216115Y-92499500D01*
X9783885Y-92499500D01*
X9783879Y-92499500D01*
X9352986Y-92533412D01*
X9352985Y-92533412D01*
X8926083Y-92601027D01*
X8926080Y-92601027D01*
X8926078Y-92601028D01*
X8775562Y-92637163D01*
X8505801Y-92701927D01*
X8505795Y-92701928D01*
X8505790Y-92701930D01*
X8505778Y-92701934D01*
X8094719Y-92835494D01*
X7695387Y-93000903D01*
X7310259Y-93197136D01*
X7310248Y-93197142D01*
X6941737Y-93422966D01*
X6941726Y-93422974D01*
X6592053Y-93677025D01*
X6592039Y-93677035D01*
X6263382Y-93957737D01*
X6263368Y-93957750D01*
X5957750Y-94263368D01*
X5957737Y-94263382D01*
X5677035Y-94592039D01*
X5677025Y-94592053D01*
X5422974Y-94941726D01*
X5422966Y-94941737D01*
X5197142Y-95310248D01*
X5197136Y-95310259D01*
X5000903Y-95695387D01*
X4835494Y-96094719D01*
X4701934Y-96505778D01*
X4701927Y-96505801D01*
X4601027Y-96926083D01*
X4533412Y-97352985D01*
X4533412Y-97352986D01*
X4499500Y-97783879D01*
X500500Y-97783879D01*
X500500Y-624500D01*
X520185Y-557461D01*
X572989Y-511706D01*
X624500Y-500500D01*
X4826500Y-500500D01*
X4893539Y-520185D01*
G37*
%TD.AperFunction*%
%TA.AperFunction,Conductor*%
G36*
X119720989Y-100725170D02*
G01*
X119773923Y-100770774D01*
X119793799Y-100837757D01*
X119793800Y-100838111D01*
X119793800Y-103507630D01*
X119793799Y-103507648D01*
X119793799Y-103673354D01*
X119793798Y-103673354D01*
X119834723Y-103826086D01*
X119834724Y-103826087D01*
X119847875Y-103848865D01*
X119913412Y-103962379D01*
X119913781Y-103963017D01*
X120032649Y-104081885D01*
X120032655Y-104081890D01*
X120433180Y-104482415D01*
X120466665Y-104543738D01*
X120469499Y-104570095D01*
X120469499Y-104689168D01*
X120469500Y-104689192D01*
X120472334Y-104725205D01*
X120517128Y-104879388D01*
X120517131Y-104879395D01*
X120551127Y-104936881D01*
X120568308Y-105004605D01*
X120551127Y-105063119D01*
X120517131Y-105120604D01*
X120517128Y-105120611D01*
X120472334Y-105274791D01*
X120472333Y-105274797D01*
X120469499Y-105310811D01*
X120469499Y-105709169D01*
X120469500Y-105709191D01*
X120472334Y-105745205D01*
X120517128Y-105899388D01*
X120517130Y-105899393D01*
X120598864Y-106037598D01*
X120653182Y-106091916D01*
X120686666Y-106153237D01*
X120689500Y-106179596D01*
X120689500Y-123375500D01*
X120669815Y-123442539D01*
X120617011Y-123488294D01*
X120565502Y-123499500D01*
X120492129Y-123499500D01*
X120492122Y-123499501D01*
X120432515Y-123505908D01*
X120297670Y-123556202D01*
X120297663Y-123556206D01*
X120182454Y-123642452D01*
X120182451Y-123642455D01*
X120119265Y-123726861D01*
X120063331Y-123768732D01*
X119993640Y-123773716D01*
X119932317Y-123740230D01*
X119920733Y-123726861D01*
X119857546Y-123642455D01*
X119857543Y-123642452D01*
X119742334Y-123556206D01*
X119742327Y-123556202D01*
X119607481Y-123505908D01*
X119607482Y-123505908D01*
X119547882Y-123499501D01*
X119547880Y-123499500D01*
X119547872Y-123499500D01*
X119547864Y-123499500D01*
X119474500Y-123499500D01*
X119407461Y-123479815D01*
X119361706Y-123427011D01*
X119350500Y-123375500D01*
X119350500Y-101179595D01*
X119370185Y-101112556D01*
X119386814Y-101091918D01*
X119441135Y-101037598D01*
X119522869Y-100899393D01*
X119546143Y-100819282D01*
X119550724Y-100803516D01*
X119588330Y-100744630D01*
X119651802Y-100715424D01*
X119720989Y-100725170D01*
G37*
%TD.AperFunction*%
%TA.AperFunction,Conductor*%
G36*
X90914069Y-88869972D02*
G01*
X90930305Y-88883640D01*
X94450881Y-92404216D01*
X94484366Y-92465539D01*
X94487200Y-92491897D01*
X94487200Y-117441403D01*
X94467515Y-117508442D01*
X94414711Y-117554197D01*
X94345553Y-117564141D01*
X94281997Y-117535116D01*
X94275519Y-117529084D01*
X88906819Y-112160384D01*
X88873334Y-112099061D01*
X88870500Y-112072703D01*
X88870500Y-100506845D01*
X88870500Y-100506843D01*
X88850917Y-100433757D01*
X88829577Y-100354115D01*
X88796440Y-100296720D01*
X88779555Y-100267474D01*
X88750522Y-100217187D01*
X88750521Y-100217186D01*
X88750520Y-100217184D01*
X88638716Y-100105380D01*
X88638715Y-100105379D01*
X88634385Y-100101049D01*
X88634374Y-100101039D01*
X88029296Y-99495961D01*
X87995811Y-99434638D01*
X88000795Y-99364946D01*
X88027263Y-99323771D01*
X88026941Y-99323496D01*
X88028959Y-99321133D01*
X88029312Y-99320583D01*
X88030104Y-99319792D01*
X88155051Y-99147816D01*
X88251557Y-98958412D01*
X88317246Y-98756243D01*
X88350500Y-98546287D01*
X88350500Y-98333713D01*
X88317246Y-98123757D01*
X88251557Y-97921588D01*
X88155051Y-97732184D01*
X88155049Y-97732181D01*
X88155048Y-97732179D01*
X88030109Y-97560213D01*
X87879786Y-97409890D01*
X87707820Y-97284951D01*
X87707115Y-97284591D01*
X87699054Y-97280485D01*
X87648259Y-97232512D01*
X87631463Y-97164692D01*
X87653999Y-97098556D01*
X87699054Y-97059515D01*
X87707816Y-97055051D01*
X87747623Y-97026130D01*
X87879786Y-96930109D01*
X87879788Y-96930106D01*
X87879792Y-96930104D01*
X88030104Y-96779792D01*
X88030106Y-96779788D01*
X88030109Y-96779786D01*
X88155048Y-96607820D01*
X88155047Y-96607820D01*
X88155051Y-96607816D01*
X88159514Y-96599054D01*
X88207488Y-96548259D01*
X88275308Y-96531463D01*
X88341444Y-96553999D01*
X88380486Y-96599056D01*
X88384951Y-96607820D01*
X88509890Y-96779786D01*
X88660213Y-96930109D01*
X88832179Y-97055048D01*
X88832181Y-97055049D01*
X88832184Y-97055051D01*
X89021588Y-97151557D01*
X89223757Y-97217246D01*
X89433713Y-97250500D01*
X89433714Y-97250500D01*
X89646286Y-97250500D01*
X89646287Y-97250500D01*
X89856243Y-97217246D01*
X90058412Y-97151557D01*
X90247816Y-97055051D01*
X90287623Y-97026130D01*
X90419786Y-96930109D01*
X90419788Y-96930106D01*
X90419792Y-96930104D01*
X90570104Y-96779792D01*
X90570106Y-96779788D01*
X90570109Y-96779786D01*
X90695048Y-96607820D01*
X90695047Y-96607820D01*
X90695051Y-96607816D01*
X90791557Y-96418412D01*
X90857246Y-96216243D01*
X90890500Y-96006287D01*
X90890500Y-95793713D01*
X90857246Y-95583757D01*
X90791557Y-95381588D01*
X90695051Y-95192184D01*
X90695049Y-95192181D01*
X90695048Y-95192179D01*
X90570109Y-95020213D01*
X90419786Y-94869890D01*
X90247820Y-94744951D01*
X90247115Y-94744591D01*
X90239054Y-94740485D01*
X90188259Y-94692512D01*
X90171463Y-94624692D01*
X90193999Y-94558556D01*
X90239054Y-94519515D01*
X90247816Y-94515051D01*
X90364457Y-94430307D01*
X90419786Y-94390109D01*
X90419788Y-94390106D01*
X90419792Y-94390104D01*
X90570104Y-94239792D01*
X90570106Y-94239788D01*
X90570109Y-94239786D01*
X90691723Y-94072397D01*
X90695051Y-94067816D01*
X90791557Y-93878412D01*
X90857246Y-93676243D01*
X90890500Y-93466287D01*
X90890500Y-93253713D01*
X90857246Y-93043757D01*
X90791557Y-92841588D01*
X90695051Y-92652184D01*
X90695049Y-92652181D01*
X90695048Y-92652179D01*
X90570109Y-92480213D01*
X90419786Y-92329890D01*
X90247820Y-92204951D01*
X90247115Y-92204591D01*
X90239054Y-92200485D01*
X90188259Y-92152512D01*
X90171463Y-92084692D01*
X90193999Y-92018556D01*
X90239054Y-91979515D01*
X90247816Y-91975051D01*
X90269789Y-91959086D01*
X90419786Y-91850109D01*
X90419788Y-91850106D01*
X90419792Y-91850104D01*
X90570104Y-91699792D01*
X90570106Y-91699788D01*
X90570109Y-91699786D01*
X90680215Y-91548236D01*
X90695051Y-91527816D01*
X90791557Y-91338412D01*
X90857246Y-91136243D01*
X90890500Y-90926287D01*
X90890500Y-90713713D01*
X90857246Y-90503757D01*
X90791557Y-90301588D01*
X90695051Y-90112184D01*
X90695049Y-90112181D01*
X90695048Y-90112179D01*
X90570109Y-89940213D01*
X90419786Y-89789890D01*
X90247820Y-89664951D01*
X90247115Y-89664591D01*
X90239054Y-89660485D01*
X90188259Y-89612512D01*
X90171463Y-89544692D01*
X90193999Y-89478556D01*
X90239054Y-89439515D01*
X90247816Y-89435051D01*
X90269789Y-89419086D01*
X90419786Y-89310109D01*
X90419788Y-89310106D01*
X90419792Y-89310104D01*
X90570104Y-89159792D01*
X90570106Y-89159788D01*
X90570109Y-89159786D01*
X90695048Y-88987820D01*
X90695047Y-88987820D01*
X90695051Y-88987816D01*
X90732139Y-88915025D01*
X90780113Y-88864230D01*
X90847934Y-88847435D01*
X90914069Y-88869972D01*
G37*
%TD.AperFunction*%
%TA.AperFunction,Conductor*%
G36*
X84233703Y-93865384D02*
G01*
X84240181Y-93871416D01*
X84480481Y-94111716D01*
X84513966Y-94173039D01*
X84516800Y-94199397D01*
X84516800Y-98127530D01*
X84516799Y-98127548D01*
X84516799Y-98293254D01*
X84516798Y-98293254D01*
X84544177Y-98395430D01*
X84557723Y-98445985D01*
X84561954Y-98453313D01*
X84568388Y-98464457D01*
X84636777Y-98582912D01*
X84636781Y-98582917D01*
X84755649Y-98701785D01*
X84755655Y-98701790D01*
X86009939Y-99956074D01*
X86009949Y-99956085D01*
X86014279Y-99960415D01*
X86014280Y-99960416D01*
X86126084Y-100072220D01*
X86184531Y-100105964D01*
X86194337Y-100111625D01*
X86194339Y-100111627D01*
X86194340Y-100111627D01*
X86211684Y-100121641D01*
X86263015Y-100151277D01*
X86415743Y-100192200D01*
X86975703Y-100192200D01*
X87042742Y-100211885D01*
X87063384Y-100228519D01*
X87633181Y-100798316D01*
X87666666Y-100859639D01*
X87669500Y-100885997D01*
X87669500Y-112223902D01*
X87649815Y-112290941D01*
X87597011Y-112336696D01*
X87527853Y-112346640D01*
X87464297Y-112317615D01*
X87457819Y-112311583D01*
X84064819Y-108918583D01*
X84031334Y-108857260D01*
X84028500Y-108830902D01*
X84028500Y-93959097D01*
X84048185Y-93892058D01*
X84100989Y-93846303D01*
X84170147Y-93836359D01*
X84233703Y-93865384D01*
G37*
%TD.AperFunction*%
%TA.AperFunction,Conductor*%
G36*
X46212534Y-43719414D02*
G01*
X46268467Y-43761286D01*
X46292884Y-43826750D01*
X46293200Y-43835596D01*
X46293200Y-52603559D01*
X46273515Y-52670598D01*
X46220711Y-52716353D01*
X46151553Y-52726297D01*
X46087997Y-52697272D01*
X46081519Y-52691240D01*
X45988892Y-52598613D01*
X45988888Y-52598610D01*
X45857785Y-52511009D01*
X45857772Y-52511002D01*
X45712101Y-52450664D01*
X45712089Y-52450661D01*
X45557445Y-52419900D01*
X45557442Y-52419900D01*
X45399758Y-52419900D01*
X45399755Y-52419900D01*
X45245110Y-52450661D01*
X45245098Y-52450664D01*
X45099427Y-52511002D01*
X45099414Y-52511009D01*
X44968311Y-52598610D01*
X44968307Y-52598613D01*
X44856813Y-52710107D01*
X44856810Y-52710111D01*
X44769209Y-52841214D01*
X44769202Y-52841227D01*
X44708864Y-52986898D01*
X44708861Y-52986910D01*
X44678100Y-53141553D01*
X44678100Y-53299246D01*
X44708861Y-53453889D01*
X44708864Y-53453901D01*
X44769202Y-53599572D01*
X44769209Y-53599585D01*
X44857202Y-53731274D01*
X44878080Y-53797951D01*
X44878100Y-53800165D01*
X44878100Y-78041134D01*
X44858415Y-78108173D01*
X44857202Y-78110025D01*
X44769209Y-78241714D01*
X44769202Y-78241727D01*
X44708864Y-78387398D01*
X44708861Y-78387410D01*
X44678100Y-78542053D01*
X44678100Y-78699746D01*
X44708861Y-78854389D01*
X44708864Y-78854401D01*
X44769202Y-79000072D01*
X44769209Y-79000085D01*
X44856810Y-79131188D01*
X44856813Y-79131192D01*
X44968307Y-79242686D01*
X44968311Y-79242689D01*
X45099414Y-79330290D01*
X45099427Y-79330297D01*
X45240914Y-79388902D01*
X45245103Y-79390637D01*
X45259119Y-79393425D01*
X45272324Y-79396052D01*
X45334235Y-79428436D01*
X45368809Y-79489152D01*
X45365070Y-79558922D01*
X45335814Y-79605350D01*
X44698129Y-80243034D01*
X44636806Y-80276519D01*
X44578355Y-80275128D01*
X44529357Y-80261999D01*
X44529258Y-80261999D01*
X44371143Y-80261999D01*
X44316955Y-80276519D01*
X44218414Y-80302923D01*
X44218409Y-80302926D01*
X44081490Y-80381975D01*
X44081482Y-80381981D01*
X41721282Y-82742181D01*
X41721280Y-82742183D01*
X41721280Y-82742184D01*
X41678514Y-82816257D01*
X41678513Y-82816257D01*
X41642224Y-82879112D01*
X41642223Y-82879113D01*
X41630709Y-82922085D01*
X41601299Y-83031843D01*
X41601299Y-83031845D01*
X41601299Y-83093703D01*
X41581614Y-83160742D01*
X41564980Y-83181384D01*
X36989481Y-87756882D01*
X36989480Y-87756884D01*
X36953994Y-87818349D01*
X36939361Y-87843694D01*
X36939359Y-87843696D01*
X36910425Y-87893809D01*
X36910424Y-87893810D01*
X36895064Y-87951135D01*
X36869499Y-88046543D01*
X36869499Y-88046545D01*
X36869499Y-88214646D01*
X36869500Y-88214659D01*
X36869500Y-98820403D01*
X36849815Y-98887442D01*
X36833181Y-98908084D01*
X36778868Y-98962396D01*
X36778862Y-98962404D01*
X36697130Y-99100606D01*
X36697128Y-99100611D01*
X36652334Y-99254791D01*
X36652333Y-99254797D01*
X36649499Y-99290811D01*
X36649499Y-99689169D01*
X36649500Y-99689191D01*
X36652334Y-99725205D01*
X36697128Y-99879388D01*
X36697131Y-99879395D01*
X36731127Y-99936881D01*
X36748308Y-100004605D01*
X36731127Y-100063119D01*
X36697131Y-100120604D01*
X36697128Y-100120611D01*
X36652334Y-100274791D01*
X36652333Y-100274797D01*
X36649499Y-100310811D01*
X36649499Y-100429903D01*
X36629814Y-100496942D01*
X36613180Y-100517584D01*
X34481181Y-102649583D01*
X34419858Y-102683068D01*
X34350166Y-102678084D01*
X34294233Y-102636212D01*
X34269816Y-102570748D01*
X34269500Y-102561902D01*
X34269500Y-102071096D01*
X34289185Y-102004057D01*
X34305815Y-101983419D01*
X34972416Y-101316817D01*
X35033739Y-101283333D01*
X35060097Y-101280499D01*
X35179167Y-101280499D01*
X35179179Y-101280499D01*
X35215203Y-101277665D01*
X35369392Y-101232869D01*
X35507597Y-101151135D01*
X35621134Y-101037598D01*
X35702868Y-100899393D01*
X35747664Y-100745204D01*
X35750499Y-100709181D01*
X35750498Y-100310820D01*
X35747664Y-100274796D01*
X35702868Y-100120607D01*
X35668868Y-100063117D01*
X35651687Y-99995398D01*
X35668868Y-99936882D01*
X35702868Y-99879393D01*
X35730545Y-99784130D01*
X35747663Y-99725208D01*
X35747663Y-99725206D01*
X35747664Y-99725204D01*
X35750499Y-99689181D01*
X35750498Y-99290820D01*
X35747664Y-99254796D01*
X35702868Y-99100607D01*
X35621134Y-98962402D01*
X35621132Y-98962400D01*
X35621129Y-98962396D01*
X35566819Y-98908086D01*
X35533334Y-98846763D01*
X35530500Y-98820405D01*
X35530500Y-57082697D01*
X35550185Y-57015658D01*
X35566819Y-56995016D01*
X36291835Y-56270000D01*
X37031664Y-55530171D01*
X37092985Y-55496688D01*
X37095152Y-55496237D01*
X37095841Y-55496100D01*
X37095842Y-55496100D01*
X37250497Y-55465337D01*
X37396179Y-55404994D01*
X37527289Y-55317389D01*
X37638789Y-55205889D01*
X37726394Y-55074779D01*
X37786737Y-54929097D01*
X37817500Y-54774442D01*
X37817500Y-54616758D01*
X37817500Y-54616755D01*
X37817499Y-54616753D01*
X37804654Y-54552179D01*
X37786737Y-54462103D01*
X37786735Y-54462098D01*
X37726397Y-54316427D01*
X37726390Y-54316414D01*
X37639504Y-54186380D01*
X37618626Y-54119702D01*
X37637111Y-54052322D01*
X37654921Y-54029812D01*
X44685164Y-46999571D01*
X44746485Y-46966088D01*
X44748652Y-46965637D01*
X44749341Y-46965500D01*
X44749342Y-46965500D01*
X44903997Y-46934737D01*
X45049679Y-46874394D01*
X45180789Y-46786789D01*
X45292289Y-46675289D01*
X45379894Y-46544179D01*
X45440237Y-46398497D01*
X45471000Y-46243842D01*
X45471000Y-46086158D01*
X45471000Y-46086155D01*
X45470999Y-46086153D01*
X45467517Y-46068646D01*
X45440237Y-45931503D01*
X45404928Y-45846258D01*
X45379897Y-45785827D01*
X45379890Y-45785814D01*
X45292289Y-45654711D01*
X45292286Y-45654707D01*
X45180792Y-45543213D01*
X45180788Y-45543210D01*
X45049685Y-45455609D01*
X45049672Y-45455602D01*
X44904001Y-45395264D01*
X44903989Y-45395261D01*
X44743368Y-45363311D01*
X44743705Y-45361613D01*
X44686552Y-45338530D01*
X44646198Y-45281492D01*
X44643086Y-45211692D01*
X44675818Y-45153615D01*
X46081520Y-43747913D01*
X46142842Y-43714430D01*
X46212534Y-43719414D01*
G37*
%TD.AperFunction*%
%TA.AperFunction,Conductor*%
G36*
X119720989Y-99705171D02*
G01*
X119773923Y-99750775D01*
X119793799Y-99817758D01*
X119793800Y-99818112D01*
X119793800Y-100181888D01*
X119790531Y-100193018D01*
X119791710Y-100204561D01*
X119780865Y-100225936D01*
X119774115Y-100248927D01*
X119765348Y-100256523D01*
X119760099Y-100266871D01*
X119739420Y-100278989D01*
X119721311Y-100294682D01*
X119709827Y-100296333D01*
X119699819Y-100302199D01*
X119675875Y-100301214D01*
X119652153Y-100304626D01*
X119641599Y-100299806D01*
X119630009Y-100299330D01*
X119610397Y-100285557D01*
X119588597Y-100275601D01*
X119582325Y-100265841D01*
X119572831Y-100259174D01*
X119554985Y-100228724D01*
X119552534Y-100222717D01*
X119522869Y-100120607D01*
X119484227Y-100055268D01*
X119480788Y-100046836D01*
X119473693Y-99977327D01*
X119488868Y-99936884D01*
X119522869Y-99879393D01*
X119548861Y-99789929D01*
X119550724Y-99783517D01*
X119588330Y-99724631D01*
X119651802Y-99695425D01*
X119720989Y-99705171D01*
G37*
%TD.AperFunction*%
%TA.AperFunction,Conductor*%
G36*
X119733073Y-97082174D02*
G01*
X119780684Y-97133311D01*
X119793800Y-97188816D01*
X119793800Y-99161888D01*
X119774115Y-99228927D01*
X119721311Y-99274682D01*
X119652153Y-99284626D01*
X119588597Y-99255601D01*
X119550823Y-99196823D01*
X119550724Y-99196483D01*
X119522870Y-99100611D01*
X119522869Y-99100607D01*
X119441135Y-98962402D01*
X119441133Y-98962400D01*
X119441130Y-98962396D01*
X119327603Y-98848869D01*
X119327595Y-98848863D01*
X119189393Y-98767131D01*
X119189388Y-98767129D01*
X119035208Y-98722335D01*
X119035202Y-98722334D01*
X118999188Y-98719500D01*
X118999181Y-98719500D01*
X118880097Y-98719500D01*
X118813058Y-98699815D01*
X118792416Y-98683181D01*
X118282219Y-98172984D01*
X118248734Y-98111661D01*
X118245900Y-98085303D01*
X118245900Y-97631404D01*
X118265585Y-97564365D01*
X118318389Y-97518610D01*
X118387547Y-97508666D01*
X118438795Y-97528304D01*
X118442221Y-97530594D01*
X118442222Y-97530594D01*
X118442223Y-97530595D01*
X118442227Y-97530597D01*
X118587898Y-97590935D01*
X118587903Y-97590937D01*
X118706261Y-97614480D01*
X118742553Y-97621699D01*
X118742556Y-97621700D01*
X118742558Y-97621700D01*
X118900244Y-97621700D01*
X118900245Y-97621699D01*
X119054897Y-97590937D01*
X119200579Y-97530594D01*
X119331689Y-97442989D01*
X119443189Y-97331489D01*
X119530794Y-97200379D01*
X119541177Y-97175312D01*
X119555239Y-97141364D01*
X119599079Y-97086960D01*
X119665373Y-97064895D01*
X119733073Y-97082174D01*
G37*
%TD.AperFunction*%
%TA.AperFunction,Conductor*%
G36*
X88341444Y-94013999D02*
G01*
X88380486Y-94059056D01*
X88384951Y-94067820D01*
X88509890Y-94239786D01*
X88660213Y-94390109D01*
X88832182Y-94515050D01*
X88840946Y-94519516D01*
X88891742Y-94567491D01*
X88908536Y-94635312D01*
X88885998Y-94701447D01*
X88840946Y-94740484D01*
X88832182Y-94744949D01*
X88660213Y-94869890D01*
X88509890Y-95020213D01*
X88384949Y-95192182D01*
X88380484Y-95200946D01*
X88332509Y-95251742D01*
X88264688Y-95268536D01*
X88198553Y-95245998D01*
X88159516Y-95200946D01*
X88155050Y-95192182D01*
X88030109Y-95020213D01*
X87879786Y-94869890D01*
X87707820Y-94744951D01*
X87707115Y-94744591D01*
X87699054Y-94740485D01*
X87648259Y-94692512D01*
X87631463Y-94624692D01*
X87653999Y-94558556D01*
X87699054Y-94519515D01*
X87707816Y-94515051D01*
X87824457Y-94430307D01*
X87879786Y-94390109D01*
X87879788Y-94390106D01*
X87879792Y-94390104D01*
X88030104Y-94239792D01*
X88030106Y-94239788D01*
X88030109Y-94239786D01*
X88151723Y-94072397D01*
X88155051Y-94067816D01*
X88159514Y-94059054D01*
X88207488Y-94008259D01*
X88275308Y-93991463D01*
X88341444Y-94013999D01*
G37*
%TD.AperFunction*%
%TA.AperFunction,Conductor*%
G36*
X84526403Y-83230884D02*
G01*
X84532881Y-83236916D01*
X85975352Y-84679387D01*
X86008837Y-84740710D01*
X86003853Y-84810402D01*
X85975362Y-84854739D01*
X85969902Y-84860199D01*
X85969892Y-84860211D01*
X85844951Y-85032179D01*
X85748444Y-85221585D01*
X85682753Y-85423760D01*
X85665745Y-85531145D01*
X85649500Y-85633713D01*
X85649500Y-85846287D01*
X85652260Y-85863710D01*
X85676753Y-86018358D01*
X85682754Y-86056243D01*
X85743801Y-86244126D01*
X85748444Y-86258414D01*
X85844951Y-86447820D01*
X85969890Y-86619786D01*
X86120213Y-86770109D01*
X86292182Y-86895050D01*
X86300946Y-86899516D01*
X86351742Y-86947491D01*
X86368536Y-87015312D01*
X86345998Y-87081447D01*
X86300946Y-87120484D01*
X86292182Y-87124949D01*
X86120213Y-87249890D01*
X85969890Y-87400213D01*
X85844951Y-87572179D01*
X85748444Y-87761585D01*
X85748443Y-87761587D01*
X85748443Y-87761588D01*
X85730000Y-87818349D01*
X85682753Y-87963760D01*
X85649500Y-88173713D01*
X85649500Y-88386286D01*
X85681932Y-88591058D01*
X85682754Y-88596243D01*
X85746939Y-88793784D01*
X85748444Y-88798414D01*
X85844951Y-88987820D01*
X85969890Y-89159786D01*
X86120213Y-89310109D01*
X86292182Y-89435050D01*
X86300946Y-89439516D01*
X86351742Y-89487491D01*
X86368536Y-89555312D01*
X86345998Y-89621447D01*
X86300946Y-89660484D01*
X86292182Y-89664949D01*
X86120213Y-89789890D01*
X85969890Y-89940213D01*
X85844951Y-90112179D01*
X85748444Y-90301585D01*
X85682753Y-90503760D01*
X85678179Y-90532642D01*
X85649500Y-90713713D01*
X85649500Y-90926287D01*
X85682754Y-91136243D01*
X85726049Y-91269492D01*
X85748444Y-91338414D01*
X85844951Y-91527820D01*
X85969890Y-91699786D01*
X86120213Y-91850109D01*
X86292182Y-91975050D01*
X86300946Y-91979516D01*
X86351742Y-92027491D01*
X86368536Y-92095312D01*
X86345998Y-92161447D01*
X86300946Y-92200484D01*
X86292182Y-92204949D01*
X86120213Y-92329890D01*
X85969890Y-92480213D01*
X85844951Y-92652179D01*
X85748444Y-92841585D01*
X85682753Y-93043760D01*
X85649500Y-93253713D01*
X85649500Y-93282902D01*
X85629815Y-93349941D01*
X85577011Y-93395696D01*
X85507853Y-93405640D01*
X85444297Y-93376615D01*
X85437819Y-93370583D01*
X84357519Y-92290283D01*
X84324034Y-92228960D01*
X84321200Y-92202602D01*
X84321200Y-83324597D01*
X84340885Y-83257558D01*
X84393689Y-83211803D01*
X84462847Y-83201859D01*
X84526403Y-83230884D01*
G37*
%TD.AperFunction*%
%TA.AperFunction,Conductor*%
G36*
X117921542Y-58995185D02*
G01*
X117942184Y-59011819D01*
X118184581Y-59254216D01*
X118218066Y-59315539D01*
X118220900Y-59341897D01*
X118220900Y-93021603D01*
X118201215Y-93088642D01*
X118148411Y-93134397D01*
X118079253Y-93144341D01*
X118015697Y-93115316D01*
X118009219Y-93109284D01*
X116594167Y-91694232D01*
X116560682Y-91632909D01*
X116565666Y-91563217D01*
X116607538Y-91507284D01*
X116634396Y-91491990D01*
X116690873Y-91468597D01*
X116690876Y-91468595D01*
X116690879Y-91468594D01*
X116821989Y-91380989D01*
X116933489Y-91269489D01*
X117021094Y-91138379D01*
X117021981Y-91136239D01*
X117081435Y-90992701D01*
X117081437Y-90992697D01*
X117112200Y-90838042D01*
X117112200Y-90680358D01*
X117112200Y-90680355D01*
X117112199Y-90680353D01*
X117081438Y-90525710D01*
X117081437Y-90525703D01*
X117072347Y-90503757D01*
X117021097Y-90380027D01*
X117021090Y-90380014D01*
X116933489Y-90248911D01*
X116933486Y-90248907D01*
X116821992Y-90137413D01*
X116821988Y-90137410D01*
X116690885Y-90049809D01*
X116690872Y-90049802D01*
X116545201Y-89989464D01*
X116545191Y-89989461D01*
X116389849Y-89958561D01*
X116327938Y-89926176D01*
X116326360Y-89924625D01*
X115139490Y-88737755D01*
X115106005Y-88676432D01*
X115110989Y-88606740D01*
X115152861Y-88550807D01*
X115218325Y-88526390D01*
X115286598Y-88541242D01*
X115296062Y-88546972D01*
X115351014Y-88583690D01*
X115351027Y-88583697D01*
X115406659Y-88606740D01*
X115496703Y-88644037D01*
X115651353Y-88674799D01*
X115651356Y-88674800D01*
X115651358Y-88674800D01*
X115809044Y-88674800D01*
X115809045Y-88674799D01*
X115963697Y-88644037D01*
X116109379Y-88583694D01*
X116240489Y-88496089D01*
X116351989Y-88384589D01*
X116439594Y-88253479D01*
X116443962Y-88242935D01*
X116459817Y-88204657D01*
X116499937Y-88107797D01*
X116530700Y-87953142D01*
X116530700Y-87953140D01*
X116531099Y-87951135D01*
X116563483Y-87889224D01*
X116624199Y-87854650D01*
X116676907Y-87853709D01*
X116710019Y-87860295D01*
X116805055Y-87879200D01*
X116805058Y-87879200D01*
X116962744Y-87879200D01*
X116962745Y-87879199D01*
X117117397Y-87848437D01*
X117263079Y-87788094D01*
X117394189Y-87700489D01*
X117505689Y-87588989D01*
X117593294Y-87457879D01*
X117653637Y-87312197D01*
X117684400Y-87157542D01*
X117684400Y-86999858D01*
X117684400Y-86999855D01*
X117684399Y-86999853D01*
X117680601Y-86980760D01*
X117653637Y-86845203D01*
X117644293Y-86822645D01*
X117593297Y-86699527D01*
X117593290Y-86699514D01*
X117505689Y-86568411D01*
X117505686Y-86568407D01*
X117394192Y-86456913D01*
X117394188Y-86456910D01*
X117263085Y-86369309D01*
X117263072Y-86369302D01*
X117117401Y-86308964D01*
X117117391Y-86308961D01*
X116962051Y-86278062D01*
X116945294Y-86269296D01*
X116926816Y-86265277D01*
X116901777Y-86246532D01*
X116900141Y-86245677D01*
X116898562Y-86244126D01*
X116768719Y-86114283D01*
X116735234Y-86052960D01*
X116732400Y-86026602D01*
X116732400Y-77665200D01*
X116752085Y-77598161D01*
X116804889Y-77552406D01*
X116856400Y-77541200D01*
X116962744Y-77541200D01*
X116962745Y-77541199D01*
X117117397Y-77510437D01*
X117263079Y-77450094D01*
X117394189Y-77362489D01*
X117505689Y-77250989D01*
X117593294Y-77119879D01*
X117653637Y-76974197D01*
X117684400Y-76819542D01*
X117684400Y-76661858D01*
X117684400Y-76661855D01*
X117684399Y-76661853D01*
X117674105Y-76610104D01*
X117653637Y-76507203D01*
X117634336Y-76460606D01*
X117593297Y-76361527D01*
X117593290Y-76361514D01*
X117505689Y-76230411D01*
X117505686Y-76230407D01*
X117394192Y-76118913D01*
X117394188Y-76118910D01*
X117263085Y-76031309D01*
X117263072Y-76031302D01*
X117117401Y-75970964D01*
X117117391Y-75970961D01*
X116964672Y-75940583D01*
X116947915Y-75931818D01*
X116929436Y-75927798D01*
X116904397Y-75909053D01*
X116902761Y-75908198D01*
X116901182Y-75906647D01*
X116828018Y-75833482D01*
X116794534Y-75772158D01*
X116791700Y-75745801D01*
X116791700Y-59099500D01*
X116811385Y-59032461D01*
X116864189Y-58986706D01*
X116915700Y-58975500D01*
X117854503Y-58975500D01*
X117921542Y-58995185D01*
G37*
%TD.AperFunction*%
%TA.AperFunction,Conductor*%
G36*
X88341444Y-91473999D02*
G01*
X88380486Y-91519056D01*
X88384951Y-91527820D01*
X88509890Y-91699786D01*
X88660213Y-91850109D01*
X88832182Y-91975050D01*
X88840946Y-91979516D01*
X88891742Y-92027491D01*
X88908536Y-92095312D01*
X88885998Y-92161447D01*
X88840946Y-92200484D01*
X88832182Y-92204949D01*
X88660213Y-92329890D01*
X88509890Y-92480213D01*
X88384949Y-92652182D01*
X88380484Y-92660946D01*
X88332509Y-92711742D01*
X88264688Y-92728536D01*
X88198553Y-92705998D01*
X88159516Y-92660946D01*
X88155050Y-92652182D01*
X88030109Y-92480213D01*
X87879786Y-92329890D01*
X87707820Y-92204951D01*
X87707115Y-92204591D01*
X87699054Y-92200485D01*
X87648259Y-92152512D01*
X87631463Y-92084692D01*
X87653999Y-92018556D01*
X87699054Y-91979515D01*
X87707816Y-91975051D01*
X87729789Y-91959086D01*
X87879786Y-91850109D01*
X87879788Y-91850106D01*
X87879792Y-91850104D01*
X88030104Y-91699792D01*
X88030106Y-91699788D01*
X88030109Y-91699786D01*
X88140215Y-91548236D01*
X88155051Y-91527816D01*
X88159514Y-91519054D01*
X88207488Y-91468259D01*
X88275308Y-91451463D01*
X88341444Y-91473999D01*
G37*
%TD.AperFunction*%
%TA.AperFunction,Conductor*%
G36*
X51558364Y-78961247D02*
G01*
X51597431Y-78972598D01*
X51634306Y-78975500D01*
X53216100Y-78975500D01*
X53283139Y-78995185D01*
X53328894Y-79047989D01*
X53340100Y-79099500D01*
X53340100Y-79388902D01*
X53320415Y-79455941D01*
X53303781Y-79476583D01*
X52874584Y-79905781D01*
X52813261Y-79939266D01*
X52786903Y-79942100D01*
X51523970Y-79942100D01*
X51523954Y-79942099D01*
X51516358Y-79942099D01*
X51358243Y-79942099D01*
X51291900Y-79959876D01*
X51205514Y-79983023D01*
X51205509Y-79983026D01*
X51068590Y-80062075D01*
X51068582Y-80062081D01*
X41219481Y-89911183D01*
X41158158Y-89944668D01*
X41088466Y-89939684D01*
X41032533Y-89897812D01*
X41008116Y-89832348D01*
X41007800Y-89823502D01*
X41007800Y-88294296D01*
X41027485Y-88227257D01*
X41044114Y-88206620D01*
X45873048Y-83377685D01*
X45934369Y-83344202D01*
X46004061Y-83349186D01*
X46059994Y-83391058D01*
X46063829Y-83396477D01*
X46066910Y-83401088D01*
X46066913Y-83401092D01*
X46178407Y-83512586D01*
X46178411Y-83512589D01*
X46309514Y-83600190D01*
X46309527Y-83600197D01*
X46455198Y-83660535D01*
X46455203Y-83660537D01*
X46609853Y-83691299D01*
X46609856Y-83691300D01*
X46609858Y-83691300D01*
X46767544Y-83691300D01*
X46767545Y-83691299D01*
X46922197Y-83660537D01*
X47067879Y-83600194D01*
X47198989Y-83512589D01*
X47310489Y-83401089D01*
X47398094Y-83269979D01*
X47458437Y-83124297D01*
X47489200Y-82969642D01*
X47489338Y-82968950D01*
X47521723Y-82907039D01*
X47523219Y-82905515D01*
X51436092Y-78992641D01*
X51497413Y-78959158D01*
X51558364Y-78961247D01*
G37*
%TD.AperFunction*%
%TA.AperFunction,Conductor*%
G36*
X50123673Y-70961266D02*
G01*
X50171284Y-71012403D01*
X50184400Y-71067908D01*
X50184400Y-71628630D01*
X50184399Y-71628648D01*
X50184399Y-71794354D01*
X50184398Y-71794354D01*
X50225324Y-71947087D01*
X50244026Y-71979479D01*
X50244027Y-71979482D01*
X50304375Y-72084009D01*
X50304381Y-72084017D01*
X50423249Y-72202885D01*
X50423255Y-72202890D01*
X51013181Y-72792816D01*
X51046666Y-72854139D01*
X51049500Y-72880497D01*
X51049500Y-73272302D01*
X51029815Y-73339341D01*
X51013181Y-73359983D01*
X46759281Y-77613882D01*
X46759277Y-77613887D01*
X46720941Y-77680289D01*
X46712748Y-77694480D01*
X46680223Y-77750815D01*
X46639299Y-77903543D01*
X46639299Y-77903545D01*
X46639299Y-78071646D01*
X46639300Y-78071659D01*
X46639300Y-78250503D01*
X46619615Y-78317542D01*
X46602985Y-78338179D01*
X46526541Y-78414624D01*
X46463050Y-78478115D01*
X46401727Y-78511599D01*
X46332035Y-78506615D01*
X46276102Y-78464743D01*
X46253752Y-78414624D01*
X46248338Y-78387410D01*
X46248337Y-78387403D01*
X46248335Y-78387398D01*
X46187997Y-78241727D01*
X46187990Y-78241714D01*
X46099998Y-78110025D01*
X46079120Y-78043347D01*
X46079100Y-78041134D01*
X46079100Y-71332600D01*
X46082138Y-71322251D01*
X46080902Y-71311535D01*
X46091811Y-71289309D01*
X46098785Y-71265561D01*
X46106935Y-71258498D01*
X46111689Y-71248814D01*
X46132883Y-71236014D01*
X46151589Y-71219806D01*
X46162264Y-71218271D01*
X46171499Y-71212694D01*
X46196245Y-71213384D01*
X46220747Y-71209862D01*
X46230558Y-71214342D01*
X46241341Y-71214644D01*
X46261783Y-71228602D01*
X46284303Y-71238887D01*
X46291655Y-71249000D01*
X46299042Y-71254044D01*
X46307953Y-71271417D01*
X46317288Y-71284256D01*
X46320645Y-71292185D01*
X46334123Y-71342485D01*
X46359612Y-71386632D01*
X46363431Y-71393248D01*
X46363433Y-71393251D01*
X46413179Y-71479414D01*
X46413181Y-71479417D01*
X46532049Y-71598285D01*
X46532055Y-71598290D01*
X46776278Y-71842513D01*
X46776280Y-71842516D01*
X46888084Y-71954320D01*
X46931665Y-71979481D01*
X46941980Y-71985436D01*
X46941981Y-71985437D01*
X47025009Y-72033374D01*
X47025010Y-72033375D01*
X47025012Y-72033375D01*
X47025015Y-72033377D01*
X47177743Y-72074301D01*
X47177746Y-72074301D01*
X47343453Y-72074301D01*
X47343469Y-72074300D01*
X48396231Y-72074300D01*
X48396247Y-72074301D01*
X48403843Y-72074301D01*
X48561954Y-72074301D01*
X48561957Y-72074301D01*
X48714685Y-72033377D01*
X48808035Y-71979481D01*
X48851616Y-71954320D01*
X48963420Y-71842516D01*
X48963420Y-71842514D01*
X48973624Y-71832311D01*
X48973627Y-71832306D01*
X49195261Y-71610672D01*
X49256583Y-71577189D01*
X49258750Y-71576738D01*
X49316685Y-71565213D01*
X49414097Y-71545837D01*
X49559779Y-71485494D01*
X49690889Y-71397889D01*
X49802389Y-71286389D01*
X49889994Y-71155279D01*
X49945839Y-71020455D01*
X49989679Y-70966052D01*
X50055973Y-70943987D01*
X50123673Y-70961266D01*
G37*
%TD.AperFunction*%
%TA.AperFunction,Conductor*%
G36*
X56002614Y-71116211D02*
G01*
X56036544Y-71125303D01*
X56096204Y-71161667D01*
X56126733Y-71224514D01*
X56118438Y-71293889D01*
X56111183Y-71308197D01*
X56048254Y-71414605D01*
X56048254Y-71414606D01*
X56002402Y-71572426D01*
X56002401Y-71572432D01*
X55999500Y-71609298D01*
X55999500Y-72040701D01*
X56002401Y-72077567D01*
X56002402Y-72077573D01*
X56048254Y-72235393D01*
X56048255Y-72235396D01*
X56131917Y-72376862D01*
X56131923Y-72376870D01*
X56248129Y-72493076D01*
X56248133Y-72493079D01*
X56248135Y-72493081D01*
X56389602Y-72576744D01*
X56431224Y-72588836D01*
X56547426Y-72622597D01*
X56547429Y-72622597D01*
X56547431Y-72622598D01*
X56584306Y-72625500D01*
X56584314Y-72625500D01*
X58365686Y-72625500D01*
X58365694Y-72625500D01*
X58402569Y-72622598D01*
X58416202Y-72618637D01*
X58486070Y-72618834D01*
X58544741Y-72656774D01*
X58573587Y-72720411D01*
X58574800Y-72737712D01*
X58574800Y-73452287D01*
X58555115Y-73519326D01*
X58502311Y-73565081D01*
X58433153Y-73575025D01*
X58416206Y-73571364D01*
X58402567Y-73567401D01*
X58365701Y-73564500D01*
X58365694Y-73564500D01*
X56584306Y-73564500D01*
X56584298Y-73564500D01*
X56547432Y-73567401D01*
X56547426Y-73567402D01*
X56389606Y-73613254D01*
X56389603Y-73613255D01*
X56248137Y-73696917D01*
X56248129Y-73696923D01*
X56131923Y-73813129D01*
X56131917Y-73813137D01*
X56048255Y-73954603D01*
X56048254Y-73954606D01*
X56002402Y-74112426D01*
X56002401Y-74112432D01*
X55999500Y-74149298D01*
X55999500Y-74493503D01*
X55990855Y-74522943D01*
X55984332Y-74552930D01*
X55980577Y-74557945D01*
X55979815Y-74560542D01*
X55963181Y-74581184D01*
X55848481Y-74695884D01*
X55787158Y-74729369D01*
X55717466Y-74724385D01*
X55661533Y-74682513D01*
X55637116Y-74617049D01*
X55636800Y-74608203D01*
X55636800Y-71440910D01*
X55656485Y-71373871D01*
X55691906Y-71337810D01*
X55736089Y-71308289D01*
X55847589Y-71196789D01*
X55867428Y-71167097D01*
X55921036Y-71122293D01*
X55990361Y-71113584D01*
X56002614Y-71116211D01*
G37*
%TD.AperFunction*%
%TA.AperFunction,Conductor*%
G36*
X53244739Y-38995185D02*
G01*
X53290494Y-39047989D01*
X53301700Y-39099500D01*
X53301700Y-48735530D01*
X53282015Y-48802569D01*
X53229211Y-48848324D01*
X53225153Y-48850091D01*
X53089923Y-48906104D01*
X53089914Y-48906109D01*
X52958225Y-48994102D01*
X52891547Y-49014980D01*
X52889334Y-49015000D01*
X51905570Y-49015000D01*
X51905554Y-49014999D01*
X51897958Y-49014999D01*
X51739843Y-49014999D01*
X51663479Y-49035461D01*
X51587114Y-49055923D01*
X51587109Y-49055926D01*
X51450190Y-49134975D01*
X51450182Y-49134981D01*
X50325781Y-50259382D01*
X50325779Y-50259385D01*
X50305920Y-50293783D01*
X50279638Y-50339306D01*
X50275661Y-50346194D01*
X50275659Y-50346196D01*
X50246725Y-50396309D01*
X50246724Y-50396310D01*
X50246723Y-50396315D01*
X50205799Y-50549043D01*
X50205799Y-50549045D01*
X50205799Y-50717146D01*
X50205800Y-50717159D01*
X50205800Y-52307130D01*
X50205799Y-52307148D01*
X50205799Y-52472854D01*
X50205798Y-52472854D01*
X50246723Y-52625585D01*
X50267067Y-52660822D01*
X50267069Y-52660824D01*
X50325779Y-52762514D01*
X50325781Y-52762517D01*
X50444649Y-52881385D01*
X50444655Y-52881390D01*
X51130011Y-53566747D01*
X51147401Y-53588580D01*
X51148265Y-53589958D01*
X51181919Y-53646865D01*
X51187301Y-53652247D01*
X51194762Y-53664152D01*
X51200572Y-53684808D01*
X51210857Y-53703642D01*
X51209846Y-53717773D01*
X51213683Y-53731411D01*
X51207403Y-53751929D01*
X51205873Y-53773334D01*
X51196290Y-53788244D01*
X51193237Y-53798222D01*
X51185867Y-53804462D01*
X51185069Y-53805703D01*
X51186702Y-53806969D01*
X51181917Y-53813137D01*
X51098255Y-53954603D01*
X51098254Y-53954606D01*
X51052402Y-54112426D01*
X51052401Y-54112432D01*
X51049500Y-54149298D01*
X51049500Y-54580701D01*
X51052401Y-54617567D01*
X51052402Y-54617573D01*
X51098254Y-54775393D01*
X51098255Y-54775396D01*
X51181917Y-54916862D01*
X51186702Y-54923031D01*
X51184256Y-54924927D01*
X51210857Y-54973642D01*
X51205873Y-55043334D01*
X51185069Y-55075703D01*
X51186702Y-55076969D01*
X51181917Y-55083137D01*
X51098255Y-55224603D01*
X51098254Y-55224606D01*
X51052402Y-55382426D01*
X51052401Y-55382432D01*
X51049500Y-55419298D01*
X51049500Y-55850701D01*
X51052401Y-55887567D01*
X51052402Y-55887573D01*
X51098254Y-56045393D01*
X51098255Y-56045396D01*
X51181917Y-56186862D01*
X51186702Y-56193031D01*
X51184256Y-56194927D01*
X51210857Y-56243642D01*
X51205873Y-56313334D01*
X51185069Y-56345703D01*
X51186702Y-56346969D01*
X51181917Y-56353137D01*
X51098255Y-56494603D01*
X51098254Y-56494606D01*
X51052402Y-56652426D01*
X51052401Y-56652432D01*
X51049500Y-56689298D01*
X51049500Y-57120701D01*
X51052401Y-57157567D01*
X51052402Y-57157573D01*
X51098254Y-57315393D01*
X51098255Y-57315396D01*
X51098256Y-57315398D01*
X51135681Y-57378681D01*
X51181917Y-57456862D01*
X51186702Y-57463031D01*
X51184256Y-57464927D01*
X51210857Y-57513642D01*
X51205873Y-57583334D01*
X51185069Y-57615703D01*
X51186702Y-57616969D01*
X51181917Y-57623137D01*
X51098255Y-57764603D01*
X51098254Y-57764606D01*
X51052402Y-57922426D01*
X51052401Y-57922432D01*
X51049500Y-57959298D01*
X51049500Y-58390701D01*
X51052401Y-58427567D01*
X51052402Y-58427573D01*
X51098254Y-58585393D01*
X51098255Y-58585396D01*
X51181917Y-58726862D01*
X51181923Y-58726870D01*
X51298129Y-58843076D01*
X51298133Y-58843079D01*
X51298135Y-58843081D01*
X51439602Y-58926744D01*
X51481224Y-58938836D01*
X51597426Y-58972597D01*
X51597429Y-58972597D01*
X51597431Y-58972598D01*
X51634306Y-58975500D01*
X52769603Y-58975500D01*
X52836642Y-58995185D01*
X52857284Y-59011819D01*
X53170281Y-59324816D01*
X53203766Y-59386139D01*
X53206600Y-59412497D01*
X53206600Y-60102202D01*
X53186915Y-60169241D01*
X53170281Y-60189883D01*
X50304381Y-63055782D01*
X50304380Y-63055784D01*
X50264594Y-63124697D01*
X50254261Y-63142594D01*
X50254259Y-63142596D01*
X50225325Y-63192709D01*
X50225324Y-63192710D01*
X50217088Y-63223447D01*
X50184399Y-63345443D01*
X50184399Y-63345445D01*
X50184399Y-63513546D01*
X50184400Y-63513559D01*
X50184400Y-70484291D01*
X50164715Y-70551330D01*
X50111911Y-70597085D01*
X50042753Y-70607029D01*
X49979197Y-70578004D01*
X49945839Y-70531743D01*
X49889997Y-70396927D01*
X49889990Y-70396914D01*
X49802389Y-70265811D01*
X49802386Y-70265807D01*
X49690892Y-70154313D01*
X49690888Y-70154310D01*
X49559785Y-70066709D01*
X49559772Y-70066702D01*
X49414101Y-70006364D01*
X49414089Y-70006361D01*
X49259445Y-69975600D01*
X49259442Y-69975600D01*
X49101758Y-69975600D01*
X49101755Y-69975600D01*
X48947110Y-70006361D01*
X48947098Y-70006364D01*
X48801427Y-70066702D01*
X48801414Y-70066709D01*
X48670311Y-70154310D01*
X48670307Y-70154313D01*
X48558813Y-70265807D01*
X48558808Y-70265813D01*
X48527238Y-70313061D01*
X48473626Y-70357865D01*
X48404301Y-70366572D01*
X48341273Y-70336417D01*
X48304555Y-70276973D01*
X48300781Y-70237142D01*
X48300404Y-70237128D01*
X48300500Y-70234682D01*
X48300500Y-69765317D01*
X48300499Y-69765302D01*
X48300477Y-69765025D01*
X48297643Y-69729007D01*
X48294725Y-69718964D01*
X48252495Y-69573609D01*
X48252494Y-69573606D01*
X48252494Y-69573605D01*
X48170117Y-69434313D01*
X48170115Y-69434311D01*
X48170112Y-69434307D01*
X48156819Y-69421014D01*
X48123334Y-69359691D01*
X48120500Y-69333333D01*
X48120500Y-50666666D01*
X48140185Y-50599627D01*
X48156816Y-50578987D01*
X48170117Y-50565687D01*
X48252494Y-50426395D01*
X48293200Y-50286286D01*
X48297642Y-50270997D01*
X48297643Y-50270991D01*
X48300500Y-50234690D01*
X48300500Y-49765310D01*
X48297643Y-49729007D01*
X48283989Y-49682011D01*
X48252495Y-49573609D01*
X48252494Y-49573606D01*
X48252494Y-49573605D01*
X48170117Y-49434313D01*
X48170115Y-49434311D01*
X48170112Y-49434307D01*
X48055692Y-49319887D01*
X48055684Y-49319881D01*
X47973903Y-49271516D01*
X47916395Y-49237506D01*
X47916394Y-49237505D01*
X47916393Y-49237505D01*
X47916390Y-49237504D01*
X47760997Y-49192357D01*
X47760991Y-49192356D01*
X47724697Y-49189500D01*
X47724690Y-49189500D01*
X47618200Y-49189500D01*
X47551161Y-49169815D01*
X47505406Y-49117011D01*
X47494200Y-49065500D01*
X47494200Y-43761697D01*
X47513885Y-43694658D01*
X47530519Y-43674016D01*
X52192716Y-39011819D01*
X52254039Y-38978334D01*
X52280397Y-38975500D01*
X53177700Y-38975500D01*
X53244739Y-38995185D01*
G37*
%TD.AperFunction*%
%TA.AperFunction,Conductor*%
G36*
X57441942Y-60265185D02*
G01*
X57462584Y-60281819D01*
X58538481Y-61357716D01*
X58571966Y-61419039D01*
X58574800Y-61445397D01*
X58574800Y-69642287D01*
X58555115Y-69709326D01*
X58502311Y-69755081D01*
X58433153Y-69765025D01*
X58416206Y-69761364D01*
X58402567Y-69757401D01*
X58365701Y-69754500D01*
X58365694Y-69754500D01*
X56584306Y-69754500D01*
X56584298Y-69754500D01*
X56547432Y-69757401D01*
X56541201Y-69758540D01*
X56540935Y-69757087D01*
X56478569Y-69756908D01*
X56419900Y-69718964D01*
X56399286Y-69685487D01*
X56365294Y-69603421D01*
X56365290Y-69603414D01*
X56277689Y-69472311D01*
X56277686Y-69472307D01*
X56166192Y-69360813D01*
X56166188Y-69360810D01*
X56035085Y-69273209D01*
X56035072Y-69273202D01*
X55889401Y-69212864D01*
X55889389Y-69212861D01*
X55734745Y-69182100D01*
X55734742Y-69182100D01*
X55577058Y-69182100D01*
X55577055Y-69182100D01*
X55422410Y-69212861D01*
X55422398Y-69212864D01*
X55371652Y-69233884D01*
X55302182Y-69241353D01*
X55239703Y-69210077D01*
X55204052Y-69149988D01*
X55200200Y-69119323D01*
X55200200Y-61955297D01*
X55208844Y-61925856D01*
X55215368Y-61895870D01*
X55219122Y-61890854D01*
X55219885Y-61888258D01*
X55236519Y-61867616D01*
X55318097Y-61786038D01*
X55379420Y-61752553D01*
X55449112Y-61757537D01*
X55493459Y-61786038D01*
X55596807Y-61889386D01*
X55596811Y-61889389D01*
X55727914Y-61976990D01*
X55727927Y-61976997D01*
X55871971Y-62036661D01*
X55873603Y-62037337D01*
X56028253Y-62068099D01*
X56028256Y-62068100D01*
X56028258Y-62068100D01*
X56185944Y-62068100D01*
X56185945Y-62068099D01*
X56340597Y-62037337D01*
X56486279Y-61976994D01*
X56617389Y-61889389D01*
X56728889Y-61777889D01*
X56816494Y-61646779D01*
X56876837Y-61501097D01*
X56907600Y-61346442D01*
X56907600Y-61188758D01*
X56907600Y-61188755D01*
X56907599Y-61188753D01*
X56879565Y-61047817D01*
X56876837Y-61034103D01*
X56845844Y-60959279D01*
X56816497Y-60888427D01*
X56816490Y-60888414D01*
X56728498Y-60756725D01*
X56707620Y-60690047D01*
X56707600Y-60687834D01*
X56707600Y-60369500D01*
X56727285Y-60302461D01*
X56780089Y-60256706D01*
X56831600Y-60245500D01*
X57374903Y-60245500D01*
X57441942Y-60265185D01*
G37*
%TD.AperFunction*%
%TA.AperFunction,Conductor*%
G36*
X55940666Y-51557286D02*
G01*
X55987356Y-51609264D01*
X55999500Y-51662782D01*
X55999500Y-52040701D01*
X56002401Y-52077567D01*
X56002402Y-52077573D01*
X56048254Y-52235393D01*
X56048255Y-52235396D01*
X56131917Y-52376862D01*
X56131923Y-52376870D01*
X56248129Y-52493076D01*
X56248133Y-52493079D01*
X56248135Y-52493081D01*
X56389602Y-52576744D01*
X56431224Y-52588836D01*
X56547426Y-52622597D01*
X56547429Y-52622597D01*
X56547431Y-52622598D01*
X56584306Y-52625500D01*
X56584314Y-52625500D01*
X58365686Y-52625500D01*
X58365694Y-52625500D01*
X58402569Y-52622598D01*
X58402571Y-52622597D01*
X58402573Y-52622597D01*
X58472906Y-52602163D01*
X58560398Y-52576744D01*
X58701865Y-52493081D01*
X58734946Y-52460000D01*
X58777919Y-52417028D01*
X58839242Y-52383543D01*
X58908934Y-52388527D01*
X58964867Y-52430399D01*
X58989284Y-52495863D01*
X58989600Y-52504709D01*
X58989600Y-53685291D01*
X58969915Y-53752330D01*
X58917111Y-53798085D01*
X58847953Y-53808029D01*
X58784397Y-53779004D01*
X58777919Y-53772972D01*
X58701870Y-53696923D01*
X58701862Y-53696917D01*
X58592503Y-53632243D01*
X58560398Y-53613256D01*
X58560397Y-53613255D01*
X58560396Y-53613255D01*
X58560393Y-53613254D01*
X58402573Y-53567402D01*
X58402567Y-53567401D01*
X58365701Y-53564500D01*
X58365694Y-53564500D01*
X56584306Y-53564500D01*
X56584298Y-53564500D01*
X56547432Y-53567401D01*
X56547426Y-53567402D01*
X56389606Y-53613254D01*
X56389603Y-53613255D01*
X56248137Y-53696917D01*
X56248129Y-53696923D01*
X56131923Y-53813129D01*
X56131917Y-53813137D01*
X56048255Y-53954603D01*
X56048254Y-53954606D01*
X56002402Y-54112426D01*
X56002401Y-54112432D01*
X55999500Y-54149298D01*
X55999500Y-54576202D01*
X55979815Y-54643241D01*
X55963181Y-54663883D01*
X55761339Y-54865725D01*
X55700016Y-54899210D01*
X55697850Y-54899661D01*
X55542508Y-54930561D01*
X55542498Y-54930564D01*
X55396827Y-54990902D01*
X55396814Y-54990909D01*
X55265711Y-55078510D01*
X55265707Y-55078513D01*
X55154213Y-55190007D01*
X55154210Y-55190011D01*
X55066609Y-55321114D01*
X55066602Y-55321127D01*
X55006264Y-55466798D01*
X55006261Y-55466810D01*
X54975500Y-55621453D01*
X54975500Y-55779146D01*
X55006261Y-55933789D01*
X55006263Y-55933796D01*
X55026808Y-55983398D01*
X55034276Y-56052867D01*
X55003000Y-56115346D01*
X54942911Y-56150998D01*
X54873085Y-56148503D01*
X54824565Y-56118530D01*
X53982901Y-55276866D01*
X53963453Y-55251630D01*
X53955763Y-55238437D01*
X53951744Y-55224602D01*
X53868081Y-55083135D01*
X53861267Y-55076321D01*
X53853179Y-55062445D01*
X53848505Y-55043524D01*
X53839155Y-55026421D01*
X53840299Y-55010300D01*
X53836425Y-54994613D01*
X53842723Y-54976167D01*
X53844104Y-54956726D01*
X53855322Y-54939269D01*
X53859003Y-54928492D01*
X53864607Y-54924046D01*
X53863298Y-54923031D01*
X53868075Y-54916870D01*
X53868081Y-54916865D01*
X53951744Y-54775398D01*
X53966204Y-54725626D01*
X54003809Y-54666741D01*
X54067281Y-54637534D01*
X54136468Y-54647279D01*
X54172961Y-54672540D01*
X54265607Y-54765186D01*
X54265611Y-54765189D01*
X54396714Y-54852790D01*
X54396727Y-54852797D01*
X54510204Y-54899800D01*
X54542403Y-54913137D01*
X54673777Y-54939269D01*
X54697053Y-54943899D01*
X54697056Y-54943900D01*
X54697058Y-54943900D01*
X54854744Y-54943900D01*
X54854745Y-54943899D01*
X55009397Y-54913137D01*
X55155079Y-54852794D01*
X55286189Y-54765189D01*
X55397689Y-54653689D01*
X55485294Y-54522579D01*
X55495301Y-54498421D01*
X55514264Y-54452638D01*
X55545637Y-54376897D01*
X55576400Y-54222242D01*
X55576400Y-54064558D01*
X55576400Y-54064555D01*
X55576399Y-54064553D01*
X55563607Y-54000244D01*
X55545637Y-53909903D01*
X55517740Y-53842553D01*
X55485297Y-53764227D01*
X55485290Y-53764214D01*
X55397298Y-53632525D01*
X55376420Y-53565847D01*
X55376400Y-53563634D01*
X55376400Y-53178659D01*
X55376401Y-53178646D01*
X55376401Y-53010545D01*
X55376401Y-53010543D01*
X55335477Y-52857815D01*
X55280456Y-52762516D01*
X55256420Y-52720884D01*
X55144616Y-52609080D01*
X55144613Y-52609078D01*
X55083216Y-52547681D01*
X55049731Y-52486358D01*
X55054715Y-52416666D01*
X55083213Y-52372322D01*
X55186120Y-52269416D01*
X55265177Y-52132484D01*
X55306101Y-51979757D01*
X55306101Y-51830645D01*
X55325786Y-51763606D01*
X55378590Y-51717851D01*
X55417957Y-51707241D01*
X55422432Y-51706800D01*
X55422442Y-51706800D01*
X55577097Y-51676037D01*
X55722779Y-51615694D01*
X55806611Y-51559678D01*
X55873286Y-51538802D01*
X55940666Y-51557286D01*
G37*
%TD.AperFunction*%
%TA.AperFunction,Conductor*%
G36*
X123542773Y-52602362D02*
G01*
X123601444Y-52640303D01*
X123630288Y-52703941D01*
X123631500Y-52721239D01*
X123631500Y-53468760D01*
X123611815Y-53535799D01*
X123559011Y-53581554D01*
X123489853Y-53591498D01*
X123472905Y-53587836D01*
X123402573Y-53567402D01*
X123402567Y-53567401D01*
X123365701Y-53564500D01*
X123365694Y-53564500D01*
X121901500Y-53564500D01*
X121834461Y-53544815D01*
X121788706Y-53492011D01*
X121777500Y-53440500D01*
X121777500Y-52749500D01*
X121797185Y-52682461D01*
X121849989Y-52636706D01*
X121901500Y-52625500D01*
X123365686Y-52625500D01*
X123365694Y-52625500D01*
X123402569Y-52622598D01*
X123472906Y-52602163D01*
X123542773Y-52602362D01*
G37*
%TD.AperFunction*%
%TA.AperFunction,Conductor*%
G36*
X115650141Y-29753285D02*
G01*
X115695896Y-29806089D01*
X115705840Y-29875247D01*
X115676815Y-29938803D01*
X115670783Y-29945281D01*
X114407060Y-31209003D01*
X114407058Y-31209005D01*
X114402280Y-31213784D01*
X114368014Y-31273135D01*
X114323223Y-31350715D01*
X114282299Y-31503443D01*
X114282299Y-31503445D01*
X114282299Y-31671546D01*
X114282300Y-31671559D01*
X114282300Y-49472302D01*
X114262615Y-49539341D01*
X114245981Y-49559983D01*
X113512181Y-50293783D01*
X113450858Y-50327268D01*
X113381166Y-50322284D01*
X113325233Y-50280412D01*
X113300816Y-50214948D01*
X113300500Y-50206102D01*
X113300500Y-49765317D01*
X113300499Y-49765302D01*
X113299877Y-49757402D01*
X113297643Y-49729007D01*
X113283989Y-49682011D01*
X113252495Y-49573609D01*
X113252494Y-49573605D01*
X113248519Y-49566884D01*
X113231335Y-49499161D01*
X113240687Y-49456312D01*
X113289737Y-49337897D01*
X113320500Y-49183242D01*
X113320500Y-49025558D01*
X113320500Y-49025555D01*
X113320499Y-49025553D01*
X113312851Y-48987106D01*
X113289737Y-48870903D01*
X113283425Y-48855665D01*
X113229397Y-48725227D01*
X113229390Y-48725214D01*
X113141398Y-48593525D01*
X113120520Y-48526847D01*
X113120500Y-48524634D01*
X113120500Y-30666666D01*
X113140185Y-30599627D01*
X113156816Y-30578987D01*
X113170117Y-30565687D01*
X113252494Y-30426395D01*
X113297643Y-30270993D01*
X113300500Y-30234690D01*
X113300500Y-30120097D01*
X113320185Y-30053058D01*
X113336819Y-30032416D01*
X113599317Y-29769919D01*
X113660640Y-29736434D01*
X113686998Y-29733600D01*
X115583102Y-29733600D01*
X115650141Y-29753285D01*
G37*
%TD.AperFunction*%
%TA.AperFunction,Conductor*%
G36*
X57441942Y-40265185D02*
G01*
X57462584Y-40281819D01*
X58953281Y-41772516D01*
X58986766Y-41833839D01*
X58989600Y-41860197D01*
X58989600Y-49875291D01*
X58969915Y-49942330D01*
X58917111Y-49988085D01*
X58847953Y-49998029D01*
X58784397Y-49969004D01*
X58777919Y-49962972D01*
X58701870Y-49886923D01*
X58701862Y-49886917D01*
X58560396Y-49803255D01*
X58560393Y-49803254D01*
X58402573Y-49757402D01*
X58402558Y-49757400D01*
X58389767Y-49756393D01*
X58324479Y-49731507D01*
X58283010Y-49675275D01*
X58275500Y-49632776D01*
X58275500Y-49617655D01*
X58275499Y-49617653D01*
X58264028Y-49559983D01*
X58244737Y-49463003D01*
X58205366Y-49367952D01*
X58184397Y-49317327D01*
X58184390Y-49317314D01*
X58096789Y-49186211D01*
X58096786Y-49186207D01*
X57985292Y-49074713D01*
X57985288Y-49074710D01*
X57854185Y-48987109D01*
X57854172Y-48987102D01*
X57708501Y-48926764D01*
X57708489Y-48926761D01*
X57553845Y-48896000D01*
X57553842Y-48896000D01*
X57396158Y-48896000D01*
X57396155Y-48896000D01*
X57241510Y-48926761D01*
X57241498Y-48926764D01*
X57095827Y-48987102D01*
X57095814Y-48987109D01*
X56964711Y-49074710D01*
X56964707Y-49074713D01*
X56853213Y-49186207D01*
X56853210Y-49186211D01*
X56765609Y-49317314D01*
X56765602Y-49317327D01*
X56705264Y-49462998D01*
X56705261Y-49463010D01*
X56674500Y-49617653D01*
X56674500Y-49632776D01*
X56654815Y-49699815D01*
X56602011Y-49745570D01*
X56560233Y-49756393D01*
X56547441Y-49757400D01*
X56547426Y-49757402D01*
X56389606Y-49803254D01*
X56389603Y-49803255D01*
X56248137Y-49886917D01*
X56248129Y-49886923D01*
X56155781Y-49979272D01*
X56094458Y-50012757D01*
X56024766Y-50007773D01*
X55968833Y-49965901D01*
X55944416Y-49900437D01*
X55944100Y-49891591D01*
X55944100Y-46740597D01*
X55963785Y-46673558D01*
X56016589Y-46627803D01*
X56085747Y-46617859D01*
X56136991Y-46637495D01*
X56211514Y-46687290D01*
X56211527Y-46687297D01*
X56340207Y-46740597D01*
X56357203Y-46747637D01*
X56511853Y-46778399D01*
X56511856Y-46778400D01*
X56511858Y-46778400D01*
X56669544Y-46778400D01*
X56669545Y-46778399D01*
X56824197Y-46747637D01*
X56951666Y-46694838D01*
X56969872Y-46687297D01*
X56969872Y-46687296D01*
X56969879Y-46687294D01*
X57100989Y-46599689D01*
X57212489Y-46488189D01*
X57300094Y-46357079D01*
X57360437Y-46211397D01*
X57391200Y-46056742D01*
X57391200Y-45899058D01*
X57391200Y-45899055D01*
X57391199Y-45899053D01*
X57389294Y-45889478D01*
X57360437Y-45744403D01*
X57323284Y-45654707D01*
X57300097Y-45598727D01*
X57300090Y-45598714D01*
X57212098Y-45467025D01*
X57191220Y-45400347D01*
X57191200Y-45398134D01*
X57191200Y-42808059D01*
X57191201Y-42808046D01*
X57191201Y-42639945D01*
X57191201Y-42639943D01*
X57150277Y-42487215D01*
X57102843Y-42405057D01*
X57071220Y-42350284D01*
X56959416Y-42238480D01*
X56959415Y-42238479D01*
X56955085Y-42234149D01*
X56955074Y-42234139D01*
X56834519Y-42113584D01*
X56801034Y-42052261D01*
X56798200Y-42025903D01*
X56798200Y-40369500D01*
X56817885Y-40302461D01*
X56870689Y-40256706D01*
X56922200Y-40245500D01*
X57374903Y-40245500D01*
X57441942Y-40265185D01*
G37*
%TD.AperFunction*%
%TA.AperFunction,Conductor*%
G36*
X116559469Y-38964775D02*
G01*
X116563947Y-38964132D01*
X116580894Y-38967793D01*
X116597431Y-38972598D01*
X116634306Y-38975500D01*
X117831303Y-38975500D01*
X117898342Y-38995185D01*
X117918984Y-39011819D01*
X118165481Y-39258316D01*
X118198966Y-39319639D01*
X118201800Y-39345997D01*
X118201800Y-45345334D01*
X118182115Y-45412373D01*
X118180902Y-45414225D01*
X118092909Y-45545914D01*
X118092902Y-45545927D01*
X118032564Y-45691598D01*
X118032561Y-45691610D01*
X118001800Y-45846253D01*
X118001800Y-46003946D01*
X118032561Y-46158589D01*
X118032564Y-46158601D01*
X118092902Y-46304272D01*
X118092909Y-46304285D01*
X118180510Y-46435388D01*
X118180513Y-46435392D01*
X118292007Y-46546886D01*
X118292011Y-46546889D01*
X118423114Y-46634490D01*
X118423127Y-46634497D01*
X118568798Y-46694835D01*
X118568803Y-46694837D01*
X118722891Y-46725487D01*
X118784802Y-46757871D01*
X118819376Y-46818587D01*
X118822700Y-46847104D01*
X118822700Y-47930303D01*
X118803015Y-47997342D01*
X118750211Y-48043097D01*
X118681053Y-48053041D01*
X118617497Y-48024016D01*
X118611019Y-48017984D01*
X116458619Y-45865584D01*
X116425134Y-45804261D01*
X116422300Y-45777903D01*
X116422300Y-39086870D01*
X116429697Y-39061677D01*
X116433360Y-39035680D01*
X116439384Y-39028687D01*
X116441985Y-39019831D01*
X116461825Y-39002638D01*
X116478964Y-38982746D01*
X116487813Y-38980120D01*
X116494789Y-38974076D01*
X116520777Y-38970339D01*
X116545947Y-38962871D01*
X116559469Y-38964775D01*
G37*
%TD.AperFunction*%
%TA.AperFunction,Conductor*%
G36*
X121387395Y-37656103D02*
G01*
X121547426Y-37702597D01*
X121547429Y-37702597D01*
X121547431Y-37702598D01*
X121584306Y-37705500D01*
X122719603Y-37705500D01*
X122786642Y-37725185D01*
X122807284Y-37741819D01*
X123501703Y-38436238D01*
X123535188Y-38497561D01*
X123530204Y-38567253D01*
X123488332Y-38623186D01*
X123422868Y-38647603D01*
X123404296Y-38647537D01*
X123365706Y-38644500D01*
X123365694Y-38644500D01*
X121584306Y-38644500D01*
X121584298Y-38644500D01*
X121547432Y-38647401D01*
X121547426Y-38647402D01*
X121387395Y-38693896D01*
X121317525Y-38693697D01*
X121258855Y-38655755D01*
X121230012Y-38592116D01*
X121228800Y-38574820D01*
X121228800Y-37775179D01*
X121248485Y-37708140D01*
X121301289Y-37662385D01*
X121370447Y-37652441D01*
X121387395Y-37656103D01*
G37*
%TD.AperFunction*%
%TA.AperFunction,Conductor*%
G36*
X58489770Y-37697759D02*
G01*
X58548442Y-37735699D01*
X58577287Y-37799336D01*
X58578500Y-37816637D01*
X58578500Y-37828503D01*
X58558815Y-37895542D01*
X58542181Y-37916184D01*
X58317884Y-38140481D01*
X58256561Y-38173966D01*
X58230203Y-38176800D01*
X56992797Y-38176800D01*
X56925758Y-38157115D01*
X56880003Y-38104311D01*
X56870059Y-38035153D01*
X56899084Y-37971597D01*
X56905116Y-37965119D01*
X57128416Y-37741819D01*
X57189739Y-37708334D01*
X57216097Y-37705500D01*
X58365686Y-37705500D01*
X58365694Y-37705500D01*
X58402569Y-37702598D01*
X58419902Y-37697562D01*
X58489770Y-37697759D01*
G37*
%TD.AperFunction*%
%TA.AperFunction,Conductor*%
G36*
X55913003Y-33997384D02*
G01*
X55919481Y-34003416D01*
X55963883Y-34047818D01*
X55997368Y-34109141D01*
X55999821Y-34145208D01*
X55999501Y-34149276D01*
X55999500Y-34149313D01*
X55999500Y-34580701D01*
X56002401Y-34617567D01*
X56002402Y-34617573D01*
X56048254Y-34775393D01*
X56048255Y-34775396D01*
X56131917Y-34916862D01*
X56136702Y-34923031D01*
X56134256Y-34924927D01*
X56160857Y-34973642D01*
X56155873Y-35043334D01*
X56135069Y-35075703D01*
X56136702Y-35076969D01*
X56131917Y-35083137D01*
X56048255Y-35224603D01*
X56048254Y-35224606D01*
X56002402Y-35382426D01*
X56002401Y-35382432D01*
X55999500Y-35419298D01*
X55999500Y-35850686D01*
X55999501Y-35850716D01*
X55999821Y-35854787D01*
X55985448Y-35923162D01*
X55963884Y-35952179D01*
X55919482Y-35996582D01*
X55858159Y-36030068D01*
X55788468Y-36025084D01*
X55732534Y-35983214D01*
X55708116Y-35917749D01*
X55707800Y-35908902D01*
X55707800Y-34091097D01*
X55727485Y-34024058D01*
X55780289Y-33978303D01*
X55849447Y-33968359D01*
X55913003Y-33997384D01*
G37*
%TD.AperFunction*%
%TA.AperFunction,Conductor*%
G36*
X58240342Y-33082885D02*
G01*
X58260984Y-33099519D01*
X58520989Y-33359524D01*
X58554474Y-33420847D01*
X58549490Y-33490539D01*
X58507618Y-33546472D01*
X58442154Y-33570889D01*
X58409011Y-33567376D01*
X58408799Y-33568540D01*
X58402567Y-33567401D01*
X58365701Y-33564500D01*
X58365694Y-33564500D01*
X57230398Y-33564500D01*
X57163359Y-33544815D01*
X57142717Y-33528181D01*
X56889417Y-33274881D01*
X56855932Y-33213558D01*
X56860916Y-33143866D01*
X56902788Y-33087933D01*
X56968252Y-33063516D01*
X56977098Y-33063200D01*
X58173303Y-33063200D01*
X58240342Y-33082885D01*
G37*
%TD.AperFunction*%
%TA.AperFunction,Conductor*%
G36*
X56030788Y-29939585D02*
G01*
X56076543Y-29992389D01*
X56086487Y-30061547D01*
X56070482Y-30107020D01*
X56048254Y-30144605D01*
X56048254Y-30144606D01*
X56002402Y-30302426D01*
X56002401Y-30302432D01*
X55999500Y-30339298D01*
X55999500Y-30770701D01*
X56002401Y-30807567D01*
X56002402Y-30807573D01*
X56048254Y-30965393D01*
X56048255Y-30965396D01*
X56131917Y-31106862D01*
X56136702Y-31113031D01*
X56134256Y-31114927D01*
X56160857Y-31163642D01*
X56155873Y-31233334D01*
X56135069Y-31265703D01*
X56136702Y-31266969D01*
X56131917Y-31273137D01*
X56048255Y-31414603D01*
X56048254Y-31414606D01*
X56002402Y-31572426D01*
X56002401Y-31572432D01*
X55999500Y-31609298D01*
X55999500Y-32040686D01*
X55999501Y-32040716D01*
X55999821Y-32044787D01*
X55999728Y-32045228D01*
X55999886Y-32045652D01*
X55992560Y-32079325D01*
X55985448Y-32113162D01*
X55985097Y-32113633D01*
X55985034Y-32113925D01*
X55963884Y-32142180D01*
X55828985Y-32277079D01*
X55828984Y-32277079D01*
X55828983Y-32277080D01*
X55733081Y-32372983D01*
X55671758Y-32406468D01*
X55602066Y-32401484D01*
X55557719Y-32372983D01*
X54036819Y-30852083D01*
X54003334Y-30790760D01*
X54000500Y-30764402D01*
X54000500Y-30339313D01*
X54000499Y-30339298D01*
X53998308Y-30311460D01*
X53997598Y-30302431D01*
X53997316Y-30301461D01*
X53951745Y-30144606D01*
X53951745Y-30144605D01*
X53951744Y-30144603D01*
X53951744Y-30144602D01*
X53929517Y-30107019D01*
X53912337Y-30039296D01*
X53934497Y-29973034D01*
X53988963Y-29929271D01*
X54036251Y-29919900D01*
X55963749Y-29919900D01*
X56030788Y-29939585D01*
G37*
%TD.AperFunction*%
%TD*%
M02*
