%TF.GenerationSoftware,KiCad,Pcbnew,9.0.8+dfsg-1*%
%TF.CreationDate,2026-04-30T12:36:03+02:00*%
%TF.ProjectId,cha_adapter_routed,6368615f-6164-4617-9074-65725f726f75,rev?*%
%TF.SameCoordinates,Original*%
%TF.FileFunction,Soldermask,Bot*%
%TF.FilePolarity,Negative*%
%FSLAX46Y46*%
G04 Gerber Fmt 4.6, Leading zero omitted, Abs format (unit mm)*
G04 Created by KiCad (PCBNEW 9.0.8+dfsg-1) date 2026-04-30 12:36:03*
%MOMM*%
%LPD*%
G01*
G04 APERTURE LIST*
%ADD10R,1.700000X1.700000*%
%ADD11C,1.700000*%
G04 APERTURE END LIST*
D10*
%TO.C,J2*%
X87000000Y-7000000D03*
D11*
X89540000Y-7000000D03*
X87000000Y-9540000D03*
X89540000Y-9540000D03*
X87000000Y-12080000D03*
X89540000Y-12080000D03*
X87000000Y-14620000D03*
X89540000Y-14620000D03*
X87000000Y-17160000D03*
X89540000Y-17160000D03*
X87000000Y-19700000D03*
X89540000Y-19700000D03*
X87000000Y-22240000D03*
X89540000Y-22240000D03*
X87000000Y-24780000D03*
X89540000Y-24780000D03*
X87000000Y-27320000D03*
X89540000Y-27320000D03*
X87000000Y-29860000D03*
X89540000Y-29860000D03*
X87000000Y-32400000D03*
X89540000Y-32400000D03*
X87000000Y-34940000D03*
X89540000Y-34940000D03*
X87000000Y-37480000D03*
X89540000Y-37480000D03*
X87000000Y-40020000D03*
X89540000Y-40020000D03*
X87000000Y-42560000D03*
X89540000Y-42560000D03*
X87000000Y-45100000D03*
X89540000Y-45100000D03*
X87000000Y-47640000D03*
X89540000Y-47640000D03*
X87000000Y-50180000D03*
X89540000Y-50180000D03*
X87000000Y-52720000D03*
X89540000Y-52720000D03*
X87000000Y-55260000D03*
X89540000Y-55260000D03*
X87000000Y-57800000D03*
X89540000Y-57800000D03*
X87000000Y-60340000D03*
X89540000Y-60340000D03*
X87000000Y-62880000D03*
X89540000Y-62880000D03*
X87000000Y-65420000D03*
X89540000Y-65420000D03*
X87000000Y-67960000D03*
X89540000Y-67960000D03*
X87000000Y-70500000D03*
X89540000Y-70500000D03*
X87000000Y-73040000D03*
X89540000Y-73040000D03*
X87000000Y-75580000D03*
X89540000Y-75580000D03*
X87000000Y-78120000D03*
X89540000Y-78120000D03*
X87000000Y-80660000D03*
X89540000Y-80660000D03*
X87000000Y-83200000D03*
X89540000Y-83200000D03*
X87000000Y-85740000D03*
X89540000Y-85740000D03*
X87000000Y-88280000D03*
X89540000Y-88280000D03*
X87000000Y-90820000D03*
X89540000Y-90820000D03*
X87000000Y-93360000D03*
X89540000Y-93360000D03*
X87000000Y-95900000D03*
X89540000Y-95900000D03*
X87000000Y-98440000D03*
X89540000Y-98440000D03*
X87000000Y-100980000D03*
X89540000Y-100980000D03*
X87000000Y-103520000D03*
X89540000Y-103520000D03*
X87000000Y-106060000D03*
X89540000Y-106060000D03*
%TD*%
M02*
