%TF.GenerationSoftware,KiCad,Pcbnew,9.0.8+dfsg-1*%
%TF.CreationDate,2026-04-30T12:36:03+02:00*%
%TF.ProjectId,cha_adapter_routed,6368615f-6164-4617-9074-65725f726f75,rev?*%
%TF.SameCoordinates,Original*%
%TF.FileFunction,Profile,NP*%
%FSLAX46Y46*%
G04 Gerber Fmt 4.6, Leading zero omitted, Abs format (unit mm)*
G04 Created by KiCad (PCBNEW 9.0.8+dfsg-1) date 2026-04-30 12:36:03*
%MOMM*%
%LPD*%
G01*
G04 APERTURE LIST*
%TA.AperFunction,Profile*%
%ADD10C,0.100000*%
%TD*%
G04 APERTURE END LIST*
D10*
X0Y0D02*
X5451000Y0D01*
X0Y-115000000D02*
X0Y0D01*
X5451000Y0D02*
X5451000Y-2500000D01*
X5451000Y-2500000D02*
X17451000Y-2500000D01*
X9651000Y-115000000D02*
X0Y-115000000D01*
X9651000Y-134000000D02*
X9651000Y-115000000D01*
X15000000Y-98000000D02*
G75*
G02*
X5000000Y-98000000I-5000000J0D01*
G01*
X5000000Y-98000000D02*
G75*
G02*
X15000000Y-98000000I5000000J0D01*
G01*
X17451000Y0D02*
X156451000Y0D01*
X17451000Y-2500000D02*
X17451000Y0D01*
X156451000Y0D02*
X156451000Y-2500000D01*
X156451000Y-2500000D02*
X168451000Y-2500000D01*
X169000000Y-98000000D02*
G75*
G02*
X159000000Y-98000000I-5000000J0D01*
G01*
X159000000Y-98000000D02*
G75*
G02*
X169000000Y-98000000I5000000J0D01*
G01*
X164251000Y-115000000D02*
X164251000Y-134000000D01*
X164251000Y-134000000D02*
X9651000Y-134000000D01*
X168451000Y0D02*
X173900000Y0D01*
X168451000Y-2500000D02*
X168451000Y0D01*
X173900000Y0D02*
X173900000Y-115000000D01*
X173900000Y-115000000D02*
X164251000Y-115000000D01*
M02*
