M48
; DRILL file {KiCad 9.0.8+dfsg-1} date 2026-04-30T12:36:03+0200
; FORMAT={-:-/ absolute / inch / decimal}
; #@! TF.CreationDate,2026-04-30T12:36:03+02:00
; #@! TF.GenerationSoftware,Kicad,Pcbnew,9.0.8+dfsg-1
; #@! TF.FileFunction,Plated,1,2,PTH
FMAT,2
INCH
; #@! TA.AperFunction,Plated,PTH,ViaDrill
T1C0.0118
; #@! TA.AperFunction,Plated,PTH,ComponentDrill
T2C0.0394
%
G90
G05
T1
X0.5252Y-4.9744
X0.5531Y-4.3798
X0.628Y-3.3218
X0.6752Y-4.3989
X0.807Y-4.861
X0.8432Y-2.4415
X0.8486Y-4.8405
X0.8752Y-2.4121
X0.9752Y-4.8616
X1.0501Y-3.2497
X1.0752Y-4.8352
X1.1081Y-2.3843
X1.1485Y-4.8609
X1.1824Y-3.0382
X1.2427Y-4.5943
X1.3295Y-4.7579
X1.3297Y-1.8872
X1.3752Y-2.0944
X1.3997Y-4.8488
X1.4574Y-2.1534
X1.5752Y-4.861
X1.584Y-1.9534
X1.6378Y-3.2734
X1.6456Y-4.0781
X1.6752Y-4.0464
X1.6752Y-4.861
X1.7485Y-4.861
X1.7587Y-1.8175
X1.7752Y-3.8119
X1.7905Y-2.0953
X1.7905Y-3.0953
X1.8381Y-3.2634
X1.8502Y-3.3124
X1.8709Y-2.7889
X1.8846Y-3.3897
X1.9362Y-2.7865
X1.9508Y-3.3049
X1.9685Y-4.3989
X2.0076Y-3.0382
X2.0549Y-3.4292
X2.0558Y-2.476
X2.0679Y-2.7238
X2.1051Y-1.9534
X2.1263Y-2.0953
X2.1263Y-2.2666
X2.1266Y-2.0285
X2.1565Y-2.1316
X2.1648Y-1.6968
X2.1688Y-4.0781
X2.1742Y-2.7829
X2.1789Y-2.0042
X2.1912Y-2.7552
X2.1925Y-4.0464
X2.1959Y-2.1929
X2.2089Y-2.4121
X2.2166Y-3.8119
X2.228Y-1.8102
X2.2507Y-4.8488
X2.2576Y-0.3756
X2.2628Y-1.9566
X2.3019Y-4.6747
X2.3215Y-2.2354
X2.3248Y-3.1074
X2.3429Y-4.3724
X2.345Y-4.6141
X2.3512Y-4.7104
X2.3756Y-1.9451
X2.3756Y-2.7552
X2.3815Y-4.6731
X2.4052Y-0.9256
X2.4145Y-4.8555
X2.6252Y-4.87
X2.7252Y-4.87
X2.8252Y-4.87
X2.9252Y-4.87
X3.0185Y-4.8672
X3.0426Y-3.6941
X3.0776Y-1.9209
X3.106Y-4.8601
X3.2171Y-4.8659
X3.2408Y-2.0256
X3.2408Y-4.8173
X3.2961Y-1.9401
X3.3252Y-4.9744
X3.3634Y-3.3279
X3.5808Y-2.2526
X3.6474Y-3.8202
X3.6936Y-4.8608
X3.7278Y-4.87
X3.7989Y-4.7475
X3.8623Y-4.8428
X3.8819Y-4.718
X4.0112Y-4.7925
X4.0756Y-4.7726
X4.0918Y-4.8289
X4.0963Y-4.3311
X4.1121Y-4.3631
X4.1252Y-4.87
X4.1634Y-2.9068
X4.1634Y-4.8139
X4.2252Y-4.87
X4.3252Y-2.8967
X4.3252Y-5.0287
X4.3527Y-1.8081
X4.3527Y-2.9344
X4.4299Y-1.9332
X4.4677Y-1.2404
X4.5057Y-3.2756
X4.5309Y-3.2255
X4.5563Y-3.4596
X4.5792Y-3.5732
X4.5902Y-3.9293
X4.6017Y-3.0213
X4.6017Y-3.4283
X4.616Y-4.8606
X4.6773Y-1.8081
X4.678Y-3.8119
X4.7017Y-3.2248
X4.7192Y-4.7163
X4.8218Y-1.9332
X4.9165Y-2.3614
X4.9336Y-2.1229
X4.9719Y-3.5866
X4.9854Y-2.99
X5.0521Y-3.533
X5.0557Y-3.4909
X5.0819Y-3.5577
X5.1962Y-4.7962
X5.2203Y-2.2765
X5.2203Y-4.8459
X5.2752Y-2.2942
X5.4252Y-2.385
X5.4252Y-4.87
X5.4752Y-3.8119
X5.5252Y-2.6014
X5.5252Y-5.0287
X5.5752Y-3.0213
X5.6252Y-2.6278
X5.6252Y-5.0287
X5.6752Y-3.4283
X5.7252Y-2.8651
X5.7252Y-4.87
X5.7752Y-3.2248
X5.8752Y-3.4596
X5.9001Y-3.533
X6.0391Y-3.6944
X6.0752Y-3.4909
X6.0998Y-4.8459
X6.3252Y-5.0266
T2
X3.4252Y-0.2756
X3.4252Y-0.3756
X3.4252Y-0.4756
X3.4252Y-0.5756
X3.4252Y-0.6756
X3.4252Y-0.7756
X3.4252Y-0.8756
X3.4252Y-0.9756
X3.4252Y-1.0756
X3.4252Y-1.1756
X3.4252Y-1.2756
X3.4252Y-1.3756
X3.4252Y-1.4756
X3.4252Y-1.5756
X3.4252Y-1.6756
X3.4252Y-1.7756
X3.4252Y-1.8756
X3.4252Y-1.9756
X3.4252Y-2.0756
X3.4252Y-2.1756
X3.4252Y-2.2756
X3.4252Y-2.3756
X3.4252Y-2.4756
X3.4252Y-2.5756
X3.4252Y-2.6756
X3.4252Y-2.7756
X3.4252Y-2.8756
X3.4252Y-2.9756
X3.4252Y-3.0756
X3.4252Y-3.1756
X3.4252Y-3.2756
X3.4252Y-3.3756
X3.4252Y-3.4756
X3.4252Y-3.5756
X3.4252Y-3.6756
X3.4252Y-3.7756
X3.4252Y-3.8756
X3.4252Y-3.9756
X3.4252Y-4.0756
X3.4252Y-4.1756
X3.5252Y-0.2756
X3.5252Y-0.3756
X3.5252Y-0.4756
X3.5252Y-0.5756
X3.5252Y-0.6756
X3.5252Y-0.7756
X3.5252Y-0.8756
X3.5252Y-0.9756
X3.5252Y-1.0756
X3.5252Y-1.1756
X3.5252Y-1.2756
X3.5252Y-1.3756
X3.5252Y-1.4756
X3.5252Y-1.5756
X3.5252Y-1.6756
X3.5252Y-1.7756
X3.5252Y-1.8756
X3.5252Y-1.9756
X3.5252Y-2.0756
X3.5252Y-2.1756
X3.5252Y-2.2756
X3.5252Y-2.3756
X3.5252Y-2.4756
X3.5252Y-2.5756
X3.5252Y-2.6756
X3.5252Y-2.7756
X3.5252Y-2.8756
X3.5252Y-2.9756
X3.5252Y-3.0756
X3.5252Y-3.1756
X3.5252Y-3.2756
X3.5252Y-3.3756
X3.5252Y-3.4756
X3.5252Y-3.5756
X3.5252Y-3.6756
X3.5252Y-3.7756
X3.5252Y-3.8756
X3.5252Y-3.9756
X3.5252Y-4.0756
X3.5252Y-4.1756
M30
