<?xml version="1.0" standalone="no"?>
 <!DOCTYPE svg PUBLIC "-//W3C//DTD SVG 1.1//EN" 
 "http://www.w3.org/Graphics/SVG/1.1/DTD/svg11.dtd"> 
<svg
  xmlns:svg="http://www.w3.org/2000/svg"
  xmlns="http://www.w3.org/2000/svg"
  xmlns:xlink="http://www.w3.org/1999/xlink"
  version="1.1"
  width="174.0916mm" height="139.7762mm" viewBox="0.0000 0.0000 174.0916 139.7762">
<title>SVG Image created as render_all.svg date 2026/05/18 08:19:19 </title>
  <desc>Image generated by PCBNEW </desc>
<g style="fill:#000000; fill-opacity:1.0000;stroke:#000000; stroke-opacity:1.0000;
stroke-linecap:round; stroke-linejoin:round;"
 transform="translate(0 0) scale(1 1)">
</g>
<g style="fill:#C83434; fill-opacity:1.0000; stroke:none;">
<circle cx="42.0500" cy="103.3000" r="3.0000" /> 
<path style="fill:#C83434; fill-opacity:1.0000; stroke:none;fill-rule:evenodd;"
d="M 161.2300,131.9500
161.2300,121.9500
162.7300,121.9500
162.7300,131.9500
Z" /> 
<path style="fill:#C83434; fill-opacity:1.0000; stroke:none;fill-rule:evenodd;"
d="M 158.6900,131.9500
158.6900,121.9500
160.1900,121.9500
160.1900,131.9500
Z" /> 
<path style="fill:#C83434; fill-opacity:1.0000; stroke:none;fill-rule:evenodd;"
d="M 156.1500,131.9500
156.1500,121.9500
157.6500,121.9500
157.6500,131.9500
Z" /> 
<path style="fill:#C83434; fill-opacity:1.0000; stroke:none;fill-rule:evenodd;"
d="M 153.6100,131.9500
153.6100,121.9500
155.1100,121.9500
155.1100,131.9500
Z" /> 
<path style="fill:#C83434; fill-opacity:1.0000; stroke:none;fill-rule:evenodd;"
d="M 151.0700,131.9500
151.0700,121.9500
152.5700,121.9500
152.5700,131.9500
Z" /> 
<path style="fill:#C83434; fill-opacity:1.0000; stroke:none;fill-rule:evenodd;"
d="M 148.5300,131.9500
148.5300,121.9500
150.0300,121.9500
150.0300,131.9500
Z" /> 
<path style="fill:#C83434; fill-opacity:1.0000; stroke:none;fill-rule:evenodd;"
d="M 145.9900,131.9500
145.9900,121.9500
147.4900,121.9500
147.4900,131.9500
Z" /> 
<path style="fill:#C83434; fill-opacity:1.0000; stroke:none;fill-rule:evenodd;"
d="M 143.4500,131.9500
143.4500,121.9500
144.9500,121.9500
144.9500,131.9500
Z" /> 
<path style="fill:#C83434; fill-opacity:1.0000; stroke:none;fill-rule:evenodd;"
d="M 140.9100,131.9500
140.9100,121.9500
142.4100,121.9500
142.4100,131.9500
Z" /> 
<path style="fill:#C83434; fill-opacity:1.0000; stroke:none;fill-rule:evenodd;"
d="M 138.3700,131.9500
138.3700,121.9500
139.8700,121.9500
139.8700,131.9500
Z" /> 
<path style="fill:#C83434; fill-opacity:1.0000; stroke:none;fill-rule:evenodd;"
d="M 135.8300,131.9500
135.8300,121.9500
137.3300,121.9500
137.3300,131.9500
Z" /> 
<path style="fill:#C83434; fill-opacity:1.0000; stroke:none;fill-rule:evenodd;"
d="M 133.2900,131.9500
133.2900,121.9500
134.7900,121.9500
134.7900,131.9500
Z" /> 
<path style="fill:#C83434; fill-opacity:1.0000; stroke:none;fill-rule:evenodd;"
d="M 130.7500,131.9500
130.7500,121.9500
132.2500,121.9500
132.2500,131.9500
Z" /> 
<path style="fill:#C83434; fill-opacity:1.0000; stroke:none;fill-rule:evenodd;"
d="M 128.2100,131.9500
128.2100,121.9500
129.7100,121.9500
129.7100,131.9500
Z" /> 
<path style="fill:#C83434; fill-opacity:1.0000; stroke:none;fill-rule:evenodd;"
d="M 125.6700,131.9500
125.6700,121.9500
127.1700,121.9500
127.1700,131.9500
Z" /> 
<path style="fill:#C83434; fill-opacity:1.0000; stroke:none;fill-rule:evenodd;"
d="M 123.1300,131.9500
123.1300,121.9500
124.6300,121.9500
124.6300,131.9500
Z" /> 
<path style="fill:#C83434; fill-opacity:1.0000; stroke:none;fill-rule:evenodd;"
d="M 120.5900,131.9500
120.5900,121.9500
122.0900,121.9500
122.0900,131.9500
Z" /> 
<path style="fill:#C83434; fill-opacity:1.0000; stroke:none;fill-rule:evenodd;"
d="M 118.0500,131.9500
118.0500,121.9500
119.5500,121.9500
119.5500,131.9500
Z" /> 
<path style="fill:#C83434; fill-opacity:1.0000; stroke:none;fill-rule:evenodd;"
d="M 115.5100,131.9500
115.5100,121.9500
117.0100,121.9500
117.0100,131.9500
Z" /> 
<path style="fill:#C83434; fill-opacity:1.0000; stroke:none;fill-rule:evenodd;"
d="M 112.9700,131.9500
112.9700,121.9500
114.4700,121.9500
114.4700,131.9500
Z" /> 
<path style="fill:#C83434; fill-opacity:1.0000; stroke:none;fill-rule:evenodd;"
d="M 110.4300,131.9500
110.4300,121.9500
111.9300,121.9500
111.9300,131.9500
Z" /> 
<path style="fill:#C83434; fill-opacity:1.0000; stroke:none;fill-rule:evenodd;"
d="M 107.8900,131.9500
107.8900,121.9500
109.3900,121.9500
109.3900,131.9500
Z" /> 
<path style="fill:#C83434; fill-opacity:1.0000; stroke:none;fill-rule:evenodd;"
d="M 105.3500,131.9500
105.3500,121.9500
106.8500,121.9500
106.8500,131.9500
Z" /> 
<path style="fill:#C83434; fill-opacity:1.0000; stroke:none;fill-rule:evenodd;"
d="M 102.8100,131.9500
102.8100,121.9500
104.3100,121.9500
104.3100,131.9500
Z" /> 
<path style="fill:#C83434; fill-opacity:1.0000; stroke:none;fill-rule:evenodd;"
d="M 100.2700,131.9500
100.2700,121.9500
101.7700,121.9500
101.7700,131.9500
Z" /> 
<path style="fill:#C83434; fill-opacity:1.0000; stroke:none;fill-rule:evenodd;"
d="M 97.7300,131.9500
97.7300,121.9500
99.2300,121.9500
99.2300,131.9500
Z" /> 
<path style="fill:#C83434; fill-opacity:1.0000; stroke:none;fill-rule:evenodd;"
d="M 95.1900,131.9500
95.1900,121.9500
96.6900,121.9500
96.6900,131.9500
Z" /> 
<path style="fill:#C83434; fill-opacity:1.0000; stroke:none;fill-rule:evenodd;"
d="M 92.6500,131.9500
92.6500,121.9500
94.1500,121.9500
94.1500,131.9500
Z" /> 
<path style="fill:#C83434; fill-opacity:1.0000; stroke:none;fill-rule:evenodd;"
d="M 90.1100,131.9500
90.1100,121.9500
91.6100,121.9500
91.6100,131.9500
Z" /> 
<path style="fill:#C83434; fill-opacity:1.0000; stroke:none;fill-rule:evenodd;"
d="M 87.5700,131.9500
87.5700,121.9500
89.0700,121.9500
89.0700,131.9500
Z" /> 
<path style="fill:#C83434; fill-opacity:1.0000; stroke:none;fill-rule:evenodd;"
d="M 85.0300,131.9500
85.0300,121.9500
86.5300,121.9500
86.5300,131.9500
Z" /> 
<path style="fill:#C83434; fill-opacity:1.0000; stroke:none;fill-rule:evenodd;"
d="M 82.4900,131.9500
82.4900,121.9500
83.9900,121.9500
83.9900,131.9500
Z" /> 
<path style="fill:#C83434; fill-opacity:1.0000; stroke:none;fill-rule:evenodd;"
d="M 79.9500,131.9500
79.9500,121.9500
81.4500,121.9500
81.4500,131.9500
Z" /> 
<path style="fill:#C83434; fill-opacity:1.0000; stroke:none;fill-rule:evenodd;"
d="M 77.4100,131.9500
77.4100,121.9500
78.9100,121.9500
78.9100,131.9500
Z" /> 
<path style="fill:#C83434; fill-opacity:1.0000; stroke:none;fill-rule:evenodd;"
d="M 74.8700,131.9500
74.8700,121.9500
76.3700,121.9500
76.3700,131.9500
Z" /> 
<path style="fill:#C83434; fill-opacity:1.0000; stroke:none;fill-rule:evenodd;"
d="M 72.3300,131.9500
72.3300,121.9500
73.8300,121.9500
73.8300,131.9500
Z" /> 
<path style="fill:#C83434; fill-opacity:1.0000; stroke:none;fill-rule:evenodd;"
d="M 69.7900,131.9500
69.7900,121.9500
71.2900,121.9500
71.2900,131.9500
Z" /> 
<path style="fill:#C83434; fill-opacity:1.0000; stroke:none;fill-rule:evenodd;"
d="M 67.2500,131.9500
67.2500,121.9500
68.7500,121.9500
68.7500,131.9500
Z" /> 
<path style="fill:#C83434; fill-opacity:1.0000; stroke:none;fill-rule:evenodd;"
d="M 64.7100,131.9500
64.7100,121.9500
66.2100,121.9500
66.2100,131.9500
Z" /> 
<path style="fill:#C83434; fill-opacity:1.0000; stroke:none;fill-rule:evenodd;"
d="M 62.1700,131.9500
62.1700,121.9500
63.6700,121.9500
63.6700,131.9500
Z" /> 
<path style="fill:#C83434; fill-opacity:1.0000; stroke:none;fill-rule:evenodd;"
d="M 59.6300,131.9500
59.6300,121.9500
61.1300,121.9500
61.1300,131.9500
Z" /> 
<path style="fill:#C83434; fill-opacity:1.0000; stroke:none;fill-rule:evenodd;"
d="M 57.0900,131.9500
57.0900,121.9500
58.5900,121.9500
58.5900,131.9500
Z" /> 
<path style="fill:#C83434; fill-opacity:1.0000; stroke:none;fill-rule:evenodd;"
d="M 54.5500,131.9500
54.5500,121.9500
56.0500,121.9500
56.0500,131.9500
Z" /> 
<path style="fill:#C83434; fill-opacity:1.0000; stroke:none;fill-rule:evenodd;"
d="M 52.0100,131.9500
52.0100,121.9500
53.5100,121.9500
53.5100,131.9500
Z" /> 
<path style="fill:#C83434; fill-opacity:1.0000; stroke:none;fill-rule:evenodd;"
d="M 49.4700,131.9500
49.4700,121.9500
50.9700,121.9500
50.9700,131.9500
Z" /> 
<path style="fill:#C83434; fill-opacity:1.0000; stroke:none;fill-rule:evenodd;"
d="M 46.9300,131.9500
46.9300,121.9500
48.4300,121.9500
48.4300,131.9500
Z" /> 
<path style="fill:#C83434; fill-opacity:1.0000; stroke:none;fill-rule:evenodd;"
d="M 44.3900,131.9500
44.3900,121.9500
45.8900,121.9500
45.8900,131.9500
Z" /> 
<path style="fill:#C83434; fill-opacity:1.0000; stroke:none;fill-rule:evenodd;"
d="M 41.8500,131.9500
41.8500,121.9500
43.3500,121.9500
43.3500,131.9500
Z" /> 
<path style="fill:#C83434; fill-opacity:1.0000; stroke:none;fill-rule:evenodd;"
d="M 39.3100,131.9500
39.3100,121.9500
40.8100,121.9500
40.8100,131.9500
Z" /> 
<path style="fill:#C83434; fill-opacity:1.0000; stroke:none;fill-rule:evenodd;"
d="M 36.7700,131.9500
36.7700,121.9500
38.2700,121.9500
38.2700,131.9500
Z" /> 
<path style="fill:#C83434; fill-opacity:1.0000; stroke:none;fill-rule:evenodd;"
d="M 34.2300,131.9500
34.2300,121.9500
35.7300,121.9500
35.7300,131.9500
Z" /> 
<path style="fill:#C83434; fill-opacity:1.0000; stroke:none;fill-rule:evenodd;"
d="M 31.6900,131.9500
31.6900,121.9500
33.1900,121.9500
33.1900,131.9500
Z" /> 
<path style="fill:#C83434; fill-opacity:1.0000; stroke:none;fill-rule:evenodd;"
d="M 29.1500,131.9500
29.1500,121.9500
30.6500,121.9500
30.6500,131.9500
Z" /> 
<path style="fill:#C83434; fill-opacity:1.0000; stroke:none;fill-rule:evenodd;"
d="M 26.6100,131.9500
26.6100,121.9500
28.1100,121.9500
28.1100,131.9500
Z" /> 
<path style="fill:#C83434; fill-opacity:1.0000; stroke:none;fill-rule:evenodd;"
d="M 24.0700,131.9500
24.0700,121.9500
25.5700,121.9500
25.5700,131.9500
Z" /> 
<path style="fill:#C83434; fill-opacity:1.0000; stroke:none;fill-rule:evenodd;"
d="M 21.5300,131.9500
21.5300,121.9500
23.0300,121.9500
23.0300,131.9500
Z" /> 
<path style="fill:#C83434; fill-opacity:1.0000; stroke:none;fill-rule:evenodd;"
d="M 18.9900,131.9500
18.9900,121.9500
20.4900,121.9500
20.4900,131.9500
Z" /> 
<path style="fill:#C83434; fill-opacity:1.0000; stroke:none;fill-rule:evenodd;"
d="M 16.4500,131.9500
16.4500,121.9500
17.9500,121.9500
17.9500,131.9500
Z" /> 
<path style="fill:#C83434; fill-opacity:1.0000; stroke:none;fill-rule:evenodd;"
d="M 13.9100,131.9500
13.9100,121.9500
15.4100,121.9500
15.4100,131.9500
Z" /> 
<path style="fill:#C83434; fill-opacity:1.0000; stroke:none;fill-rule:evenodd;"
d="M 11.3700,131.9500
11.3700,121.9500
12.8700,121.9500
12.8700,131.9500
Z" /> 
</g>
<g style="fill:#C83434; fill-opacity:1.0000; stroke:none;">
<circle cx="132.0500" cy="103.3000" r="3.0000" /> 
</g>
<g style="fill:#4D7FC4; fill-opacity:1.0000; stroke:none;">
<circle cx="42.0500" cy="103.3000" r="3.0000" /> 
</g>
<g style="fill:#4D7FC4; fill-opacity:1.0000; stroke:none;">
<circle cx="132.0500" cy="103.3000" r="3.0000" /> 
<path style="fill:#4D7FC4; fill-opacity:1.0000; stroke:none;fill-rule:evenodd;"
d="M 11.3700,131.9500
11.3700,121.9500
12.8700,121.9500
12.8700,131.9500
Z" /> 
<path style="fill:#4D7FC4; fill-opacity:1.0000; stroke:none;fill-rule:evenodd;"
d="M 13.9100,131.9500
13.9100,121.9500
15.4100,121.9500
15.4100,131.9500
Z" /> 
<path style="fill:#4D7FC4; fill-opacity:1.0000; stroke:none;fill-rule:evenodd;"
d="M 16.4500,131.9500
16.4500,121.9500
17.9500,121.9500
17.9500,131.9500
Z" /> 
<path style="fill:#4D7FC4; fill-opacity:1.0000; stroke:none;fill-rule:evenodd;"
d="M 18.9900,131.9500
18.9900,121.9500
20.4900,121.9500
20.4900,131.9500
Z" /> 
<path style="fill:#4D7FC4; fill-opacity:1.0000; stroke:none;fill-rule:evenodd;"
d="M 21.5300,131.9500
21.5300,121.9500
23.0300,121.9500
23.0300,131.9500
Z" /> 
<path style="fill:#4D7FC4; fill-opacity:1.0000; stroke:none;fill-rule:evenodd;"
d="M 24.0700,131.9500
24.0700,121.9500
25.5700,121.9500
25.5700,131.9500
Z" /> 
<path style="fill:#4D7FC4; fill-opacity:1.0000; stroke:none;fill-rule:evenodd;"
d="M 26.6100,131.9500
26.6100,121.9500
28.1100,121.9500
28.1100,131.9500
Z" /> 
<path style="fill:#4D7FC4; fill-opacity:1.0000; stroke:none;fill-rule:evenodd;"
d="M 29.1500,131.9500
29.1500,121.9500
30.6500,121.9500
30.6500,131.9500
Z" /> 
<path style="fill:#4D7FC4; fill-opacity:1.0000; stroke:none;fill-rule:evenodd;"
d="M 31.6900,131.9500
31.6900,121.9500
33.1900,121.9500
33.1900,131.9500
Z" /> 
<path style="fill:#4D7FC4; fill-opacity:1.0000; stroke:none;fill-rule:evenodd;"
d="M 34.2300,131.9500
34.2300,121.9500
35.7300,121.9500
35.7300,131.9500
Z" /> 
<path style="fill:#4D7FC4; fill-opacity:1.0000; stroke:none;fill-rule:evenodd;"
d="M 36.7700,131.9500
36.7700,121.9500
38.2700,121.9500
38.2700,131.9500
Z" /> 
<path style="fill:#4D7FC4; fill-opacity:1.0000; stroke:none;fill-rule:evenodd;"
d="M 39.3100,131.9500
39.3100,121.9500
40.8100,121.9500
40.8100,131.9500
Z" /> 
<path style="fill:#4D7FC4; fill-opacity:1.0000; stroke:none;fill-rule:evenodd;"
d="M 41.8500,131.9500
41.8500,121.9500
43.3500,121.9500
43.3500,131.9500
Z" /> 
<path style="fill:#4D7FC4; fill-opacity:1.0000; stroke:none;fill-rule:evenodd;"
d="M 44.3900,131.9500
44.3900,121.9500
45.8900,121.9500
45.8900,131.9500
Z" /> 
<path style="fill:#4D7FC4; fill-opacity:1.0000; stroke:none;fill-rule:evenodd;"
d="M 46.9300,131.9500
46.9300,121.9500
48.4300,121.9500
48.4300,131.9500
Z" /> 
<path style="fill:#4D7FC4; fill-opacity:1.0000; stroke:none;fill-rule:evenodd;"
d="M 49.4700,131.9500
49.4700,121.9500
50.9700,121.9500
50.9700,131.9500
Z" /> 
<path style="fill:#4D7FC4; fill-opacity:1.0000; stroke:none;fill-rule:evenodd;"
d="M 52.0100,131.9500
52.0100,121.9500
53.5100,121.9500
53.5100,131.9500
Z" /> 
<path style="fill:#4D7FC4; fill-opacity:1.0000; stroke:none;fill-rule:evenodd;"
d="M 54.5500,131.9500
54.5500,121.9500
56.0500,121.9500
56.0500,131.9500
Z" /> 
<path style="fill:#4D7FC4; fill-opacity:1.0000; stroke:none;fill-rule:evenodd;"
d="M 57.0900,131.9500
57.0900,121.9500
58.5900,121.9500
58.5900,131.9500
Z" /> 
<path style="fill:#4D7FC4; fill-opacity:1.0000; stroke:none;fill-rule:evenodd;"
d="M 59.6300,131.9500
59.6300,121.9500
61.1300,121.9500
61.1300,131.9500
Z" /> 
<path style="fill:#4D7FC4; fill-opacity:1.0000; stroke:none;fill-rule:evenodd;"
d="M 62.1700,131.9500
62.1700,121.9500
63.6700,121.9500
63.6700,131.9500
Z" /> 
<path style="fill:#4D7FC4; fill-opacity:1.0000; stroke:none;fill-rule:evenodd;"
d="M 64.7100,131.9500
64.7100,121.9500
66.2100,121.9500
66.2100,131.9500
Z" /> 
<path style="fill:#4D7FC4; fill-opacity:1.0000; stroke:none;fill-rule:evenodd;"
d="M 67.2500,131.9500
67.2500,121.9500
68.7500,121.9500
68.7500,131.9500
Z" /> 
<path style="fill:#4D7FC4; fill-opacity:1.0000; stroke:none;fill-rule:evenodd;"
d="M 69.7900,131.9500
69.7900,121.9500
71.2900,121.9500
71.2900,131.9500
Z" /> 
<path style="fill:#4D7FC4; fill-opacity:1.0000; stroke:none;fill-rule:evenodd;"
d="M 72.3300,131.9500
72.3300,121.9500
73.8300,121.9500
73.8300,131.9500
Z" /> 
<path style="fill:#4D7FC4; fill-opacity:1.0000; stroke:none;fill-rule:evenodd;"
d="M 74.8700,131.9500
74.8700,121.9500
76.3700,121.9500
76.3700,131.9500
Z" /> 
<path style="fill:#4D7FC4; fill-opacity:1.0000; stroke:none;fill-rule:evenodd;"
d="M 77.4100,131.9500
77.4100,121.9500
78.9100,121.9500
78.9100,131.9500
Z" /> 
<path style="fill:#4D7FC4; fill-opacity:1.0000; stroke:none;fill-rule:evenodd;"
d="M 79.9500,131.9500
79.9500,121.9500
81.4500,121.9500
81.4500,131.9500
Z" /> 
<path style="fill:#4D7FC4; fill-opacity:1.0000; stroke:none;fill-rule:evenodd;"
d="M 82.4900,131.9500
82.4900,121.9500
83.9900,121.9500
83.9900,131.9500
Z" /> 
<path style="fill:#4D7FC4; fill-opacity:1.0000; stroke:none;fill-rule:evenodd;"
d="M 85.0300,131.9500
85.0300,121.9500
86.5300,121.9500
86.5300,131.9500
Z" /> 
<path style="fill:#4D7FC4; fill-opacity:1.0000; stroke:none;fill-rule:evenodd;"
d="M 87.5700,131.9500
87.5700,121.9500
89.0700,121.9500
89.0700,131.9500
Z" /> 
<path style="fill:#4D7FC4; fill-opacity:1.0000; stroke:none;fill-rule:evenodd;"
d="M 90.1100,131.9500
90.1100,121.9500
91.6100,121.9500
91.6100,131.9500
Z" /> 
<path style="fill:#4D7FC4; fill-opacity:1.0000; stroke:none;fill-rule:evenodd;"
d="M 92.6500,131.9500
92.6500,121.9500
94.1500,121.9500
94.1500,131.9500
Z" /> 
<path style="fill:#4D7FC4; fill-opacity:1.0000; stroke:none;fill-rule:evenodd;"
d="M 95.1900,131.9500
95.1900,121.9500
96.6900,121.9500
96.6900,131.9500
Z" /> 
<path style="fill:#4D7FC4; fill-opacity:1.0000; stroke:none;fill-rule:evenodd;"
d="M 97.7300,131.9500
97.7300,121.9500
99.2300,121.9500
99.2300,131.9500
Z" /> 
<path style="fill:#4D7FC4; fill-opacity:1.0000; stroke:none;fill-rule:evenodd;"
d="M 100.2700,131.9500
100.2700,121.9500
101.7700,121.9500
101.7700,131.9500
Z" /> 
<path style="fill:#4D7FC4; fill-opacity:1.0000; stroke:none;fill-rule:evenodd;"
d="M 102.8100,131.9500
102.8100,121.9500
104.3100,121.9500
104.3100,131.9500
Z" /> 
<path style="fill:#4D7FC4; fill-opacity:1.0000; stroke:none;fill-rule:evenodd;"
d="M 105.3500,131.9500
105.3500,121.9500
106.8500,121.9500
106.8500,131.9500
Z" /> 
<path style="fill:#4D7FC4; fill-opacity:1.0000; stroke:none;fill-rule:evenodd;"
d="M 107.8900,131.9500
107.8900,121.9500
109.3900,121.9500
109.3900,131.9500
Z" /> 
<path style="fill:#4D7FC4; fill-opacity:1.0000; stroke:none;fill-rule:evenodd;"
d="M 110.4300,131.9500
110.4300,121.9500
111.9300,121.9500
111.9300,131.9500
Z" /> 
<path style="fill:#4D7FC4; fill-opacity:1.0000; stroke:none;fill-rule:evenodd;"
d="M 112.9700,131.9500
112.9700,121.9500
114.4700,121.9500
114.4700,131.9500
Z" /> 
<path style="fill:#4D7FC4; fill-opacity:1.0000; stroke:none;fill-rule:evenodd;"
d="M 115.5100,131.9500
115.5100,121.9500
117.0100,121.9500
117.0100,131.9500
Z" /> 
<path style="fill:#4D7FC4; fill-opacity:1.0000; stroke:none;fill-rule:evenodd;"
d="M 118.0500,131.9500
118.0500,121.9500
119.5500,121.9500
119.5500,131.9500
Z" /> 
<path style="fill:#4D7FC4; fill-opacity:1.0000; stroke:none;fill-rule:evenodd;"
d="M 120.5900,131.9500
120.5900,121.9500
122.0900,121.9500
122.0900,131.9500
Z" /> 
<path style="fill:#4D7FC4; fill-opacity:1.0000; stroke:none;fill-rule:evenodd;"
d="M 123.1300,131.9500
123.1300,121.9500
124.6300,121.9500
124.6300,131.9500
Z" /> 
<path style="fill:#4D7FC4; fill-opacity:1.0000; stroke:none;fill-rule:evenodd;"
d="M 125.6700,131.9500
125.6700,121.9500
127.1700,121.9500
127.1700,131.9500
Z" /> 
<path style="fill:#4D7FC4; fill-opacity:1.0000; stroke:none;fill-rule:evenodd;"
d="M 128.2100,131.9500
128.2100,121.9500
129.7100,121.9500
129.7100,131.9500
Z" /> 
<path style="fill:#4D7FC4; fill-opacity:1.0000; stroke:none;fill-rule:evenodd;"
d="M 130.7500,131.9500
130.7500,121.9500
132.2500,121.9500
132.2500,131.9500
Z" /> 
<path style="fill:#4D7FC4; fill-opacity:1.0000; stroke:none;fill-rule:evenodd;"
d="M 133.2900,131.9500
133.2900,121.9500
134.7900,121.9500
134.7900,131.9500
Z" /> 
<path style="fill:#4D7FC4; fill-opacity:1.0000; stroke:none;fill-rule:evenodd;"
d="M 135.8300,131.9500
135.8300,121.9500
137.3300,121.9500
137.3300,131.9500
Z" /> 
<path style="fill:#4D7FC4; fill-opacity:1.0000; stroke:none;fill-rule:evenodd;"
d="M 138.3700,131.9500
138.3700,121.9500
139.8700,121.9500
139.8700,131.9500
Z" /> 
<path style="fill:#4D7FC4; fill-opacity:1.0000; stroke:none;fill-rule:evenodd;"
d="M 140.9100,131.9500
140.9100,121.9500
142.4100,121.9500
142.4100,131.9500
Z" /> 
<path style="fill:#4D7FC4; fill-opacity:1.0000; stroke:none;fill-rule:evenodd;"
d="M 143.4500,131.9500
143.4500,121.9500
144.9500,121.9500
144.9500,131.9500
Z" /> 
<path style="fill:#4D7FC4; fill-opacity:1.0000; stroke:none;fill-rule:evenodd;"
d="M 145.9900,131.9500
145.9900,121.9500
147.4900,121.9500
147.4900,131.9500
Z" /> 
<path style="fill:#4D7FC4; fill-opacity:1.0000; stroke:none;fill-rule:evenodd;"
d="M 148.5300,131.9500
148.5300,121.9500
150.0300,121.9500
150.0300,131.9500
Z" /> 
<path style="fill:#4D7FC4; fill-opacity:1.0000; stroke:none;fill-rule:evenodd;"
d="M 151.0700,131.9500
151.0700,121.9500
152.5700,121.9500
152.5700,131.9500
Z" /> 
<path style="fill:#4D7FC4; fill-opacity:1.0000; stroke:none;fill-rule:evenodd;"
d="M 153.6100,131.9500
153.6100,121.9500
155.1100,121.9500
155.1100,131.9500
Z" /> 
<path style="fill:#4D7FC4; fill-opacity:1.0000; stroke:none;fill-rule:evenodd;"
d="M 156.1500,131.9500
156.1500,121.9500
157.6500,121.9500
157.6500,131.9500
Z" /> 
<path style="fill:#4D7FC4; fill-opacity:1.0000; stroke:none;fill-rule:evenodd;"
d="M 158.6900,131.9500
158.6900,121.9500
160.1900,121.9500
160.1900,131.9500
Z" /> 
<path style="fill:#4D7FC4; fill-opacity:1.0000; stroke:none;fill-rule:evenodd;"
d="M 161.2300,131.9500
161.2300,121.9500
162.7300,121.9500
162.7300,131.9500
Z" /> 
</g>
<g style="fill:#D864FF; fill-opacity:0.4000; stroke:none;">
<circle cx="42.0500" cy="103.3000" r="3.0000" /> 
<path style="fill:#D864FF; fill-opacity:0.4000; stroke:none;fill-rule:evenodd;"
d="M 161.2300,131.9500
161.2300,121.9500
162.7300,121.9500
162.7300,131.9500
Z" /> 
<path style="fill:#D864FF; fill-opacity:0.4000; stroke:none;fill-rule:evenodd;"
d="M 158.6900,131.9500
158.6900,121.9500
160.1900,121.9500
160.1900,131.9500
Z" /> 
<path style="fill:#D864FF; fill-opacity:0.4000; stroke:none;fill-rule:evenodd;"
d="M 156.1500,131.9500
156.1500,121.9500
157.6500,121.9500
157.6500,131.9500
Z" /> 
<path style="fill:#D864FF; fill-opacity:0.4000; stroke:none;fill-rule:evenodd;"
d="M 153.6100,131.9500
153.6100,121.9500
155.1100,121.9500
155.1100,131.9500
Z" /> 
<path style="fill:#D864FF; fill-opacity:0.4000; stroke:none;fill-rule:evenodd;"
d="M 151.0700,131.9500
151.0700,121.9500
152.5700,121.9500
152.5700,131.9500
Z" /> 
<path style="fill:#D864FF; fill-opacity:0.4000; stroke:none;fill-rule:evenodd;"
d="M 148.5300,131.9500
148.5300,121.9500
150.0300,121.9500
150.0300,131.9500
Z" /> 
<path style="fill:#D864FF; fill-opacity:0.4000; stroke:none;fill-rule:evenodd;"
d="M 145.9900,131.9500
145.9900,121.9500
147.4900,121.9500
147.4900,131.9500
Z" /> 
<path style="fill:#D864FF; fill-opacity:0.4000; stroke:none;fill-rule:evenodd;"
d="M 143.4500,131.9500
143.4500,121.9500
144.9500,121.9500
144.9500,131.9500
Z" /> 
<path style="fill:#D864FF; fill-opacity:0.4000; stroke:none;fill-rule:evenodd;"
d="M 140.9100,131.9500
140.9100,121.9500
142.4100,121.9500
142.4100,131.9500
Z" /> 
<path style="fill:#D864FF; fill-opacity:0.4000; stroke:none;fill-rule:evenodd;"
d="M 138.3700,131.9500
138.3700,121.9500
139.8700,121.9500
139.8700,131.9500
Z" /> 
<path style="fill:#D864FF; fill-opacity:0.4000; stroke:none;fill-rule:evenodd;"
d="M 135.8300,131.9500
135.8300,121.9500
137.3300,121.9500
137.3300,131.9500
Z" /> 
<path style="fill:#D864FF; fill-opacity:0.4000; stroke:none;fill-rule:evenodd;"
d="M 133.2900,131.9500
133.2900,121.9500
134.7900,121.9500
134.7900,131.9500
Z" /> 
<path style="fill:#D864FF; fill-opacity:0.4000; stroke:none;fill-rule:evenodd;"
d="M 130.7500,131.9500
130.7500,121.9500
132.2500,121.9500
132.2500,131.9500
Z" /> 
<path style="fill:#D864FF; fill-opacity:0.4000; stroke:none;fill-rule:evenodd;"
d="M 128.2100,131.9500
128.2100,121.9500
129.7100,121.9500
129.7100,131.9500
Z" /> 
<path style="fill:#D864FF; fill-opacity:0.4000; stroke:none;fill-rule:evenodd;"
d="M 125.6700,131.9500
125.6700,121.9500
127.1700,121.9500
127.1700,131.9500
Z" /> 
<path style="fill:#D864FF; fill-opacity:0.4000; stroke:none;fill-rule:evenodd;"
d="M 123.1300,131.9500
123.1300,121.9500
124.6300,121.9500
124.6300,131.9500
Z" /> 
<path style="fill:#D864FF; fill-opacity:0.4000; stroke:none;fill-rule:evenodd;"
d="M 120.5900,131.9500
120.5900,121.9500
122.0900,121.9500
122.0900,131.9500
Z" /> 
<path style="fill:#D864FF; fill-opacity:0.4000; stroke:none;fill-rule:evenodd;"
d="M 118.0500,131.9500
118.0500,121.9500
119.5500,121.9500
119.5500,131.9500
Z" /> 
<path style="fill:#D864FF; fill-opacity:0.4000; stroke:none;fill-rule:evenodd;"
d="M 115.5100,131.9500
115.5100,121.9500
117.0100,121.9500
117.0100,131.9500
Z" /> 
<path style="fill:#D864FF; fill-opacity:0.4000; stroke:none;fill-rule:evenodd;"
d="M 112.9700,131.9500
112.9700,121.9500
114.4700,121.9500
114.4700,131.9500
Z" /> 
<path style="fill:#D864FF; fill-opacity:0.4000; stroke:none;fill-rule:evenodd;"
d="M 110.4300,131.9500
110.4300,121.9500
111.9300,121.9500
111.9300,131.9500
Z" /> 
<path style="fill:#D864FF; fill-opacity:0.4000; stroke:none;fill-rule:evenodd;"
d="M 107.8900,131.9500
107.8900,121.9500
109.3900,121.9500
109.3900,131.9500
Z" /> 
<path style="fill:#D864FF; fill-opacity:0.4000; stroke:none;fill-rule:evenodd;"
d="M 105.3500,131.9500
105.3500,121.9500
106.8500,121.9500
106.8500,131.9500
Z" /> 
<path style="fill:#D864FF; fill-opacity:0.4000; stroke:none;fill-rule:evenodd;"
d="M 102.8100,131.9500
102.8100,121.9500
104.3100,121.9500
104.3100,131.9500
Z" /> 
<path style="fill:#D864FF; fill-opacity:0.4000; stroke:none;fill-rule:evenodd;"
d="M 100.2700,131.9500
100.2700,121.9500
101.7700,121.9500
101.7700,131.9500
Z" /> 
<path style="fill:#D864FF; fill-opacity:0.4000; stroke:none;fill-rule:evenodd;"
d="M 97.7300,131.9500
97.7300,121.9500
99.2300,121.9500
99.2300,131.9500
Z" /> 
<path style="fill:#D864FF; fill-opacity:0.4000; stroke:none;fill-rule:evenodd;"
d="M 95.1900,131.9500
95.1900,121.9500
96.6900,121.9500
96.6900,131.9500
Z" /> 
<path style="fill:#D864FF; fill-opacity:0.4000; stroke:none;fill-rule:evenodd;"
d="M 92.6500,131.9500
92.6500,121.9500
94.1500,121.9500
94.1500,131.9500
Z" /> 
<path style="fill:#D864FF; fill-opacity:0.4000; stroke:none;fill-rule:evenodd;"
d="M 90.1100,131.9500
90.1100,121.9500
91.6100,121.9500
91.6100,131.9500
Z" /> 
<path style="fill:#D864FF; fill-opacity:0.4000; stroke:none;fill-rule:evenodd;"
d="M 87.5700,131.9500
87.5700,121.9500
89.0700,121.9500
89.0700,131.9500
Z" /> 
<path style="fill:#D864FF; fill-opacity:0.4000; stroke:none;fill-rule:evenodd;"
d="M 85.0300,131.9500
85.0300,121.9500
86.5300,121.9500
86.5300,131.9500
Z" /> 
<path style="fill:#D864FF; fill-opacity:0.4000; stroke:none;fill-rule:evenodd;"
d="M 82.4900,131.9500
82.4900,121.9500
83.9900,121.9500
83.9900,131.9500
Z" /> 
<path style="fill:#D864FF; fill-opacity:0.4000; stroke:none;fill-rule:evenodd;"
d="M 79.9500,131.9500
79.9500,121.9500
81.4500,121.9500
81.4500,131.9500
Z" /> 
<path style="fill:#D864FF; fill-opacity:0.4000; stroke:none;fill-rule:evenodd;"
d="M 77.4100,131.9500
77.4100,121.9500
78.9100,121.9500
78.9100,131.9500
Z" /> 
<path style="fill:#D864FF; fill-opacity:0.4000; stroke:none;fill-rule:evenodd;"
d="M 74.8700,131.9500
74.8700,121.9500
76.3700,121.9500
76.3700,131.9500
Z" /> 
<path style="fill:#D864FF; fill-opacity:0.4000; stroke:none;fill-rule:evenodd;"
d="M 72.3300,131.9500
72.3300,121.9500
73.8300,121.9500
73.8300,131.9500
Z" /> 
<path style="fill:#D864FF; fill-opacity:0.4000; stroke:none;fill-rule:evenodd;"
d="M 69.7900,131.9500
69.7900,121.9500
71.2900,121.9500
71.2900,131.9500
Z" /> 
<path style="fill:#D864FF; fill-opacity:0.4000; stroke:none;fill-rule:evenodd;"
d="M 67.2500,131.9500
67.2500,121.9500
68.7500,121.9500
68.7500,131.9500
Z" /> 
<path style="fill:#D864FF; fill-opacity:0.4000; stroke:none;fill-rule:evenodd;"
d="M 64.7100,131.9500
64.7100,121.9500
66.2100,121.9500
66.2100,131.9500
Z" /> 
<path style="fill:#D864FF; fill-opacity:0.4000; stroke:none;fill-rule:evenodd;"
d="M 62.1700,131.9500
62.1700,121.9500
63.6700,121.9500
63.6700,131.9500
Z" /> 
<path style="fill:#D864FF; fill-opacity:0.4000; stroke:none;fill-rule:evenodd;"
d="M 59.6300,131.9500
59.6300,121.9500
61.1300,121.9500
61.1300,131.9500
Z" /> 
<path style="fill:#D864FF; fill-opacity:0.4000; stroke:none;fill-rule:evenodd;"
d="M 57.0900,131.9500
57.0900,121.9500
58.5900,121.9500
58.5900,131.9500
Z" /> 
<path style="fill:#D864FF; fill-opacity:0.4000; stroke:none;fill-rule:evenodd;"
d="M 54.5500,131.9500
54.5500,121.9500
56.0500,121.9500
56.0500,131.9500
Z" /> 
<path style="fill:#D864FF; fill-opacity:0.4000; stroke:none;fill-rule:evenodd;"
d="M 52.0100,131.9500
52.0100,121.9500
53.5100,121.9500
53.5100,131.9500
Z" /> 
<path style="fill:#D864FF; fill-opacity:0.4000; stroke:none;fill-rule:evenodd;"
d="M 49.4700,131.9500
49.4700,121.9500
50.9700,121.9500
50.9700,131.9500
Z" /> 
<path style="fill:#D864FF; fill-opacity:0.4000; stroke:none;fill-rule:evenodd;"
d="M 46.9300,131.9500
46.9300,121.9500
48.4300,121.9500
48.4300,131.9500
Z" /> 
<path style="fill:#D864FF; fill-opacity:0.4000; stroke:none;fill-rule:evenodd;"
d="M 44.3900,131.9500
44.3900,121.9500
45.8900,121.9500
45.8900,131.9500
Z" /> 
<path style="fill:#D864FF; fill-opacity:0.4000; stroke:none;fill-rule:evenodd;"
d="M 41.8500,131.9500
41.8500,121.9500
43.3500,121.9500
43.3500,131.9500
Z" /> 
<path style="fill:#D864FF; fill-opacity:0.4000; stroke:none;fill-rule:evenodd;"
d="M 39.3100,131.9500
39.3100,121.9500
40.8100,121.9500
40.8100,131.9500
Z" /> 
<path style="fill:#D864FF; fill-opacity:0.4000; stroke:none;fill-rule:evenodd;"
d="M 36.7700,131.9500
36.7700,121.9500
38.2700,121.9500
38.2700,131.9500
Z" /> 
<path style="fill:#D864FF; fill-opacity:0.4000; stroke:none;fill-rule:evenodd;"
d="M 34.2300,131.9500
34.2300,121.9500
35.7300,121.9500
35.7300,131.9500
Z" /> 
<path style="fill:#D864FF; fill-opacity:0.4000; stroke:none;fill-rule:evenodd;"
d="M 31.6900,131.9500
31.6900,121.9500
33.1900,121.9500
33.1900,131.9500
Z" /> 
<path style="fill:#D864FF; fill-opacity:0.4000; stroke:none;fill-rule:evenodd;"
d="M 29.1500,131.9500
29.1500,121.9500
30.6500,121.9500
30.6500,131.9500
Z" /> 
<path style="fill:#D864FF; fill-opacity:0.4000; stroke:none;fill-rule:evenodd;"
d="M 26.6100,131.9500
26.6100,121.9500
28.1100,121.9500
28.1100,131.9500
Z" /> 
<path style="fill:#D864FF; fill-opacity:0.4000; stroke:none;fill-rule:evenodd;"
d="M 24.0700,131.9500
24.0700,121.9500
25.5700,121.9500
25.5700,131.9500
Z" /> 
<path style="fill:#D864FF; fill-opacity:0.4000; stroke:none;fill-rule:evenodd;"
d="M 21.5300,131.9500
21.5300,121.9500
23.0300,121.9500
23.0300,131.9500
Z" /> 
<path style="fill:#D864FF; fill-opacity:0.4000; stroke:none;fill-rule:evenodd;"
d="M 18.9900,131.9500
18.9900,121.9500
20.4900,121.9500
20.4900,131.9500
Z" /> 
<path style="fill:#D864FF; fill-opacity:0.4000; stroke:none;fill-rule:evenodd;"
d="M 16.4500,131.9500
16.4500,121.9500
17.9500,121.9500
17.9500,131.9500
Z" /> 
<path style="fill:#D864FF; fill-opacity:0.4000; stroke:none;fill-rule:evenodd;"
d="M 13.9100,131.9500
13.9100,121.9500
15.4100,121.9500
15.4100,131.9500
Z" /> 
<path style="fill:#D864FF; fill-opacity:0.4000; stroke:none;fill-rule:evenodd;"
d="M 11.3700,131.9500
11.3700,121.9500
12.8700,121.9500
12.8700,131.9500
Z" /> 
</g>
<g style="fill:#D864FF; fill-opacity:0.4000; stroke:none;">
<circle cx="132.0500" cy="103.3000" r="3.0000" /> 
</g>
<g style="fill:#02FFEE; fill-opacity:0.4000; stroke:none;">
<circle cx="42.0500" cy="103.3000" r="3.0000" /> 
</g>
<g style="fill:#02FFEE; fill-opacity:0.4000; stroke:none;">
<circle cx="132.0500" cy="103.3000" r="3.0000" /> 
<path style="fill:#02FFEE; fill-opacity:0.4000; stroke:none;fill-rule:evenodd;"
d="M 11.3700,131.9500
11.3700,121.9500
12.8700,121.9500
12.8700,131.9500
Z" /> 
<path style="fill:#02FFEE; fill-opacity:0.4000; stroke:none;fill-rule:evenodd;"
d="M 13.9100,131.9500
13.9100,121.9500
15.4100,121.9500
15.4100,131.9500
Z" /> 
<path style="fill:#02FFEE; fill-opacity:0.4000; stroke:none;fill-rule:evenodd;"
d="M 16.4500,131.9500
16.4500,121.9500
17.9500,121.9500
17.9500,131.9500
Z" /> 
<path style="fill:#02FFEE; fill-opacity:0.4000; stroke:none;fill-rule:evenodd;"
d="M 18.9900,131.9500
18.9900,121.9500
20.4900,121.9500
20.4900,131.9500
Z" /> 
<path style="fill:#02FFEE; fill-opacity:0.4000; stroke:none;fill-rule:evenodd;"
d="M 21.5300,131.9500
21.5300,121.9500
23.0300,121.9500
23.0300,131.9500
Z" /> 
<path style="fill:#02FFEE; fill-opacity:0.4000; stroke:none;fill-rule:evenodd;"
d="M 24.0700,131.9500
24.0700,121.9500
25.5700,121.9500
25.5700,131.9500
Z" /> 
<path style="fill:#02FFEE; fill-opacity:0.4000; stroke:none;fill-rule:evenodd;"
d="M 26.6100,131.9500
26.6100,121.9500
28.1100,121.9500
28.1100,131.9500
Z" /> 
<path style="fill:#02FFEE; fill-opacity:0.4000; stroke:none;fill-rule:evenodd;"
d="M 29.1500,131.9500
29.1500,121.9500
30.6500,121.9500
30.6500,131.9500
Z" /> 
<path style="fill:#02FFEE; fill-opacity:0.4000; stroke:none;fill-rule:evenodd;"
d="M 31.6900,131.9500
31.6900,121.9500
33.1900,121.9500
33.1900,131.9500
Z" /> 
<path style="fill:#02FFEE; fill-opacity:0.4000; stroke:none;fill-rule:evenodd;"
d="M 34.2300,131.9500
34.2300,121.9500
35.7300,121.9500
35.7300,131.9500
Z" /> 
<path style="fill:#02FFEE; fill-opacity:0.4000; stroke:none;fill-rule:evenodd;"
d="M 36.7700,131.9500
36.7700,121.9500
38.2700,121.9500
38.2700,131.9500
Z" /> 
<path style="fill:#02FFEE; fill-opacity:0.4000; stroke:none;fill-rule:evenodd;"
d="M 39.3100,131.9500
39.3100,121.9500
40.8100,121.9500
40.8100,131.9500
Z" /> 
<path style="fill:#02FFEE; fill-opacity:0.4000; stroke:none;fill-rule:evenodd;"
d="M 41.8500,131.9500
41.8500,121.9500
43.3500,121.9500
43.3500,131.9500
Z" /> 
<path style="fill:#02FFEE; fill-opacity:0.4000; stroke:none;fill-rule:evenodd;"
d="M 44.3900,131.9500
44.3900,121.9500
45.8900,121.9500
45.8900,131.9500
Z" /> 
<path style="fill:#02FFEE; fill-opacity:0.4000; stroke:none;fill-rule:evenodd;"
d="M 46.9300,131.9500
46.9300,121.9500
48.4300,121.9500
48.4300,131.9500
Z" /> 
<path style="fill:#02FFEE; fill-opacity:0.4000; stroke:none;fill-rule:evenodd;"
d="M 49.4700,131.9500
49.4700,121.9500
50.9700,121.9500
50.9700,131.9500
Z" /> 
<path style="fill:#02FFEE; fill-opacity:0.4000; stroke:none;fill-rule:evenodd;"
d="M 52.0100,131.9500
52.0100,121.9500
53.5100,121.9500
53.5100,131.9500
Z" /> 
<path style="fill:#02FFEE; fill-opacity:0.4000; stroke:none;fill-rule:evenodd;"
d="M 54.5500,131.9500
54.5500,121.9500
56.0500,121.9500
56.0500,131.9500
Z" /> 
<path style="fill:#02FFEE; fill-opacity:0.4000; stroke:none;fill-rule:evenodd;"
d="M 57.0900,131.9500
57.0900,121.9500
58.5900,121.9500
58.5900,131.9500
Z" /> 
<path style="fill:#02FFEE; fill-opacity:0.4000; stroke:none;fill-rule:evenodd;"
d="M 59.6300,131.9500
59.6300,121.9500
61.1300,121.9500
61.1300,131.9500
Z" /> 
<path style="fill:#02FFEE; fill-opacity:0.4000; stroke:none;fill-rule:evenodd;"
d="M 62.1700,131.9500
62.1700,121.9500
63.6700,121.9500
63.6700,131.9500
Z" /> 
<path style="fill:#02FFEE; fill-opacity:0.4000; stroke:none;fill-rule:evenodd;"
d="M 64.7100,131.9500
64.7100,121.9500
66.2100,121.9500
66.2100,131.9500
Z" /> 
<path style="fill:#02FFEE; fill-opacity:0.4000; stroke:none;fill-rule:evenodd;"
d="M 67.2500,131.9500
67.2500,121.9500
68.7500,121.9500
68.7500,131.9500
Z" /> 
<path style="fill:#02FFEE; fill-opacity:0.4000; stroke:none;fill-rule:evenodd;"
d="M 69.7900,131.9500
69.7900,121.9500
71.2900,121.9500
71.2900,131.9500
Z" /> 
<path style="fill:#02FFEE; fill-opacity:0.4000; stroke:none;fill-rule:evenodd;"
d="M 72.3300,131.9500
72.3300,121.9500
73.8300,121.9500
73.8300,131.9500
Z" /> 
<path style="fill:#02FFEE; fill-opacity:0.4000; stroke:none;fill-rule:evenodd;"
d="M 74.8700,131.9500
74.8700,121.9500
76.3700,121.9500
76.3700,131.9500
Z" /> 
<path style="fill:#02FFEE; fill-opacity:0.4000; stroke:none;fill-rule:evenodd;"
d="M 77.4100,131.9500
77.4100,121.9500
78.9100,121.9500
78.9100,131.9500
Z" /> 
<path style="fill:#02FFEE; fill-opacity:0.4000; stroke:none;fill-rule:evenodd;"
d="M 79.9500,131.9500
79.9500,121.9500
81.4500,121.9500
81.4500,131.9500
Z" /> 
<path style="fill:#02FFEE; fill-opacity:0.4000; stroke:none;fill-rule:evenodd;"
d="M 82.4900,131.9500
82.4900,121.9500
83.9900,121.9500
83.9900,131.9500
Z" /> 
<path style="fill:#02FFEE; fill-opacity:0.4000; stroke:none;fill-rule:evenodd;"
d="M 85.0300,131.9500
85.0300,121.9500
86.5300,121.9500
86.5300,131.9500
Z" /> 
<path style="fill:#02FFEE; fill-opacity:0.4000; stroke:none;fill-rule:evenodd;"
d="M 87.5700,131.9500
87.5700,121.9500
89.0700,121.9500
89.0700,131.9500
Z" /> 
<path style="fill:#02FFEE; fill-opacity:0.4000; stroke:none;fill-rule:evenodd;"
d="M 90.1100,131.9500
90.1100,121.9500
91.6100,121.9500
91.6100,131.9500
Z" /> 
<path style="fill:#02FFEE; fill-opacity:0.4000; stroke:none;fill-rule:evenodd;"
d="M 92.6500,131.9500
92.6500,121.9500
94.1500,121.9500
94.1500,131.9500
Z" /> 
<path style="fill:#02FFEE; fill-opacity:0.4000; stroke:none;fill-rule:evenodd;"
d="M 95.1900,131.9500
95.1900,121.9500
96.6900,121.9500
96.6900,131.9500
Z" /> 
<path style="fill:#02FFEE; fill-opacity:0.4000; stroke:none;fill-rule:evenodd;"
d="M 97.7300,131.9500
97.7300,121.9500
99.2300,121.9500
99.2300,131.9500
Z" /> 
<path style="fill:#02FFEE; fill-opacity:0.4000; stroke:none;fill-rule:evenodd;"
d="M 100.2700,131.9500
100.2700,121.9500
101.7700,121.9500
101.7700,131.9500
Z" /> 
<path style="fill:#02FFEE; fill-opacity:0.4000; stroke:none;fill-rule:evenodd;"
d="M 102.8100,131.9500
102.8100,121.9500
104.3100,121.9500
104.3100,131.9500
Z" /> 
<path style="fill:#02FFEE; fill-opacity:0.4000; stroke:none;fill-rule:evenodd;"
d="M 105.3500,131.9500
105.3500,121.9500
106.8500,121.9500
106.8500,131.9500
Z" /> 
<path style="fill:#02FFEE; fill-opacity:0.4000; stroke:none;fill-rule:evenodd;"
d="M 107.8900,131.9500
107.8900,121.9500
109.3900,121.9500
109.3900,131.9500
Z" /> 
<path style="fill:#02FFEE; fill-opacity:0.4000; stroke:none;fill-rule:evenodd;"
d="M 110.4300,131.9500
110.4300,121.9500
111.9300,121.9500
111.9300,131.9500
Z" /> 
<path style="fill:#02FFEE; fill-opacity:0.4000; stroke:none;fill-rule:evenodd;"
d="M 112.9700,131.9500
112.9700,121.9500
114.4700,121.9500
114.4700,131.9500
Z" /> 
<path style="fill:#02FFEE; fill-opacity:0.4000; stroke:none;fill-rule:evenodd;"
d="M 115.5100,131.9500
115.5100,121.9500
117.0100,121.9500
117.0100,131.9500
Z" /> 
<path style="fill:#02FFEE; fill-opacity:0.4000; stroke:none;fill-rule:evenodd;"
d="M 118.0500,131.9500
118.0500,121.9500
119.5500,121.9500
119.5500,131.9500
Z" /> 
<path style="fill:#02FFEE; fill-opacity:0.4000; stroke:none;fill-rule:evenodd;"
d="M 120.5900,131.9500
120.5900,121.9500
122.0900,121.9500
122.0900,131.9500
Z" /> 
<path style="fill:#02FFEE; fill-opacity:0.4000; stroke:none;fill-rule:evenodd;"
d="M 123.1300,131.9500
123.1300,121.9500
124.6300,121.9500
124.6300,131.9500
Z" /> 
<path style="fill:#02FFEE; fill-opacity:0.4000; stroke:none;fill-rule:evenodd;"
d="M 125.6700,131.9500
125.6700,121.9500
127.1700,121.9500
127.1700,131.9500
Z" /> 
<path style="fill:#02FFEE; fill-opacity:0.4000; stroke:none;fill-rule:evenodd;"
d="M 128.2100,131.9500
128.2100,121.9500
129.7100,121.9500
129.7100,131.9500
Z" /> 
<path style="fill:#02FFEE; fill-opacity:0.4000; stroke:none;fill-rule:evenodd;"
d="M 130.7500,131.9500
130.7500,121.9500
132.2500,121.9500
132.2500,131.9500
Z" /> 
<path style="fill:#02FFEE; fill-opacity:0.4000; stroke:none;fill-rule:evenodd;"
d="M 133.2900,131.9500
133.2900,121.9500
134.7900,121.9500
134.7900,131.9500
Z" /> 
<path style="fill:#02FFEE; fill-opacity:0.4000; stroke:none;fill-rule:evenodd;"
d="M 135.8300,131.9500
135.8300,121.9500
137.3300,121.9500
137.3300,131.9500
Z" /> 
<path style="fill:#02FFEE; fill-opacity:0.4000; stroke:none;fill-rule:evenodd;"
d="M 138.3700,131.9500
138.3700,121.9500
139.8700,121.9500
139.8700,131.9500
Z" /> 
<path style="fill:#02FFEE; fill-opacity:0.4000; stroke:none;fill-rule:evenodd;"
d="M 140.9100,131.9500
140.9100,121.9500
142.4100,121.9500
142.4100,131.9500
Z" /> 
<path style="fill:#02FFEE; fill-opacity:0.4000; stroke:none;fill-rule:evenodd;"
d="M 143.4500,131.9500
143.4500,121.9500
144.9500,121.9500
144.9500,131.9500
Z" /> 
<path style="fill:#02FFEE; fill-opacity:0.4000; stroke:none;fill-rule:evenodd;"
d="M 145.9900,131.9500
145.9900,121.9500
147.4900,121.9500
147.4900,131.9500
Z" /> 
<path style="fill:#02FFEE; fill-opacity:0.4000; stroke:none;fill-rule:evenodd;"
d="M 148.5300,131.9500
148.5300,121.9500
150.0300,121.9500
150.0300,131.9500
Z" /> 
<path style="fill:#02FFEE; fill-opacity:0.4000; stroke:none;fill-rule:evenodd;"
d="M 151.0700,131.9500
151.0700,121.9500
152.5700,121.9500
152.5700,131.9500
Z" /> 
<path style="fill:#02FFEE; fill-opacity:0.4000; stroke:none;fill-rule:evenodd;"
d="M 153.6100,131.9500
153.6100,121.9500
155.1100,121.9500
155.1100,131.9500
Z" /> 
<path style="fill:#02FFEE; fill-opacity:0.4000; stroke:none;fill-rule:evenodd;"
d="M 156.1500,131.9500
156.1500,121.9500
157.6500,121.9500
157.6500,131.9500
Z" /> 
<path style="fill:#02FFEE; fill-opacity:0.4000; stroke:none;fill-rule:evenodd;"
d="M 158.6900,131.9500
158.6900,121.9500
160.1900,121.9500
160.1900,131.9500
Z" /> 
<path style="fill:#02FFEE; fill-opacity:0.4000; stroke:none;fill-rule:evenodd;"
d="M 161.2300,131.9500
161.2300,121.9500
162.7300,121.9500
162.7300,131.9500
Z" /> 
</g>
<g style="fill:none; 
stroke:#F2EDA1; stroke-width:0.1000; stroke-opacity:1; 
stroke-linecap:round; stroke-linejoin:round;">
<text x="12.1200" y="119.7000"
textLength="2.3495" font-size="1.0667" lengthAdjust="spacingAndGlyphs"
text-anchor="middle" opacity="0" stroke-opacity="0">A60</text>
<g class="stroked-text"><desc>A60</desc>
<path d="M11.1676 119.4363
L11.5486 119.4363
" />
<path d="M11.0914 119.6649
L11.3581 118.8649
" />
<path d="M11.3581 118.8649
L11.6248 119.6649
" />
<path d="M12.2343 118.8649
L12.0819 118.8649
" />
<path d="M12.0819 118.8649
L12.0057 118.9030
" />
<path d="M12.0057 118.9030
L11.9676 118.9411
" />
<path d="M11.9676 118.9411
L11.8914 119.0554
" />
<path d="M11.8914 119.0554
L11.8533 119.2078
" />
<path d="M11.8533 119.2078
L11.8533 119.5125
" />
<path d="M11.8533 119.5125
L11.8914 119.5887
" />
<path d="M11.8914 119.5887
L11.9295 119.6268
" />
<path d="M11.9295 119.6268
L12.0057 119.6649
" />
<path d="M12.0057 119.6649
L12.1581 119.6649
" />
<path d="M12.1581 119.6649
L12.2343 119.6268
" />
<path d="M12.2343 119.6268
L12.2724 119.5887
" />
<path d="M12.2724 119.5887
L12.3105 119.5125
" />
<path d="M12.3105 119.5125
L12.3105 119.3220
" />
<path d="M12.3105 119.3220
L12.2724 119.2458
" />
<path d="M12.2724 119.2458
L12.2343 119.2078
" />
<path d="M12.2343 119.2078
L12.1581 119.1697
" />
<path d="M12.1581 119.1697
L12.0057 119.1697
" />
<path d="M12.0057 119.1697
L11.9295 119.2078
" />
<path d="M11.9295 119.2078
L11.8914 119.2458
" />
<path d="M11.8914 119.2458
L11.8533 119.3220
" />
<path d="M12.8057 118.8649
L12.8819 118.8649
" />
<path d="M12.8819 118.8649
L12.9581 118.9030
" />
<path d="M12.9581 118.9030
L12.9962 118.9411
" />
<path d="M12.9962 118.9411
L13.0343 119.0173
" />
<path d="M13.0343 119.0173
L13.0724 119.1697
" />
<path d="M13.0724 119.1697
L13.0724 119.3601
" />
<path d="M13.0724 119.3601
L13.0343 119.5125
" />
<path d="M13.0343 119.5125
L12.9962 119.5887
" />
<path d="M12.9962 119.5887
L12.9581 119.6268
" />
<path d="M12.9581 119.6268
L12.8819 119.6649
" />
<path d="M12.8819 119.6649
L12.8057 119.6649
" />
<path d="M12.8057 119.6649
L12.7295 119.6268
" />
<path d="M12.7295 119.6268
L12.6914 119.5887
" />
<path d="M12.6914 119.5887
L12.6533 119.5125
" />
<path d="M12.6533 119.5125
L12.6152 119.3601
" />
<path d="M12.6152 119.3601
L12.6152 119.1697
" />
<path d="M12.6152 119.1697
L12.6533 119.0173
" />
<path d="M12.6533 119.0173
L12.6914 118.9411
" />
<path d="M12.6914 118.9411
L12.7295 118.9030
" />
<path d="M12.7295 118.9030
L12.8057 118.8649
" />
</g><text x="161.9800" y="119.7000"
textLength="1.5876" font-size="1.0667" lengthAdjust="spacingAndGlyphs"
text-anchor="middle" opacity="0" stroke-opacity="0">A1</text>
<g class="stroked-text"><desc>A1</desc>
<path d="M161.4086 119.4363
L161.7895 119.4363
" />
<path d="M161.3324 119.6649
L161.5990 118.8649
" />
<path d="M161.5990 118.8649
L161.8657 119.6649
" />
<path d="M162.5514 119.6649
L162.0943 119.6649
" />
<path d="M162.3229 119.6649
L162.3229 118.8649
" />
<path d="M162.3229 118.8649
L162.2467 118.9792
" />
<path d="M162.2467 118.9792
L162.1705 119.0554
" />
<path d="M162.1705 119.0554
L162.0943 119.0935
" />
</g></g>
<g style="fill:none; 
stroke:#F2EDA1; stroke-width:0.1500; stroke-opacity:1; 
stroke-linecap:round; stroke-linejoin:round;">
<text x="87.0500" y="55.0500"
textLength="37.8643" font-size="2.0000" lengthAdjust="spacingAndGlyphs"
text-anchor="middle" opacity="0" stroke-opacity="0">NeoScanSDK — MVS Slot Fit Test</text>
<g class="stroked-text"><desc>NeoScanSDK — MVS Slot Fit Test</desc>
<path d="M68.5500 54.9861
L68.5500 53.4861
" />
<path d="M68.5500 53.4861
L69.4071 54.9861
" />
<path d="M69.4071 54.9861
L69.4071 53.4861
" />
<path d="M70.6929 54.9147
L70.5500 54.9861
" />
<path d="M70.5500 54.9861
L70.2643 54.9861
" />
<path d="M70.2643 54.9861
L70.1214 54.9147
" />
<path d="M70.1214 54.9147
L70.0500 54.7718
" />
<path d="M70.0500 54.7718
L70.0500 54.2004
" />
<path d="M70.0500 54.2004
L70.1214 54.0576
" />
<path d="M70.1214 54.0576
L70.2643 53.9861
" />
<path d="M70.2643 53.9861
L70.5500 53.9861
" />
<path d="M70.5500 53.9861
L70.6929 54.0576
" />
<path d="M70.6929 54.0576
L70.7643 54.2004
" />
<path d="M70.7643 54.2004
L70.7643 54.3433
" />
<path d="M70.7643 54.3433
L70.0500 54.4861
" />
<path d="M71.6214 54.9861
L71.4786 54.9147
" />
<path d="M71.4786 54.9147
L71.4071 54.8433
" />
<path d="M71.4071 54.8433
L71.3357 54.7004
" />
<path d="M71.3357 54.7004
L71.3357 54.2718
" />
<path d="M71.3357 54.2718
L71.4071 54.1290
" />
<path d="M71.4071 54.1290
L71.4786 54.0576
" />
<path d="M71.4786 54.0576
L71.6214 53.9861
" />
<path d="M71.6214 53.9861
L71.8357 53.9861
" />
<path d="M71.8357 53.9861
L71.9786 54.0576
" />
<path d="M71.9786 54.0576
L72.0500 54.1290
" />
<path d="M72.0500 54.1290
L72.1214 54.2718
" />
<path d="M72.1214 54.2718
L72.1214 54.7004
" />
<path d="M72.1214 54.7004
L72.0500 54.8433
" />
<path d="M72.0500 54.8433
L71.9786 54.9147
" />
<path d="M71.9786 54.9147
L71.8357 54.9861
" />
<path d="M71.8357 54.9861
L71.6214 54.9861
" />
<path d="M72.6929 54.9147
L72.9071 54.9861
" />
<path d="M72.9071 54.9861
L73.2643 54.9861
" />
<path d="M73.2643 54.9861
L73.4071 54.9147
" />
<path d="M73.4071 54.9147
L73.4786 54.8433
" />
<path d="M73.4786 54.8433
L73.5500 54.7004
" />
<path d="M73.5500 54.7004
L73.5500 54.5576
" />
<path d="M73.5500 54.5576
L73.4786 54.4147
" />
<path d="M73.4786 54.4147
L73.4071 54.3433
" />
<path d="M73.4071 54.3433
L73.2643 54.2718
" />
<path d="M73.2643 54.2718
L72.9786 54.2004
" />
<path d="M72.9786 54.2004
L72.8357 54.1290
" />
<path d="M72.8357 54.1290
L72.7643 54.0576
" />
<path d="M72.7643 54.0576
L72.6929 53.9147
" />
<path d="M72.6929 53.9147
L72.6929 53.7718
" />
<path d="M72.6929 53.7718
L72.7643 53.6290
" />
<path d="M72.7643 53.6290
L72.8357 53.5576
" />
<path d="M72.8357 53.5576
L72.9786 53.4861
" />
<path d="M72.9786 53.4861
L73.3357 53.4861
" />
<path d="M73.3357 53.4861
L73.5500 53.5576
" />
<path d="M74.8357 54.9147
L74.6929 54.9861
" />
<path d="M74.6929 54.9861
L74.4071 54.9861
" />
<path d="M74.4071 54.9861
L74.2643 54.9147
" />
<path d="M74.2643 54.9147
L74.1929 54.8433
" />
<path d="M74.1929 54.8433
L74.1214 54.7004
" />
<path d="M74.1214 54.7004
L74.1214 54.2718
" />
<path d="M74.1214 54.2718
L74.1929 54.1290
" />
<path d="M74.1929 54.1290
L74.2643 54.0576
" />
<path d="M74.2643 54.0576
L74.4071 53.9861
" />
<path d="M74.4071 53.9861
L74.6929 53.9861
" />
<path d="M74.6929 53.9861
L74.8357 54.0576
" />
<path d="M76.1214 54.9861
L76.1214 54.2004
" />
<path d="M76.1214 54.2004
L76.0500 54.0576
" />
<path d="M76.0500 54.0576
L75.9071 53.9861
" />
<path d="M75.9071 53.9861
L75.6214 53.9861
" />
<path d="M75.6214 53.9861
L75.4786 54.0576
" />
<path d="M76.1214 54.9147
L75.9786 54.9861
" />
<path d="M75.9786 54.9861
L75.6214 54.9861
" />
<path d="M75.6214 54.9861
L75.4786 54.9147
" />
<path d="M75.4786 54.9147
L75.4071 54.7718
" />
<path d="M75.4071 54.7718
L75.4071 54.6290
" />
<path d="M75.4071 54.6290
L75.4786 54.4861
" />
<path d="M75.4786 54.4861
L75.6214 54.4147
" />
<path d="M75.6214 54.4147
L75.9786 54.4147
" />
<path d="M75.9786 54.4147
L76.1214 54.3433
" />
<path d="M76.8357 53.9861
L76.8357 54.9861
" />
<path d="M76.8357 54.1290
L76.9071 54.0576
" />
<path d="M76.9071 54.0576
L77.0500 53.9861
" />
<path d="M77.0500 53.9861
L77.2643 53.9861
" />
<path d="M77.2643 53.9861
L77.4071 54.0576
" />
<path d="M77.4071 54.0576
L77.4786 54.2004
" />
<path d="M77.4786 54.2004
L77.4786 54.9861
" />
<path d="M78.1214 54.9147
L78.3357 54.9861
" />
<path d="M78.3357 54.9861
L78.6929 54.9861
" />
<path d="M78.6929 54.9861
L78.8357 54.9147
" />
<path d="M78.8357 54.9147
L78.9071 54.8433
" />
<path d="M78.9071 54.8433
L78.9786 54.7004
" />
<path d="M78.9786 54.7004
L78.9786 54.5576
" />
<path d="M78.9786 54.5576
L78.9071 54.4147
" />
<path d="M78.9071 54.4147
L78.8357 54.3433
" />
<path d="M78.8357 54.3433
L78.6929 54.2718
" />
<path d="M78.6929 54.2718
L78.4071 54.2004
" />
<path d="M78.4071 54.2004
L78.2643 54.1290
" />
<path d="M78.2643 54.1290
L78.1929 54.0576
" />
<path d="M78.1929 54.0576
L78.1214 53.9147
" />
<path d="M78.1214 53.9147
L78.1214 53.7718
" />
<path d="M78.1214 53.7718
L78.1929 53.6290
" />
<path d="M78.1929 53.6290
L78.2643 53.5576
" />
<path d="M78.2643 53.5576
L78.4071 53.4861
" />
<path d="M78.4071 53.4861
L78.7643 53.4861
" />
<path d="M78.7643 53.4861
L78.9786 53.5576
" />
<path d="M79.6214 54.9861
L79.6214 53.4861
" />
<path d="M79.6214 53.4861
L79.9786 53.4861
" />
<path d="M79.9786 53.4861
L80.1929 53.5576
" />
<path d="M80.1929 53.5576
L80.3357 53.7004
" />
<path d="M80.3357 53.7004
L80.4071 53.8433
" />
<path d="M80.4071 53.8433
L80.4786 54.1290
" />
<path d="M80.4786 54.1290
L80.4786 54.3433
" />
<path d="M80.4786 54.3433
L80.4071 54.6290
" />
<path d="M80.4071 54.6290
L80.3357 54.7718
" />
<path d="M80.3357 54.7718
L80.1929 54.9147
" />
<path d="M80.1929 54.9147
L79.9786 54.9861
" />
<path d="M79.9786 54.9861
L79.6214 54.9861
" />
<path d="M81.1214 54.9861
L81.1214 53.4861
" />
<path d="M81.9786 54.9861
L81.3357 54.1290
" />
<path d="M81.9786 53.4861
L81.1214 54.3433
" />
<path d="M83.6214 54.4861
L84.9071 54.4861
" />
<path d="M86.6214 54.9861
L86.6214 53.4861
" />
<path d="M86.6214 53.4861
L87.1214 54.5576
" />
<path d="M87.1214 54.5576
L87.6214 53.4861
" />
<path d="M87.6214 53.4861
L87.6214 54.9861
" />
<path d="M88.1214 53.4861
L88.6214 54.9861
" />
<path d="M88.6214 54.9861
L89.1214 53.4861
" />
<path d="M89.5500 54.9147
L89.7643 54.9861
" />
<path d="M89.7643 54.9861
L90.1214 54.9861
" />
<path d="M90.1214 54.9861
L90.2643 54.9147
" />
<path d="M90.2643 54.9147
L90.3357 54.8433
" />
<path d="M90.3357 54.8433
L90.4071 54.7004
" />
<path d="M90.4071 54.7004
L90.4071 54.5576
" />
<path d="M90.4071 54.5576
L90.3357 54.4147
" />
<path d="M90.3357 54.4147
L90.2643 54.3433
" />
<path d="M90.2643 54.3433
L90.1214 54.2718
" />
<path d="M90.1214 54.2718
L89.8357 54.2004
" />
<path d="M89.8357 54.2004
L89.6929 54.1290
" />
<path d="M89.6929 54.1290
L89.6214 54.0576
" />
<path d="M89.6214 54.0576
L89.5500 53.9147
" />
<path d="M89.5500 53.9147
L89.5500 53.7718
" />
<path d="M89.5500 53.7718
L89.6214 53.6290
" />
<path d="M89.6214 53.6290
L89.6929 53.5576
" />
<path d="M89.6929 53.5576
L89.8357 53.4861
" />
<path d="M89.8357 53.4861
L90.1929 53.4861
" />
<path d="M90.1929 53.4861
L90.4071 53.5576
" />
<path d="M92.1214 54.9147
L92.3357 54.9861
" />
<path d="M92.3357 54.9861
L92.6929 54.9861
" />
<path d="M92.6929 54.9861
L92.8357 54.9147
" />
<path d="M92.8357 54.9147
L92.9071 54.8433
" />
<path d="M92.9071 54.8433
L92.9786 54.7004
" />
<path d="M92.9786 54.7004
L92.9786 54.5576
" />
<path d="M92.9786 54.5576
L92.9071 54.4147
" />
<path d="M92.9071 54.4147
L92.8357 54.3433
" />
<path d="M92.8357 54.3433
L92.6929 54.2718
" />
<path d="M92.6929 54.2718
L92.4071 54.2004
" />
<path d="M92.4071 54.2004
L92.2643 54.1290
" />
<path d="M92.2643 54.1290
L92.1929 54.0576
" />
<path d="M92.1929 54.0576
L92.1214 53.9147
" />
<path d="M92.1214 53.9147
L92.1214 53.7718
" />
<path d="M92.1214 53.7718
L92.1929 53.6290
" />
<path d="M92.1929 53.6290
L92.2643 53.5576
" />
<path d="M92.2643 53.5576
L92.4071 53.4861
" />
<path d="M92.4071 53.4861
L92.7643 53.4861
" />
<path d="M92.7643 53.4861
L92.9786 53.5576
" />
<path d="M93.8357 54.9861
L93.6929 54.9147
" />
<path d="M93.6929 54.9147
L93.6214 54.7718
" />
<path d="M93.6214 54.7718
L93.6214 53.4861
" />
<path d="M94.6214 54.9861
L94.4786 54.9147
" />
<path d="M94.4786 54.9147
L94.4071 54.8433
" />
<path d="M94.4071 54.8433
L94.3357 54.7004
" />
<path d="M94.3357 54.7004
L94.3357 54.2718
" />
<path d="M94.3357 54.2718
L94.4071 54.1290
" />
<path d="M94.4071 54.1290
L94.4786 54.0576
" />
<path d="M94.4786 54.0576
L94.6214 53.9861
" />
<path d="M94.6214 53.9861
L94.8357 53.9861
" />
<path d="M94.8357 53.9861
L94.9786 54.0576
" />
<path d="M94.9786 54.0576
L95.0500 54.1290
" />
<path d="M95.0500 54.1290
L95.1214 54.2718
" />
<path d="M95.1214 54.2718
L95.1214 54.7004
" />
<path d="M95.1214 54.7004
L95.0500 54.8433
" />
<path d="M95.0500 54.8433
L94.9786 54.9147
" />
<path d="M94.9786 54.9147
L94.8357 54.9861
" />
<path d="M94.8357 54.9861
L94.6214 54.9861
" />
<path d="M95.5500 53.9861
L96.1214 53.9861
" />
<path d="M95.7643 53.4861
L95.7643 54.7718
" />
<path d="M95.7643 54.7718
L95.8357 54.9147
" />
<path d="M95.8357 54.9147
L95.9786 54.9861
" />
<path d="M95.9786 54.9861
L96.1214 54.9861
" />
<path d="M98.2643 54.2004
L97.7643 54.2004
" />
<path d="M97.7643 54.9861
L97.7643 53.4861
" />
<path d="M97.7643 53.4861
L98.4786 53.4861
" />
<path d="M99.0500 54.9861
L99.0500 53.9861
" />
<path d="M99.0500 53.4861
L98.9786 53.5576
" />
<path d="M98.9786 53.5576
L99.0500 53.6290
" />
<path d="M99.0500 53.6290
L99.1214 53.5576
" />
<path d="M99.1214 53.5576
L99.0500 53.4861
" />
<path d="M99.0500 53.4861
L99.0500 53.6290
" />
<path d="M99.5500 53.9861
L100.1214 53.9861
" />
<path d="M99.7643 53.4861
L99.7643 54.7718
" />
<path d="M99.7643 54.7718
L99.8357 54.9147
" />
<path d="M99.8357 54.9147
L99.9786 54.9861
" />
<path d="M99.9786 54.9861
L100.1214 54.9861
" />
<path d="M101.5500 53.4861
L102.4071 53.4861
" />
<path d="M101.9786 54.9861
L101.9786 53.4861
" />
<path d="M103.4786 54.9147
L103.3357 54.9861
" />
<path d="M103.3357 54.9861
L103.0500 54.9861
" />
<path d="M103.0500 54.9861
L102.9071 54.9147
" />
<path d="M102.9071 54.9147
L102.8357 54.7718
" />
<path d="M102.8357 54.7718
L102.8357 54.2004
" />
<path d="M102.8357 54.2004
L102.9071 54.0576
" />
<path d="M102.9071 54.0576
L103.0500 53.9861
" />
<path d="M103.0500 53.9861
L103.3357 53.9861
" />
<path d="M103.3357 53.9861
L103.4786 54.0576
" />
<path d="M103.4786 54.0576
L103.5500 54.2004
" />
<path d="M103.5500 54.2004
L103.5500 54.3433
" />
<path d="M103.5500 54.3433
L102.8357 54.4861
" />
<path d="M104.1214 54.9147
L104.2643 54.9861
" />
<path d="M104.2643 54.9861
L104.5500 54.9861
" />
<path d="M104.5500 54.9861
L104.6929 54.9147
" />
<path d="M104.6929 54.9147
L104.7643 54.7718
" />
<path d="M104.7643 54.7718
L104.7643 54.7004
" />
<path d="M104.7643 54.7004
L104.6929 54.5576
" />
<path d="M104.6929 54.5576
L104.5500 54.4861
" />
<path d="M104.5500 54.4861
L104.3357 54.4861
" />
<path d="M104.3357 54.4861
L104.1929 54.4147
" />
<path d="M104.1929 54.4147
L104.1214 54.2718
" />
<path d="M104.1214 54.2718
L104.1214 54.2004
" />
<path d="M104.1214 54.2004
L104.1929 54.0576
" />
<path d="M104.1929 54.0576
L104.3357 53.9861
" />
<path d="M104.3357 53.9861
L104.5500 53.9861
" />
<path d="M104.5500 53.9861
L104.6929 54.0576
" />
<path d="M105.1929 53.9861
L105.7643 53.9861
" />
<path d="M105.4071 53.4861
L105.4071 54.7718
" />
<path d="M105.4071 54.7718
L105.4786 54.9147
" />
<path d="M105.4786 54.9147
L105.6214 54.9861
" />
<path d="M105.6214 54.9861
L105.7643 54.9861
" />
</g><text x="87.0500" y="119.0500"
textLength="16.4357" font-size="2.0000" lengthAdjust="spacingAndGlyphs"
text-anchor="middle" opacity="0" stroke-opacity="0">CTRG2 (PROG)</text>
<g class="stroked-text"><desc>CTRG2 (PROG)</desc>
<path d="M80.1214 118.8433
L80.0500 118.9147
" />
<path d="M80.0500 118.9147
L79.8357 118.9861
" />
<path d="M79.8357 118.9861
L79.6929 118.9861
" />
<path d="M79.6929 118.9861
L79.4786 118.9147
" />
<path d="M79.4786 118.9147
L79.3357 118.7718
" />
<path d="M79.3357 118.7718
L79.2643 118.6290
" />
<path d="M79.2643 118.6290
L79.1929 118.3433
" />
<path d="M79.1929 118.3433
L79.1929 118.1290
" />
<path d="M79.1929 118.1290
L79.2643 117.8433
" />
<path d="M79.2643 117.8433
L79.3357 117.7004
" />
<path d="M79.3357 117.7004
L79.4786 117.5576
" />
<path d="M79.4786 117.5576
L79.6929 117.4861
" />
<path d="M79.6929 117.4861
L79.8357 117.4861
" />
<path d="M79.8357 117.4861
L80.0500 117.5576
" />
<path d="M80.0500 117.5576
L80.1214 117.6290
" />
<path d="M80.5500 117.4861
L81.4071 117.4861
" />
<path d="M80.9786 118.9861
L80.9786 117.4861
" />
<path d="M82.7643 118.9861
L82.2643 118.2718
" />
<path d="M81.9071 118.9861
L81.9071 117.4861
" />
<path d="M81.9071 117.4861
L82.4786 117.4861
" />
<path d="M82.4786 117.4861
L82.6214 117.5576
" />
<path d="M82.6214 117.5576
L82.6929 117.6290
" />
<path d="M82.6929 117.6290
L82.7643 117.7718
" />
<path d="M82.7643 117.7718
L82.7643 117.9861
" />
<path d="M82.7643 117.9861
L82.6929 118.1290
" />
<path d="M82.6929 118.1290
L82.6214 118.2004
" />
<path d="M82.6214 118.2004
L82.4786 118.2718
" />
<path d="M82.4786 118.2718
L81.9071 118.2718
" />
<path d="M84.1929 117.5576
L84.0500 117.4861
" />
<path d="M84.0500 117.4861
L83.8357 117.4861
" />
<path d="M83.8357 117.4861
L83.6214 117.5576
" />
<path d="M83.6214 117.5576
L83.4786 117.7004
" />
<path d="M83.4786 117.7004
L83.4071 117.8433
" />
<path d="M83.4071 117.8433
L83.3357 118.1290
" />
<path d="M83.3357 118.1290
L83.3357 118.3433
" />
<path d="M83.3357 118.3433
L83.4071 118.6290
" />
<path d="M83.4071 118.6290
L83.4786 118.7718
" />
<path d="M83.4786 118.7718
L83.6214 118.9147
" />
<path d="M83.6214 118.9147
L83.8357 118.9861
" />
<path d="M83.8357 118.9861
L83.9786 118.9861
" />
<path d="M83.9786 118.9861
L84.1929 118.9147
" />
<path d="M84.1929 118.9147
L84.2643 118.8433
" />
<path d="M84.2643 118.8433
L84.2643 118.3433
" />
<path d="M84.2643 118.3433
L83.9786 118.3433
" />
<path d="M84.8357 117.6290
L84.9071 117.5576
" />
<path d="M84.9071 117.5576
L85.0500 117.4861
" />
<path d="M85.0500 117.4861
L85.4071 117.4861
" />
<path d="M85.4071 117.4861
L85.5500 117.5576
" />
<path d="M85.5500 117.5576
L85.6214 117.6290
" />
<path d="M85.6214 117.6290
L85.6929 117.7718
" />
<path d="M85.6929 117.7718
L85.6929 117.9147
" />
<path d="M85.6929 117.9147
L85.6214 118.1290
" />
<path d="M85.6214 118.1290
L84.7643 118.9861
" />
<path d="M84.7643 118.9861
L85.6929 118.9861
" />
<path d="M87.9071 119.5576
L87.8357 119.4861
" />
<path d="M87.8357 119.4861
L87.6929 119.2718
" />
<path d="M87.6929 119.2718
L87.6214 119.1290
" />
<path d="M87.6214 119.1290
L87.5500 118.9147
" />
<path d="M87.5500 118.9147
L87.4786 118.5576
" />
<path d="M87.4786 118.5576
L87.4786 118.2718
" />
<path d="M87.4786 118.2718
L87.5500 117.9147
" />
<path d="M87.5500 117.9147
L87.6214 117.7004
" />
<path d="M87.6214 117.7004
L87.6929 117.5576
" />
<path d="M87.6929 117.5576
L87.8357 117.3433
" />
<path d="M87.8357 117.3433
L87.9071 117.2718
" />
<path d="M88.4786 118.9861
L88.4786 117.4861
" />
<path d="M88.4786 117.4861
L89.0500 117.4861
" />
<path d="M89.0500 117.4861
L89.1929 117.5576
" />
<path d="M89.1929 117.5576
L89.2643 117.6290
" />
<path d="M89.2643 117.6290
L89.3357 117.7718
" />
<path d="M89.3357 117.7718
L89.3357 117.9861
" />
<path d="M89.3357 117.9861
L89.2643 118.1290
" />
<path d="M89.2643 118.1290
L89.1929 118.2004
" />
<path d="M89.1929 118.2004
L89.0500 118.2718
" />
<path d="M89.0500 118.2718
L88.4786 118.2718
" />
<path d="M90.8357 118.9861
L90.3357 118.2718
" />
<path d="M89.9786 118.9861
L89.9786 117.4861
" />
<path d="M89.9786 117.4861
L90.5500 117.4861
" />
<path d="M90.5500 117.4861
L90.6929 117.5576
" />
<path d="M90.6929 117.5576
L90.7643 117.6290
" />
<path d="M90.7643 117.6290
L90.8357 117.7718
" />
<path d="M90.8357 117.7718
L90.8357 117.9861
" />
<path d="M90.8357 117.9861
L90.7643 118.1290
" />
<path d="M90.7643 118.1290
L90.6929 118.2004
" />
<path d="M90.6929 118.2004
L90.5500 118.2718
" />
<path d="M90.5500 118.2718
L89.9786 118.2718
" />
<path d="M91.7643 117.4861
L92.0500 117.4861
" />
<path d="M92.0500 117.4861
L92.1929 117.5576
" />
<path d="M92.1929 117.5576
L92.3357 117.7004
" />
<path d="M92.3357 117.7004
L92.4071 117.9861
" />
<path d="M92.4071 117.9861
L92.4071 118.4861
" />
<path d="M92.4071 118.4861
L92.3357 118.7718
" />
<path d="M92.3357 118.7718
L92.1929 118.9147
" />
<path d="M92.1929 118.9147
L92.0500 118.9861
" />
<path d="M92.0500 118.9861
L91.7643 118.9861
" />
<path d="M91.7643 118.9861
L91.6214 118.9147
" />
<path d="M91.6214 118.9147
L91.4786 118.7718
" />
<path d="M91.4786 118.7718
L91.4071 118.4861
" />
<path d="M91.4071 118.4861
L91.4071 117.9861
" />
<path d="M91.4071 117.9861
L91.4786 117.7004
" />
<path d="M91.4786 117.7004
L91.6214 117.5576
" />
<path d="M91.6214 117.5576
L91.7643 117.4861
" />
<path d="M93.8357 117.5576
L93.6929 117.4861
" />
<path d="M93.6929 117.4861
L93.4786 117.4861
" />
<path d="M93.4786 117.4861
L93.2643 117.5576
" />
<path d="M93.2643 117.5576
L93.1214 117.7004
" />
<path d="M93.1214 117.7004
L93.0500 117.8433
" />
<path d="M93.0500 117.8433
L92.9786 118.1290
" />
<path d="M92.9786 118.1290
L92.9786 118.3433
" />
<path d="M92.9786 118.3433
L93.0500 118.6290
" />
<path d="M93.0500 118.6290
L93.1214 118.7718
" />
<path d="M93.1214 118.7718
L93.2643 118.9147
" />
<path d="M93.2643 118.9147
L93.4786 118.9861
" />
<path d="M93.4786 118.9861
L93.6214 118.9861
" />
<path d="M93.6214 118.9861
L93.8357 118.9147
" />
<path d="M93.8357 118.9147
L93.9071 118.8433
" />
<path d="M93.9071 118.8433
L93.9071 118.3433
" />
<path d="M93.9071 118.3433
L93.6214 118.3433
" />
<path d="M94.4071 119.5576
L94.4786 119.4861
" />
<path d="M94.4786 119.4861
L94.6214 119.2718
" />
<path d="M94.6214 119.2718
L94.6929 119.1290
" />
<path d="M94.6929 119.1290
L94.7643 118.9147
" />
<path d="M94.7643 118.9147
L94.8357 118.5576
" />
<path d="M94.8357 118.5576
L94.8357 118.2718
" />
<path d="M94.8357 118.2718
L94.7643 117.9147
" />
<path d="M94.7643 117.9147
L94.6929 117.7004
" />
<path d="M94.6929 117.7004
L94.6214 117.5576
" />
<path d="M94.6214 117.5576
L94.4786 117.3433
" />
<path d="M94.4786 117.3433
L94.4071 117.2718
" />
</g></g>
<g style="fill:none; 
stroke:#F2EDA1; stroke-width:0.3000; stroke-opacity:1; 
stroke-linecap:round; stroke-linejoin:round;">
<text x="87.0500" y="47.8000"
textLength="51.0143" font-size="4.0000" lengthAdjust="spacingAndGlyphs"
text-anchor="middle" opacity="0" stroke-opacity="0">NEOCART BLANK PROG</text>
<g class="stroked-text"><desc>NEOCART BLANK PROG</desc>
<path d="M62.4071 47.6723
L62.4071 44.6723
" />
<path d="M62.4071 44.6723
L64.1214 47.6723
" />
<path d="M64.1214 47.6723
L64.1214 44.6723
" />
<path d="M65.5500 46.1008
L66.5500 46.1008
" />
<path d="M66.9786 47.6723
L65.5500 47.6723
" />
<path d="M65.5500 47.6723
L65.5500 44.6723
" />
<path d="M65.5500 44.6723
L66.9786 44.6723
" />
<path d="M68.8357 44.6723
L69.4071 44.6723
" />
<path d="M69.4071 44.6723
L69.6929 44.8151
" />
<path d="M69.6929 44.8151
L69.9786 45.1008
" />
<path d="M69.9786 45.1008
L70.1214 45.6723
" />
<path d="M70.1214 45.6723
L70.1214 46.6723
" />
<path d="M70.1214 46.6723
L69.9786 47.2437
" />
<path d="M69.9786 47.2437
L69.6929 47.5294
" />
<path d="M69.6929 47.5294
L69.4071 47.6723
" />
<path d="M69.4071 47.6723
L68.8357 47.6723
" />
<path d="M68.8357 47.6723
L68.5500 47.5294
" />
<path d="M68.5500 47.5294
L68.2643 47.2437
" />
<path d="M68.2643 47.2437
L68.1214 46.6723
" />
<path d="M68.1214 46.6723
L68.1214 45.6723
" />
<path d="M68.1214 45.6723
L68.2643 45.1008
" />
<path d="M68.2643 45.1008
L68.5500 44.8151
" />
<path d="M68.5500 44.8151
L68.8357 44.6723
" />
<path d="M73.1214 47.3865
L72.9786 47.5294
" />
<path d="M72.9786 47.5294
L72.5500 47.6723
" />
<path d="M72.5500 47.6723
L72.2643 47.6723
" />
<path d="M72.2643 47.6723
L71.8357 47.5294
" />
<path d="M71.8357 47.5294
L71.5500 47.2437
" />
<path d="M71.5500 47.2437
L71.4071 46.9580
" />
<path d="M71.4071 46.9580
L71.2643 46.3865
" />
<path d="M71.2643 46.3865
L71.2643 45.9580
" />
<path d="M71.2643 45.9580
L71.4071 45.3865
" />
<path d="M71.4071 45.3865
L71.5500 45.1008
" />
<path d="M71.5500 45.1008
L71.8357 44.8151
" />
<path d="M71.8357 44.8151
L72.2643 44.6723
" />
<path d="M72.2643 44.6723
L72.5500 44.6723
" />
<path d="M72.5500 44.6723
L72.9786 44.8151
" />
<path d="M72.9786 44.8151
L73.1214 44.9580
" />
<path d="M74.2643 46.8151
L75.6929 46.8151
" />
<path d="M73.9786 47.6723
L74.9786 44.6723
" />
<path d="M74.9786 44.6723
L75.9786 47.6723
" />
<path d="M78.6929 47.6723
L77.6929 46.2437
" />
<path d="M76.9786 47.6723
L76.9786 44.6723
" />
<path d="M76.9786 44.6723
L78.1214 44.6723
" />
<path d="M78.1214 44.6723
L78.4071 44.8151
" />
<path d="M78.4071 44.8151
L78.5500 44.9580
" />
<path d="M78.5500 44.9580
L78.6929 45.2437
" />
<path d="M78.6929 45.2437
L78.6929 45.6723
" />
<path d="M78.6929 45.6723
L78.5500 45.9580
" />
<path d="M78.5500 45.9580
L78.4071 46.1008
" />
<path d="M78.4071 46.1008
L78.1214 46.2437
" />
<path d="M78.1214 46.2437
L76.9786 46.2437
" />
<path d="M79.5500 44.6723
L81.2643 44.6723
" />
<path d="M80.4071 47.6723
L80.4071 44.6723
" />
<path d="M85.5500 46.1008
L85.9786 46.2437
" />
<path d="M85.9786 46.2437
L86.1214 46.3865
" />
<path d="M86.1214 46.3865
L86.2643 46.6723
" />
<path d="M86.2643 46.6723
L86.2643 47.1008
" />
<path d="M86.2643 47.1008
L86.1214 47.3865
" />
<path d="M86.1214 47.3865
L85.9786 47.5294
" />
<path d="M85.9786 47.5294
L85.6929 47.6723
" />
<path d="M85.6929 47.6723
L84.5500 47.6723
" />
<path d="M84.5500 47.6723
L84.5500 44.6723
" />
<path d="M84.5500 44.6723
L85.5500 44.6723
" />
<path d="M85.5500 44.6723
L85.8357 44.8151
" />
<path d="M85.8357 44.8151
L85.9786 44.9580
" />
<path d="M85.9786 44.9580
L86.1214 45.2437
" />
<path d="M86.1214 45.2437
L86.1214 45.5294
" />
<path d="M86.1214 45.5294
L85.9786 45.8151
" />
<path d="M85.9786 45.8151
L85.8357 45.9580
" />
<path d="M85.8357 45.9580
L85.5500 46.1008
" />
<path d="M85.5500 46.1008
L84.5500 46.1008
" />
<path d="M88.9786 47.6723
L87.5500 47.6723
" />
<path d="M87.5500 47.6723
L87.5500 44.6723
" />
<path d="M89.8357 46.8151
L91.2643 46.8151
" />
<path d="M89.5500 47.6723
L90.5500 44.6723
" />
<path d="M90.5500 44.6723
L91.5500 47.6723
" />
<path d="M92.5500 47.6723
L92.5500 44.6723
" />
<path d="M92.5500 44.6723
L94.2643 47.6723
" />
<path d="M94.2643 47.6723
L94.2643 44.6723
" />
<path d="M95.6929 47.6723
L95.6929 44.6723
" />
<path d="M97.4071 47.6723
L96.1214 45.9580
" />
<path d="M97.4071 44.6723
L95.6929 46.3865
" />
<path d="M100.9786 47.6723
L100.9786 44.6723
" />
<path d="M100.9786 44.6723
L102.1214 44.6723
" />
<path d="M102.1214 44.6723
L102.4071 44.8151
" />
<path d="M102.4071 44.8151
L102.5500 44.9580
" />
<path d="M102.5500 44.9580
L102.6929 45.2437
" />
<path d="M102.6929 45.2437
L102.6929 45.6723
" />
<path d="M102.6929 45.6723
L102.5500 45.9580
" />
<path d="M102.5500 45.9580
L102.4071 46.1008
" />
<path d="M102.4071 46.1008
L102.1214 46.2437
" />
<path d="M102.1214 46.2437
L100.9786 46.2437
" />
<path d="M105.6929 47.6723
L104.6929 46.2437
" />
<path d="M103.9786 47.6723
L103.9786 44.6723
" />
<path d="M103.9786 44.6723
L105.1214 44.6723
" />
<path d="M105.1214 44.6723
L105.4071 44.8151
" />
<path d="M105.4071 44.8151
L105.5500 44.9580
" />
<path d="M105.5500 44.9580
L105.6929 45.2437
" />
<path d="M105.6929 45.2437
L105.6929 45.6723
" />
<path d="M105.6929 45.6723
L105.5500 45.9580
" />
<path d="M105.5500 45.9580
L105.4071 46.1008
" />
<path d="M105.4071 46.1008
L105.1214 46.2437
" />
<path d="M105.1214 46.2437
L103.9786 46.2437
" />
<path d="M107.5500 44.6723
L108.1214 44.6723
" />
<path d="M108.1214 44.6723
L108.4071 44.8151
" />
<path d="M108.4071 44.8151
L108.6929 45.1008
" />
<path d="M108.6929 45.1008
L108.8357 45.6723
" />
<path d="M108.8357 45.6723
L108.8357 46.6723
" />
<path d="M108.8357 46.6723
L108.6929 47.2437
" />
<path d="M108.6929 47.2437
L108.4071 47.5294
" />
<path d="M108.4071 47.5294
L108.1214 47.6723
" />
<path d="M108.1214 47.6723
L107.5500 47.6723
" />
<path d="M107.5500 47.6723
L107.2643 47.5294
" />
<path d="M107.2643 47.5294
L106.9786 47.2437
" />
<path d="M106.9786 47.2437
L106.8357 46.6723
" />
<path d="M106.8357 46.6723
L106.8357 45.6723
" />
<path d="M106.8357 45.6723
L106.9786 45.1008
" />
<path d="M106.9786 45.1008
L107.2643 44.8151
" />
<path d="M107.2643 44.8151
L107.5500 44.6723
" />
<path d="M111.6929 44.8151
L111.4071 44.6723
" />
<path d="M111.4071 44.6723
L110.9786 44.6723
" />
<path d="M110.9786 44.6723
L110.5500 44.8151
" />
<path d="M110.5500 44.8151
L110.2643 45.1008
" />
<path d="M110.2643 45.1008
L110.1214 45.3865
" />
<path d="M110.1214 45.3865
L109.9786 45.9580
" />
<path d="M109.9786 45.9580
L109.9786 46.3865
" />
<path d="M109.9786 46.3865
L110.1214 46.9580
" />
<path d="M110.1214 46.9580
L110.2643 47.2437
" />
<path d="M110.2643 47.2437
L110.5500 47.5294
" />
<path d="M110.5500 47.5294
L110.9786 47.6723
" />
<path d="M110.9786 47.6723
L111.2643 47.6723
" />
<path d="M111.2643 47.6723
L111.6929 47.5294
" />
<path d="M111.6929 47.5294
L111.8357 47.3865
" />
<path d="M111.8357 47.3865
L111.8357 46.3865
" />
<path d="M111.8357 46.3865
L111.2643 46.3865
" />
</g></g>
<g style="fill:none; 
stroke:#F2EDA1; stroke-width:0.1500; stroke-opacity:1; 
stroke-linecap:round; stroke-linejoin:round;">
<text x="42.0500" y="103.9350"
textLength="4.1874" font-size="1.6933" lengthAdjust="spacingAndGlyphs"
text-anchor="middle" opacity="0" stroke-opacity="0">MH1</text>
<g class="stroked-text"><desc>MH1</desc>
<path d="M40.3567 103.8797
L40.3567 102.6097
" />
<path d="M40.3567 102.6097
L40.7800 103.5169
" />
<path d="M40.7800 103.5169
L41.2033 102.6097
" />
<path d="M41.2033 102.6097
L41.2033 103.8797
" />
<path d="M41.8081 103.8797
L41.8081 102.6097
" />
<path d="M41.8081 103.2145
L42.5338 103.2145
" />
<path d="M42.5338 103.8797
L42.5338 102.6097
" />
<path d="M43.8038 103.8797
L43.0781 103.8797
" />
<path d="M43.4410 103.8797
L43.4410 102.6097
" />
<path d="M43.4410 102.6097
L43.3200 102.7912
" />
<path d="M43.3200 102.7912
L43.1990 102.9121
" />
<path d="M43.1990 102.9121
L43.0781 102.9726
" />
</g><text x="88.3200" y="115.4500"
textLength="1.9643" font-size="1.3333" lengthAdjust="spacingAndGlyphs"
text-anchor="middle" opacity="0" stroke-opacity="0">J1</text>
<g class="stroked-text"><desc>J1</desc>
<path d="M87.9867 114.4048
L87.9867 115.1191
" />
<path d="M87.9867 115.1191
L87.9390 115.2620
" />
<path d="M87.9390 115.2620
L87.8438 115.3572
" />
<path d="M87.8438 115.3572
L87.7010 115.4048
" />
<path d="M87.7010 115.4048
L87.6057 115.4048
" />
<path d="M88.9867 115.4048
L88.4152 115.4048
" />
<path d="M88.7010 115.4048
L88.7010 114.4048
" />
<path d="M88.7010 114.4048
L88.6057 114.5477
" />
<path d="M88.6057 114.5477
L88.5105 114.6429
" />
<path d="M88.5105 114.6429
L88.4152 114.6905
" />
</g><text x="132.0500" y="103.9350"
textLength="4.1874" font-size="1.6933" lengthAdjust="spacingAndGlyphs"
text-anchor="middle" opacity="0" stroke-opacity="0">MH2</text>
<g class="stroked-text"><desc>MH2</desc>
<path d="M130.3567 103.8797
L130.3567 102.6097
" />
<path d="M130.3567 102.6097
L130.7800 103.5169
" />
<path d="M130.7800 103.5169
L131.2033 102.6097
" />
<path d="M131.2033 102.6097
L131.2033 103.8797
" />
<path d="M131.8081 103.8797
L131.8081 102.6097
" />
<path d="M131.8081 103.2145
L132.5338 103.2145
" />
<path d="M132.5338 103.8797
L132.5338 102.6097
" />
<path d="M133.0781 102.7307
L133.1386 102.6702
" />
<path d="M133.1386 102.6702
L133.2595 102.6097
" />
<path d="M133.2595 102.6097
L133.5619 102.6097
" />
<path d="M133.5619 102.6097
L133.6829 102.6702
" />
<path d="M133.6829 102.6702
L133.7433 102.7307
" />
<path d="M133.7433 102.7307
L133.8038 102.8516
" />
<path d="M133.8038 102.8516
L133.8038 102.9726
" />
<path d="M133.8038 102.9726
L133.7433 103.1540
" />
<path d="M133.7433 103.1540
L133.0176 103.8797
" />
<path d="M133.0176 103.8797
L133.8038 103.8797
" />
</g><text x="85.7800" y="139.4500"
textLength="1.9643" font-size="1.3333" lengthAdjust="spacingAndGlyphs"
text-anchor="middle" opacity="0" stroke-opacity="0">J2</text>
<g class="stroked-text"><desc>J2</desc>
<path d="M85.4467 138.4048
L85.4467 139.1191
" />
<path d="M85.4467 139.1191
L85.3990 139.2620
" />
<path d="M85.3990 139.2620
L85.3038 139.3572
" />
<path d="M85.3038 139.3572
L85.1610 139.4048
" />
<path d="M85.1610 139.4048
L85.0657 139.4048
" />
<path d="M85.8752 138.5001
L85.9229 138.4524
" />
<path d="M85.9229 138.4524
L86.0181 138.4048
" />
<path d="M86.0181 138.4048
L86.2562 138.4048
" />
<path d="M86.2562 138.4048
L86.3514 138.4524
" />
<path d="M86.3514 138.4524
L86.3990 138.5001
" />
<path d="M86.3990 138.5001
L86.4467 138.5953
" />
<path d="M86.4467 138.5953
L86.4467 138.6905
" />
<path d="M86.4467 138.6905
L86.3990 138.8334
" />
<path d="M86.3990 138.8334
L85.8276 139.4048
" />
<path d="M85.8276 139.4048
L86.4467 139.4048
" />
</g></g>
<g style="fill:none; 
stroke:#E8B2A7; stroke-width:0.1000; stroke-opacity:1; 
stroke-linecap:round; stroke-linejoin:round;">
<text x="12.1200" y="119.7000"
textLength="2.4638" font-size="1.0667" lengthAdjust="spacingAndGlyphs"
text-anchor="middle" opacity="0" stroke-opacity="0">B60</text>
<g class="stroked-text"><desc>B60</desc>
<path d="M11.4152 119.2458
L11.5295 119.2839
" />
<path d="M11.5295 119.2839
L11.5676 119.3220
" />
<path d="M11.5676 119.3220
L11.6057 119.3982
" />
<path d="M11.6057 119.3982
L11.6057 119.5125
" />
<path d="M11.6057 119.5125
L11.5676 119.5887
" />
<path d="M11.5676 119.5887
L11.5295 119.6268
" />
<path d="M11.5295 119.6268
L11.4533 119.6649
" />
<path d="M11.4533 119.6649
L11.1486 119.6649
" />
<path d="M11.1486 119.6649
L11.1486 118.8649
" />
<path d="M11.1486 118.8649
L11.4152 118.8649
" />
<path d="M11.4152 118.8649
L11.4914 118.9030
" />
<path d="M11.4914 118.9030
L11.5295 118.9411
" />
<path d="M11.5295 118.9411
L11.5676 119.0173
" />
<path d="M11.5676 119.0173
L11.5676 119.0935
" />
<path d="M11.5676 119.0935
L11.5295 119.1697
" />
<path d="M11.5295 119.1697
L11.4914 119.2078
" />
<path d="M11.4914 119.2078
L11.4152 119.2458
" />
<path d="M11.4152 119.2458
L11.1486 119.2458
" />
<path d="M12.2914 118.8649
L12.1390 118.8649
" />
<path d="M12.1390 118.8649
L12.0629 118.9030
" />
<path d="M12.0629 118.9030
L12.0248 118.9411
" />
<path d="M12.0248 118.9411
L11.9486 119.0554
" />
<path d="M11.9486 119.0554
L11.9105 119.2078
" />
<path d="M11.9105 119.2078
L11.9105 119.5125
" />
<path d="M11.9105 119.5125
L11.9486 119.5887
" />
<path d="M11.9486 119.5887
L11.9867 119.6268
" />
<path d="M11.9867 119.6268
L12.0629 119.6649
" />
<path d="M12.0629 119.6649
L12.2152 119.6649
" />
<path d="M12.2152 119.6649
L12.2914 119.6268
" />
<path d="M12.2914 119.6268
L12.3295 119.5887
" />
<path d="M12.3295 119.5887
L12.3676 119.5125
" />
<path d="M12.3676 119.5125
L12.3676 119.3220
" />
<path d="M12.3676 119.3220
L12.3295 119.2458
" />
<path d="M12.3295 119.2458
L12.2914 119.2078
" />
<path d="M12.2914 119.2078
L12.2152 119.1697
" />
<path d="M12.2152 119.1697
L12.0629 119.1697
" />
<path d="M12.0629 119.1697
L11.9867 119.2078
" />
<path d="M11.9867 119.2078
L11.9486 119.2458
" />
<path d="M11.9486 119.2458
L11.9105 119.3220
" />
<path d="M12.8629 118.8649
L12.9390 118.8649
" />
<path d="M12.9390 118.8649
L13.0152 118.9030
" />
<path d="M13.0152 118.9030
L13.0533 118.9411
" />
<path d="M13.0533 118.9411
L13.0914 119.0173
" />
<path d="M13.0914 119.0173
L13.1295 119.1697
" />
<path d="M13.1295 119.1697
L13.1295 119.3601
" />
<path d="M13.1295 119.3601
L13.0914 119.5125
" />
<path d="M13.0914 119.5125
L13.0533 119.5887
" />
<path d="M13.0533 119.5887
L13.0152 119.6268
" />
<path d="M13.0152 119.6268
L12.9390 119.6649
" />
<path d="M12.9390 119.6649
L12.8629 119.6649
" />
<path d="M12.8629 119.6649
L12.7867 119.6268
" />
<path d="M12.7867 119.6268
L12.7486 119.5887
" />
<path d="M12.7486 119.5887
L12.7105 119.5125
" />
<path d="M12.7105 119.5125
L12.6724 119.3601
" />
<path d="M12.6724 119.3601
L12.6724 119.1697
" />
<path d="M12.6724 119.1697
L12.7105 119.0173
" />
<path d="M12.7105 119.0173
L12.7486 118.9411
" />
<path d="M12.7486 118.9411
L12.7867 118.9030
" />
<path d="M12.7867 118.9030
L12.8629 118.8649
" />
</g><text x="161.9800" y="119.7000"
textLength="1.7019" font-size="1.0667" lengthAdjust="spacingAndGlyphs"
text-anchor="middle" opacity="0" stroke-opacity="0">B1</text>
<g class="stroked-text"><desc>B1</desc>
<path d="M161.6562 119.2458
L161.7705 119.2839
" />
<path d="M161.7705 119.2839
L161.8086 119.3220
" />
<path d="M161.8086 119.3220
L161.8467 119.3982
" />
<path d="M161.8467 119.3982
L161.8467 119.5125
" />
<path d="M161.8467 119.5125
L161.8086 119.5887
" />
<path d="M161.8086 119.5887
L161.7705 119.6268
" />
<path d="M161.7705 119.6268
L161.6943 119.6649
" />
<path d="M161.6943 119.6649
L161.3895 119.6649
" />
<path d="M161.3895 119.6649
L161.3895 118.8649
" />
<path d="M161.3895 118.8649
L161.6562 118.8649
" />
<path d="M161.6562 118.8649
L161.7324 118.9030
" />
<path d="M161.7324 118.9030
L161.7705 118.9411
" />
<path d="M161.7705 118.9411
L161.8086 119.0173
" />
<path d="M161.8086 119.0173
L161.8086 119.0935
" />
<path d="M161.8086 119.0935
L161.7705 119.1697
" />
<path d="M161.7705 119.1697
L161.7324 119.2078
" />
<path d="M161.7324 119.2078
L161.6562 119.2458
" />
<path d="M161.6562 119.2458
L161.3895 119.2458
" />
<path d="M162.6086 119.6649
L162.1514 119.6649
" />
<path d="M162.3800 119.6649
L162.3800 118.8649
" />
<path d="M162.3800 118.8649
L162.3038 118.9792
" />
<path d="M162.3038 118.9792
L162.2276 119.0554
" />
<path d="M162.2276 119.0554
L162.1514 119.0935
" />
</g></g>
<g style="fill:none; 
stroke:#D0D2CD; stroke-width:0.1000; stroke-opacity:1; 
stroke-linecap:round; stroke-linejoin:round;">
<path d="M0.0500 0.0500
L36.0500 0.0500
" />
<path d="M0.0500 115.0500
L0.0500 0.0500
" />
<path d="M9.7500 115.0500
L0.0500 115.0500
" />
<path d="M9.7500 134.0500
L9.7500 115.0500
" />
<path d="M36.0500 0.0500
L36.0500 2.5500
" />
<path d="M36.0500 2.5500
L48.0500 2.5500
" />
<path d="M48.0500 0.0500
L126.0500 0.0500
" />
<path d="M48.0500 2.5500
L48.0500 0.0500
" />
<path d="M126.0500 0.0500
L126.0500 2.5500
" />
<path d="M126.0500 2.5500
L138.0500 2.5500
" />
<path d="M138.0500 0.0500
L174.0500 0.0500
" />
<path d="M138.0500 2.5500
L138.0500 0.0500
" />
<path d="M164.3500 115.0500
L164.3500 134.0500
" />
<path d="M164.3500 134.0500
L9.7500 134.0500
" />
<path d="M174.0500 0.0500
L174.0500 115.0500
" />
<path d="M174.0500 115.0500
L164.3500 115.0500
" />
</g>
<g style="fill:#FFFFFF; fill-opacity:1.0000; stroke:none;">
<circle cx="42.0500" cy="103.3000" r="2.5000" /> 
</g>
<g style="fill:#FFFFFF; fill-opacity:1.0000; stroke:none;">
<circle cx="132.0500" cy="103.3000" r="2.5000" /> 
</g> 
</svg>
