%TF.GenerationSoftware,KiCad,Pcbnew,9.0.8+dfsg-1*%
%TF.CreationDate,2026-04-27T10:51:39+02:00*%
%TF.ProjectId,neocart_fpga_cha,6e656f63-6172-4745-9f66-7067615f6368,rev?*%
%TF.SameCoordinates,Original*%
%TF.FileFunction,Other,User*%
%FSLAX46Y46*%
G04 Gerber Fmt 4.6, Leading zero omitted, Abs format (unit mm)*
G04 Created by KiCad (PCBNEW 9.0.8+dfsg-1) date 2026-04-27 10:51:39*
%MOMM*%
%LPD*%
G01*
G04 APERTURE LIST*
%ADD10C,0.050000*%
G04 APERTURE END LIST*
%TO.C,R14*%
D10*
X107070000Y-77530000D02*
X108930000Y-77530000D01*
X108930000Y-78470000D01*
X107070000Y-78470000D01*
X107070000Y-77530000D01*
%TO.C,R2*%
X95070000Y-69530000D02*
X96930000Y-69530000D01*
X96930000Y-70470000D01*
X95070000Y-70470000D01*
X95070000Y-69530000D01*
%TO.C,R6*%
X89070000Y-73530000D02*
X90930000Y-73530000D01*
X90930000Y-74470000D01*
X89070000Y-74470000D01*
X89070000Y-73530000D01*
%TO.C,R4*%
X107070000Y-69530000D02*
X108930000Y-69530000D01*
X108930000Y-70470000D01*
X107070000Y-70470000D01*
X107070000Y-69530000D01*
%TO.C,R13*%
X101070000Y-77530000D02*
X102930000Y-77530000D01*
X102930000Y-78470000D01*
X101070000Y-78470000D01*
X101070000Y-77530000D01*
%TO.C,R5*%
X113070000Y-69530000D02*
X114930000Y-69530000D01*
X114930000Y-70470000D01*
X113070000Y-70470000D01*
X113070000Y-69530000D01*
%TO.C,R15*%
X113070000Y-77530000D02*
X114930000Y-77530000D01*
X114930000Y-78470000D01*
X113070000Y-78470000D01*
X113070000Y-77530000D01*
%TO.C,R9*%
X107070000Y-73530000D02*
X108930000Y-73530000D01*
X108930000Y-74470000D01*
X107070000Y-74470000D01*
X107070000Y-73530000D01*
%TO.C,R8*%
X101070000Y-73530000D02*
X102930000Y-73530000D01*
X102930000Y-74470000D01*
X101070000Y-74470000D01*
X101070000Y-73530000D01*
%TO.C,R12*%
X95070000Y-77530000D02*
X96930000Y-77530000D01*
X96930000Y-78470000D01*
X95070000Y-78470000D01*
X95070000Y-77530000D01*
%TO.C,R18*%
X101070000Y-81530000D02*
X102930000Y-81530000D01*
X102930000Y-82470000D01*
X101070000Y-82470000D01*
X101070000Y-81530000D01*
%TO.C,R19*%
X107070000Y-81530000D02*
X108930000Y-81530000D01*
X108930000Y-82470000D01*
X107070000Y-82470000D01*
X107070000Y-81530000D01*
%TO.C,R1*%
X89070000Y-69530000D02*
X90930000Y-69530000D01*
X90930000Y-70470000D01*
X89070000Y-70470000D01*
X89070000Y-69530000D01*
%TO.C,C3*%
X149090000Y-44540000D02*
X150910000Y-44540000D01*
X150910000Y-45460000D01*
X149090000Y-45460000D01*
X149090000Y-44540000D01*
%TO.C,J3*%
X153230000Y-33230000D02*
X159320000Y-33230000D01*
X159320000Y-97730000D01*
X153230000Y-97730000D01*
X153230000Y-33230000D01*
%TO.C,R16*%
X89070000Y-81530000D02*
X90930000Y-81530000D01*
X90930000Y-82470000D01*
X89070000Y-82470000D01*
X89070000Y-81530000D01*
%TO.C,C4*%
X159090000Y-44540000D02*
X160910000Y-44540000D01*
X160910000Y-45460000D01*
X159090000Y-45460000D01*
X159090000Y-44540000D01*
%TO.C,C1*%
X119090000Y-44540000D02*
X120910000Y-44540000D01*
X120910000Y-45460000D01*
X119090000Y-45460000D01*
X119090000Y-44540000D01*
%TO.C,R17*%
X95070000Y-81530000D02*
X96930000Y-81530000D01*
X96930000Y-82470000D01*
X95070000Y-82470000D01*
X95070000Y-81530000D01*
%TO.C,R7*%
X95070000Y-73530000D02*
X96930000Y-73530000D01*
X96930000Y-74470000D01*
X95070000Y-74470000D01*
X95070000Y-73530000D01*
%TO.C,R11*%
X89070000Y-77530000D02*
X90930000Y-77530000D01*
X90930000Y-78470000D01*
X89070000Y-78470000D01*
X89070000Y-77530000D01*
%TO.C,C2*%
X134090000Y-44540000D02*
X135910000Y-44540000D01*
X135910000Y-45460000D01*
X134090000Y-45460000D01*
X134090000Y-44540000D01*
%TO.C,R3*%
X101070000Y-69530000D02*
X102930000Y-69530000D01*
X102930000Y-70470000D01*
X101070000Y-70470000D01*
X101070000Y-69530000D01*
%TO.C,C5*%
X139090000Y-29540000D02*
X140910000Y-29540000D01*
X140910000Y-30460000D01*
X139090000Y-30460000D01*
X139090000Y-29540000D01*
%TO.C,R20*%
X113070000Y-81530000D02*
X114930000Y-81530000D01*
X114930000Y-82470000D01*
X113070000Y-82470000D01*
X113070000Y-81530000D01*
%TO.C,R10*%
X113070000Y-73530000D02*
X114930000Y-73530000D01*
X114930000Y-74470000D01*
X113070000Y-74470000D01*
X113070000Y-73530000D01*
%TO.C,J2*%
X123230000Y-33230000D02*
X129320000Y-33230000D01*
X129320000Y-97730000D01*
X123230000Y-97730000D01*
X123230000Y-33230000D01*
%TD*%
M02*
