%TF.GenerationSoftware,KiCad,Pcbnew,9.0.8+dfsg-1*%
%TF.CreationDate,2026-04-27T10:51:39+02:00*%
%TF.ProjectId,neocart_fpga_cha,6e656f63-6172-4745-9f66-7067615f6368,rev?*%
%TF.SameCoordinates,Original*%
%TF.FileFunction,Copper,L1,Top*%
%TF.FilePolarity,Positive*%
%FSLAX46Y46*%
G04 Gerber Fmt 4.6, Leading zero omitted, Abs format (unit mm)*
G04 Created by KiCad (PCBNEW 9.0.8+dfsg-1) date 2026-04-27 10:51:39*
%MOMM*%
%LPD*%
G01*
G04 APERTURE LIST*
G04 Aperture macros list*
%AMRoundRect*
0 Rectangle with rounded corners*
0 $1 Rounding radius*
0 $2 $3 $4 $5 $6 $7 $8 $9 X,Y pos of 4 corners*
0 Add a 4 corners polygon primitive as box body*
4,1,4,$2,$3,$4,$5,$6,$7,$8,$9,$2,$3,0*
0 Add four circle primitives for the rounded corners*
1,1,$1+$1,$2,$3*
1,1,$1+$1,$4,$5*
1,1,$1+$1,$6,$7*
1,1,$1+$1,$8,$9*
0 Add four rect primitives between the rounded corners*
20,1,$1+$1,$2,$3,$4,$5,0*
20,1,$1+$1,$4,$5,$6,$7,0*
20,1,$1+$1,$6,$7,$8,$9,0*
20,1,$1+$1,$8,$9,$2,$3,0*%
%AMFreePoly0*
4,1,11,0.750000,-5.000000,0.421000,-5.000000,0.127000,-5.588000,0.127000,-6.350000,-0.127000,-6.350000,-0.127000,-5.588000,-0.421000,-5.000000,-0.750000,-5.000000,-0.750000,5.000000,0.750000,5.000000,0.750000,-5.000000,0.750000,-5.000000,$1*%
G04 Aperture macros list end*
%TA.AperFunction,SMDPad,CuDef*%
%ADD10RoundRect,0.135000X-0.135000X-0.185000X0.135000X-0.185000X0.135000X0.185000X-0.135000X0.185000X0*%
%TD*%
%TA.AperFunction,ConnectorPad*%
%ADD11FreePoly0,0.000000*%
%TD*%
%TA.AperFunction,SMDPad,CuDef*%
%ADD12RoundRect,0.140000X-0.140000X-0.170000X0.140000X-0.170000X0.140000X0.170000X-0.140000X0.170000X0*%
%TD*%
%TA.AperFunction,ComponentPad*%
%ADD13R,1.700000X1.700000*%
%TD*%
%TA.AperFunction,ComponentPad*%
%ADD14C,1.700000*%
%TD*%
G04 APERTURE END LIST*
D10*
%TO.P,R14,1*%
%TO.N,N/C*%
X107490000Y-78000000D03*
%TO.P,R14,2*%
X108510000Y-78000000D03*
%TD*%
%TO.P,R2,1*%
%TO.N,N/C*%
X95490000Y-70000000D03*
%TO.P,R2,2*%
X96510000Y-70000000D03*
%TD*%
%TO.P,R6,1*%
%TO.N,N/C*%
X89490000Y-74000000D03*
%TO.P,R6,2*%
X90510000Y-74000000D03*
%TD*%
%TO.P,R4,1*%
%TO.N,N/C*%
X107490000Y-70000000D03*
%TO.P,R4,2*%
X108510000Y-70000000D03*
%TD*%
%TO.P,R13,1*%
%TO.N,N/C*%
X101490000Y-78000000D03*
%TO.P,R13,2*%
X102510000Y-78000000D03*
%TD*%
%TO.P,R5,1*%
%TO.N,N/C*%
X113490000Y-70000000D03*
%TO.P,R5,2*%
X114510000Y-70000000D03*
%TD*%
%TO.P,R15,1*%
%TO.N,N/C*%
X113490000Y-78000000D03*
%TO.P,R15,2*%
X114510000Y-78000000D03*
%TD*%
%TO.P,R9,1*%
%TO.N,N/C*%
X107490000Y-74000000D03*
%TO.P,R9,2*%
X108510000Y-74000000D03*
%TD*%
%TO.P,R8,1*%
%TO.N,N/C*%
X101490000Y-74000000D03*
%TO.P,R8,2*%
X102510000Y-74000000D03*
%TD*%
%TO.P,R12,1*%
%TO.N,N/C*%
X95490000Y-78000000D03*
%TO.P,R12,2*%
X96510000Y-78000000D03*
%TD*%
D11*
%TO.P,J1,1,GND*%
%TO.N,N/C*%
X229760993Y-152300000D03*
%TO.P,J1,2,GND*%
X227220993Y-152300000D03*
%TO.P,J1,3,P0*%
X224680993Y-152300000D03*
%TO.P,J1,4,P2*%
X222140993Y-152300000D03*
%TO.P,J1,5,P4*%
X219600993Y-152300000D03*
%TO.P,J1,6,P6*%
X217060993Y-152300000D03*
%TO.P,J1,7,P8*%
X214520993Y-152300000D03*
%TO.P,J1,8,P10*%
X211980993Y-152300000D03*
%TO.P,J1,9,P12*%
X209440993Y-152300000D03*
%TO.P,J1,10,P14*%
X206900993Y-152300000D03*
%TO.P,J1,11,P16*%
X204360993Y-152300000D03*
%TO.P,J1,12,P18*%
X201820993Y-152300000D03*
%TO.P,J1,13,P20*%
X199280993Y-152300000D03*
%TO.P,J1,14,P22*%
X196740993Y-152300000D03*
%TO.P,J1,15,PCK1B*%
X194200993Y-152300000D03*
%TO.P,J1,16,PCK2B*%
X191660993Y-152300000D03*
%TO.P,J1,17,2H1*%
X189120993Y-152300000D03*
%TO.P,J1,18,CA4*%
X186580993Y-152300000D03*
%TO.P,J1,19,CR0*%
X184040993Y-152300000D03*
%TO.P,J1,20,CR2*%
X181500993Y-152300000D03*
%TO.P,J1,21,CR4*%
X178960993Y-152300000D03*
%TO.P,J1,22,CR6*%
X176420993Y-152300000D03*
%TO.P,J1,23,CR8*%
X173880993Y-152300000D03*
%TO.P,J1,24,CR10*%
X171340993Y-152300000D03*
%TO.P,J1,25,CR12*%
X168800993Y-152300000D03*
%TO.P,J1,26,CR14*%
X166260993Y-152300000D03*
%TO.P,J1,27,CR16*%
X163720993Y-152300000D03*
%TO.P,J1,28,CR18*%
X161180993Y-152300000D03*
%TO.P,J1,29,VCC*%
X158640993Y-152300000D03*
%TO.P,J1,30,VCC*%
X156100993Y-152300000D03*
%TO.P,J1,31,VCC*%
X153560993Y-152300000D03*
%TO.P,J1,32,VCC*%
X151020993Y-152300000D03*
%TO.P,J1,33,CR20*%
X148480993Y-152300000D03*
%TO.P,J1,34,CR22*%
X145940993Y-152300000D03*
%TO.P,J1,35,CR24*%
X143400993Y-152300000D03*
%TO.P,J1,36,CR26*%
X140860993Y-152300000D03*
%TO.P,J1,37,CR28*%
X138320993Y-152300000D03*
%TO.P,J1,38,CR30*%
X135780993Y-152300000D03*
%TO.P,J1,39,NC*%
X133240993Y-152300000D03*
%TO.P,J1,40,NC*%
X130700993Y-152300000D03*
%TO.P,J1,41,NC*%
X128160993Y-152300000D03*
%TO.P,J1,42,SLOTCS*%
X125620993Y-152300000D03*
%TO.P,J1,43,SDA0*%
X123080993Y-152300000D03*
%TO.P,J1,44,SDA1*%
X120540993Y-152300000D03*
%TO.P,J1,45,SDA2*%
X118000993Y-152300000D03*
%TO.P,J1,46,SDA3*%
X115460993Y-152300000D03*
%TO.P,J1,47,SDA4*%
X112920993Y-152300000D03*
%TO.P,J1,48,SDA5*%
X110380993Y-152300000D03*
%TO.P,J1,49,SDA6*%
X107840993Y-152300000D03*
%TO.P,J1,50,SDA7*%
X105300993Y-152300000D03*
%TO.P,J1,51,SDA8*%
X102760993Y-152300000D03*
%TO.P,J1,52,SDA9*%
X100220993Y-152300000D03*
%TO.P,J1,53,SDA10*%
X97680993Y-152300000D03*
%TO.P,J1,54,SDA11*%
X95140993Y-152300000D03*
%TO.P,J1,55,SDA12*%
X92600993Y-152300000D03*
%TO.P,J1,56,SDA13*%
X90060993Y-152300000D03*
%TO.P,J1,57,SDA14*%
X87520993Y-152300000D03*
%TO.P,J1,58,SDA15*%
X84980993Y-152300000D03*
%TO.P,J1,59,GND*%
X82440993Y-152300000D03*
%TO.P,J1,60,GND*%
X79900993Y-152300000D03*
%TD*%
D10*
%TO.P,R18,1*%
%TO.N,N/C*%
X101490000Y-82000000D03*
%TO.P,R18,2*%
X102510000Y-82000000D03*
%TD*%
%TO.P,R19,1*%
%TO.N,N/C*%
X107490000Y-82000000D03*
%TO.P,R19,2*%
X108510000Y-82000000D03*
%TD*%
%TO.P,R1,1*%
%TO.N,N/C*%
X89490000Y-70000000D03*
%TO.P,R1,2*%
X90510000Y-70000000D03*
%TD*%
D12*
%TO.P,C3,1*%
%TO.N,N/C*%
X149520000Y-45000000D03*
%TO.P,C3,2*%
X150480000Y-45000000D03*
%TD*%
D13*
%TO.P,J3,1*%
%TO.N,N/C*%
X155000000Y-35000000D03*
D14*
%TO.P,J3,2*%
X157540000Y-35000000D03*
%TO.P,J3,3*%
X155000000Y-37540000D03*
%TO.P,J3,4*%
X157540000Y-37540000D03*
%TO.P,J3,5*%
X155000000Y-40080000D03*
%TO.P,J3,6*%
X157540000Y-40080000D03*
%TO.P,J3,7*%
X155000000Y-42620000D03*
%TO.P,J3,8*%
X157540000Y-42620000D03*
%TO.P,J3,9*%
X155000000Y-45160000D03*
%TO.P,J3,10*%
X157540000Y-45160000D03*
%TO.P,J3,11*%
X155000000Y-47700000D03*
%TO.P,J3,12*%
X157540000Y-47700000D03*
%TO.P,J3,13*%
X155000000Y-50240000D03*
%TO.P,J3,14*%
X157540000Y-50240000D03*
%TO.P,J3,15*%
X155000000Y-52780000D03*
%TO.P,J3,16*%
X157540000Y-52780000D03*
%TO.P,J3,17*%
X155000000Y-55320000D03*
%TO.P,J3,18*%
X157540000Y-55320000D03*
%TO.P,J3,19*%
X155000000Y-57860000D03*
%TO.P,J3,20*%
X157540000Y-57860000D03*
%TO.P,J3,21*%
X155000000Y-60400000D03*
%TO.P,J3,22*%
X157540000Y-60400000D03*
%TO.P,J3,23*%
X155000000Y-62940000D03*
%TO.P,J3,24*%
X157540000Y-62940000D03*
%TO.P,J3,25*%
X155000000Y-65480000D03*
%TO.P,J3,26*%
X157540000Y-65480000D03*
%TO.P,J3,27*%
X155000000Y-68020000D03*
%TO.P,J3,28*%
X157540000Y-68020000D03*
%TO.P,J3,29*%
X155000000Y-70560000D03*
%TO.P,J3,30*%
X157540000Y-70560000D03*
%TO.P,J3,31*%
X155000000Y-73100000D03*
%TO.P,J3,32*%
X157540000Y-73100000D03*
%TO.P,J3,33*%
X155000000Y-75640000D03*
%TO.P,J3,34*%
X157540000Y-75640000D03*
%TO.P,J3,35*%
X155000000Y-78180000D03*
%TO.P,J3,36*%
X157540000Y-78180000D03*
%TO.P,J3,37*%
X155000000Y-80720000D03*
%TO.P,J3,38*%
X157540000Y-80720000D03*
%TO.P,J3,39*%
X155000000Y-83260000D03*
%TO.P,J3,40*%
X157540000Y-83260000D03*
%TO.P,J3,41*%
X155000000Y-85800000D03*
%TO.P,J3,42*%
X157540000Y-85800000D03*
%TO.P,J3,43*%
X155000000Y-88340000D03*
%TO.P,J3,44*%
X157540000Y-88340000D03*
%TO.P,J3,45*%
X155000000Y-90880000D03*
%TO.P,J3,46*%
X157540000Y-90880000D03*
%TO.P,J3,47*%
X155000000Y-93420000D03*
%TO.P,J3,48*%
X157540000Y-93420000D03*
%TO.P,J3,49*%
X155000000Y-95960000D03*
%TO.P,J3,50*%
X157540000Y-95960000D03*
%TD*%
D10*
%TO.P,R16,1*%
%TO.N,N/C*%
X89490000Y-82000000D03*
%TO.P,R16,2*%
X90510000Y-82000000D03*
%TD*%
D12*
%TO.P,C4,1*%
%TO.N,N/C*%
X159520000Y-45000000D03*
%TO.P,C4,2*%
X160480000Y-45000000D03*
%TD*%
%TO.P,C1,1*%
%TO.N,N/C*%
X119520000Y-45000000D03*
%TO.P,C1,2*%
X120480000Y-45000000D03*
%TD*%
D10*
%TO.P,R17,1*%
%TO.N,N/C*%
X95490000Y-82000000D03*
%TO.P,R17,2*%
X96510000Y-82000000D03*
%TD*%
%TO.P,R7,1*%
%TO.N,N/C*%
X95490000Y-74000000D03*
%TO.P,R7,2*%
X96510000Y-74000000D03*
%TD*%
%TO.P,R11,1*%
%TO.N,N/C*%
X89490000Y-78000000D03*
%TO.P,R11,2*%
X90510000Y-78000000D03*
%TD*%
D12*
%TO.P,C2,1*%
%TO.N,N/C*%
X134520000Y-45000000D03*
%TO.P,C2,2*%
X135480000Y-45000000D03*
%TD*%
D10*
%TO.P,R3,1*%
%TO.N,N/C*%
X101490000Y-70000000D03*
%TO.P,R3,2*%
X102510000Y-70000000D03*
%TD*%
D12*
%TO.P,C5,1*%
%TO.N,N/C*%
X139520000Y-30000000D03*
%TO.P,C5,2*%
X140480000Y-30000000D03*
%TD*%
D10*
%TO.P,R20,1*%
%TO.N,N/C*%
X113490000Y-82000000D03*
%TO.P,R20,2*%
X114510000Y-82000000D03*
%TD*%
%TO.P,R10,1*%
%TO.N,N/C*%
X113490000Y-74000000D03*
%TO.P,R10,2*%
X114510000Y-74000000D03*
%TD*%
D13*
%TO.P,J2,1*%
%TO.N,N/C*%
X125000000Y-35000000D03*
D14*
%TO.P,J2,2*%
X127540000Y-35000000D03*
%TO.P,J2,3*%
X125000000Y-37540000D03*
%TO.P,J2,4*%
X127540000Y-37540000D03*
%TO.P,J2,5*%
X125000000Y-40080000D03*
%TO.P,J2,6*%
X127540000Y-40080000D03*
%TO.P,J2,7*%
X125000000Y-42620000D03*
%TO.P,J2,8*%
X127540000Y-42620000D03*
%TO.P,J2,9*%
X125000000Y-45160000D03*
%TO.P,J2,10*%
X127540000Y-45160000D03*
%TO.P,J2,11*%
X125000000Y-47700000D03*
%TO.P,J2,12*%
X127540000Y-47700000D03*
%TO.P,J2,13*%
X125000000Y-50240000D03*
%TO.P,J2,14*%
X127540000Y-50240000D03*
%TO.P,J2,15*%
X125000000Y-52780000D03*
%TO.P,J2,16*%
X127540000Y-52780000D03*
%TO.P,J2,17*%
X125000000Y-55320000D03*
%TO.P,J2,18*%
X127540000Y-55320000D03*
%TO.P,J2,19*%
X125000000Y-57860000D03*
%TO.P,J2,20*%
X127540000Y-57860000D03*
%TO.P,J2,21*%
X125000000Y-60400000D03*
%TO.P,J2,22*%
X127540000Y-60400000D03*
%TO.P,J2,23*%
X125000000Y-62940000D03*
%TO.P,J2,24*%
X127540000Y-62940000D03*
%TO.P,J2,25*%
X125000000Y-65480000D03*
%TO.P,J2,26*%
X127540000Y-65480000D03*
%TO.P,J2,27*%
X125000000Y-68020000D03*
%TO.P,J2,28*%
X127540000Y-68020000D03*
%TO.P,J2,29*%
X125000000Y-70560000D03*
%TO.P,J2,30*%
X127540000Y-70560000D03*
%TO.P,J2,31*%
X125000000Y-73100000D03*
%TO.P,J2,32*%
X127540000Y-73100000D03*
%TO.P,J2,33*%
X125000000Y-75640000D03*
%TO.P,J2,34*%
X127540000Y-75640000D03*
%TO.P,J2,35*%
X125000000Y-78180000D03*
%TO.P,J2,36*%
X127540000Y-78180000D03*
%TO.P,J2,37*%
X125000000Y-80720000D03*
%TO.P,J2,38*%
X127540000Y-80720000D03*
%TO.P,J2,39*%
X125000000Y-83260000D03*
%TO.P,J2,40*%
X127540000Y-83260000D03*
%TO.P,J2,41*%
X125000000Y-85800000D03*
%TO.P,J2,42*%
X127540000Y-85800000D03*
%TO.P,J2,43*%
X125000000Y-88340000D03*
%TO.P,J2,44*%
X127540000Y-88340000D03*
%TO.P,J2,45*%
X125000000Y-90880000D03*
%TO.P,J2,46*%
X127540000Y-90880000D03*
%TO.P,J2,47*%
X125000000Y-93420000D03*
%TO.P,J2,48*%
X127540000Y-93420000D03*
%TO.P,J2,49*%
X125000000Y-95960000D03*
%TO.P,J2,50*%
X127540000Y-95960000D03*
%TD*%
M02*
