%TF.GenerationSoftware,KiCad,Pcbnew,9.0.8+dfsg-1*%
%TF.CreationDate,2026-04-27T10:51:39+02:00*%
%TF.ProjectId,neocart_fpga_cha,6e656f63-6172-4745-9f66-7067615f6368,rev?*%
%TF.SameCoordinates,Original*%
%TF.FileFunction,Legend,Top*%
%TF.FilePolarity,Positive*%
%FSLAX46Y46*%
G04 Gerber Fmt 4.6, Leading zero omitted, Abs format (unit mm)*
G04 Created by KiCad (PCBNEW 9.0.8+dfsg-1) date 2026-04-27 10:51:39*
%MOMM*%
%LPD*%
G01*
G04 APERTURE LIST*
%ADD10C,0.150000*%
%ADD11C,0.120000*%
G04 APERTURE END LIST*
D10*
X107357142Y-77284819D02*
X107023809Y-76808628D01*
X106785714Y-77284819D02*
X106785714Y-76284819D01*
X106785714Y-76284819D02*
X107166666Y-76284819D01*
X107166666Y-76284819D02*
X107261904Y-76332438D01*
X107261904Y-76332438D02*
X107309523Y-76380057D01*
X107309523Y-76380057D02*
X107357142Y-76475295D01*
X107357142Y-76475295D02*
X107357142Y-76618152D01*
X107357142Y-76618152D02*
X107309523Y-76713390D01*
X107309523Y-76713390D02*
X107261904Y-76761009D01*
X107261904Y-76761009D02*
X107166666Y-76808628D01*
X107166666Y-76808628D02*
X106785714Y-76808628D01*
X108309523Y-77284819D02*
X107738095Y-77284819D01*
X108023809Y-77284819D02*
X108023809Y-76284819D01*
X108023809Y-76284819D02*
X107928571Y-76427676D01*
X107928571Y-76427676D02*
X107833333Y-76522914D01*
X107833333Y-76522914D02*
X107738095Y-76570533D01*
X109166666Y-76618152D02*
X109166666Y-77284819D01*
X108928571Y-76237200D02*
X108690476Y-76951485D01*
X108690476Y-76951485D02*
X109309523Y-76951485D01*
X95833333Y-69284819D02*
X95500000Y-68808628D01*
X95261905Y-69284819D02*
X95261905Y-68284819D01*
X95261905Y-68284819D02*
X95642857Y-68284819D01*
X95642857Y-68284819D02*
X95738095Y-68332438D01*
X95738095Y-68332438D02*
X95785714Y-68380057D01*
X95785714Y-68380057D02*
X95833333Y-68475295D01*
X95833333Y-68475295D02*
X95833333Y-68618152D01*
X95833333Y-68618152D02*
X95785714Y-68713390D01*
X95785714Y-68713390D02*
X95738095Y-68761009D01*
X95738095Y-68761009D02*
X95642857Y-68808628D01*
X95642857Y-68808628D02*
X95261905Y-68808628D01*
X96214286Y-68380057D02*
X96261905Y-68332438D01*
X96261905Y-68332438D02*
X96357143Y-68284819D01*
X96357143Y-68284819D02*
X96595238Y-68284819D01*
X96595238Y-68284819D02*
X96690476Y-68332438D01*
X96690476Y-68332438D02*
X96738095Y-68380057D01*
X96738095Y-68380057D02*
X96785714Y-68475295D01*
X96785714Y-68475295D02*
X96785714Y-68570533D01*
X96785714Y-68570533D02*
X96738095Y-68713390D01*
X96738095Y-68713390D02*
X96166667Y-69284819D01*
X96166667Y-69284819D02*
X96785714Y-69284819D01*
X89833333Y-73284819D02*
X89500000Y-72808628D01*
X89261905Y-73284819D02*
X89261905Y-72284819D01*
X89261905Y-72284819D02*
X89642857Y-72284819D01*
X89642857Y-72284819D02*
X89738095Y-72332438D01*
X89738095Y-72332438D02*
X89785714Y-72380057D01*
X89785714Y-72380057D02*
X89833333Y-72475295D01*
X89833333Y-72475295D02*
X89833333Y-72618152D01*
X89833333Y-72618152D02*
X89785714Y-72713390D01*
X89785714Y-72713390D02*
X89738095Y-72761009D01*
X89738095Y-72761009D02*
X89642857Y-72808628D01*
X89642857Y-72808628D02*
X89261905Y-72808628D01*
X90690476Y-72284819D02*
X90500000Y-72284819D01*
X90500000Y-72284819D02*
X90404762Y-72332438D01*
X90404762Y-72332438D02*
X90357143Y-72380057D01*
X90357143Y-72380057D02*
X90261905Y-72522914D01*
X90261905Y-72522914D02*
X90214286Y-72713390D01*
X90214286Y-72713390D02*
X90214286Y-73094342D01*
X90214286Y-73094342D02*
X90261905Y-73189580D01*
X90261905Y-73189580D02*
X90309524Y-73237200D01*
X90309524Y-73237200D02*
X90404762Y-73284819D01*
X90404762Y-73284819D02*
X90595238Y-73284819D01*
X90595238Y-73284819D02*
X90690476Y-73237200D01*
X90690476Y-73237200D02*
X90738095Y-73189580D01*
X90738095Y-73189580D02*
X90785714Y-73094342D01*
X90785714Y-73094342D02*
X90785714Y-72856247D01*
X90785714Y-72856247D02*
X90738095Y-72761009D01*
X90738095Y-72761009D02*
X90690476Y-72713390D01*
X90690476Y-72713390D02*
X90595238Y-72665771D01*
X90595238Y-72665771D02*
X90404762Y-72665771D01*
X90404762Y-72665771D02*
X90309524Y-72713390D01*
X90309524Y-72713390D02*
X90261905Y-72761009D01*
X90261905Y-72761009D02*
X90214286Y-72856247D01*
X107833333Y-69284819D02*
X107500000Y-68808628D01*
X107261905Y-69284819D02*
X107261905Y-68284819D01*
X107261905Y-68284819D02*
X107642857Y-68284819D01*
X107642857Y-68284819D02*
X107738095Y-68332438D01*
X107738095Y-68332438D02*
X107785714Y-68380057D01*
X107785714Y-68380057D02*
X107833333Y-68475295D01*
X107833333Y-68475295D02*
X107833333Y-68618152D01*
X107833333Y-68618152D02*
X107785714Y-68713390D01*
X107785714Y-68713390D02*
X107738095Y-68761009D01*
X107738095Y-68761009D02*
X107642857Y-68808628D01*
X107642857Y-68808628D02*
X107261905Y-68808628D01*
X108690476Y-68618152D02*
X108690476Y-69284819D01*
X108452381Y-68237200D02*
X108214286Y-68951485D01*
X108214286Y-68951485D02*
X108833333Y-68951485D01*
X101357142Y-77284819D02*
X101023809Y-76808628D01*
X100785714Y-77284819D02*
X100785714Y-76284819D01*
X100785714Y-76284819D02*
X101166666Y-76284819D01*
X101166666Y-76284819D02*
X101261904Y-76332438D01*
X101261904Y-76332438D02*
X101309523Y-76380057D01*
X101309523Y-76380057D02*
X101357142Y-76475295D01*
X101357142Y-76475295D02*
X101357142Y-76618152D01*
X101357142Y-76618152D02*
X101309523Y-76713390D01*
X101309523Y-76713390D02*
X101261904Y-76761009D01*
X101261904Y-76761009D02*
X101166666Y-76808628D01*
X101166666Y-76808628D02*
X100785714Y-76808628D01*
X102309523Y-77284819D02*
X101738095Y-77284819D01*
X102023809Y-77284819D02*
X102023809Y-76284819D01*
X102023809Y-76284819D02*
X101928571Y-76427676D01*
X101928571Y-76427676D02*
X101833333Y-76522914D01*
X101833333Y-76522914D02*
X101738095Y-76570533D01*
X102642857Y-76284819D02*
X103261904Y-76284819D01*
X103261904Y-76284819D02*
X102928571Y-76665771D01*
X102928571Y-76665771D02*
X103071428Y-76665771D01*
X103071428Y-76665771D02*
X103166666Y-76713390D01*
X103166666Y-76713390D02*
X103214285Y-76761009D01*
X103214285Y-76761009D02*
X103261904Y-76856247D01*
X103261904Y-76856247D02*
X103261904Y-77094342D01*
X103261904Y-77094342D02*
X103214285Y-77189580D01*
X103214285Y-77189580D02*
X103166666Y-77237200D01*
X103166666Y-77237200D02*
X103071428Y-77284819D01*
X103071428Y-77284819D02*
X102785714Y-77284819D01*
X102785714Y-77284819D02*
X102690476Y-77237200D01*
X102690476Y-77237200D02*
X102642857Y-77189580D01*
X113833333Y-69284819D02*
X113500000Y-68808628D01*
X113261905Y-69284819D02*
X113261905Y-68284819D01*
X113261905Y-68284819D02*
X113642857Y-68284819D01*
X113642857Y-68284819D02*
X113738095Y-68332438D01*
X113738095Y-68332438D02*
X113785714Y-68380057D01*
X113785714Y-68380057D02*
X113833333Y-68475295D01*
X113833333Y-68475295D02*
X113833333Y-68618152D01*
X113833333Y-68618152D02*
X113785714Y-68713390D01*
X113785714Y-68713390D02*
X113738095Y-68761009D01*
X113738095Y-68761009D02*
X113642857Y-68808628D01*
X113642857Y-68808628D02*
X113261905Y-68808628D01*
X114738095Y-68284819D02*
X114261905Y-68284819D01*
X114261905Y-68284819D02*
X114214286Y-68761009D01*
X114214286Y-68761009D02*
X114261905Y-68713390D01*
X114261905Y-68713390D02*
X114357143Y-68665771D01*
X114357143Y-68665771D02*
X114595238Y-68665771D01*
X114595238Y-68665771D02*
X114690476Y-68713390D01*
X114690476Y-68713390D02*
X114738095Y-68761009D01*
X114738095Y-68761009D02*
X114785714Y-68856247D01*
X114785714Y-68856247D02*
X114785714Y-69094342D01*
X114785714Y-69094342D02*
X114738095Y-69189580D01*
X114738095Y-69189580D02*
X114690476Y-69237200D01*
X114690476Y-69237200D02*
X114595238Y-69284819D01*
X114595238Y-69284819D02*
X114357143Y-69284819D01*
X114357143Y-69284819D02*
X114261905Y-69237200D01*
X114261905Y-69237200D02*
X114214286Y-69189580D01*
X113357142Y-77284819D02*
X113023809Y-76808628D01*
X112785714Y-77284819D02*
X112785714Y-76284819D01*
X112785714Y-76284819D02*
X113166666Y-76284819D01*
X113166666Y-76284819D02*
X113261904Y-76332438D01*
X113261904Y-76332438D02*
X113309523Y-76380057D01*
X113309523Y-76380057D02*
X113357142Y-76475295D01*
X113357142Y-76475295D02*
X113357142Y-76618152D01*
X113357142Y-76618152D02*
X113309523Y-76713390D01*
X113309523Y-76713390D02*
X113261904Y-76761009D01*
X113261904Y-76761009D02*
X113166666Y-76808628D01*
X113166666Y-76808628D02*
X112785714Y-76808628D01*
X114309523Y-77284819D02*
X113738095Y-77284819D01*
X114023809Y-77284819D02*
X114023809Y-76284819D01*
X114023809Y-76284819D02*
X113928571Y-76427676D01*
X113928571Y-76427676D02*
X113833333Y-76522914D01*
X113833333Y-76522914D02*
X113738095Y-76570533D01*
X115214285Y-76284819D02*
X114738095Y-76284819D01*
X114738095Y-76284819D02*
X114690476Y-76761009D01*
X114690476Y-76761009D02*
X114738095Y-76713390D01*
X114738095Y-76713390D02*
X114833333Y-76665771D01*
X114833333Y-76665771D02*
X115071428Y-76665771D01*
X115071428Y-76665771D02*
X115166666Y-76713390D01*
X115166666Y-76713390D02*
X115214285Y-76761009D01*
X115214285Y-76761009D02*
X115261904Y-76856247D01*
X115261904Y-76856247D02*
X115261904Y-77094342D01*
X115261904Y-77094342D02*
X115214285Y-77189580D01*
X115214285Y-77189580D02*
X115166666Y-77237200D01*
X115166666Y-77237200D02*
X115071428Y-77284819D01*
X115071428Y-77284819D02*
X114833333Y-77284819D01*
X114833333Y-77284819D02*
X114738095Y-77237200D01*
X114738095Y-77237200D02*
X114690476Y-77189580D01*
X107833333Y-73284819D02*
X107500000Y-72808628D01*
X107261905Y-73284819D02*
X107261905Y-72284819D01*
X107261905Y-72284819D02*
X107642857Y-72284819D01*
X107642857Y-72284819D02*
X107738095Y-72332438D01*
X107738095Y-72332438D02*
X107785714Y-72380057D01*
X107785714Y-72380057D02*
X107833333Y-72475295D01*
X107833333Y-72475295D02*
X107833333Y-72618152D01*
X107833333Y-72618152D02*
X107785714Y-72713390D01*
X107785714Y-72713390D02*
X107738095Y-72761009D01*
X107738095Y-72761009D02*
X107642857Y-72808628D01*
X107642857Y-72808628D02*
X107261905Y-72808628D01*
X108309524Y-73284819D02*
X108500000Y-73284819D01*
X108500000Y-73284819D02*
X108595238Y-73237200D01*
X108595238Y-73237200D02*
X108642857Y-73189580D01*
X108642857Y-73189580D02*
X108738095Y-73046723D01*
X108738095Y-73046723D02*
X108785714Y-72856247D01*
X108785714Y-72856247D02*
X108785714Y-72475295D01*
X108785714Y-72475295D02*
X108738095Y-72380057D01*
X108738095Y-72380057D02*
X108690476Y-72332438D01*
X108690476Y-72332438D02*
X108595238Y-72284819D01*
X108595238Y-72284819D02*
X108404762Y-72284819D01*
X108404762Y-72284819D02*
X108309524Y-72332438D01*
X108309524Y-72332438D02*
X108261905Y-72380057D01*
X108261905Y-72380057D02*
X108214286Y-72475295D01*
X108214286Y-72475295D02*
X108214286Y-72713390D01*
X108214286Y-72713390D02*
X108261905Y-72808628D01*
X108261905Y-72808628D02*
X108309524Y-72856247D01*
X108309524Y-72856247D02*
X108404762Y-72903866D01*
X108404762Y-72903866D02*
X108595238Y-72903866D01*
X108595238Y-72903866D02*
X108690476Y-72856247D01*
X108690476Y-72856247D02*
X108738095Y-72808628D01*
X108738095Y-72808628D02*
X108785714Y-72713390D01*
X101833333Y-73284819D02*
X101500000Y-72808628D01*
X101261905Y-73284819D02*
X101261905Y-72284819D01*
X101261905Y-72284819D02*
X101642857Y-72284819D01*
X101642857Y-72284819D02*
X101738095Y-72332438D01*
X101738095Y-72332438D02*
X101785714Y-72380057D01*
X101785714Y-72380057D02*
X101833333Y-72475295D01*
X101833333Y-72475295D02*
X101833333Y-72618152D01*
X101833333Y-72618152D02*
X101785714Y-72713390D01*
X101785714Y-72713390D02*
X101738095Y-72761009D01*
X101738095Y-72761009D02*
X101642857Y-72808628D01*
X101642857Y-72808628D02*
X101261905Y-72808628D01*
X102404762Y-72713390D02*
X102309524Y-72665771D01*
X102309524Y-72665771D02*
X102261905Y-72618152D01*
X102261905Y-72618152D02*
X102214286Y-72522914D01*
X102214286Y-72522914D02*
X102214286Y-72475295D01*
X102214286Y-72475295D02*
X102261905Y-72380057D01*
X102261905Y-72380057D02*
X102309524Y-72332438D01*
X102309524Y-72332438D02*
X102404762Y-72284819D01*
X102404762Y-72284819D02*
X102595238Y-72284819D01*
X102595238Y-72284819D02*
X102690476Y-72332438D01*
X102690476Y-72332438D02*
X102738095Y-72380057D01*
X102738095Y-72380057D02*
X102785714Y-72475295D01*
X102785714Y-72475295D02*
X102785714Y-72522914D01*
X102785714Y-72522914D02*
X102738095Y-72618152D01*
X102738095Y-72618152D02*
X102690476Y-72665771D01*
X102690476Y-72665771D02*
X102595238Y-72713390D01*
X102595238Y-72713390D02*
X102404762Y-72713390D01*
X102404762Y-72713390D02*
X102309524Y-72761009D01*
X102309524Y-72761009D02*
X102261905Y-72808628D01*
X102261905Y-72808628D02*
X102214286Y-72903866D01*
X102214286Y-72903866D02*
X102214286Y-73094342D01*
X102214286Y-73094342D02*
X102261905Y-73189580D01*
X102261905Y-73189580D02*
X102309524Y-73237200D01*
X102309524Y-73237200D02*
X102404762Y-73284819D01*
X102404762Y-73284819D02*
X102595238Y-73284819D01*
X102595238Y-73284819D02*
X102690476Y-73237200D01*
X102690476Y-73237200D02*
X102738095Y-73189580D01*
X102738095Y-73189580D02*
X102785714Y-73094342D01*
X102785714Y-73094342D02*
X102785714Y-72903866D01*
X102785714Y-72903866D02*
X102738095Y-72808628D01*
X102738095Y-72808628D02*
X102690476Y-72761009D01*
X102690476Y-72761009D02*
X102595238Y-72713390D01*
X95357142Y-77284819D02*
X95023809Y-76808628D01*
X94785714Y-77284819D02*
X94785714Y-76284819D01*
X94785714Y-76284819D02*
X95166666Y-76284819D01*
X95166666Y-76284819D02*
X95261904Y-76332438D01*
X95261904Y-76332438D02*
X95309523Y-76380057D01*
X95309523Y-76380057D02*
X95357142Y-76475295D01*
X95357142Y-76475295D02*
X95357142Y-76618152D01*
X95357142Y-76618152D02*
X95309523Y-76713390D01*
X95309523Y-76713390D02*
X95261904Y-76761009D01*
X95261904Y-76761009D02*
X95166666Y-76808628D01*
X95166666Y-76808628D02*
X94785714Y-76808628D01*
X96309523Y-77284819D02*
X95738095Y-77284819D01*
X96023809Y-77284819D02*
X96023809Y-76284819D01*
X96023809Y-76284819D02*
X95928571Y-76427676D01*
X95928571Y-76427676D02*
X95833333Y-76522914D01*
X95833333Y-76522914D02*
X95738095Y-76570533D01*
X96690476Y-76380057D02*
X96738095Y-76332438D01*
X96738095Y-76332438D02*
X96833333Y-76284819D01*
X96833333Y-76284819D02*
X97071428Y-76284819D01*
X97071428Y-76284819D02*
X97166666Y-76332438D01*
X97166666Y-76332438D02*
X97214285Y-76380057D01*
X97214285Y-76380057D02*
X97261904Y-76475295D01*
X97261904Y-76475295D02*
X97261904Y-76570533D01*
X97261904Y-76570533D02*
X97214285Y-76713390D01*
X97214285Y-76713390D02*
X96642857Y-77284819D01*
X96642857Y-77284819D02*
X97261904Y-77284819D01*
X101357142Y-81284819D02*
X101023809Y-80808628D01*
X100785714Y-81284819D02*
X100785714Y-80284819D01*
X100785714Y-80284819D02*
X101166666Y-80284819D01*
X101166666Y-80284819D02*
X101261904Y-80332438D01*
X101261904Y-80332438D02*
X101309523Y-80380057D01*
X101309523Y-80380057D02*
X101357142Y-80475295D01*
X101357142Y-80475295D02*
X101357142Y-80618152D01*
X101357142Y-80618152D02*
X101309523Y-80713390D01*
X101309523Y-80713390D02*
X101261904Y-80761009D01*
X101261904Y-80761009D02*
X101166666Y-80808628D01*
X101166666Y-80808628D02*
X100785714Y-80808628D01*
X102309523Y-81284819D02*
X101738095Y-81284819D01*
X102023809Y-81284819D02*
X102023809Y-80284819D01*
X102023809Y-80284819D02*
X101928571Y-80427676D01*
X101928571Y-80427676D02*
X101833333Y-80522914D01*
X101833333Y-80522914D02*
X101738095Y-80570533D01*
X102880952Y-80713390D02*
X102785714Y-80665771D01*
X102785714Y-80665771D02*
X102738095Y-80618152D01*
X102738095Y-80618152D02*
X102690476Y-80522914D01*
X102690476Y-80522914D02*
X102690476Y-80475295D01*
X102690476Y-80475295D02*
X102738095Y-80380057D01*
X102738095Y-80380057D02*
X102785714Y-80332438D01*
X102785714Y-80332438D02*
X102880952Y-80284819D01*
X102880952Y-80284819D02*
X103071428Y-80284819D01*
X103071428Y-80284819D02*
X103166666Y-80332438D01*
X103166666Y-80332438D02*
X103214285Y-80380057D01*
X103214285Y-80380057D02*
X103261904Y-80475295D01*
X103261904Y-80475295D02*
X103261904Y-80522914D01*
X103261904Y-80522914D02*
X103214285Y-80618152D01*
X103214285Y-80618152D02*
X103166666Y-80665771D01*
X103166666Y-80665771D02*
X103071428Y-80713390D01*
X103071428Y-80713390D02*
X102880952Y-80713390D01*
X102880952Y-80713390D02*
X102785714Y-80761009D01*
X102785714Y-80761009D02*
X102738095Y-80808628D01*
X102738095Y-80808628D02*
X102690476Y-80903866D01*
X102690476Y-80903866D02*
X102690476Y-81094342D01*
X102690476Y-81094342D02*
X102738095Y-81189580D01*
X102738095Y-81189580D02*
X102785714Y-81237200D01*
X102785714Y-81237200D02*
X102880952Y-81284819D01*
X102880952Y-81284819D02*
X103071428Y-81284819D01*
X103071428Y-81284819D02*
X103166666Y-81237200D01*
X103166666Y-81237200D02*
X103214285Y-81189580D01*
X103214285Y-81189580D02*
X103261904Y-81094342D01*
X103261904Y-81094342D02*
X103261904Y-80903866D01*
X103261904Y-80903866D02*
X103214285Y-80808628D01*
X103214285Y-80808628D02*
X103166666Y-80761009D01*
X103166666Y-80761009D02*
X103071428Y-80713390D01*
X107357142Y-81284819D02*
X107023809Y-80808628D01*
X106785714Y-81284819D02*
X106785714Y-80284819D01*
X106785714Y-80284819D02*
X107166666Y-80284819D01*
X107166666Y-80284819D02*
X107261904Y-80332438D01*
X107261904Y-80332438D02*
X107309523Y-80380057D01*
X107309523Y-80380057D02*
X107357142Y-80475295D01*
X107357142Y-80475295D02*
X107357142Y-80618152D01*
X107357142Y-80618152D02*
X107309523Y-80713390D01*
X107309523Y-80713390D02*
X107261904Y-80761009D01*
X107261904Y-80761009D02*
X107166666Y-80808628D01*
X107166666Y-80808628D02*
X106785714Y-80808628D01*
X108309523Y-81284819D02*
X107738095Y-81284819D01*
X108023809Y-81284819D02*
X108023809Y-80284819D01*
X108023809Y-80284819D02*
X107928571Y-80427676D01*
X107928571Y-80427676D02*
X107833333Y-80522914D01*
X107833333Y-80522914D02*
X107738095Y-80570533D01*
X108785714Y-81284819D02*
X108976190Y-81284819D01*
X108976190Y-81284819D02*
X109071428Y-81237200D01*
X109071428Y-81237200D02*
X109119047Y-81189580D01*
X109119047Y-81189580D02*
X109214285Y-81046723D01*
X109214285Y-81046723D02*
X109261904Y-80856247D01*
X109261904Y-80856247D02*
X109261904Y-80475295D01*
X109261904Y-80475295D02*
X109214285Y-80380057D01*
X109214285Y-80380057D02*
X109166666Y-80332438D01*
X109166666Y-80332438D02*
X109071428Y-80284819D01*
X109071428Y-80284819D02*
X108880952Y-80284819D01*
X108880952Y-80284819D02*
X108785714Y-80332438D01*
X108785714Y-80332438D02*
X108738095Y-80380057D01*
X108738095Y-80380057D02*
X108690476Y-80475295D01*
X108690476Y-80475295D02*
X108690476Y-80713390D01*
X108690476Y-80713390D02*
X108738095Y-80808628D01*
X108738095Y-80808628D02*
X108785714Y-80856247D01*
X108785714Y-80856247D02*
X108880952Y-80903866D01*
X108880952Y-80903866D02*
X109071428Y-80903866D01*
X109071428Y-80903866D02*
X109166666Y-80856247D01*
X109166666Y-80856247D02*
X109214285Y-80808628D01*
X109214285Y-80808628D02*
X109261904Y-80713390D01*
X89833333Y-69284819D02*
X89500000Y-68808628D01*
X89261905Y-69284819D02*
X89261905Y-68284819D01*
X89261905Y-68284819D02*
X89642857Y-68284819D01*
X89642857Y-68284819D02*
X89738095Y-68332438D01*
X89738095Y-68332438D02*
X89785714Y-68380057D01*
X89785714Y-68380057D02*
X89833333Y-68475295D01*
X89833333Y-68475295D02*
X89833333Y-68618152D01*
X89833333Y-68618152D02*
X89785714Y-68713390D01*
X89785714Y-68713390D02*
X89738095Y-68761009D01*
X89738095Y-68761009D02*
X89642857Y-68808628D01*
X89642857Y-68808628D02*
X89261905Y-68808628D01*
X90785714Y-69284819D02*
X90214286Y-69284819D01*
X90500000Y-69284819D02*
X90500000Y-68284819D01*
X90500000Y-68284819D02*
X90404762Y-68427676D01*
X90404762Y-68427676D02*
X90309524Y-68522914D01*
X90309524Y-68522914D02*
X90214286Y-68570533D01*
X149833333Y-44199580D02*
X149785714Y-44247200D01*
X149785714Y-44247200D02*
X149642857Y-44294819D01*
X149642857Y-44294819D02*
X149547619Y-44294819D01*
X149547619Y-44294819D02*
X149404762Y-44247200D01*
X149404762Y-44247200D02*
X149309524Y-44151961D01*
X149309524Y-44151961D02*
X149261905Y-44056723D01*
X149261905Y-44056723D02*
X149214286Y-43866247D01*
X149214286Y-43866247D02*
X149214286Y-43723390D01*
X149214286Y-43723390D02*
X149261905Y-43532914D01*
X149261905Y-43532914D02*
X149309524Y-43437676D01*
X149309524Y-43437676D02*
X149404762Y-43342438D01*
X149404762Y-43342438D02*
X149547619Y-43294819D01*
X149547619Y-43294819D02*
X149642857Y-43294819D01*
X149642857Y-43294819D02*
X149785714Y-43342438D01*
X149785714Y-43342438D02*
X149833333Y-43390057D01*
X150166667Y-43294819D02*
X150785714Y-43294819D01*
X150785714Y-43294819D02*
X150452381Y-43675771D01*
X150452381Y-43675771D02*
X150595238Y-43675771D01*
X150595238Y-43675771D02*
X150690476Y-43723390D01*
X150690476Y-43723390D02*
X150738095Y-43771009D01*
X150738095Y-43771009D02*
X150785714Y-43866247D01*
X150785714Y-43866247D02*
X150785714Y-44104342D01*
X150785714Y-44104342D02*
X150738095Y-44199580D01*
X150738095Y-44199580D02*
X150690476Y-44247200D01*
X150690476Y-44247200D02*
X150595238Y-44294819D01*
X150595238Y-44294819D02*
X150309524Y-44294819D01*
X150309524Y-44294819D02*
X150214286Y-44247200D01*
X150214286Y-44247200D02*
X150166667Y-44199580D01*
X155936666Y-32074819D02*
X155936666Y-32789104D01*
X155936666Y-32789104D02*
X155889047Y-32931961D01*
X155889047Y-32931961D02*
X155793809Y-33027200D01*
X155793809Y-33027200D02*
X155650952Y-33074819D01*
X155650952Y-33074819D02*
X155555714Y-33074819D01*
X156317619Y-32074819D02*
X156936666Y-32074819D01*
X156936666Y-32074819D02*
X156603333Y-32455771D01*
X156603333Y-32455771D02*
X156746190Y-32455771D01*
X156746190Y-32455771D02*
X156841428Y-32503390D01*
X156841428Y-32503390D02*
X156889047Y-32551009D01*
X156889047Y-32551009D02*
X156936666Y-32646247D01*
X156936666Y-32646247D02*
X156936666Y-32884342D01*
X156936666Y-32884342D02*
X156889047Y-32979580D01*
X156889047Y-32979580D02*
X156841428Y-33027200D01*
X156841428Y-33027200D02*
X156746190Y-33074819D01*
X156746190Y-33074819D02*
X156460476Y-33074819D01*
X156460476Y-33074819D02*
X156365238Y-33027200D01*
X156365238Y-33027200D02*
X156317619Y-32979580D01*
X89357142Y-81284819D02*
X89023809Y-80808628D01*
X88785714Y-81284819D02*
X88785714Y-80284819D01*
X88785714Y-80284819D02*
X89166666Y-80284819D01*
X89166666Y-80284819D02*
X89261904Y-80332438D01*
X89261904Y-80332438D02*
X89309523Y-80380057D01*
X89309523Y-80380057D02*
X89357142Y-80475295D01*
X89357142Y-80475295D02*
X89357142Y-80618152D01*
X89357142Y-80618152D02*
X89309523Y-80713390D01*
X89309523Y-80713390D02*
X89261904Y-80761009D01*
X89261904Y-80761009D02*
X89166666Y-80808628D01*
X89166666Y-80808628D02*
X88785714Y-80808628D01*
X90309523Y-81284819D02*
X89738095Y-81284819D01*
X90023809Y-81284819D02*
X90023809Y-80284819D01*
X90023809Y-80284819D02*
X89928571Y-80427676D01*
X89928571Y-80427676D02*
X89833333Y-80522914D01*
X89833333Y-80522914D02*
X89738095Y-80570533D01*
X91166666Y-80284819D02*
X90976190Y-80284819D01*
X90976190Y-80284819D02*
X90880952Y-80332438D01*
X90880952Y-80332438D02*
X90833333Y-80380057D01*
X90833333Y-80380057D02*
X90738095Y-80522914D01*
X90738095Y-80522914D02*
X90690476Y-80713390D01*
X90690476Y-80713390D02*
X90690476Y-81094342D01*
X90690476Y-81094342D02*
X90738095Y-81189580D01*
X90738095Y-81189580D02*
X90785714Y-81237200D01*
X90785714Y-81237200D02*
X90880952Y-81284819D01*
X90880952Y-81284819D02*
X91071428Y-81284819D01*
X91071428Y-81284819D02*
X91166666Y-81237200D01*
X91166666Y-81237200D02*
X91214285Y-81189580D01*
X91214285Y-81189580D02*
X91261904Y-81094342D01*
X91261904Y-81094342D02*
X91261904Y-80856247D01*
X91261904Y-80856247D02*
X91214285Y-80761009D01*
X91214285Y-80761009D02*
X91166666Y-80713390D01*
X91166666Y-80713390D02*
X91071428Y-80665771D01*
X91071428Y-80665771D02*
X90880952Y-80665771D01*
X90880952Y-80665771D02*
X90785714Y-80713390D01*
X90785714Y-80713390D02*
X90738095Y-80761009D01*
X90738095Y-80761009D02*
X90690476Y-80856247D01*
X159833333Y-44199580D02*
X159785714Y-44247200D01*
X159785714Y-44247200D02*
X159642857Y-44294819D01*
X159642857Y-44294819D02*
X159547619Y-44294819D01*
X159547619Y-44294819D02*
X159404762Y-44247200D01*
X159404762Y-44247200D02*
X159309524Y-44151961D01*
X159309524Y-44151961D02*
X159261905Y-44056723D01*
X159261905Y-44056723D02*
X159214286Y-43866247D01*
X159214286Y-43866247D02*
X159214286Y-43723390D01*
X159214286Y-43723390D02*
X159261905Y-43532914D01*
X159261905Y-43532914D02*
X159309524Y-43437676D01*
X159309524Y-43437676D02*
X159404762Y-43342438D01*
X159404762Y-43342438D02*
X159547619Y-43294819D01*
X159547619Y-43294819D02*
X159642857Y-43294819D01*
X159642857Y-43294819D02*
X159785714Y-43342438D01*
X159785714Y-43342438D02*
X159833333Y-43390057D01*
X160690476Y-43628152D02*
X160690476Y-44294819D01*
X160452381Y-43247200D02*
X160214286Y-43961485D01*
X160214286Y-43961485D02*
X160833333Y-43961485D01*
X119833333Y-44199580D02*
X119785714Y-44247200D01*
X119785714Y-44247200D02*
X119642857Y-44294819D01*
X119642857Y-44294819D02*
X119547619Y-44294819D01*
X119547619Y-44294819D02*
X119404762Y-44247200D01*
X119404762Y-44247200D02*
X119309524Y-44151961D01*
X119309524Y-44151961D02*
X119261905Y-44056723D01*
X119261905Y-44056723D02*
X119214286Y-43866247D01*
X119214286Y-43866247D02*
X119214286Y-43723390D01*
X119214286Y-43723390D02*
X119261905Y-43532914D01*
X119261905Y-43532914D02*
X119309524Y-43437676D01*
X119309524Y-43437676D02*
X119404762Y-43342438D01*
X119404762Y-43342438D02*
X119547619Y-43294819D01*
X119547619Y-43294819D02*
X119642857Y-43294819D01*
X119642857Y-43294819D02*
X119785714Y-43342438D01*
X119785714Y-43342438D02*
X119833333Y-43390057D01*
X120785714Y-44294819D02*
X120214286Y-44294819D01*
X120500000Y-44294819D02*
X120500000Y-43294819D01*
X120500000Y-43294819D02*
X120404762Y-43437676D01*
X120404762Y-43437676D02*
X120309524Y-43532914D01*
X120309524Y-43532914D02*
X120214286Y-43580533D01*
X95357142Y-81284819D02*
X95023809Y-80808628D01*
X94785714Y-81284819D02*
X94785714Y-80284819D01*
X94785714Y-80284819D02*
X95166666Y-80284819D01*
X95166666Y-80284819D02*
X95261904Y-80332438D01*
X95261904Y-80332438D02*
X95309523Y-80380057D01*
X95309523Y-80380057D02*
X95357142Y-80475295D01*
X95357142Y-80475295D02*
X95357142Y-80618152D01*
X95357142Y-80618152D02*
X95309523Y-80713390D01*
X95309523Y-80713390D02*
X95261904Y-80761009D01*
X95261904Y-80761009D02*
X95166666Y-80808628D01*
X95166666Y-80808628D02*
X94785714Y-80808628D01*
X96309523Y-81284819D02*
X95738095Y-81284819D01*
X96023809Y-81284819D02*
X96023809Y-80284819D01*
X96023809Y-80284819D02*
X95928571Y-80427676D01*
X95928571Y-80427676D02*
X95833333Y-80522914D01*
X95833333Y-80522914D02*
X95738095Y-80570533D01*
X96642857Y-80284819D02*
X97309523Y-80284819D01*
X97309523Y-80284819D02*
X96880952Y-81284819D01*
X95833333Y-73284819D02*
X95500000Y-72808628D01*
X95261905Y-73284819D02*
X95261905Y-72284819D01*
X95261905Y-72284819D02*
X95642857Y-72284819D01*
X95642857Y-72284819D02*
X95738095Y-72332438D01*
X95738095Y-72332438D02*
X95785714Y-72380057D01*
X95785714Y-72380057D02*
X95833333Y-72475295D01*
X95833333Y-72475295D02*
X95833333Y-72618152D01*
X95833333Y-72618152D02*
X95785714Y-72713390D01*
X95785714Y-72713390D02*
X95738095Y-72761009D01*
X95738095Y-72761009D02*
X95642857Y-72808628D01*
X95642857Y-72808628D02*
X95261905Y-72808628D01*
X96166667Y-72284819D02*
X96833333Y-72284819D01*
X96833333Y-72284819D02*
X96404762Y-73284819D01*
X89357142Y-77284819D02*
X89023809Y-76808628D01*
X88785714Y-77284819D02*
X88785714Y-76284819D01*
X88785714Y-76284819D02*
X89166666Y-76284819D01*
X89166666Y-76284819D02*
X89261904Y-76332438D01*
X89261904Y-76332438D02*
X89309523Y-76380057D01*
X89309523Y-76380057D02*
X89357142Y-76475295D01*
X89357142Y-76475295D02*
X89357142Y-76618152D01*
X89357142Y-76618152D02*
X89309523Y-76713390D01*
X89309523Y-76713390D02*
X89261904Y-76761009D01*
X89261904Y-76761009D02*
X89166666Y-76808628D01*
X89166666Y-76808628D02*
X88785714Y-76808628D01*
X90309523Y-77284819D02*
X89738095Y-77284819D01*
X90023809Y-77284819D02*
X90023809Y-76284819D01*
X90023809Y-76284819D02*
X89928571Y-76427676D01*
X89928571Y-76427676D02*
X89833333Y-76522914D01*
X89833333Y-76522914D02*
X89738095Y-76570533D01*
X91261904Y-77284819D02*
X90690476Y-77284819D01*
X90976190Y-77284819D02*
X90976190Y-76284819D01*
X90976190Y-76284819D02*
X90880952Y-76427676D01*
X90880952Y-76427676D02*
X90785714Y-76522914D01*
X90785714Y-76522914D02*
X90690476Y-76570533D01*
X134833333Y-44199580D02*
X134785714Y-44247200D01*
X134785714Y-44247200D02*
X134642857Y-44294819D01*
X134642857Y-44294819D02*
X134547619Y-44294819D01*
X134547619Y-44294819D02*
X134404762Y-44247200D01*
X134404762Y-44247200D02*
X134309524Y-44151961D01*
X134309524Y-44151961D02*
X134261905Y-44056723D01*
X134261905Y-44056723D02*
X134214286Y-43866247D01*
X134214286Y-43866247D02*
X134214286Y-43723390D01*
X134214286Y-43723390D02*
X134261905Y-43532914D01*
X134261905Y-43532914D02*
X134309524Y-43437676D01*
X134309524Y-43437676D02*
X134404762Y-43342438D01*
X134404762Y-43342438D02*
X134547619Y-43294819D01*
X134547619Y-43294819D02*
X134642857Y-43294819D01*
X134642857Y-43294819D02*
X134785714Y-43342438D01*
X134785714Y-43342438D02*
X134833333Y-43390057D01*
X135214286Y-43390057D02*
X135261905Y-43342438D01*
X135261905Y-43342438D02*
X135357143Y-43294819D01*
X135357143Y-43294819D02*
X135595238Y-43294819D01*
X135595238Y-43294819D02*
X135690476Y-43342438D01*
X135690476Y-43342438D02*
X135738095Y-43390057D01*
X135738095Y-43390057D02*
X135785714Y-43485295D01*
X135785714Y-43485295D02*
X135785714Y-43580533D01*
X135785714Y-43580533D02*
X135738095Y-43723390D01*
X135738095Y-43723390D02*
X135166667Y-44294819D01*
X135166667Y-44294819D02*
X135785714Y-44294819D01*
X101833333Y-69284819D02*
X101500000Y-68808628D01*
X101261905Y-69284819D02*
X101261905Y-68284819D01*
X101261905Y-68284819D02*
X101642857Y-68284819D01*
X101642857Y-68284819D02*
X101738095Y-68332438D01*
X101738095Y-68332438D02*
X101785714Y-68380057D01*
X101785714Y-68380057D02*
X101833333Y-68475295D01*
X101833333Y-68475295D02*
X101833333Y-68618152D01*
X101833333Y-68618152D02*
X101785714Y-68713390D01*
X101785714Y-68713390D02*
X101738095Y-68761009D01*
X101738095Y-68761009D02*
X101642857Y-68808628D01*
X101642857Y-68808628D02*
X101261905Y-68808628D01*
X102166667Y-68284819D02*
X102785714Y-68284819D01*
X102785714Y-68284819D02*
X102452381Y-68665771D01*
X102452381Y-68665771D02*
X102595238Y-68665771D01*
X102595238Y-68665771D02*
X102690476Y-68713390D01*
X102690476Y-68713390D02*
X102738095Y-68761009D01*
X102738095Y-68761009D02*
X102785714Y-68856247D01*
X102785714Y-68856247D02*
X102785714Y-69094342D01*
X102785714Y-69094342D02*
X102738095Y-69189580D01*
X102738095Y-69189580D02*
X102690476Y-69237200D01*
X102690476Y-69237200D02*
X102595238Y-69284819D01*
X102595238Y-69284819D02*
X102309524Y-69284819D01*
X102309524Y-69284819D02*
X102214286Y-69237200D01*
X102214286Y-69237200D02*
X102166667Y-69189580D01*
X139833333Y-29199580D02*
X139785714Y-29247200D01*
X139785714Y-29247200D02*
X139642857Y-29294819D01*
X139642857Y-29294819D02*
X139547619Y-29294819D01*
X139547619Y-29294819D02*
X139404762Y-29247200D01*
X139404762Y-29247200D02*
X139309524Y-29151961D01*
X139309524Y-29151961D02*
X139261905Y-29056723D01*
X139261905Y-29056723D02*
X139214286Y-28866247D01*
X139214286Y-28866247D02*
X139214286Y-28723390D01*
X139214286Y-28723390D02*
X139261905Y-28532914D01*
X139261905Y-28532914D02*
X139309524Y-28437676D01*
X139309524Y-28437676D02*
X139404762Y-28342438D01*
X139404762Y-28342438D02*
X139547619Y-28294819D01*
X139547619Y-28294819D02*
X139642857Y-28294819D01*
X139642857Y-28294819D02*
X139785714Y-28342438D01*
X139785714Y-28342438D02*
X139833333Y-28390057D01*
X140738095Y-28294819D02*
X140261905Y-28294819D01*
X140261905Y-28294819D02*
X140214286Y-28771009D01*
X140214286Y-28771009D02*
X140261905Y-28723390D01*
X140261905Y-28723390D02*
X140357143Y-28675771D01*
X140357143Y-28675771D02*
X140595238Y-28675771D01*
X140595238Y-28675771D02*
X140690476Y-28723390D01*
X140690476Y-28723390D02*
X140738095Y-28771009D01*
X140738095Y-28771009D02*
X140785714Y-28866247D01*
X140785714Y-28866247D02*
X140785714Y-29104342D01*
X140785714Y-29104342D02*
X140738095Y-29199580D01*
X140738095Y-29199580D02*
X140690476Y-29247200D01*
X140690476Y-29247200D02*
X140595238Y-29294819D01*
X140595238Y-29294819D02*
X140357143Y-29294819D01*
X140357143Y-29294819D02*
X140261905Y-29247200D01*
X140261905Y-29247200D02*
X140214286Y-29199580D01*
X113357142Y-81284819D02*
X113023809Y-80808628D01*
X112785714Y-81284819D02*
X112785714Y-80284819D01*
X112785714Y-80284819D02*
X113166666Y-80284819D01*
X113166666Y-80284819D02*
X113261904Y-80332438D01*
X113261904Y-80332438D02*
X113309523Y-80380057D01*
X113309523Y-80380057D02*
X113357142Y-80475295D01*
X113357142Y-80475295D02*
X113357142Y-80618152D01*
X113357142Y-80618152D02*
X113309523Y-80713390D01*
X113309523Y-80713390D02*
X113261904Y-80761009D01*
X113261904Y-80761009D02*
X113166666Y-80808628D01*
X113166666Y-80808628D02*
X112785714Y-80808628D01*
X113738095Y-80380057D02*
X113785714Y-80332438D01*
X113785714Y-80332438D02*
X113880952Y-80284819D01*
X113880952Y-80284819D02*
X114119047Y-80284819D01*
X114119047Y-80284819D02*
X114214285Y-80332438D01*
X114214285Y-80332438D02*
X114261904Y-80380057D01*
X114261904Y-80380057D02*
X114309523Y-80475295D01*
X114309523Y-80475295D02*
X114309523Y-80570533D01*
X114309523Y-80570533D02*
X114261904Y-80713390D01*
X114261904Y-80713390D02*
X113690476Y-81284819D01*
X113690476Y-81284819D02*
X114309523Y-81284819D01*
X114928571Y-80284819D02*
X115023809Y-80284819D01*
X115023809Y-80284819D02*
X115119047Y-80332438D01*
X115119047Y-80332438D02*
X115166666Y-80380057D01*
X115166666Y-80380057D02*
X115214285Y-80475295D01*
X115214285Y-80475295D02*
X115261904Y-80665771D01*
X115261904Y-80665771D02*
X115261904Y-80903866D01*
X115261904Y-80903866D02*
X115214285Y-81094342D01*
X115214285Y-81094342D02*
X115166666Y-81189580D01*
X115166666Y-81189580D02*
X115119047Y-81237200D01*
X115119047Y-81237200D02*
X115023809Y-81284819D01*
X115023809Y-81284819D02*
X114928571Y-81284819D01*
X114928571Y-81284819D02*
X114833333Y-81237200D01*
X114833333Y-81237200D02*
X114785714Y-81189580D01*
X114785714Y-81189580D02*
X114738095Y-81094342D01*
X114738095Y-81094342D02*
X114690476Y-80903866D01*
X114690476Y-80903866D02*
X114690476Y-80665771D01*
X114690476Y-80665771D02*
X114738095Y-80475295D01*
X114738095Y-80475295D02*
X114785714Y-80380057D01*
X114785714Y-80380057D02*
X114833333Y-80332438D01*
X114833333Y-80332438D02*
X114928571Y-80284819D01*
X113357142Y-73284819D02*
X113023809Y-72808628D01*
X112785714Y-73284819D02*
X112785714Y-72284819D01*
X112785714Y-72284819D02*
X113166666Y-72284819D01*
X113166666Y-72284819D02*
X113261904Y-72332438D01*
X113261904Y-72332438D02*
X113309523Y-72380057D01*
X113309523Y-72380057D02*
X113357142Y-72475295D01*
X113357142Y-72475295D02*
X113357142Y-72618152D01*
X113357142Y-72618152D02*
X113309523Y-72713390D01*
X113309523Y-72713390D02*
X113261904Y-72761009D01*
X113261904Y-72761009D02*
X113166666Y-72808628D01*
X113166666Y-72808628D02*
X112785714Y-72808628D01*
X114309523Y-73284819D02*
X113738095Y-73284819D01*
X114023809Y-73284819D02*
X114023809Y-72284819D01*
X114023809Y-72284819D02*
X113928571Y-72427676D01*
X113928571Y-72427676D02*
X113833333Y-72522914D01*
X113833333Y-72522914D02*
X113738095Y-72570533D01*
X114928571Y-72284819D02*
X115023809Y-72284819D01*
X115023809Y-72284819D02*
X115119047Y-72332438D01*
X115119047Y-72332438D02*
X115166666Y-72380057D01*
X115166666Y-72380057D02*
X115214285Y-72475295D01*
X115214285Y-72475295D02*
X115261904Y-72665771D01*
X115261904Y-72665771D02*
X115261904Y-72903866D01*
X115261904Y-72903866D02*
X115214285Y-73094342D01*
X115214285Y-73094342D02*
X115166666Y-73189580D01*
X115166666Y-73189580D02*
X115119047Y-73237200D01*
X115119047Y-73237200D02*
X115023809Y-73284819D01*
X115023809Y-73284819D02*
X114928571Y-73284819D01*
X114928571Y-73284819D02*
X114833333Y-73237200D01*
X114833333Y-73237200D02*
X114785714Y-73189580D01*
X114785714Y-73189580D02*
X114738095Y-73094342D01*
X114738095Y-73094342D02*
X114690476Y-72903866D01*
X114690476Y-72903866D02*
X114690476Y-72665771D01*
X114690476Y-72665771D02*
X114738095Y-72475295D01*
X114738095Y-72475295D02*
X114785714Y-72380057D01*
X114785714Y-72380057D02*
X114833333Y-72332438D01*
X114833333Y-72332438D02*
X114928571Y-72284819D01*
X125936666Y-32074819D02*
X125936666Y-32789104D01*
X125936666Y-32789104D02*
X125889047Y-32931961D01*
X125889047Y-32931961D02*
X125793809Y-33027200D01*
X125793809Y-33027200D02*
X125650952Y-33074819D01*
X125650952Y-33074819D02*
X125555714Y-33074819D01*
X126365238Y-32170057D02*
X126412857Y-32122438D01*
X126412857Y-32122438D02*
X126508095Y-32074819D01*
X126508095Y-32074819D02*
X126746190Y-32074819D01*
X126746190Y-32074819D02*
X126841428Y-32122438D01*
X126841428Y-32122438D02*
X126889047Y-32170057D01*
X126889047Y-32170057D02*
X126936666Y-32265295D01*
X126936666Y-32265295D02*
X126936666Y-32360533D01*
X126936666Y-32360533D02*
X126889047Y-32503390D01*
X126889047Y-32503390D02*
X126317619Y-33074819D01*
X126317619Y-33074819D02*
X126936666Y-33074819D01*
D11*
%TO.C,R14*%
X107846359Y-77620000D02*
X108153641Y-77620000D01*
X107846359Y-78380000D02*
X108153641Y-78380000D01*
%TO.C,R2*%
X95846359Y-69620000D02*
X96153641Y-69620000D01*
X95846359Y-70380000D02*
X96153641Y-70380000D01*
%TO.C,R6*%
X89846359Y-73620000D02*
X90153641Y-73620000D01*
X89846359Y-74380000D02*
X90153641Y-74380000D01*
%TO.C,R4*%
X107846359Y-69620000D02*
X108153641Y-69620000D01*
X107846359Y-70380000D02*
X108153641Y-70380000D01*
%TO.C,R13*%
X101846359Y-77620000D02*
X102153641Y-77620000D01*
X101846359Y-78380000D02*
X102153641Y-78380000D01*
%TO.C,R5*%
X113846359Y-69620000D02*
X114153641Y-69620000D01*
X113846359Y-70380000D02*
X114153641Y-70380000D01*
%TO.C,R15*%
X113846359Y-77620000D02*
X114153641Y-77620000D01*
X113846359Y-78380000D02*
X114153641Y-78380000D01*
%TO.C,R9*%
X107846359Y-73620000D02*
X108153641Y-73620000D01*
X107846359Y-74380000D02*
X108153641Y-74380000D01*
%TO.C,R8*%
X101846359Y-73620000D02*
X102153641Y-73620000D01*
X101846359Y-74380000D02*
X102153641Y-74380000D01*
%TO.C,R12*%
X95846359Y-77620000D02*
X96153641Y-77620000D01*
X95846359Y-78380000D02*
X96153641Y-78380000D01*
%TO.C,R18*%
X101846359Y-81620000D02*
X102153641Y-81620000D01*
X101846359Y-82380000D02*
X102153641Y-82380000D01*
%TO.C,R19*%
X107846359Y-81620000D02*
X108153641Y-81620000D01*
X107846359Y-82380000D02*
X108153641Y-82380000D01*
%TO.C,R1*%
X89846359Y-69620000D02*
X90153641Y-69620000D01*
X89846359Y-70380000D02*
X90153641Y-70380000D01*
%TO.C,C3*%
X149892164Y-44640000D02*
X150107836Y-44640000D01*
X149892164Y-45360000D02*
X150107836Y-45360000D01*
%TO.C,J3*%
X153620000Y-33620000D02*
X155000000Y-33620000D01*
X153620000Y-35000000D02*
X153620000Y-33620000D01*
X153620000Y-36270000D02*
X153620000Y-97340000D01*
X153620000Y-36270000D02*
X156270000Y-36270000D01*
X153620000Y-97340000D02*
X158920000Y-97340000D01*
X156270000Y-33620000D02*
X158920000Y-33620000D01*
X156270000Y-36270000D02*
X156270000Y-33620000D01*
X158920000Y-33620000D02*
X158920000Y-97340000D01*
%TO.C,R16*%
X89846359Y-81620000D02*
X90153641Y-81620000D01*
X89846359Y-82380000D02*
X90153641Y-82380000D01*
%TO.C,C4*%
X159892164Y-44640000D02*
X160107836Y-44640000D01*
X159892164Y-45360000D02*
X160107836Y-45360000D01*
%TO.C,C1*%
X119892164Y-44640000D02*
X120107836Y-44640000D01*
X119892164Y-45360000D02*
X120107836Y-45360000D01*
%TO.C,R17*%
X95846359Y-81620000D02*
X96153641Y-81620000D01*
X95846359Y-82380000D02*
X96153641Y-82380000D01*
%TO.C,R7*%
X95846359Y-73620000D02*
X96153641Y-73620000D01*
X95846359Y-74380000D02*
X96153641Y-74380000D01*
%TO.C,R11*%
X89846359Y-77620000D02*
X90153641Y-77620000D01*
X89846359Y-78380000D02*
X90153641Y-78380000D01*
%TO.C,C2*%
X134892164Y-44640000D02*
X135107836Y-44640000D01*
X134892164Y-45360000D02*
X135107836Y-45360000D01*
%TO.C,R3*%
X101846359Y-69620000D02*
X102153641Y-69620000D01*
X101846359Y-70380000D02*
X102153641Y-70380000D01*
%TO.C,C5*%
X139892164Y-29640000D02*
X140107836Y-29640000D01*
X139892164Y-30360000D02*
X140107836Y-30360000D01*
%TO.C,R20*%
X113846359Y-81620000D02*
X114153641Y-81620000D01*
X113846359Y-82380000D02*
X114153641Y-82380000D01*
%TO.C,R10*%
X113846359Y-73620000D02*
X114153641Y-73620000D01*
X113846359Y-74380000D02*
X114153641Y-74380000D01*
%TO.C,J2*%
X123620000Y-33620000D02*
X125000000Y-33620000D01*
X123620000Y-35000000D02*
X123620000Y-33620000D01*
X123620000Y-36270000D02*
X123620000Y-97340000D01*
X123620000Y-36270000D02*
X126270000Y-36270000D01*
X123620000Y-97340000D02*
X128920000Y-97340000D01*
X126270000Y-33620000D02*
X128920000Y-33620000D01*
X126270000Y-36270000D02*
X126270000Y-33620000D01*
X128920000Y-33620000D02*
X128920000Y-97340000D01*
%TD*%
M02*
