%TF.GenerationSoftware,KiCad,Pcbnew,9.0.8+dfsg-1*%
%TF.CreationDate,2026-04-27T10:51:39+02:00*%
%TF.ProjectId,neocart_fpga_cha,6e656f63-6172-4745-9f66-7067615f6368,rev?*%
%TF.SameCoordinates,Original*%
%TF.FileFunction,Copper,L2,Bot*%
%TF.FilePolarity,Positive*%
%FSLAX46Y46*%
G04 Gerber Fmt 4.6, Leading zero omitted, Abs format (unit mm)*
G04 Created by KiCad (PCBNEW 9.0.8+dfsg-1) date 2026-04-27 10:51:39*
%MOMM*%
%LPD*%
G01*
G04 APERTURE LIST*
G04 Aperture macros list*
%AMFreePoly0*
4,1,11,0.127000,5.588000,0.421000,5.000000,0.750000,5.000000,0.750000,-5.000000,-0.750000,-5.000000,-0.750000,5.000000,-0.421000,5.000000,-0.127000,5.588000,-0.127000,6.350000,0.127000,6.350000,0.127000,5.588000,0.127000,5.588000,$1*%
G04 Aperture macros list end*
%TA.AperFunction,ComponentPad*%
%ADD10R,1.700000X1.700000*%
%TD*%
%TA.AperFunction,ComponentPad*%
%ADD11C,1.700000*%
%TD*%
%TA.AperFunction,ConnectorPad*%
%ADD12FreePoly0,180.000000*%
%TD*%
G04 APERTURE END LIST*
D10*
%TO.P,J3,1*%
%TO.N,N/C*%
X155000000Y-35000000D03*
D11*
%TO.P,J3,2*%
X157540000Y-35000000D03*
%TO.P,J3,3*%
X155000000Y-37540000D03*
%TO.P,J3,4*%
X157540000Y-37540000D03*
%TO.P,J3,5*%
X155000000Y-40080000D03*
%TO.P,J3,6*%
X157540000Y-40080000D03*
%TO.P,J3,7*%
X155000000Y-42620000D03*
%TO.P,J3,8*%
X157540000Y-42620000D03*
%TO.P,J3,9*%
X155000000Y-45160000D03*
%TO.P,J3,10*%
X157540000Y-45160000D03*
%TO.P,J3,11*%
X155000000Y-47700000D03*
%TO.P,J3,12*%
X157540000Y-47700000D03*
%TO.P,J3,13*%
X155000000Y-50240000D03*
%TO.P,J3,14*%
X157540000Y-50240000D03*
%TO.P,J3,15*%
X155000000Y-52780000D03*
%TO.P,J3,16*%
X157540000Y-52780000D03*
%TO.P,J3,17*%
X155000000Y-55320000D03*
%TO.P,J3,18*%
X157540000Y-55320000D03*
%TO.P,J3,19*%
X155000000Y-57860000D03*
%TO.P,J3,20*%
X157540000Y-57860000D03*
%TO.P,J3,21*%
X155000000Y-60400000D03*
%TO.P,J3,22*%
X157540000Y-60400000D03*
%TO.P,J3,23*%
X155000000Y-62940000D03*
%TO.P,J3,24*%
X157540000Y-62940000D03*
%TO.P,J3,25*%
X155000000Y-65480000D03*
%TO.P,J3,26*%
X157540000Y-65480000D03*
%TO.P,J3,27*%
X155000000Y-68020000D03*
%TO.P,J3,28*%
X157540000Y-68020000D03*
%TO.P,J3,29*%
X155000000Y-70560000D03*
%TO.P,J3,30*%
X157540000Y-70560000D03*
%TO.P,J3,31*%
X155000000Y-73100000D03*
%TO.P,J3,32*%
X157540000Y-73100000D03*
%TO.P,J3,33*%
X155000000Y-75640000D03*
%TO.P,J3,34*%
X157540000Y-75640000D03*
%TO.P,J3,35*%
X155000000Y-78180000D03*
%TO.P,J3,36*%
X157540000Y-78180000D03*
%TO.P,J3,37*%
X155000000Y-80720000D03*
%TO.P,J3,38*%
X157540000Y-80720000D03*
%TO.P,J3,39*%
X155000000Y-83260000D03*
%TO.P,J3,40*%
X157540000Y-83260000D03*
%TO.P,J3,41*%
X155000000Y-85800000D03*
%TO.P,J3,42*%
X157540000Y-85800000D03*
%TO.P,J3,43*%
X155000000Y-88340000D03*
%TO.P,J3,44*%
X157540000Y-88340000D03*
%TO.P,J3,45*%
X155000000Y-90880000D03*
%TO.P,J3,46*%
X157540000Y-90880000D03*
%TO.P,J3,47*%
X155000000Y-93420000D03*
%TO.P,J3,48*%
X157540000Y-93420000D03*
%TO.P,J3,49*%
X155000000Y-95960000D03*
%TO.P,J3,50*%
X157540000Y-95960000D03*
%TD*%
D10*
%TO.P,J2,1*%
%TO.N,N/C*%
X125000000Y-35000000D03*
D11*
%TO.P,J2,2*%
X127540000Y-35000000D03*
%TO.P,J2,3*%
X125000000Y-37540000D03*
%TO.P,J2,4*%
X127540000Y-37540000D03*
%TO.P,J2,5*%
X125000000Y-40080000D03*
%TO.P,J2,6*%
X127540000Y-40080000D03*
%TO.P,J2,7*%
X125000000Y-42620000D03*
%TO.P,J2,8*%
X127540000Y-42620000D03*
%TO.P,J2,9*%
X125000000Y-45160000D03*
%TO.P,J2,10*%
X127540000Y-45160000D03*
%TO.P,J2,11*%
X125000000Y-47700000D03*
%TO.P,J2,12*%
X127540000Y-47700000D03*
%TO.P,J2,13*%
X125000000Y-50240000D03*
%TO.P,J2,14*%
X127540000Y-50240000D03*
%TO.P,J2,15*%
X125000000Y-52780000D03*
%TO.P,J2,16*%
X127540000Y-52780000D03*
%TO.P,J2,17*%
X125000000Y-55320000D03*
%TO.P,J2,18*%
X127540000Y-55320000D03*
%TO.P,J2,19*%
X125000000Y-57860000D03*
%TO.P,J2,20*%
X127540000Y-57860000D03*
%TO.P,J2,21*%
X125000000Y-60400000D03*
%TO.P,J2,22*%
X127540000Y-60400000D03*
%TO.P,J2,23*%
X125000000Y-62940000D03*
%TO.P,J2,24*%
X127540000Y-62940000D03*
%TO.P,J2,25*%
X125000000Y-65480000D03*
%TO.P,J2,26*%
X127540000Y-65480000D03*
%TO.P,J2,27*%
X125000000Y-68020000D03*
%TO.P,J2,28*%
X127540000Y-68020000D03*
%TO.P,J2,29*%
X125000000Y-70560000D03*
%TO.P,J2,30*%
X127540000Y-70560000D03*
%TO.P,J2,31*%
X125000000Y-73100000D03*
%TO.P,J2,32*%
X127540000Y-73100000D03*
%TO.P,J2,33*%
X125000000Y-75640000D03*
%TO.P,J2,34*%
X127540000Y-75640000D03*
%TO.P,J2,35*%
X125000000Y-78180000D03*
%TO.P,J2,36*%
X127540000Y-78180000D03*
%TO.P,J2,37*%
X125000000Y-80720000D03*
%TO.P,J2,38*%
X127540000Y-80720000D03*
%TO.P,J2,39*%
X125000000Y-83260000D03*
%TO.P,J2,40*%
X127540000Y-83260000D03*
%TO.P,J2,41*%
X125000000Y-85800000D03*
%TO.P,J2,42*%
X127540000Y-85800000D03*
%TO.P,J2,43*%
X125000000Y-88340000D03*
%TO.P,J2,44*%
X127540000Y-88340000D03*
%TO.P,J2,45*%
X125000000Y-90880000D03*
%TO.P,J2,46*%
X127540000Y-90880000D03*
%TO.P,J2,47*%
X125000000Y-93420000D03*
%TO.P,J2,48*%
X127540000Y-93420000D03*
%TO.P,J2,49*%
X125000000Y-95960000D03*
%TO.P,J2,50*%
X127540000Y-95960000D03*
%TD*%
D12*
%TO.P,J4,1,GND*%
%TO.N,N/C*%
X229760993Y-152300000D03*
%TO.P,J4,2,GND*%
X227220993Y-152300000D03*
%TO.P,J4,3,P1*%
X224680993Y-152300000D03*
%TO.P,J4,4,P3*%
X222140993Y-152300000D03*
%TO.P,J4,5,P5*%
X219600993Y-152300000D03*
%TO.P,J4,6,P7*%
X217060993Y-152300000D03*
%TO.P,J4,7,P9*%
X214520993Y-152300000D03*
%TO.P,J4,8,P11*%
X211980993Y-152300000D03*
%TO.P,J4,9,P13*%
X209440993Y-152300000D03*
%TO.P,J4,10,P15*%
X206900993Y-152300000D03*
%TO.P,J4,11,P17*%
X204360993Y-152300000D03*
%TO.P,J4,12,P19*%
X201820993Y-152300000D03*
%TO.P,J4,13,P21*%
X199280993Y-152300000D03*
%TO.P,J4,14,P23*%
X196740993Y-152300000D03*
%TO.P,J4,15,24M*%
X194200993Y-152300000D03*
%TO.P,J4,16,12M*%
X191660993Y-152300000D03*
%TO.P,J4,17,8M*%
X189120993Y-152300000D03*
%TO.P,J4,18,RESET*%
X186580993Y-152300000D03*
%TO.P,J4,19,CR1*%
X184040993Y-152300000D03*
%TO.P,J4,20,CR3*%
X181500993Y-152300000D03*
%TO.P,J4,21,CR5*%
X178960993Y-152300000D03*
%TO.P,J4,22,CR7*%
X176420993Y-152300000D03*
%TO.P,J4,23,CR9*%
X173880993Y-152300000D03*
%TO.P,J4,24,CR11*%
X171340993Y-152300000D03*
%TO.P,J4,25,CR13*%
X168800993Y-152300000D03*
%TO.P,J4,26,CR15*%
X166260993Y-152300000D03*
%TO.P,J4,27,CR17*%
X163720993Y-152300000D03*
%TO.P,J4,28,CR19*%
X161180993Y-152300000D03*
%TO.P,J4,29,VCC*%
X158640993Y-152300000D03*
%TO.P,J4,30,VCC*%
X156100993Y-152300000D03*
%TO.P,J4,31,VCC*%
X153560993Y-152300000D03*
%TO.P,J4,32,VCC*%
X151020993Y-152300000D03*
%TO.P,J4,33,CR21*%
X148480993Y-152300000D03*
%TO.P,J4,34,CR23*%
X145940993Y-152300000D03*
%TO.P,J4,35,CR25*%
X143400993Y-152300000D03*
%TO.P,J4,36,CR27*%
X140860993Y-152300000D03*
%TO.P,J4,37,CR29*%
X138320993Y-152300000D03*
%TO.P,J4,38,CR31*%
X135780993Y-152300000D03*
%TO.P,J4,39,FIXD0*%
X133240993Y-152300000D03*
%TO.P,J4,40,FIXD1*%
X130700993Y-152300000D03*
%TO.P,J4,41,FIXD2*%
X128160993Y-152300000D03*
%TO.P,J4,42,FIXD3*%
X125620993Y-152300000D03*
%TO.P,J4,43,FIXD4*%
X123080993Y-152300000D03*
%TO.P,J4,44,FIXD5*%
X120540993Y-152300000D03*
%TO.P,J4,45,FIXD6*%
X118000993Y-152300000D03*
%TO.P,J4,46,FIXD7*%
X115460993Y-152300000D03*
%TO.P,J4,47,SDRD0*%
X112920993Y-152300000D03*
%TO.P,J4,48,SDRD1*%
X110380993Y-152300000D03*
%TO.P,J4,49,SDROM*%
X107840993Y-152300000D03*
%TO.P,J4,50,SDMRD*%
X105300993Y-152300000D03*
%TO.P,J4,51,SDD0*%
X102760993Y-152300000D03*
%TO.P,J4,52,SDD1*%
X100220993Y-152300000D03*
%TO.P,J4,53,SDD2*%
X97680993Y-152300000D03*
%TO.P,J4,54,SDD3*%
X95140993Y-152300000D03*
%TO.P,J4,55,SDD4*%
X92600993Y-152300000D03*
%TO.P,J4,56,SDD5*%
X90060993Y-152300000D03*
%TO.P,J4,57,SDD6*%
X87520993Y-152300000D03*
%TO.P,J4,58,SDD7*%
X84980993Y-152300000D03*
%TO.P,J4,59,GND*%
X82440993Y-152300000D03*
%TO.P,J4,60,GND*%
X79900993Y-152300000D03*
%TD*%
M02*
