%TF.GenerationSoftware,KiCad,Pcbnew,9.0.8+dfsg-1*%
%TF.CreationDate,2026-04-27T10:51:39+02:00*%
%TF.ProjectId,neocart_fpga_cha,6e656f63-6172-4745-9f66-7067615f6368,rev?*%
%TF.SameCoordinates,Original*%
%TF.FileFunction,Soldermask,Bot*%
%TF.FilePolarity,Negative*%
%FSLAX46Y46*%
G04 Gerber Fmt 4.6, Leading zero omitted, Abs format (unit mm)*
G04 Created by KiCad (PCBNEW 9.0.8+dfsg-1) date 2026-04-27 10:51:39*
%MOMM*%
%LPD*%
G01*
G04 APERTURE LIST*
G04 Aperture macros list*
%AMFreePoly0*
4,1,11,0.127000,5.588000,0.421000,5.000000,0.750000,5.000000,0.750000,-5.000000,-0.750000,-5.000000,-0.750000,5.000000,-0.421000,5.000000,-0.127000,5.588000,-0.127000,6.350000,0.127000,6.350000,0.127000,5.588000,0.127000,5.588000,$1*%
G04 Aperture macros list end*
%ADD10R,1.700000X1.700000*%
%ADD11C,1.700000*%
%ADD12FreePoly0,180.000000*%
G04 APERTURE END LIST*
D10*
%TO.C,J3*%
X155000000Y-35000000D03*
D11*
X157540000Y-35000000D03*
X155000000Y-37540000D03*
X157540000Y-37540000D03*
X155000000Y-40080000D03*
X157540000Y-40080000D03*
X155000000Y-42620000D03*
X157540000Y-42620000D03*
X155000000Y-45160000D03*
X157540000Y-45160000D03*
X155000000Y-47700000D03*
X157540000Y-47700000D03*
X155000000Y-50240000D03*
X157540000Y-50240000D03*
X155000000Y-52780000D03*
X157540000Y-52780000D03*
X155000000Y-55320000D03*
X157540000Y-55320000D03*
X155000000Y-57860000D03*
X157540000Y-57860000D03*
X155000000Y-60400000D03*
X157540000Y-60400000D03*
X155000000Y-62940000D03*
X157540000Y-62940000D03*
X155000000Y-65480000D03*
X157540000Y-65480000D03*
X155000000Y-68020000D03*
X157540000Y-68020000D03*
X155000000Y-70560000D03*
X157540000Y-70560000D03*
X155000000Y-73100000D03*
X157540000Y-73100000D03*
X155000000Y-75640000D03*
X157540000Y-75640000D03*
X155000000Y-78180000D03*
X157540000Y-78180000D03*
X155000000Y-80720000D03*
X157540000Y-80720000D03*
X155000000Y-83260000D03*
X157540000Y-83260000D03*
X155000000Y-85800000D03*
X157540000Y-85800000D03*
X155000000Y-88340000D03*
X157540000Y-88340000D03*
X155000000Y-90880000D03*
X157540000Y-90880000D03*
X155000000Y-93420000D03*
X157540000Y-93420000D03*
X155000000Y-95960000D03*
X157540000Y-95960000D03*
%TD*%
D10*
%TO.C,J2*%
X125000000Y-35000000D03*
D11*
X127540000Y-35000000D03*
X125000000Y-37540000D03*
X127540000Y-37540000D03*
X125000000Y-40080000D03*
X127540000Y-40080000D03*
X125000000Y-42620000D03*
X127540000Y-42620000D03*
X125000000Y-45160000D03*
X127540000Y-45160000D03*
X125000000Y-47700000D03*
X127540000Y-47700000D03*
X125000000Y-50240000D03*
X127540000Y-50240000D03*
X125000000Y-52780000D03*
X127540000Y-52780000D03*
X125000000Y-55320000D03*
X127540000Y-55320000D03*
X125000000Y-57860000D03*
X127540000Y-57860000D03*
X125000000Y-60400000D03*
X127540000Y-60400000D03*
X125000000Y-62940000D03*
X127540000Y-62940000D03*
X125000000Y-65480000D03*
X127540000Y-65480000D03*
X125000000Y-68020000D03*
X127540000Y-68020000D03*
X125000000Y-70560000D03*
X127540000Y-70560000D03*
X125000000Y-73100000D03*
X127540000Y-73100000D03*
X125000000Y-75640000D03*
X127540000Y-75640000D03*
X125000000Y-78180000D03*
X127540000Y-78180000D03*
X125000000Y-80720000D03*
X127540000Y-80720000D03*
X125000000Y-83260000D03*
X127540000Y-83260000D03*
X125000000Y-85800000D03*
X127540000Y-85800000D03*
X125000000Y-88340000D03*
X127540000Y-88340000D03*
X125000000Y-90880000D03*
X127540000Y-90880000D03*
X125000000Y-93420000D03*
X127540000Y-93420000D03*
X125000000Y-95960000D03*
X127540000Y-95960000D03*
%TD*%
D12*
%TO.C,J4*%
X229760993Y-152300000D03*
X227220993Y-152300000D03*
X224680993Y-152300000D03*
X222140993Y-152300000D03*
X219600993Y-152300000D03*
X217060993Y-152300000D03*
X214520993Y-152300000D03*
X211980993Y-152300000D03*
X209440993Y-152300000D03*
X206900993Y-152300000D03*
X204360993Y-152300000D03*
X201820993Y-152300000D03*
X199280993Y-152300000D03*
X196740993Y-152300000D03*
X194200993Y-152300000D03*
X191660993Y-152300000D03*
X189120993Y-152300000D03*
X186580993Y-152300000D03*
X184040993Y-152300000D03*
X181500993Y-152300000D03*
X178960993Y-152300000D03*
X176420993Y-152300000D03*
X173880993Y-152300000D03*
X171340993Y-152300000D03*
X168800993Y-152300000D03*
X166260993Y-152300000D03*
X163720993Y-152300000D03*
X161180993Y-152300000D03*
X158640993Y-152300000D03*
X156100993Y-152300000D03*
X153560993Y-152300000D03*
X151020993Y-152300000D03*
X148480993Y-152300000D03*
X145940993Y-152300000D03*
X143400993Y-152300000D03*
X140860993Y-152300000D03*
X138320993Y-152300000D03*
X135780993Y-152300000D03*
X133240993Y-152300000D03*
X130700993Y-152300000D03*
X128160993Y-152300000D03*
X125620993Y-152300000D03*
X123080993Y-152300000D03*
X120540993Y-152300000D03*
X118000993Y-152300000D03*
X115460993Y-152300000D03*
X112920993Y-152300000D03*
X110380993Y-152300000D03*
X107840993Y-152300000D03*
X105300993Y-152300000D03*
X102760993Y-152300000D03*
X100220993Y-152300000D03*
X97680993Y-152300000D03*
X95140993Y-152300000D03*
X92600993Y-152300000D03*
X90060993Y-152300000D03*
X87520993Y-152300000D03*
X84980993Y-152300000D03*
X82440993Y-152300000D03*
X79900993Y-152300000D03*
%TD*%
M02*
