M48
; DRILL file {KiCad 9.0.8+dfsg-1} date 2026-05-18T08:36:06+0200
; FORMAT={-:-/ absolute / metric / decimal}
; #@! TF.CreationDate,2026-05-18T08:36:06+02:00
; #@! TF.GenerationSoftware,Kicad,Pcbnew,9.0.8+dfsg-1
; #@! TF.FileFunction,MixedPlating,1,2
FMAT,2
METRIC
; #@! TA.AperFunction,Plated,PTH,ViaDrill
T1C0.300
; #@! TA.AperFunction,Plated,PTH,ComponentDrill
T2C1.000
%
G90
G05
T1
X67.36Y-138.0
X69.9Y-138.0
X74.98Y-138.0
X77.52Y-138.0
X80.06Y-138.0
X82.6Y-138.0
X85.14Y-138.0
X87.68Y-138.0
X90.22Y-138.0
X92.76Y-138.0
X95.3Y-138.0
X97.84Y-138.0
X100.38Y-138.0
X102.92Y-138.0
X105.46Y-138.0
X108.0Y-138.0
X110.54Y-138.0
X113.08Y-138.0
X115.62Y-138.0
X118.16Y-138.0
X120.7Y-138.0
X123.24Y-138.0
X125.78Y-138.0
X128.32Y-138.0
X130.86Y-138.0
X133.4Y-138.0
X138.48Y-138.0
X141.02Y-138.0
X146.1Y-138.0
X148.64Y-138.0
X151.18Y-138.0
X166.42Y-138.0
X168.96Y-138.0
X171.5Y-138.0
X174.04Y-138.0
X176.58Y-138.0
X179.12Y-138.0
X181.66Y-138.0
X184.2Y-138.0
X186.74Y-138.0
X189.28Y-138.0
X191.82Y-138.0
X194.36Y-138.0
X196.9Y-138.0
X199.44Y-138.0
X201.98Y-138.0
X204.52Y-138.0
X209.6Y-138.0
X212.14Y-138.0
T2
X67.35Y-139.69
X67.35Y-142.24
X69.89Y-139.69
X69.89Y-142.24
X74.97Y-137.15
X74.97Y-139.7
X77.51Y-137.15
X77.51Y-139.7
X80.05Y-137.15
X80.05Y-139.7
X82.59Y-137.15
X82.59Y-139.7
X85.13Y-137.15
X85.13Y-139.7
X87.67Y-137.15
X87.67Y-139.7
X90.21Y-137.15
X90.21Y-139.7
X92.75Y-137.15
X92.75Y-139.7
X95.29Y-137.15
X95.29Y-139.7
X97.83Y-137.15
X97.83Y-139.7
X100.37Y-137.15
X100.37Y-139.7
X102.91Y-137.15
X102.91Y-139.7
X105.45Y-137.15
X105.45Y-139.7
X107.99Y-137.15
X107.99Y-139.7
X110.53Y-137.15
X110.53Y-139.7
X113.07Y-137.15
X113.07Y-139.7
X115.61Y-137.15
X115.61Y-139.7
X118.15Y-137.15
X118.15Y-139.7
X120.69Y-137.15
X120.69Y-139.7
X123.23Y-137.15
X123.23Y-139.7
X125.77Y-137.15
X125.77Y-139.7
X128.31Y-137.15
X128.31Y-139.7
X130.85Y-137.15
X130.85Y-139.7
X133.39Y-137.15
X133.39Y-139.7
X138.47Y-139.69
X138.47Y-142.24
X141.01Y-139.69
X141.01Y-142.24
X146.09Y-137.15
X146.09Y-139.7
X148.63Y-137.15
X148.63Y-139.7
X151.17Y-137.15
X151.17Y-139.7
X153.71Y-137.15
X153.71Y-139.7
X156.25Y-137.15
X156.25Y-139.7
X158.79Y-137.15
X158.79Y-139.7
X161.33Y-137.15
X161.33Y-139.7
X163.87Y-137.15
X163.87Y-139.7
X166.41Y-137.15
X166.41Y-139.7
X168.95Y-137.15
X168.95Y-139.7
X171.49Y-137.15
X171.49Y-139.7
X174.03Y-137.15
X174.03Y-139.7
X176.57Y-137.15
X176.57Y-139.7
X179.11Y-137.15
X179.11Y-139.7
X181.65Y-137.15
X181.65Y-139.7
X184.19Y-137.15
X184.19Y-139.7
X186.73Y-137.15
X186.73Y-139.7
X189.27Y-137.15
X189.27Y-139.7
X191.81Y-137.15
X191.81Y-139.7
X194.35Y-137.15
X194.35Y-139.7
X196.89Y-137.15
X196.89Y-139.7
X199.43Y-137.15
X199.43Y-139.7
X201.97Y-137.15
X201.97Y-139.7
X204.51Y-137.15
X204.51Y-139.7
X209.59Y-139.69
X209.59Y-142.24
X212.13Y-139.69
X212.13Y-142.24
M30
