%TF.GenerationSoftware,KiCad,Pcbnew,9.0.8+dfsg-1*%
%TF.CreationDate,2026-05-18T08:36:06+02:00*%
%TF.ProjectId,mvs_blank_prog,6d76735f-626c-4616-9e6b-5f70726f672e,rev?*%
%TF.SameCoordinates,Original*%
%TF.FileFunction,Profile,NP*%
%FSLAX46Y46*%
G04 Gerber Fmt 4.6, Leading zero omitted, Abs format (unit mm)*
G04 Created by KiCad (PCBNEW 9.0.8+dfsg-1) date 2026-05-18 08:36:06*
%MOMM*%
%LPD*%
G01*
G04 APERTURE LIST*
%TA.AperFunction,Profile*%
%ADD10C,0.100000*%
%TD*%
G04 APERTURE END LIST*
D10*
X52750000Y-23750000D02*
X88750000Y-23750000D01*
X88750000Y-23750000D02*
X88750000Y-26250000D01*
X88750000Y-26250000D02*
X100750000Y-26250000D01*
X100750000Y-26250000D02*
X100750000Y-23750000D01*
X100750000Y-23750000D02*
X178750000Y-23750000D01*
X178750000Y-23750000D02*
X178750000Y-26250000D01*
X178750000Y-26250000D02*
X190750000Y-26250000D01*
X190750000Y-26250000D02*
X190750000Y-23750000D01*
X190750000Y-23750000D02*
X226750000Y-23750000D01*
X226750000Y-23750000D02*
X226750000Y-138750000D01*
X226750000Y-138750000D02*
X217050000Y-138750000D01*
X217050000Y-138750000D02*
X217050000Y-157750000D01*
X217050000Y-157750000D02*
X62450000Y-157750000D01*
X62450000Y-157750000D02*
X62450000Y-138750000D01*
X62450000Y-138750000D02*
X52750000Y-138750000D01*
X52750000Y-138750000D02*
X52750000Y-23750000D01*
X99750000Y-127000000D02*
G75*
G02*
X89750000Y-127000000I-5000000J0D01*
G01*
X89750000Y-127000000D02*
G75*
G02*
X99750000Y-127000000I5000000J0D01*
G01*
X189750000Y-127000000D02*
G75*
G02*
X179750000Y-127000000I-5000000J0D01*
G01*
X179750000Y-127000000D02*
G75*
G02*
X189750000Y-127000000I5000000J0D01*
G01*
M02*
