%TF.GenerationSoftware,KiCad,Pcbnew,10.0.3*%
%TF.CreationDate,2026-09-24T15:50:36+02:00*%
%TF.ProjectId,neocart_blank_cha,6e656f63-6172-4745-9f62-6c616e6b5f63,rev?*%
%TF.SameCoordinates,Original*%
%TF.FileFunction,Drillmap*%
%TF.FilePolarity,Positive*%
%FSLAX45Y45*%
G04 Gerber Fmt 4.5, Leading zero omitted, Abs format (unit mm)*
G04 Created by KiCad (PCBNEW 10.0.3) date 2026-09-24 15:50:36*
%MOMM*%
%LPD*%
G01*
G04 APERTURE LIST*
%ADD10C,0.100000*%
%ADD11C,0.200000*%
G04 APERTURE END LIST*
D10*
X6788000Y-2540000D02*
X6788000Y-14040000D01*
X6788000Y-2540000D02*
X7333100Y-2540000D01*
X6788000Y-14040000D02*
X7753100Y-14040000D01*
X7333100Y-2540000D02*
X7333100Y-2790000D01*
X7333100Y-2790000D02*
X8533100Y-2790000D01*
X7753100Y-14040000D02*
X7753100Y-15940000D01*
X7753100Y-15940000D02*
X23213100Y-15940000D01*
X8533100Y-2540000D02*
X8533100Y-2790000D01*
X8533100Y-2540000D02*
X22433100Y-2540000D01*
X11483100Y-12865000D02*
G75*
G02*
X10483100Y-12865000I-500000J0D01*
G01*
X10483100Y-12865000D02*
G75*
G02*
X11483100Y-12865000I500000J0D01*
G01*
X20483100Y-12865000D02*
G75*
G02*
X19483100Y-12865000I-500000J0D01*
G01*
X19483100Y-12865000D02*
G75*
G02*
X20483100Y-12865000I500000J0D01*
G01*
X22433100Y-2540000D02*
X22433100Y-2790000D01*
X22433100Y-2790000D02*
X23633100Y-2790000D01*
X23213100Y-14040000D02*
X23213100Y-15940000D01*
X23213100Y-14040000D02*
X24178000Y-14040000D01*
X23633100Y-2540000D02*
X23633100Y-2790000D01*
X23633100Y-2540000D02*
X24178000Y-2540000D01*
X24178000Y-2540000D02*
X24178000Y-14040000D01*
D11*
D10*
X8067099Y-14090000D02*
X8167099Y-14190000D01*
X8167099Y-14090000D02*
X8067099Y-14190000D01*
X8067099Y-14344000D02*
X8167099Y-14444000D01*
X8167099Y-14344000D02*
X8067099Y-14444000D01*
X8448099Y-13836000D02*
X8548099Y-13936000D01*
X8548099Y-13836000D02*
X8448099Y-13936000D01*
X8448099Y-14090000D02*
X8548099Y-14190000D01*
X8548099Y-14090000D02*
X8448099Y-14190000D01*
X8702099Y-13836000D02*
X8802099Y-13936000D01*
X8802099Y-13836000D02*
X8702099Y-13936000D01*
X8702099Y-14090000D02*
X8802099Y-14190000D01*
X8802099Y-14090000D02*
X8702099Y-14190000D01*
X8956099Y-13836000D02*
X9056099Y-13936000D01*
X9056099Y-13836000D02*
X8956099Y-13936000D01*
X8956099Y-14090000D02*
X9056099Y-14190000D01*
X9056099Y-14090000D02*
X8956099Y-14190000D01*
X9210099Y-13836000D02*
X9310099Y-13936000D01*
X9310099Y-13836000D02*
X9210099Y-13936000D01*
X9210099Y-14090000D02*
X9310099Y-14190000D01*
X9310099Y-14090000D02*
X9210099Y-14190000D01*
X9464099Y-13836000D02*
X9564099Y-13936000D01*
X9564099Y-13836000D02*
X9464099Y-13936000D01*
X9464099Y-14090000D02*
X9564099Y-14190000D01*
X9564099Y-14090000D02*
X9464099Y-14190000D01*
X9718099Y-13836000D02*
X9818099Y-13936000D01*
X9818099Y-13836000D02*
X9718099Y-13936000D01*
X9718099Y-14090000D02*
X9818099Y-14190000D01*
X9818099Y-14090000D02*
X9718099Y-14190000D01*
X9972099Y-13836000D02*
X10072099Y-13936000D01*
X10072099Y-13836000D02*
X9972099Y-13936000D01*
X9972099Y-14090000D02*
X10072099Y-14190000D01*
X10072099Y-14090000D02*
X9972099Y-14190000D01*
X10226099Y-13836000D02*
X10326099Y-13936000D01*
X10326099Y-13836000D02*
X10226099Y-13936000D01*
X10226099Y-14090000D02*
X10326099Y-14190000D01*
X10326099Y-14090000D02*
X10226099Y-14190000D01*
X10480099Y-13836000D02*
X10580099Y-13936000D01*
X10580099Y-13836000D02*
X10480099Y-13936000D01*
X10480099Y-14090000D02*
X10580099Y-14190000D01*
X10580099Y-14090000D02*
X10480099Y-14190000D01*
X10734099Y-13836000D02*
X10834099Y-13936000D01*
X10834099Y-13836000D02*
X10734099Y-13936000D01*
X10734099Y-14090000D02*
X10834099Y-14190000D01*
X10834099Y-14090000D02*
X10734099Y-14190000D01*
X10988099Y-13836000D02*
X11088099Y-13936000D01*
X11088099Y-13836000D02*
X10988099Y-13936000D01*
X10988099Y-14090000D02*
X11088099Y-14190000D01*
X11088099Y-14090000D02*
X10988099Y-14190000D01*
X11242099Y-13836000D02*
X11342099Y-13936000D01*
X11342099Y-13836000D02*
X11242099Y-13936000D01*
X11242099Y-14090000D02*
X11342099Y-14190000D01*
X11342099Y-14090000D02*
X11242099Y-14190000D01*
X11496099Y-13836000D02*
X11596099Y-13936000D01*
X11596099Y-13836000D02*
X11496099Y-13936000D01*
X11496099Y-14090000D02*
X11596099Y-14190000D01*
X11596099Y-14090000D02*
X11496099Y-14190000D01*
X11750099Y-13836000D02*
X11850099Y-13936000D01*
X11850099Y-13836000D02*
X11750099Y-13936000D01*
X11750099Y-14090000D02*
X11850099Y-14190000D01*
X11850099Y-14090000D02*
X11750099Y-14190000D01*
X12004099Y-13836000D02*
X12104099Y-13936000D01*
X12104099Y-13836000D02*
X12004099Y-13936000D01*
X12004099Y-14090000D02*
X12104099Y-14190000D01*
X12104099Y-14090000D02*
X12004099Y-14190000D01*
X12258099Y-13836000D02*
X12358099Y-13936000D01*
X12358099Y-13836000D02*
X12258099Y-13936000D01*
X12258099Y-14090000D02*
X12358099Y-14190000D01*
X12358099Y-14090000D02*
X12258099Y-14190000D01*
X12512099Y-13836000D02*
X12612099Y-13936000D01*
X12612099Y-13836000D02*
X12512099Y-13936000D01*
X12512099Y-14090000D02*
X12612099Y-14190000D01*
X12612099Y-14090000D02*
X12512099Y-14190000D01*
X12766099Y-13836000D02*
X12866099Y-13936000D01*
X12866099Y-13836000D02*
X12766099Y-13936000D01*
X12766099Y-14090000D02*
X12866099Y-14190000D01*
X12866099Y-14090000D02*
X12766099Y-14190000D01*
X13020099Y-13836000D02*
X13120099Y-13936000D01*
X13120099Y-13836000D02*
X13020099Y-13936000D01*
X13020099Y-14090000D02*
X13120099Y-14190000D01*
X13120099Y-14090000D02*
X13020099Y-14190000D01*
X13274099Y-13836000D02*
X13374099Y-13936000D01*
X13374099Y-13836000D02*
X13274099Y-13936000D01*
X13274099Y-14090000D02*
X13374099Y-14190000D01*
X13374099Y-14090000D02*
X13274099Y-14190000D01*
X13528099Y-13836000D02*
X13628099Y-13936000D01*
X13628099Y-13836000D02*
X13528099Y-13936000D01*
X13528099Y-14090000D02*
X13628099Y-14190000D01*
X13628099Y-14090000D02*
X13528099Y-14190000D01*
X13782099Y-13836000D02*
X13882099Y-13936000D01*
X13882099Y-13836000D02*
X13782099Y-13936000D01*
X13782099Y-14090000D02*
X13882099Y-14190000D01*
X13882099Y-14090000D02*
X13782099Y-14190000D01*
X14036099Y-13836000D02*
X14136099Y-13936000D01*
X14136099Y-13836000D02*
X14036099Y-13936000D01*
X14036099Y-14090000D02*
X14136099Y-14190000D01*
X14136099Y-14090000D02*
X14036099Y-14190000D01*
X14290099Y-13836000D02*
X14390099Y-13936000D01*
X14390099Y-13836000D02*
X14290099Y-13936000D01*
X14290099Y-14090000D02*
X14390099Y-14190000D01*
X14390099Y-14090000D02*
X14290099Y-14190000D01*
X14544099Y-13836000D02*
X14644099Y-13936000D01*
X14644099Y-13836000D02*
X14544099Y-13936000D01*
X14544099Y-14090000D02*
X14644099Y-14190000D01*
X14644099Y-14090000D02*
X14544099Y-14190000D01*
X14798099Y-13836000D02*
X14898099Y-13936000D01*
X14898099Y-13836000D02*
X14798099Y-13936000D01*
X14798099Y-14090000D02*
X14898099Y-14190000D01*
X14898099Y-14090000D02*
X14798099Y-14190000D01*
X15306099Y-14090000D02*
X15406099Y-14190000D01*
X15406099Y-14090000D02*
X15306099Y-14190000D01*
X15306099Y-14344000D02*
X15406099Y-14444000D01*
X15406099Y-14344000D02*
X15306099Y-14444000D01*
X15560099Y-14090000D02*
X15660099Y-14190000D01*
X15660099Y-14090000D02*
X15560099Y-14190000D01*
X15560099Y-14344000D02*
X15660099Y-14444000D01*
X15660099Y-14344000D02*
X15560099Y-14444000D01*
X16068099Y-13836000D02*
X16168099Y-13936000D01*
X16168099Y-13836000D02*
X16068099Y-13936000D01*
X16068099Y-14090000D02*
X16168099Y-14190000D01*
X16168099Y-14090000D02*
X16068099Y-14190000D01*
X16322099Y-13836000D02*
X16422099Y-13936000D01*
X16422099Y-13836000D02*
X16322099Y-13936000D01*
X16322099Y-14090000D02*
X16422099Y-14190000D01*
X16422099Y-14090000D02*
X16322099Y-14190000D01*
X16576099Y-13836000D02*
X16676099Y-13936000D01*
X16676099Y-13836000D02*
X16576099Y-13936000D01*
X16576099Y-14090000D02*
X16676099Y-14190000D01*
X16676099Y-14090000D02*
X16576099Y-14190000D01*
X16830099Y-13836000D02*
X16930099Y-13936000D01*
X16930099Y-13836000D02*
X16830099Y-13936000D01*
X16830099Y-14090000D02*
X16930099Y-14190000D01*
X16930099Y-14090000D02*
X16830099Y-14190000D01*
X17084099Y-13836000D02*
X17184099Y-13936000D01*
X17184099Y-13836000D02*
X17084099Y-13936000D01*
X17084099Y-14090000D02*
X17184099Y-14190000D01*
X17184099Y-14090000D02*
X17084099Y-14190000D01*
X17338099Y-13836000D02*
X17438099Y-13936000D01*
X17438099Y-13836000D02*
X17338099Y-13936000D01*
X17338099Y-14090000D02*
X17438099Y-14190000D01*
X17438099Y-14090000D02*
X17338099Y-14190000D01*
X17592099Y-13836000D02*
X17692099Y-13936000D01*
X17692099Y-13836000D02*
X17592099Y-13936000D01*
X17592099Y-14090000D02*
X17692099Y-14190000D01*
X17692099Y-14090000D02*
X17592099Y-14190000D01*
X17846099Y-13836000D02*
X17946099Y-13936000D01*
X17946099Y-13836000D02*
X17846099Y-13936000D01*
X17846099Y-14090000D02*
X17946099Y-14190000D01*
X17946099Y-14090000D02*
X17846099Y-14190000D01*
X18100099Y-13836000D02*
X18200099Y-13936000D01*
X18200099Y-13836000D02*
X18100099Y-13936000D01*
X18100099Y-14090000D02*
X18200099Y-14190000D01*
X18200099Y-14090000D02*
X18100099Y-14190000D01*
X18354099Y-13836000D02*
X18454099Y-13936000D01*
X18454099Y-13836000D02*
X18354099Y-13936000D01*
X18354099Y-14090000D02*
X18454099Y-14190000D01*
X18454099Y-14090000D02*
X18354099Y-14190000D01*
X18608099Y-13836000D02*
X18708099Y-13936000D01*
X18708099Y-13836000D02*
X18608099Y-13936000D01*
X18608099Y-14090000D02*
X18708099Y-14190000D01*
X18708099Y-14090000D02*
X18608099Y-14190000D01*
X18862099Y-13836000D02*
X18962099Y-13936000D01*
X18962099Y-13836000D02*
X18862099Y-13936000D01*
X18862099Y-14090000D02*
X18962099Y-14190000D01*
X18962099Y-14090000D02*
X18862099Y-14190000D01*
X19116099Y-13836000D02*
X19216099Y-13936000D01*
X19216099Y-13836000D02*
X19116099Y-13936000D01*
X19116099Y-14090000D02*
X19216099Y-14190000D01*
X19216099Y-14090000D02*
X19116099Y-14190000D01*
X19370099Y-13836000D02*
X19470099Y-13936000D01*
X19470099Y-13836000D02*
X19370099Y-13936000D01*
X19370099Y-14090000D02*
X19470099Y-14190000D01*
X19470099Y-14090000D02*
X19370099Y-14190000D01*
X19624099Y-13836000D02*
X19724099Y-13936000D01*
X19724099Y-13836000D02*
X19624099Y-13936000D01*
X19624099Y-14090000D02*
X19724099Y-14190000D01*
X19724099Y-14090000D02*
X19624099Y-14190000D01*
X19878099Y-13836000D02*
X19978099Y-13936000D01*
X19978099Y-13836000D02*
X19878099Y-13936000D01*
X19878099Y-14090000D02*
X19978099Y-14190000D01*
X19978099Y-14090000D02*
X19878099Y-14190000D01*
X20132099Y-13836000D02*
X20232099Y-13936000D01*
X20232099Y-13836000D02*
X20132099Y-13936000D01*
X20132099Y-14090000D02*
X20232099Y-14190000D01*
X20232099Y-14090000D02*
X20132099Y-14190000D01*
X20386099Y-13836000D02*
X20486099Y-13936000D01*
X20486099Y-13836000D02*
X20386099Y-13936000D01*
X20386099Y-14090000D02*
X20486099Y-14190000D01*
X20486099Y-14090000D02*
X20386099Y-14190000D01*
X20640099Y-13836000D02*
X20740099Y-13936000D01*
X20740099Y-13836000D02*
X20640099Y-13936000D01*
X20640099Y-14090000D02*
X20740099Y-14190000D01*
X20740099Y-14090000D02*
X20640099Y-14190000D01*
X20894099Y-13836000D02*
X20994099Y-13936000D01*
X20994099Y-13836000D02*
X20894099Y-13936000D01*
X20894099Y-14090000D02*
X20994099Y-14190000D01*
X20994099Y-14090000D02*
X20894099Y-14190000D01*
X21148099Y-13836000D02*
X21248099Y-13936000D01*
X21248099Y-13836000D02*
X21148099Y-13936000D01*
X21148099Y-14090000D02*
X21248099Y-14190000D01*
X21248099Y-14090000D02*
X21148099Y-14190000D01*
X21402099Y-13836000D02*
X21502099Y-13936000D01*
X21502099Y-13836000D02*
X21402099Y-13936000D01*
X21402099Y-14090000D02*
X21502099Y-14190000D01*
X21502099Y-14090000D02*
X21402099Y-14190000D01*
X21656099Y-13836000D02*
X21756099Y-13936000D01*
X21756099Y-13836000D02*
X21656099Y-13936000D01*
X21656099Y-14090000D02*
X21756099Y-14190000D01*
X21756099Y-14090000D02*
X21656099Y-14190000D01*
X21910099Y-13836000D02*
X22010099Y-13936000D01*
X22010099Y-13836000D02*
X21910099Y-13936000D01*
X21910099Y-14090000D02*
X22010099Y-14190000D01*
X22010099Y-14090000D02*
X21910099Y-14190000D01*
X22164099Y-13836000D02*
X22264099Y-13936000D01*
X22264099Y-13836000D02*
X22164099Y-13936000D01*
X22164099Y-14090000D02*
X22264099Y-14190000D01*
X22264099Y-14090000D02*
X22164099Y-14190000D01*
X22418099Y-13836000D02*
X22518099Y-13936000D01*
X22518099Y-13836000D02*
X22418099Y-13936000D01*
X22418099Y-14090000D02*
X22518099Y-14190000D01*
X22518099Y-14090000D02*
X22418099Y-14190000D01*
X22799099Y-14090000D02*
X22899099Y-14190000D01*
X22899099Y-14090000D02*
X22799099Y-14190000D01*
X22799099Y-14344000D02*
X22899099Y-14444000D01*
X22899099Y-14344000D02*
X22799099Y-14444000D01*
D11*
X7043777Y-16256484D02*
X7043777Y-16056484D01*
X7043777Y-16056484D02*
X7091396Y-16056484D01*
X7091396Y-16056484D02*
X7119967Y-16066008D01*
X7119967Y-16066008D02*
X7139015Y-16085055D01*
X7139015Y-16085055D02*
X7148539Y-16104103D01*
X7148539Y-16104103D02*
X7158062Y-16142198D01*
X7158062Y-16142198D02*
X7158062Y-16170769D01*
X7158062Y-16170769D02*
X7148539Y-16208865D01*
X7148539Y-16208865D02*
X7139015Y-16227912D01*
X7139015Y-16227912D02*
X7119967Y-16246960D01*
X7119967Y-16246960D02*
X7091396Y-16256484D01*
X7091396Y-16256484D02*
X7043777Y-16256484D01*
X7243777Y-16256484D02*
X7243777Y-16123150D01*
X7243777Y-16161246D02*
X7253301Y-16142198D01*
X7253301Y-16142198D02*
X7262824Y-16132674D01*
X7262824Y-16132674D02*
X7281872Y-16123150D01*
X7281872Y-16123150D02*
X7300920Y-16123150D01*
X7367586Y-16256484D02*
X7367586Y-16123150D01*
X7367586Y-16056484D02*
X7358062Y-16066008D01*
X7358062Y-16066008D02*
X7367586Y-16075531D01*
X7367586Y-16075531D02*
X7377110Y-16066008D01*
X7377110Y-16066008D02*
X7367586Y-16056484D01*
X7367586Y-16056484D02*
X7367586Y-16075531D01*
X7491396Y-16256484D02*
X7472348Y-16246960D01*
X7472348Y-16246960D02*
X7462824Y-16227912D01*
X7462824Y-16227912D02*
X7462824Y-16056484D01*
X7596158Y-16256484D02*
X7577110Y-16246960D01*
X7577110Y-16246960D02*
X7567586Y-16227912D01*
X7567586Y-16227912D02*
X7567586Y-16056484D01*
X7824729Y-16256484D02*
X7824729Y-16056484D01*
X7824729Y-16056484D02*
X7891396Y-16199341D01*
X7891396Y-16199341D02*
X7958062Y-16056484D01*
X7958062Y-16056484D02*
X7958062Y-16256484D01*
X8139015Y-16256484D02*
X8139015Y-16151722D01*
X8139015Y-16151722D02*
X8129491Y-16132674D01*
X8129491Y-16132674D02*
X8110443Y-16123150D01*
X8110443Y-16123150D02*
X8072348Y-16123150D01*
X8072348Y-16123150D02*
X8053301Y-16132674D01*
X8139015Y-16246960D02*
X8119967Y-16256484D01*
X8119967Y-16256484D02*
X8072348Y-16256484D01*
X8072348Y-16256484D02*
X8053301Y-16246960D01*
X8053301Y-16246960D02*
X8043777Y-16227912D01*
X8043777Y-16227912D02*
X8043777Y-16208865D01*
X8043777Y-16208865D02*
X8053301Y-16189817D01*
X8053301Y-16189817D02*
X8072348Y-16180293D01*
X8072348Y-16180293D02*
X8119967Y-16180293D01*
X8119967Y-16180293D02*
X8139015Y-16170769D01*
X8234253Y-16123150D02*
X8234253Y-16323150D01*
X8234253Y-16132674D02*
X8253301Y-16123150D01*
X8253301Y-16123150D02*
X8291396Y-16123150D01*
X8291396Y-16123150D02*
X8310443Y-16132674D01*
X8310443Y-16132674D02*
X8319967Y-16142198D01*
X8319967Y-16142198D02*
X8329491Y-16161246D01*
X8329491Y-16161246D02*
X8329491Y-16218388D01*
X8329491Y-16218388D02*
X8319967Y-16237436D01*
X8319967Y-16237436D02*
X8310443Y-16246960D01*
X8310443Y-16246960D02*
X8291396Y-16256484D01*
X8291396Y-16256484D02*
X8253301Y-16256484D01*
X8253301Y-16256484D02*
X8234253Y-16246960D01*
X8415205Y-16237436D02*
X8424729Y-16246960D01*
X8424729Y-16246960D02*
X8415205Y-16256484D01*
X8415205Y-16256484D02*
X8405682Y-16246960D01*
X8405682Y-16246960D02*
X8415205Y-16237436D01*
X8415205Y-16237436D02*
X8415205Y-16256484D01*
X8415205Y-16132674D02*
X8424729Y-16142198D01*
X8424729Y-16142198D02*
X8415205Y-16151722D01*
X8415205Y-16151722D02*
X8405682Y-16142198D01*
X8405682Y-16142198D02*
X8415205Y-16132674D01*
X8415205Y-16132674D02*
X8415205Y-16151722D01*
D10*
X6683000Y-16535000D02*
X6783000Y-16635000D01*
X6783000Y-16535000D02*
X6683000Y-16635000D01*
D11*
X7148539Y-16676484D02*
X7034253Y-16676484D01*
X7091396Y-16676484D02*
X7091396Y-16476484D01*
X7091396Y-16476484D02*
X7072348Y-16505055D01*
X7072348Y-16505055D02*
X7053301Y-16524103D01*
X7053301Y-16524103D02*
X7034253Y-16533627D01*
X7243777Y-16666960D02*
X7243777Y-16676484D01*
X7243777Y-16676484D02*
X7234253Y-16695531D01*
X7234253Y-16695531D02*
X7224729Y-16705055D01*
X7367586Y-16476484D02*
X7386634Y-16476484D01*
X7386634Y-16476484D02*
X7405682Y-16486008D01*
X7405682Y-16486008D02*
X7415205Y-16495531D01*
X7415205Y-16495531D02*
X7424729Y-16514579D01*
X7424729Y-16514579D02*
X7434253Y-16552674D01*
X7434253Y-16552674D02*
X7434253Y-16600293D01*
X7434253Y-16600293D02*
X7424729Y-16638388D01*
X7424729Y-16638388D02*
X7415205Y-16657436D01*
X7415205Y-16657436D02*
X7405682Y-16666960D01*
X7405682Y-16666960D02*
X7386634Y-16676484D01*
X7386634Y-16676484D02*
X7367586Y-16676484D01*
X7367586Y-16676484D02*
X7348539Y-16666960D01*
X7348539Y-16666960D02*
X7339015Y-16657436D01*
X7339015Y-16657436D02*
X7329491Y-16638388D01*
X7329491Y-16638388D02*
X7319967Y-16600293D01*
X7319967Y-16600293D02*
X7319967Y-16552674D01*
X7319967Y-16552674D02*
X7329491Y-16514579D01*
X7329491Y-16514579D02*
X7339015Y-16495531D01*
X7339015Y-16495531D02*
X7348539Y-16486008D01*
X7348539Y-16486008D02*
X7367586Y-16476484D01*
X7558062Y-16476484D02*
X7577110Y-16476484D01*
X7577110Y-16476484D02*
X7596158Y-16486008D01*
X7596158Y-16486008D02*
X7605682Y-16495531D01*
X7605682Y-16495531D02*
X7615205Y-16514579D01*
X7615205Y-16514579D02*
X7624729Y-16552674D01*
X7624729Y-16552674D02*
X7624729Y-16600293D01*
X7624729Y-16600293D02*
X7615205Y-16638388D01*
X7615205Y-16638388D02*
X7605682Y-16657436D01*
X7605682Y-16657436D02*
X7596158Y-16666960D01*
X7596158Y-16666960D02*
X7577110Y-16676484D01*
X7577110Y-16676484D02*
X7558062Y-16676484D01*
X7558062Y-16676484D02*
X7539015Y-16666960D01*
X7539015Y-16666960D02*
X7529491Y-16657436D01*
X7529491Y-16657436D02*
X7519967Y-16638388D01*
X7519967Y-16638388D02*
X7510443Y-16600293D01*
X7510443Y-16600293D02*
X7510443Y-16552674D01*
X7510443Y-16552674D02*
X7519967Y-16514579D01*
X7519967Y-16514579D02*
X7529491Y-16495531D01*
X7529491Y-16495531D02*
X7539015Y-16486008D01*
X7539015Y-16486008D02*
X7558062Y-16476484D01*
X7748539Y-16476484D02*
X7767586Y-16476484D01*
X7767586Y-16476484D02*
X7786634Y-16486008D01*
X7786634Y-16486008D02*
X7796158Y-16495531D01*
X7796158Y-16495531D02*
X7805682Y-16514579D01*
X7805682Y-16514579D02*
X7815205Y-16552674D01*
X7815205Y-16552674D02*
X7815205Y-16600293D01*
X7815205Y-16600293D02*
X7805682Y-16638388D01*
X7805682Y-16638388D02*
X7796158Y-16657436D01*
X7796158Y-16657436D02*
X7786634Y-16666960D01*
X7786634Y-16666960D02*
X7767586Y-16676484D01*
X7767586Y-16676484D02*
X7748539Y-16676484D01*
X7748539Y-16676484D02*
X7729491Y-16666960D01*
X7729491Y-16666960D02*
X7719967Y-16657436D01*
X7719967Y-16657436D02*
X7710443Y-16638388D01*
X7710443Y-16638388D02*
X7700920Y-16600293D01*
X7700920Y-16600293D02*
X7700920Y-16552674D01*
X7700920Y-16552674D02*
X7710443Y-16514579D01*
X7710443Y-16514579D02*
X7719967Y-16495531D01*
X7719967Y-16495531D02*
X7729491Y-16486008D01*
X7729491Y-16486008D02*
X7748539Y-16476484D01*
X7900920Y-16676484D02*
X7900920Y-16543150D01*
X7900920Y-16562198D02*
X7910443Y-16552674D01*
X7910443Y-16552674D02*
X7929491Y-16543150D01*
X7929491Y-16543150D02*
X7958063Y-16543150D01*
X7958063Y-16543150D02*
X7977110Y-16552674D01*
X7977110Y-16552674D02*
X7986634Y-16571722D01*
X7986634Y-16571722D02*
X7986634Y-16676484D01*
X7986634Y-16571722D02*
X7996158Y-16552674D01*
X7996158Y-16552674D02*
X8015205Y-16543150D01*
X8015205Y-16543150D02*
X8043777Y-16543150D01*
X8043777Y-16543150D02*
X8062824Y-16552674D01*
X8062824Y-16552674D02*
X8072348Y-16571722D01*
X8072348Y-16571722D02*
X8072348Y-16676484D01*
X8167586Y-16676484D02*
X8167586Y-16543150D01*
X8167586Y-16562198D02*
X8177110Y-16552674D01*
X8177110Y-16552674D02*
X8196158Y-16543150D01*
X8196158Y-16543150D02*
X8224729Y-16543150D01*
X8224729Y-16543150D02*
X8243777Y-16552674D01*
X8243777Y-16552674D02*
X8253301Y-16571722D01*
X8253301Y-16571722D02*
X8253301Y-16676484D01*
X8253301Y-16571722D02*
X8262824Y-16552674D01*
X8262824Y-16552674D02*
X8281872Y-16543150D01*
X8281872Y-16543150D02*
X8310443Y-16543150D01*
X8310443Y-16543150D02*
X8329491Y-16552674D01*
X8329491Y-16552674D02*
X8339015Y-16571722D01*
X8339015Y-16571722D02*
X8339015Y-16676484D01*
X8729491Y-16466960D02*
X8558063Y-16724103D01*
X8986634Y-16476484D02*
X9005682Y-16476484D01*
X9005682Y-16476484D02*
X9024729Y-16486008D01*
X9024729Y-16486008D02*
X9034253Y-16495531D01*
X9034253Y-16495531D02*
X9043777Y-16514579D01*
X9043777Y-16514579D02*
X9053301Y-16552674D01*
X9053301Y-16552674D02*
X9053301Y-16600293D01*
X9053301Y-16600293D02*
X9043777Y-16638388D01*
X9043777Y-16638388D02*
X9034253Y-16657436D01*
X9034253Y-16657436D02*
X9024729Y-16666960D01*
X9024729Y-16666960D02*
X9005682Y-16676484D01*
X9005682Y-16676484D02*
X8986634Y-16676484D01*
X8986634Y-16676484D02*
X8967587Y-16666960D01*
X8967587Y-16666960D02*
X8958063Y-16657436D01*
X8958063Y-16657436D02*
X8948539Y-16638388D01*
X8948539Y-16638388D02*
X8939015Y-16600293D01*
X8939015Y-16600293D02*
X8939015Y-16552674D01*
X8939015Y-16552674D02*
X8948539Y-16514579D01*
X8948539Y-16514579D02*
X8958063Y-16495531D01*
X8958063Y-16495531D02*
X8967587Y-16486008D01*
X8967587Y-16486008D02*
X8986634Y-16476484D01*
X9148539Y-16666960D02*
X9148539Y-16676484D01*
X9148539Y-16676484D02*
X9139015Y-16695531D01*
X9139015Y-16695531D02*
X9129491Y-16705055D01*
X9272348Y-16476484D02*
X9291396Y-16476484D01*
X9291396Y-16476484D02*
X9310444Y-16486008D01*
X9310444Y-16486008D02*
X9319968Y-16495531D01*
X9319968Y-16495531D02*
X9329491Y-16514579D01*
X9329491Y-16514579D02*
X9339015Y-16552674D01*
X9339015Y-16552674D02*
X9339015Y-16600293D01*
X9339015Y-16600293D02*
X9329491Y-16638388D01*
X9329491Y-16638388D02*
X9319968Y-16657436D01*
X9319968Y-16657436D02*
X9310444Y-16666960D01*
X9310444Y-16666960D02*
X9291396Y-16676484D01*
X9291396Y-16676484D02*
X9272348Y-16676484D01*
X9272348Y-16676484D02*
X9253301Y-16666960D01*
X9253301Y-16666960D02*
X9243777Y-16657436D01*
X9243777Y-16657436D02*
X9234253Y-16638388D01*
X9234253Y-16638388D02*
X9224729Y-16600293D01*
X9224729Y-16600293D02*
X9224729Y-16552674D01*
X9224729Y-16552674D02*
X9234253Y-16514579D01*
X9234253Y-16514579D02*
X9243777Y-16495531D01*
X9243777Y-16495531D02*
X9253301Y-16486008D01*
X9253301Y-16486008D02*
X9272348Y-16476484D01*
X9405682Y-16476484D02*
X9529491Y-16476484D01*
X9529491Y-16476484D02*
X9462825Y-16552674D01*
X9462825Y-16552674D02*
X9491396Y-16552674D01*
X9491396Y-16552674D02*
X9510444Y-16562198D01*
X9510444Y-16562198D02*
X9519968Y-16571722D01*
X9519968Y-16571722D02*
X9529491Y-16590769D01*
X9529491Y-16590769D02*
X9529491Y-16638388D01*
X9529491Y-16638388D02*
X9519968Y-16657436D01*
X9519968Y-16657436D02*
X9510444Y-16666960D01*
X9510444Y-16666960D02*
X9491396Y-16676484D01*
X9491396Y-16676484D02*
X9434253Y-16676484D01*
X9434253Y-16676484D02*
X9415206Y-16666960D01*
X9415206Y-16666960D02*
X9405682Y-16657436D01*
X9624729Y-16676484D02*
X9662825Y-16676484D01*
X9662825Y-16676484D02*
X9681872Y-16666960D01*
X9681872Y-16666960D02*
X9691396Y-16657436D01*
X9691396Y-16657436D02*
X9710444Y-16628865D01*
X9710444Y-16628865D02*
X9719968Y-16590769D01*
X9719968Y-16590769D02*
X9719968Y-16514579D01*
X9719968Y-16514579D02*
X9710444Y-16495531D01*
X9710444Y-16495531D02*
X9700920Y-16486008D01*
X9700920Y-16486008D02*
X9681872Y-16476484D01*
X9681872Y-16476484D02*
X9643777Y-16476484D01*
X9643777Y-16476484D02*
X9624729Y-16486008D01*
X9624729Y-16486008D02*
X9615206Y-16495531D01*
X9615206Y-16495531D02*
X9605682Y-16514579D01*
X9605682Y-16514579D02*
X9605682Y-16562198D01*
X9605682Y-16562198D02*
X9615206Y-16581246D01*
X9615206Y-16581246D02*
X9624729Y-16590769D01*
X9624729Y-16590769D02*
X9643777Y-16600293D01*
X9643777Y-16600293D02*
X9681872Y-16600293D01*
X9681872Y-16600293D02*
X9700920Y-16590769D01*
X9700920Y-16590769D02*
X9710444Y-16581246D01*
X9710444Y-16581246D02*
X9719968Y-16562198D01*
X9891396Y-16543150D02*
X9891396Y-16676484D01*
X9843777Y-16466960D02*
X9796158Y-16609817D01*
X9796158Y-16609817D02*
X9919968Y-16609817D01*
X9986634Y-16476484D02*
X9986634Y-16514579D01*
X10062825Y-16476484D02*
X10062825Y-16514579D01*
X10358063Y-16752674D02*
X10348539Y-16743150D01*
X10348539Y-16743150D02*
X10329491Y-16714579D01*
X10329491Y-16714579D02*
X10319968Y-16695531D01*
X10319968Y-16695531D02*
X10310444Y-16666960D01*
X10310444Y-16666960D02*
X10300920Y-16619341D01*
X10300920Y-16619341D02*
X10300920Y-16581246D01*
X10300920Y-16581246D02*
X10310444Y-16533627D01*
X10310444Y-16533627D02*
X10319968Y-16505055D01*
X10319968Y-16505055D02*
X10329491Y-16486008D01*
X10329491Y-16486008D02*
X10348539Y-16457436D01*
X10348539Y-16457436D02*
X10358063Y-16447912D01*
X10539015Y-16676484D02*
X10424730Y-16676484D01*
X10481872Y-16676484D02*
X10481872Y-16476484D01*
X10481872Y-16476484D02*
X10462825Y-16505055D01*
X10462825Y-16505055D02*
X10443777Y-16524103D01*
X10443777Y-16524103D02*
X10424730Y-16533627D01*
X10729491Y-16676484D02*
X10615206Y-16676484D01*
X10672349Y-16676484D02*
X10672349Y-16476484D01*
X10672349Y-16476484D02*
X10653301Y-16505055D01*
X10653301Y-16505055D02*
X10634253Y-16524103D01*
X10634253Y-16524103D02*
X10615206Y-16533627D01*
X10805682Y-16495531D02*
X10815206Y-16486008D01*
X10815206Y-16486008D02*
X10834253Y-16476484D01*
X10834253Y-16476484D02*
X10881872Y-16476484D01*
X10881872Y-16476484D02*
X10900920Y-16486008D01*
X10900920Y-16486008D02*
X10910444Y-16495531D01*
X10910444Y-16495531D02*
X10919968Y-16514579D01*
X10919968Y-16514579D02*
X10919968Y-16533627D01*
X10919968Y-16533627D02*
X10910444Y-16562198D01*
X10910444Y-16562198D02*
X10796158Y-16676484D01*
X10796158Y-16676484D02*
X10919968Y-16676484D01*
X11158063Y-16676484D02*
X11158063Y-16476484D01*
X11243777Y-16676484D02*
X11243777Y-16571722D01*
X11243777Y-16571722D02*
X11234253Y-16552674D01*
X11234253Y-16552674D02*
X11215206Y-16543150D01*
X11215206Y-16543150D02*
X11186634Y-16543150D01*
X11186634Y-16543150D02*
X11167587Y-16552674D01*
X11167587Y-16552674D02*
X11158063Y-16562198D01*
X11367587Y-16676484D02*
X11348539Y-16666960D01*
X11348539Y-16666960D02*
X11339015Y-16657436D01*
X11339015Y-16657436D02*
X11329491Y-16638388D01*
X11329491Y-16638388D02*
X11329491Y-16581246D01*
X11329491Y-16581246D02*
X11339015Y-16562198D01*
X11339015Y-16562198D02*
X11348539Y-16552674D01*
X11348539Y-16552674D02*
X11367587Y-16543150D01*
X11367587Y-16543150D02*
X11396158Y-16543150D01*
X11396158Y-16543150D02*
X11415206Y-16552674D01*
X11415206Y-16552674D02*
X11424730Y-16562198D01*
X11424730Y-16562198D02*
X11434253Y-16581246D01*
X11434253Y-16581246D02*
X11434253Y-16638388D01*
X11434253Y-16638388D02*
X11424730Y-16657436D01*
X11424730Y-16657436D02*
X11415206Y-16666960D01*
X11415206Y-16666960D02*
X11396158Y-16676484D01*
X11396158Y-16676484D02*
X11367587Y-16676484D01*
X11548539Y-16676484D02*
X11529491Y-16666960D01*
X11529491Y-16666960D02*
X11519968Y-16647912D01*
X11519968Y-16647912D02*
X11519968Y-16476484D01*
X11700920Y-16666960D02*
X11681872Y-16676484D01*
X11681872Y-16676484D02*
X11643777Y-16676484D01*
X11643777Y-16676484D02*
X11624730Y-16666960D01*
X11624730Y-16666960D02*
X11615206Y-16647912D01*
X11615206Y-16647912D02*
X11615206Y-16571722D01*
X11615206Y-16571722D02*
X11624730Y-16552674D01*
X11624730Y-16552674D02*
X11643777Y-16543150D01*
X11643777Y-16543150D02*
X11681872Y-16543150D01*
X11681872Y-16543150D02*
X11700920Y-16552674D01*
X11700920Y-16552674D02*
X11710444Y-16571722D01*
X11710444Y-16571722D02*
X11710444Y-16590769D01*
X11710444Y-16590769D02*
X11615206Y-16609817D01*
X11786634Y-16666960D02*
X11805682Y-16676484D01*
X11805682Y-16676484D02*
X11843777Y-16676484D01*
X11843777Y-16676484D02*
X11862825Y-16666960D01*
X11862825Y-16666960D02*
X11872349Y-16647912D01*
X11872349Y-16647912D02*
X11872349Y-16638388D01*
X11872349Y-16638388D02*
X11862825Y-16619341D01*
X11862825Y-16619341D02*
X11843777Y-16609817D01*
X11843777Y-16609817D02*
X11815206Y-16609817D01*
X11815206Y-16609817D02*
X11796158Y-16600293D01*
X11796158Y-16600293D02*
X11786634Y-16581246D01*
X11786634Y-16581246D02*
X11786634Y-16571722D01*
X11786634Y-16571722D02*
X11796158Y-16552674D01*
X11796158Y-16552674D02*
X11815206Y-16543150D01*
X11815206Y-16543150D02*
X11843777Y-16543150D01*
X11843777Y-16543150D02*
X11862825Y-16552674D01*
X11939015Y-16752674D02*
X11948539Y-16743150D01*
X11948539Y-16743150D02*
X11967587Y-16714579D01*
X11967587Y-16714579D02*
X11977111Y-16695531D01*
X11977111Y-16695531D02*
X11986634Y-16666960D01*
X11986634Y-16666960D02*
X11996158Y-16619341D01*
X11996158Y-16619341D02*
X11996158Y-16581246D01*
X11996158Y-16581246D02*
X11986634Y-16533627D01*
X11986634Y-16533627D02*
X11977111Y-16505055D01*
X11977111Y-16505055D02*
X11967587Y-16486008D01*
X11967587Y-16486008D02*
X11948539Y-16457436D01*
X11948539Y-16457436D02*
X11939015Y-16447912D01*
M02*
