G04 #@! TF.GenerationSoftware,KiCad,Pcbnew,10.0.3*
G04 #@! TF.CreationDate,2026-09-24T15:50:35+02:00*
G04 #@! TF.ProjectId,neocart_blank_cha,6e656f63-6172-4745-9f62-6c616e6b5f63,rev?*
G04 #@! TF.SameCoordinates,Original*
G04 #@! TF.FileFunction,Copper,L1,Top*
G04 #@! TF.FilePolarity,Positive*
%FSLAX46Y46*%
G04 Gerber Fmt 4.6, Leading zero omitted, Abs format (unit mm)*
G04 Created by KiCad (PCBNEW 10.0.3) date 2026-09-24 15:50:35*
%MOMM*%
%LPD*%
G01*
G04 APERTURE LIST*
G04 Aperture macros list*
%AMFreePoly0*
4,1,11,0.750000,-5.000000,0.421000,-5.000000,0.127000,-5.588000,0.127000,-6.350000,-0.127000,-6.350000,-0.127000,-5.588000,-0.421000,-5.000000,-0.750000,-5.000000,-0.750000,5.000000,0.750000,5.000000,0.750000,-5.000000,0.750000,-5.000000,$1*%
G04 Aperture macros list end*
G04 #@! TA.AperFunction,ConnectorPad*
%ADD10FreePoly0,0.000000*%
G04 #@! TD*
G04 #@! TA.AperFunction,ComponentPad*
%ADD11O,1.700000X1.700000*%
G04 #@! TD*
G04 #@! TA.AperFunction,Conductor*
%ADD12C,0.250000*%
G04 #@! TD*
G04 APERTURE END LIST*
D10*
X229760993Y-152300000D03*
X227220993Y-152300000D03*
X224680993Y-152300000D03*
X222140993Y-152300000D03*
X219600993Y-152300000D03*
X217060993Y-152300000D03*
X214520993Y-152300000D03*
X211980993Y-152300000D03*
X209440993Y-152300000D03*
X206900993Y-152300000D03*
X204360993Y-152300000D03*
X201820993Y-152300000D03*
X199280993Y-152300000D03*
X196740993Y-152300000D03*
X194200993Y-152300000D03*
X191660993Y-152300000D03*
X189120993Y-152300000D03*
X186580993Y-152300000D03*
X184040993Y-152300000D03*
X181500993Y-152300000D03*
X178960993Y-152300000D03*
X176420993Y-152300000D03*
X173880993Y-152300000D03*
X171340993Y-152300000D03*
X168800993Y-152300000D03*
X166260993Y-152300000D03*
X163720993Y-152300000D03*
X161180993Y-152300000D03*
X158640993Y-152300000D03*
X156100993Y-152300000D03*
X153560993Y-152300000D03*
X151020993Y-152300000D03*
X148480993Y-152300000D03*
X145940993Y-152300000D03*
X143400993Y-152300000D03*
X140860993Y-152300000D03*
X138320993Y-152300000D03*
X135780993Y-152300000D03*
X133240993Y-152300000D03*
X130700993Y-152300000D03*
X128160993Y-152300000D03*
X125620993Y-152300000D03*
X123080993Y-152300000D03*
X120540993Y-152300000D03*
X118000993Y-152300000D03*
X115460993Y-152300000D03*
X112920993Y-152300000D03*
X110380993Y-152300000D03*
X107840993Y-152300000D03*
X105300993Y-152300000D03*
X102760993Y-152300000D03*
X100220993Y-152300000D03*
X97680993Y-152300000D03*
X95140993Y-152300000D03*
X92600993Y-152300000D03*
X90060993Y-152300000D03*
X87520993Y-152300000D03*
X84980993Y-152300000D03*
X82440993Y-152300000D03*
X79900993Y-152300000D03*
D11*
X228490993Y-141400000D03*
X224680993Y-138860000D03*
X222140993Y-138860000D03*
X219600993Y-138860000D03*
X217060993Y-138860000D03*
X214520993Y-138860000D03*
X211980993Y-138860000D03*
X209440993Y-138860000D03*
X206900993Y-138860000D03*
X204360993Y-138860000D03*
X201820993Y-138860000D03*
X199280993Y-138860000D03*
X196740993Y-138860000D03*
X194200993Y-138860000D03*
X191660993Y-138860000D03*
X189120993Y-138860000D03*
X186580993Y-138860000D03*
X184040993Y-138860000D03*
X181500993Y-138860000D03*
X178960993Y-138860000D03*
X176420993Y-138860000D03*
X173880993Y-138860000D03*
X171340993Y-138860000D03*
X168800993Y-138860000D03*
X166260993Y-138860000D03*
X163720993Y-138860000D03*
X161180993Y-138860000D03*
X156100993Y-141400000D03*
X153560993Y-141400000D03*
X148480993Y-138860000D03*
X145940993Y-138860000D03*
X143400993Y-138860000D03*
X140860993Y-138860000D03*
X138320993Y-138860000D03*
X135780993Y-138860000D03*
X133240993Y-138860000D03*
X130700993Y-138860000D03*
X128160993Y-138860000D03*
X125620993Y-138860000D03*
X123080993Y-138860000D03*
X120540993Y-138860000D03*
X118000993Y-138860000D03*
X115460993Y-138860000D03*
X112920993Y-138860000D03*
X110380993Y-138860000D03*
X107840993Y-138860000D03*
X105300993Y-138860000D03*
X102760993Y-138860000D03*
X100220993Y-138860000D03*
X97680993Y-138860000D03*
X95140993Y-138860000D03*
X92600993Y-138860000D03*
X90060993Y-138860000D03*
X87520993Y-138860000D03*
X84980993Y-138860000D03*
X81170993Y-141400000D03*
X228490993Y-143940000D03*
X224680993Y-141400000D03*
X222140993Y-141400000D03*
X219600993Y-141400000D03*
X217060993Y-141400000D03*
X214520993Y-141400000D03*
X211980993Y-141400000D03*
X209440993Y-141400000D03*
X206900993Y-141400000D03*
X204360993Y-141400000D03*
X201820993Y-141400000D03*
X199280993Y-141400000D03*
X196740993Y-141400000D03*
X194200993Y-141400000D03*
X191660993Y-141400000D03*
X189120993Y-141400000D03*
X186580993Y-141400000D03*
X184040993Y-141400000D03*
X181500993Y-141400000D03*
X178960993Y-141400000D03*
X176420993Y-141400000D03*
X173880993Y-141400000D03*
X171340993Y-141400000D03*
X168800993Y-141400000D03*
X166260993Y-141400000D03*
X163720993Y-141400000D03*
X161180993Y-141400000D03*
X156100993Y-143940000D03*
X153560993Y-143940000D03*
X148480993Y-141400000D03*
X145940993Y-141400000D03*
X143400993Y-141400000D03*
X140860993Y-141400000D03*
X138320993Y-141400000D03*
X135780993Y-141400000D03*
X133240993Y-141400000D03*
X130700993Y-141400000D03*
X128160993Y-141400000D03*
X125620993Y-141400000D03*
X123080993Y-141400000D03*
X120540993Y-141400000D03*
X118000993Y-141400000D03*
X115460993Y-141400000D03*
X112920993Y-141400000D03*
X110380993Y-141400000D03*
X107840993Y-141400000D03*
X105300993Y-141400000D03*
X102760993Y-141400000D03*
X100220993Y-141400000D03*
X97680993Y-141400000D03*
X95140993Y-141400000D03*
X92600993Y-141400000D03*
X90060993Y-141400000D03*
X87520993Y-141400000D03*
X84980993Y-141400000D03*
X81170993Y-143940000D03*
D12*
X79901000Y-152300000D02*
X81171000Y-143940000D01*
X229761000Y-152300000D02*
X229761000Y-145350000D01*
X79901000Y-152300000D02*
X79901000Y-145350000D01*
X227221000Y-152300000D02*
X227221000Y-145350000D01*
X82441000Y-152300000D02*
X82441000Y-145350000D01*
X228491000Y-143940000D02*
X228491000Y-141400000D01*
X81171000Y-143940000D02*
X81171000Y-141400000D01*
X229761000Y-152300000D02*
X228491000Y-143940000D01*
X224681000Y-152300000D02*
X224681000Y-141400000D01*
X222141000Y-152300000D02*
X222141000Y-141400000D01*
X219601000Y-152300000D02*
X219601000Y-141400000D01*
X217061000Y-152300000D02*
X217061000Y-141400000D01*
X214521000Y-152300000D02*
X214521000Y-141400000D01*
X211981000Y-152300000D02*
X211981000Y-141400000D01*
X209441000Y-152300000D02*
X209441000Y-141400000D01*
X206901000Y-152300000D02*
X206901000Y-141400000D01*
X204361000Y-152300000D02*
X204361000Y-141400000D01*
X201821000Y-152300000D02*
X201821000Y-141400000D01*
X199281000Y-152300000D02*
X199281000Y-141400000D01*
X196741000Y-152300000D02*
X196741000Y-141400000D01*
X194201000Y-152300000D02*
X194201000Y-141400000D01*
X191661000Y-152300000D02*
X191661000Y-141400000D01*
X189121000Y-152300000D02*
X189121000Y-141400000D01*
X186581000Y-152300000D02*
X186581000Y-141400000D01*
X184041000Y-152300000D02*
X184041000Y-141400000D01*
X181501000Y-152300000D02*
X181501000Y-141400000D01*
X178961000Y-152300000D02*
X178961000Y-141400000D01*
X176421000Y-152300000D02*
X176421000Y-141400000D01*
X173881000Y-152300000D02*
X173881000Y-141400000D01*
X171341000Y-152300000D02*
X171341000Y-141400000D01*
X168801000Y-152300000D02*
X168801000Y-141400000D01*
X166261000Y-152300000D02*
X166261000Y-141400000D01*
X163721000Y-152300000D02*
X163721000Y-141400000D01*
X161181000Y-152300000D02*
X161181000Y-141400000D01*
X158641000Y-152300000D02*
X158641000Y-146400000D01*
X153561000Y-152300000D02*
X153561000Y-143940000D01*
X151021000Y-146400000D02*
X158641000Y-146400000D01*
X151021000Y-152300000D02*
X151021000Y-146400000D01*
X153561000Y-152300000D02*
X153561000Y-146400000D01*
X156101000Y-152300000D02*
X156101000Y-146400000D01*
X153561000Y-143940000D02*
X153561000Y-141400000D01*
X156101000Y-143940000D02*
X156101000Y-141400000D01*
X156101000Y-152300000D02*
X156101000Y-143940000D01*
X148481000Y-152300000D02*
X148481000Y-141400000D01*
X145941000Y-152300000D02*
X145941000Y-141400000D01*
X143401000Y-152300000D02*
X143401000Y-141400000D01*
X140861000Y-152300000D02*
X140861000Y-141400000D01*
X138321000Y-152300000D02*
X138321000Y-141400000D01*
X135781000Y-152300000D02*
X135781000Y-141400000D01*
X133241000Y-152300000D02*
X133241000Y-141400000D01*
X130701000Y-152300000D02*
X130701000Y-141400000D01*
X128161000Y-152300000D02*
X128161000Y-141400000D01*
X125621000Y-152300000D02*
X125621000Y-141400000D01*
X123081000Y-152300000D02*
X123081000Y-141400000D01*
X120541000Y-152300000D02*
X120541000Y-141400000D01*
X118001000Y-152300000D02*
X118001000Y-141400000D01*
X115461000Y-152300000D02*
X115461000Y-141400000D01*
X112921000Y-152300000D02*
X112921000Y-141400000D01*
X110381000Y-152300000D02*
X110381000Y-141400000D01*
X107841000Y-152300000D02*
X107841000Y-141400000D01*
X105301000Y-152300000D02*
X105301000Y-141400000D01*
X102761000Y-152300000D02*
X102761000Y-141400000D01*
X100221000Y-152300000D02*
X100221000Y-141400000D01*
X97681000Y-152300000D02*
X97681000Y-141400000D01*
X95141000Y-152300000D02*
X95141000Y-141400000D01*
X92601000Y-152300000D02*
X92601000Y-141400000D01*
X90061000Y-152300000D02*
X90061000Y-141400000D01*
X87521000Y-152300000D02*
X87521000Y-141400000D01*
X84981000Y-152300000D02*
X84981000Y-141400000D01*
G04 #@! TA.AperFunction,Conductor*
G36*
X81370993Y-143478120D02*
G01*
X81363986Y-143474075D01*
X81236819Y-143440000D01*
X81105167Y-143440000D01*
X80978000Y-143474075D01*
X80970993Y-143478120D01*
X80970993Y-141861879D01*
X80978000Y-141865925D01*
X81105167Y-141900000D01*
X81236819Y-141900000D01*
X81363986Y-141865925D01*
X81370993Y-141861879D01*
X81370993Y-143478120D01*
G37*
G04 #@! TD.AperFunction*
G04 #@! TA.AperFunction,Conductor*
G36*
X228690993Y-143478120D02*
G01*
X228683986Y-143474075D01*
X228556819Y-143440000D01*
X228425167Y-143440000D01*
X228298000Y-143474075D01*
X228290993Y-143478120D01*
X228290993Y-141861879D01*
X228298000Y-141865925D01*
X228425167Y-141900000D01*
X228556819Y-141900000D01*
X228683986Y-141865925D01*
X228690993Y-141861879D01*
X228690993Y-143478120D01*
G37*
G04 #@! TD.AperFunction*
G04 #@! TA.AperFunction,Conductor*
G36*
X72773539Y-25920185D02*
G01*
X72819294Y-25972989D01*
X72830500Y-26024500D01*
X72830500Y-27965891D01*
X72864608Y-28093187D01*
X72897554Y-28150250D01*
X72930500Y-28207314D01*
X73023686Y-28300500D01*
X73137814Y-28366392D01*
X73265108Y-28400500D01*
X73265110Y-28400500D01*
X85396890Y-28400500D01*
X85396892Y-28400500D01*
X85524186Y-28366392D01*
X85638314Y-28300500D01*
X85731500Y-28207314D01*
X85797392Y-28093186D01*
X85831500Y-27965892D01*
X85831500Y-26024500D01*
X85851185Y-25957461D01*
X85903989Y-25911706D01*
X85955500Y-25900500D01*
X223706500Y-25900500D01*
X223773539Y-25920185D01*
X223819294Y-25972989D01*
X223830500Y-26024500D01*
X223830500Y-27965891D01*
X223864608Y-28093187D01*
X223897554Y-28150250D01*
X223930500Y-28207314D01*
X224023686Y-28300500D01*
X224137814Y-28366392D01*
X224265108Y-28400500D01*
X224265110Y-28400500D01*
X236396890Y-28400500D01*
X236396892Y-28400500D01*
X236524186Y-28366392D01*
X236638314Y-28300500D01*
X236731500Y-28207314D01*
X236797392Y-28093186D01*
X236831500Y-27965892D01*
X236831500Y-26024500D01*
X236851185Y-25957461D01*
X236903989Y-25911706D01*
X236955500Y-25900500D01*
X241155500Y-25900500D01*
X241222539Y-25920185D01*
X241268294Y-25972989D01*
X241279500Y-26024500D01*
X241279500Y-139775500D01*
X241259815Y-139842539D01*
X241207011Y-139888294D01*
X241155500Y-139899500D01*
X232065108Y-139899500D01*
X231937812Y-139933608D01*
X231823686Y-139999500D01*
X231823683Y-139999502D01*
X231730502Y-140092683D01*
X231730500Y-140092686D01*
X231664608Y-140206812D01*
X231630500Y-140334108D01*
X231630500Y-145826000D01*
X231610815Y-145893039D01*
X231558011Y-145938794D01*
X231506500Y-145950000D01*
X225230500Y-145950000D01*
X225163461Y-145930315D01*
X225117706Y-145877511D01*
X225106500Y-145826000D01*
X225106500Y-142550417D01*
X225126185Y-142483378D01*
X225174204Y-142439933D01*
X225283987Y-142383996D01*
X225430494Y-142277553D01*
X225558546Y-142149501D01*
X225664989Y-142002994D01*
X225747204Y-141841639D01*
X225803164Y-141669409D01*
X225823100Y-141543538D01*
X225831493Y-141490550D01*
X225831493Y-141309449D01*
X225823100Y-141256462D01*
X225823100Y-141256461D01*
X225814157Y-141200000D01*
X227257088Y-141200000D01*
X228029113Y-141200000D01*
X228025068Y-141207007D01*
X227990993Y-141334174D01*
X227990993Y-141465826D01*
X228025068Y-141592993D01*
X228029113Y-141600000D01*
X227257088Y-141600000D01*
X227271771Y-141692705D01*
X227332574Y-141879835D01*
X227421897Y-142055143D01*
X227537548Y-142214321D01*
X227676671Y-142353444D01*
X227835849Y-142469095D01*
X228013308Y-142559515D01*
X228064104Y-142607489D01*
X228080899Y-142675310D01*
X228058362Y-142741445D01*
X228013308Y-142780485D01*
X227835849Y-142870904D01*
X227676671Y-142986555D01*
X227537548Y-143125678D01*
X227421897Y-143284856D01*
X227332574Y-143460164D01*
X227271771Y-143647294D01*
X227257088Y-143740000D01*
X228029113Y-143740000D01*
X228025068Y-143747007D01*
X227990993Y-143874174D01*
X227990993Y-144005826D01*
X228025068Y-144132993D01*
X228029113Y-144140000D01*
X227257088Y-144140000D01*
X227271771Y-144232705D01*
X227332574Y-144419835D01*
X227421897Y-144595143D01*
X227537548Y-144754321D01*
X227676671Y-144893444D01*
X227835849Y-145009095D01*
X228011155Y-145098418D01*
X228198279Y-145159219D01*
X228198285Y-145159221D01*
X228290993Y-145173904D01*
X228290993Y-144401879D01*
X228298000Y-144405925D01*
X228425167Y-144440000D01*
X228556819Y-144440000D01*
X228683986Y-144405925D01*
X228690993Y-144401879D01*
X228690993Y-145173903D01*
X228783700Y-145159221D01*
X228783706Y-145159219D01*
X228970830Y-145098418D01*
X229146136Y-145009095D01*
X229305314Y-144893444D01*
X229444437Y-144754321D01*
X229560088Y-144595143D01*
X229649411Y-144419835D01*
X229710214Y-144232705D01*
X229724898Y-144140000D01*
X228952873Y-144140000D01*
X228956918Y-144132993D01*
X228990993Y-144005826D01*
X228990993Y-143874174D01*
X228956918Y-143747007D01*
X228952873Y-143740000D01*
X229724898Y-143740000D01*
X229710214Y-143647294D01*
X229649411Y-143460164D01*
X229560088Y-143284856D01*
X229444437Y-143125678D01*
X229305314Y-142986555D01*
X229146134Y-142870902D01*
X228968678Y-142780485D01*
X228917881Y-142732511D01*
X228901086Y-142664690D01*
X228923623Y-142598555D01*
X228968678Y-142559515D01*
X229146134Y-142469097D01*
X229305314Y-142353444D01*
X229444437Y-142214321D01*
X229560088Y-142055143D01*
X229649411Y-141879835D01*
X229710214Y-141692705D01*
X229724898Y-141600000D01*
X228952873Y-141600000D01*
X228956918Y-141592993D01*
X228990993Y-141465826D01*
X228990993Y-141334174D01*
X228956918Y-141207007D01*
X228952873Y-141200000D01*
X229724898Y-141200000D01*
X229710214Y-141107294D01*
X229649411Y-140920164D01*
X229560088Y-140744856D01*
X229444437Y-140585678D01*
X229305314Y-140446555D01*
X229146136Y-140330904D01*
X228970828Y-140241581D01*
X228783698Y-140180778D01*
X228690993Y-140166094D01*
X228690993Y-140938120D01*
X228683986Y-140934075D01*
X228556819Y-140900000D01*
X228425167Y-140900000D01*
X228298000Y-140934075D01*
X228290993Y-140938120D01*
X228290993Y-140166094D01*
X228198287Y-140180778D01*
X228011157Y-140241581D01*
X227835849Y-140330904D01*
X227676671Y-140446555D01*
X227537548Y-140585678D01*
X227421897Y-140744856D01*
X227332574Y-140920164D01*
X227271771Y-141107294D01*
X227257088Y-141200000D01*
X225814157Y-141200000D01*
X225803164Y-141130591D01*
X225747204Y-140958361D01*
X225747204Y-140958360D01*
X225700343Y-140866392D01*
X225664989Y-140797006D01*
X225627100Y-140744856D01*
X225558551Y-140650505D01*
X225558547Y-140650500D01*
X225430492Y-140522445D01*
X225430487Y-140522441D01*
X225283990Y-140416006D01*
X225283989Y-140416005D01*
X225283987Y-140416004D01*
X225232293Y-140389664D01*
X225122632Y-140333788D01*
X225122629Y-140333787D01*
X224950403Y-140277829D01*
X224790314Y-140252473D01*
X224727179Y-140222544D01*
X224690248Y-140163232D01*
X224691246Y-140093370D01*
X224729856Y-140035137D01*
X224790314Y-140007527D01*
X224860418Y-139996422D01*
X224950402Y-139982171D01*
X225122632Y-139926211D01*
X225283987Y-139843996D01*
X225430494Y-139737553D01*
X225558546Y-139609501D01*
X225664989Y-139462994D01*
X225747204Y-139301639D01*
X225803164Y-139129409D01*
X225817758Y-139037259D01*
X225831493Y-138950551D01*
X225831493Y-138769448D01*
X225815012Y-138665397D01*
X225803164Y-138590591D01*
X225747204Y-138418361D01*
X225747204Y-138418360D01*
X225718733Y-138362484D01*
X225664989Y-138257006D01*
X225651389Y-138238287D01*
X225558551Y-138110505D01*
X225558547Y-138110500D01*
X225430492Y-137982445D01*
X225430487Y-137982441D01*
X225283990Y-137876006D01*
X225283989Y-137876005D01*
X225283987Y-137876004D01*
X225232293Y-137849664D01*
X225122632Y-137793788D01*
X225122629Y-137793787D01*
X224950403Y-137737829D01*
X224771544Y-137709500D01*
X224771539Y-137709500D01*
X224590447Y-137709500D01*
X224590442Y-137709500D01*
X224411582Y-137737829D01*
X224239356Y-137793787D01*
X224239353Y-137793788D01*
X224077995Y-137876006D01*
X223931498Y-137982441D01*
X223931493Y-137982445D01*
X223803438Y-138110500D01*
X223803434Y-138110505D01*
X223696999Y-138257002D01*
X223614781Y-138418360D01*
X223614780Y-138418363D01*
X223558822Y-138590589D01*
X223533466Y-138750678D01*
X223503537Y-138813813D01*
X223444225Y-138850744D01*
X223374362Y-138849746D01*
X223316130Y-138811136D01*
X223288520Y-138750678D01*
X223274733Y-138663639D01*
X223263164Y-138590591D01*
X223207204Y-138418361D01*
X223207204Y-138418360D01*
X223178733Y-138362484D01*
X223124989Y-138257006D01*
X223111389Y-138238287D01*
X223018551Y-138110505D01*
X223018547Y-138110500D01*
X222890492Y-137982445D01*
X222890487Y-137982441D01*
X222743990Y-137876006D01*
X222743989Y-137876005D01*
X222743987Y-137876004D01*
X222692293Y-137849664D01*
X222582632Y-137793788D01*
X222582629Y-137793787D01*
X222410403Y-137737829D01*
X222231544Y-137709500D01*
X222231539Y-137709500D01*
X222050447Y-137709500D01*
X222050442Y-137709500D01*
X221871582Y-137737829D01*
X221699356Y-137793787D01*
X221699353Y-137793788D01*
X221537995Y-137876006D01*
X221391498Y-137982441D01*
X221391493Y-137982445D01*
X221263438Y-138110500D01*
X221263434Y-138110505D01*
X221156999Y-138257002D01*
X221074781Y-138418360D01*
X221074780Y-138418363D01*
X221018822Y-138590589D01*
X220993466Y-138750678D01*
X220963537Y-138813813D01*
X220904225Y-138850744D01*
X220834362Y-138849746D01*
X220776130Y-138811136D01*
X220748520Y-138750678D01*
X220734733Y-138663639D01*
X220723164Y-138590591D01*
X220667204Y-138418361D01*
X220667204Y-138418360D01*
X220638733Y-138362484D01*
X220584989Y-138257006D01*
X220571389Y-138238287D01*
X220478551Y-138110505D01*
X220478547Y-138110500D01*
X220350492Y-137982445D01*
X220350487Y-137982441D01*
X220203990Y-137876006D01*
X220203989Y-137876005D01*
X220203987Y-137876004D01*
X220152293Y-137849664D01*
X220042632Y-137793788D01*
X220042629Y-137793787D01*
X219870403Y-137737829D01*
X219691544Y-137709500D01*
X219691539Y-137709500D01*
X219510447Y-137709500D01*
X219510442Y-137709500D01*
X219331582Y-137737829D01*
X219159356Y-137793787D01*
X219159353Y-137793788D01*
X218997995Y-137876006D01*
X218851498Y-137982441D01*
X218851493Y-137982445D01*
X218723438Y-138110500D01*
X218723434Y-138110505D01*
X218616999Y-138257002D01*
X218534781Y-138418360D01*
X218534780Y-138418363D01*
X218478822Y-138590589D01*
X218453466Y-138750678D01*
X218423537Y-138813813D01*
X218364225Y-138850744D01*
X218294362Y-138849746D01*
X218236130Y-138811136D01*
X218208520Y-138750678D01*
X218194733Y-138663639D01*
X218183164Y-138590591D01*
X218127204Y-138418361D01*
X218127204Y-138418360D01*
X218098733Y-138362484D01*
X218044989Y-138257006D01*
X218031389Y-138238287D01*
X217938551Y-138110505D01*
X217938547Y-138110500D01*
X217810492Y-137982445D01*
X217810487Y-137982441D01*
X217663990Y-137876006D01*
X217663989Y-137876005D01*
X217663987Y-137876004D01*
X217612293Y-137849664D01*
X217502632Y-137793788D01*
X217502629Y-137793787D01*
X217330403Y-137737829D01*
X217151544Y-137709500D01*
X217151539Y-137709500D01*
X216970447Y-137709500D01*
X216970442Y-137709500D01*
X216791582Y-137737829D01*
X216619356Y-137793787D01*
X216619353Y-137793788D01*
X216457995Y-137876006D01*
X216311498Y-137982441D01*
X216311493Y-137982445D01*
X216183438Y-138110500D01*
X216183434Y-138110505D01*
X216076999Y-138257002D01*
X215994781Y-138418360D01*
X215994780Y-138418363D01*
X215938822Y-138590589D01*
X215913466Y-138750678D01*
X215883537Y-138813813D01*
X215824225Y-138850744D01*
X215754362Y-138849746D01*
X215696130Y-138811136D01*
X215668520Y-138750678D01*
X215654733Y-138663639D01*
X215643164Y-138590591D01*
X215587204Y-138418361D01*
X215587204Y-138418360D01*
X215558733Y-138362484D01*
X215504989Y-138257006D01*
X215491389Y-138238287D01*
X215398551Y-138110505D01*
X215398547Y-138110500D01*
X215270492Y-137982445D01*
X215270487Y-137982441D01*
X215123990Y-137876006D01*
X215123989Y-137876005D01*
X215123987Y-137876004D01*
X215072293Y-137849664D01*
X214962632Y-137793788D01*
X214962629Y-137793787D01*
X214790403Y-137737829D01*
X214611544Y-137709500D01*
X214611539Y-137709500D01*
X214430447Y-137709500D01*
X214430442Y-137709500D01*
X214251582Y-137737829D01*
X214079356Y-137793787D01*
X214079353Y-137793788D01*
X213917995Y-137876006D01*
X213771498Y-137982441D01*
X213771493Y-137982445D01*
X213643438Y-138110500D01*
X213643434Y-138110505D01*
X213536999Y-138257002D01*
X213454781Y-138418360D01*
X213454780Y-138418363D01*
X213398822Y-138590589D01*
X213373466Y-138750678D01*
X213343537Y-138813813D01*
X213284225Y-138850744D01*
X213214362Y-138849746D01*
X213156130Y-138811136D01*
X213128520Y-138750678D01*
X213114733Y-138663639D01*
X213103164Y-138590591D01*
X213047204Y-138418361D01*
X213047204Y-138418360D01*
X213018733Y-138362484D01*
X212964989Y-138257006D01*
X212951389Y-138238287D01*
X212858551Y-138110505D01*
X212858547Y-138110500D01*
X212730492Y-137982445D01*
X212730487Y-137982441D01*
X212583990Y-137876006D01*
X212583989Y-137876005D01*
X212583987Y-137876004D01*
X212532293Y-137849664D01*
X212422632Y-137793788D01*
X212422629Y-137793787D01*
X212250403Y-137737829D01*
X212071544Y-137709500D01*
X212071539Y-137709500D01*
X211890447Y-137709500D01*
X211890442Y-137709500D01*
X211711582Y-137737829D01*
X211539356Y-137793787D01*
X211539353Y-137793788D01*
X211377995Y-137876006D01*
X211231498Y-137982441D01*
X211231493Y-137982445D01*
X211103438Y-138110500D01*
X211103434Y-138110505D01*
X210996999Y-138257002D01*
X210914781Y-138418360D01*
X210914780Y-138418363D01*
X210858822Y-138590589D01*
X210833466Y-138750678D01*
X210803537Y-138813813D01*
X210744225Y-138850744D01*
X210674362Y-138849746D01*
X210616130Y-138811136D01*
X210588520Y-138750678D01*
X210574733Y-138663639D01*
X210563164Y-138590591D01*
X210507204Y-138418361D01*
X210507204Y-138418360D01*
X210478733Y-138362484D01*
X210424989Y-138257006D01*
X210411389Y-138238287D01*
X210318551Y-138110505D01*
X210318547Y-138110500D01*
X210190492Y-137982445D01*
X210190487Y-137982441D01*
X210043990Y-137876006D01*
X210043989Y-137876005D01*
X210043987Y-137876004D01*
X209992293Y-137849664D01*
X209882632Y-137793788D01*
X209882629Y-137793787D01*
X209710403Y-137737829D01*
X209531544Y-137709500D01*
X209531539Y-137709500D01*
X209350447Y-137709500D01*
X209350442Y-137709500D01*
X209171582Y-137737829D01*
X208999356Y-137793787D01*
X208999353Y-137793788D01*
X208837995Y-137876006D01*
X208691498Y-137982441D01*
X208691493Y-137982445D01*
X208563438Y-138110500D01*
X208563434Y-138110505D01*
X208456999Y-138257002D01*
X208374781Y-138418360D01*
X208374780Y-138418363D01*
X208318822Y-138590589D01*
X208293466Y-138750678D01*
X208263537Y-138813813D01*
X208204225Y-138850744D01*
X208134362Y-138849746D01*
X208076130Y-138811136D01*
X208048520Y-138750678D01*
X208034733Y-138663639D01*
X208023164Y-138590591D01*
X207967204Y-138418361D01*
X207967204Y-138418360D01*
X207938733Y-138362484D01*
X207884989Y-138257006D01*
X207871389Y-138238287D01*
X207778551Y-138110505D01*
X207778547Y-138110500D01*
X207650492Y-137982445D01*
X207650487Y-137982441D01*
X207503990Y-137876006D01*
X207503989Y-137876005D01*
X207503987Y-137876004D01*
X207452293Y-137849664D01*
X207342632Y-137793788D01*
X207342629Y-137793787D01*
X207170403Y-137737829D01*
X206991544Y-137709500D01*
X206991539Y-137709500D01*
X206810447Y-137709500D01*
X206810442Y-137709500D01*
X206631582Y-137737829D01*
X206459356Y-137793787D01*
X206459353Y-137793788D01*
X206297995Y-137876006D01*
X206151498Y-137982441D01*
X206151493Y-137982445D01*
X206023438Y-138110500D01*
X206023434Y-138110505D01*
X205916999Y-138257002D01*
X205834781Y-138418360D01*
X205834780Y-138418363D01*
X205778822Y-138590589D01*
X205753466Y-138750678D01*
X205723537Y-138813813D01*
X205664225Y-138850744D01*
X205594362Y-138849746D01*
X205536130Y-138811136D01*
X205508520Y-138750678D01*
X205494733Y-138663639D01*
X205483164Y-138590591D01*
X205427204Y-138418361D01*
X205427204Y-138418360D01*
X205398733Y-138362484D01*
X205344989Y-138257006D01*
X205331389Y-138238287D01*
X205238551Y-138110505D01*
X205238547Y-138110500D01*
X205110492Y-137982445D01*
X205110487Y-137982441D01*
X204963990Y-137876006D01*
X204963989Y-137876005D01*
X204963987Y-137876004D01*
X204912293Y-137849664D01*
X204802632Y-137793788D01*
X204802629Y-137793787D01*
X204630403Y-137737829D01*
X204451544Y-137709500D01*
X204451539Y-137709500D01*
X204270447Y-137709500D01*
X204270442Y-137709500D01*
X204091582Y-137737829D01*
X203919356Y-137793787D01*
X203919353Y-137793788D01*
X203757995Y-137876006D01*
X203611498Y-137982441D01*
X203611493Y-137982445D01*
X203483438Y-138110500D01*
X203483434Y-138110505D01*
X203376999Y-138257002D01*
X203294781Y-138418360D01*
X203294780Y-138418363D01*
X203238822Y-138590589D01*
X203213466Y-138750678D01*
X203183537Y-138813813D01*
X203124225Y-138850744D01*
X203054362Y-138849746D01*
X202996130Y-138811136D01*
X202968520Y-138750678D01*
X202954733Y-138663639D01*
X202943164Y-138590591D01*
X202887204Y-138418361D01*
X202887204Y-138418360D01*
X202858733Y-138362484D01*
X202804989Y-138257006D01*
X202791389Y-138238287D01*
X202698551Y-138110505D01*
X202698547Y-138110500D01*
X202570492Y-137982445D01*
X202570487Y-137982441D01*
X202423990Y-137876006D01*
X202423989Y-137876005D01*
X202423987Y-137876004D01*
X202372293Y-137849664D01*
X202262632Y-137793788D01*
X202262629Y-137793787D01*
X202090403Y-137737829D01*
X201911544Y-137709500D01*
X201911539Y-137709500D01*
X201730447Y-137709500D01*
X201730442Y-137709500D01*
X201551582Y-137737829D01*
X201379356Y-137793787D01*
X201379353Y-137793788D01*
X201217995Y-137876006D01*
X201071498Y-137982441D01*
X201071493Y-137982445D01*
X200943438Y-138110500D01*
X200943434Y-138110505D01*
X200836999Y-138257002D01*
X200754781Y-138418360D01*
X200754780Y-138418363D01*
X200698822Y-138590589D01*
X200673466Y-138750678D01*
X200643537Y-138813813D01*
X200584225Y-138850744D01*
X200514362Y-138849746D01*
X200456130Y-138811136D01*
X200428520Y-138750678D01*
X200414733Y-138663639D01*
X200403164Y-138590591D01*
X200347204Y-138418361D01*
X200347204Y-138418360D01*
X200318733Y-138362484D01*
X200264989Y-138257006D01*
X200251389Y-138238287D01*
X200158551Y-138110505D01*
X200158547Y-138110500D01*
X200030492Y-137982445D01*
X200030487Y-137982441D01*
X199883990Y-137876006D01*
X199883989Y-137876005D01*
X199883987Y-137876004D01*
X199832293Y-137849664D01*
X199722632Y-137793788D01*
X199722629Y-137793787D01*
X199550403Y-137737829D01*
X199371544Y-137709500D01*
X199371539Y-137709500D01*
X199190447Y-137709500D01*
X199190442Y-137709500D01*
X199011582Y-137737829D01*
X198839356Y-137793787D01*
X198839353Y-137793788D01*
X198677995Y-137876006D01*
X198531498Y-137982441D01*
X198531493Y-137982445D01*
X198403438Y-138110500D01*
X198403434Y-138110505D01*
X198296999Y-138257002D01*
X198214781Y-138418360D01*
X198214780Y-138418363D01*
X198158822Y-138590589D01*
X198133466Y-138750678D01*
X198103537Y-138813813D01*
X198044225Y-138850744D01*
X197974362Y-138849746D01*
X197916130Y-138811136D01*
X197888520Y-138750678D01*
X197874733Y-138663639D01*
X197863164Y-138590591D01*
X197807204Y-138418361D01*
X197807204Y-138418360D01*
X197778733Y-138362484D01*
X197724989Y-138257006D01*
X197711389Y-138238287D01*
X197618551Y-138110505D01*
X197618547Y-138110500D01*
X197490492Y-137982445D01*
X197490487Y-137982441D01*
X197343990Y-137876006D01*
X197343989Y-137876005D01*
X197343987Y-137876004D01*
X197292293Y-137849664D01*
X197182632Y-137793788D01*
X197182629Y-137793787D01*
X197010403Y-137737829D01*
X196831544Y-137709500D01*
X196831539Y-137709500D01*
X196650447Y-137709500D01*
X196650442Y-137709500D01*
X196471582Y-137737829D01*
X196299356Y-137793787D01*
X196299353Y-137793788D01*
X196137995Y-137876006D01*
X195991498Y-137982441D01*
X195991493Y-137982445D01*
X195863438Y-138110500D01*
X195863434Y-138110505D01*
X195756999Y-138257002D01*
X195674781Y-138418360D01*
X195674780Y-138418363D01*
X195618822Y-138590589D01*
X195593466Y-138750678D01*
X195563537Y-138813813D01*
X195504225Y-138850744D01*
X195434362Y-138849746D01*
X195376130Y-138811136D01*
X195348520Y-138750678D01*
X195334733Y-138663639D01*
X195323164Y-138590591D01*
X195267204Y-138418361D01*
X195267204Y-138418360D01*
X195238733Y-138362484D01*
X195184989Y-138257006D01*
X195171389Y-138238287D01*
X195078551Y-138110505D01*
X195078547Y-138110500D01*
X194950492Y-137982445D01*
X194950487Y-137982441D01*
X194803990Y-137876006D01*
X194803989Y-137876005D01*
X194803987Y-137876004D01*
X194752293Y-137849664D01*
X194642632Y-137793788D01*
X194642629Y-137793787D01*
X194470403Y-137737829D01*
X194291544Y-137709500D01*
X194291539Y-137709500D01*
X194110447Y-137709500D01*
X194110442Y-137709500D01*
X193931582Y-137737829D01*
X193759356Y-137793787D01*
X193759353Y-137793788D01*
X193597995Y-137876006D01*
X193451498Y-137982441D01*
X193451493Y-137982445D01*
X193323438Y-138110500D01*
X193323434Y-138110505D01*
X193216999Y-138257002D01*
X193134781Y-138418360D01*
X193134780Y-138418363D01*
X193078822Y-138590589D01*
X193053466Y-138750678D01*
X193023537Y-138813813D01*
X192964225Y-138850744D01*
X192894362Y-138849746D01*
X192836130Y-138811136D01*
X192808520Y-138750678D01*
X192794733Y-138663639D01*
X192783164Y-138590591D01*
X192727204Y-138418361D01*
X192727204Y-138418360D01*
X192698733Y-138362484D01*
X192644989Y-138257006D01*
X192631389Y-138238287D01*
X192538551Y-138110505D01*
X192538547Y-138110500D01*
X192410492Y-137982445D01*
X192410487Y-137982441D01*
X192263990Y-137876006D01*
X192263989Y-137876005D01*
X192263987Y-137876004D01*
X192212293Y-137849664D01*
X192102632Y-137793788D01*
X192102629Y-137793787D01*
X191930403Y-137737829D01*
X191751544Y-137709500D01*
X191751539Y-137709500D01*
X191570447Y-137709500D01*
X191570442Y-137709500D01*
X191391582Y-137737829D01*
X191219356Y-137793787D01*
X191219353Y-137793788D01*
X191057995Y-137876006D01*
X190911498Y-137982441D01*
X190911493Y-137982445D01*
X190783438Y-138110500D01*
X190783434Y-138110505D01*
X190676999Y-138257002D01*
X190594781Y-138418360D01*
X190594780Y-138418363D01*
X190538822Y-138590589D01*
X190513466Y-138750678D01*
X190483537Y-138813813D01*
X190424225Y-138850744D01*
X190354362Y-138849746D01*
X190296130Y-138811136D01*
X190268520Y-138750678D01*
X190254733Y-138663639D01*
X190243164Y-138590591D01*
X190187204Y-138418361D01*
X190187204Y-138418360D01*
X190158733Y-138362484D01*
X190104989Y-138257006D01*
X190091389Y-138238287D01*
X189998551Y-138110505D01*
X189998547Y-138110500D01*
X189870492Y-137982445D01*
X189870487Y-137982441D01*
X189723990Y-137876006D01*
X189723989Y-137876005D01*
X189723987Y-137876004D01*
X189672293Y-137849664D01*
X189562632Y-137793788D01*
X189562629Y-137793787D01*
X189390403Y-137737829D01*
X189211544Y-137709500D01*
X189211539Y-137709500D01*
X189030447Y-137709500D01*
X189030442Y-137709500D01*
X188851582Y-137737829D01*
X188679356Y-137793787D01*
X188679353Y-137793788D01*
X188517995Y-137876006D01*
X188371498Y-137982441D01*
X188371493Y-137982445D01*
X188243438Y-138110500D01*
X188243434Y-138110505D01*
X188136999Y-138257002D01*
X188054781Y-138418360D01*
X188054780Y-138418363D01*
X187998822Y-138590589D01*
X187973466Y-138750678D01*
X187943537Y-138813813D01*
X187884225Y-138850744D01*
X187814362Y-138849746D01*
X187756130Y-138811136D01*
X187728520Y-138750678D01*
X187714733Y-138663639D01*
X187703164Y-138590591D01*
X187647204Y-138418361D01*
X187647204Y-138418360D01*
X187618733Y-138362484D01*
X187564989Y-138257006D01*
X187551389Y-138238287D01*
X187458551Y-138110505D01*
X187458547Y-138110500D01*
X187330492Y-137982445D01*
X187330487Y-137982441D01*
X187183990Y-137876006D01*
X187183989Y-137876005D01*
X187183987Y-137876004D01*
X187132293Y-137849664D01*
X187022632Y-137793788D01*
X187022629Y-137793787D01*
X186850403Y-137737829D01*
X186671544Y-137709500D01*
X186671539Y-137709500D01*
X186490447Y-137709500D01*
X186490442Y-137709500D01*
X186311582Y-137737829D01*
X186139356Y-137793787D01*
X186139353Y-137793788D01*
X185977995Y-137876006D01*
X185831498Y-137982441D01*
X185831493Y-137982445D01*
X185703438Y-138110500D01*
X185703434Y-138110505D01*
X185596999Y-138257002D01*
X185514781Y-138418360D01*
X185514780Y-138418363D01*
X185458822Y-138590589D01*
X185433466Y-138750678D01*
X185403537Y-138813813D01*
X185344225Y-138850744D01*
X185274362Y-138849746D01*
X185216130Y-138811136D01*
X185188520Y-138750678D01*
X185174733Y-138663639D01*
X185163164Y-138590591D01*
X185107204Y-138418361D01*
X185107204Y-138418360D01*
X185078733Y-138362484D01*
X185024989Y-138257006D01*
X185011389Y-138238287D01*
X184918551Y-138110505D01*
X184918547Y-138110500D01*
X184790492Y-137982445D01*
X184790487Y-137982441D01*
X184643990Y-137876006D01*
X184643989Y-137876005D01*
X184643987Y-137876004D01*
X184592293Y-137849664D01*
X184482632Y-137793788D01*
X184482629Y-137793787D01*
X184310403Y-137737829D01*
X184131544Y-137709500D01*
X184131539Y-137709500D01*
X183950447Y-137709500D01*
X183950442Y-137709500D01*
X183771582Y-137737829D01*
X183599356Y-137793787D01*
X183599353Y-137793788D01*
X183437995Y-137876006D01*
X183291498Y-137982441D01*
X183291493Y-137982445D01*
X183163438Y-138110500D01*
X183163434Y-138110505D01*
X183056999Y-138257002D01*
X182974781Y-138418360D01*
X182974780Y-138418363D01*
X182918822Y-138590589D01*
X182893466Y-138750678D01*
X182863537Y-138813813D01*
X182804225Y-138850744D01*
X182734362Y-138849746D01*
X182676130Y-138811136D01*
X182648520Y-138750678D01*
X182634733Y-138663639D01*
X182623164Y-138590591D01*
X182567204Y-138418361D01*
X182567204Y-138418360D01*
X182538733Y-138362484D01*
X182484989Y-138257006D01*
X182471389Y-138238287D01*
X182378551Y-138110505D01*
X182378547Y-138110500D01*
X182250492Y-137982445D01*
X182250487Y-137982441D01*
X182103990Y-137876006D01*
X182103989Y-137876005D01*
X182103987Y-137876004D01*
X182052293Y-137849664D01*
X181942632Y-137793788D01*
X181942629Y-137793787D01*
X181770403Y-137737829D01*
X181591544Y-137709500D01*
X181591539Y-137709500D01*
X181410447Y-137709500D01*
X181410442Y-137709500D01*
X181231582Y-137737829D01*
X181059356Y-137793787D01*
X181059353Y-137793788D01*
X180897995Y-137876006D01*
X180751498Y-137982441D01*
X180751493Y-137982445D01*
X180623438Y-138110500D01*
X180623434Y-138110505D01*
X180516999Y-138257002D01*
X180434781Y-138418360D01*
X180434780Y-138418363D01*
X180378822Y-138590589D01*
X180353466Y-138750678D01*
X180323537Y-138813813D01*
X180264225Y-138850744D01*
X180194362Y-138849746D01*
X180136130Y-138811136D01*
X180108520Y-138750678D01*
X180094733Y-138663639D01*
X180083164Y-138590591D01*
X180027204Y-138418361D01*
X180027204Y-138418360D01*
X179998733Y-138362484D01*
X179944989Y-138257006D01*
X179931389Y-138238287D01*
X179838551Y-138110505D01*
X179838547Y-138110500D01*
X179710492Y-137982445D01*
X179710487Y-137982441D01*
X179563990Y-137876006D01*
X179563989Y-137876005D01*
X179563987Y-137876004D01*
X179512293Y-137849664D01*
X179402632Y-137793788D01*
X179402629Y-137793787D01*
X179230403Y-137737829D01*
X179051544Y-137709500D01*
X179051539Y-137709500D01*
X178870447Y-137709500D01*
X178870442Y-137709500D01*
X178691582Y-137737829D01*
X178519356Y-137793787D01*
X178519353Y-137793788D01*
X178357995Y-137876006D01*
X178211498Y-137982441D01*
X178211493Y-137982445D01*
X178083438Y-138110500D01*
X178083434Y-138110505D01*
X177976999Y-138257002D01*
X177894781Y-138418360D01*
X177894780Y-138418363D01*
X177838822Y-138590589D01*
X177813466Y-138750678D01*
X177783537Y-138813813D01*
X177724225Y-138850744D01*
X177654362Y-138849746D01*
X177596130Y-138811136D01*
X177568520Y-138750678D01*
X177554733Y-138663639D01*
X177543164Y-138590591D01*
X177487204Y-138418361D01*
X177487204Y-138418360D01*
X177458733Y-138362484D01*
X177404989Y-138257006D01*
X177391389Y-138238287D01*
X177298551Y-138110505D01*
X177298547Y-138110500D01*
X177170492Y-137982445D01*
X177170487Y-137982441D01*
X177023990Y-137876006D01*
X177023989Y-137876005D01*
X177023987Y-137876004D01*
X176972293Y-137849664D01*
X176862632Y-137793788D01*
X176862629Y-137793787D01*
X176690403Y-137737829D01*
X176511544Y-137709500D01*
X176511539Y-137709500D01*
X176330447Y-137709500D01*
X176330442Y-137709500D01*
X176151582Y-137737829D01*
X175979356Y-137793787D01*
X175979353Y-137793788D01*
X175817995Y-137876006D01*
X175671498Y-137982441D01*
X175671493Y-137982445D01*
X175543438Y-138110500D01*
X175543434Y-138110505D01*
X175436999Y-138257002D01*
X175354781Y-138418360D01*
X175354780Y-138418363D01*
X175298822Y-138590589D01*
X175273466Y-138750678D01*
X175243537Y-138813813D01*
X175184225Y-138850744D01*
X175114362Y-138849746D01*
X175056130Y-138811136D01*
X175028520Y-138750678D01*
X175014733Y-138663639D01*
X175003164Y-138590591D01*
X174947204Y-138418361D01*
X174947204Y-138418360D01*
X174918733Y-138362484D01*
X174864989Y-138257006D01*
X174851389Y-138238287D01*
X174758551Y-138110505D01*
X174758547Y-138110500D01*
X174630492Y-137982445D01*
X174630487Y-137982441D01*
X174483990Y-137876006D01*
X174483989Y-137876005D01*
X174483987Y-137876004D01*
X174432293Y-137849664D01*
X174322632Y-137793788D01*
X174322629Y-137793787D01*
X174150403Y-137737829D01*
X173971544Y-137709500D01*
X173971539Y-137709500D01*
X173790447Y-137709500D01*
X173790442Y-137709500D01*
X173611582Y-137737829D01*
X173439356Y-137793787D01*
X173439353Y-137793788D01*
X173277995Y-137876006D01*
X173131498Y-137982441D01*
X173131493Y-137982445D01*
X173003438Y-138110500D01*
X173003434Y-138110505D01*
X172896999Y-138257002D01*
X172814781Y-138418360D01*
X172814780Y-138418363D01*
X172758822Y-138590589D01*
X172733466Y-138750678D01*
X172703537Y-138813813D01*
X172644225Y-138850744D01*
X172574362Y-138849746D01*
X172516130Y-138811136D01*
X172488520Y-138750678D01*
X172474733Y-138663639D01*
X172463164Y-138590591D01*
X172407204Y-138418361D01*
X172407204Y-138418360D01*
X172378733Y-138362484D01*
X172324989Y-138257006D01*
X172311389Y-138238287D01*
X172218551Y-138110505D01*
X172218547Y-138110500D01*
X172090492Y-137982445D01*
X172090487Y-137982441D01*
X171943990Y-137876006D01*
X171943989Y-137876005D01*
X171943987Y-137876004D01*
X171892293Y-137849664D01*
X171782632Y-137793788D01*
X171782629Y-137793787D01*
X171610403Y-137737829D01*
X171431544Y-137709500D01*
X171431539Y-137709500D01*
X171250447Y-137709500D01*
X171250442Y-137709500D01*
X171071582Y-137737829D01*
X170899356Y-137793787D01*
X170899353Y-137793788D01*
X170737995Y-137876006D01*
X170591498Y-137982441D01*
X170591493Y-137982445D01*
X170463438Y-138110500D01*
X170463434Y-138110505D01*
X170356999Y-138257002D01*
X170274781Y-138418360D01*
X170274780Y-138418363D01*
X170218822Y-138590589D01*
X170193466Y-138750678D01*
X170163537Y-138813813D01*
X170104225Y-138850744D01*
X170034362Y-138849746D01*
X169976130Y-138811136D01*
X169948520Y-138750678D01*
X169934733Y-138663639D01*
X169923164Y-138590591D01*
X169867204Y-138418361D01*
X169867204Y-138418360D01*
X169838733Y-138362484D01*
X169784989Y-138257006D01*
X169771389Y-138238287D01*
X169678551Y-138110505D01*
X169678547Y-138110500D01*
X169550492Y-137982445D01*
X169550487Y-137982441D01*
X169403990Y-137876006D01*
X169403989Y-137876005D01*
X169403987Y-137876004D01*
X169352293Y-137849664D01*
X169242632Y-137793788D01*
X169242629Y-137793787D01*
X169070403Y-137737829D01*
X168891544Y-137709500D01*
X168891539Y-137709500D01*
X168710447Y-137709500D01*
X168710442Y-137709500D01*
X168531582Y-137737829D01*
X168359356Y-137793787D01*
X168359353Y-137793788D01*
X168197995Y-137876006D01*
X168051498Y-137982441D01*
X168051493Y-137982445D01*
X167923438Y-138110500D01*
X167923434Y-138110505D01*
X167816999Y-138257002D01*
X167734781Y-138418360D01*
X167734780Y-138418363D01*
X167678822Y-138590589D01*
X167653466Y-138750678D01*
X167623537Y-138813813D01*
X167564225Y-138850744D01*
X167494362Y-138849746D01*
X167436130Y-138811136D01*
X167408520Y-138750678D01*
X167394733Y-138663639D01*
X167383164Y-138590591D01*
X167327204Y-138418361D01*
X167327204Y-138418360D01*
X167298733Y-138362484D01*
X167244989Y-138257006D01*
X167231389Y-138238287D01*
X167138551Y-138110505D01*
X167138547Y-138110500D01*
X167010492Y-137982445D01*
X167010487Y-137982441D01*
X166863990Y-137876006D01*
X166863989Y-137876005D01*
X166863987Y-137876004D01*
X166812293Y-137849664D01*
X166702632Y-137793788D01*
X166702629Y-137793787D01*
X166530403Y-137737829D01*
X166351544Y-137709500D01*
X166351539Y-137709500D01*
X166170447Y-137709500D01*
X166170442Y-137709500D01*
X165991582Y-137737829D01*
X165819356Y-137793787D01*
X165819353Y-137793788D01*
X165657995Y-137876006D01*
X165511498Y-137982441D01*
X165511493Y-137982445D01*
X165383438Y-138110500D01*
X165383434Y-138110505D01*
X165276999Y-138257002D01*
X165194781Y-138418360D01*
X165194780Y-138418363D01*
X165138822Y-138590589D01*
X165113466Y-138750678D01*
X165083537Y-138813813D01*
X165024225Y-138850744D01*
X164954362Y-138849746D01*
X164896130Y-138811136D01*
X164868520Y-138750678D01*
X164854733Y-138663639D01*
X164843164Y-138590591D01*
X164787204Y-138418361D01*
X164787204Y-138418360D01*
X164758733Y-138362484D01*
X164704989Y-138257006D01*
X164691389Y-138238287D01*
X164598551Y-138110505D01*
X164598547Y-138110500D01*
X164470492Y-137982445D01*
X164470487Y-137982441D01*
X164323990Y-137876006D01*
X164323989Y-137876005D01*
X164323987Y-137876004D01*
X164272293Y-137849664D01*
X164162632Y-137793788D01*
X164162629Y-137793787D01*
X163990403Y-137737829D01*
X163811544Y-137709500D01*
X163811539Y-137709500D01*
X163630447Y-137709500D01*
X163630442Y-137709500D01*
X163451582Y-137737829D01*
X163279356Y-137793787D01*
X163279353Y-137793788D01*
X163117995Y-137876006D01*
X162971498Y-137982441D01*
X162971493Y-137982445D01*
X162843438Y-138110500D01*
X162843434Y-138110505D01*
X162736999Y-138257002D01*
X162654781Y-138418360D01*
X162654780Y-138418363D01*
X162598822Y-138590589D01*
X162573466Y-138750678D01*
X162543537Y-138813813D01*
X162484225Y-138850744D01*
X162414362Y-138849746D01*
X162356130Y-138811136D01*
X162328520Y-138750678D01*
X162314733Y-138663639D01*
X162303164Y-138590591D01*
X162247204Y-138418361D01*
X162247204Y-138418360D01*
X162218733Y-138362484D01*
X162164989Y-138257006D01*
X162151389Y-138238287D01*
X162058551Y-138110505D01*
X162058547Y-138110500D01*
X161930492Y-137982445D01*
X161930487Y-137982441D01*
X161783990Y-137876006D01*
X161783989Y-137876005D01*
X161783987Y-137876004D01*
X161732293Y-137849664D01*
X161622632Y-137793788D01*
X161622629Y-137793787D01*
X161450403Y-137737829D01*
X161271544Y-137709500D01*
X161271539Y-137709500D01*
X161090447Y-137709500D01*
X161090442Y-137709500D01*
X160911582Y-137737829D01*
X160739356Y-137793787D01*
X160739353Y-137793788D01*
X160577995Y-137876006D01*
X160431498Y-137982441D01*
X160431493Y-137982445D01*
X160303438Y-138110500D01*
X160303434Y-138110505D01*
X160196999Y-138257002D01*
X160114781Y-138418360D01*
X160114780Y-138418363D01*
X160058822Y-138590589D01*
X160030493Y-138769448D01*
X160030493Y-138950551D01*
X160058822Y-139129410D01*
X160114780Y-139301636D01*
X160114781Y-139301639D01*
X160196999Y-139462997D01*
X160303434Y-139609494D01*
X160303438Y-139609499D01*
X160431493Y-139737554D01*
X160431498Y-139737558D01*
X160554621Y-139827011D01*
X160577999Y-139843996D01*
X160683477Y-139897740D01*
X160739353Y-139926211D01*
X160739356Y-139926212D01*
X160825469Y-139954191D01*
X160911584Y-139982171D01*
X160984632Y-139993740D01*
X161071671Y-140007527D01*
X161134806Y-140037456D01*
X161171737Y-140096768D01*
X161170739Y-140166631D01*
X161132129Y-140224863D01*
X161071671Y-140252473D01*
X160911582Y-140277829D01*
X160739356Y-140333787D01*
X160739353Y-140333788D01*
X160577995Y-140416006D01*
X160431498Y-140522441D01*
X160431493Y-140522445D01*
X160303438Y-140650500D01*
X160303434Y-140650505D01*
X160196999Y-140797002D01*
X160114781Y-140958360D01*
X160114780Y-140958363D01*
X160058822Y-141130589D01*
X160030493Y-141309448D01*
X160030493Y-141490551D01*
X160058822Y-141669410D01*
X160114780Y-141841636D01*
X160114781Y-141841639D01*
X160196999Y-142002997D01*
X160303434Y-142149494D01*
X160303438Y-142149499D01*
X160431493Y-142277554D01*
X160431498Y-142277558D01*
X160559280Y-142370396D01*
X160577999Y-142383996D01*
X160687779Y-142439932D01*
X160687795Y-142439940D01*
X160738591Y-142487915D01*
X160755500Y-142550425D01*
X160755500Y-145826000D01*
X160735815Y-145893039D01*
X160683011Y-145938794D01*
X160631500Y-145950000D01*
X156650500Y-145950000D01*
X156583461Y-145930315D01*
X156537706Y-145877511D01*
X156526500Y-145826000D01*
X156526500Y-145090417D01*
X156546185Y-145023378D01*
X156594204Y-144979933D01*
X156703987Y-144923996D01*
X156850494Y-144817553D01*
X156978546Y-144689501D01*
X157084989Y-144542994D01*
X157167204Y-144381639D01*
X157223164Y-144209409D01*
X157237758Y-144117259D01*
X157251493Y-144030551D01*
X157251493Y-143849448D01*
X157234157Y-143740000D01*
X157223164Y-143670591D01*
X157167204Y-143498361D01*
X157167204Y-143498360D01*
X157137467Y-143440000D01*
X157084989Y-143337006D01*
X157047100Y-143284856D01*
X156978551Y-143190505D01*
X156978547Y-143190500D01*
X156850492Y-143062445D01*
X156850487Y-143062441D01*
X156703990Y-142956006D01*
X156703989Y-142956005D01*
X156703987Y-142956004D01*
X156594204Y-142900066D01*
X156583140Y-142889617D01*
X156569297Y-142883295D01*
X156558255Y-142866114D01*
X156543409Y-142852092D01*
X156539167Y-142836412D01*
X156531523Y-142824517D01*
X156526500Y-142789582D01*
X156526500Y-142550417D01*
X156546185Y-142483378D01*
X156594204Y-142439933D01*
X156703987Y-142383996D01*
X156850494Y-142277553D01*
X156978546Y-142149501D01*
X157084989Y-142002994D01*
X157167204Y-141841639D01*
X157223164Y-141669409D01*
X157243100Y-141543538D01*
X157251493Y-141490551D01*
X157251493Y-141309448D01*
X157234157Y-141200000D01*
X157223164Y-141130591D01*
X157167204Y-140958361D01*
X157167204Y-140958360D01*
X157120343Y-140866392D01*
X157084989Y-140797006D01*
X157047100Y-140744856D01*
X156978551Y-140650505D01*
X156978547Y-140650500D01*
X156850492Y-140522445D01*
X156850487Y-140522441D01*
X156703990Y-140416006D01*
X156703989Y-140416005D01*
X156703987Y-140416004D01*
X156652293Y-140389664D01*
X156542632Y-140333788D01*
X156542629Y-140333787D01*
X156370403Y-140277829D01*
X156191544Y-140249500D01*
X156191539Y-140249500D01*
X156010447Y-140249500D01*
X156010442Y-140249500D01*
X155831582Y-140277829D01*
X155659356Y-140333787D01*
X155659353Y-140333788D01*
X155497995Y-140416006D01*
X155351498Y-140522441D01*
X155351493Y-140522445D01*
X155223438Y-140650500D01*
X155223434Y-140650505D01*
X155116999Y-140797002D01*
X155034781Y-140958360D01*
X155034780Y-140958363D01*
X154978822Y-141130589D01*
X154953466Y-141290678D01*
X154923537Y-141353813D01*
X154864225Y-141390744D01*
X154794362Y-141389746D01*
X154736130Y-141351136D01*
X154708520Y-141290678D01*
X154694157Y-141200000D01*
X154683164Y-141130591D01*
X154627204Y-140958361D01*
X154627204Y-140958360D01*
X154580343Y-140866392D01*
X154544989Y-140797006D01*
X154507100Y-140744856D01*
X154438551Y-140650505D01*
X154438547Y-140650500D01*
X154310492Y-140522445D01*
X154310487Y-140522441D01*
X154163990Y-140416006D01*
X154163989Y-140416005D01*
X154163987Y-140416004D01*
X154112293Y-140389664D01*
X154002632Y-140333788D01*
X154002629Y-140333787D01*
X153830403Y-140277829D01*
X153651544Y-140249500D01*
X153651539Y-140249500D01*
X153470447Y-140249500D01*
X153470442Y-140249500D01*
X153291582Y-140277829D01*
X153119356Y-140333787D01*
X153119353Y-140333788D01*
X152957995Y-140416006D01*
X152811498Y-140522441D01*
X152811493Y-140522445D01*
X152683438Y-140650500D01*
X152683434Y-140650505D01*
X152576999Y-140797002D01*
X152494781Y-140958360D01*
X152494780Y-140958363D01*
X152438822Y-141130589D01*
X152410493Y-141309448D01*
X152410493Y-141490551D01*
X152438822Y-141669410D01*
X152494780Y-141841636D01*
X152494781Y-141841639D01*
X152576999Y-142002997D01*
X152683434Y-142149494D01*
X152683438Y-142149499D01*
X152811493Y-142277554D01*
X152811498Y-142277558D01*
X152939280Y-142370396D01*
X152957999Y-142383996D01*
X153067779Y-142439932D01*
X153067795Y-142439940D01*
X153078859Y-142450389D01*
X153092703Y-142456712D01*
X153103744Y-142473892D01*
X153118591Y-142487915D01*
X153122832Y-142503594D01*
X153130477Y-142515490D01*
X153135500Y-142550425D01*
X153135500Y-142789575D01*
X153115815Y-142856614D01*
X153067795Y-142900060D01*
X152957995Y-142956006D01*
X152811498Y-143062441D01*
X152811493Y-143062445D01*
X152683438Y-143190500D01*
X152683434Y-143190505D01*
X152576999Y-143337002D01*
X152494781Y-143498360D01*
X152494780Y-143498363D01*
X152438822Y-143670589D01*
X152410493Y-143849448D01*
X152410493Y-144030551D01*
X152438822Y-144209410D01*
X152494780Y-144381636D01*
X152494781Y-144381639D01*
X152576999Y-144542997D01*
X152683434Y-144689494D01*
X152683438Y-144689499D01*
X152811493Y-144817554D01*
X152811498Y-144817558D01*
X152939280Y-144910396D01*
X152957999Y-144923996D01*
X153067779Y-144979932D01*
X153067795Y-144979940D01*
X153118591Y-145027915D01*
X153135500Y-145090425D01*
X153135500Y-145826000D01*
X153115815Y-145893039D01*
X153063011Y-145938794D01*
X153011500Y-145950000D01*
X149030500Y-145950000D01*
X148963461Y-145930315D01*
X148917706Y-145877511D01*
X148906500Y-145826000D01*
X148906500Y-142550417D01*
X148926185Y-142483378D01*
X148974204Y-142439933D01*
X149083987Y-142383996D01*
X149230494Y-142277553D01*
X149358546Y-142149501D01*
X149464989Y-142002994D01*
X149547204Y-141841639D01*
X149603164Y-141669409D01*
X149623100Y-141543538D01*
X149631493Y-141490551D01*
X149631493Y-141309448D01*
X149614157Y-141200000D01*
X149603164Y-141130591D01*
X149547204Y-140958361D01*
X149547204Y-140958360D01*
X149500343Y-140866392D01*
X149464989Y-140797006D01*
X149427100Y-140744856D01*
X149358551Y-140650505D01*
X149358547Y-140650500D01*
X149230492Y-140522445D01*
X149230487Y-140522441D01*
X149083990Y-140416006D01*
X149083989Y-140416005D01*
X149083987Y-140416004D01*
X149032293Y-140389664D01*
X148922632Y-140333788D01*
X148922629Y-140333787D01*
X148750403Y-140277829D01*
X148590314Y-140252473D01*
X148527179Y-140222544D01*
X148490248Y-140163232D01*
X148491246Y-140093370D01*
X148529856Y-140035137D01*
X148590314Y-140007527D01*
X148660418Y-139996422D01*
X148750402Y-139982171D01*
X148922632Y-139926211D01*
X149083987Y-139843996D01*
X149230494Y-139737553D01*
X149358546Y-139609501D01*
X149464989Y-139462994D01*
X149547204Y-139301639D01*
X149603164Y-139129409D01*
X149617758Y-139037259D01*
X149631493Y-138950551D01*
X149631493Y-138769448D01*
X149615012Y-138665397D01*
X149603164Y-138590591D01*
X149547204Y-138418361D01*
X149547204Y-138418360D01*
X149518733Y-138362484D01*
X149464989Y-138257006D01*
X149451389Y-138238287D01*
X149358551Y-138110505D01*
X149358547Y-138110500D01*
X149230492Y-137982445D01*
X149230487Y-137982441D01*
X149083990Y-137876006D01*
X149083989Y-137876005D01*
X149083987Y-137876004D01*
X149032293Y-137849664D01*
X148922632Y-137793788D01*
X148922629Y-137793787D01*
X148750403Y-137737829D01*
X148571544Y-137709500D01*
X148571539Y-137709500D01*
X148390447Y-137709500D01*
X148390442Y-137709500D01*
X148211582Y-137737829D01*
X148039356Y-137793787D01*
X148039353Y-137793788D01*
X147877995Y-137876006D01*
X147731498Y-137982441D01*
X147731493Y-137982445D01*
X147603438Y-138110500D01*
X147603434Y-138110505D01*
X147496999Y-138257002D01*
X147414781Y-138418360D01*
X147414780Y-138418363D01*
X147358822Y-138590589D01*
X147333466Y-138750678D01*
X147303537Y-138813813D01*
X147244225Y-138850744D01*
X147174362Y-138849746D01*
X147116130Y-138811136D01*
X147088520Y-138750678D01*
X147074733Y-138663639D01*
X147063164Y-138590591D01*
X147007204Y-138418361D01*
X147007204Y-138418360D01*
X146978733Y-138362484D01*
X146924989Y-138257006D01*
X146911389Y-138238287D01*
X146818551Y-138110505D01*
X146818547Y-138110500D01*
X146690492Y-137982445D01*
X146690487Y-137982441D01*
X146543990Y-137876006D01*
X146543989Y-137876005D01*
X146543987Y-137876004D01*
X146492293Y-137849664D01*
X146382632Y-137793788D01*
X146382629Y-137793787D01*
X146210403Y-137737829D01*
X146031544Y-137709500D01*
X146031539Y-137709500D01*
X145850447Y-137709500D01*
X145850442Y-137709500D01*
X145671582Y-137737829D01*
X145499356Y-137793787D01*
X145499353Y-137793788D01*
X145337995Y-137876006D01*
X145191498Y-137982441D01*
X145191493Y-137982445D01*
X145063438Y-138110500D01*
X145063434Y-138110505D01*
X144956999Y-138257002D01*
X144874781Y-138418360D01*
X144874780Y-138418363D01*
X144818822Y-138590589D01*
X144793466Y-138750678D01*
X144763537Y-138813813D01*
X144704225Y-138850744D01*
X144634362Y-138849746D01*
X144576130Y-138811136D01*
X144548520Y-138750678D01*
X144534733Y-138663639D01*
X144523164Y-138590591D01*
X144467204Y-138418361D01*
X144467204Y-138418360D01*
X144438733Y-138362484D01*
X144384989Y-138257006D01*
X144371389Y-138238287D01*
X144278551Y-138110505D01*
X144278547Y-138110500D01*
X144150492Y-137982445D01*
X144150487Y-137982441D01*
X144003990Y-137876006D01*
X144003989Y-137876005D01*
X144003987Y-137876004D01*
X143952293Y-137849664D01*
X143842632Y-137793788D01*
X143842629Y-137793787D01*
X143670403Y-137737829D01*
X143491544Y-137709500D01*
X143491539Y-137709500D01*
X143310447Y-137709500D01*
X143310442Y-137709500D01*
X143131582Y-137737829D01*
X142959356Y-137793787D01*
X142959353Y-137793788D01*
X142797995Y-137876006D01*
X142651498Y-137982441D01*
X142651493Y-137982445D01*
X142523438Y-138110500D01*
X142523434Y-138110505D01*
X142416999Y-138257002D01*
X142334781Y-138418360D01*
X142334780Y-138418363D01*
X142278822Y-138590589D01*
X142253466Y-138750678D01*
X142223537Y-138813813D01*
X142164225Y-138850744D01*
X142094362Y-138849746D01*
X142036130Y-138811136D01*
X142008520Y-138750678D01*
X141994733Y-138663639D01*
X141983164Y-138590591D01*
X141927204Y-138418361D01*
X141927204Y-138418360D01*
X141898733Y-138362484D01*
X141844989Y-138257006D01*
X141831389Y-138238287D01*
X141738551Y-138110505D01*
X141738547Y-138110500D01*
X141610492Y-137982445D01*
X141610487Y-137982441D01*
X141463990Y-137876006D01*
X141463989Y-137876005D01*
X141463987Y-137876004D01*
X141412293Y-137849664D01*
X141302632Y-137793788D01*
X141302629Y-137793787D01*
X141130403Y-137737829D01*
X140951544Y-137709500D01*
X140951539Y-137709500D01*
X140770447Y-137709500D01*
X140770442Y-137709500D01*
X140591582Y-137737829D01*
X140419356Y-137793787D01*
X140419353Y-137793788D01*
X140257995Y-137876006D01*
X140111498Y-137982441D01*
X140111493Y-137982445D01*
X139983438Y-138110500D01*
X139983434Y-138110505D01*
X139876999Y-138257002D01*
X139794781Y-138418360D01*
X139794780Y-138418363D01*
X139738822Y-138590589D01*
X139713466Y-138750678D01*
X139683537Y-138813813D01*
X139624225Y-138850744D01*
X139554362Y-138849746D01*
X139496130Y-138811136D01*
X139468520Y-138750678D01*
X139454733Y-138663639D01*
X139443164Y-138590591D01*
X139387204Y-138418361D01*
X139387204Y-138418360D01*
X139358733Y-138362484D01*
X139304989Y-138257006D01*
X139291389Y-138238287D01*
X139198551Y-138110505D01*
X139198547Y-138110500D01*
X139070492Y-137982445D01*
X139070487Y-137982441D01*
X138923990Y-137876006D01*
X138923989Y-137876005D01*
X138923987Y-137876004D01*
X138872293Y-137849664D01*
X138762632Y-137793788D01*
X138762629Y-137793787D01*
X138590403Y-137737829D01*
X138411544Y-137709500D01*
X138411539Y-137709500D01*
X138230447Y-137709500D01*
X138230442Y-137709500D01*
X138051582Y-137737829D01*
X137879356Y-137793787D01*
X137879353Y-137793788D01*
X137717995Y-137876006D01*
X137571498Y-137982441D01*
X137571493Y-137982445D01*
X137443438Y-138110500D01*
X137443434Y-138110505D01*
X137336999Y-138257002D01*
X137254781Y-138418360D01*
X137254780Y-138418363D01*
X137198822Y-138590589D01*
X137173466Y-138750678D01*
X137143537Y-138813813D01*
X137084225Y-138850744D01*
X137014362Y-138849746D01*
X136956130Y-138811136D01*
X136928520Y-138750678D01*
X136914733Y-138663639D01*
X136903164Y-138590591D01*
X136847204Y-138418361D01*
X136847204Y-138418360D01*
X136818733Y-138362484D01*
X136764989Y-138257006D01*
X136751389Y-138238287D01*
X136658551Y-138110505D01*
X136658547Y-138110500D01*
X136530492Y-137982445D01*
X136530487Y-137982441D01*
X136383990Y-137876006D01*
X136383989Y-137876005D01*
X136383987Y-137876004D01*
X136332293Y-137849664D01*
X136222632Y-137793788D01*
X136222629Y-137793787D01*
X136050403Y-137737829D01*
X135871544Y-137709500D01*
X135871539Y-137709500D01*
X135690447Y-137709500D01*
X135690442Y-137709500D01*
X135511582Y-137737829D01*
X135339356Y-137793787D01*
X135339353Y-137793788D01*
X135177995Y-137876006D01*
X135031498Y-137982441D01*
X135031493Y-137982445D01*
X134903438Y-138110500D01*
X134903434Y-138110505D01*
X134796999Y-138257002D01*
X134714781Y-138418360D01*
X134714780Y-138418363D01*
X134658822Y-138590589D01*
X134633466Y-138750678D01*
X134603537Y-138813813D01*
X134544225Y-138850744D01*
X134474362Y-138849746D01*
X134416130Y-138811136D01*
X134388520Y-138750678D01*
X134374733Y-138663639D01*
X134363164Y-138590591D01*
X134307204Y-138418361D01*
X134307204Y-138418360D01*
X134278733Y-138362484D01*
X134224989Y-138257006D01*
X134211389Y-138238287D01*
X134118551Y-138110505D01*
X134118547Y-138110500D01*
X133990492Y-137982445D01*
X133990487Y-137982441D01*
X133843990Y-137876006D01*
X133843989Y-137876005D01*
X133843987Y-137876004D01*
X133792293Y-137849664D01*
X133682632Y-137793788D01*
X133682629Y-137793787D01*
X133510403Y-137737829D01*
X133331544Y-137709500D01*
X133331539Y-137709500D01*
X133150447Y-137709500D01*
X133150442Y-137709500D01*
X132971582Y-137737829D01*
X132799356Y-137793787D01*
X132799353Y-137793788D01*
X132637995Y-137876006D01*
X132491498Y-137982441D01*
X132491493Y-137982445D01*
X132363438Y-138110500D01*
X132363434Y-138110505D01*
X132256999Y-138257002D01*
X132174781Y-138418360D01*
X132174780Y-138418363D01*
X132118822Y-138590589D01*
X132093466Y-138750678D01*
X132063537Y-138813813D01*
X132004225Y-138850744D01*
X131934362Y-138849746D01*
X131876130Y-138811136D01*
X131848520Y-138750678D01*
X131834733Y-138663639D01*
X131823164Y-138590591D01*
X131767204Y-138418361D01*
X131767204Y-138418360D01*
X131738733Y-138362484D01*
X131684989Y-138257006D01*
X131671389Y-138238287D01*
X131578551Y-138110505D01*
X131578547Y-138110500D01*
X131450492Y-137982445D01*
X131450487Y-137982441D01*
X131303990Y-137876006D01*
X131303989Y-137876005D01*
X131303987Y-137876004D01*
X131252293Y-137849664D01*
X131142632Y-137793788D01*
X131142629Y-137793787D01*
X130970403Y-137737829D01*
X130791544Y-137709500D01*
X130791539Y-137709500D01*
X130610447Y-137709500D01*
X130610442Y-137709500D01*
X130431582Y-137737829D01*
X130259356Y-137793787D01*
X130259353Y-137793788D01*
X130097995Y-137876006D01*
X129951498Y-137982441D01*
X129951493Y-137982445D01*
X129823438Y-138110500D01*
X129823434Y-138110505D01*
X129716999Y-138257002D01*
X129634781Y-138418360D01*
X129634780Y-138418363D01*
X129578822Y-138590589D01*
X129553466Y-138750678D01*
X129523537Y-138813813D01*
X129464225Y-138850744D01*
X129394362Y-138849746D01*
X129336130Y-138811136D01*
X129308520Y-138750678D01*
X129294733Y-138663639D01*
X129283164Y-138590591D01*
X129227204Y-138418361D01*
X129227204Y-138418360D01*
X129198733Y-138362484D01*
X129144989Y-138257006D01*
X129131389Y-138238287D01*
X129038551Y-138110505D01*
X129038547Y-138110500D01*
X128910492Y-137982445D01*
X128910487Y-137982441D01*
X128763990Y-137876006D01*
X128763989Y-137876005D01*
X128763987Y-137876004D01*
X128712293Y-137849664D01*
X128602632Y-137793788D01*
X128602629Y-137793787D01*
X128430403Y-137737829D01*
X128251544Y-137709500D01*
X128251539Y-137709500D01*
X128070447Y-137709500D01*
X128070442Y-137709500D01*
X127891582Y-137737829D01*
X127719356Y-137793787D01*
X127719353Y-137793788D01*
X127557995Y-137876006D01*
X127411498Y-137982441D01*
X127411493Y-137982445D01*
X127283438Y-138110500D01*
X127283434Y-138110505D01*
X127176999Y-138257002D01*
X127094781Y-138418360D01*
X127094780Y-138418363D01*
X127038822Y-138590589D01*
X127013466Y-138750678D01*
X126983537Y-138813813D01*
X126924225Y-138850744D01*
X126854362Y-138849746D01*
X126796130Y-138811136D01*
X126768520Y-138750678D01*
X126754733Y-138663639D01*
X126743164Y-138590591D01*
X126687204Y-138418361D01*
X126687204Y-138418360D01*
X126658733Y-138362484D01*
X126604989Y-138257006D01*
X126591389Y-138238287D01*
X126498551Y-138110505D01*
X126498547Y-138110500D01*
X126370492Y-137982445D01*
X126370487Y-137982441D01*
X126223990Y-137876006D01*
X126223989Y-137876005D01*
X126223987Y-137876004D01*
X126172293Y-137849664D01*
X126062632Y-137793788D01*
X126062629Y-137793787D01*
X125890403Y-137737829D01*
X125711544Y-137709500D01*
X125711539Y-137709500D01*
X125530447Y-137709500D01*
X125530442Y-137709500D01*
X125351582Y-137737829D01*
X125179356Y-137793787D01*
X125179353Y-137793788D01*
X125017995Y-137876006D01*
X124871498Y-137982441D01*
X124871493Y-137982445D01*
X124743438Y-138110500D01*
X124743434Y-138110505D01*
X124636999Y-138257002D01*
X124554781Y-138418360D01*
X124554780Y-138418363D01*
X124498822Y-138590589D01*
X124473466Y-138750678D01*
X124443537Y-138813813D01*
X124384225Y-138850744D01*
X124314362Y-138849746D01*
X124256130Y-138811136D01*
X124228520Y-138750678D01*
X124214733Y-138663639D01*
X124203164Y-138590591D01*
X124147204Y-138418361D01*
X124147204Y-138418360D01*
X124118733Y-138362484D01*
X124064989Y-138257006D01*
X124051389Y-138238287D01*
X123958551Y-138110505D01*
X123958547Y-138110500D01*
X123830492Y-137982445D01*
X123830487Y-137982441D01*
X123683990Y-137876006D01*
X123683989Y-137876005D01*
X123683987Y-137876004D01*
X123632293Y-137849664D01*
X123522632Y-137793788D01*
X123522629Y-137793787D01*
X123350403Y-137737829D01*
X123171544Y-137709500D01*
X123171539Y-137709500D01*
X122990447Y-137709500D01*
X122990442Y-137709500D01*
X122811582Y-137737829D01*
X122639356Y-137793787D01*
X122639353Y-137793788D01*
X122477995Y-137876006D01*
X122331498Y-137982441D01*
X122331493Y-137982445D01*
X122203438Y-138110500D01*
X122203434Y-138110505D01*
X122096999Y-138257002D01*
X122014781Y-138418360D01*
X122014780Y-138418363D01*
X121958822Y-138590589D01*
X121933466Y-138750678D01*
X121903537Y-138813813D01*
X121844225Y-138850744D01*
X121774362Y-138849746D01*
X121716130Y-138811136D01*
X121688520Y-138750678D01*
X121674733Y-138663639D01*
X121663164Y-138590591D01*
X121607204Y-138418361D01*
X121607204Y-138418360D01*
X121578733Y-138362484D01*
X121524989Y-138257006D01*
X121511389Y-138238287D01*
X121418551Y-138110505D01*
X121418547Y-138110500D01*
X121290492Y-137982445D01*
X121290487Y-137982441D01*
X121143990Y-137876006D01*
X121143989Y-137876005D01*
X121143987Y-137876004D01*
X121092293Y-137849664D01*
X120982632Y-137793788D01*
X120982629Y-137793787D01*
X120810403Y-137737829D01*
X120631544Y-137709500D01*
X120631539Y-137709500D01*
X120450447Y-137709500D01*
X120450442Y-137709500D01*
X120271582Y-137737829D01*
X120099356Y-137793787D01*
X120099353Y-137793788D01*
X119937995Y-137876006D01*
X119791498Y-137982441D01*
X119791493Y-137982445D01*
X119663438Y-138110500D01*
X119663434Y-138110505D01*
X119556999Y-138257002D01*
X119474781Y-138418360D01*
X119474780Y-138418363D01*
X119418822Y-138590589D01*
X119393466Y-138750678D01*
X119363537Y-138813813D01*
X119304225Y-138850744D01*
X119234362Y-138849746D01*
X119176130Y-138811136D01*
X119148520Y-138750678D01*
X119134733Y-138663639D01*
X119123164Y-138590591D01*
X119067204Y-138418361D01*
X119067204Y-138418360D01*
X119038733Y-138362484D01*
X118984989Y-138257006D01*
X118971389Y-138238287D01*
X118878551Y-138110505D01*
X118878547Y-138110500D01*
X118750492Y-137982445D01*
X118750487Y-137982441D01*
X118603990Y-137876006D01*
X118603989Y-137876005D01*
X118603987Y-137876004D01*
X118552293Y-137849664D01*
X118442632Y-137793788D01*
X118442629Y-137793787D01*
X118270403Y-137737829D01*
X118091544Y-137709500D01*
X118091539Y-137709500D01*
X117910447Y-137709500D01*
X117910442Y-137709500D01*
X117731582Y-137737829D01*
X117559356Y-137793787D01*
X117559353Y-137793788D01*
X117397995Y-137876006D01*
X117251498Y-137982441D01*
X117251493Y-137982445D01*
X117123438Y-138110500D01*
X117123434Y-138110505D01*
X117016999Y-138257002D01*
X116934781Y-138418360D01*
X116934780Y-138418363D01*
X116878822Y-138590589D01*
X116853466Y-138750678D01*
X116823537Y-138813813D01*
X116764225Y-138850744D01*
X116694362Y-138849746D01*
X116636130Y-138811136D01*
X116608520Y-138750678D01*
X116594733Y-138663639D01*
X116583164Y-138590591D01*
X116527204Y-138418361D01*
X116527204Y-138418360D01*
X116498733Y-138362484D01*
X116444989Y-138257006D01*
X116431389Y-138238287D01*
X116338551Y-138110505D01*
X116338547Y-138110500D01*
X116210492Y-137982445D01*
X116210487Y-137982441D01*
X116063990Y-137876006D01*
X116063989Y-137876005D01*
X116063987Y-137876004D01*
X116012293Y-137849664D01*
X115902632Y-137793788D01*
X115902629Y-137793787D01*
X115730403Y-137737829D01*
X115551544Y-137709500D01*
X115551539Y-137709500D01*
X115370447Y-137709500D01*
X115370442Y-137709500D01*
X115191582Y-137737829D01*
X115019356Y-137793787D01*
X115019353Y-137793788D01*
X114857995Y-137876006D01*
X114711498Y-137982441D01*
X114711493Y-137982445D01*
X114583438Y-138110500D01*
X114583434Y-138110505D01*
X114476999Y-138257002D01*
X114394781Y-138418360D01*
X114394780Y-138418363D01*
X114338822Y-138590589D01*
X114313466Y-138750678D01*
X114283537Y-138813813D01*
X114224225Y-138850744D01*
X114154362Y-138849746D01*
X114096130Y-138811136D01*
X114068520Y-138750678D01*
X114054733Y-138663639D01*
X114043164Y-138590591D01*
X113987204Y-138418361D01*
X113987204Y-138418360D01*
X113958733Y-138362484D01*
X113904989Y-138257006D01*
X113891389Y-138238287D01*
X113798551Y-138110505D01*
X113798547Y-138110500D01*
X113670492Y-137982445D01*
X113670487Y-137982441D01*
X113523990Y-137876006D01*
X113523989Y-137876005D01*
X113523987Y-137876004D01*
X113472293Y-137849664D01*
X113362632Y-137793788D01*
X113362629Y-137793787D01*
X113190403Y-137737829D01*
X113011544Y-137709500D01*
X113011539Y-137709500D01*
X112830447Y-137709500D01*
X112830442Y-137709500D01*
X112651582Y-137737829D01*
X112479356Y-137793787D01*
X112479353Y-137793788D01*
X112317995Y-137876006D01*
X112171498Y-137982441D01*
X112171493Y-137982445D01*
X112043438Y-138110500D01*
X112043434Y-138110505D01*
X111936999Y-138257002D01*
X111854781Y-138418360D01*
X111854780Y-138418363D01*
X111798822Y-138590589D01*
X111773466Y-138750678D01*
X111743537Y-138813813D01*
X111684225Y-138850744D01*
X111614362Y-138849746D01*
X111556130Y-138811136D01*
X111528520Y-138750678D01*
X111514733Y-138663639D01*
X111503164Y-138590591D01*
X111447204Y-138418361D01*
X111447204Y-138418360D01*
X111418733Y-138362484D01*
X111364989Y-138257006D01*
X111351389Y-138238287D01*
X111258551Y-138110505D01*
X111258547Y-138110500D01*
X111130492Y-137982445D01*
X111130487Y-137982441D01*
X110983990Y-137876006D01*
X110983989Y-137876005D01*
X110983987Y-137876004D01*
X110932293Y-137849664D01*
X110822632Y-137793788D01*
X110822629Y-137793787D01*
X110650403Y-137737829D01*
X110471544Y-137709500D01*
X110471539Y-137709500D01*
X110290447Y-137709500D01*
X110290442Y-137709500D01*
X110111582Y-137737829D01*
X109939356Y-137793787D01*
X109939353Y-137793788D01*
X109777995Y-137876006D01*
X109631498Y-137982441D01*
X109631493Y-137982445D01*
X109503438Y-138110500D01*
X109503434Y-138110505D01*
X109396999Y-138257002D01*
X109314781Y-138418360D01*
X109314780Y-138418363D01*
X109258822Y-138590589D01*
X109233466Y-138750678D01*
X109203537Y-138813813D01*
X109144225Y-138850744D01*
X109074362Y-138849746D01*
X109016130Y-138811136D01*
X108988520Y-138750678D01*
X108974733Y-138663639D01*
X108963164Y-138590591D01*
X108907204Y-138418361D01*
X108907204Y-138418360D01*
X108878733Y-138362484D01*
X108824989Y-138257006D01*
X108811389Y-138238287D01*
X108718551Y-138110505D01*
X108718547Y-138110500D01*
X108590492Y-137982445D01*
X108590487Y-137982441D01*
X108443990Y-137876006D01*
X108443989Y-137876005D01*
X108443987Y-137876004D01*
X108392293Y-137849664D01*
X108282632Y-137793788D01*
X108282629Y-137793787D01*
X108110403Y-137737829D01*
X107931544Y-137709500D01*
X107931539Y-137709500D01*
X107750447Y-137709500D01*
X107750442Y-137709500D01*
X107571582Y-137737829D01*
X107399356Y-137793787D01*
X107399353Y-137793788D01*
X107237995Y-137876006D01*
X107091498Y-137982441D01*
X107091493Y-137982445D01*
X106963438Y-138110500D01*
X106963434Y-138110505D01*
X106856999Y-138257002D01*
X106774781Y-138418360D01*
X106774780Y-138418363D01*
X106718822Y-138590589D01*
X106693466Y-138750678D01*
X106663537Y-138813813D01*
X106604225Y-138850744D01*
X106534362Y-138849746D01*
X106476130Y-138811136D01*
X106448520Y-138750678D01*
X106434733Y-138663639D01*
X106423164Y-138590591D01*
X106367204Y-138418361D01*
X106367204Y-138418360D01*
X106338733Y-138362484D01*
X106284989Y-138257006D01*
X106271389Y-138238287D01*
X106178551Y-138110505D01*
X106178547Y-138110500D01*
X106050492Y-137982445D01*
X106050487Y-137982441D01*
X105903990Y-137876006D01*
X105903989Y-137876005D01*
X105903987Y-137876004D01*
X105852293Y-137849664D01*
X105742632Y-137793788D01*
X105742629Y-137793787D01*
X105570403Y-137737829D01*
X105391544Y-137709500D01*
X105391539Y-137709500D01*
X105210447Y-137709500D01*
X105210442Y-137709500D01*
X105031582Y-137737829D01*
X104859356Y-137793787D01*
X104859353Y-137793788D01*
X104697995Y-137876006D01*
X104551498Y-137982441D01*
X104551493Y-137982445D01*
X104423438Y-138110500D01*
X104423434Y-138110505D01*
X104316999Y-138257002D01*
X104234781Y-138418360D01*
X104234780Y-138418363D01*
X104178822Y-138590589D01*
X104153466Y-138750678D01*
X104123537Y-138813813D01*
X104064225Y-138850744D01*
X103994362Y-138849746D01*
X103936130Y-138811136D01*
X103908520Y-138750678D01*
X103894733Y-138663639D01*
X103883164Y-138590591D01*
X103827204Y-138418361D01*
X103827204Y-138418360D01*
X103798733Y-138362484D01*
X103744989Y-138257006D01*
X103731389Y-138238287D01*
X103638551Y-138110505D01*
X103638547Y-138110500D01*
X103510492Y-137982445D01*
X103510487Y-137982441D01*
X103363990Y-137876006D01*
X103363989Y-137876005D01*
X103363987Y-137876004D01*
X103312293Y-137849664D01*
X103202632Y-137793788D01*
X103202629Y-137793787D01*
X103030403Y-137737829D01*
X102851544Y-137709500D01*
X102851539Y-137709500D01*
X102670447Y-137709500D01*
X102670442Y-137709500D01*
X102491582Y-137737829D01*
X102319356Y-137793787D01*
X102319353Y-137793788D01*
X102157995Y-137876006D01*
X102011498Y-137982441D01*
X102011493Y-137982445D01*
X101883438Y-138110500D01*
X101883434Y-138110505D01*
X101776999Y-138257002D01*
X101694781Y-138418360D01*
X101694780Y-138418363D01*
X101638822Y-138590589D01*
X101613466Y-138750678D01*
X101583537Y-138813813D01*
X101524225Y-138850744D01*
X101454362Y-138849746D01*
X101396130Y-138811136D01*
X101368520Y-138750678D01*
X101354733Y-138663639D01*
X101343164Y-138590591D01*
X101287204Y-138418361D01*
X101287204Y-138418360D01*
X101258733Y-138362484D01*
X101204989Y-138257006D01*
X101191389Y-138238287D01*
X101098551Y-138110505D01*
X101098547Y-138110500D01*
X100970492Y-137982445D01*
X100970487Y-137982441D01*
X100823990Y-137876006D01*
X100823989Y-137876005D01*
X100823987Y-137876004D01*
X100772293Y-137849664D01*
X100662632Y-137793788D01*
X100662629Y-137793787D01*
X100490403Y-137737829D01*
X100311544Y-137709500D01*
X100311539Y-137709500D01*
X100130447Y-137709500D01*
X100130442Y-137709500D01*
X99951582Y-137737829D01*
X99779356Y-137793787D01*
X99779353Y-137793788D01*
X99617995Y-137876006D01*
X99471498Y-137982441D01*
X99471493Y-137982445D01*
X99343438Y-138110500D01*
X99343434Y-138110505D01*
X99236999Y-138257002D01*
X99154781Y-138418360D01*
X99154780Y-138418363D01*
X99098822Y-138590589D01*
X99073466Y-138750678D01*
X99043537Y-138813813D01*
X98984225Y-138850744D01*
X98914362Y-138849746D01*
X98856130Y-138811136D01*
X98828520Y-138750678D01*
X98814733Y-138663639D01*
X98803164Y-138590591D01*
X98747204Y-138418361D01*
X98747204Y-138418360D01*
X98718733Y-138362484D01*
X98664989Y-138257006D01*
X98651389Y-138238287D01*
X98558551Y-138110505D01*
X98558547Y-138110500D01*
X98430492Y-137982445D01*
X98430487Y-137982441D01*
X98283990Y-137876006D01*
X98283989Y-137876005D01*
X98283987Y-137876004D01*
X98232293Y-137849664D01*
X98122632Y-137793788D01*
X98122629Y-137793787D01*
X97950403Y-137737829D01*
X97771544Y-137709500D01*
X97771539Y-137709500D01*
X97590447Y-137709500D01*
X97590442Y-137709500D01*
X97411582Y-137737829D01*
X97239356Y-137793787D01*
X97239353Y-137793788D01*
X97077995Y-137876006D01*
X96931498Y-137982441D01*
X96931493Y-137982445D01*
X96803438Y-138110500D01*
X96803434Y-138110505D01*
X96696999Y-138257002D01*
X96614781Y-138418360D01*
X96614780Y-138418363D01*
X96558822Y-138590589D01*
X96533466Y-138750678D01*
X96503537Y-138813813D01*
X96444225Y-138850744D01*
X96374362Y-138849746D01*
X96316130Y-138811136D01*
X96288520Y-138750678D01*
X96274733Y-138663639D01*
X96263164Y-138590591D01*
X96207204Y-138418361D01*
X96207204Y-138418360D01*
X96178733Y-138362484D01*
X96124989Y-138257006D01*
X96111389Y-138238287D01*
X96018551Y-138110505D01*
X96018547Y-138110500D01*
X95890492Y-137982445D01*
X95890487Y-137982441D01*
X95743990Y-137876006D01*
X95743989Y-137876005D01*
X95743987Y-137876004D01*
X95692293Y-137849664D01*
X95582632Y-137793788D01*
X95582629Y-137793787D01*
X95410403Y-137737829D01*
X95231544Y-137709500D01*
X95231539Y-137709500D01*
X95050447Y-137709500D01*
X95050442Y-137709500D01*
X94871582Y-137737829D01*
X94699356Y-137793787D01*
X94699353Y-137793788D01*
X94537995Y-137876006D01*
X94391498Y-137982441D01*
X94391493Y-137982445D01*
X94263438Y-138110500D01*
X94263434Y-138110505D01*
X94156999Y-138257002D01*
X94074781Y-138418360D01*
X94074780Y-138418363D01*
X94018822Y-138590589D01*
X93993466Y-138750678D01*
X93963537Y-138813813D01*
X93904225Y-138850744D01*
X93834362Y-138849746D01*
X93776130Y-138811136D01*
X93748520Y-138750678D01*
X93734733Y-138663639D01*
X93723164Y-138590591D01*
X93667204Y-138418361D01*
X93667204Y-138418360D01*
X93638733Y-138362484D01*
X93584989Y-138257006D01*
X93571389Y-138238287D01*
X93478551Y-138110505D01*
X93478547Y-138110500D01*
X93350492Y-137982445D01*
X93350487Y-137982441D01*
X93203990Y-137876006D01*
X93203989Y-137876005D01*
X93203987Y-137876004D01*
X93152293Y-137849664D01*
X93042632Y-137793788D01*
X93042629Y-137793787D01*
X92870403Y-137737829D01*
X92691544Y-137709500D01*
X92691539Y-137709500D01*
X92510447Y-137709500D01*
X92510442Y-137709500D01*
X92331582Y-137737829D01*
X92159356Y-137793787D01*
X92159353Y-137793788D01*
X91997995Y-137876006D01*
X91851498Y-137982441D01*
X91851493Y-137982445D01*
X91723438Y-138110500D01*
X91723434Y-138110505D01*
X91616999Y-138257002D01*
X91534781Y-138418360D01*
X91534780Y-138418363D01*
X91478822Y-138590589D01*
X91453466Y-138750678D01*
X91423537Y-138813813D01*
X91364225Y-138850744D01*
X91294362Y-138849746D01*
X91236130Y-138811136D01*
X91208520Y-138750678D01*
X91194733Y-138663639D01*
X91183164Y-138590591D01*
X91127204Y-138418361D01*
X91127204Y-138418360D01*
X91098733Y-138362484D01*
X91044989Y-138257006D01*
X91031389Y-138238287D01*
X90938551Y-138110505D01*
X90938547Y-138110500D01*
X90810492Y-137982445D01*
X90810487Y-137982441D01*
X90663990Y-137876006D01*
X90663989Y-137876005D01*
X90663987Y-137876004D01*
X90612293Y-137849664D01*
X90502632Y-137793788D01*
X90502629Y-137793787D01*
X90330403Y-137737829D01*
X90151544Y-137709500D01*
X90151539Y-137709500D01*
X89970447Y-137709500D01*
X89970442Y-137709500D01*
X89791582Y-137737829D01*
X89619356Y-137793787D01*
X89619353Y-137793788D01*
X89457995Y-137876006D01*
X89311498Y-137982441D01*
X89311493Y-137982445D01*
X89183438Y-138110500D01*
X89183434Y-138110505D01*
X89076999Y-138257002D01*
X88994781Y-138418360D01*
X88994780Y-138418363D01*
X88938822Y-138590589D01*
X88913466Y-138750678D01*
X88883537Y-138813813D01*
X88824225Y-138850744D01*
X88754362Y-138849746D01*
X88696130Y-138811136D01*
X88668520Y-138750678D01*
X88654733Y-138663639D01*
X88643164Y-138590591D01*
X88587204Y-138418361D01*
X88587204Y-138418360D01*
X88558733Y-138362484D01*
X88504989Y-138257006D01*
X88491389Y-138238287D01*
X88398551Y-138110505D01*
X88398547Y-138110500D01*
X88270492Y-137982445D01*
X88270487Y-137982441D01*
X88123990Y-137876006D01*
X88123989Y-137876005D01*
X88123987Y-137876004D01*
X88072293Y-137849664D01*
X87962632Y-137793788D01*
X87962629Y-137793787D01*
X87790403Y-137737829D01*
X87611544Y-137709500D01*
X87611539Y-137709500D01*
X87430447Y-137709500D01*
X87430442Y-137709500D01*
X87251582Y-137737829D01*
X87079356Y-137793787D01*
X87079353Y-137793788D01*
X86917995Y-137876006D01*
X86771498Y-137982441D01*
X86771493Y-137982445D01*
X86643438Y-138110500D01*
X86643434Y-138110505D01*
X86536999Y-138257002D01*
X86454781Y-138418360D01*
X86454780Y-138418363D01*
X86398822Y-138590589D01*
X86373466Y-138750678D01*
X86343537Y-138813813D01*
X86284225Y-138850744D01*
X86214362Y-138849746D01*
X86156130Y-138811136D01*
X86128520Y-138750678D01*
X86114733Y-138663639D01*
X86103164Y-138590591D01*
X86047204Y-138418361D01*
X86047204Y-138418360D01*
X86018733Y-138362484D01*
X85964989Y-138257006D01*
X85951389Y-138238287D01*
X85858551Y-138110505D01*
X85858547Y-138110500D01*
X85730492Y-137982445D01*
X85730487Y-137982441D01*
X85583990Y-137876006D01*
X85583989Y-137876005D01*
X85583987Y-137876004D01*
X85532293Y-137849664D01*
X85422632Y-137793788D01*
X85422629Y-137793787D01*
X85250403Y-137737829D01*
X85071544Y-137709500D01*
X85071539Y-137709500D01*
X84890447Y-137709500D01*
X84890442Y-137709500D01*
X84711582Y-137737829D01*
X84539356Y-137793787D01*
X84539353Y-137793788D01*
X84377995Y-137876006D01*
X84231498Y-137982441D01*
X84231493Y-137982445D01*
X84103438Y-138110500D01*
X84103434Y-138110505D01*
X83996999Y-138257002D01*
X83914781Y-138418360D01*
X83914780Y-138418363D01*
X83858822Y-138590589D01*
X83830493Y-138769448D01*
X83830493Y-138950551D01*
X83858822Y-139129410D01*
X83914780Y-139301636D01*
X83914781Y-139301639D01*
X83996999Y-139462997D01*
X84103434Y-139609494D01*
X84103438Y-139609499D01*
X84231493Y-139737554D01*
X84231498Y-139737558D01*
X84354621Y-139827011D01*
X84377999Y-139843996D01*
X84483477Y-139897740D01*
X84539353Y-139926211D01*
X84539356Y-139926212D01*
X84625469Y-139954191D01*
X84711584Y-139982171D01*
X84784632Y-139993740D01*
X84871671Y-140007527D01*
X84934806Y-140037456D01*
X84971737Y-140096768D01*
X84970739Y-140166631D01*
X84932129Y-140224863D01*
X84871671Y-140252473D01*
X84711582Y-140277829D01*
X84539356Y-140333787D01*
X84539353Y-140333788D01*
X84377995Y-140416006D01*
X84231498Y-140522441D01*
X84231493Y-140522445D01*
X84103438Y-140650500D01*
X84103434Y-140650505D01*
X83996999Y-140797002D01*
X83914781Y-140958360D01*
X83914780Y-140958363D01*
X83858822Y-141130589D01*
X83830493Y-141309448D01*
X83830493Y-141490551D01*
X83858822Y-141669410D01*
X83914780Y-141841636D01*
X83914781Y-141841639D01*
X83996999Y-142002997D01*
X84103434Y-142149494D01*
X84103438Y-142149499D01*
X84231493Y-142277554D01*
X84231498Y-142277558D01*
X84359280Y-142370396D01*
X84377999Y-142383996D01*
X84487779Y-142439932D01*
X84487795Y-142439940D01*
X84538591Y-142487915D01*
X84555500Y-142550425D01*
X84555500Y-145826000D01*
X84535815Y-145893039D01*
X84483011Y-145938794D01*
X84431500Y-145950000D01*
X78155500Y-145950000D01*
X78088461Y-145930315D01*
X78042706Y-145877511D01*
X78031500Y-145826000D01*
X78031500Y-141200000D01*
X79937088Y-141200000D01*
X80709113Y-141200000D01*
X80705068Y-141207007D01*
X80670993Y-141334174D01*
X80670993Y-141465826D01*
X80705068Y-141592993D01*
X80709113Y-141600000D01*
X79937088Y-141600000D01*
X79951771Y-141692705D01*
X80012574Y-141879835D01*
X80101897Y-142055143D01*
X80217548Y-142214321D01*
X80356671Y-142353444D01*
X80515849Y-142469095D01*
X80693308Y-142559515D01*
X80744104Y-142607489D01*
X80760899Y-142675310D01*
X80738362Y-142741445D01*
X80693308Y-142780485D01*
X80515849Y-142870904D01*
X80356671Y-142986555D01*
X80217548Y-143125678D01*
X80101897Y-143284856D01*
X80012574Y-143460164D01*
X79951771Y-143647294D01*
X79937088Y-143740000D01*
X80709113Y-143740000D01*
X80705068Y-143747007D01*
X80670993Y-143874174D01*
X80670993Y-144005826D01*
X80705068Y-144132993D01*
X80709113Y-144140000D01*
X79937088Y-144140000D01*
X79951771Y-144232705D01*
X80012574Y-144419835D01*
X80101897Y-144595143D01*
X80217548Y-144754321D01*
X80356671Y-144893444D01*
X80515849Y-145009095D01*
X80691155Y-145098418D01*
X80878279Y-145159219D01*
X80878285Y-145159221D01*
X80970993Y-145173904D01*
X80970993Y-144401879D01*
X80978000Y-144405925D01*
X81105167Y-144440000D01*
X81236819Y-144440000D01*
X81363986Y-144405925D01*
X81370993Y-144401879D01*
X81370993Y-145173903D01*
X81463700Y-145159221D01*
X81463706Y-145159219D01*
X81650830Y-145098418D01*
X81826136Y-145009095D01*
X81985314Y-144893444D01*
X82124437Y-144754321D01*
X82240088Y-144595143D01*
X82329411Y-144419835D01*
X82390214Y-144232705D01*
X82404898Y-144140000D01*
X81632873Y-144140000D01*
X81636918Y-144132993D01*
X81670993Y-144005826D01*
X81670993Y-143874174D01*
X81636918Y-143747007D01*
X81632873Y-143740000D01*
X82404898Y-143740000D01*
X82390214Y-143647294D01*
X82329411Y-143460164D01*
X82240088Y-143284856D01*
X82124437Y-143125678D01*
X81985314Y-142986555D01*
X81826134Y-142870902D01*
X81648678Y-142780485D01*
X81597881Y-142732511D01*
X81581086Y-142664690D01*
X81603623Y-142598555D01*
X81648678Y-142559515D01*
X81826134Y-142469097D01*
X81985314Y-142353444D01*
X82124437Y-142214321D01*
X82240088Y-142055143D01*
X82329411Y-141879835D01*
X82390214Y-141692705D01*
X82404898Y-141600000D01*
X81632873Y-141600000D01*
X81636918Y-141592993D01*
X81670993Y-141465826D01*
X81670993Y-141334174D01*
X81636918Y-141207007D01*
X81632873Y-141200000D01*
X82404898Y-141200000D01*
X82390214Y-141107294D01*
X82329411Y-140920164D01*
X82240088Y-140744856D01*
X82124437Y-140585678D01*
X81985314Y-140446555D01*
X81826136Y-140330904D01*
X81650828Y-140241581D01*
X81463698Y-140180778D01*
X81370993Y-140166094D01*
X81370993Y-140938120D01*
X81363986Y-140934075D01*
X81236819Y-140900000D01*
X81105167Y-140900000D01*
X80978000Y-140934075D01*
X80970993Y-140938120D01*
X80970993Y-140166094D01*
X80878287Y-140180778D01*
X80691157Y-140241581D01*
X80515849Y-140330904D01*
X80356671Y-140446555D01*
X80217548Y-140585678D01*
X80101897Y-140744856D01*
X80012574Y-140920164D01*
X79951771Y-141107294D01*
X79937088Y-141200000D01*
X78031500Y-141200000D01*
X78031500Y-140334110D01*
X78031500Y-140334108D01*
X77997392Y-140206814D01*
X77931500Y-140092686D01*
X77838314Y-139999500D01*
X77781250Y-139966554D01*
X77724187Y-139933608D01*
X77660539Y-139916554D01*
X77596892Y-139899500D01*
X77596891Y-139899500D01*
X68504500Y-139899500D01*
X68437461Y-139879815D01*
X68391706Y-139827011D01*
X68380500Y-139775500D01*
X68380500Y-128433885D01*
X104330500Y-128433885D01*
X104330500Y-128453735D01*
X104330500Y-128866115D01*
X104364412Y-129297013D01*
X104432028Y-129723922D01*
X104532930Y-130144210D01*
X104532934Y-130144221D01*
X104666494Y-130555280D01*
X104737887Y-130727638D01*
X104831904Y-130954615D01*
X104889463Y-131067580D01*
X105028136Y-131339740D01*
X105028142Y-131339751D01*
X105253966Y-131708262D01*
X105253974Y-131708273D01*
X105508025Y-132057946D01*
X105508035Y-132057960D01*
X105788737Y-132386617D01*
X105788743Y-132386624D01*
X106094376Y-132692257D01*
X106094382Y-132692262D01*
X106423039Y-132972964D01*
X106423046Y-132972969D01*
X106772728Y-133227027D01*
X106772732Y-133227029D01*
X106772737Y-133227033D01*
X107141248Y-133452857D01*
X107141254Y-133452860D01*
X107141265Y-133452867D01*
X107526385Y-133649096D01*
X107925714Y-133814503D01*
X107925719Y-133814505D01*
X108030240Y-133848465D01*
X108336790Y-133948070D01*
X108757078Y-134048972D01*
X109183987Y-134116588D01*
X109614885Y-134150500D01*
X109614893Y-134150500D01*
X110047107Y-134150500D01*
X110047115Y-134150500D01*
X110478013Y-134116588D01*
X110904922Y-134048972D01*
X111325210Y-133948070D01*
X111736286Y-133814503D01*
X112135615Y-133649096D01*
X112520735Y-133452867D01*
X112889272Y-133227027D01*
X113238954Y-132972969D01*
X113567624Y-132692257D01*
X113873257Y-132386624D01*
X114153969Y-132057954D01*
X114408027Y-131708272D01*
X114633867Y-131339735D01*
X114830096Y-130954615D01*
X114995503Y-130555286D01*
X115129070Y-130144210D01*
X115229972Y-129723922D01*
X115297588Y-129297013D01*
X115331500Y-128866115D01*
X115331500Y-128433885D01*
X194330500Y-128433885D01*
X194330500Y-128453735D01*
X194330500Y-128866115D01*
X194364412Y-129297013D01*
X194432028Y-129723922D01*
X194532930Y-130144210D01*
X194532934Y-130144221D01*
X194666494Y-130555280D01*
X194737887Y-130727638D01*
X194831904Y-130954615D01*
X194889463Y-131067580D01*
X195028136Y-131339740D01*
X195028142Y-131339751D01*
X195253966Y-131708262D01*
X195253974Y-131708273D01*
X195508025Y-132057946D01*
X195508035Y-132057960D01*
X195788737Y-132386617D01*
X195788743Y-132386624D01*
X196094376Y-132692257D01*
X196094382Y-132692262D01*
X196423039Y-132972964D01*
X196423046Y-132972969D01*
X196772728Y-133227027D01*
X196772732Y-133227029D01*
X196772737Y-133227033D01*
X197141248Y-133452857D01*
X197141254Y-133452860D01*
X197141265Y-133452867D01*
X197526385Y-133649096D01*
X197925714Y-133814503D01*
X197925719Y-133814505D01*
X198030240Y-133848465D01*
X198336790Y-133948070D01*
X198757078Y-134048972D01*
X199183987Y-134116588D01*
X199614885Y-134150500D01*
X199614893Y-134150500D01*
X200047107Y-134150500D01*
X200047115Y-134150500D01*
X200478013Y-134116588D01*
X200904922Y-134048972D01*
X201325210Y-133948070D01*
X201736286Y-133814503D01*
X202135615Y-133649096D01*
X202520735Y-133452867D01*
X202889272Y-133227027D01*
X203238954Y-132972969D01*
X203567624Y-132692257D01*
X203873257Y-132386624D01*
X204153969Y-132057954D01*
X204408027Y-131708272D01*
X204633867Y-131339735D01*
X204830096Y-130954615D01*
X204995503Y-130555286D01*
X205129070Y-130144210D01*
X205229972Y-129723922D01*
X205297588Y-129297013D01*
X205331500Y-128866115D01*
X205331500Y-128433885D01*
X205297588Y-128002987D01*
X205229972Y-127576078D01*
X205129070Y-127155790D01*
X204995503Y-126744714D01*
X204830096Y-126345385D01*
X204633867Y-125960265D01*
X204408027Y-125591728D01*
X204153969Y-125242046D01*
X204153964Y-125242039D01*
X203873262Y-124913382D01*
X203873257Y-124913376D01*
X203567624Y-124607743D01*
X203433283Y-124493004D01*
X203238960Y-124327035D01*
X203238946Y-124327025D01*
X202889273Y-124072974D01*
X202889262Y-124072966D01*
X202520751Y-123847142D01*
X202520740Y-123847136D01*
X202520739Y-123847135D01*
X202520735Y-123847133D01*
X202135615Y-123650904D01*
X202007677Y-123597910D01*
X201736280Y-123485494D01*
X201443796Y-123390461D01*
X201325210Y-123351930D01*
X200904922Y-123251028D01*
X200478013Y-123183412D01*
X200047120Y-123149500D01*
X200047115Y-123149500D01*
X199614885Y-123149500D01*
X199614879Y-123149500D01*
X199183986Y-123183412D01*
X199183985Y-123183412D01*
X198757083Y-123251027D01*
X198757080Y-123251027D01*
X198757078Y-123251028D01*
X198606562Y-123287163D01*
X198336801Y-123351927D01*
X198336795Y-123351928D01*
X198336790Y-123351930D01*
X198336778Y-123351934D01*
X197925719Y-123485494D01*
X197526387Y-123650903D01*
X197141259Y-123847136D01*
X197141248Y-123847142D01*
X196772737Y-124072966D01*
X196772726Y-124072974D01*
X196423053Y-124327025D01*
X196423039Y-124327035D01*
X196094382Y-124607737D01*
X196094368Y-124607750D01*
X195788750Y-124913368D01*
X195788737Y-124913382D01*
X195508035Y-125242039D01*
X195508025Y-125242053D01*
X195253974Y-125591726D01*
X195253966Y-125591737D01*
X195028142Y-125960248D01*
X195028136Y-125960259D01*
X194831903Y-126345387D01*
X194666494Y-126744719D01*
X194542066Y-127127669D01*
X194532930Y-127155790D01*
X194432028Y-127576078D01*
X194364412Y-128002987D01*
X194330500Y-128433885D01*
X115331500Y-128433885D01*
X115297588Y-128002987D01*
X115229972Y-127576078D01*
X115129070Y-127155790D01*
X114995503Y-126744714D01*
X114830096Y-126345385D01*
X114633867Y-125960265D01*
X114408027Y-125591728D01*
X114153969Y-125242046D01*
X114153964Y-125242039D01*
X113873262Y-124913382D01*
X113873257Y-124913376D01*
X113567624Y-124607743D01*
X113433283Y-124493004D01*
X113238960Y-124327035D01*
X113238946Y-124327025D01*
X112889273Y-124072974D01*
X112889262Y-124072966D01*
X112520751Y-123847142D01*
X112520740Y-123847136D01*
X112520739Y-123847135D01*
X112520735Y-123847133D01*
X112135615Y-123650904D01*
X112007677Y-123597910D01*
X111736280Y-123485494D01*
X111443796Y-123390461D01*
X111325210Y-123351930D01*
X110904922Y-123251028D01*
X110478013Y-123183412D01*
X110047120Y-123149500D01*
X110047115Y-123149500D01*
X109614885Y-123149500D01*
X109614879Y-123149500D01*
X109183986Y-123183412D01*
X109183985Y-123183412D01*
X108757083Y-123251027D01*
X108757080Y-123251027D01*
X108757078Y-123251028D01*
X108606562Y-123287163D01*
X108336801Y-123351927D01*
X108336795Y-123351928D01*
X108336790Y-123351930D01*
X108336778Y-123351934D01*
X107925719Y-123485494D01*
X107526387Y-123650903D01*
X107141259Y-123847136D01*
X107141248Y-123847142D01*
X106772737Y-124072966D01*
X106772726Y-124072974D01*
X106423053Y-124327025D01*
X106423039Y-124327035D01*
X106094382Y-124607737D01*
X106094368Y-124607750D01*
X105788750Y-124913368D01*
X105788737Y-124913382D01*
X105508035Y-125242039D01*
X105508025Y-125242053D01*
X105253974Y-125591726D01*
X105253966Y-125591737D01*
X105028142Y-125960248D01*
X105028136Y-125960259D01*
X104831903Y-126345387D01*
X104666494Y-126744719D01*
X104542066Y-127127669D01*
X104532930Y-127155790D01*
X104432028Y-127576078D01*
X104364412Y-128002987D01*
X104330500Y-128433885D01*
X68380500Y-128433885D01*
X68380500Y-26024500D01*
X68400185Y-25957461D01*
X68452989Y-25911706D01*
X68504500Y-25900500D01*
X72706500Y-25900500D01*
X72773539Y-25920185D01*
G37*
G04 #@! TD.AperFunction*
M02*
