G04 #@! TF.GenerationSoftware,KiCad,Pcbnew,10.0.3*
G04 #@! TF.CreationDate,2026-09-24T15:50:35+02:00*
G04 #@! TF.ProjectId,neocart_blank_cha,6e656f63-6172-4745-9f62-6c616e6b5f63,rev?*
G04 #@! TF.SameCoordinates,Original*
G04 #@! TF.FileFunction,Profile,NP*
%FSLAX46Y46*%
G04 Gerber Fmt 4.6, Leading zero omitted, Abs format (unit mm)*
G04 Created by KiCad (PCBNEW 10.0.3) date 2026-09-24 15:50:35*
%MOMM*%
%LPD*%
G01*
G04 APERTURE LIST*
G04 #@! TA.AperFunction,Profile*
%ADD10C,0.100000*%
G04 #@! TD*
G04 APERTURE END LIST*
D10*
X67880000Y-25400000D02*
X67880000Y-140400000D01*
X67880000Y-25400000D02*
X73331000Y-25400000D01*
X67880000Y-140400000D02*
X77531000Y-140400000D01*
X73331000Y-25400000D02*
X73331000Y-27900000D01*
X73331000Y-27900000D02*
X85331000Y-27900000D01*
X77531000Y-140400000D02*
X77531000Y-159400000D01*
X77531000Y-159400000D02*
X232131000Y-159400000D01*
X85331000Y-25400000D02*
X85331000Y-27900000D01*
X85331000Y-25400000D02*
X224331000Y-25400000D01*
X114831000Y-128650000D02*
G75*
G02*
X104831000Y-128650000I-5000000J0D01*
G01*
X104831000Y-128650000D02*
G75*
G02*
X114831000Y-128650000I5000000J0D01*
G01*
X204831000Y-128650000D02*
G75*
G02*
X194831000Y-128650000I-5000000J0D01*
G01*
X194831000Y-128650000D02*
G75*
G02*
X204831000Y-128650000I5000000J0D01*
G01*
X224331000Y-25400000D02*
X224331000Y-27900000D01*
X224331000Y-27900000D02*
X236331000Y-27900000D01*
X232131000Y-140400000D02*
X232131000Y-159400000D01*
X232131000Y-140400000D02*
X241780000Y-140400000D01*
X236331000Y-25400000D02*
X236331000Y-27900000D01*
X236331000Y-25400000D02*
X241780000Y-25400000D01*
X241780000Y-25400000D02*
X241780000Y-140400000D01*
M02*
