M48
; DRILL file KiCad 10.0.3 date 2026-09-24T15:50:36
; FORMAT={-:-/ absolute / metric / decimal}
; #@! TF.CreationDate,2026-09-24T15:50:36+02:00
; #@! TF.GenerationSoftware,Kicad,Pcbnew,10.0.3
; #@! TF.FileFunction,MixedPlating,1,2
FMAT,2
METRIC
; #@! TA.AperFunction,Plated,PTH,ComponentDrill
T1C1.000
%
G90
G05
T1
X81.171Y-141.4
X81.171Y-143.94
X84.981Y-138.86
X84.981Y-141.4
X87.521Y-138.86
X87.521Y-141.4
X90.061Y-138.86
X90.061Y-141.4
X92.601Y-138.86
X92.601Y-141.4
X95.141Y-138.86
X95.141Y-141.4
X97.681Y-138.86
X97.681Y-141.4
X100.221Y-138.86
X100.221Y-141.4
X102.761Y-138.86
X102.761Y-141.4
X105.301Y-138.86
X105.301Y-141.4
X107.841Y-138.86
X107.841Y-141.4
X110.381Y-138.86
X110.381Y-141.4
X112.921Y-138.86
X112.921Y-141.4
X115.461Y-138.86
X115.461Y-141.4
X118.001Y-138.86
X118.001Y-141.4
X120.541Y-138.86
X120.541Y-141.4
X123.081Y-138.86
X123.081Y-141.4
X125.621Y-138.86
X125.621Y-141.4
X128.161Y-138.86
X128.161Y-141.4
X130.701Y-138.86
X130.701Y-141.4
X133.241Y-138.86
X133.241Y-141.4
X135.781Y-138.86
X135.781Y-141.4
X138.321Y-138.86
X138.321Y-141.4
X140.861Y-138.86
X140.861Y-141.4
X143.401Y-138.86
X143.401Y-141.4
X145.941Y-138.86
X145.941Y-141.4
X148.481Y-138.86
X148.481Y-141.4
X153.561Y-141.4
X153.561Y-143.94
X156.101Y-141.4
X156.101Y-143.94
X161.181Y-138.86
X161.181Y-141.4
X163.721Y-138.86
X163.721Y-141.4
X166.261Y-138.86
X166.261Y-141.4
X168.801Y-138.86
X168.801Y-141.4
X171.341Y-138.86
X171.341Y-141.4
X173.881Y-138.86
X173.881Y-141.4
X176.421Y-138.86
X176.421Y-141.4
X178.961Y-138.86
X178.961Y-141.4
X181.501Y-138.86
X181.501Y-141.4
X184.041Y-138.86
X184.041Y-141.4
X186.581Y-138.86
X186.581Y-141.4
X189.121Y-138.86
X189.121Y-141.4
X191.661Y-138.86
X191.661Y-141.4
X194.201Y-138.86
X194.201Y-141.4
X196.741Y-138.86
X196.741Y-141.4
X199.281Y-138.86
X199.281Y-141.4
X201.821Y-138.86
X201.821Y-141.4
X204.361Y-138.86
X204.361Y-141.4
X206.901Y-138.86
X206.901Y-141.4
X209.441Y-138.86
X209.441Y-141.4
X211.981Y-138.86
X211.981Y-141.4
X214.521Y-138.86
X214.521Y-141.4
X217.061Y-138.86
X217.061Y-141.4
X219.601Y-138.86
X219.601Y-141.4
X222.141Y-138.86
X222.141Y-141.4
X224.681Y-138.86
X224.681Y-141.4
X228.491Y-141.4
X228.491Y-143.94
M30
