M48
; DRILL file KiCad 10.0.3 date 2026-10-01T18:26:25
; FORMAT={-:-/ absolute / metric / decimal}
; #@! TF.CreationDate,2026-10-01T18:26:25+02:00
; #@! TF.GenerationSoftware,Kicad,Pcbnew,10.0.3
; #@! TF.FileFunction,MixedPlating,1,2
FMAT,2
METRIC
; #@! TA.AperFunction,Plated,PTH,ViaDrill
T1C0.300
; #@! TA.AperFunction,Plated,PTH,ComponentDrill
T2C1.000
; #@! TA.AperFunction,Plated,PTH,ComponentDrill
T3C1.100
; #@! TA.AperFunction,NonPlated,NPTH,ComponentDrill
T4C3.200
%
G90
G05
T1
X22.0Y-22.0
X22.0Y-28.0
X22.0Y-34.0
X22.0Y-40.0
X22.0Y-46.0
X22.0Y-52.0
X22.0Y-58.0
X22.0Y-64.0
X22.0Y-70.0
X22.0Y-76.0
X22.0Y-82.0
X22.0Y-88.0
X22.0Y-94.0
X22.0Y-100.0
X22.0Y-106.0
X22.0Y-112.0
X22.0Y-118.0
X28.0Y-22.0
X28.0Y-28.0
X28.0Y-34.0
X28.0Y-40.0
X28.0Y-46.0
X28.0Y-52.0
X28.0Y-58.0
X28.0Y-64.0
X28.0Y-70.0
X28.0Y-76.0
X28.0Y-82.0
X28.0Y-88.0
X28.0Y-94.0
X28.0Y-100.0
X28.0Y-106.0
X28.0Y-112.0
X28.0Y-118.0
X34.0Y-22.0
X34.0Y-40.0
X34.0Y-46.0
X34.0Y-52.0
X34.0Y-58.0
X34.0Y-64.0
X34.0Y-70.0
X34.0Y-76.0
X34.0Y-82.0
X34.0Y-88.0
X34.0Y-94.0
X34.0Y-100.0
X34.0Y-106.0
X34.0Y-112.0
X34.0Y-118.0
X40.0Y-22.0
X40.0Y-40.0
X40.0Y-46.0
X40.0Y-52.0
X40.0Y-58.0
X40.0Y-64.0
X40.0Y-70.0
X40.0Y-76.0
X40.0Y-82.0
X40.0Y-88.0
X40.0Y-94.0
X40.0Y-100.0
X40.0Y-106.0
X40.0Y-112.0
X40.0Y-118.0
X42.03Y-32.26
X43.028Y-35.146
X45.376Y-38.226
X46.0Y-22.0
X46.0Y-46.0
X46.0Y-52.0
X46.0Y-58.0
X46.0Y-64.0
X46.0Y-70.0
X46.0Y-76.0
X46.0Y-82.0
X46.0Y-88.0
X46.0Y-94.0
X46.0Y-100.0
X46.0Y-106.0
X46.0Y-112.0
X46.0Y-118.0
X49.25Y-52.62
X49.931Y-30.081
X51.074Y-44.921
X51.627Y-47.491
X52.0Y-22.0
X52.0Y-64.0
X52.0Y-70.0
X52.0Y-76.0
X52.0Y-82.0
X52.0Y-88.0
X52.0Y-94.0
X52.0Y-100.0
X52.0Y-106.0
X52.0Y-112.0
X52.0Y-118.0
X52.03Y-49.76
X52.689Y-42.446
X53.128Y-47.395
X53.33Y-50.16
X53.416Y-52.482
X53.623Y-43.374
X53.685Y-48.467
X54.148Y-42.505
X54.23Y-49.26
X54.964Y-51.438
X55.182Y-43.266
X55.365Y-44.777
X56.024Y-44.815
X56.279Y-42.257
X56.987Y-30.329
X57.743Y-45.008
X57.842Y-43.274
X58.0Y-22.0
X58.0Y-70.0
X58.0Y-76.0
X58.0Y-82.0
X58.0Y-88.0
X58.0Y-94.0
X58.0Y-100.0
X58.0Y-106.0
X58.0Y-112.0
X58.0Y-118.0
X59.438Y-36.997
X59.443Y-43.168
X59.617Y-45.017
X59.912Y-48.008
X60.269Y-45.018
X60.891Y-60.087
X61.032Y-38.101
X61.232Y-54.802
X62.106Y-52.661
X62.269Y-45.28
X62.614Y-36.308
X62.748Y-61.564
X63.095Y-57.835
X63.792Y-55.716
X64.0Y-22.0
X64.0Y-76.0
X64.0Y-82.0
X64.0Y-88.0
X64.0Y-94.0
X64.0Y-100.0
X64.0Y-106.0
X64.0Y-112.0
X64.0Y-118.0
X64.043Y-59.527
X65.03Y-65.804
X65.529Y-67.984
X66.438Y-47.555
X66.559Y-45.015
X66.719Y-52.443
X67.451Y-65.388
X68.054Y-64.544
X68.205Y-65.386
X68.75Y-68.032
X68.801Y-63.817
X69.128Y-43.443
X69.141Y-47.623
X69.168Y-45.025
X69.169Y-42.716
X69.781Y-64.973
X69.82Y-44.871
X69.825Y-63.355
X70.0Y-22.0
X70.0Y-82.0
X70.0Y-88.0
X70.0Y-94.0
X70.0Y-100.0
X70.0Y-106.0
X70.0Y-112.0
X70.0Y-118.0
X70.001Y-70.692
X70.589Y-44.681
X70.832Y-64.898
X71.126Y-71.106
X71.246Y-45.026
X72.924Y-63.148
X73.877Y-68.06
X73.982Y-65.396
X74.891Y-68.063
X75.399Y-45.018
X75.61Y-64.081
X75.912Y-81.225
X76.0Y-22.0
X76.0Y-40.0
X76.0Y-106.0
X76.0Y-112.0
X76.0Y-118.0
X76.4Y-70.277
X77.638Y-44.693
X78.186Y-45.768
X78.195Y-49.79
X78.773Y-65.484
X79.196Y-66.006
X80.552Y-65.883
X81.224Y-65.871
X82.0Y-22.0
X82.0Y-40.0
X82.0Y-46.0
X82.0Y-58.0
X82.0Y-112.0
X82.0Y-118.0
X82.46Y-65.293
X82.618Y-66.697
X82.653Y-74.749
X83.746Y-75.009
X84.276Y-77.051
X84.337Y-78.205
X84.786Y-77.728
X86.469Y-78.931
X87.254Y-54.46
X88.0Y-22.0
X88.0Y-40.0
X88.0Y-46.0
X88.0Y-58.0
X88.0Y-118.0
X88.275Y-52.688
X89.011Y-55.289
X89.272Y-54.315
X90.118Y-80.255
X90.75Y-55.048
X91.279Y-52.44
X91.381Y-47.898
X91.391Y-51.776
X92.74Y-36.33
X92.747Y-67.338
X93.15Y-54.973
X93.201Y-44.95
X93.253Y-49.588
X93.373Y-67.881
X93.775Y-52.413
X93.854Y-48.852
X94.0Y-22.0
X94.0Y-118.0
X94.034Y-56.731
X94.768Y-69.088
X94.854Y-35.046
X95.25Y-55.45
X95.75Y-55.952
X96.25Y-68.446
X96.75Y-56.539
X96.978Y-44.616
X97.722Y-52.446
X97.959Y-45.016
X98.153Y-43.868
X98.209Y-55.438
X99.25Y-54.985
X99.323Y-83.371
X99.614Y-42.738
X99.71Y-35.025
X99.75Y-52.145
X100.0Y-22.0
X100.0Y-118.0
X100.056Y-36.33
X100.162Y-55.567
X100.309Y-56.653
X100.558Y-31.388
X101.058Y-30.877
X101.076Y-57.433
X102.466Y-43.237
X102.791Y-67.098
X103.889Y-114.069
X105.296Y-111.066
X105.809Y-80.732
X105.955Y-39.368
X106.0Y-22.0
X106.0Y-118.0
X106.605Y-39.832
X107.363Y-39.471
X107.911Y-50.092
X108.046Y-38.871
X108.466Y-70.461
X108.586Y-48.931
X109.585Y-71.257
X110.198Y-69.727
X110.695Y-67.86
X110.868Y-71.37
X111.35Y-43.44
X111.631Y-71.131
X112.0Y-22.0
X112.0Y-118.0
X112.258Y-65.491
X112.886Y-58.64
X112.987Y-80.732
X113.171Y-48.196
X113.205Y-71.769
X113.236Y-64.129
X113.65Y-81.225
X113.654Y-54.992
X113.79Y-68.628
X113.997Y-78.858
X114.25Y-67.978
X114.574Y-48.706
X114.829Y-45.029
X115.146Y-63.992
X115.296Y-37.985
X116.038Y-47.65
X116.74Y-69.849
X117.176Y-44.959
X117.192Y-68.105
X117.533Y-44.295
X117.953Y-48.576
X118.0Y-22.0
X118.0Y-82.0
X118.0Y-88.0
X118.0Y-94.0
X118.019Y-75.182
X118.797Y-65.436
X119.25Y-45.019
X119.841Y-65.431
X119.903Y-62.309
X120.35Y-47.89
X120.45Y-47.89
X120.696Y-65.379
X121.204Y-40.921
X121.683Y-65.366
X122.176Y-45.018
X122.309Y-47.601
X122.442Y-118.312
X122.449Y-62.002
X122.746Y-78.108
X122.822Y-62.976
X122.869Y-45.03
X123.222Y-67.981
X123.331Y-64.668
X124.0Y-22.0
X124.0Y-82.0
X124.0Y-88.0
X124.0Y-100.0
X124.544Y-69.596
X124.75Y-68.481
X125.75Y-54.985
X125.751Y-57.193
X126.132Y-67.819
X126.77Y-63.618
X126.985Y-54.532
X127.212Y-70.189
X128.377Y-48.819
X130.0Y-22.0
X130.0Y-58.0
X130.0Y-82.0
X130.0Y-94.0
X130.0Y-106.0
X130.0Y-118.0
X131.035Y-50.47
X132.451Y-49.949
X132.608Y-52.055
X134.35Y-50.823
X134.939Y-50.026
X136.0Y-22.0
X136.0Y-58.0
X136.0Y-76.0
X136.0Y-88.0
X136.0Y-100.0
X136.0Y-106.0
X136.0Y-112.0
X136.0Y-118.0
X136.825Y-51.206
X136.952Y-81.427
X137.352Y-51.665
X140.474Y-43.872
X142.0Y-22.0
X142.0Y-58.0
X142.0Y-76.0
X142.0Y-94.0
X142.0Y-100.0
X142.0Y-106.0
X142.0Y-112.0
X142.0Y-118.0
X143.801Y-84.23
X144.779Y-83.371
X144.906Y-86.611
X145.433Y-85.489
X147.688Y-46.29
X147.708Y-26.228
X148.0Y-22.0
X148.0Y-70.0
X148.0Y-76.0
X148.0Y-88.0
X148.0Y-94.0
X148.0Y-100.0
X148.0Y-106.0
X148.0Y-112.0
X148.0Y-118.0
X148.032Y-64.831
X148.334Y-83.605
X148.364Y-42.203
X149.201Y-54.986
X149.371Y-25.381
X149.981Y-43.646
X150.072Y-44.313
X150.25Y-55.6
X150.731Y-44.793
X151.461Y-44.824
X152.073Y-48.051
X152.126Y-44.59
X153.226Y-45.016
X153.442Y-55.522
X153.75Y-44.619
X154.0Y-22.0
X154.0Y-64.0
X154.0Y-70.0
X154.0Y-76.0
X154.0Y-88.0
X154.0Y-94.0
X154.0Y-100.0
X154.0Y-106.0
X154.0Y-112.0
X154.0Y-118.0
X154.328Y-54.97
X156.011Y-44.029
X156.172Y-52.431
X156.961Y-55.105
X157.666Y-52.425
X158.139Y-44.736
X158.782Y-45.024
X159.466Y-44.26
X159.468Y-45.015
X160.0Y-22.0
X160.0Y-70.0
X160.0Y-76.0
X160.0Y-82.0
X160.0Y-88.0
X160.0Y-94.0
X160.0Y-100.0
X160.0Y-106.0
X160.0Y-112.0
X160.0Y-118.0
X160.304Y-46.43
X160.341Y-54.794
X160.623Y-52.651
X160.75Y-115.904
X161.746Y-43.772
X161.821Y-48.088
X163.105Y-41.235
X166.0Y-22.0
X166.0Y-46.0
X166.0Y-52.0
X166.0Y-58.0
X166.0Y-64.0
X166.0Y-70.0
X166.0Y-76.0
X166.0Y-82.0
X166.0Y-88.0
X166.0Y-94.0
X166.0Y-100.0
X166.0Y-106.0
X166.0Y-112.0
X166.0Y-118.0
X172.0Y-22.0
X172.0Y-40.0
X172.0Y-46.0
X172.0Y-52.0
X172.0Y-58.0
X172.0Y-64.0
X172.0Y-70.0
X172.0Y-76.0
X172.0Y-82.0
X172.0Y-88.0
X172.0Y-94.0
X172.0Y-100.0
X172.0Y-106.0
X172.0Y-112.0
X172.0Y-118.0
X178.0Y-22.0
X178.0Y-40.0
X178.0Y-46.0
X178.0Y-52.0
X178.0Y-58.0
X178.0Y-64.0
X178.0Y-70.0
X178.0Y-76.0
X178.0Y-82.0
X178.0Y-88.0
X178.0Y-94.0
X178.0Y-100.0
X178.0Y-106.0
X178.0Y-112.0
X178.0Y-118.0
X184.0Y-22.0
X184.0Y-40.0
X184.0Y-46.0
X184.0Y-52.0
X184.0Y-58.0
X184.0Y-64.0
X184.0Y-70.0
X184.0Y-76.0
X184.0Y-82.0
X184.0Y-88.0
X184.0Y-94.0
X184.0Y-100.0
X184.0Y-106.0
X184.0Y-112.0
X184.0Y-118.0
X190.0Y-22.0
X190.0Y-28.0
X190.0Y-34.0
X190.0Y-40.0
X190.0Y-46.0
X190.0Y-52.0
X190.0Y-58.0
X190.0Y-64.0
X190.0Y-70.0
X190.0Y-76.0
X190.0Y-82.0
X190.0Y-88.0
X190.0Y-94.0
X190.0Y-100.0
X190.0Y-106.0
X190.0Y-112.0
X190.0Y-118.0
T2
X93.571Y-73.904
X93.571Y-76.444
X93.571Y-109.464
X93.571Y-112.004
X96.111Y-73.904
X96.111Y-76.444
X96.111Y-109.464
X96.111Y-112.004
X98.651Y-73.904
X98.651Y-76.444
X98.651Y-109.464
X98.651Y-112.004
X101.191Y-73.904
X101.191Y-76.444
X101.191Y-109.464
X101.191Y-112.004
X103.731Y-73.904
X103.731Y-76.444
X103.731Y-109.464
X103.731Y-112.004
X106.271Y-73.904
X106.271Y-76.444
X106.271Y-109.464
X106.271Y-112.004
X108.811Y-73.904
X108.811Y-76.444
X108.811Y-109.464
X108.811Y-112.004
X111.351Y-73.904
X111.351Y-76.444
X111.351Y-109.464
X111.351Y-112.004
X113.891Y-73.904
X113.891Y-76.444
X113.891Y-109.464
X113.891Y-112.004
X116.431Y-73.904
X116.431Y-76.444
X116.431Y-109.464
X116.431Y-112.004
X118.971Y-73.904
X118.971Y-76.444
X118.971Y-109.464
X118.971Y-112.004
X121.511Y-73.904
X121.511Y-76.444
X121.511Y-109.464
X121.511Y-112.004
X123.711Y-117.674
X124.051Y-73.904
X124.051Y-76.444
X124.051Y-109.464
X124.051Y-112.004
X126.591Y-73.904
X126.591Y-76.444
X126.591Y-109.464
X126.591Y-112.004
X129.131Y-73.904
X129.131Y-76.444
X129.131Y-109.464
X129.131Y-112.004
X146.536Y-80.0
X146.619Y-82.906
X146.818Y-85.182
X155.5Y-82.0
T3
X33.07Y-28.46
X33.07Y-33.54
X35.61Y-28.46
X35.61Y-33.54
X38.15Y-28.46
X38.15Y-33.54
X40.69Y-28.46
X40.69Y-33.54
X43.23Y-28.46
X43.23Y-33.54
X45.77Y-28.46
X45.77Y-33.54
X48.31Y-28.46
X48.31Y-33.54
X50.85Y-28.46
X50.85Y-33.54
X53.39Y-28.46
X53.39Y-33.54
X55.93Y-28.46
X55.93Y-33.54
X58.47Y-28.46
X58.47Y-33.54
X61.01Y-28.46
X61.01Y-33.54
X63.55Y-28.46
X63.55Y-33.54
X66.09Y-28.46
X66.09Y-33.54
X68.63Y-28.46
X68.63Y-33.54
X71.17Y-28.46
X71.17Y-33.54
X73.71Y-28.46
X73.71Y-33.54
X76.25Y-28.46
X76.25Y-33.54
X78.79Y-28.46
X78.79Y-33.54
X81.33Y-28.46
X81.33Y-33.54
X83.87Y-28.46
X83.87Y-33.54
X86.41Y-28.46
X86.41Y-33.54
X88.95Y-28.46
X88.95Y-33.54
X91.49Y-28.46
X91.49Y-33.54
X94.03Y-28.46
X94.03Y-33.54
X96.57Y-28.46
X96.57Y-33.54
X99.11Y-28.46
X99.11Y-33.54
X101.65Y-28.46
X101.65Y-33.54
X104.19Y-28.46
X104.19Y-33.54
X106.73Y-28.46
X106.73Y-33.54
X109.27Y-28.46
X109.27Y-33.54
X111.81Y-28.46
X111.81Y-33.54
X114.35Y-28.46
X114.35Y-33.54
X116.89Y-28.46
X116.89Y-33.54
X119.43Y-28.46
X119.43Y-33.54
X121.97Y-28.46
X121.97Y-33.54
X124.51Y-28.46
X124.51Y-33.54
X127.05Y-28.46
X127.05Y-33.54
X129.59Y-28.46
X129.59Y-33.54
X132.13Y-28.46
X132.13Y-33.54
X134.67Y-28.46
X134.67Y-33.54
X137.21Y-28.46
X137.21Y-33.54
X139.75Y-28.46
X139.75Y-33.54
X142.29Y-28.46
X142.29Y-33.54
X144.83Y-28.46
X144.83Y-33.54
X147.37Y-28.46
X147.37Y-33.54
X149.91Y-28.46
X149.91Y-33.54
X152.45Y-28.46
X152.45Y-33.54
X154.99Y-28.46
X154.99Y-33.54
X157.53Y-28.46
X157.53Y-33.54
X160.07Y-28.46
X160.07Y-33.54
X162.61Y-28.46
X162.61Y-33.54
X165.15Y-28.46
X165.15Y-33.54
X167.69Y-28.46
X167.69Y-33.54
X170.23Y-28.46
X170.23Y-33.54
X172.77Y-28.46
X172.77Y-33.54
X175.31Y-28.46
X175.31Y-33.54
X177.85Y-28.46
X177.85Y-33.54
X180.39Y-28.46
X180.39Y-33.54
X182.93Y-28.46
X182.93Y-33.54
T4
X24.0Y-42.0
X24.0Y-116.0
X192.0Y-42.0
X192.0Y-116.0
M30
