G04 #@! TF.GenerationSoftware,KiCad,Pcbnew,10.0.3*
G04 #@! TF.CreationDate,2026-10-01T18:26:25+02:00*
G04 #@! TF.ProjectId,neocart_progr_routed,6e656f63-6172-4745-9f70-726f67725f72,rev?*
G04 #@! TF.SameCoordinates,Original*
G04 #@! TF.FileFunction,Legend,Top*
G04 #@! TF.FilePolarity,Positive*
%FSLAX46Y46*%
G04 Gerber Fmt 4.6, Leading zero omitted, Abs format (unit mm)*
G04 Created by KiCad (PCBNEW 10.0.3) date 2026-10-01 18:26:25*
%MOMM*%
%LPD*%
G01*
G04 APERTURE LIST*
G04 Aperture macros list*
%AMRoundRect*
0 Rectangle with rounded corners*
0 $1 Rounding radius*
0 $2 $3 $4 $5 $6 $7 $8 $9 X,Y pos of 4 corners*
0 Add a 4 corners polygon primitive as box body*
4,1,4,$2,$3,$4,$5,$6,$7,$8,$9,$2,$3,0*
0 Add four circle primitives for the rounded corners*
1,1,$1+$1,$2,$3*
1,1,$1+$1,$4,$5*
1,1,$1+$1,$6,$7*
1,1,$1+$1,$8,$9*
0 Add four rect primitives between the rounded corners*
20,1,$1+$1,$2,$3,$4,$5,0*
20,1,$1+$1,$4,$5,$6,$7,0*
20,1,$1+$1,$6,$7,$8,$9,0*
20,1,$1+$1,$8,$9,$2,$3,0*%
G04 Aperture macros list end*
%ADD10C,0.150000*%
%ADD11C,0.250000*%
%ADD12C,0.120000*%
%ADD13C,0.180000*%
%ADD14C,0.100000*%
%ADD15C,0.300000*%
%ADD16C,0.060000*%
%ADD17C,3.200000*%
%ADD18RoundRect,0.225000X-0.225000X-0.250000X0.225000X-0.250000X0.225000X0.250000X-0.225000X0.250000X0*%
%ADD19RoundRect,0.200000X-0.200000X-0.275000X0.200000X-0.275000X0.200000X0.275000X-0.200000X0.275000X0*%
%ADD20R,0.800000X0.800000*%
%ADD21RoundRect,0.200000X0.275000X-0.200000X0.275000X0.200000X-0.275000X0.200000X-0.275000X-0.200000X0*%
%ADD22RoundRect,0.225000X0.250000X-0.225000X0.250000X0.225000X-0.250000X0.225000X-0.250000X-0.225000X0*%
%ADD23O,0.280000X1.715000*%
%ADD24C,1.700000*%
%ADD25R,1.700000X1.700000*%
%ADD26R,0.600000X1.100000*%
%ADD27RoundRect,0.250000X-0.250000X-0.475000X0.250000X-0.475000X0.250000X0.475000X-0.250000X0.475000X0*%
%ADD28R,0.280000X1.550000*%
G04 APERTURE END LIST*
D10*
X32227141Y-25951414D02*
X32655713Y-25951414D01*
X32141427Y-26208557D02*
X32441427Y-25308557D01*
X32441427Y-25308557D02*
X32741427Y-26208557D01*
X33512856Y-26208557D02*
X32998570Y-26208557D01*
X33255713Y-26208557D02*
X33255713Y-25308557D01*
X33255713Y-25308557D02*
X33169999Y-25437128D01*
X33169999Y-25437128D02*
X33084284Y-25522842D01*
X33084284Y-25522842D02*
X32998570Y-25565700D01*
X32505713Y-36137128D02*
X32634285Y-36179985D01*
X32634285Y-36179985D02*
X32677142Y-36222842D01*
X32677142Y-36222842D02*
X32719999Y-36308557D01*
X32719999Y-36308557D02*
X32719999Y-36437128D01*
X32719999Y-36437128D02*
X32677142Y-36522842D01*
X32677142Y-36522842D02*
X32634285Y-36565700D01*
X32634285Y-36565700D02*
X32548570Y-36608557D01*
X32548570Y-36608557D02*
X32205713Y-36608557D01*
X32205713Y-36608557D02*
X32205713Y-35708557D01*
X32205713Y-35708557D02*
X32505713Y-35708557D01*
X32505713Y-35708557D02*
X32591428Y-35751414D01*
X32591428Y-35751414D02*
X32634285Y-35794271D01*
X32634285Y-35794271D02*
X32677142Y-35879985D01*
X32677142Y-35879985D02*
X32677142Y-35965700D01*
X32677142Y-35965700D02*
X32634285Y-36051414D01*
X32634285Y-36051414D02*
X32591428Y-36094271D01*
X32591428Y-36094271D02*
X32505713Y-36137128D01*
X32505713Y-36137128D02*
X32205713Y-36137128D01*
X33577142Y-36608557D02*
X33062856Y-36608557D01*
X33319999Y-36608557D02*
X33319999Y-35708557D01*
X33319999Y-35708557D02*
X33234285Y-35837128D01*
X33234285Y-35837128D02*
X33148570Y-35922842D01*
X33148570Y-35922842D02*
X33062856Y-35965700D01*
X181858571Y-25951414D02*
X182287143Y-25951414D01*
X181772857Y-26208557D02*
X182072857Y-25308557D01*
X182072857Y-25308557D02*
X182372857Y-26208557D01*
X183058572Y-25308557D02*
X182887143Y-25308557D01*
X182887143Y-25308557D02*
X182801429Y-25351414D01*
X182801429Y-25351414D02*
X182758572Y-25394271D01*
X182758572Y-25394271D02*
X182672857Y-25522842D01*
X182672857Y-25522842D02*
X182630000Y-25694271D01*
X182630000Y-25694271D02*
X182630000Y-26037128D01*
X182630000Y-26037128D02*
X182672857Y-26122842D01*
X182672857Y-26122842D02*
X182715714Y-26165700D01*
X182715714Y-26165700D02*
X182801429Y-26208557D01*
X182801429Y-26208557D02*
X182972857Y-26208557D01*
X182972857Y-26208557D02*
X183058572Y-26165700D01*
X183058572Y-26165700D02*
X183101429Y-26122842D01*
X183101429Y-26122842D02*
X183144286Y-26037128D01*
X183144286Y-26037128D02*
X183144286Y-25822842D01*
X183144286Y-25822842D02*
X183101429Y-25737128D01*
X183101429Y-25737128D02*
X183058572Y-25694271D01*
X183058572Y-25694271D02*
X182972857Y-25651414D01*
X182972857Y-25651414D02*
X182801429Y-25651414D01*
X182801429Y-25651414D02*
X182715714Y-25694271D01*
X182715714Y-25694271D02*
X182672857Y-25737128D01*
X182672857Y-25737128D02*
X182630000Y-25822842D01*
X183701429Y-25308557D02*
X183787143Y-25308557D01*
X183787143Y-25308557D02*
X183872857Y-25351414D01*
X183872857Y-25351414D02*
X183915715Y-25394271D01*
X183915715Y-25394271D02*
X183958572Y-25479985D01*
X183958572Y-25479985D02*
X184001429Y-25651414D01*
X184001429Y-25651414D02*
X184001429Y-25865700D01*
X184001429Y-25865700D02*
X183958572Y-26037128D01*
X183958572Y-26037128D02*
X183915715Y-26122842D01*
X183915715Y-26122842D02*
X183872857Y-26165700D01*
X183872857Y-26165700D02*
X183787143Y-26208557D01*
X183787143Y-26208557D02*
X183701429Y-26208557D01*
X183701429Y-26208557D02*
X183615715Y-26165700D01*
X183615715Y-26165700D02*
X183572857Y-26122842D01*
X183572857Y-26122842D02*
X183530000Y-26037128D01*
X183530000Y-26037128D02*
X183487143Y-25865700D01*
X183487143Y-25865700D02*
X183487143Y-25651414D01*
X183487143Y-25651414D02*
X183530000Y-25479985D01*
X183530000Y-25479985D02*
X183572857Y-25394271D01*
X183572857Y-25394271D02*
X183615715Y-25351414D01*
X183615715Y-25351414D02*
X183701429Y-25308557D01*
X182137142Y-36137128D02*
X182265714Y-36179985D01*
X182265714Y-36179985D02*
X182308571Y-36222842D01*
X182308571Y-36222842D02*
X182351428Y-36308557D01*
X182351428Y-36308557D02*
X182351428Y-36437128D01*
X182351428Y-36437128D02*
X182308571Y-36522842D01*
X182308571Y-36522842D02*
X182265714Y-36565700D01*
X182265714Y-36565700D02*
X182179999Y-36608557D01*
X182179999Y-36608557D02*
X181837142Y-36608557D01*
X181837142Y-36608557D02*
X181837142Y-35708557D01*
X181837142Y-35708557D02*
X182137142Y-35708557D01*
X182137142Y-35708557D02*
X182222857Y-35751414D01*
X182222857Y-35751414D02*
X182265714Y-35794271D01*
X182265714Y-35794271D02*
X182308571Y-35879985D01*
X182308571Y-35879985D02*
X182308571Y-35965700D01*
X182308571Y-35965700D02*
X182265714Y-36051414D01*
X182265714Y-36051414D02*
X182222857Y-36094271D01*
X182222857Y-36094271D02*
X182137142Y-36137128D01*
X182137142Y-36137128D02*
X181837142Y-36137128D01*
X183122857Y-35708557D02*
X182951428Y-35708557D01*
X182951428Y-35708557D02*
X182865714Y-35751414D01*
X182865714Y-35751414D02*
X182822857Y-35794271D01*
X182822857Y-35794271D02*
X182737142Y-35922842D01*
X182737142Y-35922842D02*
X182694285Y-36094271D01*
X182694285Y-36094271D02*
X182694285Y-36437128D01*
X182694285Y-36437128D02*
X182737142Y-36522842D01*
X182737142Y-36522842D02*
X182779999Y-36565700D01*
X182779999Y-36565700D02*
X182865714Y-36608557D01*
X182865714Y-36608557D02*
X183037142Y-36608557D01*
X183037142Y-36608557D02*
X183122857Y-36565700D01*
X183122857Y-36565700D02*
X183165714Y-36522842D01*
X183165714Y-36522842D02*
X183208571Y-36437128D01*
X183208571Y-36437128D02*
X183208571Y-36222842D01*
X183208571Y-36222842D02*
X183165714Y-36137128D01*
X183165714Y-36137128D02*
X183122857Y-36094271D01*
X183122857Y-36094271D02*
X183037142Y-36051414D01*
X183037142Y-36051414D02*
X182865714Y-36051414D01*
X182865714Y-36051414D02*
X182779999Y-36094271D01*
X182779999Y-36094271D02*
X182737142Y-36137128D01*
X182737142Y-36137128D02*
X182694285Y-36222842D01*
X183765714Y-35708557D02*
X183851428Y-35708557D01*
X183851428Y-35708557D02*
X183937142Y-35751414D01*
X183937142Y-35751414D02*
X183980000Y-35794271D01*
X183980000Y-35794271D02*
X184022857Y-35879985D01*
X184022857Y-35879985D02*
X184065714Y-36051414D01*
X184065714Y-36051414D02*
X184065714Y-36265700D01*
X184065714Y-36265700D02*
X184022857Y-36437128D01*
X184022857Y-36437128D02*
X183980000Y-36522842D01*
X183980000Y-36522842D02*
X183937142Y-36565700D01*
X183937142Y-36565700D02*
X183851428Y-36608557D01*
X183851428Y-36608557D02*
X183765714Y-36608557D01*
X183765714Y-36608557D02*
X183680000Y-36565700D01*
X183680000Y-36565700D02*
X183637142Y-36522842D01*
X183637142Y-36522842D02*
X183594285Y-36437128D01*
X183594285Y-36437128D02*
X183551428Y-36265700D01*
X183551428Y-36265700D02*
X183551428Y-36051414D01*
X183551428Y-36051414D02*
X183594285Y-35879985D01*
X183594285Y-35879985D02*
X183637142Y-35794271D01*
X183637142Y-35794271D02*
X183680000Y-35751414D01*
X183680000Y-35751414D02*
X183765714Y-35708557D01*
X92071427Y-21959580D02*
X92023808Y-22007200D01*
X92023808Y-22007200D02*
X91880951Y-22054819D01*
X91880951Y-22054819D02*
X91785713Y-22054819D01*
X91785713Y-22054819D02*
X91642856Y-22007200D01*
X91642856Y-22007200D02*
X91547618Y-21911961D01*
X91547618Y-21911961D02*
X91499999Y-21816723D01*
X91499999Y-21816723D02*
X91452380Y-21626247D01*
X91452380Y-21626247D02*
X91452380Y-21483390D01*
X91452380Y-21483390D02*
X91499999Y-21292914D01*
X91499999Y-21292914D02*
X91547618Y-21197676D01*
X91547618Y-21197676D02*
X91642856Y-21102438D01*
X91642856Y-21102438D02*
X91785713Y-21054819D01*
X91785713Y-21054819D02*
X91880951Y-21054819D01*
X91880951Y-21054819D02*
X92023808Y-21102438D01*
X92023808Y-21102438D02*
X92071427Y-21150057D01*
X92452380Y-21769104D02*
X92928570Y-21769104D01*
X92357142Y-22054819D02*
X92690475Y-21054819D01*
X92690475Y-21054819D02*
X93023808Y-22054819D01*
X93928570Y-22054819D02*
X93595237Y-21578628D01*
X93357142Y-22054819D02*
X93357142Y-21054819D01*
X93357142Y-21054819D02*
X93738094Y-21054819D01*
X93738094Y-21054819D02*
X93833332Y-21102438D01*
X93833332Y-21102438D02*
X93880951Y-21150057D01*
X93880951Y-21150057D02*
X93928570Y-21245295D01*
X93928570Y-21245295D02*
X93928570Y-21388152D01*
X93928570Y-21388152D02*
X93880951Y-21483390D01*
X93880951Y-21483390D02*
X93833332Y-21531009D01*
X93833332Y-21531009D02*
X93738094Y-21578628D01*
X93738094Y-21578628D02*
X93357142Y-21578628D01*
X94214285Y-21054819D02*
X94785713Y-21054819D01*
X94499999Y-22054819D02*
X94499999Y-21054819D01*
X96452380Y-21959580D02*
X96404761Y-22007200D01*
X96404761Y-22007200D02*
X96261904Y-22054819D01*
X96261904Y-22054819D02*
X96166666Y-22054819D01*
X96166666Y-22054819D02*
X96023809Y-22007200D01*
X96023809Y-22007200D02*
X95928571Y-21911961D01*
X95928571Y-21911961D02*
X95880952Y-21816723D01*
X95880952Y-21816723D02*
X95833333Y-21626247D01*
X95833333Y-21626247D02*
X95833333Y-21483390D01*
X95833333Y-21483390D02*
X95880952Y-21292914D01*
X95880952Y-21292914D02*
X95928571Y-21197676D01*
X95928571Y-21197676D02*
X96023809Y-21102438D01*
X96023809Y-21102438D02*
X96166666Y-21054819D01*
X96166666Y-21054819D02*
X96261904Y-21054819D01*
X96261904Y-21054819D02*
X96404761Y-21102438D01*
X96404761Y-21102438D02*
X96452380Y-21150057D01*
X97071428Y-21054819D02*
X97261904Y-21054819D01*
X97261904Y-21054819D02*
X97357142Y-21102438D01*
X97357142Y-21102438D02*
X97452380Y-21197676D01*
X97452380Y-21197676D02*
X97499999Y-21388152D01*
X97499999Y-21388152D02*
X97499999Y-21721485D01*
X97499999Y-21721485D02*
X97452380Y-21911961D01*
X97452380Y-21911961D02*
X97357142Y-22007200D01*
X97357142Y-22007200D02*
X97261904Y-22054819D01*
X97261904Y-22054819D02*
X97071428Y-22054819D01*
X97071428Y-22054819D02*
X96976190Y-22007200D01*
X96976190Y-22007200D02*
X96880952Y-21911961D01*
X96880952Y-21911961D02*
X96833333Y-21721485D01*
X96833333Y-21721485D02*
X96833333Y-21388152D01*
X96833333Y-21388152D02*
X96880952Y-21197676D01*
X96880952Y-21197676D02*
X96976190Y-21102438D01*
X96976190Y-21102438D02*
X97071428Y-21054819D01*
X97928571Y-22054819D02*
X97928571Y-21054819D01*
X97928571Y-21054819D02*
X98261904Y-21769104D01*
X98261904Y-21769104D02*
X98595237Y-21054819D01*
X98595237Y-21054819D02*
X98595237Y-22054819D01*
X99071428Y-22054819D02*
X99071428Y-21054819D01*
X99071428Y-21054819D02*
X99452380Y-21054819D01*
X99452380Y-21054819D02*
X99547618Y-21102438D01*
X99547618Y-21102438D02*
X99595237Y-21150057D01*
X99595237Y-21150057D02*
X99642856Y-21245295D01*
X99642856Y-21245295D02*
X99642856Y-21388152D01*
X99642856Y-21388152D02*
X99595237Y-21483390D01*
X99595237Y-21483390D02*
X99547618Y-21531009D01*
X99547618Y-21531009D02*
X99452380Y-21578628D01*
X99452380Y-21578628D02*
X99071428Y-21578628D01*
X100261904Y-21054819D02*
X100452380Y-21054819D01*
X100452380Y-21054819D02*
X100547618Y-21102438D01*
X100547618Y-21102438D02*
X100642856Y-21197676D01*
X100642856Y-21197676D02*
X100690475Y-21388152D01*
X100690475Y-21388152D02*
X100690475Y-21721485D01*
X100690475Y-21721485D02*
X100642856Y-21911961D01*
X100642856Y-21911961D02*
X100547618Y-22007200D01*
X100547618Y-22007200D02*
X100452380Y-22054819D01*
X100452380Y-22054819D02*
X100261904Y-22054819D01*
X100261904Y-22054819D02*
X100166666Y-22007200D01*
X100166666Y-22007200D02*
X100071428Y-21911961D01*
X100071428Y-21911961D02*
X100023809Y-21721485D01*
X100023809Y-21721485D02*
X100023809Y-21388152D01*
X100023809Y-21388152D02*
X100071428Y-21197676D01*
X100071428Y-21197676D02*
X100166666Y-21102438D01*
X100166666Y-21102438D02*
X100261904Y-21054819D01*
X101119047Y-22054819D02*
X101119047Y-21054819D01*
X101119047Y-21054819D02*
X101690475Y-22054819D01*
X101690475Y-22054819D02*
X101690475Y-21054819D01*
X102166666Y-21531009D02*
X102499999Y-21531009D01*
X102642856Y-22054819D02*
X102166666Y-22054819D01*
X102166666Y-22054819D02*
X102166666Y-21054819D01*
X102166666Y-21054819D02*
X102642856Y-21054819D01*
X103071428Y-22054819D02*
X103071428Y-21054819D01*
X103071428Y-21054819D02*
X103642856Y-22054819D01*
X103642856Y-22054819D02*
X103642856Y-21054819D01*
X103976190Y-21054819D02*
X104547618Y-21054819D01*
X104261904Y-22054819D02*
X104261904Y-21054819D01*
X105595238Y-22007200D02*
X105738095Y-22054819D01*
X105738095Y-22054819D02*
X105976190Y-22054819D01*
X105976190Y-22054819D02*
X106071428Y-22007200D01*
X106071428Y-22007200D02*
X106119047Y-21959580D01*
X106119047Y-21959580D02*
X106166666Y-21864342D01*
X106166666Y-21864342D02*
X106166666Y-21769104D01*
X106166666Y-21769104D02*
X106119047Y-21673866D01*
X106119047Y-21673866D02*
X106071428Y-21626247D01*
X106071428Y-21626247D02*
X105976190Y-21578628D01*
X105976190Y-21578628D02*
X105785714Y-21531009D01*
X105785714Y-21531009D02*
X105690476Y-21483390D01*
X105690476Y-21483390D02*
X105642857Y-21435771D01*
X105642857Y-21435771D02*
X105595238Y-21340533D01*
X105595238Y-21340533D02*
X105595238Y-21245295D01*
X105595238Y-21245295D02*
X105642857Y-21150057D01*
X105642857Y-21150057D02*
X105690476Y-21102438D01*
X105690476Y-21102438D02*
X105785714Y-21054819D01*
X105785714Y-21054819D02*
X106023809Y-21054819D01*
X106023809Y-21054819D02*
X106166666Y-21102438D01*
X106595238Y-22054819D02*
X106595238Y-21054819D01*
X107071428Y-22054819D02*
X107071428Y-21054819D01*
X107071428Y-21054819D02*
X107309523Y-21054819D01*
X107309523Y-21054819D02*
X107452380Y-21102438D01*
X107452380Y-21102438D02*
X107547618Y-21197676D01*
X107547618Y-21197676D02*
X107595237Y-21292914D01*
X107595237Y-21292914D02*
X107642856Y-21483390D01*
X107642856Y-21483390D02*
X107642856Y-21626247D01*
X107642856Y-21626247D02*
X107595237Y-21816723D01*
X107595237Y-21816723D02*
X107547618Y-21911961D01*
X107547618Y-21911961D02*
X107452380Y-22007200D01*
X107452380Y-22007200D02*
X107309523Y-22054819D01*
X107309523Y-22054819D02*
X107071428Y-22054819D01*
X108071428Y-21531009D02*
X108404761Y-21531009D01*
X108547618Y-22054819D02*
X108071428Y-22054819D01*
X108071428Y-22054819D02*
X108071428Y-21054819D01*
X108071428Y-21054819D02*
X108547618Y-21054819D01*
X110071428Y-21531009D02*
X109738095Y-21531009D01*
X109738095Y-22054819D02*
X109738095Y-21054819D01*
X109738095Y-21054819D02*
X110214285Y-21054819D01*
X110547619Y-21769104D02*
X111023809Y-21769104D01*
X110452381Y-22054819D02*
X110785714Y-21054819D01*
X110785714Y-21054819D02*
X111119047Y-22054819D01*
X112023809Y-21959580D02*
X111976190Y-22007200D01*
X111976190Y-22007200D02*
X111833333Y-22054819D01*
X111833333Y-22054819D02*
X111738095Y-22054819D01*
X111738095Y-22054819D02*
X111595238Y-22007200D01*
X111595238Y-22007200D02*
X111500000Y-21911961D01*
X111500000Y-21911961D02*
X111452381Y-21816723D01*
X111452381Y-21816723D02*
X111404762Y-21626247D01*
X111404762Y-21626247D02*
X111404762Y-21483390D01*
X111404762Y-21483390D02*
X111452381Y-21292914D01*
X111452381Y-21292914D02*
X111500000Y-21197676D01*
X111500000Y-21197676D02*
X111595238Y-21102438D01*
X111595238Y-21102438D02*
X111738095Y-21054819D01*
X111738095Y-21054819D02*
X111833333Y-21054819D01*
X111833333Y-21054819D02*
X111976190Y-21102438D01*
X111976190Y-21102438D02*
X112023809Y-21150057D01*
X112452381Y-21531009D02*
X112785714Y-21531009D01*
X112928571Y-22054819D02*
X112452381Y-22054819D01*
X112452381Y-22054819D02*
X112452381Y-21054819D01*
X112452381Y-21054819D02*
X112928571Y-21054819D01*
X113309524Y-22007200D02*
X113452381Y-22054819D01*
X113452381Y-22054819D02*
X113690476Y-22054819D01*
X113690476Y-22054819D02*
X113785714Y-22007200D01*
X113785714Y-22007200D02*
X113833333Y-21959580D01*
X113833333Y-21959580D02*
X113880952Y-21864342D01*
X113880952Y-21864342D02*
X113880952Y-21769104D01*
X113880952Y-21769104D02*
X113833333Y-21673866D01*
X113833333Y-21673866D02*
X113785714Y-21626247D01*
X113785714Y-21626247D02*
X113690476Y-21578628D01*
X113690476Y-21578628D02*
X113500000Y-21531009D01*
X113500000Y-21531009D02*
X113404762Y-21483390D01*
X113404762Y-21483390D02*
X113357143Y-21435771D01*
X113357143Y-21435771D02*
X113309524Y-21340533D01*
X113309524Y-21340533D02*
X113309524Y-21245295D01*
X113309524Y-21245295D02*
X113357143Y-21150057D01*
X113357143Y-21150057D02*
X113404762Y-21102438D01*
X113404762Y-21102438D02*
X113500000Y-21054819D01*
X113500000Y-21054819D02*
X113738095Y-21054819D01*
X113738095Y-21054819D02*
X113880952Y-21102438D01*
X114928572Y-21054819D02*
X115500000Y-21054819D01*
X115214286Y-22054819D02*
X115214286Y-21054819D01*
X115833334Y-22054819D02*
X115833334Y-21054819D01*
X115833334Y-21531009D02*
X116404762Y-21531009D01*
X116404762Y-22054819D02*
X116404762Y-21054819D01*
X116880953Y-22054819D02*
X116880953Y-21054819D01*
X117309524Y-22007200D02*
X117452381Y-22054819D01*
X117452381Y-22054819D02*
X117690476Y-22054819D01*
X117690476Y-22054819D02*
X117785714Y-22007200D01*
X117785714Y-22007200D02*
X117833333Y-21959580D01*
X117833333Y-21959580D02*
X117880952Y-21864342D01*
X117880952Y-21864342D02*
X117880952Y-21769104D01*
X117880952Y-21769104D02*
X117833333Y-21673866D01*
X117833333Y-21673866D02*
X117785714Y-21626247D01*
X117785714Y-21626247D02*
X117690476Y-21578628D01*
X117690476Y-21578628D02*
X117500000Y-21531009D01*
X117500000Y-21531009D02*
X117404762Y-21483390D01*
X117404762Y-21483390D02*
X117357143Y-21435771D01*
X117357143Y-21435771D02*
X117309524Y-21340533D01*
X117309524Y-21340533D02*
X117309524Y-21245295D01*
X117309524Y-21245295D02*
X117357143Y-21150057D01*
X117357143Y-21150057D02*
X117404762Y-21102438D01*
X117404762Y-21102438D02*
X117500000Y-21054819D01*
X117500000Y-21054819D02*
X117738095Y-21054819D01*
X117738095Y-21054819D02*
X117880952Y-21102438D01*
X119071429Y-21531009D02*
X119404762Y-21531009D01*
X119547619Y-22054819D02*
X119071429Y-22054819D01*
X119071429Y-22054819D02*
X119071429Y-21054819D01*
X119071429Y-21054819D02*
X119547619Y-21054819D01*
X119976191Y-22054819D02*
X119976191Y-21054819D01*
X119976191Y-21054819D02*
X120214286Y-21054819D01*
X120214286Y-21054819D02*
X120357143Y-21102438D01*
X120357143Y-21102438D02*
X120452381Y-21197676D01*
X120452381Y-21197676D02*
X120500000Y-21292914D01*
X120500000Y-21292914D02*
X120547619Y-21483390D01*
X120547619Y-21483390D02*
X120547619Y-21626247D01*
X120547619Y-21626247D02*
X120500000Y-21816723D01*
X120500000Y-21816723D02*
X120452381Y-21911961D01*
X120452381Y-21911961D02*
X120357143Y-22007200D01*
X120357143Y-22007200D02*
X120214286Y-22054819D01*
X120214286Y-22054819D02*
X119976191Y-22054819D01*
X121500000Y-21102438D02*
X121404762Y-21054819D01*
X121404762Y-21054819D02*
X121261905Y-21054819D01*
X121261905Y-21054819D02*
X121119048Y-21102438D01*
X121119048Y-21102438D02*
X121023810Y-21197676D01*
X121023810Y-21197676D02*
X120976191Y-21292914D01*
X120976191Y-21292914D02*
X120928572Y-21483390D01*
X120928572Y-21483390D02*
X120928572Y-21626247D01*
X120928572Y-21626247D02*
X120976191Y-21816723D01*
X120976191Y-21816723D02*
X121023810Y-21911961D01*
X121023810Y-21911961D02*
X121119048Y-22007200D01*
X121119048Y-22007200D02*
X121261905Y-22054819D01*
X121261905Y-22054819D02*
X121357143Y-22054819D01*
X121357143Y-22054819D02*
X121500000Y-22007200D01*
X121500000Y-22007200D02*
X121547619Y-21959580D01*
X121547619Y-21959580D02*
X121547619Y-21626247D01*
X121547619Y-21626247D02*
X121357143Y-21626247D01*
X121976191Y-21531009D02*
X122309524Y-21531009D01*
X122452381Y-22054819D02*
X121976191Y-22054819D01*
X121976191Y-22054819D02*
X121976191Y-21054819D01*
X121976191Y-21054819D02*
X122452381Y-21054819D01*
X124261906Y-21150057D02*
X124452382Y-21007200D01*
X124452382Y-21007200D02*
X124642858Y-21150057D01*
D11*
X139499999Y-102634666D02*
X139499999Y-101234666D01*
X139499999Y-101234666D02*
X140299999Y-102634666D01*
X140299999Y-102634666D02*
X140299999Y-101234666D01*
X141499999Y-102568000D02*
X141366666Y-102634666D01*
X141366666Y-102634666D02*
X141099999Y-102634666D01*
X141099999Y-102634666D02*
X140966666Y-102568000D01*
X140966666Y-102568000D02*
X140899999Y-102434666D01*
X140899999Y-102434666D02*
X140899999Y-101901333D01*
X140899999Y-101901333D02*
X140966666Y-101768000D01*
X140966666Y-101768000D02*
X141099999Y-101701333D01*
X141099999Y-101701333D02*
X141366666Y-101701333D01*
X141366666Y-101701333D02*
X141499999Y-101768000D01*
X141499999Y-101768000D02*
X141566666Y-101901333D01*
X141566666Y-101901333D02*
X141566666Y-102034666D01*
X141566666Y-102034666D02*
X140899999Y-102168000D01*
X142366666Y-102634666D02*
X142233333Y-102568000D01*
X142233333Y-102568000D02*
X142166666Y-102501333D01*
X142166666Y-102501333D02*
X142099999Y-102368000D01*
X142099999Y-102368000D02*
X142099999Y-101968000D01*
X142099999Y-101968000D02*
X142166666Y-101834666D01*
X142166666Y-101834666D02*
X142233333Y-101768000D01*
X142233333Y-101768000D02*
X142366666Y-101701333D01*
X142366666Y-101701333D02*
X142566666Y-101701333D01*
X142566666Y-101701333D02*
X142699999Y-101768000D01*
X142699999Y-101768000D02*
X142766666Y-101834666D01*
X142766666Y-101834666D02*
X142833333Y-101968000D01*
X142833333Y-101968000D02*
X142833333Y-102368000D01*
X142833333Y-102368000D02*
X142766666Y-102501333D01*
X142766666Y-102501333D02*
X142699999Y-102568000D01*
X142699999Y-102568000D02*
X142566666Y-102634666D01*
X142566666Y-102634666D02*
X142366666Y-102634666D01*
X144233333Y-102501333D02*
X144166666Y-102568000D01*
X144166666Y-102568000D02*
X143966666Y-102634666D01*
X143966666Y-102634666D02*
X143833333Y-102634666D01*
X143833333Y-102634666D02*
X143633333Y-102568000D01*
X143633333Y-102568000D02*
X143500000Y-102434666D01*
X143500000Y-102434666D02*
X143433333Y-102301333D01*
X143433333Y-102301333D02*
X143366666Y-102034666D01*
X143366666Y-102034666D02*
X143366666Y-101834666D01*
X143366666Y-101834666D02*
X143433333Y-101568000D01*
X143433333Y-101568000D02*
X143500000Y-101434666D01*
X143500000Y-101434666D02*
X143633333Y-101301333D01*
X143633333Y-101301333D02*
X143833333Y-101234666D01*
X143833333Y-101234666D02*
X143966666Y-101234666D01*
X143966666Y-101234666D02*
X144166666Y-101301333D01*
X144166666Y-101301333D02*
X144233333Y-101368000D01*
X145433333Y-102634666D02*
X145433333Y-101901333D01*
X145433333Y-101901333D02*
X145366666Y-101768000D01*
X145366666Y-101768000D02*
X145233333Y-101701333D01*
X145233333Y-101701333D02*
X144966666Y-101701333D01*
X144966666Y-101701333D02*
X144833333Y-101768000D01*
X145433333Y-102568000D02*
X145300000Y-102634666D01*
X145300000Y-102634666D02*
X144966666Y-102634666D01*
X144966666Y-102634666D02*
X144833333Y-102568000D01*
X144833333Y-102568000D02*
X144766666Y-102434666D01*
X144766666Y-102434666D02*
X144766666Y-102301333D01*
X144766666Y-102301333D02*
X144833333Y-102168000D01*
X144833333Y-102168000D02*
X144966666Y-102101333D01*
X144966666Y-102101333D02*
X145300000Y-102101333D01*
X145300000Y-102101333D02*
X145433333Y-102034666D01*
X146100000Y-102634666D02*
X146100000Y-101701333D01*
X146100000Y-101968000D02*
X146166667Y-101834666D01*
X146166667Y-101834666D02*
X146233333Y-101768000D01*
X146233333Y-101768000D02*
X146366667Y-101701333D01*
X146366667Y-101701333D02*
X146500000Y-101701333D01*
X146766667Y-101701333D02*
X147300000Y-101701333D01*
X146966667Y-101234666D02*
X146966667Y-102434666D01*
X146966667Y-102434666D02*
X147033334Y-102568000D01*
X147033334Y-102568000D02*
X147166667Y-102634666D01*
X147166667Y-102634666D02*
X147300000Y-102634666D01*
X148833334Y-101701333D02*
X148833334Y-103101333D01*
X148833334Y-101768000D02*
X148966667Y-101701333D01*
X148966667Y-101701333D02*
X149233334Y-101701333D01*
X149233334Y-101701333D02*
X149366667Y-101768000D01*
X149366667Y-101768000D02*
X149433334Y-101834666D01*
X149433334Y-101834666D02*
X149500001Y-101968000D01*
X149500001Y-101968000D02*
X149500001Y-102368000D01*
X149500001Y-102368000D02*
X149433334Y-102501333D01*
X149433334Y-102501333D02*
X149366667Y-102568000D01*
X149366667Y-102568000D02*
X149233334Y-102634666D01*
X149233334Y-102634666D02*
X148966667Y-102634666D01*
X148966667Y-102634666D02*
X148833334Y-102568000D01*
X150100001Y-102634666D02*
X150100001Y-101701333D01*
X150100001Y-101968000D02*
X150166668Y-101834666D01*
X150166668Y-101834666D02*
X150233334Y-101768000D01*
X150233334Y-101768000D02*
X150366668Y-101701333D01*
X150366668Y-101701333D02*
X150500001Y-101701333D01*
X151166668Y-102634666D02*
X151033335Y-102568000D01*
X151033335Y-102568000D02*
X150966668Y-102501333D01*
X150966668Y-102501333D02*
X150900001Y-102368000D01*
X150900001Y-102368000D02*
X150900001Y-101968000D01*
X150900001Y-101968000D02*
X150966668Y-101834666D01*
X150966668Y-101834666D02*
X151033335Y-101768000D01*
X151033335Y-101768000D02*
X151166668Y-101701333D01*
X151166668Y-101701333D02*
X151366668Y-101701333D01*
X151366668Y-101701333D02*
X151500001Y-101768000D01*
X151500001Y-101768000D02*
X151566668Y-101834666D01*
X151566668Y-101834666D02*
X151633335Y-101968000D01*
X151633335Y-101968000D02*
X151633335Y-102368000D01*
X151633335Y-102368000D02*
X151566668Y-102501333D01*
X151566668Y-102501333D02*
X151500001Y-102568000D01*
X151500001Y-102568000D02*
X151366668Y-102634666D01*
X151366668Y-102634666D02*
X151166668Y-102634666D01*
X152833335Y-101701333D02*
X152833335Y-102834666D01*
X152833335Y-102834666D02*
X152766668Y-102968000D01*
X152766668Y-102968000D02*
X152700002Y-103034666D01*
X152700002Y-103034666D02*
X152566668Y-103101333D01*
X152566668Y-103101333D02*
X152366668Y-103101333D01*
X152366668Y-103101333D02*
X152233335Y-103034666D01*
X152833335Y-102568000D02*
X152700002Y-102634666D01*
X152700002Y-102634666D02*
X152433335Y-102634666D01*
X152433335Y-102634666D02*
X152300002Y-102568000D01*
X152300002Y-102568000D02*
X152233335Y-102501333D01*
X152233335Y-102501333D02*
X152166668Y-102368000D01*
X152166668Y-102368000D02*
X152166668Y-101968000D01*
X152166668Y-101968000D02*
X152233335Y-101834666D01*
X152233335Y-101834666D02*
X152300002Y-101768000D01*
X152300002Y-101768000D02*
X152433335Y-101701333D01*
X152433335Y-101701333D02*
X152700002Y-101701333D01*
X152700002Y-101701333D02*
X152833335Y-101768000D01*
X153500002Y-102634666D02*
X153500002Y-101701333D01*
X153500002Y-101968000D02*
X153566669Y-101834666D01*
X153566669Y-101834666D02*
X153633335Y-101768000D01*
X153633335Y-101768000D02*
X153766669Y-101701333D01*
X153766669Y-101701333D02*
X153900002Y-101701333D01*
X154966669Y-102634666D02*
X154966669Y-101901333D01*
X154966669Y-101901333D02*
X154900002Y-101768000D01*
X154900002Y-101768000D02*
X154766669Y-101701333D01*
X154766669Y-101701333D02*
X154500002Y-101701333D01*
X154500002Y-101701333D02*
X154366669Y-101768000D01*
X154966669Y-102568000D02*
X154833336Y-102634666D01*
X154833336Y-102634666D02*
X154500002Y-102634666D01*
X154500002Y-102634666D02*
X154366669Y-102568000D01*
X154366669Y-102568000D02*
X154300002Y-102434666D01*
X154300002Y-102434666D02*
X154300002Y-102301333D01*
X154300002Y-102301333D02*
X154366669Y-102168000D01*
X154366669Y-102168000D02*
X154500002Y-102101333D01*
X154500002Y-102101333D02*
X154833336Y-102101333D01*
X154833336Y-102101333D02*
X154966669Y-102034666D01*
X155633336Y-102634666D02*
X155633336Y-101701333D01*
X155633336Y-101834666D02*
X155700003Y-101768000D01*
X155700003Y-101768000D02*
X155833336Y-101701333D01*
X155833336Y-101701333D02*
X156033336Y-101701333D01*
X156033336Y-101701333D02*
X156166669Y-101768000D01*
X156166669Y-101768000D02*
X156233336Y-101901333D01*
X156233336Y-101901333D02*
X156233336Y-102634666D01*
X156233336Y-101901333D02*
X156300003Y-101768000D01*
X156300003Y-101768000D02*
X156433336Y-101701333D01*
X156433336Y-101701333D02*
X156633336Y-101701333D01*
X156633336Y-101701333D02*
X156766669Y-101768000D01*
X156766669Y-101768000D02*
X156833336Y-101901333D01*
X156833336Y-101901333D02*
X156833336Y-102634666D01*
X157500003Y-102634666D02*
X157500003Y-101701333D01*
X157500003Y-101834666D02*
X157566670Y-101768000D01*
X157566670Y-101768000D02*
X157700003Y-101701333D01*
X157700003Y-101701333D02*
X157900003Y-101701333D01*
X157900003Y-101701333D02*
X158033336Y-101768000D01*
X158033336Y-101768000D02*
X158100003Y-101901333D01*
X158100003Y-101901333D02*
X158100003Y-102634666D01*
X158100003Y-101901333D02*
X158166670Y-101768000D01*
X158166670Y-101768000D02*
X158300003Y-101701333D01*
X158300003Y-101701333D02*
X158500003Y-101701333D01*
X158500003Y-101701333D02*
X158633336Y-101768000D01*
X158633336Y-101768000D02*
X158700003Y-101901333D01*
X158700003Y-101901333D02*
X158700003Y-102634666D01*
X159900003Y-102568000D02*
X159766670Y-102634666D01*
X159766670Y-102634666D02*
X159500003Y-102634666D01*
X159500003Y-102634666D02*
X159366670Y-102568000D01*
X159366670Y-102568000D02*
X159300003Y-102434666D01*
X159300003Y-102434666D02*
X159300003Y-101901333D01*
X159300003Y-101901333D02*
X159366670Y-101768000D01*
X159366670Y-101768000D02*
X159500003Y-101701333D01*
X159500003Y-101701333D02*
X159766670Y-101701333D01*
X159766670Y-101701333D02*
X159900003Y-101768000D01*
X159900003Y-101768000D02*
X159966670Y-101901333D01*
X159966670Y-101901333D02*
X159966670Y-102034666D01*
X159966670Y-102034666D02*
X159300003Y-102168000D01*
X160566670Y-102634666D02*
X160566670Y-101701333D01*
X160566670Y-101968000D02*
X160633337Y-101834666D01*
X160633337Y-101834666D02*
X160700003Y-101768000D01*
X160700003Y-101768000D02*
X160833337Y-101701333D01*
X160833337Y-101701333D02*
X160966670Y-101701333D01*
X162366671Y-101701333D02*
X162700004Y-102634666D01*
X162700004Y-102634666D02*
X163033337Y-101701333D01*
X164300004Y-102634666D02*
X163500004Y-102634666D01*
X163900004Y-102634666D02*
X163900004Y-101234666D01*
X163900004Y-101234666D02*
X163766671Y-101434666D01*
X163766671Y-101434666D02*
X163633338Y-101568000D01*
X163633338Y-101568000D02*
X163500004Y-101634666D01*
X166966671Y-101368000D02*
X167033338Y-101301333D01*
X167033338Y-101301333D02*
X167166671Y-101234666D01*
X167166671Y-101234666D02*
X167500005Y-101234666D01*
X167500005Y-101234666D02*
X167633338Y-101301333D01*
X167633338Y-101301333D02*
X167700005Y-101368000D01*
X167700005Y-101368000D02*
X167766671Y-101501333D01*
X167766671Y-101501333D02*
X167766671Y-101634666D01*
X167766671Y-101634666D02*
X167700005Y-101834666D01*
X167700005Y-101834666D02*
X166900005Y-102634666D01*
X166900005Y-102634666D02*
X167766671Y-102634666D01*
X168633338Y-101234666D02*
X168766671Y-101234666D01*
X168766671Y-101234666D02*
X168900004Y-101301333D01*
X168900004Y-101301333D02*
X168966671Y-101368000D01*
X168966671Y-101368000D02*
X169033338Y-101501333D01*
X169033338Y-101501333D02*
X169100004Y-101768000D01*
X169100004Y-101768000D02*
X169100004Y-102101333D01*
X169100004Y-102101333D02*
X169033338Y-102368000D01*
X169033338Y-102368000D02*
X168966671Y-102501333D01*
X168966671Y-102501333D02*
X168900004Y-102568000D01*
X168900004Y-102568000D02*
X168766671Y-102634666D01*
X168766671Y-102634666D02*
X168633338Y-102634666D01*
X168633338Y-102634666D02*
X168500004Y-102568000D01*
X168500004Y-102568000D02*
X168433338Y-102501333D01*
X168433338Y-102501333D02*
X168366671Y-102368000D01*
X168366671Y-102368000D02*
X168300004Y-102101333D01*
X168300004Y-102101333D02*
X168300004Y-101768000D01*
X168300004Y-101768000D02*
X168366671Y-101501333D01*
X168366671Y-101501333D02*
X168433338Y-101368000D01*
X168433338Y-101368000D02*
X168500004Y-101301333D01*
X168500004Y-101301333D02*
X168633338Y-101234666D01*
X169633337Y-101368000D02*
X169700004Y-101301333D01*
X169700004Y-101301333D02*
X169833337Y-101234666D01*
X169833337Y-101234666D02*
X170166671Y-101234666D01*
X170166671Y-101234666D02*
X170300004Y-101301333D01*
X170300004Y-101301333D02*
X170366671Y-101368000D01*
X170366671Y-101368000D02*
X170433337Y-101501333D01*
X170433337Y-101501333D02*
X170433337Y-101634666D01*
X170433337Y-101634666D02*
X170366671Y-101834666D01*
X170366671Y-101834666D02*
X169566671Y-102634666D01*
X169566671Y-102634666D02*
X170433337Y-102634666D01*
X171633337Y-101234666D02*
X171366670Y-101234666D01*
X171366670Y-101234666D02*
X171233337Y-101301333D01*
X171233337Y-101301333D02*
X171166670Y-101368000D01*
X171166670Y-101368000D02*
X171033337Y-101568000D01*
X171033337Y-101568000D02*
X170966670Y-101834666D01*
X170966670Y-101834666D02*
X170966670Y-102368000D01*
X170966670Y-102368000D02*
X171033337Y-102501333D01*
X171033337Y-102501333D02*
X171100004Y-102568000D01*
X171100004Y-102568000D02*
X171233337Y-102634666D01*
X171233337Y-102634666D02*
X171500004Y-102634666D01*
X171500004Y-102634666D02*
X171633337Y-102568000D01*
X171633337Y-102568000D02*
X171700004Y-102501333D01*
X171700004Y-102501333D02*
X171766670Y-102368000D01*
X171766670Y-102368000D02*
X171766670Y-102034666D01*
X171766670Y-102034666D02*
X171700004Y-101901333D01*
X171700004Y-101901333D02*
X171633337Y-101834666D01*
X171633337Y-101834666D02*
X171500004Y-101768000D01*
X171500004Y-101768000D02*
X171233337Y-101768000D01*
X171233337Y-101768000D02*
X171100004Y-101834666D01*
X171100004Y-101834666D02*
X171033337Y-101901333D01*
X171033337Y-101901333D02*
X170966670Y-102034666D01*
X172366670Y-102101333D02*
X173433337Y-102101333D01*
X174833336Y-102634666D02*
X174033336Y-102634666D01*
X174433336Y-102634666D02*
X174433336Y-101234666D01*
X174433336Y-101234666D02*
X174300003Y-101434666D01*
X174300003Y-101434666D02*
X174166670Y-101568000D01*
X174166670Y-101568000D02*
X174033336Y-101634666D01*
X175700003Y-101234666D02*
X175833336Y-101234666D01*
X175833336Y-101234666D02*
X175966669Y-101301333D01*
X175966669Y-101301333D02*
X176033336Y-101368000D01*
X176033336Y-101368000D02*
X176100003Y-101501333D01*
X176100003Y-101501333D02*
X176166669Y-101768000D01*
X176166669Y-101768000D02*
X176166669Y-102101333D01*
X176166669Y-102101333D02*
X176100003Y-102368000D01*
X176100003Y-102368000D02*
X176033336Y-102501333D01*
X176033336Y-102501333D02*
X175966669Y-102568000D01*
X175966669Y-102568000D02*
X175833336Y-102634666D01*
X175833336Y-102634666D02*
X175700003Y-102634666D01*
X175700003Y-102634666D02*
X175566669Y-102568000D01*
X175566669Y-102568000D02*
X175500003Y-102501333D01*
X175500003Y-102501333D02*
X175433336Y-102368000D01*
X175433336Y-102368000D02*
X175366669Y-102101333D01*
X175366669Y-102101333D02*
X175366669Y-101768000D01*
X175366669Y-101768000D02*
X175433336Y-101501333D01*
X175433336Y-101501333D02*
X175500003Y-101368000D01*
X175500003Y-101368000D02*
X175566669Y-101301333D01*
X175566669Y-101301333D02*
X175700003Y-101234666D01*
X176766669Y-102101333D02*
X177833336Y-102101333D01*
X178766669Y-101234666D02*
X178900002Y-101234666D01*
X178900002Y-101234666D02*
X179033335Y-101301333D01*
X179033335Y-101301333D02*
X179100002Y-101368000D01*
X179100002Y-101368000D02*
X179166669Y-101501333D01*
X179166669Y-101501333D02*
X179233335Y-101768000D01*
X179233335Y-101768000D02*
X179233335Y-102101333D01*
X179233335Y-102101333D02*
X179166669Y-102368000D01*
X179166669Y-102368000D02*
X179100002Y-102501333D01*
X179100002Y-102501333D02*
X179033335Y-102568000D01*
X179033335Y-102568000D02*
X178900002Y-102634666D01*
X178900002Y-102634666D02*
X178766669Y-102634666D01*
X178766669Y-102634666D02*
X178633335Y-102568000D01*
X178633335Y-102568000D02*
X178566669Y-102501333D01*
X178566669Y-102501333D02*
X178500002Y-102368000D01*
X178500002Y-102368000D02*
X178433335Y-102101333D01*
X178433335Y-102101333D02*
X178433335Y-101768000D01*
X178433335Y-101768000D02*
X178500002Y-101501333D01*
X178500002Y-101501333D02*
X178566669Y-101368000D01*
X178566669Y-101368000D02*
X178633335Y-101301333D01*
X178633335Y-101301333D02*
X178766669Y-101234666D01*
X180566668Y-102634666D02*
X179766668Y-102634666D01*
X180166668Y-102634666D02*
X180166668Y-101234666D01*
X180166668Y-101234666D02*
X180033335Y-101434666D01*
X180033335Y-101434666D02*
X179900002Y-101568000D01*
X179900002Y-101568000D02*
X179766668Y-101634666D01*
D12*
X158989761Y-113538855D02*
X158608809Y-113538855D01*
X158608809Y-113538855D02*
X158608809Y-112738855D01*
X159256428Y-113119807D02*
X159523094Y-113119807D01*
X159637380Y-113538855D02*
X159256428Y-113538855D01*
X159256428Y-113538855D02*
X159256428Y-112738855D01*
X159256428Y-112738855D02*
X159637380Y-112738855D01*
X159980238Y-113538855D02*
X159980238Y-112738855D01*
X159980238Y-112738855D02*
X160170714Y-112738855D01*
X160170714Y-112738855D02*
X160285000Y-112776950D01*
X160285000Y-112776950D02*
X160361190Y-112853140D01*
X160361190Y-112853140D02*
X160399285Y-112929331D01*
X160399285Y-112929331D02*
X160437381Y-113081712D01*
X160437381Y-113081712D02*
X160437381Y-113195998D01*
X160437381Y-113195998D02*
X160399285Y-113348379D01*
X160399285Y-113348379D02*
X160361190Y-113424569D01*
X160361190Y-113424569D02*
X160285000Y-113500760D01*
X160285000Y-113500760D02*
X160170714Y-113538855D01*
X160170714Y-113538855D02*
X159980238Y-113538855D01*
X161199285Y-113538855D02*
X160742142Y-113538855D01*
X160970714Y-113538855D02*
X160970714Y-112738855D01*
X160970714Y-112738855D02*
X160894523Y-112853140D01*
X160894523Y-112853140D02*
X160818333Y-112929331D01*
X160818333Y-112929331D02*
X160742142Y-112967426D01*
X119507976Y-43996355D02*
X119507976Y-44643974D01*
X119507976Y-44643974D02*
X119546071Y-44720164D01*
X119546071Y-44720164D02*
X119584166Y-44758260D01*
X119584166Y-44758260D02*
X119660357Y-44796355D01*
X119660357Y-44796355D02*
X119812738Y-44796355D01*
X119812738Y-44796355D02*
X119888928Y-44758260D01*
X119888928Y-44758260D02*
X119927023Y-44720164D01*
X119927023Y-44720164D02*
X119965119Y-44643974D01*
X119965119Y-44643974D02*
X119965119Y-43996355D01*
X120384166Y-44796355D02*
X120536547Y-44796355D01*
X120536547Y-44796355D02*
X120612737Y-44758260D01*
X120612737Y-44758260D02*
X120650833Y-44720164D01*
X120650833Y-44720164D02*
X120727023Y-44605879D01*
X120727023Y-44605879D02*
X120765118Y-44453498D01*
X120765118Y-44453498D02*
X120765118Y-44148736D01*
X120765118Y-44148736D02*
X120727023Y-44072545D01*
X120727023Y-44072545D02*
X120688928Y-44034450D01*
X120688928Y-44034450D02*
X120612737Y-43996355D01*
X120612737Y-43996355D02*
X120460356Y-43996355D01*
X120460356Y-43996355D02*
X120384166Y-44034450D01*
X120384166Y-44034450D02*
X120346071Y-44072545D01*
X120346071Y-44072545D02*
X120307975Y-44148736D01*
X120307975Y-44148736D02*
X120307975Y-44339212D01*
X120307975Y-44339212D02*
X120346071Y-44415402D01*
X120346071Y-44415402D02*
X120384166Y-44453498D01*
X120384166Y-44453498D02*
X120460356Y-44491593D01*
X120460356Y-44491593D02*
X120612737Y-44491593D01*
X120612737Y-44491593D02*
X120688928Y-44453498D01*
X120688928Y-44453498D02*
X120727023Y-44415402D01*
X120727023Y-44415402D02*
X120765118Y-44339212D01*
X109390476Y-70929855D02*
X109390476Y-71577474D01*
X109390476Y-71577474D02*
X109428571Y-71653664D01*
X109428571Y-71653664D02*
X109466666Y-71691760D01*
X109466666Y-71691760D02*
X109542857Y-71729855D01*
X109542857Y-71729855D02*
X109695238Y-71729855D01*
X109695238Y-71729855D02*
X109771428Y-71691760D01*
X109771428Y-71691760D02*
X109809523Y-71653664D01*
X109809523Y-71653664D02*
X109847619Y-71577474D01*
X109847619Y-71577474D02*
X109847619Y-70929855D01*
X110647618Y-71729855D02*
X110190475Y-71729855D01*
X110419047Y-71729855D02*
X110419047Y-70929855D01*
X110419047Y-70929855D02*
X110342856Y-71044140D01*
X110342856Y-71044140D02*
X110266666Y-71120331D01*
X110266666Y-71120331D02*
X110190475Y-71158426D01*
D13*
X107257143Y-78846925D02*
X107142858Y-78789782D01*
X107142858Y-78789782D02*
X106971429Y-78789782D01*
X106971429Y-78789782D02*
X106800000Y-78846925D01*
X106800000Y-78846925D02*
X106685715Y-78961211D01*
X106685715Y-78961211D02*
X106628572Y-79075497D01*
X106628572Y-79075497D02*
X106571429Y-79304068D01*
X106571429Y-79304068D02*
X106571429Y-79475497D01*
X106571429Y-79475497D02*
X106628572Y-79704068D01*
X106628572Y-79704068D02*
X106685715Y-79818354D01*
X106685715Y-79818354D02*
X106800000Y-79932640D01*
X106800000Y-79932640D02*
X106971429Y-79989782D01*
X106971429Y-79989782D02*
X107085715Y-79989782D01*
X107085715Y-79989782D02*
X107257143Y-79932640D01*
X107257143Y-79932640D02*
X107314286Y-79875497D01*
X107314286Y-79875497D02*
X107314286Y-79475497D01*
X107314286Y-79475497D02*
X107085715Y-79475497D01*
X107828572Y-79989782D02*
X107828572Y-78789782D01*
X107828572Y-78789782D02*
X108285715Y-78789782D01*
X108285715Y-78789782D02*
X108400000Y-78846925D01*
X108400000Y-78846925D02*
X108457143Y-78904068D01*
X108457143Y-78904068D02*
X108514286Y-79018354D01*
X108514286Y-79018354D02*
X108514286Y-79189782D01*
X108514286Y-79189782D02*
X108457143Y-79304068D01*
X108457143Y-79304068D02*
X108400000Y-79361211D01*
X108400000Y-79361211D02*
X108285715Y-79418354D01*
X108285715Y-79418354D02*
X107828572Y-79418354D01*
X109257143Y-78789782D02*
X109371429Y-78789782D01*
X109371429Y-78789782D02*
X109485715Y-78846925D01*
X109485715Y-78846925D02*
X109542858Y-78904068D01*
X109542858Y-78904068D02*
X109600000Y-79018354D01*
X109600000Y-79018354D02*
X109657143Y-79246925D01*
X109657143Y-79246925D02*
X109657143Y-79532640D01*
X109657143Y-79532640D02*
X109600000Y-79761211D01*
X109600000Y-79761211D02*
X109542858Y-79875497D01*
X109542858Y-79875497D02*
X109485715Y-79932640D01*
X109485715Y-79932640D02*
X109371429Y-79989782D01*
X109371429Y-79989782D02*
X109257143Y-79989782D01*
X109257143Y-79989782D02*
X109142858Y-79932640D01*
X109142858Y-79932640D02*
X109085715Y-79875497D01*
X109085715Y-79875497D02*
X109028572Y-79761211D01*
X109028572Y-79761211D02*
X108971429Y-79532640D01*
X108971429Y-79532640D02*
X108971429Y-79246925D01*
X108971429Y-79246925D02*
X109028572Y-79018354D01*
X109028572Y-79018354D02*
X109085715Y-78904068D01*
X109085715Y-78904068D02*
X109142858Y-78846925D01*
X109142858Y-78846925D02*
X109257143Y-78789782D01*
X110171429Y-79532640D02*
X111085715Y-79532640D01*
X111600000Y-78904068D02*
X111657143Y-78846925D01*
X111657143Y-78846925D02*
X111771429Y-78789782D01*
X111771429Y-78789782D02*
X112057143Y-78789782D01*
X112057143Y-78789782D02*
X112171429Y-78846925D01*
X112171429Y-78846925D02*
X112228571Y-78904068D01*
X112228571Y-78904068D02*
X112285714Y-79018354D01*
X112285714Y-79018354D02*
X112285714Y-79132640D01*
X112285714Y-79132640D02*
X112228571Y-79304068D01*
X112228571Y-79304068D02*
X111542857Y-79989782D01*
X111542857Y-79989782D02*
X112285714Y-79989782D01*
X113314286Y-79189782D02*
X113314286Y-79989782D01*
X113028571Y-78732640D02*
X112742857Y-79589782D01*
X112742857Y-79589782D02*
X113485714Y-79589782D01*
X94885716Y-96345782D02*
X95171430Y-97545782D01*
X95171430Y-97545782D02*
X95400002Y-96688640D01*
X95400002Y-96688640D02*
X95628573Y-97545782D01*
X95628573Y-97545782D02*
X95914288Y-96345782D01*
X96828574Y-97488640D02*
X96714288Y-97545782D01*
X96714288Y-97545782D02*
X96485717Y-97545782D01*
X96485717Y-97545782D02*
X96371431Y-97488640D01*
X96371431Y-97488640D02*
X96314288Y-97374354D01*
X96314288Y-97374354D02*
X96314288Y-96917211D01*
X96314288Y-96917211D02*
X96371431Y-96802925D01*
X96371431Y-96802925D02*
X96485717Y-96745782D01*
X96485717Y-96745782D02*
X96714288Y-96745782D01*
X96714288Y-96745782D02*
X96828574Y-96802925D01*
X96828574Y-96802925D02*
X96885717Y-96917211D01*
X96885717Y-96917211D02*
X96885717Y-97031497D01*
X96885717Y-97031497D02*
X96314288Y-97145782D01*
X97342859Y-97202925D02*
X97914288Y-97202925D01*
X97228573Y-97545782D02*
X97628573Y-96345782D01*
X97628573Y-96345782D02*
X98028573Y-97545782D01*
X98942859Y-97488640D02*
X98828573Y-97545782D01*
X98828573Y-97545782D02*
X98600001Y-97545782D01*
X98600001Y-97545782D02*
X98485716Y-97488640D01*
X98485716Y-97488640D02*
X98428573Y-97431497D01*
X98428573Y-97431497D02*
X98371430Y-97317211D01*
X98371430Y-97317211D02*
X98371430Y-96974354D01*
X98371430Y-96974354D02*
X98428573Y-96860068D01*
X98428573Y-96860068D02*
X98485716Y-96802925D01*
X98485716Y-96802925D02*
X98600001Y-96745782D01*
X98600001Y-96745782D02*
X98828573Y-96745782D01*
X98828573Y-96745782D02*
X98942859Y-96802925D01*
X99285715Y-96745782D02*
X99742858Y-96745782D01*
X99457144Y-96345782D02*
X99457144Y-97374354D01*
X99457144Y-97374354D02*
X99514287Y-97488640D01*
X99514287Y-97488640D02*
X99628572Y-97545782D01*
X99628572Y-97545782D02*
X99742858Y-97545782D01*
X101742858Y-97545782D02*
X101342858Y-96974354D01*
X101057144Y-97545782D02*
X101057144Y-96345782D01*
X101057144Y-96345782D02*
X101514287Y-96345782D01*
X101514287Y-96345782D02*
X101628572Y-96402925D01*
X101628572Y-96402925D02*
X101685715Y-96460068D01*
X101685715Y-96460068D02*
X101742858Y-96574354D01*
X101742858Y-96574354D02*
X101742858Y-96745782D01*
X101742858Y-96745782D02*
X101685715Y-96860068D01*
X101685715Y-96860068D02*
X101628572Y-96917211D01*
X101628572Y-96917211D02*
X101514287Y-96974354D01*
X101514287Y-96974354D02*
X101057144Y-96974354D01*
X102257144Y-97545782D02*
X102257144Y-96345782D01*
X102257144Y-96345782D02*
X102714287Y-96345782D01*
X102714287Y-96345782D02*
X102828572Y-96402925D01*
X102828572Y-96402925D02*
X102885715Y-96460068D01*
X102885715Y-96460068D02*
X102942858Y-96574354D01*
X102942858Y-96574354D02*
X102942858Y-96745782D01*
X102942858Y-96745782D02*
X102885715Y-96860068D01*
X102885715Y-96860068D02*
X102828572Y-96917211D01*
X102828572Y-96917211D02*
X102714287Y-96974354D01*
X102714287Y-96974354D02*
X102257144Y-96974354D01*
X103400001Y-96460068D02*
X103457144Y-96402925D01*
X103457144Y-96402925D02*
X103571430Y-96345782D01*
X103571430Y-96345782D02*
X103857144Y-96345782D01*
X103857144Y-96345782D02*
X103971430Y-96402925D01*
X103971430Y-96402925D02*
X104028572Y-96460068D01*
X104028572Y-96460068D02*
X104085715Y-96574354D01*
X104085715Y-96574354D02*
X104085715Y-96688640D01*
X104085715Y-96688640D02*
X104028572Y-96860068D01*
X104028572Y-96860068D02*
X103342858Y-97545782D01*
X103342858Y-97545782D02*
X104085715Y-97545782D01*
X104485715Y-96345782D02*
X105228572Y-96345782D01*
X105228572Y-96345782D02*
X104828572Y-96802925D01*
X104828572Y-96802925D02*
X105000001Y-96802925D01*
X105000001Y-96802925D02*
X105114287Y-96860068D01*
X105114287Y-96860068D02*
X105171429Y-96917211D01*
X105171429Y-96917211D02*
X105228572Y-97031497D01*
X105228572Y-97031497D02*
X105228572Y-97317211D01*
X105228572Y-97317211D02*
X105171429Y-97431497D01*
X105171429Y-97431497D02*
X105114287Y-97488640D01*
X105114287Y-97488640D02*
X105000001Y-97545782D01*
X105000001Y-97545782D02*
X104657144Y-97545782D01*
X104657144Y-97545782D02*
X104542858Y-97488640D01*
X104542858Y-97488640D02*
X104485715Y-97431497D01*
X106314286Y-96345782D02*
X105742858Y-96345782D01*
X105742858Y-96345782D02*
X105685715Y-96917211D01*
X105685715Y-96917211D02*
X105742858Y-96860068D01*
X105742858Y-96860068D02*
X105857144Y-96802925D01*
X105857144Y-96802925D02*
X106142858Y-96802925D01*
X106142858Y-96802925D02*
X106257144Y-96860068D01*
X106257144Y-96860068D02*
X106314286Y-96917211D01*
X106314286Y-96917211D02*
X106371429Y-97031497D01*
X106371429Y-97031497D02*
X106371429Y-97317211D01*
X106371429Y-97317211D02*
X106314286Y-97431497D01*
X106314286Y-97431497D02*
X106257144Y-97488640D01*
X106257144Y-97488640D02*
X106142858Y-97545782D01*
X106142858Y-97545782D02*
X105857144Y-97545782D01*
X105857144Y-97545782D02*
X105742858Y-97488640D01*
X105742858Y-97488640D02*
X105685715Y-97431497D01*
X107114286Y-96345782D02*
X107228572Y-96345782D01*
X107228572Y-96345782D02*
X107342858Y-96402925D01*
X107342858Y-96402925D02*
X107400001Y-96460068D01*
X107400001Y-96460068D02*
X107457143Y-96574354D01*
X107457143Y-96574354D02*
X107514286Y-96802925D01*
X107514286Y-96802925D02*
X107514286Y-97088640D01*
X107514286Y-97088640D02*
X107457143Y-97317211D01*
X107457143Y-97317211D02*
X107400001Y-97431497D01*
X107400001Y-97431497D02*
X107342858Y-97488640D01*
X107342858Y-97488640D02*
X107228572Y-97545782D01*
X107228572Y-97545782D02*
X107114286Y-97545782D01*
X107114286Y-97545782D02*
X107000001Y-97488640D01*
X107000001Y-97488640D02*
X106942858Y-97431497D01*
X106942858Y-97431497D02*
X106885715Y-97317211D01*
X106885715Y-97317211D02*
X106828572Y-97088640D01*
X106828572Y-97088640D02*
X106828572Y-96802925D01*
X106828572Y-96802925D02*
X106885715Y-96574354D01*
X106885715Y-96574354D02*
X106942858Y-96460068D01*
X106942858Y-96460068D02*
X107000001Y-96402925D01*
X107000001Y-96402925D02*
X107114286Y-96345782D01*
X108428572Y-96917211D02*
X108600000Y-96974354D01*
X108600000Y-96974354D02*
X108657143Y-97031497D01*
X108657143Y-97031497D02*
X108714286Y-97145782D01*
X108714286Y-97145782D02*
X108714286Y-97317211D01*
X108714286Y-97317211D02*
X108657143Y-97431497D01*
X108657143Y-97431497D02*
X108600000Y-97488640D01*
X108600000Y-97488640D02*
X108485715Y-97545782D01*
X108485715Y-97545782D02*
X108028572Y-97545782D01*
X108028572Y-97545782D02*
X108028572Y-96345782D01*
X108028572Y-96345782D02*
X108428572Y-96345782D01*
X108428572Y-96345782D02*
X108542858Y-96402925D01*
X108542858Y-96402925D02*
X108600000Y-96460068D01*
X108600000Y-96460068D02*
X108657143Y-96574354D01*
X108657143Y-96574354D02*
X108657143Y-96688640D01*
X108657143Y-96688640D02*
X108600000Y-96802925D01*
X108600000Y-96802925D02*
X108542858Y-96860068D01*
X108542858Y-96860068D02*
X108428572Y-96917211D01*
X108428572Y-96917211D02*
X108028572Y-96917211D01*
X110485715Y-98002925D02*
X110428572Y-97945782D01*
X110428572Y-97945782D02*
X110314286Y-97774354D01*
X110314286Y-97774354D02*
X110257144Y-97660068D01*
X110257144Y-97660068D02*
X110200001Y-97488640D01*
X110200001Y-97488640D02*
X110142858Y-97202925D01*
X110142858Y-97202925D02*
X110142858Y-96974354D01*
X110142858Y-96974354D02*
X110200001Y-96688640D01*
X110200001Y-96688640D02*
X110257144Y-96517211D01*
X110257144Y-96517211D02*
X110314286Y-96402925D01*
X110314286Y-96402925D02*
X110428572Y-96231497D01*
X110428572Y-96231497D02*
X110485715Y-96174354D01*
X111457144Y-97488640D02*
X111342858Y-97545782D01*
X111342858Y-97545782D02*
X111114286Y-97545782D01*
X111114286Y-97545782D02*
X111000001Y-97488640D01*
X111000001Y-97488640D02*
X110942858Y-97431497D01*
X110942858Y-97431497D02*
X110885715Y-97317211D01*
X110885715Y-97317211D02*
X110885715Y-96974354D01*
X110885715Y-96974354D02*
X110942858Y-96860068D01*
X110942858Y-96860068D02*
X111000001Y-96802925D01*
X111000001Y-96802925D02*
X111114286Y-96745782D01*
X111114286Y-96745782D02*
X111342858Y-96745782D01*
X111342858Y-96745782D02*
X111457144Y-96802925D01*
X112142857Y-97545782D02*
X112028572Y-97488640D01*
X112028572Y-97488640D02*
X111971429Y-97431497D01*
X111971429Y-97431497D02*
X111914286Y-97317211D01*
X111914286Y-97317211D02*
X111914286Y-96974354D01*
X111914286Y-96974354D02*
X111971429Y-96860068D01*
X111971429Y-96860068D02*
X112028572Y-96802925D01*
X112028572Y-96802925D02*
X112142857Y-96745782D01*
X112142857Y-96745782D02*
X112314286Y-96745782D01*
X112314286Y-96745782D02*
X112428572Y-96802925D01*
X112428572Y-96802925D02*
X112485715Y-96860068D01*
X112485715Y-96860068D02*
X112542857Y-96974354D01*
X112542857Y-96974354D02*
X112542857Y-97317211D01*
X112542857Y-97317211D02*
X112485715Y-97431497D01*
X112485715Y-97431497D02*
X112428572Y-97488640D01*
X112428572Y-97488640D02*
X112314286Y-97545782D01*
X112314286Y-97545782D02*
X112142857Y-97545782D01*
X113057143Y-97545782D02*
X113057143Y-96745782D01*
X113057143Y-96860068D02*
X113114286Y-96802925D01*
X113114286Y-96802925D02*
X113228571Y-96745782D01*
X113228571Y-96745782D02*
X113400000Y-96745782D01*
X113400000Y-96745782D02*
X113514286Y-96802925D01*
X113514286Y-96802925D02*
X113571429Y-96917211D01*
X113571429Y-96917211D02*
X113571429Y-97545782D01*
X113571429Y-96917211D02*
X113628571Y-96802925D01*
X113628571Y-96802925D02*
X113742857Y-96745782D01*
X113742857Y-96745782D02*
X113914286Y-96745782D01*
X113914286Y-96745782D02*
X114028571Y-96802925D01*
X114028571Y-96802925D02*
X114085714Y-96917211D01*
X114085714Y-96917211D02*
X114085714Y-97545782D01*
X114657143Y-96745782D02*
X114657143Y-97945782D01*
X114657143Y-96802925D02*
X114771429Y-96745782D01*
X114771429Y-96745782D02*
X115000000Y-96745782D01*
X115000000Y-96745782D02*
X115114286Y-96802925D01*
X115114286Y-96802925D02*
X115171429Y-96860068D01*
X115171429Y-96860068D02*
X115228571Y-96974354D01*
X115228571Y-96974354D02*
X115228571Y-97317211D01*
X115228571Y-97317211D02*
X115171429Y-97431497D01*
X115171429Y-97431497D02*
X115114286Y-97488640D01*
X115114286Y-97488640D02*
X115000000Y-97545782D01*
X115000000Y-97545782D02*
X114771429Y-97545782D01*
X114771429Y-97545782D02*
X114657143Y-97488640D01*
X115914285Y-97545782D02*
X115800000Y-97488640D01*
X115800000Y-97488640D02*
X115742857Y-97431497D01*
X115742857Y-97431497D02*
X115685714Y-97317211D01*
X115685714Y-97317211D02*
X115685714Y-96974354D01*
X115685714Y-96974354D02*
X115742857Y-96860068D01*
X115742857Y-96860068D02*
X115800000Y-96802925D01*
X115800000Y-96802925D02*
X115914285Y-96745782D01*
X115914285Y-96745782D02*
X116085714Y-96745782D01*
X116085714Y-96745782D02*
X116200000Y-96802925D01*
X116200000Y-96802925D02*
X116257143Y-96860068D01*
X116257143Y-96860068D02*
X116314285Y-96974354D01*
X116314285Y-96974354D02*
X116314285Y-97317211D01*
X116314285Y-97317211D02*
X116257143Y-97431497D01*
X116257143Y-97431497D02*
X116200000Y-97488640D01*
X116200000Y-97488640D02*
X116085714Y-97545782D01*
X116085714Y-97545782D02*
X115914285Y-97545782D01*
X116828571Y-96745782D02*
X116828571Y-97545782D01*
X116828571Y-96860068D02*
X116885714Y-96802925D01*
X116885714Y-96802925D02*
X116999999Y-96745782D01*
X116999999Y-96745782D02*
X117171428Y-96745782D01*
X117171428Y-96745782D02*
X117285714Y-96802925D01*
X117285714Y-96802925D02*
X117342857Y-96917211D01*
X117342857Y-96917211D02*
X117342857Y-97545782D01*
X118371428Y-97488640D02*
X118257142Y-97545782D01*
X118257142Y-97545782D02*
X118028571Y-97545782D01*
X118028571Y-97545782D02*
X117914285Y-97488640D01*
X117914285Y-97488640D02*
X117857142Y-97374354D01*
X117857142Y-97374354D02*
X117857142Y-96917211D01*
X117857142Y-96917211D02*
X117914285Y-96802925D01*
X117914285Y-96802925D02*
X118028571Y-96745782D01*
X118028571Y-96745782D02*
X118257142Y-96745782D01*
X118257142Y-96745782D02*
X118371428Y-96802925D01*
X118371428Y-96802925D02*
X118428571Y-96917211D01*
X118428571Y-96917211D02*
X118428571Y-97031497D01*
X118428571Y-97031497D02*
X117857142Y-97145782D01*
X118942856Y-96745782D02*
X118942856Y-97545782D01*
X118942856Y-96860068D02*
X118999999Y-96802925D01*
X118999999Y-96802925D02*
X119114284Y-96745782D01*
X119114284Y-96745782D02*
X119285713Y-96745782D01*
X119285713Y-96745782D02*
X119399999Y-96802925D01*
X119399999Y-96802925D02*
X119457142Y-96917211D01*
X119457142Y-96917211D02*
X119457142Y-97545782D01*
X119857141Y-96745782D02*
X120314284Y-96745782D01*
X120028570Y-96345782D02*
X120028570Y-97374354D01*
X120028570Y-97374354D02*
X120085713Y-97488640D01*
X120085713Y-97488640D02*
X120199998Y-97545782D01*
X120199998Y-97545782D02*
X120314284Y-97545782D01*
X120657141Y-97488640D02*
X120771427Y-97545782D01*
X120771427Y-97545782D02*
X120999998Y-97545782D01*
X120999998Y-97545782D02*
X121114284Y-97488640D01*
X121114284Y-97488640D02*
X121171427Y-97374354D01*
X121171427Y-97374354D02*
X121171427Y-97317211D01*
X121171427Y-97317211D02*
X121114284Y-97202925D01*
X121114284Y-97202925D02*
X120999998Y-97145782D01*
X120999998Y-97145782D02*
X120828570Y-97145782D01*
X120828570Y-97145782D02*
X120714284Y-97088640D01*
X120714284Y-97088640D02*
X120657141Y-96974354D01*
X120657141Y-96974354D02*
X120657141Y-96917211D01*
X120657141Y-96917211D02*
X120714284Y-96802925D01*
X120714284Y-96802925D02*
X120828570Y-96745782D01*
X120828570Y-96745782D02*
X120999998Y-96745782D01*
X120999998Y-96745782D02*
X121114284Y-96802925D01*
X123114285Y-96745782D02*
X123114285Y-97545782D01*
X122599999Y-96745782D02*
X122599999Y-97374354D01*
X122599999Y-97374354D02*
X122657142Y-97488640D01*
X122657142Y-97488640D02*
X122771427Y-97545782D01*
X122771427Y-97545782D02*
X122942856Y-97545782D01*
X122942856Y-97545782D02*
X123057142Y-97488640D01*
X123057142Y-97488640D02*
X123114285Y-97431497D01*
X123685713Y-96745782D02*
X123685713Y-97945782D01*
X123685713Y-96802925D02*
X123799999Y-96745782D01*
X123799999Y-96745782D02*
X124028570Y-96745782D01*
X124028570Y-96745782D02*
X124142856Y-96802925D01*
X124142856Y-96802925D02*
X124199999Y-96860068D01*
X124199999Y-96860068D02*
X124257141Y-96974354D01*
X124257141Y-96974354D02*
X124257141Y-97317211D01*
X124257141Y-97317211D02*
X124199999Y-97431497D01*
X124199999Y-97431497D02*
X124142856Y-97488640D01*
X124142856Y-97488640D02*
X124028570Y-97545782D01*
X124028570Y-97545782D02*
X123799999Y-97545782D01*
X123799999Y-97545782D02*
X123685713Y-97488640D01*
X124657141Y-98002925D02*
X124714284Y-97945782D01*
X124714284Y-97945782D02*
X124828570Y-97774354D01*
X124828570Y-97774354D02*
X124885713Y-97660068D01*
X124885713Y-97660068D02*
X124942855Y-97488640D01*
X124942855Y-97488640D02*
X124999998Y-97202925D01*
X124999998Y-97202925D02*
X124999998Y-96974354D01*
X124999998Y-96974354D02*
X124942855Y-96688640D01*
X124942855Y-96688640D02*
X124885713Y-96517211D01*
X124885713Y-96517211D02*
X124828570Y-96402925D01*
X124828570Y-96402925D02*
X124714284Y-96231497D01*
X124714284Y-96231497D02*
X124657141Y-96174354D01*
X106685714Y-105866925D02*
X106571429Y-105809782D01*
X106571429Y-105809782D02*
X106400000Y-105809782D01*
X106400000Y-105809782D02*
X106228571Y-105866925D01*
X106228571Y-105866925D02*
X106114286Y-105981211D01*
X106114286Y-105981211D02*
X106057143Y-106095497D01*
X106057143Y-106095497D02*
X106000000Y-106324068D01*
X106000000Y-106324068D02*
X106000000Y-106495497D01*
X106000000Y-106495497D02*
X106057143Y-106724068D01*
X106057143Y-106724068D02*
X106114286Y-106838354D01*
X106114286Y-106838354D02*
X106228571Y-106952640D01*
X106228571Y-106952640D02*
X106400000Y-107009782D01*
X106400000Y-107009782D02*
X106514286Y-107009782D01*
X106514286Y-107009782D02*
X106685714Y-106952640D01*
X106685714Y-106952640D02*
X106742857Y-106895497D01*
X106742857Y-106895497D02*
X106742857Y-106495497D01*
X106742857Y-106495497D02*
X106514286Y-106495497D01*
X107257143Y-107009782D02*
X107257143Y-105809782D01*
X107257143Y-105809782D02*
X107714286Y-105809782D01*
X107714286Y-105809782D02*
X107828571Y-105866925D01*
X107828571Y-105866925D02*
X107885714Y-105924068D01*
X107885714Y-105924068D02*
X107942857Y-106038354D01*
X107942857Y-106038354D02*
X107942857Y-106209782D01*
X107942857Y-106209782D02*
X107885714Y-106324068D01*
X107885714Y-106324068D02*
X107828571Y-106381211D01*
X107828571Y-106381211D02*
X107714286Y-106438354D01*
X107714286Y-106438354D02*
X107257143Y-106438354D01*
X108400000Y-105924068D02*
X108457143Y-105866925D01*
X108457143Y-105866925D02*
X108571429Y-105809782D01*
X108571429Y-105809782D02*
X108857143Y-105809782D01*
X108857143Y-105809782D02*
X108971429Y-105866925D01*
X108971429Y-105866925D02*
X109028571Y-105924068D01*
X109028571Y-105924068D02*
X109085714Y-106038354D01*
X109085714Y-106038354D02*
X109085714Y-106152640D01*
X109085714Y-106152640D02*
X109028571Y-106324068D01*
X109028571Y-106324068D02*
X108342857Y-107009782D01*
X108342857Y-107009782D02*
X109085714Y-107009782D01*
X110171428Y-105809782D02*
X109600000Y-105809782D01*
X109600000Y-105809782D02*
X109542857Y-106381211D01*
X109542857Y-106381211D02*
X109600000Y-106324068D01*
X109600000Y-106324068D02*
X109714286Y-106266925D01*
X109714286Y-106266925D02*
X110000000Y-106266925D01*
X110000000Y-106266925D02*
X110114286Y-106324068D01*
X110114286Y-106324068D02*
X110171428Y-106381211D01*
X110171428Y-106381211D02*
X110228571Y-106495497D01*
X110228571Y-106495497D02*
X110228571Y-106781211D01*
X110228571Y-106781211D02*
X110171428Y-106895497D01*
X110171428Y-106895497D02*
X110114286Y-106952640D01*
X110114286Y-106952640D02*
X110000000Y-107009782D01*
X110000000Y-107009782D02*
X109714286Y-107009782D01*
X109714286Y-107009782D02*
X109600000Y-106952640D01*
X109600000Y-106952640D02*
X109542857Y-106895497D01*
X110742857Y-106552640D02*
X111657143Y-106552640D01*
X112742857Y-106209782D02*
X112742857Y-107009782D01*
X112457142Y-105752640D02*
X112171428Y-106609782D01*
X112171428Y-106609782D02*
X112914285Y-106609782D01*
X113257142Y-105809782D02*
X114057142Y-105809782D01*
X114057142Y-105809782D02*
X113542856Y-107009782D01*
X123843857Y-92345782D02*
X123843857Y-93317211D01*
X123843857Y-93317211D02*
X123901000Y-93431497D01*
X123901000Y-93431497D02*
X123958143Y-93488640D01*
X123958143Y-93488640D02*
X124072428Y-93545782D01*
X124072428Y-93545782D02*
X124301000Y-93545782D01*
X124301000Y-93545782D02*
X124415285Y-93488640D01*
X124415285Y-93488640D02*
X124472428Y-93431497D01*
X124472428Y-93431497D02*
X124529571Y-93317211D01*
X124529571Y-93317211D02*
X124529571Y-92345782D01*
X125043857Y-93488640D02*
X125215286Y-93545782D01*
X125215286Y-93545782D02*
X125501000Y-93545782D01*
X125501000Y-93545782D02*
X125615286Y-93488640D01*
X125615286Y-93488640D02*
X125672428Y-93431497D01*
X125672428Y-93431497D02*
X125729571Y-93317211D01*
X125729571Y-93317211D02*
X125729571Y-93202925D01*
X125729571Y-93202925D02*
X125672428Y-93088640D01*
X125672428Y-93088640D02*
X125615286Y-93031497D01*
X125615286Y-93031497D02*
X125501000Y-92974354D01*
X125501000Y-92974354D02*
X125272428Y-92917211D01*
X125272428Y-92917211D02*
X125158143Y-92860068D01*
X125158143Y-92860068D02*
X125101000Y-92802925D01*
X125101000Y-92802925D02*
X125043857Y-92688640D01*
X125043857Y-92688640D02*
X125043857Y-92574354D01*
X125043857Y-92574354D02*
X125101000Y-92460068D01*
X125101000Y-92460068D02*
X125158143Y-92402925D01*
X125158143Y-92402925D02*
X125272428Y-92345782D01*
X125272428Y-92345782D02*
X125558143Y-92345782D01*
X125558143Y-92345782D02*
X125729571Y-92402925D01*
X126643857Y-92917211D02*
X126815285Y-92974354D01*
X126815285Y-92974354D02*
X126872428Y-93031497D01*
X126872428Y-93031497D02*
X126929571Y-93145782D01*
X126929571Y-93145782D02*
X126929571Y-93317211D01*
X126929571Y-93317211D02*
X126872428Y-93431497D01*
X126872428Y-93431497D02*
X126815285Y-93488640D01*
X126815285Y-93488640D02*
X126701000Y-93545782D01*
X126701000Y-93545782D02*
X126243857Y-93545782D01*
X126243857Y-93545782D02*
X126243857Y-92345782D01*
X126243857Y-92345782D02*
X126643857Y-92345782D01*
X126643857Y-92345782D02*
X126758143Y-92402925D01*
X126758143Y-92402925D02*
X126815285Y-92460068D01*
X126815285Y-92460068D02*
X126872428Y-92574354D01*
X126872428Y-92574354D02*
X126872428Y-92688640D01*
X126872428Y-92688640D02*
X126815285Y-92802925D01*
X126815285Y-92802925D02*
X126758143Y-92860068D01*
X126758143Y-92860068D02*
X126643857Y-92917211D01*
X126643857Y-92917211D02*
X126243857Y-92917211D01*
X127443857Y-93088640D02*
X128358143Y-93088640D01*
X129615285Y-93431497D02*
X129558142Y-93488640D01*
X129558142Y-93488640D02*
X129386714Y-93545782D01*
X129386714Y-93545782D02*
X129272428Y-93545782D01*
X129272428Y-93545782D02*
X129100999Y-93488640D01*
X129100999Y-93488640D02*
X128986714Y-93374354D01*
X128986714Y-93374354D02*
X128929571Y-93260068D01*
X128929571Y-93260068D02*
X128872428Y-93031497D01*
X128872428Y-93031497D02*
X128872428Y-92860068D01*
X128872428Y-92860068D02*
X128929571Y-92631497D01*
X128929571Y-92631497D02*
X128986714Y-92517211D01*
X128986714Y-92517211D02*
X129100999Y-92402925D01*
X129100999Y-92402925D02*
X129272428Y-92345782D01*
X129272428Y-92345782D02*
X129386714Y-92345782D01*
X129386714Y-92345782D02*
X129558142Y-92402925D01*
X129558142Y-92402925D02*
X129615285Y-92460068D01*
D12*
X149500476Y-85663855D02*
X149500476Y-86311474D01*
X149500476Y-86311474D02*
X149538571Y-86387664D01*
X149538571Y-86387664D02*
X149576666Y-86425760D01*
X149576666Y-86425760D02*
X149652857Y-86463855D01*
X149652857Y-86463855D02*
X149805238Y-86463855D01*
X149805238Y-86463855D02*
X149881428Y-86425760D01*
X149881428Y-86425760D02*
X149919523Y-86387664D01*
X149919523Y-86387664D02*
X149957619Y-86311474D01*
X149957619Y-86311474D02*
X149957619Y-85663855D01*
X150681428Y-85930521D02*
X150681428Y-86463855D01*
X150490952Y-85625760D02*
X150300475Y-86197188D01*
X150300475Y-86197188D02*
X150795714Y-86197188D01*
X54480476Y-43988855D02*
X54480476Y-44636474D01*
X54480476Y-44636474D02*
X54518571Y-44712664D01*
X54518571Y-44712664D02*
X54556666Y-44750760D01*
X54556666Y-44750760D02*
X54632857Y-44788855D01*
X54632857Y-44788855D02*
X54785238Y-44788855D01*
X54785238Y-44788855D02*
X54861428Y-44750760D01*
X54861428Y-44750760D02*
X54899523Y-44712664D01*
X54899523Y-44712664D02*
X54937619Y-44636474D01*
X54937619Y-44636474D02*
X54937619Y-43988855D01*
X55699523Y-43988855D02*
X55318571Y-43988855D01*
X55318571Y-43988855D02*
X55280475Y-44369807D01*
X55280475Y-44369807D02*
X55318571Y-44331712D01*
X55318571Y-44331712D02*
X55394761Y-44293617D01*
X55394761Y-44293617D02*
X55585237Y-44293617D01*
X55585237Y-44293617D02*
X55661428Y-44331712D01*
X55661428Y-44331712D02*
X55699523Y-44369807D01*
X55699523Y-44369807D02*
X55737618Y-44445998D01*
X55737618Y-44445998D02*
X55737618Y-44636474D01*
X55737618Y-44636474D02*
X55699523Y-44712664D01*
X55699523Y-44712664D02*
X55661428Y-44750760D01*
X55661428Y-44750760D02*
X55585237Y-44788855D01*
X55585237Y-44788855D02*
X55394761Y-44788855D01*
X55394761Y-44788855D02*
X55318571Y-44750760D01*
X55318571Y-44750760D02*
X55280475Y-44712664D01*
X70627024Y-56996355D02*
X70627024Y-57643974D01*
X70627024Y-57643974D02*
X70665119Y-57720164D01*
X70665119Y-57720164D02*
X70703214Y-57758260D01*
X70703214Y-57758260D02*
X70779405Y-57796355D01*
X70779405Y-57796355D02*
X70931786Y-57796355D01*
X70931786Y-57796355D02*
X71007976Y-57758260D01*
X71007976Y-57758260D02*
X71046071Y-57720164D01*
X71046071Y-57720164D02*
X71084167Y-57643974D01*
X71084167Y-57643974D02*
X71084167Y-56996355D01*
X71884166Y-57796355D02*
X71427023Y-57796355D01*
X71655595Y-57796355D02*
X71655595Y-56996355D01*
X71655595Y-56996355D02*
X71579404Y-57110640D01*
X71579404Y-57110640D02*
X71503214Y-57186831D01*
X71503214Y-57186831D02*
X71427023Y-57224926D01*
X72379405Y-56996355D02*
X72455595Y-56996355D01*
X72455595Y-56996355D02*
X72531786Y-57034450D01*
X72531786Y-57034450D02*
X72569881Y-57072545D01*
X72569881Y-57072545D02*
X72607976Y-57148736D01*
X72607976Y-57148736D02*
X72646071Y-57301117D01*
X72646071Y-57301117D02*
X72646071Y-57491593D01*
X72646071Y-57491593D02*
X72607976Y-57643974D01*
X72607976Y-57643974D02*
X72569881Y-57720164D01*
X72569881Y-57720164D02*
X72531786Y-57758260D01*
X72531786Y-57758260D02*
X72455595Y-57796355D01*
X72455595Y-57796355D02*
X72379405Y-57796355D01*
X72379405Y-57796355D02*
X72303214Y-57758260D01*
X72303214Y-57758260D02*
X72265119Y-57720164D01*
X72265119Y-57720164D02*
X72227024Y-57643974D01*
X72227024Y-57643974D02*
X72188928Y-57491593D01*
X72188928Y-57491593D02*
X72188928Y-57301117D01*
X72188928Y-57301117D02*
X72227024Y-57148736D01*
X72227024Y-57148736D02*
X72265119Y-57072545D01*
X72265119Y-57072545D02*
X72303214Y-57034450D01*
X72303214Y-57034450D02*
X72379405Y-56996355D01*
X153507976Y-43996355D02*
X153507976Y-44643974D01*
X153507976Y-44643974D02*
X153546071Y-44720164D01*
X153546071Y-44720164D02*
X153584166Y-44758260D01*
X153584166Y-44758260D02*
X153660357Y-44796355D01*
X153660357Y-44796355D02*
X153812738Y-44796355D01*
X153812738Y-44796355D02*
X153888928Y-44758260D01*
X153888928Y-44758260D02*
X153927023Y-44720164D01*
X153927023Y-44720164D02*
X153965119Y-44643974D01*
X153965119Y-44643974D02*
X153965119Y-43996355D01*
X154688928Y-43996355D02*
X154536547Y-43996355D01*
X154536547Y-43996355D02*
X154460356Y-44034450D01*
X154460356Y-44034450D02*
X154422261Y-44072545D01*
X154422261Y-44072545D02*
X154346071Y-44186831D01*
X154346071Y-44186831D02*
X154307975Y-44339212D01*
X154307975Y-44339212D02*
X154307975Y-44643974D01*
X154307975Y-44643974D02*
X154346071Y-44720164D01*
X154346071Y-44720164D02*
X154384166Y-44758260D01*
X154384166Y-44758260D02*
X154460356Y-44796355D01*
X154460356Y-44796355D02*
X154612737Y-44796355D01*
X154612737Y-44796355D02*
X154688928Y-44758260D01*
X154688928Y-44758260D02*
X154727023Y-44720164D01*
X154727023Y-44720164D02*
X154765118Y-44643974D01*
X154765118Y-44643974D02*
X154765118Y-44453498D01*
X154765118Y-44453498D02*
X154727023Y-44377307D01*
X154727023Y-44377307D02*
X154688928Y-44339212D01*
X154688928Y-44339212D02*
X154612737Y-44301117D01*
X154612737Y-44301117D02*
X154460356Y-44301117D01*
X154460356Y-44301117D02*
X154384166Y-44339212D01*
X154384166Y-44339212D02*
X154346071Y-44377307D01*
X154346071Y-44377307D02*
X154307975Y-44453498D01*
X95507976Y-43996355D02*
X95507976Y-44643974D01*
X95507976Y-44643974D02*
X95546071Y-44720164D01*
X95546071Y-44720164D02*
X95584166Y-44758260D01*
X95584166Y-44758260D02*
X95660357Y-44796355D01*
X95660357Y-44796355D02*
X95812738Y-44796355D01*
X95812738Y-44796355D02*
X95888928Y-44758260D01*
X95888928Y-44758260D02*
X95927023Y-44720164D01*
X95927023Y-44720164D02*
X95965119Y-44643974D01*
X95965119Y-44643974D02*
X95965119Y-43996355D01*
X96269880Y-43996355D02*
X96803214Y-43996355D01*
X96803214Y-43996355D02*
X96460356Y-44796355D01*
X119127024Y-56996355D02*
X119127024Y-57643974D01*
X119127024Y-57643974D02*
X119165119Y-57720164D01*
X119165119Y-57720164D02*
X119203214Y-57758260D01*
X119203214Y-57758260D02*
X119279405Y-57796355D01*
X119279405Y-57796355D02*
X119431786Y-57796355D01*
X119431786Y-57796355D02*
X119507976Y-57758260D01*
X119507976Y-57758260D02*
X119546071Y-57720164D01*
X119546071Y-57720164D02*
X119584167Y-57643974D01*
X119584167Y-57643974D02*
X119584167Y-56996355D01*
X120384166Y-57796355D02*
X119927023Y-57796355D01*
X120155595Y-57796355D02*
X120155595Y-56996355D01*
X120155595Y-56996355D02*
X120079404Y-57110640D01*
X120079404Y-57110640D02*
X120003214Y-57186831D01*
X120003214Y-57186831D02*
X119927023Y-57224926D01*
X121146071Y-57796355D02*
X120688928Y-57796355D01*
X120917500Y-57796355D02*
X120917500Y-56996355D01*
X120917500Y-56996355D02*
X120841309Y-57110640D01*
X120841309Y-57110640D02*
X120765119Y-57186831D01*
X120765119Y-57186831D02*
X120688928Y-57224926D01*
X107733333Y-30563855D02*
X107733333Y-31135283D01*
X107733333Y-31135283D02*
X107695238Y-31249569D01*
X107695238Y-31249569D02*
X107619047Y-31325760D01*
X107619047Y-31325760D02*
X107504762Y-31363855D01*
X107504762Y-31363855D02*
X107428571Y-31363855D01*
X108533333Y-31363855D02*
X108076190Y-31363855D01*
X108304762Y-31363855D02*
X108304762Y-30563855D01*
X108304762Y-30563855D02*
X108228571Y-30678140D01*
X108228571Y-30678140D02*
X108152381Y-30754331D01*
X108152381Y-30754331D02*
X108076190Y-30792426D01*
X71007976Y-43996355D02*
X71007976Y-44643974D01*
X71007976Y-44643974D02*
X71046071Y-44720164D01*
X71046071Y-44720164D02*
X71084166Y-44758260D01*
X71084166Y-44758260D02*
X71160357Y-44796355D01*
X71160357Y-44796355D02*
X71312738Y-44796355D01*
X71312738Y-44796355D02*
X71388928Y-44758260D01*
X71388928Y-44758260D02*
X71427023Y-44720164D01*
X71427023Y-44720164D02*
X71465119Y-44643974D01*
X71465119Y-44643974D02*
X71465119Y-43996355D01*
X71960356Y-44339212D02*
X71884166Y-44301117D01*
X71884166Y-44301117D02*
X71846071Y-44263021D01*
X71846071Y-44263021D02*
X71807975Y-44186831D01*
X71807975Y-44186831D02*
X71807975Y-44148736D01*
X71807975Y-44148736D02*
X71846071Y-44072545D01*
X71846071Y-44072545D02*
X71884166Y-44034450D01*
X71884166Y-44034450D02*
X71960356Y-43996355D01*
X71960356Y-43996355D02*
X72112737Y-43996355D01*
X72112737Y-43996355D02*
X72188928Y-44034450D01*
X72188928Y-44034450D02*
X72227023Y-44072545D01*
X72227023Y-44072545D02*
X72265118Y-44148736D01*
X72265118Y-44148736D02*
X72265118Y-44186831D01*
X72265118Y-44186831D02*
X72227023Y-44263021D01*
X72227023Y-44263021D02*
X72188928Y-44301117D01*
X72188928Y-44301117D02*
X72112737Y-44339212D01*
X72112737Y-44339212D02*
X71960356Y-44339212D01*
X71960356Y-44339212D02*
X71884166Y-44377307D01*
X71884166Y-44377307D02*
X71846071Y-44415402D01*
X71846071Y-44415402D02*
X71807975Y-44491593D01*
X71807975Y-44491593D02*
X71807975Y-44643974D01*
X71807975Y-44643974D02*
X71846071Y-44720164D01*
X71846071Y-44720164D02*
X71884166Y-44758260D01*
X71884166Y-44758260D02*
X71960356Y-44796355D01*
X71960356Y-44796355D02*
X72112737Y-44796355D01*
X72112737Y-44796355D02*
X72188928Y-44758260D01*
X72188928Y-44758260D02*
X72227023Y-44720164D01*
X72227023Y-44720164D02*
X72265118Y-44643974D01*
X72265118Y-44643974D02*
X72265118Y-44491593D01*
X72265118Y-44491593D02*
X72227023Y-44415402D01*
X72227023Y-44415402D02*
X72188928Y-44377307D01*
X72188928Y-44377307D02*
X72112737Y-44339212D01*
X151756420Y-55614800D02*
X152037580Y-55614800D01*
X151756420Y-56634800D02*
X152037580Y-56634800D01*
X61762742Y-55442600D02*
X62237258Y-55442600D01*
X61762742Y-56487600D02*
X62237258Y-56487600D01*
X159530342Y-116409400D02*
X160004858Y-116409400D01*
X159530342Y-117454400D02*
X160004858Y-117454400D01*
D11*
X158300000Y-114600000D02*
X158300000Y-115400000D01*
X158300000Y-115400000D02*
X158600000Y-115700000D01*
X158600000Y-114300000D02*
X158300000Y-114600000D01*
X158600000Y-115700000D02*
X159700000Y-115700000D01*
X159700000Y-114300000D02*
X158600000Y-114300000D01*
X160090000Y-114600000D02*
X160090000Y-115380000D01*
X160090000Y-115000000D02*
X159880000Y-115000000D01*
X160200000Y-114300000D02*
X161470000Y-114300000D01*
X161470000Y-114300000D02*
X161470000Y-115700000D01*
X161470000Y-115700000D02*
X160200000Y-115700000D01*
D14*
X160850000Y-114600000D02*
G75*
G02*
X160750000Y-114600000I-50000J0D01*
G01*
X160750000Y-114600000D02*
G75*
G02*
X160850000Y-114600000I50000J0D01*
G01*
D12*
X161727500Y-53947258D02*
X161727500Y-53472742D01*
X162772500Y-53947258D02*
X162772500Y-53472742D01*
X103727500Y-53947258D02*
X103727500Y-53472742D01*
X104772500Y-53947258D02*
X104772500Y-53472742D01*
X62740000Y-46340580D02*
X62740000Y-46059420D01*
X63760000Y-46340580D02*
X63760000Y-46059420D01*
X128671620Y-62280000D02*
X128952780Y-62280000D01*
X128671620Y-63300000D02*
X128952780Y-63300000D01*
D10*
X113670000Y-47380000D02*
X126330000Y-47380000D01*
X113670000Y-52620000D02*
X113670000Y-47380000D01*
X126330000Y-47380000D02*
X126330000Y-52620000D01*
X126330000Y-52620000D02*
X113670000Y-52620000D01*
D15*
X125900000Y-48130000D02*
G75*
G02*
X125600000Y-48130000I-150000J0D01*
G01*
X125600000Y-48130000D02*
G75*
G02*
X125900000Y-48130000I150000J0D01*
G01*
D16*
X126280000Y-45950000D02*
G75*
G02*
X126220000Y-45950000I-30000J0D01*
G01*
X126220000Y-45950000D02*
G75*
G02*
X126280000Y-45950000I30000J0D01*
G01*
D15*
X126490000Y-46290000D02*
G75*
G02*
X126190000Y-46290000I-150000J0D01*
G01*
X126190000Y-46290000D02*
G75*
G02*
X126490000Y-46290000I150000J0D01*
G01*
D12*
X100177242Y-70483700D02*
X100651758Y-70483700D01*
X100177242Y-71528700D02*
X100651758Y-71528700D01*
X80171620Y-62280000D02*
X80452780Y-62280000D01*
X80171620Y-63300000D02*
X80452780Y-63300000D01*
X89299000Y-72426000D02*
X130701000Y-72426000D01*
X130701000Y-113574000D01*
X89299000Y-113574000D01*
X89299000Y-72426000D01*
X127740000Y-46430580D02*
X127740000Y-46149420D01*
X128760000Y-46430580D02*
X128760000Y-46149420D01*
D11*
X148450000Y-82900000D02*
X148450000Y-81100000D01*
X151550000Y-82900000D02*
X151550000Y-81100000D01*
D16*
X151480000Y-80600000D02*
G75*
G02*
X151420000Y-80600000I-30000J0D01*
G01*
X151420000Y-80600000D02*
G75*
G02*
X151480000Y-80600000I30000J0D01*
G01*
D11*
X151770000Y-80600000D02*
G75*
G02*
X151530000Y-80600000I-120000J0D01*
G01*
X151530000Y-80600000D02*
G75*
G02*
X151770000Y-80600000I120000J0D01*
G01*
D12*
X151938748Y-84780100D02*
X152461252Y-84780100D01*
X151938748Y-86250100D02*
X152461252Y-86250100D01*
X124695648Y-114649700D02*
X125218152Y-114649700D01*
X124695648Y-116119700D02*
X125218152Y-116119700D01*
X121198500Y-117004358D02*
X121198500Y-116529842D01*
X122243500Y-117004358D02*
X122243500Y-116529842D01*
D11*
X48700000Y-53100000D02*
X48700000Y-46900000D01*
X48870000Y-46900000D02*
X48700000Y-46900000D01*
X48870000Y-53100000D02*
X48700000Y-53100000D01*
X61300000Y-46900000D02*
X61130000Y-46900000D01*
X61300000Y-46900000D02*
X61300000Y-49350000D01*
X61300000Y-53100000D02*
X61130000Y-53100000D01*
X61300000Y-53100000D02*
X61300000Y-50650000D01*
X61291832Y-50649949D02*
G75*
G02*
X61300000Y-49350000I8168J649949D01*
G01*
D16*
X61280000Y-45950000D02*
G75*
G02*
X61220000Y-45950000I-30000J0D01*
G01*
X61220000Y-45950000D02*
G75*
G02*
X61280000Y-45950000I30000J0D01*
G01*
D11*
X61480000Y-46190000D02*
G75*
G02*
X61220000Y-46190000I-130000J0D01*
G01*
X61220000Y-46190000D02*
G75*
G02*
X61480000Y-46190000I130000J0D01*
G01*
D12*
X62727500Y-42107158D02*
X62727500Y-41632642D01*
X63772500Y-42107158D02*
X63772500Y-41632642D01*
X79240000Y-59430580D02*
X79240000Y-59149420D01*
X80260000Y-59430580D02*
X80260000Y-59149420D01*
D10*
X65170000Y-60380000D02*
X77830000Y-60380000D01*
X65170000Y-65620000D02*
X65170000Y-60380000D01*
X77830000Y-60380000D02*
X77830000Y-65620000D01*
X77830000Y-65620000D02*
X65170000Y-65620000D01*
D15*
X77400000Y-61130000D02*
G75*
G02*
X77100000Y-61130000I-150000J0D01*
G01*
X77100000Y-61130000D02*
G75*
G02*
X77400000Y-61130000I150000J0D01*
G01*
D16*
X77780000Y-58950000D02*
G75*
G02*
X77720000Y-58950000I-30000J0D01*
G01*
X77720000Y-58950000D02*
G75*
G02*
X77780000Y-58950000I30000J0D01*
G01*
D15*
X77990000Y-59290000D02*
G75*
G02*
X77690000Y-59290000I-150000J0D01*
G01*
X77690000Y-59290000D02*
G75*
G02*
X77990000Y-59290000I150000J0D01*
G01*
D12*
X148701000Y-86485058D02*
X148701000Y-86010542D01*
X149746000Y-86485058D02*
X149746000Y-86010542D01*
X152940000Y-80790580D02*
X152940000Y-80509420D01*
X153960000Y-80790580D02*
X153960000Y-80509420D01*
X115287842Y-114862200D02*
X115762358Y-114862200D01*
X115287842Y-115907200D02*
X115762358Y-115907200D01*
X62543300Y-51643880D02*
X62543300Y-51362720D01*
X63563300Y-51643880D02*
X63563300Y-51362720D01*
D10*
X147670000Y-47380000D02*
X160330000Y-47380000D01*
X147670000Y-52620000D02*
X147670000Y-47380000D01*
X160330000Y-47380000D02*
X160330000Y-52620000D01*
X160330000Y-52620000D02*
X147670000Y-52620000D01*
D15*
X159900000Y-48130000D02*
G75*
G02*
X159600000Y-48130000I-150000J0D01*
G01*
X159600000Y-48130000D02*
G75*
G02*
X159900000Y-48130000I150000J0D01*
G01*
D16*
X160280000Y-45950000D02*
G75*
G02*
X160220000Y-45950000I-30000J0D01*
G01*
X160220000Y-45950000D02*
G75*
G02*
X160280000Y-45950000I30000J0D01*
G01*
D15*
X160490000Y-46290000D02*
G75*
G02*
X160190000Y-46290000I-150000J0D01*
G01*
X160190000Y-46290000D02*
G75*
G02*
X160490000Y-46290000I150000J0D01*
G01*
D12*
X128671620Y-49280000D02*
X128952780Y-49280000D01*
X128671620Y-50300000D02*
X128952780Y-50300000D01*
X104671620Y-49280000D02*
X104952780Y-49280000D01*
X104671620Y-50300000D02*
X104952780Y-50300000D01*
D10*
X89670000Y-47380000D02*
X102330000Y-47380000D01*
X89670000Y-52620000D02*
X89670000Y-47380000D01*
X102330000Y-47380000D02*
X102330000Y-52620000D01*
X102330000Y-52620000D02*
X89670000Y-52620000D01*
D15*
X101900000Y-48130000D02*
G75*
G02*
X101600000Y-48130000I-150000J0D01*
G01*
X101600000Y-48130000D02*
G75*
G02*
X101900000Y-48130000I150000J0D01*
G01*
D16*
X102280000Y-45950000D02*
G75*
G02*
X102220000Y-45950000I-30000J0D01*
G01*
X102220000Y-45950000D02*
G75*
G02*
X102280000Y-45950000I30000J0D01*
G01*
D15*
X102490000Y-46290000D02*
G75*
G02*
X102190000Y-46290000I-150000J0D01*
G01*
X102190000Y-46290000D02*
G75*
G02*
X102490000Y-46290000I150000J0D01*
G01*
D12*
X118733742Y-116441500D02*
X119208258Y-116441500D01*
X118733742Y-117486500D02*
X119208258Y-117486500D01*
X94524642Y-69492400D02*
X94999158Y-69492400D01*
X94524642Y-70537400D02*
X94999158Y-70537400D01*
D10*
X113670000Y-60380000D02*
X126330000Y-60380000D01*
X113670000Y-65620000D02*
X113670000Y-60380000D01*
X126330000Y-60380000D02*
X126330000Y-65620000D01*
X126330000Y-65620000D02*
X113670000Y-65620000D01*
D15*
X125900000Y-61130000D02*
G75*
G02*
X125600000Y-61130000I-150000J0D01*
G01*
X125600000Y-61130000D02*
G75*
G02*
X125900000Y-61130000I150000J0D01*
G01*
D16*
X126280000Y-58950000D02*
G75*
G02*
X126220000Y-58950000I-30000J0D01*
G01*
X126220000Y-58950000D02*
G75*
G02*
X126280000Y-58950000I30000J0D01*
G01*
D15*
X126490000Y-59290000D02*
G75*
G02*
X126190000Y-59290000I-150000J0D01*
G01*
X126190000Y-59290000D02*
G75*
G02*
X126490000Y-59290000I150000J0D01*
G01*
D12*
X127740000Y-59430580D02*
X127740000Y-59149420D01*
X128760000Y-59430580D02*
X128760000Y-59149420D01*
X107293348Y-40282000D02*
X107815852Y-40282000D01*
X107293348Y-41752000D02*
X107815852Y-41752000D01*
X80171620Y-49280000D02*
X80452780Y-49280000D01*
X80171620Y-50300000D02*
X80452780Y-50300000D01*
X118733742Y-114481500D02*
X119208258Y-114481500D01*
X118733742Y-115526500D02*
X119208258Y-115526500D01*
X28500000Y-23380000D02*
X187500000Y-23380000D01*
X187500000Y-38619999D01*
X28500000Y-38619999D01*
X28500000Y-23380000D01*
D10*
X65170000Y-47380000D02*
X77830000Y-47380000D01*
X65170000Y-52620000D02*
X65170000Y-47380000D01*
X77830000Y-47380000D02*
X77830000Y-52620000D01*
X77830000Y-52620000D02*
X65170000Y-52620000D01*
D15*
X77400000Y-48130000D02*
G75*
G02*
X77100000Y-48130000I-150000J0D01*
G01*
X77100000Y-48130000D02*
G75*
G02*
X77400000Y-48130000I150000J0D01*
G01*
D16*
X77780000Y-45950000D02*
G75*
G02*
X77720000Y-45950000I-30000J0D01*
G01*
X77720000Y-45950000D02*
G75*
G02*
X77780000Y-45950000I30000J0D01*
G01*
D15*
X77990000Y-46290000D02*
G75*
G02*
X77690000Y-46290000I-150000J0D01*
G01*
X77690000Y-46290000D02*
G75*
G02*
X77990000Y-46290000I150000J0D01*
G01*
D12*
X79240000Y-46430580D02*
X79240000Y-46149420D01*
X80260000Y-46430580D02*
X80260000Y-46149420D01*
X103493742Y-70421500D02*
X103968258Y-70421500D01*
X103493742Y-71466500D02*
X103968258Y-71466500D01*
X103740000Y-46430580D02*
X103740000Y-46149420D01*
X104760000Y-46430580D02*
X104760000Y-46149420D01*
X149438748Y-77749900D02*
X149961252Y-77749900D01*
X149438748Y-79219900D02*
X149961252Y-79219900D01*
X96918500Y-70186058D02*
X96918500Y-69711542D01*
X97963500Y-70186058D02*
X97963500Y-69711542D01*
X148012742Y-55687500D02*
X148487258Y-55687500D01*
X148012742Y-56732500D02*
X148487258Y-56732500D01*
X161740000Y-46430580D02*
X161740000Y-46149420D01*
X162760000Y-46430580D02*
X162760000Y-46149420D01*
%LPC*%
D17*
X24000000Y-116000000D03*
D18*
X151122000Y-56124800D03*
X152672000Y-56124800D03*
D19*
X61175000Y-55965100D03*
X62825000Y-55965100D03*
X158942600Y-116931900D03*
X160592600Y-116931900D03*
D20*
X160750000Y-115000000D03*
X159250000Y-115000000D03*
D21*
X162250000Y-54535000D03*
X162250000Y-52885000D03*
X104250000Y-54535000D03*
X104250000Y-52885000D03*
D22*
X63250000Y-46975000D03*
X63250000Y-45425000D03*
D18*
X128037200Y-62790000D03*
X129587200Y-62790000D03*
D23*
X125750000Y-46290000D03*
X125250000Y-46290000D03*
X124750000Y-46290000D03*
X124250000Y-46290000D03*
X123750000Y-46290000D03*
X123250000Y-46290000D03*
X122750000Y-46290000D03*
X122250000Y-46290000D03*
X121750000Y-46290000D03*
X121250000Y-46290000D03*
X120750000Y-46290000D03*
X120250000Y-46290000D03*
X119750000Y-46290000D03*
X119250000Y-46290000D03*
X118750000Y-46290000D03*
X118250000Y-46290000D03*
X117750000Y-46290000D03*
X117250000Y-46290000D03*
X116750000Y-46290000D03*
X116250000Y-46290000D03*
X115750000Y-46290000D03*
X115250000Y-46290000D03*
X114750000Y-46290000D03*
X114250000Y-46290000D03*
X114250000Y-53710000D03*
X114750000Y-53710000D03*
X115250000Y-53710000D03*
X115750000Y-53710000D03*
X116250000Y-53710000D03*
X116750000Y-53710000D03*
X117250000Y-53710000D03*
X117750000Y-53710000D03*
X118250000Y-53710000D03*
X118750000Y-53710000D03*
X119250000Y-53710000D03*
X119750000Y-53710000D03*
X120250000Y-53710000D03*
X120750000Y-53710000D03*
X121250000Y-53710000D03*
X121750000Y-53710000D03*
X122250000Y-53710000D03*
X122750000Y-53710000D03*
X123250000Y-53710000D03*
X123750000Y-53710000D03*
X124250000Y-53710000D03*
X124750000Y-53710000D03*
X125250000Y-53710000D03*
X125750000Y-53710000D03*
D19*
X99589500Y-71006200D03*
X101239500Y-71006200D03*
D18*
X79537200Y-62790000D03*
X81087200Y-62790000D03*
D24*
X129131000Y-76444000D03*
D25*
X126591000Y-76444000D03*
D24*
X124051000Y-76444000D03*
X121511000Y-76444000D03*
X118971000Y-76444000D03*
X116431000Y-76444000D03*
X113891000Y-76444000D03*
X111350999Y-76444000D03*
X108811000Y-76444000D03*
X106271001Y-76444000D03*
X103731001Y-76444000D03*
X101191000Y-76444000D03*
X98651001Y-76444000D03*
X96111000Y-76444000D03*
X93571000Y-76444000D03*
X129131000Y-73904000D03*
D25*
X126591000Y-73904000D03*
D24*
X124051000Y-73904000D03*
X121511000Y-73904000D03*
X118971000Y-73904000D03*
X116431000Y-73904000D03*
X113891000Y-73904000D03*
X111350999Y-73904000D03*
X108811000Y-73904000D03*
X106271001Y-73904000D03*
X103731001Y-73904000D03*
X101191000Y-73904000D03*
X98651001Y-73904000D03*
X96111000Y-73904000D03*
X93571000Y-73904000D03*
D25*
X129131000Y-109464000D03*
D24*
X126591000Y-109464000D03*
X124051000Y-109464000D03*
X121511000Y-109464000D03*
X118971000Y-109464000D03*
X116431000Y-109464000D03*
X113891000Y-109464000D03*
X111350999Y-109464000D03*
X108811000Y-109464000D03*
X106271001Y-109464000D03*
X103731001Y-109464000D03*
X101191000Y-109464000D03*
X98651001Y-109464000D03*
X96111000Y-109464000D03*
X93571000Y-109464000D03*
D25*
X129131000Y-112004000D03*
X126591000Y-112004000D03*
D24*
X124051000Y-112004000D03*
X121511000Y-112004000D03*
X118971000Y-112004000D03*
X116431000Y-112004000D03*
X113891000Y-112004000D03*
X111350999Y-112004000D03*
X108811000Y-112004000D03*
X106271001Y-112004000D03*
X103731001Y-112004000D03*
X101191000Y-112004000D03*
X98651001Y-112004000D03*
X96111000Y-112004000D03*
X93571000Y-112004000D03*
D22*
X128250000Y-47065000D03*
X128250000Y-45515000D03*
D26*
X150950000Y-80650000D03*
X150000000Y-80650000D03*
X149050000Y-80650000D03*
X149050000Y-83350000D03*
X150000000Y-83350000D03*
X150950000Y-83350000D03*
D27*
X151250000Y-85515100D03*
X153150000Y-85515100D03*
X124006900Y-115384700D03*
X125906900Y-115384700D03*
D17*
X192000000Y-116000000D03*
D24*
X146818000Y-85182000D03*
D21*
X121721000Y-117592100D03*
X121721000Y-115942100D03*
D28*
X60750000Y-46200000D03*
X60250000Y-46200000D03*
X59750000Y-46200000D03*
X59250000Y-46200000D03*
X58750000Y-46200000D03*
X58250000Y-46200000D03*
X57750000Y-46200000D03*
X57250000Y-46200000D03*
X56750000Y-46200000D03*
X56250000Y-46200000D03*
X55750000Y-46200000D03*
X55250000Y-46200000D03*
X54750000Y-46200000D03*
X54250000Y-46200000D03*
X53750000Y-46200000D03*
X53250000Y-46200000D03*
X52750000Y-46200000D03*
X52250000Y-46200000D03*
X51750000Y-46200000D03*
X51250000Y-46200000D03*
X50750000Y-46200000D03*
X50250000Y-46200000D03*
X49750000Y-46200000D03*
X49250000Y-46200000D03*
X49250000Y-53800000D03*
X49750000Y-53800000D03*
X50250000Y-53800000D03*
X50750000Y-53800000D03*
X51250000Y-53800000D03*
X51750000Y-53800000D03*
X52250000Y-53800000D03*
X52750000Y-53800000D03*
X53250000Y-53800000D03*
X53750000Y-53800000D03*
X54250000Y-53800000D03*
X54750000Y-53800000D03*
X55250000Y-53800000D03*
X55750000Y-53800000D03*
X56250000Y-53800000D03*
X56750000Y-53800000D03*
X57250000Y-53800000D03*
X57750000Y-53800000D03*
X58250000Y-53800000D03*
X58750000Y-53800000D03*
X59250000Y-53800000D03*
X59750000Y-53800000D03*
X60250000Y-53800000D03*
X60750000Y-53800000D03*
D21*
X63250000Y-42694900D03*
X63250000Y-41044900D03*
D22*
X79750000Y-60065000D03*
X79750000Y-58515000D03*
D23*
X77250000Y-59290000D03*
X76750000Y-59290000D03*
X76250000Y-59290000D03*
X75750000Y-59290000D03*
X75250000Y-59290000D03*
X74750000Y-59290000D03*
X74250000Y-59290000D03*
X73750000Y-59290000D03*
X73250000Y-59290000D03*
X72750000Y-59290000D03*
X72250000Y-59290000D03*
X71750000Y-59290000D03*
X71250000Y-59290000D03*
X70750000Y-59290000D03*
X70250000Y-59290000D03*
X69750000Y-59290000D03*
X69250000Y-59290000D03*
X68750000Y-59290000D03*
X68250000Y-59290000D03*
X67750000Y-59290000D03*
X67250000Y-59290000D03*
X66750000Y-59290000D03*
X66250000Y-59290000D03*
X65750000Y-59290000D03*
X65750000Y-66710000D03*
X66250000Y-66710000D03*
X66750000Y-66710000D03*
X67250000Y-66710000D03*
X67750000Y-66710000D03*
X68250000Y-66710000D03*
X68750000Y-66710000D03*
X69250000Y-66710000D03*
X69750000Y-66710000D03*
X70250000Y-66710000D03*
X70750000Y-66710000D03*
X71250000Y-66710000D03*
X71750000Y-66710000D03*
X72250000Y-66710000D03*
X72750000Y-66710000D03*
X73250000Y-66710000D03*
X73750000Y-66710000D03*
X74250000Y-66710000D03*
X74750000Y-66710000D03*
X75250000Y-66710000D03*
X75750000Y-66710000D03*
X76250000Y-66710000D03*
X76750000Y-66710000D03*
X77250000Y-66710000D03*
D17*
X192000000Y-42000000D03*
D21*
X149223500Y-87072800D03*
X149223500Y-85422800D03*
D22*
X153450000Y-81425000D03*
X153450000Y-79875000D03*
D19*
X114700100Y-115384700D03*
X116350100Y-115384700D03*
D22*
X63053300Y-52278300D03*
X63053300Y-50728300D03*
D23*
X159750000Y-46290000D03*
X159250000Y-46290000D03*
X158750000Y-46290000D03*
X158250000Y-46290000D03*
X157750000Y-46290000D03*
X157250000Y-46290000D03*
X156750000Y-46290000D03*
X156250000Y-46290000D03*
X155750000Y-46290000D03*
X155250000Y-46290000D03*
X154750000Y-46290000D03*
X154250000Y-46290000D03*
X153750000Y-46290000D03*
X153250000Y-46290000D03*
X152750000Y-46290000D03*
X152250000Y-46290000D03*
X151750000Y-46290000D03*
X151250000Y-46290000D03*
X150750000Y-46290000D03*
X150250000Y-46290000D03*
X149750000Y-46290000D03*
X149250000Y-46290000D03*
X148750000Y-46290000D03*
X148250000Y-46290000D03*
X148250000Y-53710000D03*
X148750000Y-53710000D03*
X149250000Y-53710000D03*
X149750000Y-53710000D03*
X150250000Y-53710000D03*
X150750000Y-53710000D03*
X151250000Y-53710000D03*
X151750000Y-53710000D03*
X152250000Y-53710000D03*
X152750000Y-53710000D03*
X153250000Y-53710000D03*
X153750000Y-53710000D03*
X154250000Y-53710000D03*
X154750000Y-53710000D03*
X155250000Y-53710000D03*
X155750000Y-53710000D03*
X156250000Y-53710000D03*
X156750000Y-53710000D03*
X157250000Y-53710000D03*
X157750000Y-53710000D03*
X158250000Y-53710000D03*
X158750000Y-53710000D03*
X159250000Y-53710000D03*
X159750000Y-53710000D03*
D18*
X128037200Y-49790000D03*
X129587200Y-49790000D03*
X104037200Y-49790000D03*
X105587200Y-49790000D03*
D23*
X101750000Y-46290000D03*
X101250000Y-46290000D03*
X100750000Y-46290000D03*
X100250000Y-46290000D03*
X99750000Y-46290000D03*
X99250000Y-46290000D03*
X98750000Y-46290000D03*
X98250000Y-46290000D03*
X97750000Y-46290000D03*
X97250000Y-46290000D03*
X96750000Y-46290000D03*
X96250000Y-46290000D03*
X95750000Y-46290000D03*
X95250000Y-46290000D03*
X94750000Y-46290000D03*
X94250000Y-46290000D03*
X93750000Y-46290000D03*
X93250000Y-46290000D03*
X92750000Y-46290000D03*
X92250000Y-46290000D03*
X91750000Y-46290000D03*
X91250000Y-46290000D03*
X90750000Y-46290000D03*
X90250000Y-46290000D03*
X90250000Y-53710000D03*
X90750000Y-53710000D03*
X91250000Y-53710000D03*
X91750000Y-53710000D03*
X92250000Y-53710000D03*
X92750000Y-53710000D03*
X93250000Y-53710000D03*
X93750000Y-53710000D03*
X94250000Y-53710000D03*
X94750000Y-53710000D03*
X95250000Y-53710000D03*
X95750000Y-53710000D03*
X96250000Y-53710000D03*
X96750000Y-53710000D03*
X97250000Y-53710000D03*
X97750000Y-53710000D03*
X98250000Y-53710000D03*
X98750000Y-53710000D03*
X99250000Y-53710000D03*
X99750000Y-53710000D03*
X100250000Y-53710000D03*
X100750000Y-53710000D03*
X101250000Y-53710000D03*
X101750000Y-53710000D03*
D24*
X155500000Y-82000000D03*
D19*
X118146000Y-116964000D03*
X119796000Y-116964000D03*
X93936900Y-70014900D03*
X95586900Y-70014900D03*
D23*
X125750000Y-59290000D03*
X125250000Y-59290000D03*
X124750000Y-59290000D03*
X124250000Y-59290000D03*
X123750000Y-59290000D03*
X123250000Y-59290000D03*
X122750000Y-59290000D03*
X122250000Y-59290000D03*
X121750000Y-59290000D03*
X121250000Y-59290000D03*
X120750000Y-59290000D03*
X120250000Y-59290000D03*
X119750000Y-59290000D03*
X119250000Y-59290000D03*
X118750000Y-59290000D03*
X118250000Y-59290000D03*
X117750000Y-59290000D03*
X117250000Y-59290000D03*
X116750000Y-59290000D03*
X116250000Y-59290000D03*
X115750000Y-59290000D03*
X115250000Y-59290000D03*
X114750000Y-59290000D03*
X114250000Y-59290000D03*
X114250000Y-66710000D03*
X114750000Y-66710000D03*
X115250000Y-66710000D03*
X115750000Y-66710000D03*
X116250000Y-66710000D03*
X116750000Y-66710000D03*
X117250000Y-66710000D03*
X117750000Y-66710000D03*
X118250000Y-66710000D03*
X118750000Y-66710000D03*
X119250000Y-66710000D03*
X119750000Y-66710000D03*
X120250000Y-66710000D03*
X120750000Y-66710000D03*
X121250000Y-66710000D03*
X121750000Y-66710000D03*
X122250000Y-66710000D03*
X122750000Y-66710000D03*
X123250000Y-66710000D03*
X123750000Y-66710000D03*
X124250000Y-66710000D03*
X124750000Y-66710000D03*
X125250000Y-66710000D03*
X125750000Y-66710000D03*
D22*
X128250000Y-60065000D03*
X128250000Y-58515000D03*
D27*
X106604600Y-41017000D03*
X108504600Y-41017000D03*
D18*
X79537200Y-49790000D03*
X81087200Y-49790000D03*
D19*
X118146000Y-115004000D03*
X119796000Y-115004000D03*
D25*
X33070000Y-28460000D03*
D24*
X35610000Y-28460000D03*
X38150000Y-28460000D03*
X40690000Y-28460000D03*
X43230001Y-28460000D03*
X45770000Y-28460000D03*
X48310000Y-28460000D03*
X50850000Y-28460000D03*
X53390000Y-28460000D03*
X55930000Y-28460000D03*
X58470000Y-28460000D03*
X61010000Y-28460000D03*
X63550000Y-28460000D03*
X66090000Y-28460000D03*
X68630000Y-28460000D03*
X71170000Y-28460000D03*
X73710000Y-28460000D03*
X76250000Y-28460000D03*
X78790000Y-28460000D03*
X81330000Y-28460000D03*
X83870000Y-28460000D03*
X86410000Y-28460000D03*
X88950000Y-28460000D03*
X91490000Y-28460000D03*
X94030000Y-28460000D03*
X96570000Y-28460000D03*
X99110000Y-28460000D03*
X101650000Y-28460000D03*
X104190000Y-28460000D03*
X106730000Y-28460000D03*
X109270000Y-28460000D03*
X111810000Y-28460000D03*
X114350000Y-28460000D03*
X116890000Y-28460000D03*
X119430000Y-28460000D03*
X121970000Y-28460000D03*
X124510000Y-28460000D03*
X127050000Y-28460000D03*
X129590000Y-28460000D03*
X132130000Y-28460000D03*
X134670000Y-28460000D03*
X137210000Y-28460000D03*
X139750000Y-28460000D03*
X142290000Y-28460000D03*
X144830000Y-28460000D03*
X147370000Y-28460000D03*
X149910000Y-28460000D03*
X152450000Y-28460000D03*
X154990000Y-28460000D03*
X157530000Y-28460000D03*
X160070000Y-28460000D03*
X162610000Y-28460000D03*
X165150000Y-28460000D03*
X167690000Y-28460000D03*
X170230000Y-28460000D03*
X172769999Y-28460000D03*
X175310000Y-28460000D03*
X177850000Y-28460000D03*
X180390000Y-28460000D03*
X182930000Y-28460000D03*
X33070000Y-33540000D03*
X35610000Y-33540000D03*
X38150000Y-33540000D03*
X40690000Y-33540000D03*
X43230001Y-33540000D03*
X45770000Y-33540000D03*
X48310000Y-33540000D03*
X50850000Y-33540000D03*
X53390000Y-33540000D03*
X55930000Y-33540000D03*
X58470000Y-33540000D03*
X61010000Y-33540000D03*
X63550000Y-33540000D03*
X66090000Y-33540000D03*
X68630000Y-33540000D03*
X71170000Y-33540000D03*
X73710000Y-33540000D03*
X76250000Y-33540000D03*
X78790000Y-33540000D03*
X81330000Y-33540000D03*
X83870000Y-33540000D03*
X86410000Y-33540000D03*
X88950000Y-33540000D03*
X91490000Y-33540000D03*
X94030000Y-33540000D03*
X96570000Y-33540000D03*
X99110000Y-33540000D03*
X101650000Y-33540000D03*
X104190000Y-33540000D03*
X106730000Y-33540000D03*
X109270000Y-33540000D03*
X111810000Y-33540000D03*
X114350000Y-33540000D03*
X116890000Y-33540000D03*
X119430000Y-33540000D03*
X121970000Y-33540000D03*
X124510000Y-33540000D03*
X127050000Y-33540000D03*
X129590000Y-33540000D03*
X132130000Y-33540000D03*
X134670000Y-33540000D03*
X137210000Y-33540000D03*
X139750000Y-33540000D03*
X142290000Y-33540000D03*
X144830000Y-33540000D03*
X147370000Y-33540000D03*
X149910000Y-33540000D03*
X152450000Y-33540000D03*
X154990000Y-33540000D03*
X157530000Y-33540000D03*
X160070000Y-33540000D03*
X162610000Y-33540000D03*
X165150000Y-33540000D03*
X167690000Y-33540000D03*
X170230000Y-33540000D03*
X172769999Y-33540000D03*
X175310000Y-33540000D03*
X177850000Y-33540000D03*
X180390000Y-33540000D03*
X182930000Y-33540000D03*
D23*
X77250000Y-46290000D03*
X76750000Y-46290000D03*
X76250000Y-46290000D03*
X75750000Y-46290000D03*
X75250000Y-46290000D03*
X74750000Y-46290000D03*
X74250000Y-46290000D03*
X73750000Y-46290000D03*
X73250000Y-46290000D03*
X72750000Y-46290000D03*
X72250000Y-46290000D03*
X71750000Y-46290000D03*
X71250000Y-46290000D03*
X70750000Y-46290000D03*
X70250000Y-46290000D03*
X69750000Y-46290000D03*
X69250000Y-46290000D03*
X68750000Y-46290000D03*
X68250000Y-46290000D03*
X67750000Y-46290000D03*
X67250000Y-46290000D03*
X66750000Y-46290000D03*
X66250000Y-46290000D03*
X65750000Y-46290000D03*
X65750000Y-53710000D03*
X66250000Y-53710000D03*
X66750000Y-53710000D03*
X67250000Y-53710000D03*
X67750000Y-53710000D03*
X68250000Y-53710000D03*
X68750000Y-53710000D03*
X69250000Y-53710000D03*
X69750000Y-53710000D03*
X70250000Y-53710000D03*
X70750000Y-53710000D03*
X71250000Y-53710000D03*
X71750000Y-53710000D03*
X72250000Y-53710000D03*
X72750000Y-53710000D03*
X73250000Y-53710000D03*
X73750000Y-53710000D03*
X74250000Y-53710000D03*
X74750000Y-53710000D03*
X75250000Y-53710000D03*
X75750000Y-53710000D03*
X76250000Y-53710000D03*
X76750000Y-53710000D03*
X77250000Y-53710000D03*
D22*
X79750000Y-47065000D03*
X79750000Y-45515000D03*
D19*
X102906000Y-70944000D03*
X104556000Y-70944000D03*
D22*
X104250000Y-47065000D03*
X104250000Y-45515000D03*
D24*
X123711000Y-117674400D03*
X146535900Y-80000000D03*
X146619300Y-82905900D03*
D17*
X24000000Y-42000000D03*
D27*
X148750000Y-78484900D03*
X150650000Y-78484900D03*
D21*
X97441000Y-70773800D03*
X97441000Y-69123800D03*
D19*
X147425000Y-56210000D03*
X149075000Y-56210000D03*
D22*
X162250000Y-47065000D03*
X162250000Y-45515000D03*
%LPD*%
M02*
