G04 #@! TF.GenerationSoftware,KiCad,Pcbnew,10.0.3*
G04 #@! TF.CreationDate,2026-10-01T18:26:25+02:00*
G04 #@! TF.ProjectId,neocart_progr_routed,6e656f63-6172-4745-9f70-726f67725f72,rev?*
G04 #@! TF.SameCoordinates,Original*
G04 #@! TF.FileFunction,Soldermask,Bot*
G04 #@! TF.FilePolarity,Negative*
%FSLAX46Y46*%
G04 Gerber Fmt 4.6, Leading zero omitted, Abs format (unit mm)*
G04 Created by KiCad (PCBNEW 10.0.3) date 2026-10-01 18:26:25*
%MOMM*%
%LPD*%
G01*
G04 APERTURE LIST*
%ADD10C,3.200000*%
%ADD11C,1.700000*%
%ADD12R,1.700000X1.700000*%
G04 APERTURE END LIST*
D10*
X24000000Y-116000000D03*
D11*
X129131000Y-76444000D03*
D12*
X126591000Y-76444000D03*
D11*
X124051000Y-76444000D03*
X121511000Y-76444000D03*
X118971000Y-76444000D03*
X116431000Y-76444000D03*
X113891000Y-76444000D03*
X111350999Y-76444000D03*
X108811000Y-76444000D03*
X106271001Y-76444000D03*
X103731001Y-76444000D03*
X101191000Y-76444000D03*
X98651001Y-76444000D03*
X96111000Y-76444000D03*
X93571000Y-76444000D03*
X129131000Y-73904000D03*
D12*
X126591000Y-73904000D03*
D11*
X124051000Y-73904000D03*
X121511000Y-73904000D03*
X118971000Y-73904000D03*
X116431000Y-73904000D03*
X113891000Y-73904000D03*
X111350999Y-73904000D03*
X108811000Y-73904000D03*
X106271001Y-73904000D03*
X103731001Y-73904000D03*
X101191000Y-73904000D03*
X98651001Y-73904000D03*
X96111000Y-73904000D03*
X93571000Y-73904000D03*
D12*
X129131000Y-109464000D03*
D11*
X126591000Y-109464000D03*
X124051000Y-109464000D03*
X121511000Y-109464000D03*
X118971000Y-109464000D03*
X116431000Y-109464000D03*
X113891000Y-109464000D03*
X111350999Y-109464000D03*
X108811000Y-109464000D03*
X106271001Y-109464000D03*
X103731001Y-109464000D03*
X101191000Y-109464000D03*
X98651001Y-109464000D03*
X96111000Y-109464000D03*
X93571000Y-109464000D03*
D12*
X129131000Y-112004000D03*
X126591000Y-112004000D03*
D11*
X124051000Y-112004000D03*
X121511000Y-112004000D03*
X118971000Y-112004000D03*
X116431000Y-112004000D03*
X113891000Y-112004000D03*
X111350999Y-112004000D03*
X108811000Y-112004000D03*
X106271001Y-112004000D03*
X103731001Y-112004000D03*
X101191000Y-112004000D03*
X98651001Y-112004000D03*
X96111000Y-112004000D03*
X93571000Y-112004000D03*
D10*
X192000000Y-116000000D03*
D11*
X146818000Y-85182000D03*
D10*
X192000000Y-42000000D03*
D11*
X155500000Y-82000000D03*
D12*
X33070000Y-28460000D03*
D11*
X35610000Y-28460000D03*
X38150000Y-28460000D03*
X40690000Y-28460000D03*
X43230001Y-28460000D03*
X45770000Y-28460000D03*
X48310000Y-28460000D03*
X50850000Y-28460000D03*
X53390000Y-28460000D03*
X55930000Y-28460000D03*
X58470000Y-28460000D03*
X61010000Y-28460000D03*
X63550000Y-28460000D03*
X66090000Y-28460000D03*
X68630000Y-28460000D03*
X71170000Y-28460000D03*
X73710000Y-28460000D03*
X76250000Y-28460000D03*
X78790000Y-28460000D03*
X81330000Y-28460000D03*
X83870000Y-28460000D03*
X86410000Y-28460000D03*
X88950000Y-28460000D03*
X91490000Y-28460000D03*
X94030000Y-28460000D03*
X96570000Y-28460000D03*
X99110000Y-28460000D03*
X101650000Y-28460000D03*
X104190000Y-28460000D03*
X106730000Y-28460000D03*
X109270000Y-28460000D03*
X111810000Y-28460000D03*
X114350000Y-28460000D03*
X116890000Y-28460000D03*
X119430000Y-28460000D03*
X121970000Y-28460000D03*
X124510000Y-28460000D03*
X127050000Y-28460000D03*
X129590000Y-28460000D03*
X132130000Y-28460000D03*
X134670000Y-28460000D03*
X137210000Y-28460000D03*
X139750000Y-28460000D03*
X142290000Y-28460000D03*
X144830000Y-28460000D03*
X147370000Y-28460000D03*
X149910000Y-28460000D03*
X152450000Y-28460000D03*
X154990000Y-28460000D03*
X157530000Y-28460000D03*
X160070000Y-28460000D03*
X162610000Y-28460000D03*
X165150000Y-28460000D03*
X167690000Y-28460000D03*
X170230000Y-28460000D03*
X172769999Y-28460000D03*
X175310000Y-28460000D03*
X177850000Y-28460000D03*
X180390000Y-28460000D03*
X182930000Y-28460000D03*
X33070000Y-33540000D03*
X35610000Y-33540000D03*
X38150000Y-33540000D03*
X40690000Y-33540000D03*
X43230001Y-33540000D03*
X45770000Y-33540000D03*
X48310000Y-33540000D03*
X50850000Y-33540000D03*
X53390000Y-33540000D03*
X55930000Y-33540000D03*
X58470000Y-33540000D03*
X61010000Y-33540000D03*
X63550000Y-33540000D03*
X66090000Y-33540000D03*
X68630000Y-33540000D03*
X71170000Y-33540000D03*
X73710000Y-33540000D03*
X76250000Y-33540000D03*
X78790000Y-33540000D03*
X81330000Y-33540000D03*
X83870000Y-33540000D03*
X86410000Y-33540000D03*
X88950000Y-33540000D03*
X91490000Y-33540000D03*
X94030000Y-33540000D03*
X96570000Y-33540000D03*
X99110000Y-33540000D03*
X101650000Y-33540000D03*
X104190000Y-33540000D03*
X106730000Y-33540000D03*
X109270000Y-33540000D03*
X111810000Y-33540000D03*
X114350000Y-33540000D03*
X116890000Y-33540000D03*
X119430000Y-33540000D03*
X121970000Y-33540000D03*
X124510000Y-33540000D03*
X127050000Y-33540000D03*
X129590000Y-33540000D03*
X132130000Y-33540000D03*
X134670000Y-33540000D03*
X137210000Y-33540000D03*
X139750000Y-33540000D03*
X142290000Y-33540000D03*
X144830000Y-33540000D03*
X147370000Y-33540000D03*
X149910000Y-33540000D03*
X152450000Y-33540000D03*
X154990000Y-33540000D03*
X157530000Y-33540000D03*
X160070000Y-33540000D03*
X162610000Y-33540000D03*
X165150000Y-33540000D03*
X167690000Y-33540000D03*
X170230000Y-33540000D03*
X172769999Y-33540000D03*
X175310000Y-33540000D03*
X177850000Y-33540000D03*
X180390000Y-33540000D03*
X182930000Y-33540000D03*
X123711000Y-117674400D03*
X146535900Y-80000000D03*
X146619300Y-82905900D03*
D10*
X24000000Y-42000000D03*
M02*
