%FSLAX46Y46*%
%MOMM*%
G04 Generated by PCB Engine 2026-04-27T22:55:47.820738*
%ADD10R,0.25X0.25*%
%ADD11R,0.600X1.000*%
D10*
X22500000Y17000000D02*
X22500000Y16000000D01*
D10*
X22500000Y22000000D02*
X22500000Y18000000D01*
D10*
X22500000Y18000000D02*
X23500000Y18000000D01*
D10*
X23500000Y18000000D02*
X23500000Y15500000D01*
D10*
X23500000Y15500000D02*
X32500000Y15500000D01*
D10*
X32500000Y15500000D02*
X32500000Y13000000D01*
D10*
X32500000Y13000000D02*
X33500000Y13000000D01*
D10*
X33500000Y13000000D02*
X33500000Y12500000D01*
D10*
X33500000Y12500000D02*
X34500000Y12500000D01*
D10*
X22500000Y27000000D02*
X22500000Y23000000D01*
D10*
X22500000Y23000000D02*
X23500000Y23000000D01*
D10*
X23500000Y23000000D02*
X23500000Y19000000D01*
D10*
X23500000Y19000000D02*
X24500000Y19000000D01*
D10*
X24500000Y19000000D02*
X24500000Y15500000D01*
D10*
X24500000Y15500000D02*
X31500000Y15500000D01*
D10*
X31500000Y15500000D02*
X31500000Y12000000D01*
D10*
X31500000Y12000000D02*
X32500000Y12000000D01*
D10*
X32500000Y12000000D02*
X32500000Y11500000D01*
D10*
X32500000Y11500000D02*
X39500000Y11500000D01*
D10*
X39500000Y11500000D02*
X39500000Y14500000D01*
D10*
X39500000Y14500000D02*
X40500000Y14500000D01*
D11*
M02*
