%TF.GenerationSoftware,KiCad,Pcbnew,9.0.8+dfsg-1*%
%TF.CreationDate,2026-04-27T10:51:39+02:00*%
%TF.ProjectId,neocart_fpga_prog,6e656f63-6172-4745-9f66-7067615f7072,rev?*%
%TF.SameCoordinates,Original*%
%TF.FileFunction,Legend,Top*%
%TF.FilePolarity,Positive*%
%FSLAX46Y46*%
G04 Gerber Fmt 4.6, Leading zero omitted, Abs format (unit mm)*
G04 Created by KiCad (PCBNEW 9.0.8+dfsg-1) date 2026-04-27 10:51:39*
%MOMM*%
%LPD*%
G01*
G04 APERTURE LIST*
%ADD10C,0.150000*%
%ADD11C,0.120000*%
G04 APERTURE END LIST*
D10*
X124833333Y-124284819D02*
X124500000Y-123808628D01*
X124261905Y-124284819D02*
X124261905Y-123284819D01*
X124261905Y-123284819D02*
X124642857Y-123284819D01*
X124642857Y-123284819D02*
X124738095Y-123332438D01*
X124738095Y-123332438D02*
X124785714Y-123380057D01*
X124785714Y-123380057D02*
X124833333Y-123475295D01*
X124833333Y-123475295D02*
X124833333Y-123618152D01*
X124833333Y-123618152D02*
X124785714Y-123713390D01*
X124785714Y-123713390D02*
X124738095Y-123761009D01*
X124738095Y-123761009D02*
X124642857Y-123808628D01*
X124642857Y-123808628D02*
X124261905Y-123808628D01*
X125690476Y-123284819D02*
X125500000Y-123284819D01*
X125500000Y-123284819D02*
X125404762Y-123332438D01*
X125404762Y-123332438D02*
X125357143Y-123380057D01*
X125357143Y-123380057D02*
X125261905Y-123522914D01*
X125261905Y-123522914D02*
X125214286Y-123713390D01*
X125214286Y-123713390D02*
X125214286Y-124094342D01*
X125214286Y-124094342D02*
X125261905Y-124189580D01*
X125261905Y-124189580D02*
X125309524Y-124237200D01*
X125309524Y-124237200D02*
X125404762Y-124284819D01*
X125404762Y-124284819D02*
X125595238Y-124284819D01*
X125595238Y-124284819D02*
X125690476Y-124237200D01*
X125690476Y-124237200D02*
X125738095Y-124189580D01*
X125738095Y-124189580D02*
X125785714Y-124094342D01*
X125785714Y-124094342D02*
X125785714Y-123856247D01*
X125785714Y-123856247D02*
X125738095Y-123761009D01*
X125738095Y-123761009D02*
X125690476Y-123713390D01*
X125690476Y-123713390D02*
X125595238Y-123665771D01*
X125595238Y-123665771D02*
X125404762Y-123665771D01*
X125404762Y-123665771D02*
X125309524Y-123713390D01*
X125309524Y-123713390D02*
X125261905Y-123761009D01*
X125261905Y-123761009D02*
X125214286Y-123856247D01*
X89357142Y-49199580D02*
X89309523Y-49247200D01*
X89309523Y-49247200D02*
X89166666Y-49294819D01*
X89166666Y-49294819D02*
X89071428Y-49294819D01*
X89071428Y-49294819D02*
X88928571Y-49247200D01*
X88928571Y-49247200D02*
X88833333Y-49151961D01*
X88833333Y-49151961D02*
X88785714Y-49056723D01*
X88785714Y-49056723D02*
X88738095Y-48866247D01*
X88738095Y-48866247D02*
X88738095Y-48723390D01*
X88738095Y-48723390D02*
X88785714Y-48532914D01*
X88785714Y-48532914D02*
X88833333Y-48437676D01*
X88833333Y-48437676D02*
X88928571Y-48342438D01*
X88928571Y-48342438D02*
X89071428Y-48294819D01*
X89071428Y-48294819D02*
X89166666Y-48294819D01*
X89166666Y-48294819D02*
X89309523Y-48342438D01*
X89309523Y-48342438D02*
X89357142Y-48390057D01*
X90309523Y-49294819D02*
X89738095Y-49294819D01*
X90023809Y-49294819D02*
X90023809Y-48294819D01*
X90023809Y-48294819D02*
X89928571Y-48437676D01*
X89928571Y-48437676D02*
X89833333Y-48532914D01*
X89833333Y-48532914D02*
X89738095Y-48580533D01*
X91166666Y-48294819D02*
X90976190Y-48294819D01*
X90976190Y-48294819D02*
X90880952Y-48342438D01*
X90880952Y-48342438D02*
X90833333Y-48390057D01*
X90833333Y-48390057D02*
X90738095Y-48532914D01*
X90738095Y-48532914D02*
X90690476Y-48723390D01*
X90690476Y-48723390D02*
X90690476Y-49104342D01*
X90690476Y-49104342D02*
X90738095Y-49199580D01*
X90738095Y-49199580D02*
X90785714Y-49247200D01*
X90785714Y-49247200D02*
X90880952Y-49294819D01*
X90880952Y-49294819D02*
X91071428Y-49294819D01*
X91071428Y-49294819D02*
X91166666Y-49247200D01*
X91166666Y-49247200D02*
X91214285Y-49199580D01*
X91214285Y-49199580D02*
X91261904Y-49104342D01*
X91261904Y-49104342D02*
X91261904Y-48866247D01*
X91261904Y-48866247D02*
X91214285Y-48771009D01*
X91214285Y-48771009D02*
X91166666Y-48723390D01*
X91166666Y-48723390D02*
X91071428Y-48675771D01*
X91071428Y-48675771D02*
X90880952Y-48675771D01*
X90880952Y-48675771D02*
X90785714Y-48723390D01*
X90785714Y-48723390D02*
X90738095Y-48771009D01*
X90738095Y-48771009D02*
X90690476Y-48866247D01*
X149357142Y-99199580D02*
X149309523Y-99247200D01*
X149309523Y-99247200D02*
X149166666Y-99294819D01*
X149166666Y-99294819D02*
X149071428Y-99294819D01*
X149071428Y-99294819D02*
X148928571Y-99247200D01*
X148928571Y-99247200D02*
X148833333Y-99151961D01*
X148833333Y-99151961D02*
X148785714Y-99056723D01*
X148785714Y-99056723D02*
X148738095Y-98866247D01*
X148738095Y-98866247D02*
X148738095Y-98723390D01*
X148738095Y-98723390D02*
X148785714Y-98532914D01*
X148785714Y-98532914D02*
X148833333Y-98437676D01*
X148833333Y-98437676D02*
X148928571Y-98342438D01*
X148928571Y-98342438D02*
X149071428Y-98294819D01*
X149071428Y-98294819D02*
X149166666Y-98294819D01*
X149166666Y-98294819D02*
X149309523Y-98342438D01*
X149309523Y-98342438D02*
X149357142Y-98390057D01*
X150309523Y-99294819D02*
X149738095Y-99294819D01*
X150023809Y-99294819D02*
X150023809Y-98294819D01*
X150023809Y-98294819D02*
X149928571Y-98437676D01*
X149928571Y-98437676D02*
X149833333Y-98532914D01*
X149833333Y-98532914D02*
X149738095Y-98580533D01*
X150642857Y-98294819D02*
X151261904Y-98294819D01*
X151261904Y-98294819D02*
X150928571Y-98675771D01*
X150928571Y-98675771D02*
X151071428Y-98675771D01*
X151071428Y-98675771D02*
X151166666Y-98723390D01*
X151166666Y-98723390D02*
X151214285Y-98771009D01*
X151214285Y-98771009D02*
X151261904Y-98866247D01*
X151261904Y-98866247D02*
X151261904Y-99104342D01*
X151261904Y-99104342D02*
X151214285Y-99199580D01*
X151214285Y-99199580D02*
X151166666Y-99247200D01*
X151166666Y-99247200D02*
X151071428Y-99294819D01*
X151071428Y-99294819D02*
X150785714Y-99294819D01*
X150785714Y-99294819D02*
X150690476Y-99247200D01*
X150690476Y-99247200D02*
X150642857Y-99199580D01*
X132833333Y-67199580D02*
X132785714Y-67247200D01*
X132785714Y-67247200D02*
X132642857Y-67294819D01*
X132642857Y-67294819D02*
X132547619Y-67294819D01*
X132547619Y-67294819D02*
X132404762Y-67247200D01*
X132404762Y-67247200D02*
X132309524Y-67151961D01*
X132309524Y-67151961D02*
X132261905Y-67056723D01*
X132261905Y-67056723D02*
X132214286Y-66866247D01*
X132214286Y-66866247D02*
X132214286Y-66723390D01*
X132214286Y-66723390D02*
X132261905Y-66532914D01*
X132261905Y-66532914D02*
X132309524Y-66437676D01*
X132309524Y-66437676D02*
X132404762Y-66342438D01*
X132404762Y-66342438D02*
X132547619Y-66294819D01*
X132547619Y-66294819D02*
X132642857Y-66294819D01*
X132642857Y-66294819D02*
X132785714Y-66342438D01*
X132785714Y-66342438D02*
X132833333Y-66390057D01*
X133785714Y-67294819D02*
X133214286Y-67294819D01*
X133500000Y-67294819D02*
X133500000Y-66294819D01*
X133500000Y-66294819D02*
X133404762Y-66437676D01*
X133404762Y-66437676D02*
X133309524Y-66532914D01*
X133309524Y-66532914D02*
X133214286Y-66580533D01*
X74357142Y-34284819D02*
X74023809Y-33808628D01*
X73785714Y-34284819D02*
X73785714Y-33284819D01*
X73785714Y-33284819D02*
X74166666Y-33284819D01*
X74166666Y-33284819D02*
X74261904Y-33332438D01*
X74261904Y-33332438D02*
X74309523Y-33380057D01*
X74309523Y-33380057D02*
X74357142Y-33475295D01*
X74357142Y-33475295D02*
X74357142Y-33618152D01*
X74357142Y-33618152D02*
X74309523Y-33713390D01*
X74309523Y-33713390D02*
X74261904Y-33761009D01*
X74261904Y-33761009D02*
X74166666Y-33808628D01*
X74166666Y-33808628D02*
X73785714Y-33808628D01*
X75309523Y-34284819D02*
X74738095Y-34284819D01*
X75023809Y-34284819D02*
X75023809Y-33284819D01*
X75023809Y-33284819D02*
X74928571Y-33427676D01*
X74928571Y-33427676D02*
X74833333Y-33522914D01*
X74833333Y-33522914D02*
X74738095Y-33570533D01*
X75690476Y-33380057D02*
X75738095Y-33332438D01*
X75738095Y-33332438D02*
X75833333Y-33284819D01*
X75833333Y-33284819D02*
X76071428Y-33284819D01*
X76071428Y-33284819D02*
X76166666Y-33332438D01*
X76166666Y-33332438D02*
X76214285Y-33380057D01*
X76214285Y-33380057D02*
X76261904Y-33475295D01*
X76261904Y-33475295D02*
X76261904Y-33570533D01*
X76261904Y-33570533D02*
X76214285Y-33713390D01*
X76214285Y-33713390D02*
X75642857Y-34284819D01*
X75642857Y-34284819D02*
X76261904Y-34284819D01*
X146833333Y-81199580D02*
X146785714Y-81247200D01*
X146785714Y-81247200D02*
X146642857Y-81294819D01*
X146642857Y-81294819D02*
X146547619Y-81294819D01*
X146547619Y-81294819D02*
X146404762Y-81247200D01*
X146404762Y-81247200D02*
X146309524Y-81151961D01*
X146309524Y-81151961D02*
X146261905Y-81056723D01*
X146261905Y-81056723D02*
X146214286Y-80866247D01*
X146214286Y-80866247D02*
X146214286Y-80723390D01*
X146214286Y-80723390D02*
X146261905Y-80532914D01*
X146261905Y-80532914D02*
X146309524Y-80437676D01*
X146309524Y-80437676D02*
X146404762Y-80342438D01*
X146404762Y-80342438D02*
X146547619Y-80294819D01*
X146547619Y-80294819D02*
X146642857Y-80294819D01*
X146642857Y-80294819D02*
X146785714Y-80342438D01*
X146785714Y-80342438D02*
X146833333Y-80390057D01*
X147690476Y-80628152D02*
X147690476Y-81294819D01*
X147452381Y-80247200D02*
X147214286Y-80961485D01*
X147214286Y-80961485D02*
X147833333Y-80961485D01*
X69357142Y-51199580D02*
X69309523Y-51247200D01*
X69309523Y-51247200D02*
X69166666Y-51294819D01*
X69166666Y-51294819D02*
X69071428Y-51294819D01*
X69071428Y-51294819D02*
X68928571Y-51247200D01*
X68928571Y-51247200D02*
X68833333Y-51151961D01*
X68833333Y-51151961D02*
X68785714Y-51056723D01*
X68785714Y-51056723D02*
X68738095Y-50866247D01*
X68738095Y-50866247D02*
X68738095Y-50723390D01*
X68738095Y-50723390D02*
X68785714Y-50532914D01*
X68785714Y-50532914D02*
X68833333Y-50437676D01*
X68833333Y-50437676D02*
X68928571Y-50342438D01*
X68928571Y-50342438D02*
X69071428Y-50294819D01*
X69071428Y-50294819D02*
X69166666Y-50294819D01*
X69166666Y-50294819D02*
X69309523Y-50342438D01*
X69309523Y-50342438D02*
X69357142Y-50390057D01*
X69738095Y-50390057D02*
X69785714Y-50342438D01*
X69785714Y-50342438D02*
X69880952Y-50294819D01*
X69880952Y-50294819D02*
X70119047Y-50294819D01*
X70119047Y-50294819D02*
X70214285Y-50342438D01*
X70214285Y-50342438D02*
X70261904Y-50390057D01*
X70261904Y-50390057D02*
X70309523Y-50485295D01*
X70309523Y-50485295D02*
X70309523Y-50580533D01*
X70309523Y-50580533D02*
X70261904Y-50723390D01*
X70261904Y-50723390D02*
X69690476Y-51294819D01*
X69690476Y-51294819D02*
X70309523Y-51294819D01*
X70928571Y-50294819D02*
X71023809Y-50294819D01*
X71023809Y-50294819D02*
X71119047Y-50342438D01*
X71119047Y-50342438D02*
X71166666Y-50390057D01*
X71166666Y-50390057D02*
X71214285Y-50485295D01*
X71214285Y-50485295D02*
X71261904Y-50675771D01*
X71261904Y-50675771D02*
X71261904Y-50913866D01*
X71261904Y-50913866D02*
X71214285Y-51104342D01*
X71214285Y-51104342D02*
X71166666Y-51199580D01*
X71166666Y-51199580D02*
X71119047Y-51247200D01*
X71119047Y-51247200D02*
X71023809Y-51294819D01*
X71023809Y-51294819D02*
X70928571Y-51294819D01*
X70928571Y-51294819D02*
X70833333Y-51247200D01*
X70833333Y-51247200D02*
X70785714Y-51199580D01*
X70785714Y-51199580D02*
X70738095Y-51104342D01*
X70738095Y-51104342D02*
X70690476Y-50913866D01*
X70690476Y-50913866D02*
X70690476Y-50675771D01*
X70690476Y-50675771D02*
X70738095Y-50485295D01*
X70738095Y-50485295D02*
X70785714Y-50390057D01*
X70785714Y-50390057D02*
X70833333Y-50342438D01*
X70833333Y-50342438D02*
X70928571Y-50294819D01*
X84238095Y-49624819D02*
X84238095Y-50434342D01*
X84238095Y-50434342D02*
X84285714Y-50529580D01*
X84285714Y-50529580D02*
X84333333Y-50577200D01*
X84333333Y-50577200D02*
X84428571Y-50624819D01*
X84428571Y-50624819D02*
X84619047Y-50624819D01*
X84619047Y-50624819D02*
X84714285Y-50577200D01*
X84714285Y-50577200D02*
X84761904Y-50529580D01*
X84761904Y-50529580D02*
X84809523Y-50434342D01*
X84809523Y-50434342D02*
X84809523Y-49624819D01*
X85714285Y-49958152D02*
X85714285Y-50624819D01*
X85476190Y-49577200D02*
X85238095Y-50291485D01*
X85238095Y-50291485D02*
X85857142Y-50291485D01*
X91357142Y-56199580D02*
X91309523Y-56247200D01*
X91309523Y-56247200D02*
X91166666Y-56294819D01*
X91166666Y-56294819D02*
X91071428Y-56294819D01*
X91071428Y-56294819D02*
X90928571Y-56247200D01*
X90928571Y-56247200D02*
X90833333Y-56151961D01*
X90833333Y-56151961D02*
X90785714Y-56056723D01*
X90785714Y-56056723D02*
X90738095Y-55866247D01*
X90738095Y-55866247D02*
X90738095Y-55723390D01*
X90738095Y-55723390D02*
X90785714Y-55532914D01*
X90785714Y-55532914D02*
X90833333Y-55437676D01*
X90833333Y-55437676D02*
X90928571Y-55342438D01*
X90928571Y-55342438D02*
X91071428Y-55294819D01*
X91071428Y-55294819D02*
X91166666Y-55294819D01*
X91166666Y-55294819D02*
X91309523Y-55342438D01*
X91309523Y-55342438D02*
X91357142Y-55390057D01*
X91738095Y-55390057D02*
X91785714Y-55342438D01*
X91785714Y-55342438D02*
X91880952Y-55294819D01*
X91880952Y-55294819D02*
X92119047Y-55294819D01*
X92119047Y-55294819D02*
X92214285Y-55342438D01*
X92214285Y-55342438D02*
X92261904Y-55390057D01*
X92261904Y-55390057D02*
X92309523Y-55485295D01*
X92309523Y-55485295D02*
X92309523Y-55580533D01*
X92309523Y-55580533D02*
X92261904Y-55723390D01*
X92261904Y-55723390D02*
X91690476Y-56294819D01*
X91690476Y-56294819D02*
X92309523Y-56294819D01*
X93214285Y-55294819D02*
X92738095Y-55294819D01*
X92738095Y-55294819D02*
X92690476Y-55771009D01*
X92690476Y-55771009D02*
X92738095Y-55723390D01*
X92738095Y-55723390D02*
X92833333Y-55675771D01*
X92833333Y-55675771D02*
X93071428Y-55675771D01*
X93071428Y-55675771D02*
X93166666Y-55723390D01*
X93166666Y-55723390D02*
X93214285Y-55771009D01*
X93214285Y-55771009D02*
X93261904Y-55866247D01*
X93261904Y-55866247D02*
X93261904Y-56104342D01*
X93261904Y-56104342D02*
X93214285Y-56199580D01*
X93214285Y-56199580D02*
X93166666Y-56247200D01*
X93166666Y-56247200D02*
X93071428Y-56294819D01*
X93071428Y-56294819D02*
X92833333Y-56294819D01*
X92833333Y-56294819D02*
X92738095Y-56247200D01*
X92738095Y-56247200D02*
X92690476Y-56199580D01*
X199238095Y-34954819D02*
X199238095Y-35764342D01*
X199238095Y-35764342D02*
X199285714Y-35859580D01*
X199285714Y-35859580D02*
X199333333Y-35907200D01*
X199333333Y-35907200D02*
X199428571Y-35954819D01*
X199428571Y-35954819D02*
X199619047Y-35954819D01*
X199619047Y-35954819D02*
X199714285Y-35907200D01*
X199714285Y-35907200D02*
X199761904Y-35859580D01*
X199761904Y-35859580D02*
X199809523Y-35764342D01*
X199809523Y-35764342D02*
X199809523Y-34954819D01*
X200333333Y-35954819D02*
X200523809Y-35954819D01*
X200523809Y-35954819D02*
X200619047Y-35907200D01*
X200619047Y-35907200D02*
X200666666Y-35859580D01*
X200666666Y-35859580D02*
X200761904Y-35716723D01*
X200761904Y-35716723D02*
X200809523Y-35526247D01*
X200809523Y-35526247D02*
X200809523Y-35145295D01*
X200809523Y-35145295D02*
X200761904Y-35050057D01*
X200761904Y-35050057D02*
X200714285Y-35002438D01*
X200714285Y-35002438D02*
X200619047Y-34954819D01*
X200619047Y-34954819D02*
X200428571Y-34954819D01*
X200428571Y-34954819D02*
X200333333Y-35002438D01*
X200333333Y-35002438D02*
X200285714Y-35050057D01*
X200285714Y-35050057D02*
X200238095Y-35145295D01*
X200238095Y-35145295D02*
X200238095Y-35383390D01*
X200238095Y-35383390D02*
X200285714Y-35478628D01*
X200285714Y-35478628D02*
X200333333Y-35526247D01*
X200333333Y-35526247D02*
X200428571Y-35573866D01*
X200428571Y-35573866D02*
X200619047Y-35573866D01*
X200619047Y-35573866D02*
X200714285Y-35526247D01*
X200714285Y-35526247D02*
X200761904Y-35478628D01*
X200761904Y-35478628D02*
X200809523Y-35383390D01*
X94523809Y-52978628D02*
X94523809Y-53454819D01*
X94190476Y-52454819D02*
X94523809Y-52978628D01*
X94523809Y-52978628D02*
X94857142Y-52454819D01*
X95714285Y-53454819D02*
X95142857Y-53454819D01*
X95428571Y-53454819D02*
X95428571Y-52454819D01*
X95428571Y-52454819D02*
X95333333Y-52597676D01*
X95333333Y-52597676D02*
X95238095Y-52692914D01*
X95238095Y-52692914D02*
X95142857Y-52740533D01*
X59666666Y-37074819D02*
X59666666Y-37789104D01*
X59666666Y-37789104D02*
X59619047Y-37931961D01*
X59619047Y-37931961D02*
X59523809Y-38027200D01*
X59523809Y-38027200D02*
X59380952Y-38074819D01*
X59380952Y-38074819D02*
X59285714Y-38074819D01*
X60047619Y-37074819D02*
X60714285Y-37074819D01*
X60714285Y-37074819D02*
X60285714Y-38074819D01*
X119357142Y-109199580D02*
X119309523Y-109247200D01*
X119309523Y-109247200D02*
X119166666Y-109294819D01*
X119166666Y-109294819D02*
X119071428Y-109294819D01*
X119071428Y-109294819D02*
X118928571Y-109247200D01*
X118928571Y-109247200D02*
X118833333Y-109151961D01*
X118833333Y-109151961D02*
X118785714Y-109056723D01*
X118785714Y-109056723D02*
X118738095Y-108866247D01*
X118738095Y-108866247D02*
X118738095Y-108723390D01*
X118738095Y-108723390D02*
X118785714Y-108532914D01*
X118785714Y-108532914D02*
X118833333Y-108437676D01*
X118833333Y-108437676D02*
X118928571Y-108342438D01*
X118928571Y-108342438D02*
X119071428Y-108294819D01*
X119071428Y-108294819D02*
X119166666Y-108294819D01*
X119166666Y-108294819D02*
X119309523Y-108342438D01*
X119309523Y-108342438D02*
X119357142Y-108390057D01*
X120309523Y-109294819D02*
X119738095Y-109294819D01*
X120023809Y-109294819D02*
X120023809Y-108294819D01*
X120023809Y-108294819D02*
X119928571Y-108437676D01*
X119928571Y-108437676D02*
X119833333Y-108532914D01*
X119833333Y-108532914D02*
X119738095Y-108580533D01*
X120785714Y-109294819D02*
X120976190Y-109294819D01*
X120976190Y-109294819D02*
X121071428Y-109247200D01*
X121071428Y-109247200D02*
X121119047Y-109199580D01*
X121119047Y-109199580D02*
X121214285Y-109056723D01*
X121214285Y-109056723D02*
X121261904Y-108866247D01*
X121261904Y-108866247D02*
X121261904Y-108485295D01*
X121261904Y-108485295D02*
X121214285Y-108390057D01*
X121214285Y-108390057D02*
X121166666Y-108342438D01*
X121166666Y-108342438D02*
X121071428Y-108294819D01*
X121071428Y-108294819D02*
X120880952Y-108294819D01*
X120880952Y-108294819D02*
X120785714Y-108342438D01*
X120785714Y-108342438D02*
X120738095Y-108390057D01*
X120738095Y-108390057D02*
X120690476Y-108485295D01*
X120690476Y-108485295D02*
X120690476Y-108723390D01*
X120690476Y-108723390D02*
X120738095Y-108818628D01*
X120738095Y-108818628D02*
X120785714Y-108866247D01*
X120785714Y-108866247D02*
X120880952Y-108913866D01*
X120880952Y-108913866D02*
X121071428Y-108913866D01*
X121071428Y-108913866D02*
X121166666Y-108866247D01*
X121166666Y-108866247D02*
X121214285Y-108818628D01*
X121214285Y-108818628D02*
X121261904Y-108723390D01*
X73666667Y-41357200D02*
X73809524Y-41404819D01*
X73809524Y-41404819D02*
X74047619Y-41404819D01*
X74047619Y-41404819D02*
X74142857Y-41357200D01*
X74142857Y-41357200D02*
X74190476Y-41309580D01*
X74190476Y-41309580D02*
X74238095Y-41214342D01*
X74238095Y-41214342D02*
X74238095Y-41119104D01*
X74238095Y-41119104D02*
X74190476Y-41023866D01*
X74190476Y-41023866D02*
X74142857Y-40976247D01*
X74142857Y-40976247D02*
X74047619Y-40928628D01*
X74047619Y-40928628D02*
X73857143Y-40881009D01*
X73857143Y-40881009D02*
X73761905Y-40833390D01*
X73761905Y-40833390D02*
X73714286Y-40785771D01*
X73714286Y-40785771D02*
X73666667Y-40690533D01*
X73666667Y-40690533D02*
X73666667Y-40595295D01*
X73666667Y-40595295D02*
X73714286Y-40500057D01*
X73714286Y-40500057D02*
X73761905Y-40452438D01*
X73761905Y-40452438D02*
X73857143Y-40404819D01*
X73857143Y-40404819D02*
X74095238Y-40404819D01*
X74095238Y-40404819D02*
X74238095Y-40452438D01*
X74571429Y-40404819D02*
X74809524Y-41404819D01*
X74809524Y-41404819D02*
X75000000Y-40690533D01*
X75000000Y-40690533D02*
X75190476Y-41404819D01*
X75190476Y-41404819D02*
X75428572Y-40404819D01*
X76333333Y-41404819D02*
X75761905Y-41404819D01*
X76047619Y-41404819D02*
X76047619Y-40404819D01*
X76047619Y-40404819D02*
X75952381Y-40547676D01*
X75952381Y-40547676D02*
X75857143Y-40642914D01*
X75857143Y-40642914D02*
X75761905Y-40690533D01*
X139238095Y-81954819D02*
X139238095Y-82764342D01*
X139238095Y-82764342D02*
X139285714Y-82859580D01*
X139285714Y-82859580D02*
X139333333Y-82907200D01*
X139333333Y-82907200D02*
X139428571Y-82954819D01*
X139428571Y-82954819D02*
X139619047Y-82954819D01*
X139619047Y-82954819D02*
X139714285Y-82907200D01*
X139714285Y-82907200D02*
X139761904Y-82859580D01*
X139761904Y-82859580D02*
X139809523Y-82764342D01*
X139809523Y-82764342D02*
X139809523Y-81954819D01*
X140190476Y-81954819D02*
X140809523Y-81954819D01*
X140809523Y-81954819D02*
X140476190Y-82335771D01*
X140476190Y-82335771D02*
X140619047Y-82335771D01*
X140619047Y-82335771D02*
X140714285Y-82383390D01*
X140714285Y-82383390D02*
X140761904Y-82431009D01*
X140761904Y-82431009D02*
X140809523Y-82526247D01*
X140809523Y-82526247D02*
X140809523Y-82764342D01*
X140809523Y-82764342D02*
X140761904Y-82859580D01*
X140761904Y-82859580D02*
X140714285Y-82907200D01*
X140714285Y-82907200D02*
X140619047Y-82954819D01*
X140619047Y-82954819D02*
X140333333Y-82954819D01*
X140333333Y-82954819D02*
X140238095Y-82907200D01*
X140238095Y-82907200D02*
X140190476Y-82859580D01*
X73880952Y-30804819D02*
X73404762Y-30804819D01*
X73404762Y-30804819D02*
X73404762Y-29804819D01*
X74214286Y-30281009D02*
X74547619Y-30281009D01*
X74690476Y-30804819D02*
X74214286Y-30804819D01*
X74214286Y-30804819D02*
X74214286Y-29804819D01*
X74214286Y-29804819D02*
X74690476Y-29804819D01*
X75119048Y-30804819D02*
X75119048Y-29804819D01*
X75119048Y-29804819D02*
X75357143Y-29804819D01*
X75357143Y-29804819D02*
X75500000Y-29852438D01*
X75500000Y-29852438D02*
X75595238Y-29947676D01*
X75595238Y-29947676D02*
X75642857Y-30042914D01*
X75642857Y-30042914D02*
X75690476Y-30233390D01*
X75690476Y-30233390D02*
X75690476Y-30376247D01*
X75690476Y-30376247D02*
X75642857Y-30566723D01*
X75642857Y-30566723D02*
X75595238Y-30661961D01*
X75595238Y-30661961D02*
X75500000Y-30757200D01*
X75500000Y-30757200D02*
X75357143Y-30804819D01*
X75357143Y-30804819D02*
X75119048Y-30804819D01*
X76071429Y-29900057D02*
X76119048Y-29852438D01*
X76119048Y-29852438D02*
X76214286Y-29804819D01*
X76214286Y-29804819D02*
X76452381Y-29804819D01*
X76452381Y-29804819D02*
X76547619Y-29852438D01*
X76547619Y-29852438D02*
X76595238Y-29900057D01*
X76595238Y-29900057D02*
X76642857Y-29995295D01*
X76642857Y-29995295D02*
X76642857Y-30090533D01*
X76642857Y-30090533D02*
X76595238Y-30233390D01*
X76595238Y-30233390D02*
X76023810Y-30804819D01*
X76023810Y-30804819D02*
X76642857Y-30804819D01*
X129833333Y-74199580D02*
X129785714Y-74247200D01*
X129785714Y-74247200D02*
X129642857Y-74294819D01*
X129642857Y-74294819D02*
X129547619Y-74294819D01*
X129547619Y-74294819D02*
X129404762Y-74247200D01*
X129404762Y-74247200D02*
X129309524Y-74151961D01*
X129309524Y-74151961D02*
X129261905Y-74056723D01*
X129261905Y-74056723D02*
X129214286Y-73866247D01*
X129214286Y-73866247D02*
X129214286Y-73723390D01*
X129214286Y-73723390D02*
X129261905Y-73532914D01*
X129261905Y-73532914D02*
X129309524Y-73437676D01*
X129309524Y-73437676D02*
X129404762Y-73342438D01*
X129404762Y-73342438D02*
X129547619Y-73294819D01*
X129547619Y-73294819D02*
X129642857Y-73294819D01*
X129642857Y-73294819D02*
X129785714Y-73342438D01*
X129785714Y-73342438D02*
X129833333Y-73390057D01*
X130738095Y-73294819D02*
X130261905Y-73294819D01*
X130261905Y-73294819D02*
X130214286Y-73771009D01*
X130214286Y-73771009D02*
X130261905Y-73723390D01*
X130261905Y-73723390D02*
X130357143Y-73675771D01*
X130357143Y-73675771D02*
X130595238Y-73675771D01*
X130595238Y-73675771D02*
X130690476Y-73723390D01*
X130690476Y-73723390D02*
X130738095Y-73771009D01*
X130738095Y-73771009D02*
X130785714Y-73866247D01*
X130785714Y-73866247D02*
X130785714Y-74104342D01*
X130785714Y-74104342D02*
X130738095Y-74199580D01*
X130738095Y-74199580D02*
X130690476Y-74247200D01*
X130690476Y-74247200D02*
X130595238Y-74294819D01*
X130595238Y-74294819D02*
X130357143Y-74294819D01*
X130357143Y-74294819D02*
X130261905Y-74247200D01*
X130261905Y-74247200D02*
X130214286Y-74199580D01*
X139238095Y-41954819D02*
X139238095Y-42764342D01*
X139238095Y-42764342D02*
X139285714Y-42859580D01*
X139285714Y-42859580D02*
X139333333Y-42907200D01*
X139333333Y-42907200D02*
X139428571Y-42954819D01*
X139428571Y-42954819D02*
X139619047Y-42954819D01*
X139619047Y-42954819D02*
X139714285Y-42907200D01*
X139714285Y-42907200D02*
X139761904Y-42859580D01*
X139761904Y-42859580D02*
X139809523Y-42764342D01*
X139809523Y-42764342D02*
X139809523Y-41954819D01*
X140238095Y-42050057D02*
X140285714Y-42002438D01*
X140285714Y-42002438D02*
X140380952Y-41954819D01*
X140380952Y-41954819D02*
X140619047Y-41954819D01*
X140619047Y-41954819D02*
X140714285Y-42002438D01*
X140714285Y-42002438D02*
X140761904Y-42050057D01*
X140761904Y-42050057D02*
X140809523Y-42145295D01*
X140809523Y-42145295D02*
X140809523Y-42240533D01*
X140809523Y-42240533D02*
X140761904Y-42383390D01*
X140761904Y-42383390D02*
X140190476Y-42954819D01*
X140190476Y-42954819D02*
X140809523Y-42954819D01*
X139357142Y-47199580D02*
X139309523Y-47247200D01*
X139309523Y-47247200D02*
X139166666Y-47294819D01*
X139166666Y-47294819D02*
X139071428Y-47294819D01*
X139071428Y-47294819D02*
X138928571Y-47247200D01*
X138928571Y-47247200D02*
X138833333Y-47151961D01*
X138833333Y-47151961D02*
X138785714Y-47056723D01*
X138785714Y-47056723D02*
X138738095Y-46866247D01*
X138738095Y-46866247D02*
X138738095Y-46723390D01*
X138738095Y-46723390D02*
X138785714Y-46532914D01*
X138785714Y-46532914D02*
X138833333Y-46437676D01*
X138833333Y-46437676D02*
X138928571Y-46342438D01*
X138928571Y-46342438D02*
X139071428Y-46294819D01*
X139071428Y-46294819D02*
X139166666Y-46294819D01*
X139166666Y-46294819D02*
X139309523Y-46342438D01*
X139309523Y-46342438D02*
X139357142Y-46390057D01*
X140309523Y-47294819D02*
X139738095Y-47294819D01*
X140023809Y-47294819D02*
X140023809Y-46294819D01*
X140023809Y-46294819D02*
X139928571Y-46437676D01*
X139928571Y-46437676D02*
X139833333Y-46532914D01*
X139833333Y-46532914D02*
X139738095Y-46580533D01*
X141261904Y-47294819D02*
X140690476Y-47294819D01*
X140976190Y-47294819D02*
X140976190Y-46294819D01*
X140976190Y-46294819D02*
X140880952Y-46437676D01*
X140880952Y-46437676D02*
X140785714Y-46532914D01*
X140785714Y-46532914D02*
X140690476Y-46580533D01*
X97357142Y-56199580D02*
X97309523Y-56247200D01*
X97309523Y-56247200D02*
X97166666Y-56294819D01*
X97166666Y-56294819D02*
X97071428Y-56294819D01*
X97071428Y-56294819D02*
X96928571Y-56247200D01*
X96928571Y-56247200D02*
X96833333Y-56151961D01*
X96833333Y-56151961D02*
X96785714Y-56056723D01*
X96785714Y-56056723D02*
X96738095Y-55866247D01*
X96738095Y-55866247D02*
X96738095Y-55723390D01*
X96738095Y-55723390D02*
X96785714Y-55532914D01*
X96785714Y-55532914D02*
X96833333Y-55437676D01*
X96833333Y-55437676D02*
X96928571Y-55342438D01*
X96928571Y-55342438D02*
X97071428Y-55294819D01*
X97071428Y-55294819D02*
X97166666Y-55294819D01*
X97166666Y-55294819D02*
X97309523Y-55342438D01*
X97309523Y-55342438D02*
X97357142Y-55390057D01*
X97738095Y-55390057D02*
X97785714Y-55342438D01*
X97785714Y-55342438D02*
X97880952Y-55294819D01*
X97880952Y-55294819D02*
X98119047Y-55294819D01*
X98119047Y-55294819D02*
X98214285Y-55342438D01*
X98214285Y-55342438D02*
X98261904Y-55390057D01*
X98261904Y-55390057D02*
X98309523Y-55485295D01*
X98309523Y-55485295D02*
X98309523Y-55580533D01*
X98309523Y-55580533D02*
X98261904Y-55723390D01*
X98261904Y-55723390D02*
X97690476Y-56294819D01*
X97690476Y-56294819D02*
X98309523Y-56294819D01*
X99166666Y-55294819D02*
X98976190Y-55294819D01*
X98976190Y-55294819D02*
X98880952Y-55342438D01*
X98880952Y-55342438D02*
X98833333Y-55390057D01*
X98833333Y-55390057D02*
X98738095Y-55532914D01*
X98738095Y-55532914D02*
X98690476Y-55723390D01*
X98690476Y-55723390D02*
X98690476Y-56104342D01*
X98690476Y-56104342D02*
X98738095Y-56199580D01*
X98738095Y-56199580D02*
X98785714Y-56247200D01*
X98785714Y-56247200D02*
X98880952Y-56294819D01*
X98880952Y-56294819D02*
X99071428Y-56294819D01*
X99071428Y-56294819D02*
X99166666Y-56247200D01*
X99166666Y-56247200D02*
X99214285Y-56199580D01*
X99214285Y-56199580D02*
X99261904Y-56104342D01*
X99261904Y-56104342D02*
X99261904Y-55866247D01*
X99261904Y-55866247D02*
X99214285Y-55771009D01*
X99214285Y-55771009D02*
X99166666Y-55723390D01*
X99166666Y-55723390D02*
X99071428Y-55675771D01*
X99071428Y-55675771D02*
X98880952Y-55675771D01*
X98880952Y-55675771D02*
X98785714Y-55723390D01*
X98785714Y-55723390D02*
X98738095Y-55771009D01*
X98738095Y-55771009D02*
X98690476Y-55866247D01*
X136833333Y-124284819D02*
X136500000Y-123808628D01*
X136261905Y-124284819D02*
X136261905Y-123284819D01*
X136261905Y-123284819D02*
X136642857Y-123284819D01*
X136642857Y-123284819D02*
X136738095Y-123332438D01*
X136738095Y-123332438D02*
X136785714Y-123380057D01*
X136785714Y-123380057D02*
X136833333Y-123475295D01*
X136833333Y-123475295D02*
X136833333Y-123618152D01*
X136833333Y-123618152D02*
X136785714Y-123713390D01*
X136785714Y-123713390D02*
X136738095Y-123761009D01*
X136738095Y-123761009D02*
X136642857Y-123808628D01*
X136642857Y-123808628D02*
X136261905Y-123808628D01*
X137309524Y-124284819D02*
X137500000Y-124284819D01*
X137500000Y-124284819D02*
X137595238Y-124237200D01*
X137595238Y-124237200D02*
X137642857Y-124189580D01*
X137642857Y-124189580D02*
X137738095Y-124046723D01*
X137738095Y-124046723D02*
X137785714Y-123856247D01*
X137785714Y-123856247D02*
X137785714Y-123475295D01*
X137785714Y-123475295D02*
X137738095Y-123380057D01*
X137738095Y-123380057D02*
X137690476Y-123332438D01*
X137690476Y-123332438D02*
X137595238Y-123284819D01*
X137595238Y-123284819D02*
X137404762Y-123284819D01*
X137404762Y-123284819D02*
X137309524Y-123332438D01*
X137309524Y-123332438D02*
X137261905Y-123380057D01*
X137261905Y-123380057D02*
X137214286Y-123475295D01*
X137214286Y-123475295D02*
X137214286Y-123713390D01*
X137214286Y-123713390D02*
X137261905Y-123808628D01*
X137261905Y-123808628D02*
X137309524Y-123856247D01*
X137309524Y-123856247D02*
X137404762Y-123903866D01*
X137404762Y-123903866D02*
X137595238Y-123903866D01*
X137595238Y-123903866D02*
X137690476Y-123856247D01*
X137690476Y-123856247D02*
X137738095Y-123808628D01*
X137738095Y-123808628D02*
X137785714Y-123713390D01*
X124238095Y-107104819D02*
X124238095Y-107914342D01*
X124238095Y-107914342D02*
X124285714Y-108009580D01*
X124285714Y-108009580D02*
X124333333Y-108057200D01*
X124333333Y-108057200D02*
X124428571Y-108104819D01*
X124428571Y-108104819D02*
X124619047Y-108104819D01*
X124619047Y-108104819D02*
X124714285Y-108057200D01*
X124714285Y-108057200D02*
X124761904Y-108009580D01*
X124761904Y-108009580D02*
X124809523Y-107914342D01*
X124809523Y-107914342D02*
X124809523Y-107104819D01*
X125428571Y-107533390D02*
X125333333Y-107485771D01*
X125333333Y-107485771D02*
X125285714Y-107438152D01*
X125285714Y-107438152D02*
X125238095Y-107342914D01*
X125238095Y-107342914D02*
X125238095Y-107295295D01*
X125238095Y-107295295D02*
X125285714Y-107200057D01*
X125285714Y-107200057D02*
X125333333Y-107152438D01*
X125333333Y-107152438D02*
X125428571Y-107104819D01*
X125428571Y-107104819D02*
X125619047Y-107104819D01*
X125619047Y-107104819D02*
X125714285Y-107152438D01*
X125714285Y-107152438D02*
X125761904Y-107200057D01*
X125761904Y-107200057D02*
X125809523Y-107295295D01*
X125809523Y-107295295D02*
X125809523Y-107342914D01*
X125809523Y-107342914D02*
X125761904Y-107438152D01*
X125761904Y-107438152D02*
X125714285Y-107485771D01*
X125714285Y-107485771D02*
X125619047Y-107533390D01*
X125619047Y-107533390D02*
X125428571Y-107533390D01*
X125428571Y-107533390D02*
X125333333Y-107581009D01*
X125333333Y-107581009D02*
X125285714Y-107628628D01*
X125285714Y-107628628D02*
X125238095Y-107723866D01*
X125238095Y-107723866D02*
X125238095Y-107914342D01*
X125238095Y-107914342D02*
X125285714Y-108009580D01*
X125285714Y-108009580D02*
X125333333Y-108057200D01*
X125333333Y-108057200D02*
X125428571Y-108104819D01*
X125428571Y-108104819D02*
X125619047Y-108104819D01*
X125619047Y-108104819D02*
X125714285Y-108057200D01*
X125714285Y-108057200D02*
X125761904Y-108009580D01*
X125761904Y-108009580D02*
X125809523Y-107914342D01*
X125809523Y-107914342D02*
X125809523Y-107723866D01*
X125809523Y-107723866D02*
X125761904Y-107628628D01*
X125761904Y-107628628D02*
X125714285Y-107581009D01*
X125714285Y-107581009D02*
X125619047Y-107533390D01*
X132833333Y-81199580D02*
X132785714Y-81247200D01*
X132785714Y-81247200D02*
X132642857Y-81294819D01*
X132642857Y-81294819D02*
X132547619Y-81294819D01*
X132547619Y-81294819D02*
X132404762Y-81247200D01*
X132404762Y-81247200D02*
X132309524Y-81151961D01*
X132309524Y-81151961D02*
X132261905Y-81056723D01*
X132261905Y-81056723D02*
X132214286Y-80866247D01*
X132214286Y-80866247D02*
X132214286Y-80723390D01*
X132214286Y-80723390D02*
X132261905Y-80532914D01*
X132261905Y-80532914D02*
X132309524Y-80437676D01*
X132309524Y-80437676D02*
X132404762Y-80342438D01*
X132404762Y-80342438D02*
X132547619Y-80294819D01*
X132547619Y-80294819D02*
X132642857Y-80294819D01*
X132642857Y-80294819D02*
X132785714Y-80342438D01*
X132785714Y-80342438D02*
X132833333Y-80390057D01*
X133166667Y-80294819D02*
X133785714Y-80294819D01*
X133785714Y-80294819D02*
X133452381Y-80675771D01*
X133452381Y-80675771D02*
X133595238Y-80675771D01*
X133595238Y-80675771D02*
X133690476Y-80723390D01*
X133690476Y-80723390D02*
X133738095Y-80771009D01*
X133738095Y-80771009D02*
X133785714Y-80866247D01*
X133785714Y-80866247D02*
X133785714Y-81104342D01*
X133785714Y-81104342D02*
X133738095Y-81199580D01*
X133738095Y-81199580D02*
X133690476Y-81247200D01*
X133690476Y-81247200D02*
X133595238Y-81294819D01*
X133595238Y-81294819D02*
X133309524Y-81294819D01*
X133309524Y-81294819D02*
X133214286Y-81247200D01*
X133214286Y-81247200D02*
X133166667Y-81199580D01*
X83666667Y-41357200D02*
X83809524Y-41404819D01*
X83809524Y-41404819D02*
X84047619Y-41404819D01*
X84047619Y-41404819D02*
X84142857Y-41357200D01*
X84142857Y-41357200D02*
X84190476Y-41309580D01*
X84190476Y-41309580D02*
X84238095Y-41214342D01*
X84238095Y-41214342D02*
X84238095Y-41119104D01*
X84238095Y-41119104D02*
X84190476Y-41023866D01*
X84190476Y-41023866D02*
X84142857Y-40976247D01*
X84142857Y-40976247D02*
X84047619Y-40928628D01*
X84047619Y-40928628D02*
X83857143Y-40881009D01*
X83857143Y-40881009D02*
X83761905Y-40833390D01*
X83761905Y-40833390D02*
X83714286Y-40785771D01*
X83714286Y-40785771D02*
X83666667Y-40690533D01*
X83666667Y-40690533D02*
X83666667Y-40595295D01*
X83666667Y-40595295D02*
X83714286Y-40500057D01*
X83714286Y-40500057D02*
X83761905Y-40452438D01*
X83761905Y-40452438D02*
X83857143Y-40404819D01*
X83857143Y-40404819D02*
X84095238Y-40404819D01*
X84095238Y-40404819D02*
X84238095Y-40452438D01*
X84571429Y-40404819D02*
X84809524Y-41404819D01*
X84809524Y-41404819D02*
X85000000Y-40690533D01*
X85000000Y-40690533D02*
X85190476Y-41404819D01*
X85190476Y-41404819D02*
X85428572Y-40404819D01*
X85761905Y-40500057D02*
X85809524Y-40452438D01*
X85809524Y-40452438D02*
X85904762Y-40404819D01*
X85904762Y-40404819D02*
X86142857Y-40404819D01*
X86142857Y-40404819D02*
X86238095Y-40452438D01*
X86238095Y-40452438D02*
X86285714Y-40500057D01*
X86285714Y-40500057D02*
X86333333Y-40595295D01*
X86333333Y-40595295D02*
X86333333Y-40690533D01*
X86333333Y-40690533D02*
X86285714Y-40833390D01*
X86285714Y-40833390D02*
X85714286Y-41404819D01*
X85714286Y-41404819D02*
X86333333Y-41404819D01*
X125508095Y-32074819D02*
X125508095Y-32789104D01*
X125508095Y-32789104D02*
X125460476Y-32931961D01*
X125460476Y-32931961D02*
X125365238Y-33027200D01*
X125365238Y-33027200D02*
X125222381Y-33074819D01*
X125222381Y-33074819D02*
X125127143Y-33074819D01*
X126460476Y-32074819D02*
X125984286Y-32074819D01*
X125984286Y-32074819D02*
X125936667Y-32551009D01*
X125936667Y-32551009D02*
X125984286Y-32503390D01*
X125984286Y-32503390D02*
X126079524Y-32455771D01*
X126079524Y-32455771D02*
X126317619Y-32455771D01*
X126317619Y-32455771D02*
X126412857Y-32503390D01*
X126412857Y-32503390D02*
X126460476Y-32551009D01*
X126460476Y-32551009D02*
X126508095Y-32646247D01*
X126508095Y-32646247D02*
X126508095Y-32884342D01*
X126508095Y-32884342D02*
X126460476Y-32979580D01*
X126460476Y-32979580D02*
X126412857Y-33027200D01*
X126412857Y-33027200D02*
X126317619Y-33074819D01*
X126317619Y-33074819D02*
X126079524Y-33074819D01*
X126079524Y-33074819D02*
X125984286Y-33027200D01*
X125984286Y-33027200D02*
X125936667Y-32979580D01*
X126889048Y-32789104D02*
X127365238Y-32789104D01*
X126793810Y-33074819D02*
X127127143Y-32074819D01*
X127127143Y-32074819D02*
X127460476Y-33074819D01*
X78880952Y-30804819D02*
X78404762Y-30804819D01*
X78404762Y-30804819D02*
X78404762Y-29804819D01*
X79214286Y-30281009D02*
X79547619Y-30281009D01*
X79690476Y-30804819D02*
X79214286Y-30804819D01*
X79214286Y-30804819D02*
X79214286Y-29804819D01*
X79214286Y-29804819D02*
X79690476Y-29804819D01*
X80119048Y-30804819D02*
X80119048Y-29804819D01*
X80119048Y-29804819D02*
X80357143Y-29804819D01*
X80357143Y-29804819D02*
X80500000Y-29852438D01*
X80500000Y-29852438D02*
X80595238Y-29947676D01*
X80595238Y-29947676D02*
X80642857Y-30042914D01*
X80642857Y-30042914D02*
X80690476Y-30233390D01*
X80690476Y-30233390D02*
X80690476Y-30376247D01*
X80690476Y-30376247D02*
X80642857Y-30566723D01*
X80642857Y-30566723D02*
X80595238Y-30661961D01*
X80595238Y-30661961D02*
X80500000Y-30757200D01*
X80500000Y-30757200D02*
X80357143Y-30804819D01*
X80357143Y-30804819D02*
X80119048Y-30804819D01*
X81023810Y-29804819D02*
X81642857Y-29804819D01*
X81642857Y-29804819D02*
X81309524Y-30185771D01*
X81309524Y-30185771D02*
X81452381Y-30185771D01*
X81452381Y-30185771D02*
X81547619Y-30233390D01*
X81547619Y-30233390D02*
X81595238Y-30281009D01*
X81595238Y-30281009D02*
X81642857Y-30376247D01*
X81642857Y-30376247D02*
X81642857Y-30614342D01*
X81642857Y-30614342D02*
X81595238Y-30709580D01*
X81595238Y-30709580D02*
X81547619Y-30757200D01*
X81547619Y-30757200D02*
X81452381Y-30804819D01*
X81452381Y-30804819D02*
X81166667Y-30804819D01*
X81166667Y-30804819D02*
X81071429Y-30757200D01*
X81071429Y-30757200D02*
X81023810Y-30709580D01*
X217357142Y-75284819D02*
X217023809Y-74808628D01*
X216785714Y-75284819D02*
X216785714Y-74284819D01*
X216785714Y-74284819D02*
X217166666Y-74284819D01*
X217166666Y-74284819D02*
X217261904Y-74332438D01*
X217261904Y-74332438D02*
X217309523Y-74380057D01*
X217309523Y-74380057D02*
X217357142Y-74475295D01*
X217357142Y-74475295D02*
X217357142Y-74618152D01*
X217357142Y-74618152D02*
X217309523Y-74713390D01*
X217309523Y-74713390D02*
X217261904Y-74761009D01*
X217261904Y-74761009D02*
X217166666Y-74808628D01*
X217166666Y-74808628D02*
X216785714Y-74808628D01*
X218309523Y-75284819D02*
X217738095Y-75284819D01*
X218023809Y-75284819D02*
X218023809Y-74284819D01*
X218023809Y-74284819D02*
X217928571Y-74427676D01*
X217928571Y-74427676D02*
X217833333Y-74522914D01*
X217833333Y-74522914D02*
X217738095Y-74570533D01*
X219166666Y-74284819D02*
X218976190Y-74284819D01*
X218976190Y-74284819D02*
X218880952Y-74332438D01*
X218880952Y-74332438D02*
X218833333Y-74380057D01*
X218833333Y-74380057D02*
X218738095Y-74522914D01*
X218738095Y-74522914D02*
X218690476Y-74713390D01*
X218690476Y-74713390D02*
X218690476Y-75094342D01*
X218690476Y-75094342D02*
X218738095Y-75189580D01*
X218738095Y-75189580D02*
X218785714Y-75237200D01*
X218785714Y-75237200D02*
X218880952Y-75284819D01*
X218880952Y-75284819D02*
X219071428Y-75284819D01*
X219071428Y-75284819D02*
X219166666Y-75237200D01*
X219166666Y-75237200D02*
X219214285Y-75189580D01*
X219214285Y-75189580D02*
X219261904Y-75094342D01*
X219261904Y-75094342D02*
X219261904Y-74856247D01*
X219261904Y-74856247D02*
X219214285Y-74761009D01*
X219214285Y-74761009D02*
X219166666Y-74713390D01*
X219166666Y-74713390D02*
X219071428Y-74665771D01*
X219071428Y-74665771D02*
X218880952Y-74665771D01*
X218880952Y-74665771D02*
X218785714Y-74713390D01*
X218785714Y-74713390D02*
X218738095Y-74761009D01*
X218738095Y-74761009D02*
X218690476Y-74856247D01*
X68880952Y-30804819D02*
X68404762Y-30804819D01*
X68404762Y-30804819D02*
X68404762Y-29804819D01*
X69214286Y-30281009D02*
X69547619Y-30281009D01*
X69690476Y-30804819D02*
X69214286Y-30804819D01*
X69214286Y-30804819D02*
X69214286Y-29804819D01*
X69214286Y-29804819D02*
X69690476Y-29804819D01*
X70119048Y-30804819D02*
X70119048Y-29804819D01*
X70119048Y-29804819D02*
X70357143Y-29804819D01*
X70357143Y-29804819D02*
X70500000Y-29852438D01*
X70500000Y-29852438D02*
X70595238Y-29947676D01*
X70595238Y-29947676D02*
X70642857Y-30042914D01*
X70642857Y-30042914D02*
X70690476Y-30233390D01*
X70690476Y-30233390D02*
X70690476Y-30376247D01*
X70690476Y-30376247D02*
X70642857Y-30566723D01*
X70642857Y-30566723D02*
X70595238Y-30661961D01*
X70595238Y-30661961D02*
X70500000Y-30757200D01*
X70500000Y-30757200D02*
X70357143Y-30804819D01*
X70357143Y-30804819D02*
X70119048Y-30804819D01*
X71642857Y-30804819D02*
X71071429Y-30804819D01*
X71357143Y-30804819D02*
X71357143Y-29804819D01*
X71357143Y-29804819D02*
X71261905Y-29947676D01*
X71261905Y-29947676D02*
X71166667Y-30042914D01*
X71166667Y-30042914D02*
X71071429Y-30090533D01*
X217357142Y-72284819D02*
X217023809Y-71808628D01*
X216785714Y-72284819D02*
X216785714Y-71284819D01*
X216785714Y-71284819D02*
X217166666Y-71284819D01*
X217166666Y-71284819D02*
X217261904Y-71332438D01*
X217261904Y-71332438D02*
X217309523Y-71380057D01*
X217309523Y-71380057D02*
X217357142Y-71475295D01*
X217357142Y-71475295D02*
X217357142Y-71618152D01*
X217357142Y-71618152D02*
X217309523Y-71713390D01*
X217309523Y-71713390D02*
X217261904Y-71761009D01*
X217261904Y-71761009D02*
X217166666Y-71808628D01*
X217166666Y-71808628D02*
X216785714Y-71808628D01*
X218309523Y-72284819D02*
X217738095Y-72284819D01*
X218023809Y-72284819D02*
X218023809Y-71284819D01*
X218023809Y-71284819D02*
X217928571Y-71427676D01*
X217928571Y-71427676D02*
X217833333Y-71522914D01*
X217833333Y-71522914D02*
X217738095Y-71570533D01*
X219214285Y-71284819D02*
X218738095Y-71284819D01*
X218738095Y-71284819D02*
X218690476Y-71761009D01*
X218690476Y-71761009D02*
X218738095Y-71713390D01*
X218738095Y-71713390D02*
X218833333Y-71665771D01*
X218833333Y-71665771D02*
X219071428Y-71665771D01*
X219071428Y-71665771D02*
X219166666Y-71713390D01*
X219166666Y-71713390D02*
X219214285Y-71761009D01*
X219214285Y-71761009D02*
X219261904Y-71856247D01*
X219261904Y-71856247D02*
X219261904Y-72094342D01*
X219261904Y-72094342D02*
X219214285Y-72189580D01*
X219214285Y-72189580D02*
X219166666Y-72237200D01*
X219166666Y-72237200D02*
X219071428Y-72284819D01*
X219071428Y-72284819D02*
X218833333Y-72284819D01*
X218833333Y-72284819D02*
X218738095Y-72237200D01*
X218738095Y-72237200D02*
X218690476Y-72189580D01*
X149357142Y-49199580D02*
X149309523Y-49247200D01*
X149309523Y-49247200D02*
X149166666Y-49294819D01*
X149166666Y-49294819D02*
X149071428Y-49294819D01*
X149071428Y-49294819D02*
X148928571Y-49247200D01*
X148928571Y-49247200D02*
X148833333Y-49151961D01*
X148833333Y-49151961D02*
X148785714Y-49056723D01*
X148785714Y-49056723D02*
X148738095Y-48866247D01*
X148738095Y-48866247D02*
X148738095Y-48723390D01*
X148738095Y-48723390D02*
X148785714Y-48532914D01*
X148785714Y-48532914D02*
X148833333Y-48437676D01*
X148833333Y-48437676D02*
X148928571Y-48342438D01*
X148928571Y-48342438D02*
X149071428Y-48294819D01*
X149071428Y-48294819D02*
X149166666Y-48294819D01*
X149166666Y-48294819D02*
X149309523Y-48342438D01*
X149309523Y-48342438D02*
X149357142Y-48390057D01*
X150309523Y-49294819D02*
X149738095Y-49294819D01*
X150023809Y-49294819D02*
X150023809Y-48294819D01*
X150023809Y-48294819D02*
X149928571Y-48437676D01*
X149928571Y-48437676D02*
X149833333Y-48532914D01*
X149833333Y-48532914D02*
X149738095Y-48580533D01*
X150928571Y-48294819D02*
X151023809Y-48294819D01*
X151023809Y-48294819D02*
X151119047Y-48342438D01*
X151119047Y-48342438D02*
X151166666Y-48390057D01*
X151166666Y-48390057D02*
X151214285Y-48485295D01*
X151214285Y-48485295D02*
X151261904Y-48675771D01*
X151261904Y-48675771D02*
X151261904Y-48913866D01*
X151261904Y-48913866D02*
X151214285Y-49104342D01*
X151214285Y-49104342D02*
X151166666Y-49199580D01*
X151166666Y-49199580D02*
X151119047Y-49247200D01*
X151119047Y-49247200D02*
X151023809Y-49294819D01*
X151023809Y-49294819D02*
X150928571Y-49294819D01*
X150928571Y-49294819D02*
X150833333Y-49247200D01*
X150833333Y-49247200D02*
X150785714Y-49199580D01*
X150785714Y-49199580D02*
X150738095Y-49104342D01*
X150738095Y-49104342D02*
X150690476Y-48913866D01*
X150690476Y-48913866D02*
X150690476Y-48675771D01*
X150690476Y-48675771D02*
X150738095Y-48485295D01*
X150738095Y-48485295D02*
X150785714Y-48390057D01*
X150785714Y-48390057D02*
X150833333Y-48342438D01*
X150833333Y-48342438D02*
X150928571Y-48294819D01*
X155436666Y-32074819D02*
X155436666Y-32789104D01*
X155436666Y-32789104D02*
X155389047Y-32931961D01*
X155389047Y-32931961D02*
X155293809Y-33027200D01*
X155293809Y-33027200D02*
X155150952Y-33074819D01*
X155150952Y-33074819D02*
X155055714Y-33074819D01*
X156389047Y-32074819D02*
X155912857Y-32074819D01*
X155912857Y-32074819D02*
X155865238Y-32551009D01*
X155865238Y-32551009D02*
X155912857Y-32503390D01*
X155912857Y-32503390D02*
X156008095Y-32455771D01*
X156008095Y-32455771D02*
X156246190Y-32455771D01*
X156246190Y-32455771D02*
X156341428Y-32503390D01*
X156341428Y-32503390D02*
X156389047Y-32551009D01*
X156389047Y-32551009D02*
X156436666Y-32646247D01*
X156436666Y-32646247D02*
X156436666Y-32884342D01*
X156436666Y-32884342D02*
X156389047Y-32979580D01*
X156389047Y-32979580D02*
X156341428Y-33027200D01*
X156341428Y-33027200D02*
X156246190Y-33074819D01*
X156246190Y-33074819D02*
X156008095Y-33074819D01*
X156008095Y-33074819D02*
X155912857Y-33027200D01*
X155912857Y-33027200D02*
X155865238Y-32979580D01*
X157198571Y-32551009D02*
X157341428Y-32598628D01*
X157341428Y-32598628D02*
X157389047Y-32646247D01*
X157389047Y-32646247D02*
X157436666Y-32741485D01*
X157436666Y-32741485D02*
X157436666Y-32884342D01*
X157436666Y-32884342D02*
X157389047Y-32979580D01*
X157389047Y-32979580D02*
X157341428Y-33027200D01*
X157341428Y-33027200D02*
X157246190Y-33074819D01*
X157246190Y-33074819D02*
X156865238Y-33074819D01*
X156865238Y-33074819D02*
X156865238Y-32074819D01*
X156865238Y-32074819D02*
X157198571Y-32074819D01*
X157198571Y-32074819D02*
X157293809Y-32122438D01*
X157293809Y-32122438D02*
X157341428Y-32170057D01*
X157341428Y-32170057D02*
X157389047Y-32265295D01*
X157389047Y-32265295D02*
X157389047Y-32360533D01*
X157389047Y-32360533D02*
X157341428Y-32455771D01*
X157341428Y-32455771D02*
X157293809Y-32503390D01*
X157293809Y-32503390D02*
X157198571Y-32551009D01*
X157198571Y-32551009D02*
X156865238Y-32551009D01*
X79357142Y-49199580D02*
X79309523Y-49247200D01*
X79309523Y-49247200D02*
X79166666Y-49294819D01*
X79166666Y-49294819D02*
X79071428Y-49294819D01*
X79071428Y-49294819D02*
X78928571Y-49247200D01*
X78928571Y-49247200D02*
X78833333Y-49151961D01*
X78833333Y-49151961D02*
X78785714Y-49056723D01*
X78785714Y-49056723D02*
X78738095Y-48866247D01*
X78738095Y-48866247D02*
X78738095Y-48723390D01*
X78738095Y-48723390D02*
X78785714Y-48532914D01*
X78785714Y-48532914D02*
X78833333Y-48437676D01*
X78833333Y-48437676D02*
X78928571Y-48342438D01*
X78928571Y-48342438D02*
X79071428Y-48294819D01*
X79071428Y-48294819D02*
X79166666Y-48294819D01*
X79166666Y-48294819D02*
X79309523Y-48342438D01*
X79309523Y-48342438D02*
X79357142Y-48390057D01*
X80309523Y-49294819D02*
X79738095Y-49294819D01*
X80023809Y-49294819D02*
X80023809Y-48294819D01*
X80023809Y-48294819D02*
X79928571Y-48437676D01*
X79928571Y-48437676D02*
X79833333Y-48532914D01*
X79833333Y-48532914D02*
X79738095Y-48580533D01*
X81214285Y-48294819D02*
X80738095Y-48294819D01*
X80738095Y-48294819D02*
X80690476Y-48771009D01*
X80690476Y-48771009D02*
X80738095Y-48723390D01*
X80738095Y-48723390D02*
X80833333Y-48675771D01*
X80833333Y-48675771D02*
X81071428Y-48675771D01*
X81071428Y-48675771D02*
X81166666Y-48723390D01*
X81166666Y-48723390D02*
X81214285Y-48771009D01*
X81214285Y-48771009D02*
X81261904Y-48866247D01*
X81261904Y-48866247D02*
X81261904Y-49104342D01*
X81261904Y-49104342D02*
X81214285Y-49199580D01*
X81214285Y-49199580D02*
X81166666Y-49247200D01*
X81166666Y-49247200D02*
X81071428Y-49294819D01*
X81071428Y-49294819D02*
X80833333Y-49294819D01*
X80833333Y-49294819D02*
X80738095Y-49247200D01*
X80738095Y-49247200D02*
X80690476Y-49199580D01*
X217357142Y-78284819D02*
X217023809Y-77808628D01*
X216785714Y-78284819D02*
X216785714Y-77284819D01*
X216785714Y-77284819D02*
X217166666Y-77284819D01*
X217166666Y-77284819D02*
X217261904Y-77332438D01*
X217261904Y-77332438D02*
X217309523Y-77380057D01*
X217309523Y-77380057D02*
X217357142Y-77475295D01*
X217357142Y-77475295D02*
X217357142Y-77618152D01*
X217357142Y-77618152D02*
X217309523Y-77713390D01*
X217309523Y-77713390D02*
X217261904Y-77761009D01*
X217261904Y-77761009D02*
X217166666Y-77808628D01*
X217166666Y-77808628D02*
X216785714Y-77808628D01*
X218309523Y-78284819D02*
X217738095Y-78284819D01*
X218023809Y-78284819D02*
X218023809Y-77284819D01*
X218023809Y-77284819D02*
X217928571Y-77427676D01*
X217928571Y-77427676D02*
X217833333Y-77522914D01*
X217833333Y-77522914D02*
X217738095Y-77570533D01*
X218642857Y-77284819D02*
X219309523Y-77284819D01*
X219309523Y-77284819D02*
X218880952Y-78284819D01*
X146833333Y-67199580D02*
X146785714Y-67247200D01*
X146785714Y-67247200D02*
X146642857Y-67294819D01*
X146642857Y-67294819D02*
X146547619Y-67294819D01*
X146547619Y-67294819D02*
X146404762Y-67247200D01*
X146404762Y-67247200D02*
X146309524Y-67151961D01*
X146309524Y-67151961D02*
X146261905Y-67056723D01*
X146261905Y-67056723D02*
X146214286Y-66866247D01*
X146214286Y-66866247D02*
X146214286Y-66723390D01*
X146214286Y-66723390D02*
X146261905Y-66532914D01*
X146261905Y-66532914D02*
X146309524Y-66437676D01*
X146309524Y-66437676D02*
X146404762Y-66342438D01*
X146404762Y-66342438D02*
X146547619Y-66294819D01*
X146547619Y-66294819D02*
X146642857Y-66294819D01*
X146642857Y-66294819D02*
X146785714Y-66342438D01*
X146785714Y-66342438D02*
X146833333Y-66390057D01*
X147214286Y-66390057D02*
X147261905Y-66342438D01*
X147261905Y-66342438D02*
X147357143Y-66294819D01*
X147357143Y-66294819D02*
X147595238Y-66294819D01*
X147595238Y-66294819D02*
X147690476Y-66342438D01*
X147690476Y-66342438D02*
X147738095Y-66390057D01*
X147738095Y-66390057D02*
X147785714Y-66485295D01*
X147785714Y-66485295D02*
X147785714Y-66580533D01*
X147785714Y-66580533D02*
X147738095Y-66723390D01*
X147738095Y-66723390D02*
X147166667Y-67294819D01*
X147166667Y-67294819D02*
X147785714Y-67294819D01*
X139357142Y-101199580D02*
X139309523Y-101247200D01*
X139309523Y-101247200D02*
X139166666Y-101294819D01*
X139166666Y-101294819D02*
X139071428Y-101294819D01*
X139071428Y-101294819D02*
X138928571Y-101247200D01*
X138928571Y-101247200D02*
X138833333Y-101151961D01*
X138833333Y-101151961D02*
X138785714Y-101056723D01*
X138785714Y-101056723D02*
X138738095Y-100866247D01*
X138738095Y-100866247D02*
X138738095Y-100723390D01*
X138738095Y-100723390D02*
X138785714Y-100532914D01*
X138785714Y-100532914D02*
X138833333Y-100437676D01*
X138833333Y-100437676D02*
X138928571Y-100342438D01*
X138928571Y-100342438D02*
X139071428Y-100294819D01*
X139071428Y-100294819D02*
X139166666Y-100294819D01*
X139166666Y-100294819D02*
X139309523Y-100342438D01*
X139309523Y-100342438D02*
X139357142Y-100390057D01*
X140309523Y-101294819D02*
X139738095Y-101294819D01*
X140023809Y-101294819D02*
X140023809Y-100294819D01*
X140023809Y-100294819D02*
X139928571Y-100437676D01*
X139928571Y-100437676D02*
X139833333Y-100532914D01*
X139833333Y-100532914D02*
X139738095Y-100580533D01*
X141166666Y-100628152D02*
X141166666Y-101294819D01*
X140928571Y-100247200D02*
X140690476Y-100961485D01*
X140690476Y-100961485D02*
X141309523Y-100961485D01*
X99833333Y-124284819D02*
X99500000Y-123808628D01*
X99261905Y-124284819D02*
X99261905Y-123284819D01*
X99261905Y-123284819D02*
X99642857Y-123284819D01*
X99642857Y-123284819D02*
X99738095Y-123332438D01*
X99738095Y-123332438D02*
X99785714Y-123380057D01*
X99785714Y-123380057D02*
X99833333Y-123475295D01*
X99833333Y-123475295D02*
X99833333Y-123618152D01*
X99833333Y-123618152D02*
X99785714Y-123713390D01*
X99785714Y-123713390D02*
X99738095Y-123761009D01*
X99738095Y-123761009D02*
X99642857Y-123808628D01*
X99642857Y-123808628D02*
X99261905Y-123808628D01*
X100785714Y-124284819D02*
X100214286Y-124284819D01*
X100500000Y-124284819D02*
X100500000Y-123284819D01*
X100500000Y-123284819D02*
X100404762Y-123427676D01*
X100404762Y-123427676D02*
X100309524Y-123522914D01*
X100309524Y-123522914D02*
X100214286Y-123570533D01*
X204357142Y-45679580D02*
X204309523Y-45727200D01*
X204309523Y-45727200D02*
X204166666Y-45774819D01*
X204166666Y-45774819D02*
X204071428Y-45774819D01*
X204071428Y-45774819D02*
X203928571Y-45727200D01*
X203928571Y-45727200D02*
X203833333Y-45631961D01*
X203833333Y-45631961D02*
X203785714Y-45536723D01*
X203785714Y-45536723D02*
X203738095Y-45346247D01*
X203738095Y-45346247D02*
X203738095Y-45203390D01*
X203738095Y-45203390D02*
X203785714Y-45012914D01*
X203785714Y-45012914D02*
X203833333Y-44917676D01*
X203833333Y-44917676D02*
X203928571Y-44822438D01*
X203928571Y-44822438D02*
X204071428Y-44774819D01*
X204071428Y-44774819D02*
X204166666Y-44774819D01*
X204166666Y-44774819D02*
X204309523Y-44822438D01*
X204309523Y-44822438D02*
X204357142Y-44870057D01*
X204738095Y-44870057D02*
X204785714Y-44822438D01*
X204785714Y-44822438D02*
X204880952Y-44774819D01*
X204880952Y-44774819D02*
X205119047Y-44774819D01*
X205119047Y-44774819D02*
X205214285Y-44822438D01*
X205214285Y-44822438D02*
X205261904Y-44870057D01*
X205261904Y-44870057D02*
X205309523Y-44965295D01*
X205309523Y-44965295D02*
X205309523Y-45060533D01*
X205309523Y-45060533D02*
X205261904Y-45203390D01*
X205261904Y-45203390D02*
X204690476Y-45774819D01*
X204690476Y-45774819D02*
X205309523Y-45774819D01*
X206166666Y-45108152D02*
X206166666Y-45774819D01*
X205928571Y-44727200D02*
X205690476Y-45441485D01*
X205690476Y-45441485D02*
X206309523Y-45441485D01*
X70936666Y-37074819D02*
X70936666Y-37789104D01*
X70936666Y-37789104D02*
X70889047Y-37931961D01*
X70889047Y-37931961D02*
X70793809Y-38027200D01*
X70793809Y-38027200D02*
X70650952Y-38074819D01*
X70650952Y-38074819D02*
X70555714Y-38074819D01*
X71841428Y-37074819D02*
X71650952Y-37074819D01*
X71650952Y-37074819D02*
X71555714Y-37122438D01*
X71555714Y-37122438D02*
X71508095Y-37170057D01*
X71508095Y-37170057D02*
X71412857Y-37312914D01*
X71412857Y-37312914D02*
X71365238Y-37503390D01*
X71365238Y-37503390D02*
X71365238Y-37884342D01*
X71365238Y-37884342D02*
X71412857Y-37979580D01*
X71412857Y-37979580D02*
X71460476Y-38027200D01*
X71460476Y-38027200D02*
X71555714Y-38074819D01*
X71555714Y-38074819D02*
X71746190Y-38074819D01*
X71746190Y-38074819D02*
X71841428Y-38027200D01*
X71841428Y-38027200D02*
X71889047Y-37979580D01*
X71889047Y-37979580D02*
X71936666Y-37884342D01*
X71936666Y-37884342D02*
X71936666Y-37646247D01*
X71936666Y-37646247D02*
X71889047Y-37551009D01*
X71889047Y-37551009D02*
X71841428Y-37503390D01*
X71841428Y-37503390D02*
X71746190Y-37455771D01*
X71746190Y-37455771D02*
X71555714Y-37455771D01*
X71555714Y-37455771D02*
X71460476Y-37503390D01*
X71460476Y-37503390D02*
X71412857Y-37551009D01*
X71412857Y-37551009D02*
X71365238Y-37646247D01*
X217357142Y-69284819D02*
X217023809Y-68808628D01*
X216785714Y-69284819D02*
X216785714Y-68284819D01*
X216785714Y-68284819D02*
X217166666Y-68284819D01*
X217166666Y-68284819D02*
X217261904Y-68332438D01*
X217261904Y-68332438D02*
X217309523Y-68380057D01*
X217309523Y-68380057D02*
X217357142Y-68475295D01*
X217357142Y-68475295D02*
X217357142Y-68618152D01*
X217357142Y-68618152D02*
X217309523Y-68713390D01*
X217309523Y-68713390D02*
X217261904Y-68761009D01*
X217261904Y-68761009D02*
X217166666Y-68808628D01*
X217166666Y-68808628D02*
X216785714Y-68808628D01*
X218309523Y-69284819D02*
X217738095Y-69284819D01*
X218023809Y-69284819D02*
X218023809Y-68284819D01*
X218023809Y-68284819D02*
X217928571Y-68427676D01*
X217928571Y-68427676D02*
X217833333Y-68522914D01*
X217833333Y-68522914D02*
X217738095Y-68570533D01*
X219166666Y-68618152D02*
X219166666Y-69284819D01*
X218928571Y-68237200D02*
X218690476Y-68951485D01*
X218690476Y-68951485D02*
X219309523Y-68951485D01*
X103833333Y-124284819D02*
X103500000Y-123808628D01*
X103261905Y-124284819D02*
X103261905Y-123284819D01*
X103261905Y-123284819D02*
X103642857Y-123284819D01*
X103642857Y-123284819D02*
X103738095Y-123332438D01*
X103738095Y-123332438D02*
X103785714Y-123380057D01*
X103785714Y-123380057D02*
X103833333Y-123475295D01*
X103833333Y-123475295D02*
X103833333Y-123618152D01*
X103833333Y-123618152D02*
X103785714Y-123713390D01*
X103785714Y-123713390D02*
X103738095Y-123761009D01*
X103738095Y-123761009D02*
X103642857Y-123808628D01*
X103642857Y-123808628D02*
X103261905Y-123808628D01*
X104214286Y-123380057D02*
X104261905Y-123332438D01*
X104261905Y-123332438D02*
X104357143Y-123284819D01*
X104357143Y-123284819D02*
X104595238Y-123284819D01*
X104595238Y-123284819D02*
X104690476Y-123332438D01*
X104690476Y-123332438D02*
X104738095Y-123380057D01*
X104738095Y-123380057D02*
X104785714Y-123475295D01*
X104785714Y-123475295D02*
X104785714Y-123570533D01*
X104785714Y-123570533D02*
X104738095Y-123713390D01*
X104738095Y-123713390D02*
X104166667Y-124284819D01*
X104166667Y-124284819D02*
X104785714Y-124284819D01*
X140357142Y-124284819D02*
X140023809Y-123808628D01*
X139785714Y-124284819D02*
X139785714Y-123284819D01*
X139785714Y-123284819D02*
X140166666Y-123284819D01*
X140166666Y-123284819D02*
X140261904Y-123332438D01*
X140261904Y-123332438D02*
X140309523Y-123380057D01*
X140309523Y-123380057D02*
X140357142Y-123475295D01*
X140357142Y-123475295D02*
X140357142Y-123618152D01*
X140357142Y-123618152D02*
X140309523Y-123713390D01*
X140309523Y-123713390D02*
X140261904Y-123761009D01*
X140261904Y-123761009D02*
X140166666Y-123808628D01*
X140166666Y-123808628D02*
X139785714Y-123808628D01*
X141309523Y-124284819D02*
X140738095Y-124284819D01*
X141023809Y-124284819D02*
X141023809Y-123284819D01*
X141023809Y-123284819D02*
X140928571Y-123427676D01*
X140928571Y-123427676D02*
X140833333Y-123522914D01*
X140833333Y-123522914D02*
X140738095Y-123570533D01*
X141928571Y-123284819D02*
X142023809Y-123284819D01*
X142023809Y-123284819D02*
X142119047Y-123332438D01*
X142119047Y-123332438D02*
X142166666Y-123380057D01*
X142166666Y-123380057D02*
X142214285Y-123475295D01*
X142214285Y-123475295D02*
X142261904Y-123665771D01*
X142261904Y-123665771D02*
X142261904Y-123903866D01*
X142261904Y-123903866D02*
X142214285Y-124094342D01*
X142214285Y-124094342D02*
X142166666Y-124189580D01*
X142166666Y-124189580D02*
X142119047Y-124237200D01*
X142119047Y-124237200D02*
X142023809Y-124284819D01*
X142023809Y-124284819D02*
X141928571Y-124284819D01*
X141928571Y-124284819D02*
X141833333Y-124237200D01*
X141833333Y-124237200D02*
X141785714Y-124189580D01*
X141785714Y-124189580D02*
X141738095Y-124094342D01*
X141738095Y-124094342D02*
X141690476Y-123903866D01*
X141690476Y-123903866D02*
X141690476Y-123665771D01*
X141690476Y-123665771D02*
X141738095Y-123475295D01*
X141738095Y-123475295D02*
X141785714Y-123380057D01*
X141785714Y-123380057D02*
X141833333Y-123332438D01*
X141833333Y-123332438D02*
X141928571Y-123284819D01*
X107833333Y-124284819D02*
X107500000Y-123808628D01*
X107261905Y-124284819D02*
X107261905Y-123284819D01*
X107261905Y-123284819D02*
X107642857Y-123284819D01*
X107642857Y-123284819D02*
X107738095Y-123332438D01*
X107738095Y-123332438D02*
X107785714Y-123380057D01*
X107785714Y-123380057D02*
X107833333Y-123475295D01*
X107833333Y-123475295D02*
X107833333Y-123618152D01*
X107833333Y-123618152D02*
X107785714Y-123713390D01*
X107785714Y-123713390D02*
X107738095Y-123761009D01*
X107738095Y-123761009D02*
X107642857Y-123808628D01*
X107642857Y-123808628D02*
X107261905Y-123808628D01*
X108166667Y-123284819D02*
X108785714Y-123284819D01*
X108785714Y-123284819D02*
X108452381Y-123665771D01*
X108452381Y-123665771D02*
X108595238Y-123665771D01*
X108595238Y-123665771D02*
X108690476Y-123713390D01*
X108690476Y-123713390D02*
X108738095Y-123761009D01*
X108738095Y-123761009D02*
X108785714Y-123856247D01*
X108785714Y-123856247D02*
X108785714Y-124094342D01*
X108785714Y-124094342D02*
X108738095Y-124189580D01*
X108738095Y-124189580D02*
X108690476Y-124237200D01*
X108690476Y-124237200D02*
X108595238Y-124284819D01*
X108595238Y-124284819D02*
X108309524Y-124284819D01*
X108309524Y-124284819D02*
X108214286Y-124237200D01*
X108214286Y-124237200D02*
X108166667Y-124189580D01*
X194357142Y-53679580D02*
X194309523Y-53727200D01*
X194309523Y-53727200D02*
X194166666Y-53774819D01*
X194166666Y-53774819D02*
X194071428Y-53774819D01*
X194071428Y-53774819D02*
X193928571Y-53727200D01*
X193928571Y-53727200D02*
X193833333Y-53631961D01*
X193833333Y-53631961D02*
X193785714Y-53536723D01*
X193785714Y-53536723D02*
X193738095Y-53346247D01*
X193738095Y-53346247D02*
X193738095Y-53203390D01*
X193738095Y-53203390D02*
X193785714Y-53012914D01*
X193785714Y-53012914D02*
X193833333Y-52917676D01*
X193833333Y-52917676D02*
X193928571Y-52822438D01*
X193928571Y-52822438D02*
X194071428Y-52774819D01*
X194071428Y-52774819D02*
X194166666Y-52774819D01*
X194166666Y-52774819D02*
X194309523Y-52822438D01*
X194309523Y-52822438D02*
X194357142Y-52870057D01*
X194738095Y-52870057D02*
X194785714Y-52822438D01*
X194785714Y-52822438D02*
X194880952Y-52774819D01*
X194880952Y-52774819D02*
X195119047Y-52774819D01*
X195119047Y-52774819D02*
X195214285Y-52822438D01*
X195214285Y-52822438D02*
X195261904Y-52870057D01*
X195261904Y-52870057D02*
X195309523Y-52965295D01*
X195309523Y-52965295D02*
X195309523Y-53060533D01*
X195309523Y-53060533D02*
X195261904Y-53203390D01*
X195261904Y-53203390D02*
X194690476Y-53774819D01*
X194690476Y-53774819D02*
X195309523Y-53774819D01*
X195642857Y-52774819D02*
X196261904Y-52774819D01*
X196261904Y-52774819D02*
X195928571Y-53155771D01*
X195928571Y-53155771D02*
X196071428Y-53155771D01*
X196071428Y-53155771D02*
X196166666Y-53203390D01*
X196166666Y-53203390D02*
X196214285Y-53251009D01*
X196214285Y-53251009D02*
X196261904Y-53346247D01*
X196261904Y-53346247D02*
X196261904Y-53584342D01*
X196261904Y-53584342D02*
X196214285Y-53679580D01*
X196214285Y-53679580D02*
X196166666Y-53727200D01*
X196166666Y-53727200D02*
X196071428Y-53774819D01*
X196071428Y-53774819D02*
X195785714Y-53774819D01*
X195785714Y-53774819D02*
X195690476Y-53727200D01*
X195690476Y-53727200D02*
X195642857Y-53679580D01*
X129833333Y-49199580D02*
X129785714Y-49247200D01*
X129785714Y-49247200D02*
X129642857Y-49294819D01*
X129642857Y-49294819D02*
X129547619Y-49294819D01*
X129547619Y-49294819D02*
X129404762Y-49247200D01*
X129404762Y-49247200D02*
X129309524Y-49151961D01*
X129309524Y-49151961D02*
X129261905Y-49056723D01*
X129261905Y-49056723D02*
X129214286Y-48866247D01*
X129214286Y-48866247D02*
X129214286Y-48723390D01*
X129214286Y-48723390D02*
X129261905Y-48532914D01*
X129261905Y-48532914D02*
X129309524Y-48437676D01*
X129309524Y-48437676D02*
X129404762Y-48342438D01*
X129404762Y-48342438D02*
X129547619Y-48294819D01*
X129547619Y-48294819D02*
X129642857Y-48294819D01*
X129642857Y-48294819D02*
X129785714Y-48342438D01*
X129785714Y-48342438D02*
X129833333Y-48390057D01*
X130309524Y-49294819D02*
X130500000Y-49294819D01*
X130500000Y-49294819D02*
X130595238Y-49247200D01*
X130595238Y-49247200D02*
X130642857Y-49199580D01*
X130642857Y-49199580D02*
X130738095Y-49056723D01*
X130738095Y-49056723D02*
X130785714Y-48866247D01*
X130785714Y-48866247D02*
X130785714Y-48485295D01*
X130785714Y-48485295D02*
X130738095Y-48390057D01*
X130738095Y-48390057D02*
X130690476Y-48342438D01*
X130690476Y-48342438D02*
X130595238Y-48294819D01*
X130595238Y-48294819D02*
X130404762Y-48294819D01*
X130404762Y-48294819D02*
X130309524Y-48342438D01*
X130309524Y-48342438D02*
X130261905Y-48390057D01*
X130261905Y-48390057D02*
X130214286Y-48485295D01*
X130214286Y-48485295D02*
X130214286Y-48723390D01*
X130214286Y-48723390D02*
X130261905Y-48818628D01*
X130261905Y-48818628D02*
X130309524Y-48866247D01*
X130309524Y-48866247D02*
X130404762Y-48913866D01*
X130404762Y-48913866D02*
X130595238Y-48913866D01*
X130595238Y-48913866D02*
X130690476Y-48866247D01*
X130690476Y-48866247D02*
X130738095Y-48818628D01*
X130738095Y-48818628D02*
X130785714Y-48723390D01*
X139833333Y-82199580D02*
X139785714Y-82247200D01*
X139785714Y-82247200D02*
X139642857Y-82294819D01*
X139642857Y-82294819D02*
X139547619Y-82294819D01*
X139547619Y-82294819D02*
X139404762Y-82247200D01*
X139404762Y-82247200D02*
X139309524Y-82151961D01*
X139309524Y-82151961D02*
X139261905Y-82056723D01*
X139261905Y-82056723D02*
X139214286Y-81866247D01*
X139214286Y-81866247D02*
X139214286Y-81723390D01*
X139214286Y-81723390D02*
X139261905Y-81532914D01*
X139261905Y-81532914D02*
X139309524Y-81437676D01*
X139309524Y-81437676D02*
X139404762Y-81342438D01*
X139404762Y-81342438D02*
X139547619Y-81294819D01*
X139547619Y-81294819D02*
X139642857Y-81294819D01*
X139642857Y-81294819D02*
X139785714Y-81342438D01*
X139785714Y-81342438D02*
X139833333Y-81390057D01*
X140404762Y-81723390D02*
X140309524Y-81675771D01*
X140309524Y-81675771D02*
X140261905Y-81628152D01*
X140261905Y-81628152D02*
X140214286Y-81532914D01*
X140214286Y-81532914D02*
X140214286Y-81485295D01*
X140214286Y-81485295D02*
X140261905Y-81390057D01*
X140261905Y-81390057D02*
X140309524Y-81342438D01*
X140309524Y-81342438D02*
X140404762Y-81294819D01*
X140404762Y-81294819D02*
X140595238Y-81294819D01*
X140595238Y-81294819D02*
X140690476Y-81342438D01*
X140690476Y-81342438D02*
X140738095Y-81390057D01*
X140738095Y-81390057D02*
X140785714Y-81485295D01*
X140785714Y-81485295D02*
X140785714Y-81532914D01*
X140785714Y-81532914D02*
X140738095Y-81628152D01*
X140738095Y-81628152D02*
X140690476Y-81675771D01*
X140690476Y-81675771D02*
X140595238Y-81723390D01*
X140595238Y-81723390D02*
X140404762Y-81723390D01*
X140404762Y-81723390D02*
X140309524Y-81771009D01*
X140309524Y-81771009D02*
X140261905Y-81818628D01*
X140261905Y-81818628D02*
X140214286Y-81913866D01*
X140214286Y-81913866D02*
X140214286Y-82104342D01*
X140214286Y-82104342D02*
X140261905Y-82199580D01*
X140261905Y-82199580D02*
X140309524Y-82247200D01*
X140309524Y-82247200D02*
X140404762Y-82294819D01*
X140404762Y-82294819D02*
X140595238Y-82294819D01*
X140595238Y-82294819D02*
X140690476Y-82247200D01*
X140690476Y-82247200D02*
X140738095Y-82199580D01*
X140738095Y-82199580D02*
X140785714Y-82104342D01*
X140785714Y-82104342D02*
X140785714Y-81913866D01*
X140785714Y-81913866D02*
X140738095Y-81818628D01*
X140738095Y-81818628D02*
X140690476Y-81771009D01*
X140690476Y-81771009D02*
X140595238Y-81723390D01*
X115833333Y-124284819D02*
X115500000Y-123808628D01*
X115261905Y-124284819D02*
X115261905Y-123284819D01*
X115261905Y-123284819D02*
X115642857Y-123284819D01*
X115642857Y-123284819D02*
X115738095Y-123332438D01*
X115738095Y-123332438D02*
X115785714Y-123380057D01*
X115785714Y-123380057D02*
X115833333Y-123475295D01*
X115833333Y-123475295D02*
X115833333Y-123618152D01*
X115833333Y-123618152D02*
X115785714Y-123713390D01*
X115785714Y-123713390D02*
X115738095Y-123761009D01*
X115738095Y-123761009D02*
X115642857Y-123808628D01*
X115642857Y-123808628D02*
X115261905Y-123808628D01*
X116738095Y-123284819D02*
X116261905Y-123284819D01*
X116261905Y-123284819D02*
X116214286Y-123761009D01*
X116214286Y-123761009D02*
X116261905Y-123713390D01*
X116261905Y-123713390D02*
X116357143Y-123665771D01*
X116357143Y-123665771D02*
X116595238Y-123665771D01*
X116595238Y-123665771D02*
X116690476Y-123713390D01*
X116690476Y-123713390D02*
X116738095Y-123761009D01*
X116738095Y-123761009D02*
X116785714Y-123856247D01*
X116785714Y-123856247D02*
X116785714Y-124094342D01*
X116785714Y-124094342D02*
X116738095Y-124189580D01*
X116738095Y-124189580D02*
X116690476Y-124237200D01*
X116690476Y-124237200D02*
X116595238Y-124284819D01*
X116595238Y-124284819D02*
X116357143Y-124284819D01*
X116357143Y-124284819D02*
X116261905Y-124237200D01*
X116261905Y-124237200D02*
X116214286Y-124189580D01*
X149833333Y-74199580D02*
X149785714Y-74247200D01*
X149785714Y-74247200D02*
X149642857Y-74294819D01*
X149642857Y-74294819D02*
X149547619Y-74294819D01*
X149547619Y-74294819D02*
X149404762Y-74247200D01*
X149404762Y-74247200D02*
X149309524Y-74151961D01*
X149309524Y-74151961D02*
X149261905Y-74056723D01*
X149261905Y-74056723D02*
X149214286Y-73866247D01*
X149214286Y-73866247D02*
X149214286Y-73723390D01*
X149214286Y-73723390D02*
X149261905Y-73532914D01*
X149261905Y-73532914D02*
X149309524Y-73437676D01*
X149309524Y-73437676D02*
X149404762Y-73342438D01*
X149404762Y-73342438D02*
X149547619Y-73294819D01*
X149547619Y-73294819D02*
X149642857Y-73294819D01*
X149642857Y-73294819D02*
X149785714Y-73342438D01*
X149785714Y-73342438D02*
X149833333Y-73390057D01*
X150690476Y-73294819D02*
X150500000Y-73294819D01*
X150500000Y-73294819D02*
X150404762Y-73342438D01*
X150404762Y-73342438D02*
X150357143Y-73390057D01*
X150357143Y-73390057D02*
X150261905Y-73532914D01*
X150261905Y-73532914D02*
X150214286Y-73723390D01*
X150214286Y-73723390D02*
X150214286Y-74104342D01*
X150214286Y-74104342D02*
X150261905Y-74199580D01*
X150261905Y-74199580D02*
X150309524Y-74247200D01*
X150309524Y-74247200D02*
X150404762Y-74294819D01*
X150404762Y-74294819D02*
X150595238Y-74294819D01*
X150595238Y-74294819D02*
X150690476Y-74247200D01*
X150690476Y-74247200D02*
X150738095Y-74199580D01*
X150738095Y-74199580D02*
X150785714Y-74104342D01*
X150785714Y-74104342D02*
X150785714Y-73866247D01*
X150785714Y-73866247D02*
X150738095Y-73771009D01*
X150738095Y-73771009D02*
X150690476Y-73723390D01*
X150690476Y-73723390D02*
X150595238Y-73675771D01*
X150595238Y-73675771D02*
X150404762Y-73675771D01*
X150404762Y-73675771D02*
X150309524Y-73723390D01*
X150309524Y-73723390D02*
X150261905Y-73771009D01*
X150261905Y-73771009D02*
X150214286Y-73866247D01*
X128833333Y-124284819D02*
X128500000Y-123808628D01*
X128261905Y-124284819D02*
X128261905Y-123284819D01*
X128261905Y-123284819D02*
X128642857Y-123284819D01*
X128642857Y-123284819D02*
X128738095Y-123332438D01*
X128738095Y-123332438D02*
X128785714Y-123380057D01*
X128785714Y-123380057D02*
X128833333Y-123475295D01*
X128833333Y-123475295D02*
X128833333Y-123618152D01*
X128833333Y-123618152D02*
X128785714Y-123713390D01*
X128785714Y-123713390D02*
X128738095Y-123761009D01*
X128738095Y-123761009D02*
X128642857Y-123808628D01*
X128642857Y-123808628D02*
X128261905Y-123808628D01*
X129166667Y-123284819D02*
X129833333Y-123284819D01*
X129833333Y-123284819D02*
X129404762Y-124284819D01*
X198761905Y-49954819D02*
X198761905Y-50764342D01*
X198761905Y-50764342D02*
X198809524Y-50859580D01*
X198809524Y-50859580D02*
X198857143Y-50907200D01*
X198857143Y-50907200D02*
X198952381Y-50954819D01*
X198952381Y-50954819D02*
X199142857Y-50954819D01*
X199142857Y-50954819D02*
X199238095Y-50907200D01*
X199238095Y-50907200D02*
X199285714Y-50859580D01*
X199285714Y-50859580D02*
X199333333Y-50764342D01*
X199333333Y-50764342D02*
X199333333Y-49954819D01*
X200333333Y-50954819D02*
X199761905Y-50954819D01*
X200047619Y-50954819D02*
X200047619Y-49954819D01*
X200047619Y-49954819D02*
X199952381Y-50097676D01*
X199952381Y-50097676D02*
X199857143Y-50192914D01*
X199857143Y-50192914D02*
X199761905Y-50240533D01*
X200952381Y-49954819D02*
X201047619Y-49954819D01*
X201047619Y-49954819D02*
X201142857Y-50002438D01*
X201142857Y-50002438D02*
X201190476Y-50050057D01*
X201190476Y-50050057D02*
X201238095Y-50145295D01*
X201238095Y-50145295D02*
X201285714Y-50335771D01*
X201285714Y-50335771D02*
X201285714Y-50573866D01*
X201285714Y-50573866D02*
X201238095Y-50764342D01*
X201238095Y-50764342D02*
X201190476Y-50859580D01*
X201190476Y-50859580D02*
X201142857Y-50907200D01*
X201142857Y-50907200D02*
X201047619Y-50954819D01*
X201047619Y-50954819D02*
X200952381Y-50954819D01*
X200952381Y-50954819D02*
X200857143Y-50907200D01*
X200857143Y-50907200D02*
X200809524Y-50859580D01*
X200809524Y-50859580D02*
X200761905Y-50764342D01*
X200761905Y-50764342D02*
X200714286Y-50573866D01*
X200714286Y-50573866D02*
X200714286Y-50335771D01*
X200714286Y-50335771D02*
X200761905Y-50145295D01*
X200761905Y-50145295D02*
X200809524Y-50050057D01*
X200809524Y-50050057D02*
X200857143Y-50002438D01*
X200857143Y-50002438D02*
X200952381Y-49954819D01*
X69357142Y-34284819D02*
X69023809Y-33808628D01*
X68785714Y-34284819D02*
X68785714Y-33284819D01*
X68785714Y-33284819D02*
X69166666Y-33284819D01*
X69166666Y-33284819D02*
X69261904Y-33332438D01*
X69261904Y-33332438D02*
X69309523Y-33380057D01*
X69309523Y-33380057D02*
X69357142Y-33475295D01*
X69357142Y-33475295D02*
X69357142Y-33618152D01*
X69357142Y-33618152D02*
X69309523Y-33713390D01*
X69309523Y-33713390D02*
X69261904Y-33761009D01*
X69261904Y-33761009D02*
X69166666Y-33808628D01*
X69166666Y-33808628D02*
X68785714Y-33808628D01*
X70309523Y-34284819D02*
X69738095Y-34284819D01*
X70023809Y-34284819D02*
X70023809Y-33284819D01*
X70023809Y-33284819D02*
X69928571Y-33427676D01*
X69928571Y-33427676D02*
X69833333Y-33522914D01*
X69833333Y-33522914D02*
X69738095Y-33570533D01*
X71261904Y-34284819D02*
X70690476Y-34284819D01*
X70976190Y-34284819D02*
X70976190Y-33284819D01*
X70976190Y-33284819D02*
X70880952Y-33427676D01*
X70880952Y-33427676D02*
X70785714Y-33522914D01*
X70785714Y-33522914D02*
X70690476Y-33570533D01*
X164238095Y-51054819D02*
X164238095Y-51864342D01*
X164238095Y-51864342D02*
X164285714Y-51959580D01*
X164285714Y-51959580D02*
X164333333Y-52007200D01*
X164333333Y-52007200D02*
X164428571Y-52054819D01*
X164428571Y-52054819D02*
X164619047Y-52054819D01*
X164619047Y-52054819D02*
X164714285Y-52007200D01*
X164714285Y-52007200D02*
X164761904Y-51959580D01*
X164761904Y-51959580D02*
X164809523Y-51864342D01*
X164809523Y-51864342D02*
X164809523Y-51054819D01*
X165714285Y-51054819D02*
X165523809Y-51054819D01*
X165523809Y-51054819D02*
X165428571Y-51102438D01*
X165428571Y-51102438D02*
X165380952Y-51150057D01*
X165380952Y-51150057D02*
X165285714Y-51292914D01*
X165285714Y-51292914D02*
X165238095Y-51483390D01*
X165238095Y-51483390D02*
X165238095Y-51864342D01*
X165238095Y-51864342D02*
X165285714Y-51959580D01*
X165285714Y-51959580D02*
X165333333Y-52007200D01*
X165333333Y-52007200D02*
X165428571Y-52054819D01*
X165428571Y-52054819D02*
X165619047Y-52054819D01*
X165619047Y-52054819D02*
X165714285Y-52007200D01*
X165714285Y-52007200D02*
X165761904Y-51959580D01*
X165761904Y-51959580D02*
X165809523Y-51864342D01*
X165809523Y-51864342D02*
X165809523Y-51626247D01*
X165809523Y-51626247D02*
X165761904Y-51531009D01*
X165761904Y-51531009D02*
X165714285Y-51483390D01*
X165714285Y-51483390D02*
X165619047Y-51435771D01*
X165619047Y-51435771D02*
X165428571Y-51435771D01*
X165428571Y-51435771D02*
X165333333Y-51483390D01*
X165333333Y-51483390D02*
X165285714Y-51531009D01*
X165285714Y-51531009D02*
X165238095Y-51626247D01*
X94357142Y-109199580D02*
X94309523Y-109247200D01*
X94309523Y-109247200D02*
X94166666Y-109294819D01*
X94166666Y-109294819D02*
X94071428Y-109294819D01*
X94071428Y-109294819D02*
X93928571Y-109247200D01*
X93928571Y-109247200D02*
X93833333Y-109151961D01*
X93833333Y-109151961D02*
X93785714Y-109056723D01*
X93785714Y-109056723D02*
X93738095Y-108866247D01*
X93738095Y-108866247D02*
X93738095Y-108723390D01*
X93738095Y-108723390D02*
X93785714Y-108532914D01*
X93785714Y-108532914D02*
X93833333Y-108437676D01*
X93833333Y-108437676D02*
X93928571Y-108342438D01*
X93928571Y-108342438D02*
X94071428Y-108294819D01*
X94071428Y-108294819D02*
X94166666Y-108294819D01*
X94166666Y-108294819D02*
X94309523Y-108342438D01*
X94309523Y-108342438D02*
X94357142Y-108390057D01*
X95309523Y-109294819D02*
X94738095Y-109294819D01*
X95023809Y-109294819D02*
X95023809Y-108294819D01*
X95023809Y-108294819D02*
X94928571Y-108437676D01*
X94928571Y-108437676D02*
X94833333Y-108532914D01*
X94833333Y-108532914D02*
X94738095Y-108580533D01*
X95880952Y-108723390D02*
X95785714Y-108675771D01*
X95785714Y-108675771D02*
X95738095Y-108628152D01*
X95738095Y-108628152D02*
X95690476Y-108532914D01*
X95690476Y-108532914D02*
X95690476Y-108485295D01*
X95690476Y-108485295D02*
X95738095Y-108390057D01*
X95738095Y-108390057D02*
X95785714Y-108342438D01*
X95785714Y-108342438D02*
X95880952Y-108294819D01*
X95880952Y-108294819D02*
X96071428Y-108294819D01*
X96071428Y-108294819D02*
X96166666Y-108342438D01*
X96166666Y-108342438D02*
X96214285Y-108390057D01*
X96214285Y-108390057D02*
X96261904Y-108485295D01*
X96261904Y-108485295D02*
X96261904Y-108532914D01*
X96261904Y-108532914D02*
X96214285Y-108628152D01*
X96214285Y-108628152D02*
X96166666Y-108675771D01*
X96166666Y-108675771D02*
X96071428Y-108723390D01*
X96071428Y-108723390D02*
X95880952Y-108723390D01*
X95880952Y-108723390D02*
X95785714Y-108771009D01*
X95785714Y-108771009D02*
X95738095Y-108818628D01*
X95738095Y-108818628D02*
X95690476Y-108913866D01*
X95690476Y-108913866D02*
X95690476Y-109104342D01*
X95690476Y-109104342D02*
X95738095Y-109199580D01*
X95738095Y-109199580D02*
X95785714Y-109247200D01*
X95785714Y-109247200D02*
X95880952Y-109294819D01*
X95880952Y-109294819D02*
X96071428Y-109294819D01*
X96071428Y-109294819D02*
X96166666Y-109247200D01*
X96166666Y-109247200D02*
X96214285Y-109199580D01*
X96214285Y-109199580D02*
X96261904Y-109104342D01*
X96261904Y-109104342D02*
X96261904Y-108913866D01*
X96261904Y-108913866D02*
X96214285Y-108818628D01*
X96214285Y-108818628D02*
X96166666Y-108771009D01*
X96166666Y-108771009D02*
X96071428Y-108723390D01*
X79357142Y-34284819D02*
X79023809Y-33808628D01*
X78785714Y-34284819D02*
X78785714Y-33284819D01*
X78785714Y-33284819D02*
X79166666Y-33284819D01*
X79166666Y-33284819D02*
X79261904Y-33332438D01*
X79261904Y-33332438D02*
X79309523Y-33380057D01*
X79309523Y-33380057D02*
X79357142Y-33475295D01*
X79357142Y-33475295D02*
X79357142Y-33618152D01*
X79357142Y-33618152D02*
X79309523Y-33713390D01*
X79309523Y-33713390D02*
X79261904Y-33761009D01*
X79261904Y-33761009D02*
X79166666Y-33808628D01*
X79166666Y-33808628D02*
X78785714Y-33808628D01*
X80309523Y-34284819D02*
X79738095Y-34284819D01*
X80023809Y-34284819D02*
X80023809Y-33284819D01*
X80023809Y-33284819D02*
X79928571Y-33427676D01*
X79928571Y-33427676D02*
X79833333Y-33522914D01*
X79833333Y-33522914D02*
X79738095Y-33570533D01*
X80642857Y-33284819D02*
X81261904Y-33284819D01*
X81261904Y-33284819D02*
X80928571Y-33665771D01*
X80928571Y-33665771D02*
X81071428Y-33665771D01*
X81071428Y-33665771D02*
X81166666Y-33713390D01*
X81166666Y-33713390D02*
X81214285Y-33761009D01*
X81214285Y-33761009D02*
X81261904Y-33856247D01*
X81261904Y-33856247D02*
X81261904Y-34094342D01*
X81261904Y-34094342D02*
X81214285Y-34189580D01*
X81214285Y-34189580D02*
X81166666Y-34237200D01*
X81166666Y-34237200D02*
X81071428Y-34284819D01*
X81071428Y-34284819D02*
X80785714Y-34284819D01*
X80785714Y-34284819D02*
X80690476Y-34237200D01*
X80690476Y-34237200D02*
X80642857Y-34189580D01*
X139833333Y-66199580D02*
X139785714Y-66247200D01*
X139785714Y-66247200D02*
X139642857Y-66294819D01*
X139642857Y-66294819D02*
X139547619Y-66294819D01*
X139547619Y-66294819D02*
X139404762Y-66247200D01*
X139404762Y-66247200D02*
X139309524Y-66151961D01*
X139309524Y-66151961D02*
X139261905Y-66056723D01*
X139261905Y-66056723D02*
X139214286Y-65866247D01*
X139214286Y-65866247D02*
X139214286Y-65723390D01*
X139214286Y-65723390D02*
X139261905Y-65532914D01*
X139261905Y-65532914D02*
X139309524Y-65437676D01*
X139309524Y-65437676D02*
X139404762Y-65342438D01*
X139404762Y-65342438D02*
X139547619Y-65294819D01*
X139547619Y-65294819D02*
X139642857Y-65294819D01*
X139642857Y-65294819D02*
X139785714Y-65342438D01*
X139785714Y-65342438D02*
X139833333Y-65390057D01*
X140166667Y-65294819D02*
X140833333Y-65294819D01*
X140833333Y-65294819D02*
X140404762Y-66294819D01*
X132833333Y-124284819D02*
X132500000Y-123808628D01*
X132261905Y-124284819D02*
X132261905Y-123284819D01*
X132261905Y-123284819D02*
X132642857Y-123284819D01*
X132642857Y-123284819D02*
X132738095Y-123332438D01*
X132738095Y-123332438D02*
X132785714Y-123380057D01*
X132785714Y-123380057D02*
X132833333Y-123475295D01*
X132833333Y-123475295D02*
X132833333Y-123618152D01*
X132833333Y-123618152D02*
X132785714Y-123713390D01*
X132785714Y-123713390D02*
X132738095Y-123761009D01*
X132738095Y-123761009D02*
X132642857Y-123808628D01*
X132642857Y-123808628D02*
X132261905Y-123808628D01*
X133404762Y-123713390D02*
X133309524Y-123665771D01*
X133309524Y-123665771D02*
X133261905Y-123618152D01*
X133261905Y-123618152D02*
X133214286Y-123522914D01*
X133214286Y-123522914D02*
X133214286Y-123475295D01*
X133214286Y-123475295D02*
X133261905Y-123380057D01*
X133261905Y-123380057D02*
X133309524Y-123332438D01*
X133309524Y-123332438D02*
X133404762Y-123284819D01*
X133404762Y-123284819D02*
X133595238Y-123284819D01*
X133595238Y-123284819D02*
X133690476Y-123332438D01*
X133690476Y-123332438D02*
X133738095Y-123380057D01*
X133738095Y-123380057D02*
X133785714Y-123475295D01*
X133785714Y-123475295D02*
X133785714Y-123522914D01*
X133785714Y-123522914D02*
X133738095Y-123618152D01*
X133738095Y-123618152D02*
X133690476Y-123665771D01*
X133690476Y-123665771D02*
X133595238Y-123713390D01*
X133595238Y-123713390D02*
X133404762Y-123713390D01*
X133404762Y-123713390D02*
X133309524Y-123761009D01*
X133309524Y-123761009D02*
X133261905Y-123808628D01*
X133261905Y-123808628D02*
X133214286Y-123903866D01*
X133214286Y-123903866D02*
X133214286Y-124094342D01*
X133214286Y-124094342D02*
X133261905Y-124189580D01*
X133261905Y-124189580D02*
X133309524Y-124237200D01*
X133309524Y-124237200D02*
X133404762Y-124284819D01*
X133404762Y-124284819D02*
X133595238Y-124284819D01*
X133595238Y-124284819D02*
X133690476Y-124237200D01*
X133690476Y-124237200D02*
X133738095Y-124189580D01*
X133738095Y-124189580D02*
X133785714Y-124094342D01*
X133785714Y-124094342D02*
X133785714Y-123903866D01*
X133785714Y-123903866D02*
X133738095Y-123808628D01*
X133738095Y-123808628D02*
X133690476Y-123761009D01*
X133690476Y-123761009D02*
X133595238Y-123713390D01*
X159357142Y-51199580D02*
X159309523Y-51247200D01*
X159309523Y-51247200D02*
X159166666Y-51294819D01*
X159166666Y-51294819D02*
X159071428Y-51294819D01*
X159071428Y-51294819D02*
X158928571Y-51247200D01*
X158928571Y-51247200D02*
X158833333Y-51151961D01*
X158833333Y-51151961D02*
X158785714Y-51056723D01*
X158785714Y-51056723D02*
X158738095Y-50866247D01*
X158738095Y-50866247D02*
X158738095Y-50723390D01*
X158738095Y-50723390D02*
X158785714Y-50532914D01*
X158785714Y-50532914D02*
X158833333Y-50437676D01*
X158833333Y-50437676D02*
X158928571Y-50342438D01*
X158928571Y-50342438D02*
X159071428Y-50294819D01*
X159071428Y-50294819D02*
X159166666Y-50294819D01*
X159166666Y-50294819D02*
X159309523Y-50342438D01*
X159309523Y-50342438D02*
X159357142Y-50390057D01*
X159738095Y-50390057D02*
X159785714Y-50342438D01*
X159785714Y-50342438D02*
X159880952Y-50294819D01*
X159880952Y-50294819D02*
X160119047Y-50294819D01*
X160119047Y-50294819D02*
X160214285Y-50342438D01*
X160214285Y-50342438D02*
X160261904Y-50390057D01*
X160261904Y-50390057D02*
X160309523Y-50485295D01*
X160309523Y-50485295D02*
X160309523Y-50580533D01*
X160309523Y-50580533D02*
X160261904Y-50723390D01*
X160261904Y-50723390D02*
X159690476Y-51294819D01*
X159690476Y-51294819D02*
X160309523Y-51294819D01*
X161261904Y-51294819D02*
X160690476Y-51294819D01*
X160976190Y-51294819D02*
X160976190Y-50294819D01*
X160976190Y-50294819D02*
X160880952Y-50437676D01*
X160880952Y-50437676D02*
X160785714Y-50532914D01*
X160785714Y-50532914D02*
X160690476Y-50580533D01*
X209666666Y-90954819D02*
X209666666Y-91669104D01*
X209666666Y-91669104D02*
X209619047Y-91811961D01*
X209619047Y-91811961D02*
X209523809Y-91907200D01*
X209523809Y-91907200D02*
X209380952Y-91954819D01*
X209380952Y-91954819D02*
X209285714Y-91954819D01*
X210571428Y-91288152D02*
X210571428Y-91954819D01*
X210333333Y-90907200D02*
X210095238Y-91621485D01*
X210095238Y-91621485D02*
X210714285Y-91621485D01*
X219654819Y-72358333D02*
X220369104Y-72358333D01*
X220369104Y-72358333D02*
X220511961Y-72405952D01*
X220511961Y-72405952D02*
X220607200Y-72501190D01*
X220607200Y-72501190D02*
X220654819Y-72644047D01*
X220654819Y-72644047D02*
X220654819Y-72739285D01*
X219654819Y-71977380D02*
X219654819Y-71358333D01*
X219654819Y-71358333D02*
X220035771Y-71691666D01*
X220035771Y-71691666D02*
X220035771Y-71548809D01*
X220035771Y-71548809D02*
X220083390Y-71453571D01*
X220083390Y-71453571D02*
X220131009Y-71405952D01*
X220131009Y-71405952D02*
X220226247Y-71358333D01*
X220226247Y-71358333D02*
X220464342Y-71358333D01*
X220464342Y-71358333D02*
X220559580Y-71405952D01*
X220559580Y-71405952D02*
X220607200Y-71453571D01*
X220607200Y-71453571D02*
X220654819Y-71548809D01*
X220654819Y-71548809D02*
X220654819Y-71834523D01*
X220654819Y-71834523D02*
X220607200Y-71929761D01*
X220607200Y-71929761D02*
X220559580Y-71977380D01*
X139238095Y-64854819D02*
X139238095Y-65664342D01*
X139238095Y-65664342D02*
X139285714Y-65759580D01*
X139285714Y-65759580D02*
X139333333Y-65807200D01*
X139333333Y-65807200D02*
X139428571Y-65854819D01*
X139428571Y-65854819D02*
X139619047Y-65854819D01*
X139619047Y-65854819D02*
X139714285Y-65807200D01*
X139714285Y-65807200D02*
X139761904Y-65759580D01*
X139761904Y-65759580D02*
X139809523Y-65664342D01*
X139809523Y-65664342D02*
X139809523Y-64854819D01*
X140809523Y-65854819D02*
X140238095Y-65854819D01*
X140523809Y-65854819D02*
X140523809Y-64854819D01*
X140523809Y-64854819D02*
X140428571Y-64997676D01*
X140428571Y-64997676D02*
X140333333Y-65092914D01*
X140333333Y-65092914D02*
X140238095Y-65140533D01*
X99238095Y-107104819D02*
X99238095Y-107914342D01*
X99238095Y-107914342D02*
X99285714Y-108009580D01*
X99285714Y-108009580D02*
X99333333Y-108057200D01*
X99333333Y-108057200D02*
X99428571Y-108104819D01*
X99428571Y-108104819D02*
X99619047Y-108104819D01*
X99619047Y-108104819D02*
X99714285Y-108057200D01*
X99714285Y-108057200D02*
X99761904Y-108009580D01*
X99761904Y-108009580D02*
X99809523Y-107914342D01*
X99809523Y-107914342D02*
X99809523Y-107104819D01*
X100190476Y-107104819D02*
X100857142Y-107104819D01*
X100857142Y-107104819D02*
X100428571Y-108104819D01*
X74238095Y-51054819D02*
X74238095Y-51864342D01*
X74238095Y-51864342D02*
X74285714Y-51959580D01*
X74285714Y-51959580D02*
X74333333Y-52007200D01*
X74333333Y-52007200D02*
X74428571Y-52054819D01*
X74428571Y-52054819D02*
X74619047Y-52054819D01*
X74619047Y-52054819D02*
X74714285Y-52007200D01*
X74714285Y-52007200D02*
X74761904Y-51959580D01*
X74761904Y-51959580D02*
X74809523Y-51864342D01*
X74809523Y-51864342D02*
X74809523Y-51054819D01*
X75761904Y-51054819D02*
X75285714Y-51054819D01*
X75285714Y-51054819D02*
X75238095Y-51531009D01*
X75238095Y-51531009D02*
X75285714Y-51483390D01*
X75285714Y-51483390D02*
X75380952Y-51435771D01*
X75380952Y-51435771D02*
X75619047Y-51435771D01*
X75619047Y-51435771D02*
X75714285Y-51483390D01*
X75714285Y-51483390D02*
X75761904Y-51531009D01*
X75761904Y-51531009D02*
X75809523Y-51626247D01*
X75809523Y-51626247D02*
X75809523Y-51864342D01*
X75809523Y-51864342D02*
X75761904Y-51959580D01*
X75761904Y-51959580D02*
X75714285Y-52007200D01*
X75714285Y-52007200D02*
X75619047Y-52054819D01*
X75619047Y-52054819D02*
X75380952Y-52054819D01*
X75380952Y-52054819D02*
X75285714Y-52007200D01*
X75285714Y-52007200D02*
X75238095Y-51959580D01*
X111833333Y-124284819D02*
X111500000Y-123808628D01*
X111261905Y-124284819D02*
X111261905Y-123284819D01*
X111261905Y-123284819D02*
X111642857Y-123284819D01*
X111642857Y-123284819D02*
X111738095Y-123332438D01*
X111738095Y-123332438D02*
X111785714Y-123380057D01*
X111785714Y-123380057D02*
X111833333Y-123475295D01*
X111833333Y-123475295D02*
X111833333Y-123618152D01*
X111833333Y-123618152D02*
X111785714Y-123713390D01*
X111785714Y-123713390D02*
X111738095Y-123761009D01*
X111738095Y-123761009D02*
X111642857Y-123808628D01*
X111642857Y-123808628D02*
X111261905Y-123808628D01*
X112690476Y-123618152D02*
X112690476Y-124284819D01*
X112452381Y-123237200D02*
X112214286Y-123951485D01*
X112214286Y-123951485D02*
X112833333Y-123951485D01*
X84357142Y-59199580D02*
X84309523Y-59247200D01*
X84309523Y-59247200D02*
X84166666Y-59294819D01*
X84166666Y-59294819D02*
X84071428Y-59294819D01*
X84071428Y-59294819D02*
X83928571Y-59247200D01*
X83928571Y-59247200D02*
X83833333Y-59151961D01*
X83833333Y-59151961D02*
X83785714Y-59056723D01*
X83785714Y-59056723D02*
X83738095Y-58866247D01*
X83738095Y-58866247D02*
X83738095Y-58723390D01*
X83738095Y-58723390D02*
X83785714Y-58532914D01*
X83785714Y-58532914D02*
X83833333Y-58437676D01*
X83833333Y-58437676D02*
X83928571Y-58342438D01*
X83928571Y-58342438D02*
X84071428Y-58294819D01*
X84071428Y-58294819D02*
X84166666Y-58294819D01*
X84166666Y-58294819D02*
X84309523Y-58342438D01*
X84309523Y-58342438D02*
X84357142Y-58390057D01*
X85309523Y-59294819D02*
X84738095Y-59294819D01*
X85023809Y-59294819D02*
X85023809Y-58294819D01*
X85023809Y-58294819D02*
X84928571Y-58437676D01*
X84928571Y-58437676D02*
X84833333Y-58532914D01*
X84833333Y-58532914D02*
X84738095Y-58580533D01*
X85642857Y-58294819D02*
X86309523Y-58294819D01*
X86309523Y-58294819D02*
X85880952Y-59294819D01*
X129357142Y-99199580D02*
X129309523Y-99247200D01*
X129309523Y-99247200D02*
X129166666Y-99294819D01*
X129166666Y-99294819D02*
X129071428Y-99294819D01*
X129071428Y-99294819D02*
X128928571Y-99247200D01*
X128928571Y-99247200D02*
X128833333Y-99151961D01*
X128833333Y-99151961D02*
X128785714Y-99056723D01*
X128785714Y-99056723D02*
X128738095Y-98866247D01*
X128738095Y-98866247D02*
X128738095Y-98723390D01*
X128738095Y-98723390D02*
X128785714Y-98532914D01*
X128785714Y-98532914D02*
X128833333Y-98437676D01*
X128833333Y-98437676D02*
X128928571Y-98342438D01*
X128928571Y-98342438D02*
X129071428Y-98294819D01*
X129071428Y-98294819D02*
X129166666Y-98294819D01*
X129166666Y-98294819D02*
X129309523Y-98342438D01*
X129309523Y-98342438D02*
X129357142Y-98390057D01*
X130309523Y-99294819D02*
X129738095Y-99294819D01*
X130023809Y-99294819D02*
X130023809Y-98294819D01*
X130023809Y-98294819D02*
X129928571Y-98437676D01*
X129928571Y-98437676D02*
X129833333Y-98532914D01*
X129833333Y-98532914D02*
X129738095Y-98580533D01*
X130690476Y-98390057D02*
X130738095Y-98342438D01*
X130738095Y-98342438D02*
X130833333Y-98294819D01*
X130833333Y-98294819D02*
X131071428Y-98294819D01*
X131071428Y-98294819D02*
X131166666Y-98342438D01*
X131166666Y-98342438D02*
X131214285Y-98390057D01*
X131214285Y-98390057D02*
X131261904Y-98485295D01*
X131261904Y-98485295D02*
X131261904Y-98580533D01*
X131261904Y-98580533D02*
X131214285Y-98723390D01*
X131214285Y-98723390D02*
X130642857Y-99294819D01*
X130642857Y-99294819D02*
X131261904Y-99294819D01*
X194357142Y-38679580D02*
X194309523Y-38727200D01*
X194309523Y-38727200D02*
X194166666Y-38774819D01*
X194166666Y-38774819D02*
X194071428Y-38774819D01*
X194071428Y-38774819D02*
X193928571Y-38727200D01*
X193928571Y-38727200D02*
X193833333Y-38631961D01*
X193833333Y-38631961D02*
X193785714Y-38536723D01*
X193785714Y-38536723D02*
X193738095Y-38346247D01*
X193738095Y-38346247D02*
X193738095Y-38203390D01*
X193738095Y-38203390D02*
X193785714Y-38012914D01*
X193785714Y-38012914D02*
X193833333Y-37917676D01*
X193833333Y-37917676D02*
X193928571Y-37822438D01*
X193928571Y-37822438D02*
X194071428Y-37774819D01*
X194071428Y-37774819D02*
X194166666Y-37774819D01*
X194166666Y-37774819D02*
X194309523Y-37822438D01*
X194309523Y-37822438D02*
X194357142Y-37870057D01*
X194738095Y-37870057D02*
X194785714Y-37822438D01*
X194785714Y-37822438D02*
X194880952Y-37774819D01*
X194880952Y-37774819D02*
X195119047Y-37774819D01*
X195119047Y-37774819D02*
X195214285Y-37822438D01*
X195214285Y-37822438D02*
X195261904Y-37870057D01*
X195261904Y-37870057D02*
X195309523Y-37965295D01*
X195309523Y-37965295D02*
X195309523Y-38060533D01*
X195309523Y-38060533D02*
X195261904Y-38203390D01*
X195261904Y-38203390D02*
X194690476Y-38774819D01*
X194690476Y-38774819D02*
X195309523Y-38774819D01*
X195690476Y-37870057D02*
X195738095Y-37822438D01*
X195738095Y-37822438D02*
X195833333Y-37774819D01*
X195833333Y-37774819D02*
X196071428Y-37774819D01*
X196071428Y-37774819D02*
X196166666Y-37822438D01*
X196166666Y-37822438D02*
X196214285Y-37870057D01*
X196214285Y-37870057D02*
X196261904Y-37965295D01*
X196261904Y-37965295D02*
X196261904Y-38060533D01*
X196261904Y-38060533D02*
X196214285Y-38203390D01*
X196214285Y-38203390D02*
X195642857Y-38774819D01*
X195642857Y-38774819D02*
X196261904Y-38774819D01*
D11*
%TO.C,R6*%
X124846359Y-124620000D02*
X125153641Y-124620000D01*
X124846359Y-125380000D02*
X125153641Y-125380000D01*
%TO.C,C16*%
X89892164Y-49640000D02*
X90107836Y-49640000D01*
X89892164Y-50360000D02*
X90107836Y-50360000D01*
%TO.C,C13*%
X149892164Y-99640000D02*
X150107836Y-99640000D01*
X149892164Y-100360000D02*
X150107836Y-100360000D01*
%TO.C,C1*%
X132892164Y-67640000D02*
X133107836Y-67640000D01*
X132892164Y-68360000D02*
X133107836Y-68360000D01*
%TO.C,R12*%
X74846359Y-34620000D02*
X75153641Y-34620000D01*
X74846359Y-35380000D02*
X75153641Y-35380000D01*
%TO.C,C4*%
X146892164Y-81640000D02*
X147107836Y-81640000D01*
X146892164Y-82360000D02*
X147107836Y-82360000D01*
%TO.C,C20*%
X69892164Y-51640000D02*
X70107836Y-51640000D01*
X69892164Y-52360000D02*
X70107836Y-52360000D01*
%TO.C,U4*%
X81390000Y-51390000D02*
X82040000Y-51390000D01*
X81390000Y-52040000D02*
X81390000Y-51390000D01*
X81390000Y-58610000D02*
X81390000Y-57960000D01*
X82040000Y-58610000D02*
X81390000Y-58610000D01*
X87960000Y-51390000D02*
X88610000Y-51390000D01*
X88610000Y-51390000D02*
X88610000Y-52040000D01*
X88610000Y-57960000D02*
X88610000Y-58610000D01*
X88610000Y-58610000D02*
X87960000Y-58610000D01*
X80860000Y-52400000D02*
X80530000Y-52640000D01*
X80530000Y-52160000D01*
X80860000Y-52400000D01*
G36*
X80860000Y-52400000D02*
G01*
X80530000Y-52640000D01*
X80530000Y-52160000D01*
X80860000Y-52400000D01*
G37*
%TO.C,C25*%
X91892164Y-56640000D02*
X92107836Y-56640000D01*
X91892164Y-57360000D02*
X92107836Y-57360000D01*
%TO.C,U9*%
X198150000Y-36590000D02*
X201910000Y-36590000D01*
X198150000Y-43410000D02*
X201910000Y-43410000D01*
X201910000Y-36590000D02*
X201910000Y-37850000D01*
X201910000Y-43410000D02*
X201910000Y-42150000D01*
X196870000Y-36690000D02*
X196630000Y-36360000D01*
X197110000Y-36360000D01*
X196870000Y-36690000D01*
G36*
X196870000Y-36690000D02*
G01*
X196630000Y-36360000D01*
X197110000Y-36360000D01*
X196870000Y-36690000D01*
G37*
%TO.C,Y1*%
X94325000Y-54125000D02*
X95675000Y-54125000D01*
X94325000Y-55875000D02*
X95675000Y-55875000D01*
%TO.C,J7*%
X58620000Y-38620000D02*
X60000000Y-38620000D01*
X58620000Y-40000000D02*
X58620000Y-38620000D01*
X58620000Y-41270000D02*
X58620000Y-46460000D01*
X58620000Y-41270000D02*
X61380000Y-41270000D01*
X58620000Y-46460000D02*
X61380000Y-46460000D01*
X61380000Y-41270000D02*
X61380000Y-46460000D01*
%TO.C,C19*%
X119892164Y-109640000D02*
X120107836Y-109640000D01*
X119892164Y-110360000D02*
X120107836Y-110360000D01*
%TO.C,SW1*%
X71770000Y-41770000D02*
X78230000Y-41770000D01*
X71770000Y-41800000D02*
X71770000Y-41770000D01*
X71770000Y-43700000D02*
X71770000Y-46300000D01*
X71770000Y-48230000D02*
X71770000Y-48200000D01*
X71770000Y-48230000D02*
X78230000Y-48230000D01*
X78230000Y-41770000D02*
X78230000Y-41800000D01*
X78230000Y-43700000D02*
X78230000Y-46300000D01*
X78230000Y-48230000D02*
X78230000Y-48200000D01*
%TO.C,U3*%
X134700000Y-83700000D02*
X145300000Y-83700000D01*
X134700000Y-84100000D02*
X134700000Y-83700000D01*
X134700000Y-105900000D02*
X134700000Y-106300000D01*
X134700000Y-106300000D02*
X145300000Y-106300000D01*
X145300000Y-83700000D02*
X145300000Y-84100000D01*
X145300000Y-105900000D02*
X145300000Y-106300000D01*
X134300000Y-84100000D02*
X134060000Y-83770000D01*
X134540000Y-83770000D01*
X134300000Y-84100000D01*
G36*
X134300000Y-84100000D02*
G01*
X134060000Y-83770000D01*
X134540000Y-83770000D01*
X134300000Y-84100000D01*
G37*
%TO.C,LED2*%
X73315000Y-31040000D02*
X73315000Y-32960000D01*
X73315000Y-32960000D02*
X76000000Y-32960000D01*
X76000000Y-31040000D02*
X73315000Y-31040000D01*
%TO.C,C5*%
X129892164Y-74640000D02*
X130107836Y-74640000D01*
X129892164Y-75360000D02*
X130107836Y-75360000D01*
%TO.C,U2*%
X134700000Y-43700000D02*
X145300000Y-43700000D01*
X134700000Y-44100000D02*
X134700000Y-43700000D01*
X134700000Y-65900000D02*
X134700000Y-66300000D01*
X134700000Y-66300000D02*
X145300000Y-66300000D01*
X145300000Y-43700000D02*
X145300000Y-44100000D01*
X145300000Y-65900000D02*
X145300000Y-66300000D01*
X134300000Y-44100000D02*
X134060000Y-43770000D01*
X134540000Y-43770000D01*
X134300000Y-44100000D01*
G36*
X134300000Y-44100000D02*
G01*
X134060000Y-43770000D01*
X134540000Y-43770000D01*
X134300000Y-44100000D01*
G37*
%TO.C,C11*%
X139892164Y-47640000D02*
X140107836Y-47640000D01*
X139892164Y-48360000D02*
X140107836Y-48360000D01*
%TO.C,C26*%
X97892164Y-56640000D02*
X98107836Y-56640000D01*
X97892164Y-57360000D02*
X98107836Y-57360000D01*
%TO.C,R9*%
X136846359Y-124620000D02*
X137153641Y-124620000D01*
X136846359Y-125380000D02*
X137153641Y-125380000D01*
%TO.C,U8*%
X121140000Y-108490000D02*
X128860000Y-108490000D01*
X121140000Y-108725000D02*
X121140000Y-108490000D01*
X121140000Y-121510000D02*
X121140000Y-121275000D01*
X128860000Y-108490000D02*
X128860000Y-108725000D01*
X128860000Y-121275000D02*
X128860000Y-121510000D01*
X128860000Y-121510000D02*
X121140000Y-121510000D01*
X120350000Y-108720000D02*
X120010000Y-108250000D01*
X120690000Y-108250000D01*
X120350000Y-108720000D01*
G36*
X120350000Y-108720000D02*
G01*
X120010000Y-108250000D01*
X120690000Y-108250000D01*
X120350000Y-108720000D01*
G37*
%TO.C,C3*%
X132892164Y-81640000D02*
X133107836Y-81640000D01*
X132892164Y-82360000D02*
X133107836Y-82360000D01*
%TO.C,SW2*%
X81770000Y-41770000D02*
X88230000Y-41770000D01*
X81770000Y-41800000D02*
X81770000Y-41770000D01*
X81770000Y-43700000D02*
X81770000Y-46300000D01*
X81770000Y-48230000D02*
X81770000Y-48200000D01*
X81770000Y-48230000D02*
X88230000Y-48230000D01*
X88230000Y-41770000D02*
X88230000Y-41800000D01*
X88230000Y-43700000D02*
X88230000Y-46300000D01*
X88230000Y-48230000D02*
X88230000Y-48200000D01*
%TO.C,J5A*%
X123620000Y-33620000D02*
X125000000Y-33620000D01*
X123620000Y-35000000D02*
X123620000Y-33620000D01*
X123620000Y-36270000D02*
X123620000Y-97340000D01*
X123620000Y-36270000D02*
X126270000Y-36270000D01*
X123620000Y-97340000D02*
X128920000Y-97340000D01*
X126270000Y-33620000D02*
X128920000Y-33620000D01*
X126270000Y-36270000D02*
X126270000Y-33620000D01*
X128920000Y-33620000D02*
X128920000Y-97340000D01*
%TO.C,LED3*%
X78315000Y-31040000D02*
X78315000Y-32960000D01*
X78315000Y-32960000D02*
X81000000Y-32960000D01*
X81000000Y-31040000D02*
X78315000Y-31040000D01*
%TO.C,R16*%
X217846359Y-75620000D02*
X218153641Y-75620000D01*
X217846359Y-76380000D02*
X218153641Y-76380000D01*
%TO.C,LED1*%
X68315000Y-31040000D02*
X68315000Y-32960000D01*
X68315000Y-32960000D02*
X71000000Y-32960000D01*
X71000000Y-31040000D02*
X68315000Y-31040000D01*
%TO.C,R15*%
X217846359Y-72620000D02*
X218153641Y-72620000D01*
X217846359Y-73380000D02*
X218153641Y-73380000D01*
%TO.C,C10*%
X149892164Y-49640000D02*
X150107836Y-49640000D01*
X149892164Y-50360000D02*
X150107836Y-50360000D01*
%TO.C,J5B*%
X153620000Y-33620000D02*
X155000000Y-33620000D01*
X153620000Y-35000000D02*
X153620000Y-33620000D01*
X153620000Y-36270000D02*
X153620000Y-97340000D01*
X153620000Y-36270000D02*
X156270000Y-36270000D01*
X153620000Y-97340000D02*
X158920000Y-97340000D01*
X156270000Y-33620000D02*
X158920000Y-33620000D01*
X156270000Y-36270000D02*
X156270000Y-33620000D01*
X158920000Y-33620000D02*
X158920000Y-97340000D01*
%TO.C,C15*%
X79892164Y-49640000D02*
X80107836Y-49640000D01*
X79892164Y-50360000D02*
X80107836Y-50360000D01*
%TO.C,R17*%
X217846359Y-78620000D02*
X218153641Y-78620000D01*
X217846359Y-79380000D02*
X218153641Y-79380000D01*
%TO.C,C2*%
X146892164Y-67640000D02*
X147107836Y-67640000D01*
X146892164Y-68360000D02*
X147107836Y-68360000D01*
%TO.C,C14*%
X139892164Y-101640000D02*
X140107836Y-101640000D01*
X139892164Y-102360000D02*
X140107836Y-102360000D01*
%TO.C,R1*%
X99846359Y-124620000D02*
X100153641Y-124620000D01*
X99846359Y-125380000D02*
X100153641Y-125380000D01*
%TO.C,C24*%
X204738748Y-46265000D02*
X205261252Y-46265000D01*
X204738748Y-47735000D02*
X205261252Y-47735000D01*
%TO.C,J6*%
X68620000Y-38620000D02*
X70000000Y-38620000D01*
X68620000Y-40000000D02*
X68620000Y-38620000D01*
X68620000Y-41270000D02*
X68620000Y-46460000D01*
X68620000Y-41270000D02*
X71270000Y-41270000D01*
X68620000Y-46460000D02*
X73920000Y-46460000D01*
X71270000Y-38620000D02*
X73920000Y-38620000D01*
X71270000Y-41270000D02*
X71270000Y-38620000D01*
X73920000Y-38620000D02*
X73920000Y-46460000D01*
%TO.C,R14*%
X217846359Y-69620000D02*
X218153641Y-69620000D01*
X217846359Y-70380000D02*
X218153641Y-70380000D01*
%TO.C,R2*%
X103846359Y-124620000D02*
X104153641Y-124620000D01*
X103846359Y-125380000D02*
X104153641Y-125380000D01*
%TO.C,R10*%
X140846359Y-124620000D02*
X141153641Y-124620000D01*
X140846359Y-125380000D02*
X141153641Y-125380000D01*
%TO.C,R3*%
X107846359Y-124620000D02*
X108153641Y-124620000D01*
X107846359Y-125380000D02*
X108153641Y-125380000D01*
%TO.C,C23*%
X194738748Y-54265000D02*
X195261252Y-54265000D01*
X194738748Y-55735000D02*
X195261252Y-55735000D01*
%TO.C,C9*%
X129892164Y-49640000D02*
X130107836Y-49640000D01*
X129892164Y-50360000D02*
X130107836Y-50360000D01*
%TO.C,C8*%
X139892164Y-82640000D02*
X140107836Y-82640000D01*
X139892164Y-83360000D02*
X140107836Y-83360000D01*
%TO.C,R5*%
X115846359Y-124620000D02*
X116153641Y-124620000D01*
X115846359Y-125380000D02*
X116153641Y-125380000D01*
%TO.C,C6*%
X149892164Y-74640000D02*
X150107836Y-74640000D01*
X149892164Y-75360000D02*
X150107836Y-75360000D01*
%TO.C,R7*%
X128846359Y-124620000D02*
X129153641Y-124620000D01*
X128846359Y-125380000D02*
X129153641Y-125380000D01*
%TO.C,U10*%
X198150000Y-51590000D02*
X201910000Y-51590000D01*
X198150000Y-58410000D02*
X201910000Y-58410000D01*
X201910000Y-51590000D02*
X201910000Y-52850000D01*
X201910000Y-58410000D02*
X201910000Y-57150000D01*
X196870000Y-51690000D02*
X196630000Y-51360000D01*
X197110000Y-51360000D01*
X196870000Y-51690000D01*
G36*
X196870000Y-51690000D02*
G01*
X196630000Y-51360000D01*
X197110000Y-51360000D01*
X196870000Y-51690000D01*
G37*
%TO.C,R11*%
X69846359Y-34620000D02*
X70153641Y-34620000D01*
X69846359Y-35380000D02*
X70153641Y-35380000D01*
%TO.C,U6*%
X162940000Y-52440000D02*
X167060000Y-52440000D01*
X162940000Y-52535000D02*
X162940000Y-52440000D01*
X162940000Y-57560000D02*
X162940000Y-57465000D01*
X167060000Y-52440000D02*
X167060000Y-52535000D01*
X167060000Y-57465000D02*
X167060000Y-57560000D01*
X167060000Y-57560000D02*
X162940000Y-57560000D01*
X162400000Y-52530000D02*
X162160000Y-52200000D01*
X162640000Y-52200000D01*
X162400000Y-52530000D01*
G36*
X162400000Y-52530000D02*
G01*
X162160000Y-52200000D01*
X162640000Y-52200000D01*
X162400000Y-52530000D01*
G37*
%TO.C,C18*%
X94892164Y-109640000D02*
X95107836Y-109640000D01*
X94892164Y-110360000D02*
X95107836Y-110360000D01*
%TO.C,R13*%
X79846359Y-34620000D02*
X80153641Y-34620000D01*
X79846359Y-35380000D02*
X80153641Y-35380000D01*
%TO.C,C7*%
X139892164Y-66640000D02*
X140107836Y-66640000D01*
X139892164Y-67360000D02*
X140107836Y-67360000D01*
%TO.C,R8*%
X132846359Y-124620000D02*
X133153641Y-124620000D01*
X132846359Y-125380000D02*
X133153641Y-125380000D01*
%TO.C,C21*%
X159892164Y-51640000D02*
X160107836Y-51640000D01*
X159892164Y-52360000D02*
X160107836Y-52360000D01*
%TO.C,J4*%
X203090000Y-92640000D02*
X203090000Y-94040000D01*
X203090000Y-92640000D02*
X216910000Y-92640000D01*
X203090000Y-102340000D02*
X203090000Y-96560000D01*
X203090000Y-104860000D02*
X203090000Y-107360000D01*
X203090000Y-107360000D02*
X216910000Y-107360000D01*
X216910000Y-92640000D02*
X216910000Y-94040000D01*
X216910000Y-96560000D02*
X216910000Y-102340000D01*
X216910000Y-104860000D02*
X216910000Y-107360000D01*
%TO.C,J3*%
X221320000Y-76500000D02*
X221320000Y-67550000D01*
X224400000Y-67430000D02*
X225300000Y-67430000D01*
X224400000Y-76620000D02*
X225300000Y-76620000D01*
X228000000Y-67430000D02*
X230730000Y-67430000D01*
X228000000Y-76620000D02*
X230730000Y-76620000D01*
X230730000Y-76620000D02*
X230730000Y-67430000D01*
%TO.C,U1*%
X131400000Y-66720000D02*
X131400000Y-83600000D01*
X131400000Y-83600000D02*
X148600000Y-83600000D01*
X148600000Y-66400000D02*
X131720000Y-66400000D01*
X148600000Y-83600000D02*
X148600000Y-66400000D01*
X131400000Y-66400000D02*
X130900000Y-66400000D01*
X131400000Y-65900000D01*
X131400000Y-66400000D01*
G36*
X131400000Y-66400000D02*
G01*
X130900000Y-66400000D01*
X131400000Y-65900000D01*
X131400000Y-66400000D01*
G37*
%TO.C,U7*%
X96140000Y-108490000D02*
X103860000Y-108490000D01*
X96140000Y-108725000D02*
X96140000Y-108490000D01*
X96140000Y-121510000D02*
X96140000Y-121275000D01*
X103860000Y-108490000D02*
X103860000Y-108725000D01*
X103860000Y-121275000D02*
X103860000Y-121510000D01*
X103860000Y-121510000D02*
X96140000Y-121510000D01*
X95350000Y-108720000D02*
X95010000Y-108250000D01*
X95690000Y-108250000D01*
X95350000Y-108720000D01*
G36*
X95350000Y-108720000D02*
G01*
X95010000Y-108250000D01*
X95690000Y-108250000D01*
X95350000Y-108720000D01*
G37*
%TO.C,U5*%
X72940000Y-52440000D02*
X77060000Y-52440000D01*
X72940000Y-52535000D02*
X72940000Y-52440000D01*
X72940000Y-57560000D02*
X72940000Y-57465000D01*
X77060000Y-52440000D02*
X77060000Y-52535000D01*
X77060000Y-57465000D02*
X77060000Y-57560000D01*
X77060000Y-57560000D02*
X72940000Y-57560000D01*
X72400000Y-52530000D02*
X72160000Y-52200000D01*
X72640000Y-52200000D01*
X72400000Y-52530000D01*
G36*
X72400000Y-52530000D02*
G01*
X72160000Y-52200000D01*
X72640000Y-52200000D01*
X72400000Y-52530000D01*
G37*
%TO.C,R4*%
X111846359Y-124620000D02*
X112153641Y-124620000D01*
X111846359Y-125380000D02*
X112153641Y-125380000D01*
%TO.C,C17*%
X84892164Y-59640000D02*
X85107836Y-59640000D01*
X84892164Y-60360000D02*
X85107836Y-60360000D01*
%TO.C,C12*%
X129892164Y-99640000D02*
X130107836Y-99640000D01*
X129892164Y-100360000D02*
X130107836Y-100360000D01*
%TO.C,C22*%
X194738748Y-39265000D02*
X195261252Y-39265000D01*
X194738748Y-40735000D02*
X195261252Y-40735000D01*
%TD*%
M02*
