%TF.GenerationSoftware,KiCad,Pcbnew,9.0.8+dfsg-1*%
%TF.CreationDate,2026-04-27T10:51:39+02:00*%
%TF.ProjectId,neocart_fpga_prog,6e656f63-6172-4745-9f66-7067615f7072,rev?*%
%TF.SameCoordinates,Original*%
%TF.FileFunction,Copper,L2,Inr*%
%TF.FilePolarity,Positive*%
%FSLAX46Y46*%
G04 Gerber Fmt 4.6, Leading zero omitted, Abs format (unit mm)*
G04 Created by KiCad (PCBNEW 9.0.8+dfsg-1) date 2026-04-27 10:51:39*
%MOMM*%
%LPD*%
G01*
G04 APERTURE LIST*
%TA.AperFunction,ComponentPad*%
%ADD10R,1.700000X1.700000*%
%TD*%
%TA.AperFunction,ComponentPad*%
%ADD11C,1.700000*%
%TD*%
%TA.AperFunction,ComponentPad*%
%ADD12C,0.700000*%
%TD*%
%TA.AperFunction,ComponentPad*%
%ADD13O,2.400000X0.900000*%
%TD*%
%TA.AperFunction,ComponentPad*%
%ADD14O,1.700000X0.900000*%
%TD*%
G04 APERTURE END LIST*
D10*
%TO.N,N/C*%
%TO.C,J7*%
X60000000Y-40000000D03*
D11*
X60000000Y-42540000D03*
X60000000Y-45080000D03*
%TD*%
D10*
%TO.N,N/C*%
%TO.C,J5A*%
X125000000Y-35000000D03*
D11*
X127540000Y-35000000D03*
X125000000Y-37540000D03*
X127540000Y-37540000D03*
X125000000Y-40080000D03*
X127540000Y-40080000D03*
X125000000Y-42620000D03*
X127540000Y-42620000D03*
X125000000Y-45160000D03*
X127540000Y-45160000D03*
X125000000Y-47700000D03*
X127540000Y-47700000D03*
X125000000Y-50240000D03*
X127540000Y-50240000D03*
X125000000Y-52780000D03*
X127540000Y-52780000D03*
X125000000Y-55320000D03*
X127540000Y-55320000D03*
X125000000Y-57860000D03*
X127540000Y-57860000D03*
X125000000Y-60400000D03*
X127540000Y-60400000D03*
X125000000Y-62940000D03*
X127540000Y-62940000D03*
X125000000Y-65480000D03*
X127540000Y-65480000D03*
X125000000Y-68020000D03*
X127540000Y-68020000D03*
X125000000Y-70560000D03*
X127540000Y-70560000D03*
X125000000Y-73100000D03*
X127540000Y-73100000D03*
X125000000Y-75640000D03*
X127540000Y-75640000D03*
X125000000Y-78180000D03*
X127540000Y-78180000D03*
X125000000Y-80720000D03*
X127540000Y-80720000D03*
X125000000Y-83260000D03*
X127540000Y-83260000D03*
X125000000Y-85800000D03*
X127540000Y-85800000D03*
X125000000Y-88340000D03*
X127540000Y-88340000D03*
X125000000Y-90880000D03*
X127540000Y-90880000D03*
X125000000Y-93420000D03*
X127540000Y-93420000D03*
X125000000Y-95960000D03*
X127540000Y-95960000D03*
%TD*%
D10*
%TO.N,N/C*%
%TO.C,J5B*%
X155000000Y-35000000D03*
D11*
X157540000Y-35000000D03*
X155000000Y-37540000D03*
X157540000Y-37540000D03*
X155000000Y-40080000D03*
X157540000Y-40080000D03*
X155000000Y-42620000D03*
X157540000Y-42620000D03*
X155000000Y-45160000D03*
X157540000Y-45160000D03*
X155000000Y-47700000D03*
X157540000Y-47700000D03*
X155000000Y-50240000D03*
X157540000Y-50240000D03*
X155000000Y-52780000D03*
X157540000Y-52780000D03*
X155000000Y-55320000D03*
X157540000Y-55320000D03*
X155000000Y-57860000D03*
X157540000Y-57860000D03*
X155000000Y-60400000D03*
X157540000Y-60400000D03*
X155000000Y-62940000D03*
X157540000Y-62940000D03*
X155000000Y-65480000D03*
X157540000Y-65480000D03*
X155000000Y-68020000D03*
X157540000Y-68020000D03*
X155000000Y-70560000D03*
X157540000Y-70560000D03*
X155000000Y-73100000D03*
X157540000Y-73100000D03*
X155000000Y-75640000D03*
X157540000Y-75640000D03*
X155000000Y-78180000D03*
X157540000Y-78180000D03*
X155000000Y-80720000D03*
X157540000Y-80720000D03*
X155000000Y-83260000D03*
X157540000Y-83260000D03*
X155000000Y-85800000D03*
X157540000Y-85800000D03*
X155000000Y-88340000D03*
X157540000Y-88340000D03*
X155000000Y-90880000D03*
X157540000Y-90880000D03*
X155000000Y-93420000D03*
X157540000Y-93420000D03*
X155000000Y-95960000D03*
X157540000Y-95960000D03*
%TD*%
D10*
%TO.N,N/C*%
%TO.C,J6*%
X70000000Y-40000000D03*
D11*
X72540000Y-40000000D03*
X70000000Y-42540000D03*
X72540000Y-42540000D03*
X70000000Y-45080000D03*
X72540000Y-45080000D03*
%TD*%
D12*
%TO.N,N/C*%
%TO.C,J3*%
X222000000Y-75000000D03*
X222000000Y-74150000D03*
X222000000Y-73300000D03*
X222000000Y-72450000D03*
X222000000Y-71600000D03*
X222000000Y-70750000D03*
X222000000Y-69900000D03*
X222000000Y-69050000D03*
X223350000Y-69050000D03*
X223350000Y-69900000D03*
X223350000Y-70750000D03*
X223350000Y-71600000D03*
X223350000Y-72450000D03*
X223350000Y-73300000D03*
X223350000Y-74150000D03*
X223350000Y-75000000D03*
D13*
X222980000Y-76350000D03*
D14*
X226360000Y-76350000D03*
D13*
X222980000Y-67700000D03*
D14*
X226360000Y-67700000D03*
%TD*%
M02*
