%TF.GenerationSoftware,KiCad,Pcbnew,9.0.8+dfsg-1*%
%TF.CreationDate,2026-04-27T10:51:39+02:00*%
%TF.ProjectId,neocart_fpga_prog,6e656f63-6172-4745-9f66-7067615f7072,rev?*%
%TF.SameCoordinates,Original*%
%TF.FileFunction,Paste,Top*%
%TF.FilePolarity,Positive*%
%FSLAX46Y46*%
G04 Gerber Fmt 4.6, Leading zero omitted, Abs format (unit mm)*
G04 Created by KiCad (PCBNEW 9.0.8+dfsg-1) date 2026-04-27 10:51:39*
%MOMM*%
%LPD*%
G01*
G04 APERTURE LIST*
G04 Aperture macros list*
%AMRoundRect*
0 Rectangle with rounded corners*
0 $1 Rounding radius*
0 $2 $3 $4 $5 $6 $7 $8 $9 X,Y pos of 4 corners*
0 Add a 4 corners polygon primitive as box body*
4,1,4,$2,$3,$4,$5,$6,$7,$8,$9,$2,$3,0*
0 Add four circle primitives for the rounded corners*
1,1,$1+$1,$2,$3*
1,1,$1+$1,$4,$5*
1,1,$1+$1,$6,$7*
1,1,$1+$1,$8,$9*
0 Add four rect primitives between the rounded corners*
20,1,$1+$1,$2,$3,$4,$5,0*
20,1,$1+$1,$4,$5,$6,$7,0*
20,1,$1+$1,$6,$7,$8,$9,0*
20,1,$1+$1,$8,$9,$2,$3,0*%
G04 Aperture macros list end*
%ADD10RoundRect,0.135000X-0.135000X-0.185000X0.135000X-0.185000X0.135000X0.185000X-0.135000X0.185000X0*%
%ADD11RoundRect,0.140000X-0.140000X-0.170000X0.140000X-0.170000X0.140000X0.170000X-0.140000X0.170000X0*%
%ADD12RoundRect,0.250000X-0.315000X-0.315000X0.315000X-0.315000X0.315000X0.315000X-0.315000X0.315000X0*%
%ADD13RoundRect,0.050000X-0.387500X-0.050000X0.387500X-0.050000X0.387500X0.050000X-0.387500X0.050000X0*%
%ADD14RoundRect,0.050000X-0.050000X-0.387500X0.050000X-0.387500X0.050000X0.387500X-0.050000X0.387500X0*%
%ADD15RoundRect,0.375000X-0.625000X-0.375000X0.625000X-0.375000X0.625000X0.375000X-0.625000X0.375000X0*%
%ADD16RoundRect,0.500000X-0.500000X-1.400000X0.500000X-1.400000X0.500000X1.400000X-0.500000X1.400000X0*%
%ADD17R,1.000000X1.800000*%
%ADD18RoundRect,0.250000X-0.525000X-0.400000X0.525000X-0.400000X0.525000X0.400000X-0.525000X0.400000X0*%
%ADD19R,1.510000X0.458000*%
%ADD20RoundRect,0.243750X-0.243750X-0.456250X0.243750X-0.456250X0.243750X0.456250X-0.243750X0.456250X0*%
%ADD21RoundRect,0.150000X-0.875000X-0.150000X0.875000X-0.150000X0.875000X0.150000X-0.875000X0.150000X0*%
%ADD22RoundRect,0.250000X-0.250000X-0.475000X0.250000X-0.475000X0.250000X0.475000X-0.250000X0.475000X0*%
%ADD23RoundRect,0.150000X-0.825000X-0.150000X0.825000X-0.150000X0.825000X0.150000X-0.825000X0.150000X0*%
%ADD24R,0.800000X1.500000*%
%ADD25RoundRect,0.362500X-0.362500X-0.637500X0.362500X-0.637500X0.362500X0.637500X-0.362500X0.637500X0*%
%ADD26C,0.400000*%
G04 APERTURE END LIST*
D10*
%TO.C,R6*%
X124490000Y-125000000D03*
X125510000Y-125000000D03*
%TD*%
D11*
%TO.C,C16*%
X89520000Y-50000000D03*
X90480000Y-50000000D03*
%TD*%
%TO.C,C13*%
X149520000Y-100000000D03*
X150480000Y-100000000D03*
%TD*%
%TO.C,C1*%
X132520000Y-68000000D03*
X133480000Y-68000000D03*
%TD*%
D10*
%TO.C,R12*%
X74490000Y-35000000D03*
X75510000Y-35000000D03*
%TD*%
D11*
%TO.C,C4*%
X146520000Y-82000000D03*
X147480000Y-82000000D03*
%TD*%
%TO.C,C20*%
X69520000Y-52000000D03*
X70480000Y-52000000D03*
%TD*%
D12*
%TO.C,U4*%
X82900000Y-52900000D03*
X82900000Y-54300000D03*
X82900000Y-55700000D03*
X82900000Y-57100000D03*
X84300000Y-52900000D03*
X84300000Y-54300000D03*
X84300000Y-55700000D03*
X84300000Y-57100000D03*
X85700000Y-52900000D03*
X85700000Y-54300000D03*
X85700000Y-55700000D03*
X85700000Y-57100000D03*
X87100000Y-52900000D03*
X87100000Y-54300000D03*
X87100000Y-55700000D03*
X87100000Y-57100000D03*
D13*
X81562500Y-52400000D03*
X81562500Y-52800000D03*
X81562500Y-53200000D03*
X81562500Y-53600000D03*
X81562500Y-54000000D03*
X81562500Y-54400000D03*
X81562500Y-54800000D03*
X81562500Y-55200000D03*
X81562500Y-55600000D03*
X81562500Y-56000000D03*
X81562500Y-56400000D03*
X81562500Y-56800000D03*
X81562500Y-57200000D03*
X81562500Y-57600000D03*
D14*
X82400000Y-58437500D03*
X82800000Y-58437500D03*
X83200000Y-58437500D03*
X83600000Y-58437500D03*
X84000000Y-58437500D03*
X84400000Y-58437500D03*
X84800000Y-58437500D03*
X85200000Y-58437500D03*
X85600000Y-58437500D03*
X86000000Y-58437500D03*
X86400000Y-58437500D03*
X86800000Y-58437500D03*
X87200000Y-58437500D03*
X87600000Y-58437500D03*
D13*
X88437500Y-57600000D03*
X88437500Y-57200000D03*
X88437500Y-56800000D03*
X88437500Y-56400000D03*
X88437500Y-56000000D03*
X88437500Y-55600000D03*
X88437500Y-55200000D03*
X88437500Y-54800000D03*
X88437500Y-54400000D03*
X88437500Y-54000000D03*
X88437500Y-53600000D03*
X88437500Y-53200000D03*
X88437500Y-52800000D03*
X88437500Y-52400000D03*
D14*
X87600000Y-51562500D03*
X87200000Y-51562500D03*
X86800000Y-51562500D03*
X86400000Y-51562500D03*
X86000000Y-51562500D03*
X85600000Y-51562500D03*
X85200000Y-51562500D03*
X84800000Y-51562500D03*
X84400000Y-51562500D03*
X84000000Y-51562500D03*
X83600000Y-51562500D03*
X83200000Y-51562500D03*
X82800000Y-51562500D03*
X82400000Y-51562500D03*
%TD*%
D11*
%TO.C,C25*%
X91520000Y-57000000D03*
X92480000Y-57000000D03*
%TD*%
D15*
%TO.C,U9*%
X196850000Y-37700000D03*
X196850000Y-40000000D03*
D16*
X203150000Y-40000000D03*
D15*
X196850000Y-42300000D03*
%TD*%
D17*
%TO.C,Y1*%
X96250000Y-55000000D03*
X93750000Y-55000000D03*
%TD*%
D11*
%TO.C,C19*%
X119520000Y-110000000D03*
X120480000Y-110000000D03*
%TD*%
D18*
%TO.C,SW1*%
X71020000Y-42750000D03*
X78980000Y-42750000D03*
X71020000Y-47250000D03*
X78980000Y-47250000D03*
%TD*%
D19*
%TO.C,U3*%
X134250000Y-84600000D03*
X134250000Y-85400000D03*
X134250000Y-86200000D03*
X134250000Y-87000000D03*
X134250000Y-87800000D03*
X134250000Y-88600000D03*
X134250000Y-89400000D03*
X134250000Y-90200000D03*
X134250000Y-91000000D03*
X134250000Y-91800000D03*
X134250000Y-92600000D03*
X134250000Y-93400000D03*
X134250000Y-94200000D03*
X134250000Y-95000000D03*
X134250000Y-95800000D03*
X134250000Y-96600000D03*
X134250000Y-97400000D03*
X134250000Y-98200000D03*
X134250000Y-99000000D03*
X134250000Y-99800000D03*
X134250000Y-100600000D03*
X134250000Y-101400000D03*
X134250000Y-102200000D03*
X134250000Y-103000000D03*
X134250000Y-103800000D03*
X134250000Y-104600000D03*
X134250000Y-105400000D03*
X145750000Y-105400000D03*
X145750000Y-104600000D03*
X145750000Y-103800000D03*
X145750000Y-103000000D03*
X145750000Y-102200000D03*
X145750000Y-101400000D03*
X145750000Y-100600000D03*
X145750000Y-99800000D03*
X145750000Y-99000000D03*
X145750000Y-98200000D03*
X145750000Y-97400000D03*
X145750000Y-96600000D03*
X145750000Y-95800000D03*
X145750000Y-95000000D03*
X145750000Y-94200000D03*
X145750000Y-93400000D03*
X145750000Y-92600000D03*
X145750000Y-91800000D03*
X145750000Y-91000000D03*
X145750000Y-90200000D03*
X145750000Y-89400000D03*
X145750000Y-88600000D03*
X145750000Y-87800000D03*
X145750000Y-87000000D03*
X145750000Y-86200000D03*
X145750000Y-85400000D03*
X145750000Y-84600000D03*
%TD*%
D20*
%TO.C,LED2*%
X74062500Y-32000000D03*
X75937500Y-32000000D03*
%TD*%
D11*
%TO.C,C5*%
X129520000Y-75000000D03*
X130480000Y-75000000D03*
%TD*%
D19*
%TO.C,U2*%
X134250000Y-44600000D03*
X134250000Y-45400000D03*
X134250000Y-46200000D03*
X134250000Y-47000000D03*
X134250000Y-47800000D03*
X134250000Y-48600000D03*
X134250000Y-49400000D03*
X134250000Y-50200000D03*
X134250000Y-51000000D03*
X134250000Y-51800000D03*
X134250000Y-52600000D03*
X134250000Y-53400000D03*
X134250000Y-54200000D03*
X134250000Y-55000000D03*
X134250000Y-55800000D03*
X134250000Y-56600000D03*
X134250000Y-57400000D03*
X134250000Y-58200000D03*
X134250000Y-59000000D03*
X134250000Y-59800000D03*
X134250000Y-60600000D03*
X134250000Y-61400000D03*
X134250000Y-62200000D03*
X134250000Y-63000000D03*
X134250000Y-63800000D03*
X134250000Y-64600000D03*
X134250000Y-65400000D03*
X145750000Y-65400000D03*
X145750000Y-64600000D03*
X145750000Y-63800000D03*
X145750000Y-63000000D03*
X145750000Y-62200000D03*
X145750000Y-61400000D03*
X145750000Y-60600000D03*
X145750000Y-59800000D03*
X145750000Y-59000000D03*
X145750000Y-58200000D03*
X145750000Y-57400000D03*
X145750000Y-56600000D03*
X145750000Y-55800000D03*
X145750000Y-55000000D03*
X145750000Y-54200000D03*
X145750000Y-53400000D03*
X145750000Y-52600000D03*
X145750000Y-51800000D03*
X145750000Y-51000000D03*
X145750000Y-50200000D03*
X145750000Y-49400000D03*
X145750000Y-48600000D03*
X145750000Y-47800000D03*
X145750000Y-47000000D03*
X145750000Y-46200000D03*
X145750000Y-45400000D03*
X145750000Y-44600000D03*
%TD*%
D11*
%TO.C,C11*%
X139520000Y-48000000D03*
X140480000Y-48000000D03*
%TD*%
%TO.C,C26*%
X97520000Y-57000000D03*
X98480000Y-57000000D03*
%TD*%
D10*
%TO.C,R9*%
X136490000Y-125000000D03*
X137510000Y-125000000D03*
%TD*%
D21*
%TO.C,U8*%
X120350000Y-109285000D03*
X120350000Y-110555000D03*
X120350000Y-111825000D03*
X120350000Y-113095000D03*
X120350000Y-114365000D03*
X120350000Y-115635000D03*
X120350000Y-116905000D03*
X120350000Y-118175000D03*
X120350000Y-119445000D03*
X120350000Y-120715000D03*
X129650000Y-120715000D03*
X129650000Y-119445000D03*
X129650000Y-118175000D03*
X129650000Y-116905000D03*
X129650000Y-115635000D03*
X129650000Y-114365000D03*
X129650000Y-113095000D03*
X129650000Y-111825000D03*
X129650000Y-110555000D03*
X129650000Y-109285000D03*
%TD*%
D11*
%TO.C,C3*%
X132520000Y-82000000D03*
X133480000Y-82000000D03*
%TD*%
D18*
%TO.C,SW2*%
X81020000Y-42750000D03*
X88980000Y-42750000D03*
X81020000Y-47250000D03*
X88980000Y-47250000D03*
%TD*%
D20*
%TO.C,LED3*%
X79062500Y-32000000D03*
X80937500Y-32000000D03*
%TD*%
D10*
%TO.C,R16*%
X217490000Y-76000000D03*
X218510000Y-76000000D03*
%TD*%
D20*
%TO.C,LED1*%
X69062500Y-32000000D03*
X70937500Y-32000000D03*
%TD*%
D10*
%TO.C,R15*%
X217490000Y-73000000D03*
X218510000Y-73000000D03*
%TD*%
D11*
%TO.C,C10*%
X149520000Y-50000000D03*
X150480000Y-50000000D03*
%TD*%
%TO.C,C15*%
X79520000Y-50000000D03*
X80480000Y-50000000D03*
%TD*%
D10*
%TO.C,R17*%
X217490000Y-79000000D03*
X218510000Y-79000000D03*
%TD*%
D11*
%TO.C,C2*%
X146520000Y-68000000D03*
X147480000Y-68000000D03*
%TD*%
%TO.C,C14*%
X139520000Y-102000000D03*
X140480000Y-102000000D03*
%TD*%
D10*
%TO.C,R1*%
X99490000Y-125000000D03*
X100510000Y-125000000D03*
%TD*%
D22*
%TO.C,C24*%
X204050000Y-47000000D03*
X205950000Y-47000000D03*
%TD*%
D10*
%TO.C,R14*%
X217490000Y-70000000D03*
X218510000Y-70000000D03*
%TD*%
%TO.C,R2*%
X103490000Y-125000000D03*
X104510000Y-125000000D03*
%TD*%
%TO.C,R10*%
X140490000Y-125000000D03*
X141510000Y-125000000D03*
%TD*%
%TO.C,R3*%
X107490000Y-125000000D03*
X108510000Y-125000000D03*
%TD*%
D22*
%TO.C,C23*%
X194050000Y-55000000D03*
X195950000Y-55000000D03*
%TD*%
D11*
%TO.C,C9*%
X129520000Y-50000000D03*
X130480000Y-50000000D03*
%TD*%
%TO.C,C8*%
X139520000Y-83000000D03*
X140480000Y-83000000D03*
%TD*%
D10*
%TO.C,R5*%
X115490000Y-125000000D03*
X116510000Y-125000000D03*
%TD*%
D11*
%TO.C,C6*%
X149520000Y-75000000D03*
X150480000Y-75000000D03*
%TD*%
D10*
%TO.C,R7*%
X128490000Y-125000000D03*
X129510000Y-125000000D03*
%TD*%
D15*
%TO.C,U10*%
X196850000Y-52700000D03*
X196850000Y-55000000D03*
D16*
X203150000Y-55000000D03*
D15*
X196850000Y-57300000D03*
%TD*%
D10*
%TO.C,R11*%
X69490000Y-35000000D03*
X70510000Y-35000000D03*
%TD*%
D23*
%TO.C,U6*%
X162525000Y-53095000D03*
X162525000Y-54365000D03*
X162525000Y-55635000D03*
X162525000Y-56905000D03*
X167475000Y-56905000D03*
X167475000Y-55635000D03*
X167475000Y-54365000D03*
X167475000Y-53095000D03*
%TD*%
D11*
%TO.C,C18*%
X94520000Y-110000000D03*
X95480000Y-110000000D03*
%TD*%
D10*
%TO.C,R13*%
X79490000Y-35000000D03*
X80510000Y-35000000D03*
%TD*%
D11*
%TO.C,C7*%
X139520000Y-67000000D03*
X140480000Y-67000000D03*
%TD*%
D10*
%TO.C,R8*%
X132490000Y-125000000D03*
X133510000Y-125000000D03*
%TD*%
D11*
%TO.C,C21*%
X159520000Y-52000000D03*
X160480000Y-52000000D03*
%TD*%
D24*
%TO.C,J4*%
X206795000Y-97900000D03*
X207895000Y-97900000D03*
X208995000Y-97900000D03*
X210095000Y-97900000D03*
X211195000Y-97900000D03*
X212295000Y-97900000D03*
X213395000Y-97900000D03*
X214495000Y-97900000D03*
D25*
X203125000Y-95300000D03*
X203125000Y-103600000D03*
X216875000Y-95300000D03*
X216875000Y-103600000D03*
%TD*%
D26*
%TO.C,U1*%
X132500000Y-67500000D03*
X133500000Y-67500000D03*
X134500000Y-67500000D03*
X135500000Y-67500000D03*
X136500000Y-67500000D03*
X137500000Y-67500000D03*
X138500000Y-67500000D03*
X139500000Y-67500000D03*
X140500000Y-67500000D03*
X141500000Y-67500000D03*
X142500000Y-67500000D03*
X143500000Y-67500000D03*
X144500000Y-67500000D03*
X145500000Y-67500000D03*
X146500000Y-67500000D03*
X147500000Y-67500000D03*
X132500000Y-68500000D03*
X133500000Y-68500000D03*
X134500000Y-68500000D03*
X135500000Y-68500000D03*
X136500000Y-68500000D03*
X137500000Y-68500000D03*
X138500000Y-68500000D03*
X139500000Y-68500000D03*
X140500000Y-68500000D03*
X141500000Y-68500000D03*
X142500000Y-68500000D03*
X143500000Y-68500000D03*
X144500000Y-68500000D03*
X145500000Y-68500000D03*
X146500000Y-68500000D03*
X147500000Y-68500000D03*
X132500000Y-69500000D03*
X133500000Y-69500000D03*
X134500000Y-69500000D03*
X135500000Y-69500000D03*
X136500000Y-69500000D03*
X137500000Y-69500000D03*
X138500000Y-69500000D03*
X139500000Y-69500000D03*
X140500000Y-69500000D03*
X141500000Y-69500000D03*
X142500000Y-69500000D03*
X143500000Y-69500000D03*
X144500000Y-69500000D03*
X145500000Y-69500000D03*
X146500000Y-69500000D03*
X147500000Y-69500000D03*
X132500000Y-70500000D03*
X133500000Y-70500000D03*
X134500000Y-70500000D03*
X135500000Y-70500000D03*
X136500000Y-70500000D03*
X137500000Y-70500000D03*
X138500000Y-70500000D03*
X139500000Y-70500000D03*
X140500000Y-70500000D03*
X141500000Y-70500000D03*
X142500000Y-70500000D03*
X143500000Y-70500000D03*
X144500000Y-70500000D03*
X145500000Y-70500000D03*
X146500000Y-70500000D03*
X147500000Y-70500000D03*
X132500000Y-71500000D03*
X133500000Y-71500000D03*
X134500000Y-71500000D03*
X135500000Y-71500000D03*
X136500000Y-71500000D03*
X137500000Y-71500000D03*
X138500000Y-71500000D03*
X139500000Y-71500000D03*
X140500000Y-71500000D03*
X141500000Y-71500000D03*
X142500000Y-71500000D03*
X143500000Y-71500000D03*
X144500000Y-71500000D03*
X145500000Y-71500000D03*
X146500000Y-71500000D03*
X147500000Y-71500000D03*
X132500000Y-72500000D03*
X133500000Y-72500000D03*
X134500000Y-72500000D03*
X135500000Y-72500000D03*
X136500000Y-72500000D03*
X137500000Y-72500000D03*
X138500000Y-72500000D03*
X139500000Y-72500000D03*
X140500000Y-72500000D03*
X141500000Y-72500000D03*
X142500000Y-72500000D03*
X143500000Y-72500000D03*
X144500000Y-72500000D03*
X145500000Y-72500000D03*
X146500000Y-72500000D03*
X147500000Y-72500000D03*
X132500000Y-73500000D03*
X133500000Y-73500000D03*
X134500000Y-73500000D03*
X135500000Y-73500000D03*
X136500000Y-73500000D03*
X137500000Y-73500000D03*
X138500000Y-73500000D03*
X139500000Y-73500000D03*
X140500000Y-73500000D03*
X141500000Y-73500000D03*
X142500000Y-73500000D03*
X143500000Y-73500000D03*
X144500000Y-73500000D03*
X145500000Y-73500000D03*
X146500000Y-73500000D03*
X147500000Y-73500000D03*
X132500000Y-74500000D03*
X133500000Y-74500000D03*
X134500000Y-74500000D03*
X135500000Y-74500000D03*
X136500000Y-74500000D03*
X137500000Y-74500000D03*
X138500000Y-74500000D03*
X139500000Y-74500000D03*
X140500000Y-74500000D03*
X141500000Y-74500000D03*
X142500000Y-74500000D03*
X143500000Y-74500000D03*
X144500000Y-74500000D03*
X145500000Y-74500000D03*
X146500000Y-74500000D03*
X147500000Y-74500000D03*
X132500000Y-75500000D03*
X133500000Y-75500000D03*
X134500000Y-75500000D03*
X135500000Y-75500000D03*
X136500000Y-75500000D03*
X137500000Y-75500000D03*
X138500000Y-75500000D03*
X139500000Y-75500000D03*
X140500000Y-75500000D03*
X141500000Y-75500000D03*
X142500000Y-75500000D03*
X143500000Y-75500000D03*
X144500000Y-75500000D03*
X145500000Y-75500000D03*
X146500000Y-75500000D03*
X147500000Y-75500000D03*
X132500000Y-76500000D03*
X133500000Y-76500000D03*
X134500000Y-76500000D03*
X135500000Y-76500000D03*
X136500000Y-76500000D03*
X137500000Y-76500000D03*
X138500000Y-76500000D03*
X139500000Y-76500000D03*
X140500000Y-76500000D03*
X141500000Y-76500000D03*
X142500000Y-76500000D03*
X143500000Y-76500000D03*
X144500000Y-76500000D03*
X145500000Y-76500000D03*
X146500000Y-76500000D03*
X147500000Y-76500000D03*
X132500000Y-77500000D03*
X133500000Y-77500000D03*
X134500000Y-77500000D03*
X135500000Y-77500000D03*
X136500000Y-77500000D03*
X137500000Y-77500000D03*
X138500000Y-77500000D03*
X139500000Y-77500000D03*
X140500000Y-77500000D03*
X141500000Y-77500000D03*
X142500000Y-77500000D03*
X143500000Y-77500000D03*
X144500000Y-77500000D03*
X145500000Y-77500000D03*
X146500000Y-77500000D03*
X147500000Y-77500000D03*
X132500000Y-78500000D03*
X133500000Y-78500000D03*
X134500000Y-78500000D03*
X135500000Y-78500000D03*
X136500000Y-78500000D03*
X137500000Y-78500000D03*
X138500000Y-78500000D03*
X139500000Y-78500000D03*
X140500000Y-78500000D03*
X141500000Y-78500000D03*
X142500000Y-78500000D03*
X143500000Y-78500000D03*
X144500000Y-78500000D03*
X145500000Y-78500000D03*
X146500000Y-78500000D03*
X147500000Y-78500000D03*
X132500000Y-79500000D03*
X133500000Y-79500000D03*
X134500000Y-79500000D03*
X135500000Y-79500000D03*
X136500000Y-79500000D03*
X137500000Y-79500000D03*
X138500000Y-79500000D03*
X139500000Y-79500000D03*
X140500000Y-79500000D03*
X141500000Y-79500000D03*
X142500000Y-79500000D03*
X143500000Y-79500000D03*
X144500000Y-79500000D03*
X145500000Y-79500000D03*
X146500000Y-79500000D03*
X147500000Y-79500000D03*
X132500000Y-80500000D03*
X133500000Y-80500000D03*
X134500000Y-80500000D03*
X135500000Y-80500000D03*
X136500000Y-80500000D03*
X137500000Y-80500000D03*
X138500000Y-80500000D03*
X139500000Y-80500000D03*
X140500000Y-80500000D03*
X141500000Y-80500000D03*
X142500000Y-80500000D03*
X143500000Y-80500000D03*
X144500000Y-80500000D03*
X145500000Y-80500000D03*
X146500000Y-80500000D03*
X147500000Y-80500000D03*
X132500000Y-81500000D03*
X133500000Y-81500000D03*
X134500000Y-81500000D03*
X135500000Y-81500000D03*
X136500000Y-81500000D03*
X137500000Y-81500000D03*
X138500000Y-81500000D03*
X139500000Y-81500000D03*
X140500000Y-81500000D03*
X141500000Y-81500000D03*
X142500000Y-81500000D03*
X143500000Y-81500000D03*
X144500000Y-81500000D03*
X145500000Y-81500000D03*
X146500000Y-81500000D03*
X147500000Y-81500000D03*
X132500000Y-82500000D03*
X133500000Y-82500000D03*
X134500000Y-82500000D03*
X135500000Y-82500000D03*
X136500000Y-82500000D03*
X137500000Y-82500000D03*
X138500000Y-82500000D03*
X139500000Y-82500000D03*
X140500000Y-82500000D03*
X141500000Y-82500000D03*
X142500000Y-82500000D03*
X143500000Y-82500000D03*
X144500000Y-82500000D03*
X145500000Y-82500000D03*
X146500000Y-82500000D03*
X147500000Y-82500000D03*
%TD*%
D21*
%TO.C,U7*%
X95350000Y-109285000D03*
X95350000Y-110555000D03*
X95350000Y-111825000D03*
X95350000Y-113095000D03*
X95350000Y-114365000D03*
X95350000Y-115635000D03*
X95350000Y-116905000D03*
X95350000Y-118175000D03*
X95350000Y-119445000D03*
X95350000Y-120715000D03*
X104650000Y-120715000D03*
X104650000Y-119445000D03*
X104650000Y-118175000D03*
X104650000Y-116905000D03*
X104650000Y-115635000D03*
X104650000Y-114365000D03*
X104650000Y-113095000D03*
X104650000Y-111825000D03*
X104650000Y-110555000D03*
X104650000Y-109285000D03*
%TD*%
D23*
%TO.C,U5*%
X72525000Y-53095000D03*
X72525000Y-54365000D03*
X72525000Y-55635000D03*
X72525000Y-56905000D03*
X77475000Y-56905000D03*
X77475000Y-55635000D03*
X77475000Y-54365000D03*
X77475000Y-53095000D03*
%TD*%
D10*
%TO.C,R4*%
X111490000Y-125000000D03*
X112510000Y-125000000D03*
%TD*%
D11*
%TO.C,C17*%
X84520000Y-60000000D03*
X85480000Y-60000000D03*
%TD*%
%TO.C,C12*%
X129520000Y-100000000D03*
X130480000Y-100000000D03*
%TD*%
D22*
%TO.C,C22*%
X194050000Y-40000000D03*
X195950000Y-40000000D03*
%TD*%
M02*
