%TF.GenerationSoftware,KiCad,Pcbnew,9.0.8+dfsg-1*%
%TF.CreationDate,2026-04-27T10:51:39+02:00*%
%TF.ProjectId,neocart_fpga_prog,6e656f63-6172-4745-9f66-7067615f7072,rev?*%
%TF.SameCoordinates,Original*%
%TF.FileFunction,Soldermask,Bot*%
%TF.FilePolarity,Negative*%
%FSLAX46Y46*%
G04 Gerber Fmt 4.6, Leading zero omitted, Abs format (unit mm)*
G04 Created by KiCad (PCBNEW 9.0.8+dfsg-1) date 2026-04-27 10:51:39*
%MOMM*%
%LPD*%
G01*
G04 APERTURE LIST*
G04 Aperture macros list*
%AMFreePoly0*
4,1,11,0.127000,5.588000,0.421000,5.000000,0.750000,5.000000,0.750000,-5.000000,-0.750000,-5.000000,-0.750000,5.000000,-0.421000,5.000000,-0.127000,5.588000,-0.127000,6.350000,0.127000,6.350000,0.127000,5.588000,0.127000,5.588000,$1*%
G04 Aperture macros list end*
%ADD10R,1.700000X1.700000*%
%ADD11C,1.700000*%
%ADD12C,0.700000*%
%ADD13O,2.400000X0.900000*%
%ADD14O,1.700000X0.900000*%
%ADD15FreePoly0,180.000000*%
G04 APERTURE END LIST*
D10*
%TO.C,J7*%
X60000000Y-40000000D03*
D11*
X60000000Y-42540000D03*
X60000000Y-45080000D03*
%TD*%
D10*
%TO.C,J5A*%
X125000000Y-35000000D03*
D11*
X127540000Y-35000000D03*
X125000000Y-37540000D03*
X127540000Y-37540000D03*
X125000000Y-40080000D03*
X127540000Y-40080000D03*
X125000000Y-42620000D03*
X127540000Y-42620000D03*
X125000000Y-45160000D03*
X127540000Y-45160000D03*
X125000000Y-47700000D03*
X127540000Y-47700000D03*
X125000000Y-50240000D03*
X127540000Y-50240000D03*
X125000000Y-52780000D03*
X127540000Y-52780000D03*
X125000000Y-55320000D03*
X127540000Y-55320000D03*
X125000000Y-57860000D03*
X127540000Y-57860000D03*
X125000000Y-60400000D03*
X127540000Y-60400000D03*
X125000000Y-62940000D03*
X127540000Y-62940000D03*
X125000000Y-65480000D03*
X127540000Y-65480000D03*
X125000000Y-68020000D03*
X127540000Y-68020000D03*
X125000000Y-70560000D03*
X127540000Y-70560000D03*
X125000000Y-73100000D03*
X127540000Y-73100000D03*
X125000000Y-75640000D03*
X127540000Y-75640000D03*
X125000000Y-78180000D03*
X127540000Y-78180000D03*
X125000000Y-80720000D03*
X127540000Y-80720000D03*
X125000000Y-83260000D03*
X127540000Y-83260000D03*
X125000000Y-85800000D03*
X127540000Y-85800000D03*
X125000000Y-88340000D03*
X127540000Y-88340000D03*
X125000000Y-90880000D03*
X127540000Y-90880000D03*
X125000000Y-93420000D03*
X127540000Y-93420000D03*
X125000000Y-95960000D03*
X127540000Y-95960000D03*
%TD*%
D10*
%TO.C,J5B*%
X155000000Y-35000000D03*
D11*
X157540000Y-35000000D03*
X155000000Y-37540000D03*
X157540000Y-37540000D03*
X155000000Y-40080000D03*
X157540000Y-40080000D03*
X155000000Y-42620000D03*
X157540000Y-42620000D03*
X155000000Y-45160000D03*
X157540000Y-45160000D03*
X155000000Y-47700000D03*
X157540000Y-47700000D03*
X155000000Y-50240000D03*
X157540000Y-50240000D03*
X155000000Y-52780000D03*
X157540000Y-52780000D03*
X155000000Y-55320000D03*
X157540000Y-55320000D03*
X155000000Y-57860000D03*
X157540000Y-57860000D03*
X155000000Y-60400000D03*
X157540000Y-60400000D03*
X155000000Y-62940000D03*
X157540000Y-62940000D03*
X155000000Y-65480000D03*
X157540000Y-65480000D03*
X155000000Y-68020000D03*
X157540000Y-68020000D03*
X155000000Y-70560000D03*
X157540000Y-70560000D03*
X155000000Y-73100000D03*
X157540000Y-73100000D03*
X155000000Y-75640000D03*
X157540000Y-75640000D03*
X155000000Y-78180000D03*
X157540000Y-78180000D03*
X155000000Y-80720000D03*
X157540000Y-80720000D03*
X155000000Y-83260000D03*
X157540000Y-83260000D03*
X155000000Y-85800000D03*
X157540000Y-85800000D03*
X155000000Y-88340000D03*
X157540000Y-88340000D03*
X155000000Y-90880000D03*
X157540000Y-90880000D03*
X155000000Y-93420000D03*
X157540000Y-93420000D03*
X155000000Y-95960000D03*
X157540000Y-95960000D03*
%TD*%
D10*
%TO.C,J6*%
X70000000Y-40000000D03*
D11*
X72540000Y-40000000D03*
X70000000Y-42540000D03*
X72540000Y-42540000D03*
X70000000Y-45080000D03*
X72540000Y-45080000D03*
%TD*%
D12*
%TO.C,J3*%
X222000000Y-75000000D03*
X222000000Y-74150000D03*
X222000000Y-73300000D03*
X222000000Y-72450000D03*
X222000000Y-71600000D03*
X222000000Y-70750000D03*
X222000000Y-69900000D03*
X222000000Y-69050000D03*
X223350000Y-69050000D03*
X223350000Y-69900000D03*
X223350000Y-70750000D03*
X223350000Y-71600000D03*
X223350000Y-72450000D03*
X223350000Y-73300000D03*
X223350000Y-74150000D03*
X223350000Y-75000000D03*
D13*
X222980000Y-76350000D03*
D14*
X226360000Y-76350000D03*
D13*
X222980000Y-67700000D03*
D14*
X226360000Y-67700000D03*
%TD*%
D15*
%TO.C,J1*%
X214680000Y-150650000D03*
X212140000Y-150650000D03*
X209600000Y-150650000D03*
X207060000Y-150650000D03*
X204520000Y-150650000D03*
X201980000Y-150650000D03*
X199440000Y-150650000D03*
X196900000Y-150650000D03*
X194360000Y-150650000D03*
X191820000Y-150650000D03*
X189280000Y-150650000D03*
X186740000Y-150650000D03*
X184200000Y-150650000D03*
X181660000Y-150650000D03*
X179120000Y-150650000D03*
X176580000Y-150650000D03*
X174040000Y-150650000D03*
X171500000Y-150650000D03*
X168960000Y-150650000D03*
X166420000Y-150650000D03*
X163880000Y-150650000D03*
X161340000Y-150650000D03*
X158800000Y-150650000D03*
X156260000Y-150650000D03*
X153720000Y-150650000D03*
X151180000Y-150650000D03*
X148640000Y-150650000D03*
X146100000Y-150650000D03*
X143560000Y-150650000D03*
X141020000Y-150650000D03*
X138480000Y-150650000D03*
X135940000Y-150650000D03*
X133400000Y-150650000D03*
X130860000Y-150650000D03*
X128320000Y-150650000D03*
X125780000Y-150650000D03*
X123240000Y-150650000D03*
X120700000Y-150650000D03*
X118160000Y-150650000D03*
X115620000Y-150650000D03*
X113080000Y-150650000D03*
X110540000Y-150650000D03*
X108000000Y-150650000D03*
X105460000Y-150650000D03*
X102920000Y-150650000D03*
X100380000Y-150650000D03*
X97840000Y-150650000D03*
X95300000Y-150650000D03*
X92760000Y-150650000D03*
X90220000Y-150650000D03*
X87680000Y-150650000D03*
X85140000Y-150650000D03*
X82600000Y-150650000D03*
X80060000Y-150650000D03*
X77520000Y-150650000D03*
X74980000Y-150650000D03*
X72440000Y-150650000D03*
X69900000Y-150650000D03*
X67360000Y-150650000D03*
X64820000Y-150650000D03*
%TD*%
M02*
