%TF.GenerationSoftware,KiCad,Pcbnew,9.0.8+dfsg-1*%
%TF.CreationDate,2026-04-27T10:51:39+02:00*%
%TF.ProjectId,neocart_fpga_prog,6e656f63-6172-4745-9f66-7067615f7072,rev?*%
%TF.SameCoordinates,Original*%
%TF.FileFunction,Copper,L1,Top*%
%TF.FilePolarity,Positive*%
%FSLAX46Y46*%
G04 Gerber Fmt 4.6, Leading zero omitted, Abs format (unit mm)*
G04 Created by KiCad (PCBNEW 9.0.8+dfsg-1) date 2026-04-27 10:51:39*
%MOMM*%
%LPD*%
G01*
G04 APERTURE LIST*
G04 Aperture macros list*
%AMRoundRect*
0 Rectangle with rounded corners*
0 $1 Rounding radius*
0 $2 $3 $4 $5 $6 $7 $8 $9 X,Y pos of 4 corners*
0 Add a 4 corners polygon primitive as box body*
4,1,4,$2,$3,$4,$5,$6,$7,$8,$9,$2,$3,0*
0 Add four circle primitives for the rounded corners*
1,1,$1+$1,$2,$3*
1,1,$1+$1,$4,$5*
1,1,$1+$1,$6,$7*
1,1,$1+$1,$8,$9*
0 Add four rect primitives between the rounded corners*
20,1,$1+$1,$2,$3,$4,$5,0*
20,1,$1+$1,$4,$5,$6,$7,0*
20,1,$1+$1,$6,$7,$8,$9,0*
20,1,$1+$1,$8,$9,$2,$3,0*%
%AMFreePoly0*
4,1,11,0.750000,-5.000000,0.421000,-5.000000,0.127000,-5.588000,0.127000,-6.350000,-0.127000,-6.350000,-0.127000,-5.588000,-0.421000,-5.000000,-0.750000,-5.000000,-0.750000,5.000000,0.750000,5.000000,0.750000,-5.000000,0.750000,-5.000000,$1*%
G04 Aperture macros list end*
%TA.AperFunction,SMDPad,CuDef*%
%ADD10RoundRect,0.135000X-0.135000X-0.185000X0.135000X-0.185000X0.135000X0.185000X-0.135000X0.185000X0*%
%TD*%
%TA.AperFunction,SMDPad,CuDef*%
%ADD11RoundRect,0.140000X-0.140000X-0.170000X0.140000X-0.170000X0.140000X0.170000X-0.140000X0.170000X0*%
%TD*%
%TA.AperFunction,SMDPad,CuDef*%
%ADD12RoundRect,0.050000X-0.387500X-0.050000X0.387500X-0.050000X0.387500X0.050000X-0.387500X0.050000X0*%
%TD*%
%TA.AperFunction,SMDPad,CuDef*%
%ADD13RoundRect,0.050000X-0.050000X-0.387500X0.050000X-0.387500X0.050000X0.387500X-0.050000X0.387500X0*%
%TD*%
%TA.AperFunction,HeatsinkPad*%
%ADD14R,5.600000X5.600000*%
%TD*%
%TA.AperFunction,SMDPad,CuDef*%
%ADD15RoundRect,0.375000X-0.625000X-0.375000X0.625000X-0.375000X0.625000X0.375000X-0.625000X0.375000X0*%
%TD*%
%TA.AperFunction,SMDPad,CuDef*%
%ADD16RoundRect,0.500000X-0.500000X-1.400000X0.500000X-1.400000X0.500000X1.400000X-0.500000X1.400000X0*%
%TD*%
%TA.AperFunction,SMDPad,CuDef*%
%ADD17R,1.000000X1.800000*%
%TD*%
%TA.AperFunction,ComponentPad*%
%ADD18R,1.700000X1.700000*%
%TD*%
%TA.AperFunction,ComponentPad*%
%ADD19C,1.700000*%
%TD*%
%TA.AperFunction,SMDPad,CuDef*%
%ADD20RoundRect,0.250000X-0.525000X-0.400000X0.525000X-0.400000X0.525000X0.400000X-0.525000X0.400000X0*%
%TD*%
%TA.AperFunction,SMDPad,CuDef*%
%ADD21R,1.510000X0.458000*%
%TD*%
%TA.AperFunction,SMDPad,CuDef*%
%ADD22RoundRect,0.243750X-0.243750X-0.456250X0.243750X-0.456250X0.243750X0.456250X-0.243750X0.456250X0*%
%TD*%
%TA.AperFunction,SMDPad,CuDef*%
%ADD23RoundRect,0.150000X-0.875000X-0.150000X0.875000X-0.150000X0.875000X0.150000X-0.875000X0.150000X0*%
%TD*%
%TA.AperFunction,ConnectorPad*%
%ADD24FreePoly0,0.000000*%
%TD*%
%TA.AperFunction,SMDPad,CuDef*%
%ADD25RoundRect,0.250000X-0.250000X-0.475000X0.250000X-0.475000X0.250000X0.475000X-0.250000X0.475000X0*%
%TD*%
%TA.AperFunction,SMDPad,CuDef*%
%ADD26RoundRect,0.150000X-0.825000X-0.150000X0.825000X-0.150000X0.825000X0.150000X-0.825000X0.150000X0*%
%TD*%
%TA.AperFunction,SMDPad,CuDef*%
%ADD27R,0.800000X1.500000*%
%TD*%
%TA.AperFunction,SMDPad,CuDef*%
%ADD28RoundRect,0.362500X-0.362500X-0.637500X0.362500X-0.637500X0.362500X0.637500X-0.362500X0.637500X0*%
%TD*%
%TA.AperFunction,ComponentPad*%
%ADD29C,0.700000*%
%TD*%
%TA.AperFunction,ComponentPad*%
%ADD30O,2.400000X0.900000*%
%TD*%
%TA.AperFunction,ComponentPad*%
%ADD31O,1.700000X0.900000*%
%TD*%
%TA.AperFunction,BGAPad,CuDef*%
%ADD32C,0.400000*%
%TD*%
G04 APERTURE END LIST*
D10*
%TO.P,R6,1*%
%TO.N,N/C*%
X124490000Y-125000000D03*
%TO.P,R6,2*%
X125510000Y-125000000D03*
%TD*%
D11*
%TO.P,C16,1*%
%TO.N,N/C*%
X89520000Y-50000000D03*
%TO.P,C16,2*%
X90480000Y-50000000D03*
%TD*%
%TO.P,C13,1*%
%TO.N,N/C*%
X149520000Y-100000000D03*
%TO.P,C13,2*%
X150480000Y-100000000D03*
%TD*%
%TO.P,C1,1*%
%TO.N,N/C*%
X132520000Y-68000000D03*
%TO.P,C1,2*%
X133480000Y-68000000D03*
%TD*%
D10*
%TO.P,R12,1*%
%TO.N,N/C*%
X74490000Y-35000000D03*
%TO.P,R12,2*%
X75510000Y-35000000D03*
%TD*%
D11*
%TO.P,C4,1*%
%TO.N,N/C*%
X146520000Y-82000000D03*
%TO.P,C4,2*%
X147480000Y-82000000D03*
%TD*%
%TO.P,C20,1*%
%TO.N,N/C*%
X69520000Y-52000000D03*
%TO.P,C20,2*%
X70480000Y-52000000D03*
%TD*%
D12*
%TO.P,U4,1*%
%TO.N,N/C*%
X81562500Y-52400000D03*
%TO.P,U4,2*%
X81562500Y-52800000D03*
%TO.P,U4,3*%
X81562500Y-53200000D03*
%TO.P,U4,4*%
X81562500Y-53600000D03*
%TO.P,U4,5*%
X81562500Y-54000000D03*
%TO.P,U4,6*%
X81562500Y-54400000D03*
%TO.P,U4,7*%
X81562500Y-54800000D03*
%TO.P,U4,8*%
X81562500Y-55200000D03*
%TO.P,U4,9*%
X81562500Y-55600000D03*
%TO.P,U4,10*%
X81562500Y-56000000D03*
%TO.P,U4,11*%
X81562500Y-56400000D03*
%TO.P,U4,12*%
X81562500Y-56800000D03*
%TO.P,U4,13*%
X81562500Y-57200000D03*
%TO.P,U4,14*%
X81562500Y-57600000D03*
D13*
%TO.P,U4,15*%
X82400000Y-58437500D03*
%TO.P,U4,16*%
X82800000Y-58437500D03*
%TO.P,U4,17*%
X83200000Y-58437500D03*
%TO.P,U4,18*%
X83600000Y-58437500D03*
%TO.P,U4,19*%
X84000000Y-58437500D03*
%TO.P,U4,20*%
X84400000Y-58437500D03*
%TO.P,U4,21*%
X84800000Y-58437500D03*
%TO.P,U4,22*%
X85200000Y-58437500D03*
%TO.P,U4,23*%
X85600000Y-58437500D03*
%TO.P,U4,24*%
X86000000Y-58437500D03*
%TO.P,U4,25*%
X86400000Y-58437500D03*
%TO.P,U4,26*%
X86800000Y-58437500D03*
%TO.P,U4,27*%
X87200000Y-58437500D03*
%TO.P,U4,28*%
X87600000Y-58437500D03*
D12*
%TO.P,U4,29*%
X88437500Y-57600000D03*
%TO.P,U4,30*%
X88437500Y-57200000D03*
%TO.P,U4,31*%
X88437500Y-56800000D03*
%TO.P,U4,32*%
X88437500Y-56400000D03*
%TO.P,U4,33*%
X88437500Y-56000000D03*
%TO.P,U4,34*%
X88437500Y-55600000D03*
%TO.P,U4,35*%
X88437500Y-55200000D03*
%TO.P,U4,36*%
X88437500Y-54800000D03*
%TO.P,U4,37*%
X88437500Y-54400000D03*
%TO.P,U4,38*%
X88437500Y-54000000D03*
%TO.P,U4,39*%
X88437500Y-53600000D03*
%TO.P,U4,40*%
X88437500Y-53200000D03*
%TO.P,U4,41*%
X88437500Y-52800000D03*
%TO.P,U4,42*%
X88437500Y-52400000D03*
D13*
%TO.P,U4,43*%
X87600000Y-51562500D03*
%TO.P,U4,44*%
X87200000Y-51562500D03*
%TO.P,U4,45*%
X86800000Y-51562500D03*
%TO.P,U4,46*%
X86400000Y-51562500D03*
%TO.P,U4,47*%
X86000000Y-51562500D03*
%TO.P,U4,48*%
X85600000Y-51562500D03*
%TO.P,U4,49*%
X85200000Y-51562500D03*
%TO.P,U4,50*%
X84800000Y-51562500D03*
%TO.P,U4,51*%
X84400000Y-51562500D03*
%TO.P,U4,52*%
X84000000Y-51562500D03*
%TO.P,U4,53*%
X83600000Y-51562500D03*
%TO.P,U4,54*%
X83200000Y-51562500D03*
%TO.P,U4,55*%
X82800000Y-51562500D03*
%TO.P,U4,56*%
X82400000Y-51562500D03*
D14*
%TO.P,U4,57*%
X85000000Y-55000000D03*
%TD*%
D11*
%TO.P,C25,1*%
%TO.N,N/C*%
X91520000Y-57000000D03*
%TO.P,C25,2*%
X92480000Y-57000000D03*
%TD*%
D15*
%TO.P,U9,1*%
%TO.N,N/C*%
X196850000Y-37700000D03*
%TO.P,U9,2*%
X196850000Y-40000000D03*
D16*
X203150000Y-40000000D03*
D15*
%TO.P,U9,3*%
X196850000Y-42300000D03*
%TD*%
D17*
%TO.P,Y1,1*%
%TO.N,N/C*%
X96250000Y-55000000D03*
%TO.P,Y1,2*%
X93750000Y-55000000D03*
%TD*%
D18*
%TO.P,J7,1*%
%TO.N,N/C*%
X60000000Y-40000000D03*
D19*
%TO.P,J7,2*%
X60000000Y-42540000D03*
%TO.P,J7,3*%
X60000000Y-45080000D03*
%TD*%
D11*
%TO.P,C19,1*%
%TO.N,N/C*%
X119520000Y-110000000D03*
%TO.P,C19,2*%
X120480000Y-110000000D03*
%TD*%
D20*
%TO.P,SW1,1*%
%TO.N,N/C*%
X71020000Y-42750000D03*
X78980000Y-42750000D03*
%TO.P,SW1,2*%
X71020000Y-47250000D03*
X78980000Y-47250000D03*
%TD*%
D21*
%TO.P,U3,1*%
%TO.N,N/C*%
X134250000Y-84600000D03*
%TO.P,U3,2*%
X134250000Y-85400000D03*
%TO.P,U3,3*%
X134250000Y-86200000D03*
%TO.P,U3,4*%
X134250000Y-87000000D03*
%TO.P,U3,5*%
X134250000Y-87800000D03*
%TO.P,U3,6*%
X134250000Y-88600000D03*
%TO.P,U3,7*%
X134250000Y-89400000D03*
%TO.P,U3,8*%
X134250000Y-90200000D03*
%TO.P,U3,9*%
X134250000Y-91000000D03*
%TO.P,U3,10*%
X134250000Y-91800000D03*
%TO.P,U3,11*%
X134250000Y-92600000D03*
%TO.P,U3,12*%
X134250000Y-93400000D03*
%TO.P,U3,13*%
X134250000Y-94200000D03*
%TO.P,U3,14*%
X134250000Y-95000000D03*
%TO.P,U3,15*%
X134250000Y-95800000D03*
%TO.P,U3,16*%
X134250000Y-96600000D03*
%TO.P,U3,17*%
X134250000Y-97400000D03*
%TO.P,U3,18*%
X134250000Y-98200000D03*
%TO.P,U3,19*%
X134250000Y-99000000D03*
%TO.P,U3,20*%
X134250000Y-99800000D03*
%TO.P,U3,21*%
X134250000Y-100600000D03*
%TO.P,U3,22*%
X134250000Y-101400000D03*
%TO.P,U3,23*%
X134250000Y-102200000D03*
%TO.P,U3,24*%
X134250000Y-103000000D03*
%TO.P,U3,25*%
X134250000Y-103800000D03*
%TO.P,U3,26*%
X134250000Y-104600000D03*
%TO.P,U3,27*%
X134250000Y-105400000D03*
%TO.P,U3,28*%
X145750000Y-105400000D03*
%TO.P,U3,29*%
X145750000Y-104600000D03*
%TO.P,U3,30*%
X145750000Y-103800000D03*
%TO.P,U3,31*%
X145750000Y-103000000D03*
%TO.P,U3,32*%
X145750000Y-102200000D03*
%TO.P,U3,33*%
X145750000Y-101400000D03*
%TO.P,U3,34*%
X145750000Y-100600000D03*
%TO.P,U3,35*%
X145750000Y-99800000D03*
%TO.P,U3,36*%
X145750000Y-99000000D03*
%TO.P,U3,37*%
X145750000Y-98200000D03*
%TO.P,U3,38*%
X145750000Y-97400000D03*
%TO.P,U3,39*%
X145750000Y-96600000D03*
%TO.P,U3,40*%
X145750000Y-95800000D03*
%TO.P,U3,41*%
X145750000Y-95000000D03*
%TO.P,U3,42*%
X145750000Y-94200000D03*
%TO.P,U3,43*%
X145750000Y-93400000D03*
%TO.P,U3,44*%
X145750000Y-92600000D03*
%TO.P,U3,45*%
X145750000Y-91800000D03*
%TO.P,U3,46*%
X145750000Y-91000000D03*
%TO.P,U3,47*%
X145750000Y-90200000D03*
%TO.P,U3,48*%
X145750000Y-89400000D03*
%TO.P,U3,49*%
X145750000Y-88600000D03*
%TO.P,U3,50*%
X145750000Y-87800000D03*
%TO.P,U3,51*%
X145750000Y-87000000D03*
%TO.P,U3,52*%
X145750000Y-86200000D03*
%TO.P,U3,53*%
X145750000Y-85400000D03*
%TO.P,U3,54*%
X145750000Y-84600000D03*
%TD*%
D22*
%TO.P,LED2,1*%
%TO.N,N/C*%
X74062500Y-32000000D03*
%TO.P,LED2,2*%
X75937500Y-32000000D03*
%TD*%
D11*
%TO.P,C5,1*%
%TO.N,N/C*%
X129520000Y-75000000D03*
%TO.P,C5,2*%
X130480000Y-75000000D03*
%TD*%
D21*
%TO.P,U2,1*%
%TO.N,N/C*%
X134250000Y-44600000D03*
%TO.P,U2,2*%
X134250000Y-45400000D03*
%TO.P,U2,3*%
X134250000Y-46200000D03*
%TO.P,U2,4*%
X134250000Y-47000000D03*
%TO.P,U2,5*%
X134250000Y-47800000D03*
%TO.P,U2,6*%
X134250000Y-48600000D03*
%TO.P,U2,7*%
X134250000Y-49400000D03*
%TO.P,U2,8*%
X134250000Y-50200000D03*
%TO.P,U2,9*%
X134250000Y-51000000D03*
%TO.P,U2,10*%
X134250000Y-51800000D03*
%TO.P,U2,11*%
X134250000Y-52600000D03*
%TO.P,U2,12*%
X134250000Y-53400000D03*
%TO.P,U2,13*%
X134250000Y-54200000D03*
%TO.P,U2,14*%
X134250000Y-55000000D03*
%TO.P,U2,15*%
X134250000Y-55800000D03*
%TO.P,U2,16*%
X134250000Y-56600000D03*
%TO.P,U2,17*%
X134250000Y-57400000D03*
%TO.P,U2,18*%
X134250000Y-58200000D03*
%TO.P,U2,19*%
X134250000Y-59000000D03*
%TO.P,U2,20*%
X134250000Y-59800000D03*
%TO.P,U2,21*%
X134250000Y-60600000D03*
%TO.P,U2,22*%
X134250000Y-61400000D03*
%TO.P,U2,23*%
X134250000Y-62200000D03*
%TO.P,U2,24*%
X134250000Y-63000000D03*
%TO.P,U2,25*%
X134250000Y-63800000D03*
%TO.P,U2,26*%
X134250000Y-64600000D03*
%TO.P,U2,27*%
X134250000Y-65400000D03*
%TO.P,U2,28*%
X145750000Y-65400000D03*
%TO.P,U2,29*%
X145750000Y-64600000D03*
%TO.P,U2,30*%
X145750000Y-63800000D03*
%TO.P,U2,31*%
X145750000Y-63000000D03*
%TO.P,U2,32*%
X145750000Y-62200000D03*
%TO.P,U2,33*%
X145750000Y-61400000D03*
%TO.P,U2,34*%
X145750000Y-60600000D03*
%TO.P,U2,35*%
X145750000Y-59800000D03*
%TO.P,U2,36*%
X145750000Y-59000000D03*
%TO.P,U2,37*%
X145750000Y-58200000D03*
%TO.P,U2,38*%
X145750000Y-57400000D03*
%TO.P,U2,39*%
X145750000Y-56600000D03*
%TO.P,U2,40*%
X145750000Y-55800000D03*
%TO.P,U2,41*%
X145750000Y-55000000D03*
%TO.P,U2,42*%
X145750000Y-54200000D03*
%TO.P,U2,43*%
X145750000Y-53400000D03*
%TO.P,U2,44*%
X145750000Y-52600000D03*
%TO.P,U2,45*%
X145750000Y-51800000D03*
%TO.P,U2,46*%
X145750000Y-51000000D03*
%TO.P,U2,47*%
X145750000Y-50200000D03*
%TO.P,U2,48*%
X145750000Y-49400000D03*
%TO.P,U2,49*%
X145750000Y-48600000D03*
%TO.P,U2,50*%
X145750000Y-47800000D03*
%TO.P,U2,51*%
X145750000Y-47000000D03*
%TO.P,U2,52*%
X145750000Y-46200000D03*
%TO.P,U2,53*%
X145750000Y-45400000D03*
%TO.P,U2,54*%
X145750000Y-44600000D03*
%TD*%
D11*
%TO.P,C11,1*%
%TO.N,N/C*%
X139520000Y-48000000D03*
%TO.P,C11,2*%
X140480000Y-48000000D03*
%TD*%
%TO.P,C26,1*%
%TO.N,N/C*%
X97520000Y-57000000D03*
%TO.P,C26,2*%
X98480000Y-57000000D03*
%TD*%
D10*
%TO.P,R9,1*%
%TO.N,N/C*%
X136490000Y-125000000D03*
%TO.P,R9,2*%
X137510000Y-125000000D03*
%TD*%
D23*
%TO.P,U8,1*%
%TO.N,N/C*%
X120350000Y-109285000D03*
%TO.P,U8,2*%
X120350000Y-110555000D03*
%TO.P,U8,3*%
X120350000Y-111825000D03*
%TO.P,U8,4*%
X120350000Y-113095000D03*
%TO.P,U8,5*%
X120350000Y-114365000D03*
%TO.P,U8,6*%
X120350000Y-115635000D03*
%TO.P,U8,7*%
X120350000Y-116905000D03*
%TO.P,U8,8*%
X120350000Y-118175000D03*
%TO.P,U8,9*%
X120350000Y-119445000D03*
%TO.P,U8,10*%
X120350000Y-120715000D03*
%TO.P,U8,11*%
X129650000Y-120715000D03*
%TO.P,U8,12*%
X129650000Y-119445000D03*
%TO.P,U8,13*%
X129650000Y-118175000D03*
%TO.P,U8,14*%
X129650000Y-116905000D03*
%TO.P,U8,15*%
X129650000Y-115635000D03*
%TO.P,U8,16*%
X129650000Y-114365000D03*
%TO.P,U8,17*%
X129650000Y-113095000D03*
%TO.P,U8,18*%
X129650000Y-111825000D03*
%TO.P,U8,19*%
X129650000Y-110555000D03*
%TO.P,U8,20*%
X129650000Y-109285000D03*
%TD*%
D11*
%TO.P,C3,1*%
%TO.N,N/C*%
X132520000Y-82000000D03*
%TO.P,C3,2*%
X133480000Y-82000000D03*
%TD*%
D20*
%TO.P,SW2,1*%
%TO.N,N/C*%
X81020000Y-42750000D03*
X88980000Y-42750000D03*
%TO.P,SW2,2*%
X81020000Y-47250000D03*
X88980000Y-47250000D03*
%TD*%
D18*
%TO.P,J5A,1*%
%TO.N,N/C*%
X125000000Y-35000000D03*
D19*
%TO.P,J5A,2*%
X127540000Y-35000000D03*
%TO.P,J5A,3*%
X125000000Y-37540000D03*
%TO.P,J5A,4*%
X127540000Y-37540000D03*
%TO.P,J5A,5*%
X125000000Y-40080000D03*
%TO.P,J5A,6*%
X127540000Y-40080000D03*
%TO.P,J5A,7*%
X125000000Y-42620000D03*
%TO.P,J5A,8*%
X127540000Y-42620000D03*
%TO.P,J5A,9*%
X125000000Y-45160000D03*
%TO.P,J5A,10*%
X127540000Y-45160000D03*
%TO.P,J5A,11*%
X125000000Y-47700000D03*
%TO.P,J5A,12*%
X127540000Y-47700000D03*
%TO.P,J5A,13*%
X125000000Y-50240000D03*
%TO.P,J5A,14*%
X127540000Y-50240000D03*
%TO.P,J5A,15*%
X125000000Y-52780000D03*
%TO.P,J5A,16*%
X127540000Y-52780000D03*
%TO.P,J5A,17*%
X125000000Y-55320000D03*
%TO.P,J5A,18*%
X127540000Y-55320000D03*
%TO.P,J5A,19*%
X125000000Y-57860000D03*
%TO.P,J5A,20*%
X127540000Y-57860000D03*
%TO.P,J5A,21*%
X125000000Y-60400000D03*
%TO.P,J5A,22*%
X127540000Y-60400000D03*
%TO.P,J5A,23*%
X125000000Y-62940000D03*
%TO.P,J5A,24*%
X127540000Y-62940000D03*
%TO.P,J5A,25*%
X125000000Y-65480000D03*
%TO.P,J5A,26*%
X127540000Y-65480000D03*
%TO.P,J5A,27*%
X125000000Y-68020000D03*
%TO.P,J5A,28*%
X127540000Y-68020000D03*
%TO.P,J5A,29*%
X125000000Y-70560000D03*
%TO.P,J5A,30*%
X127540000Y-70560000D03*
%TO.P,J5A,31*%
X125000000Y-73100000D03*
%TO.P,J5A,32*%
X127540000Y-73100000D03*
%TO.P,J5A,33*%
X125000000Y-75640000D03*
%TO.P,J5A,34*%
X127540000Y-75640000D03*
%TO.P,J5A,35*%
X125000000Y-78180000D03*
%TO.P,J5A,36*%
X127540000Y-78180000D03*
%TO.P,J5A,37*%
X125000000Y-80720000D03*
%TO.P,J5A,38*%
X127540000Y-80720000D03*
%TO.P,J5A,39*%
X125000000Y-83260000D03*
%TO.P,J5A,40*%
X127540000Y-83260000D03*
%TO.P,J5A,41*%
X125000000Y-85800000D03*
%TO.P,J5A,42*%
X127540000Y-85800000D03*
%TO.P,J5A,43*%
X125000000Y-88340000D03*
%TO.P,J5A,44*%
X127540000Y-88340000D03*
%TO.P,J5A,45*%
X125000000Y-90880000D03*
%TO.P,J5A,46*%
X127540000Y-90880000D03*
%TO.P,J5A,47*%
X125000000Y-93420000D03*
%TO.P,J5A,48*%
X127540000Y-93420000D03*
%TO.P,J5A,49*%
X125000000Y-95960000D03*
%TO.P,J5A,50*%
X127540000Y-95960000D03*
%TD*%
D22*
%TO.P,LED3,1*%
%TO.N,N/C*%
X79062500Y-32000000D03*
%TO.P,LED3,2*%
X80937500Y-32000000D03*
%TD*%
D10*
%TO.P,R16,1*%
%TO.N,N/C*%
X217490000Y-76000000D03*
%TO.P,R16,2*%
X218510000Y-76000000D03*
%TD*%
D22*
%TO.P,LED1,1*%
%TO.N,N/C*%
X69062500Y-32000000D03*
%TO.P,LED1,2*%
X70937500Y-32000000D03*
%TD*%
D10*
%TO.P,R15,1*%
%TO.N,N/C*%
X217490000Y-73000000D03*
%TO.P,R15,2*%
X218510000Y-73000000D03*
%TD*%
D11*
%TO.P,C10,1*%
%TO.N,N/C*%
X149520000Y-50000000D03*
%TO.P,C10,2*%
X150480000Y-50000000D03*
%TD*%
D18*
%TO.P,J5B,1*%
%TO.N,N/C*%
X155000000Y-35000000D03*
D19*
%TO.P,J5B,2*%
X157540000Y-35000000D03*
%TO.P,J5B,3*%
X155000000Y-37540000D03*
%TO.P,J5B,4*%
X157540000Y-37540000D03*
%TO.P,J5B,5*%
X155000000Y-40080000D03*
%TO.P,J5B,6*%
X157540000Y-40080000D03*
%TO.P,J5B,7*%
X155000000Y-42620000D03*
%TO.P,J5B,8*%
X157540000Y-42620000D03*
%TO.P,J5B,9*%
X155000000Y-45160000D03*
%TO.P,J5B,10*%
X157540000Y-45160000D03*
%TO.P,J5B,11*%
X155000000Y-47700000D03*
%TO.P,J5B,12*%
X157540000Y-47700000D03*
%TO.P,J5B,13*%
X155000000Y-50240000D03*
%TO.P,J5B,14*%
X157540000Y-50240000D03*
%TO.P,J5B,15*%
X155000000Y-52780000D03*
%TO.P,J5B,16*%
X157540000Y-52780000D03*
%TO.P,J5B,17*%
X155000000Y-55320000D03*
%TO.P,J5B,18*%
X157540000Y-55320000D03*
%TO.P,J5B,19*%
X155000000Y-57860000D03*
%TO.P,J5B,20*%
X157540000Y-57860000D03*
%TO.P,J5B,21*%
X155000000Y-60400000D03*
%TO.P,J5B,22*%
X157540000Y-60400000D03*
%TO.P,J5B,23*%
X155000000Y-62940000D03*
%TO.P,J5B,24*%
X157540000Y-62940000D03*
%TO.P,J5B,25*%
X155000000Y-65480000D03*
%TO.P,J5B,26*%
X157540000Y-65480000D03*
%TO.P,J5B,27*%
X155000000Y-68020000D03*
%TO.P,J5B,28*%
X157540000Y-68020000D03*
%TO.P,J5B,29*%
X155000000Y-70560000D03*
%TO.P,J5B,30*%
X157540000Y-70560000D03*
%TO.P,J5B,31*%
X155000000Y-73100000D03*
%TO.P,J5B,32*%
X157540000Y-73100000D03*
%TO.P,J5B,33*%
X155000000Y-75640000D03*
%TO.P,J5B,34*%
X157540000Y-75640000D03*
%TO.P,J5B,35*%
X155000000Y-78180000D03*
%TO.P,J5B,36*%
X157540000Y-78180000D03*
%TO.P,J5B,37*%
X155000000Y-80720000D03*
%TO.P,J5B,38*%
X157540000Y-80720000D03*
%TO.P,J5B,39*%
X155000000Y-83260000D03*
%TO.P,J5B,40*%
X157540000Y-83260000D03*
%TO.P,J5B,41*%
X155000000Y-85800000D03*
%TO.P,J5B,42*%
X157540000Y-85800000D03*
%TO.P,J5B,43*%
X155000000Y-88340000D03*
%TO.P,J5B,44*%
X157540000Y-88340000D03*
%TO.P,J5B,45*%
X155000000Y-90880000D03*
%TO.P,J5B,46*%
X157540000Y-90880000D03*
%TO.P,J5B,47*%
X155000000Y-93420000D03*
%TO.P,J5B,48*%
X157540000Y-93420000D03*
%TO.P,J5B,49*%
X155000000Y-95960000D03*
%TO.P,J5B,50*%
X157540000Y-95960000D03*
%TD*%
D11*
%TO.P,C15,1*%
%TO.N,N/C*%
X79520000Y-50000000D03*
%TO.P,C15,2*%
X80480000Y-50000000D03*
%TD*%
D10*
%TO.P,R17,1*%
%TO.N,N/C*%
X217490000Y-79000000D03*
%TO.P,R17,2*%
X218510000Y-79000000D03*
%TD*%
D11*
%TO.P,C2,1*%
%TO.N,N/C*%
X146520000Y-68000000D03*
%TO.P,C2,2*%
X147480000Y-68000000D03*
%TD*%
%TO.P,C14,1*%
%TO.N,N/C*%
X139520000Y-102000000D03*
%TO.P,C14,2*%
X140480000Y-102000000D03*
%TD*%
D10*
%TO.P,R1,1*%
%TO.N,N/C*%
X99490000Y-125000000D03*
%TO.P,R1,2*%
X100510000Y-125000000D03*
%TD*%
D24*
%TO.P,J2,1,GND*%
%TO.N,N/C*%
X214680000Y-150650000D03*
%TO.P,J2,2,GND*%
X212140000Y-150650000D03*
%TO.P,J2,3,GND*%
X209600000Y-150650000D03*
%TO.P,J2,4,GND*%
X207060000Y-150650000D03*
%TO.P,J2,5,D0*%
X204520000Y-150650000D03*
%TO.P,J2,6,D1*%
X201980000Y-150650000D03*
%TO.P,J2,7,D2*%
X199440000Y-150650000D03*
%TO.P,J2,8,D3*%
X196900000Y-150650000D03*
%TO.P,J2,9,D4*%
X194360000Y-150650000D03*
%TO.P,J2,10,D5*%
X191820000Y-150650000D03*
%TO.P,J2,11,D6*%
X189280000Y-150650000D03*
%TO.P,J2,12,D7*%
X186740000Y-150650000D03*
%TO.P,J2,13,D8*%
X184200000Y-150650000D03*
%TO.P,J2,14,D9*%
X181660000Y-150650000D03*
%TO.P,J2,15,D10*%
X179120000Y-150650000D03*
%TO.P,J2,16,D11*%
X176580000Y-150650000D03*
%TO.P,J2,17,D12*%
X174040000Y-150650000D03*
%TO.P,J2,18,D13*%
X171500000Y-150650000D03*
%TO.P,J2,19,D14*%
X168960000Y-150650000D03*
%TO.P,J2,20,D15*%
X166420000Y-150650000D03*
%TO.P,J2,21,R/W*%
X163880000Y-150650000D03*
%TO.P,J2,22,AS*%
X161340000Y-150650000D03*
%TO.P,J2,23,ROMOEU*%
X158800000Y-150650000D03*
%TO.P,J2,24,ROMOEL*%
X156260000Y-150650000D03*
%TO.P,J2,25,PORTOEU*%
X153720000Y-150650000D03*
%TO.P,J2,26,PORTOEL*%
X151180000Y-150650000D03*
%TO.P,J2,27,PORTWEU*%
X148640000Y-150650000D03*
%TO.P,J2,28,PORTWEL*%
X146100000Y-150650000D03*
%TO.P,J2,29,VCC*%
X143560000Y-150650000D03*
%TO.P,J2,30,VCC*%
X141020000Y-150650000D03*
%TO.P,J2,31,VCC*%
X138480000Y-150650000D03*
%TO.P,J2,32,VCC*%
X135940000Y-150650000D03*
%TO.P,J2,33,PORTADRS*%
X133400000Y-150650000D03*
%TO.P,J2,34,NC*%
X130860000Y-150650000D03*
%TO.P,J2,35,NC*%
X128320000Y-150650000D03*
%TO.P,J2,36,NC*%
X125780000Y-150650000D03*
%TO.P,J2,37,NC*%
X123240000Y-150650000D03*
%TO.P,J2,38,NC*%
X120700000Y-150650000D03*
%TO.P,J2,39,NC*%
X118160000Y-150650000D03*
%TO.P,J2,40,NC*%
X115620000Y-150650000D03*
%TO.P,J2,41,NC*%
X113080000Y-150650000D03*
%TO.P,J2,42,SLOTCS*%
X110540000Y-150650000D03*
%TO.P,J2,43,SDPA8*%
X108000000Y-150650000D03*
%TO.P,J2,44,SDPA9*%
X105460000Y-150650000D03*
%TO.P,J2,45,SDPA10*%
X102920000Y-150650000D03*
%TO.P,J2,46,SDPA11*%
X100380000Y-150650000D03*
%TO.P,J2,47,SDPMPX*%
X97840000Y-150650000D03*
%TO.P,J2,48,SDPOE*%
X95300000Y-150650000D03*
%TO.P,J2,49,SDRA8*%
X92760000Y-150650000D03*
%TO.P,J2,50,SDRA9*%
X90220000Y-150650000D03*
%TO.P,J2,51,SDRA20*%
X87680000Y-150650000D03*
%TO.P,J2,52,SDRA21*%
X85140000Y-150650000D03*
%TO.P,J2,53,SDRA22*%
X82600000Y-150650000D03*
%TO.P,J2,54,SDRA23*%
X80060000Y-150650000D03*
%TO.P,J2,55,SDRMPX*%
X77520000Y-150650000D03*
%TO.P,J2,56,SDROE*%
X74980000Y-150650000D03*
%TO.P,J2,57,GND*%
X72440000Y-150650000D03*
%TO.P,J2,58,GND*%
X69900000Y-150650000D03*
%TO.P,J2,59,GND*%
X67360000Y-150650000D03*
%TO.P,J2,60,GND*%
X64820000Y-150650000D03*
%TD*%
D25*
%TO.P,C24,1*%
%TO.N,N/C*%
X204050000Y-47000000D03*
%TO.P,C24,2*%
X205950000Y-47000000D03*
%TD*%
D18*
%TO.P,J6,1*%
%TO.N,N/C*%
X70000000Y-40000000D03*
D19*
%TO.P,J6,2*%
X72540000Y-40000000D03*
%TO.P,J6,3*%
X70000000Y-42540000D03*
%TO.P,J6,4*%
X72540000Y-42540000D03*
%TO.P,J6,5*%
X70000000Y-45080000D03*
%TO.P,J6,6*%
X72540000Y-45080000D03*
%TD*%
D10*
%TO.P,R14,1*%
%TO.N,N/C*%
X217490000Y-70000000D03*
%TO.P,R14,2*%
X218510000Y-70000000D03*
%TD*%
%TO.P,R2,1*%
%TO.N,N/C*%
X103490000Y-125000000D03*
%TO.P,R2,2*%
X104510000Y-125000000D03*
%TD*%
%TO.P,R10,1*%
%TO.N,N/C*%
X140490000Y-125000000D03*
%TO.P,R10,2*%
X141510000Y-125000000D03*
%TD*%
%TO.P,R3,1*%
%TO.N,N/C*%
X107490000Y-125000000D03*
%TO.P,R3,2*%
X108510000Y-125000000D03*
%TD*%
D25*
%TO.P,C23,1*%
%TO.N,N/C*%
X194050000Y-55000000D03*
%TO.P,C23,2*%
X195950000Y-55000000D03*
%TD*%
D11*
%TO.P,C9,1*%
%TO.N,N/C*%
X129520000Y-50000000D03*
%TO.P,C9,2*%
X130480000Y-50000000D03*
%TD*%
%TO.P,C8,1*%
%TO.N,N/C*%
X139520000Y-83000000D03*
%TO.P,C8,2*%
X140480000Y-83000000D03*
%TD*%
D10*
%TO.P,R5,1*%
%TO.N,N/C*%
X115490000Y-125000000D03*
%TO.P,R5,2*%
X116510000Y-125000000D03*
%TD*%
D11*
%TO.P,C6,1*%
%TO.N,N/C*%
X149520000Y-75000000D03*
%TO.P,C6,2*%
X150480000Y-75000000D03*
%TD*%
D10*
%TO.P,R7,1*%
%TO.N,N/C*%
X128490000Y-125000000D03*
%TO.P,R7,2*%
X129510000Y-125000000D03*
%TD*%
D15*
%TO.P,U10,1*%
%TO.N,N/C*%
X196850000Y-52700000D03*
%TO.P,U10,2*%
X196850000Y-55000000D03*
D16*
X203150000Y-55000000D03*
D15*
%TO.P,U10,3*%
X196850000Y-57300000D03*
%TD*%
D10*
%TO.P,R11,1*%
%TO.N,N/C*%
X69490000Y-35000000D03*
%TO.P,R11,2*%
X70510000Y-35000000D03*
%TD*%
D26*
%TO.P,U6,1*%
%TO.N,N/C*%
X162525000Y-53095000D03*
%TO.P,U6,2*%
X162525000Y-54365000D03*
%TO.P,U6,3*%
X162525000Y-55635000D03*
%TO.P,U6,4*%
X162525000Y-56905000D03*
%TO.P,U6,5*%
X167475000Y-56905000D03*
%TO.P,U6,6*%
X167475000Y-55635000D03*
%TO.P,U6,7*%
X167475000Y-54365000D03*
%TO.P,U6,8*%
X167475000Y-53095000D03*
%TD*%
D11*
%TO.P,C18,1*%
%TO.N,N/C*%
X94520000Y-110000000D03*
%TO.P,C18,2*%
X95480000Y-110000000D03*
%TD*%
D10*
%TO.P,R13,1*%
%TO.N,N/C*%
X79490000Y-35000000D03*
%TO.P,R13,2*%
X80510000Y-35000000D03*
%TD*%
D11*
%TO.P,C7,1*%
%TO.N,N/C*%
X139520000Y-67000000D03*
%TO.P,C7,2*%
X140480000Y-67000000D03*
%TD*%
D10*
%TO.P,R8,1*%
%TO.N,N/C*%
X132490000Y-125000000D03*
%TO.P,R8,2*%
X133510000Y-125000000D03*
%TD*%
D11*
%TO.P,C21,1*%
%TO.N,N/C*%
X159520000Y-52000000D03*
%TO.P,C21,2*%
X160480000Y-52000000D03*
%TD*%
D27*
%TO.P,J4,1*%
%TO.N,N/C*%
X206795000Y-97900000D03*
%TO.P,J4,2*%
X207895000Y-97900000D03*
%TO.P,J4,3*%
X208995000Y-97900000D03*
%TO.P,J4,4*%
X210095000Y-97900000D03*
%TO.P,J4,5*%
X211195000Y-97900000D03*
%TO.P,J4,6*%
X212295000Y-97900000D03*
%TO.P,J4,7*%
X213395000Y-97900000D03*
%TO.P,J4,8*%
X214495000Y-97900000D03*
D28*
%TO.P,J4,9*%
X203125000Y-95300000D03*
X203125000Y-103600000D03*
X216875000Y-95300000D03*
X216875000Y-103600000D03*
%TD*%
D29*
%TO.P,J3,A1*%
%TO.N,N/C*%
X222000000Y-75000000D03*
%TO.P,J3,A4*%
X222000000Y-74150000D03*
%TO.P,J3,A5*%
X222000000Y-73300000D03*
%TO.P,J3,A6*%
X222000000Y-72450000D03*
%TO.P,J3,A7*%
X222000000Y-71600000D03*
%TO.P,J3,A8*%
X222000000Y-70750000D03*
%TO.P,J3,A9*%
X222000000Y-69900000D03*
%TO.P,J3,A12*%
X222000000Y-69050000D03*
%TO.P,J3,B1*%
X223350000Y-69050000D03*
%TO.P,J3,B4*%
X223350000Y-69900000D03*
%TO.P,J3,B5*%
X223350000Y-70750000D03*
%TO.P,J3,B6*%
X223350000Y-71600000D03*
%TO.P,J3,B7*%
X223350000Y-72450000D03*
%TO.P,J3,B8*%
X223350000Y-73300000D03*
%TO.P,J3,B9*%
X223350000Y-74150000D03*
%TO.P,J3,B12*%
X223350000Y-75000000D03*
D30*
%TO.P,J3,S1*%
X222980000Y-76350000D03*
D31*
X226360000Y-76350000D03*
D30*
X222980000Y-67700000D03*
D31*
X226360000Y-67700000D03*
%TD*%
D32*
%TO.P,U1,A1*%
%TO.N,N/C*%
X132500000Y-67500000D03*
%TO.P,U1,A2*%
X133500000Y-67500000D03*
%TO.P,U1,A3*%
X134500000Y-67500000D03*
%TO.P,U1,A4*%
X135500000Y-67500000D03*
%TO.P,U1,A5*%
X136500000Y-67500000D03*
%TO.P,U1,A6*%
X137500000Y-67500000D03*
%TO.P,U1,A7*%
X138500000Y-67500000D03*
%TO.P,U1,A8*%
X139500000Y-67500000D03*
%TO.P,U1,A9*%
X140500000Y-67500000D03*
%TO.P,U1,A10*%
X141500000Y-67500000D03*
%TO.P,U1,A11*%
X142500000Y-67500000D03*
%TO.P,U1,A12*%
X143500000Y-67500000D03*
%TO.P,U1,A13*%
X144500000Y-67500000D03*
%TO.P,U1,A14*%
X145500000Y-67500000D03*
%TO.P,U1,A15*%
X146500000Y-67500000D03*
%TO.P,U1,A16*%
X147500000Y-67500000D03*
%TO.P,U1,B1*%
X132500000Y-68500000D03*
%TO.P,U1,B2*%
X133500000Y-68500000D03*
%TO.P,U1,B3*%
X134500000Y-68500000D03*
%TO.P,U1,B4*%
X135500000Y-68500000D03*
%TO.P,U1,B5*%
X136500000Y-68500000D03*
%TO.P,U1,B6*%
X137500000Y-68500000D03*
%TO.P,U1,B7*%
X138500000Y-68500000D03*
%TO.P,U1,B8*%
X139500000Y-68500000D03*
%TO.P,U1,B9*%
X140500000Y-68500000D03*
%TO.P,U1,B10*%
X141500000Y-68500000D03*
%TO.P,U1,B11*%
X142500000Y-68500000D03*
%TO.P,U1,B12*%
X143500000Y-68500000D03*
%TO.P,U1,B13*%
X144500000Y-68500000D03*
%TO.P,U1,B14*%
X145500000Y-68500000D03*
%TO.P,U1,B15*%
X146500000Y-68500000D03*
%TO.P,U1,B16*%
X147500000Y-68500000D03*
%TO.P,U1,C1*%
X132500000Y-69500000D03*
%TO.P,U1,C2*%
X133500000Y-69500000D03*
%TO.P,U1,C3*%
X134500000Y-69500000D03*
%TO.P,U1,C4*%
X135500000Y-69500000D03*
%TO.P,U1,C5*%
X136500000Y-69500000D03*
%TO.P,U1,C6*%
X137500000Y-69500000D03*
%TO.P,U1,C7*%
X138500000Y-69500000D03*
%TO.P,U1,C8*%
X139500000Y-69500000D03*
%TO.P,U1,C9*%
X140500000Y-69500000D03*
%TO.P,U1,C10*%
X141500000Y-69500000D03*
%TO.P,U1,C11*%
X142500000Y-69500000D03*
%TO.P,U1,C12*%
X143500000Y-69500000D03*
%TO.P,U1,C13*%
X144500000Y-69500000D03*
%TO.P,U1,C14*%
X145500000Y-69500000D03*
%TO.P,U1,C15*%
X146500000Y-69500000D03*
%TO.P,U1,C16*%
X147500000Y-69500000D03*
%TO.P,U1,D1*%
X132500000Y-70500000D03*
%TO.P,U1,D2*%
X133500000Y-70500000D03*
%TO.P,U1,D3*%
X134500000Y-70500000D03*
%TO.P,U1,D4*%
X135500000Y-70500000D03*
%TO.P,U1,D5*%
X136500000Y-70500000D03*
%TO.P,U1,D6*%
X137500000Y-70500000D03*
%TO.P,U1,D7*%
X138500000Y-70500000D03*
%TO.P,U1,D8*%
X139500000Y-70500000D03*
%TO.P,U1,D9*%
X140500000Y-70500000D03*
%TO.P,U1,D10*%
X141500000Y-70500000D03*
%TO.P,U1,D11*%
X142500000Y-70500000D03*
%TO.P,U1,D12*%
X143500000Y-70500000D03*
%TO.P,U1,D13*%
X144500000Y-70500000D03*
%TO.P,U1,D14*%
X145500000Y-70500000D03*
%TO.P,U1,D15*%
X146500000Y-70500000D03*
%TO.P,U1,D16*%
X147500000Y-70500000D03*
%TO.P,U1,E1*%
X132500000Y-71500000D03*
%TO.P,U1,E2*%
X133500000Y-71500000D03*
%TO.P,U1,E3*%
X134500000Y-71500000D03*
%TO.P,U1,E4*%
X135500000Y-71500000D03*
%TO.P,U1,E5*%
X136500000Y-71500000D03*
%TO.P,U1,E6*%
X137500000Y-71500000D03*
%TO.P,U1,E7*%
X138500000Y-71500000D03*
%TO.P,U1,E8*%
X139500000Y-71500000D03*
%TO.P,U1,E9*%
X140500000Y-71500000D03*
%TO.P,U1,E10*%
X141500000Y-71500000D03*
%TO.P,U1,E11*%
X142500000Y-71500000D03*
%TO.P,U1,E12*%
X143500000Y-71500000D03*
%TO.P,U1,E13*%
X144500000Y-71500000D03*
%TO.P,U1,E14*%
X145500000Y-71500000D03*
%TO.P,U1,E15*%
X146500000Y-71500000D03*
%TO.P,U1,E16*%
X147500000Y-71500000D03*
%TO.P,U1,F1*%
X132500000Y-72500000D03*
%TO.P,U1,F2*%
X133500000Y-72500000D03*
%TO.P,U1,F3*%
X134500000Y-72500000D03*
%TO.P,U1,F4*%
X135500000Y-72500000D03*
%TO.P,U1,F5*%
X136500000Y-72500000D03*
%TO.P,U1,F6*%
X137500000Y-72500000D03*
%TO.P,U1,F7*%
X138500000Y-72500000D03*
%TO.P,U1,F8*%
X139500000Y-72500000D03*
%TO.P,U1,F9*%
X140500000Y-72500000D03*
%TO.P,U1,F10*%
X141500000Y-72500000D03*
%TO.P,U1,F11*%
X142500000Y-72500000D03*
%TO.P,U1,F12*%
X143500000Y-72500000D03*
%TO.P,U1,F13*%
X144500000Y-72500000D03*
%TO.P,U1,F14*%
X145500000Y-72500000D03*
%TO.P,U1,F15*%
X146500000Y-72500000D03*
%TO.P,U1,F16*%
X147500000Y-72500000D03*
%TO.P,U1,G1*%
X132500000Y-73500000D03*
%TO.P,U1,G2*%
X133500000Y-73500000D03*
%TO.P,U1,G3*%
X134500000Y-73500000D03*
%TO.P,U1,G4*%
X135500000Y-73500000D03*
%TO.P,U1,G5*%
X136500000Y-73500000D03*
%TO.P,U1,G6*%
X137500000Y-73500000D03*
%TO.P,U1,G7*%
X138500000Y-73500000D03*
%TO.P,U1,G8*%
X139500000Y-73500000D03*
%TO.P,U1,G9*%
X140500000Y-73500000D03*
%TO.P,U1,G10*%
X141500000Y-73500000D03*
%TO.P,U1,G11*%
X142500000Y-73500000D03*
%TO.P,U1,G12*%
X143500000Y-73500000D03*
%TO.P,U1,G13*%
X144500000Y-73500000D03*
%TO.P,U1,G14*%
X145500000Y-73500000D03*
%TO.P,U1,G15*%
X146500000Y-73500000D03*
%TO.P,U1,G16*%
X147500000Y-73500000D03*
%TO.P,U1,H1*%
X132500000Y-74500000D03*
%TO.P,U1,H2*%
X133500000Y-74500000D03*
%TO.P,U1,H3*%
X134500000Y-74500000D03*
%TO.P,U1,H4*%
X135500000Y-74500000D03*
%TO.P,U1,H5*%
X136500000Y-74500000D03*
%TO.P,U1,H6*%
X137500000Y-74500000D03*
%TO.P,U1,H7*%
X138500000Y-74500000D03*
%TO.P,U1,H8*%
X139500000Y-74500000D03*
%TO.P,U1,H9*%
X140500000Y-74500000D03*
%TO.P,U1,H10*%
X141500000Y-74500000D03*
%TO.P,U1,H11*%
X142500000Y-74500000D03*
%TO.P,U1,H12*%
X143500000Y-74500000D03*
%TO.P,U1,H13*%
X144500000Y-74500000D03*
%TO.P,U1,H14*%
X145500000Y-74500000D03*
%TO.P,U1,H15*%
X146500000Y-74500000D03*
%TO.P,U1,H16*%
X147500000Y-74500000D03*
%TO.P,U1,J1*%
X132500000Y-75500000D03*
%TO.P,U1,J2*%
X133500000Y-75500000D03*
%TO.P,U1,J3*%
X134500000Y-75500000D03*
%TO.P,U1,J4*%
X135500000Y-75500000D03*
%TO.P,U1,J5*%
X136500000Y-75500000D03*
%TO.P,U1,J6*%
X137500000Y-75500000D03*
%TO.P,U1,J7*%
X138500000Y-75500000D03*
%TO.P,U1,J8*%
X139500000Y-75500000D03*
%TO.P,U1,J9*%
X140500000Y-75500000D03*
%TO.P,U1,J10*%
X141500000Y-75500000D03*
%TO.P,U1,J11*%
X142500000Y-75500000D03*
%TO.P,U1,J12*%
X143500000Y-75500000D03*
%TO.P,U1,J13*%
X144500000Y-75500000D03*
%TO.P,U1,J14*%
X145500000Y-75500000D03*
%TO.P,U1,J15*%
X146500000Y-75500000D03*
%TO.P,U1,J16*%
X147500000Y-75500000D03*
%TO.P,U1,K1*%
X132500000Y-76500000D03*
%TO.P,U1,K2*%
X133500000Y-76500000D03*
%TO.P,U1,K3*%
X134500000Y-76500000D03*
%TO.P,U1,K4*%
X135500000Y-76500000D03*
%TO.P,U1,K5*%
X136500000Y-76500000D03*
%TO.P,U1,K6*%
X137500000Y-76500000D03*
%TO.P,U1,K7*%
X138500000Y-76500000D03*
%TO.P,U1,K8*%
X139500000Y-76500000D03*
%TO.P,U1,K9*%
X140500000Y-76500000D03*
%TO.P,U1,K10*%
X141500000Y-76500000D03*
%TO.P,U1,K11*%
X142500000Y-76500000D03*
%TO.P,U1,K12*%
X143500000Y-76500000D03*
%TO.P,U1,K13*%
X144500000Y-76500000D03*
%TO.P,U1,K14*%
X145500000Y-76500000D03*
%TO.P,U1,K15*%
X146500000Y-76500000D03*
%TO.P,U1,K16*%
X147500000Y-76500000D03*
%TO.P,U1,L1*%
X132500000Y-77500000D03*
%TO.P,U1,L2*%
X133500000Y-77500000D03*
%TO.P,U1,L3*%
X134500000Y-77500000D03*
%TO.P,U1,L4*%
X135500000Y-77500000D03*
%TO.P,U1,L5*%
X136500000Y-77500000D03*
%TO.P,U1,L6*%
X137500000Y-77500000D03*
%TO.P,U1,L7*%
X138500000Y-77500000D03*
%TO.P,U1,L8*%
X139500000Y-77500000D03*
%TO.P,U1,L9*%
X140500000Y-77500000D03*
%TO.P,U1,L10*%
X141500000Y-77500000D03*
%TO.P,U1,L11*%
X142500000Y-77500000D03*
%TO.P,U1,L12*%
X143500000Y-77500000D03*
%TO.P,U1,L13*%
X144500000Y-77500000D03*
%TO.P,U1,L14*%
X145500000Y-77500000D03*
%TO.P,U1,L15*%
X146500000Y-77500000D03*
%TO.P,U1,L16*%
X147500000Y-77500000D03*
%TO.P,U1,M1*%
X132500000Y-78500000D03*
%TO.P,U1,M2*%
X133500000Y-78500000D03*
%TO.P,U1,M3*%
X134500000Y-78500000D03*
%TO.P,U1,M4*%
X135500000Y-78500000D03*
%TO.P,U1,M5*%
X136500000Y-78500000D03*
%TO.P,U1,M6*%
X137500000Y-78500000D03*
%TO.P,U1,M7*%
X138500000Y-78500000D03*
%TO.P,U1,M8*%
X139500000Y-78500000D03*
%TO.P,U1,M9*%
X140500000Y-78500000D03*
%TO.P,U1,M10*%
X141500000Y-78500000D03*
%TO.P,U1,M11*%
X142500000Y-78500000D03*
%TO.P,U1,M12*%
X143500000Y-78500000D03*
%TO.P,U1,M13*%
X144500000Y-78500000D03*
%TO.P,U1,M14*%
X145500000Y-78500000D03*
%TO.P,U1,M15*%
X146500000Y-78500000D03*
%TO.P,U1,M16*%
X147500000Y-78500000D03*
%TO.P,U1,N1*%
X132500000Y-79500000D03*
%TO.P,U1,N2*%
X133500000Y-79500000D03*
%TO.P,U1,N3*%
X134500000Y-79500000D03*
%TO.P,U1,N4*%
X135500000Y-79500000D03*
%TO.P,U1,N5*%
X136500000Y-79500000D03*
%TO.P,U1,N6*%
X137500000Y-79500000D03*
%TO.P,U1,N7*%
X138500000Y-79500000D03*
%TO.P,U1,N8*%
X139500000Y-79500000D03*
%TO.P,U1,N9*%
X140500000Y-79500000D03*
%TO.P,U1,N10*%
X141500000Y-79500000D03*
%TO.P,U1,N11*%
X142500000Y-79500000D03*
%TO.P,U1,N12*%
X143500000Y-79500000D03*
%TO.P,U1,N13*%
X144500000Y-79500000D03*
%TO.P,U1,N14*%
X145500000Y-79500000D03*
%TO.P,U1,N15*%
X146500000Y-79500000D03*
%TO.P,U1,N16*%
X147500000Y-79500000D03*
%TO.P,U1,P1*%
X132500000Y-80500000D03*
%TO.P,U1,P2*%
X133500000Y-80500000D03*
%TO.P,U1,P3*%
X134500000Y-80500000D03*
%TO.P,U1,P4*%
X135500000Y-80500000D03*
%TO.P,U1,P5*%
X136500000Y-80500000D03*
%TO.P,U1,P6*%
X137500000Y-80500000D03*
%TO.P,U1,P7*%
X138500000Y-80500000D03*
%TO.P,U1,P8*%
X139500000Y-80500000D03*
%TO.P,U1,P9*%
X140500000Y-80500000D03*
%TO.P,U1,P10*%
X141500000Y-80500000D03*
%TO.P,U1,P11*%
X142500000Y-80500000D03*
%TO.P,U1,P12*%
X143500000Y-80500000D03*
%TO.P,U1,P13*%
X144500000Y-80500000D03*
%TO.P,U1,P14*%
X145500000Y-80500000D03*
%TO.P,U1,P15*%
X146500000Y-80500000D03*
%TO.P,U1,P16*%
X147500000Y-80500000D03*
%TO.P,U1,R1*%
X132500000Y-81500000D03*
%TO.P,U1,R2*%
X133500000Y-81500000D03*
%TO.P,U1,R3*%
X134500000Y-81500000D03*
%TO.P,U1,R4*%
X135500000Y-81500000D03*
%TO.P,U1,R5*%
X136500000Y-81500000D03*
%TO.P,U1,R6*%
X137500000Y-81500000D03*
%TO.P,U1,R7*%
X138500000Y-81500000D03*
%TO.P,U1,R8*%
X139500000Y-81500000D03*
%TO.P,U1,R9*%
X140500000Y-81500000D03*
%TO.P,U1,R10*%
X141500000Y-81500000D03*
%TO.P,U1,R11*%
X142500000Y-81500000D03*
%TO.P,U1,R12*%
X143500000Y-81500000D03*
%TO.P,U1,R13*%
X144500000Y-81500000D03*
%TO.P,U1,R14*%
X145500000Y-81500000D03*
%TO.P,U1,R15*%
X146500000Y-81500000D03*
%TO.P,U1,R16*%
X147500000Y-81500000D03*
%TO.P,U1,T1*%
X132500000Y-82500000D03*
%TO.P,U1,T2*%
X133500000Y-82500000D03*
%TO.P,U1,T3*%
X134500000Y-82500000D03*
%TO.P,U1,T4*%
X135500000Y-82500000D03*
%TO.P,U1,T5*%
X136500000Y-82500000D03*
%TO.P,U1,T6*%
X137500000Y-82500000D03*
%TO.P,U1,T7*%
X138500000Y-82500000D03*
%TO.P,U1,T8*%
X139500000Y-82500000D03*
%TO.P,U1,T9*%
X140500000Y-82500000D03*
%TO.P,U1,T10*%
X141500000Y-82500000D03*
%TO.P,U1,T11*%
X142500000Y-82500000D03*
%TO.P,U1,T12*%
X143500000Y-82500000D03*
%TO.P,U1,T13*%
X144500000Y-82500000D03*
%TO.P,U1,T14*%
X145500000Y-82500000D03*
%TO.P,U1,T15*%
X146500000Y-82500000D03*
%TO.P,U1,T16*%
X147500000Y-82500000D03*
%TD*%
D23*
%TO.P,U7,1*%
%TO.N,N/C*%
X95350000Y-109285000D03*
%TO.P,U7,2*%
X95350000Y-110555000D03*
%TO.P,U7,3*%
X95350000Y-111825000D03*
%TO.P,U7,4*%
X95350000Y-113095000D03*
%TO.P,U7,5*%
X95350000Y-114365000D03*
%TO.P,U7,6*%
X95350000Y-115635000D03*
%TO.P,U7,7*%
X95350000Y-116905000D03*
%TO.P,U7,8*%
X95350000Y-118175000D03*
%TO.P,U7,9*%
X95350000Y-119445000D03*
%TO.P,U7,10*%
X95350000Y-120715000D03*
%TO.P,U7,11*%
X104650000Y-120715000D03*
%TO.P,U7,12*%
X104650000Y-119445000D03*
%TO.P,U7,13*%
X104650000Y-118175000D03*
%TO.P,U7,14*%
X104650000Y-116905000D03*
%TO.P,U7,15*%
X104650000Y-115635000D03*
%TO.P,U7,16*%
X104650000Y-114365000D03*
%TO.P,U7,17*%
X104650000Y-113095000D03*
%TO.P,U7,18*%
X104650000Y-111825000D03*
%TO.P,U7,19*%
X104650000Y-110555000D03*
%TO.P,U7,20*%
X104650000Y-109285000D03*
%TD*%
D26*
%TO.P,U5,1*%
%TO.N,N/C*%
X72525000Y-53095000D03*
%TO.P,U5,2*%
X72525000Y-54365000D03*
%TO.P,U5,3*%
X72525000Y-55635000D03*
%TO.P,U5,4*%
X72525000Y-56905000D03*
%TO.P,U5,5*%
X77475000Y-56905000D03*
%TO.P,U5,6*%
X77475000Y-55635000D03*
%TO.P,U5,7*%
X77475000Y-54365000D03*
%TO.P,U5,8*%
X77475000Y-53095000D03*
%TD*%
D10*
%TO.P,R4,1*%
%TO.N,N/C*%
X111490000Y-125000000D03*
%TO.P,R4,2*%
X112510000Y-125000000D03*
%TD*%
D11*
%TO.P,C17,1*%
%TO.N,N/C*%
X84520000Y-60000000D03*
%TO.P,C17,2*%
X85480000Y-60000000D03*
%TD*%
%TO.P,C12,1*%
%TO.N,N/C*%
X129520000Y-100000000D03*
%TO.P,C12,2*%
X130480000Y-100000000D03*
%TD*%
D25*
%TO.P,C22,1*%
%TO.N,N/C*%
X194050000Y-40000000D03*
%TO.P,C22,2*%
X195950000Y-40000000D03*
%TD*%
M02*
