%TF.GenerationSoftware,KiCad,Pcbnew,9.0.8+dfsg-1*%
%TF.CreationDate,2026-04-27T10:51:39+02:00*%
%TF.ProjectId,neocart_fpga_prog,6e656f63-6172-4745-9f66-7067615f7072,rev?*%
%TF.SameCoordinates,Original*%
%TF.FileFunction,AssemblyDrawing,Bot*%
%FSLAX46Y46*%
G04 Gerber Fmt 4.6, Leading zero omitted, Abs format (unit mm)*
G04 Created by KiCad (PCBNEW 9.0.8+dfsg-1) date 2026-04-27 10:51:39*
%MOMM*%
%LPD*%
G01*
G04 APERTURE LIST*
%ADD10C,0.150000*%
G04 APERTURE END LIST*
D10*
X150003810Y-152104819D02*
X150003810Y-151104819D01*
X150003810Y-151104819D02*
X149432382Y-152104819D01*
X149432382Y-152104819D02*
X149432382Y-151104819D01*
X148575239Y-152057200D02*
X148670477Y-152104819D01*
X148670477Y-152104819D02*
X148860953Y-152104819D01*
X148860953Y-152104819D02*
X148956191Y-152057200D01*
X148956191Y-152057200D02*
X149003810Y-151961961D01*
X149003810Y-151961961D02*
X149003810Y-151581009D01*
X149003810Y-151581009D02*
X148956191Y-151485771D01*
X148956191Y-151485771D02*
X148860953Y-151438152D01*
X148860953Y-151438152D02*
X148670477Y-151438152D01*
X148670477Y-151438152D02*
X148575239Y-151485771D01*
X148575239Y-151485771D02*
X148527620Y-151581009D01*
X148527620Y-151581009D02*
X148527620Y-151676247D01*
X148527620Y-151676247D02*
X149003810Y-151771485D01*
X147956191Y-152104819D02*
X148051429Y-152057200D01*
X148051429Y-152057200D02*
X148099048Y-152009580D01*
X148099048Y-152009580D02*
X148146667Y-151914342D01*
X148146667Y-151914342D02*
X148146667Y-151628628D01*
X148146667Y-151628628D02*
X148099048Y-151533390D01*
X148099048Y-151533390D02*
X148051429Y-151485771D01*
X148051429Y-151485771D02*
X147956191Y-151438152D01*
X147956191Y-151438152D02*
X147813334Y-151438152D01*
X147813334Y-151438152D02*
X147718096Y-151485771D01*
X147718096Y-151485771D02*
X147670477Y-151533390D01*
X147670477Y-151533390D02*
X147622858Y-151628628D01*
X147622858Y-151628628D02*
X147622858Y-151914342D01*
X147622858Y-151914342D02*
X147670477Y-152009580D01*
X147670477Y-152009580D02*
X147718096Y-152057200D01*
X147718096Y-152057200D02*
X147813334Y-152104819D01*
X147813334Y-152104819D02*
X147956191Y-152104819D01*
X146670477Y-151152438D02*
X146765715Y-151104819D01*
X146765715Y-151104819D02*
X146908572Y-151104819D01*
X146908572Y-151104819D02*
X147051429Y-151152438D01*
X147051429Y-151152438D02*
X147146667Y-151247676D01*
X147146667Y-151247676D02*
X147194286Y-151342914D01*
X147194286Y-151342914D02*
X147241905Y-151533390D01*
X147241905Y-151533390D02*
X147241905Y-151676247D01*
X147241905Y-151676247D02*
X147194286Y-151866723D01*
X147194286Y-151866723D02*
X147146667Y-151961961D01*
X147146667Y-151961961D02*
X147051429Y-152057200D01*
X147051429Y-152057200D02*
X146908572Y-152104819D01*
X146908572Y-152104819D02*
X146813334Y-152104819D01*
X146813334Y-152104819D02*
X146670477Y-152057200D01*
X146670477Y-152057200D02*
X146622858Y-152009580D01*
X146622858Y-152009580D02*
X146622858Y-151676247D01*
X146622858Y-151676247D02*
X146813334Y-151676247D01*
X145813334Y-152057200D02*
X145908572Y-152104819D01*
X145908572Y-152104819D02*
X146099048Y-152104819D01*
X146099048Y-152104819D02*
X146194286Y-152057200D01*
X146194286Y-152057200D02*
X146241905Y-151961961D01*
X146241905Y-151961961D02*
X146241905Y-151581009D01*
X146241905Y-151581009D02*
X146194286Y-151485771D01*
X146194286Y-151485771D02*
X146099048Y-151438152D01*
X146099048Y-151438152D02*
X145908572Y-151438152D01*
X145908572Y-151438152D02*
X145813334Y-151485771D01*
X145813334Y-151485771D02*
X145765715Y-151581009D01*
X145765715Y-151581009D02*
X145765715Y-151676247D01*
X145765715Y-151676247D02*
X146241905Y-151771485D01*
X145194286Y-152104819D02*
X145289524Y-152057200D01*
X145289524Y-152057200D02*
X145337143Y-152009580D01*
X145337143Y-152009580D02*
X145384762Y-151914342D01*
X145384762Y-151914342D02*
X145384762Y-151628628D01*
X145384762Y-151628628D02*
X145337143Y-151533390D01*
X145337143Y-151533390D02*
X145289524Y-151485771D01*
X145289524Y-151485771D02*
X145194286Y-151438152D01*
X145194286Y-151438152D02*
X145051429Y-151438152D01*
X145051429Y-151438152D02*
X144956191Y-151485771D01*
X144956191Y-151485771D02*
X144908572Y-151533390D01*
X144908572Y-151533390D02*
X144860953Y-151628628D01*
X144860953Y-151628628D02*
X144860953Y-151914342D01*
X144860953Y-151914342D02*
X144908572Y-152009580D01*
X144908572Y-152009580D02*
X144956191Y-152057200D01*
X144956191Y-152057200D02*
X145051429Y-152104819D01*
X145051429Y-152104819D02*
X145194286Y-152104819D01*
X143670476Y-152104819D02*
X143670476Y-151104819D01*
X143670476Y-151104819D02*
X143337143Y-151819104D01*
X143337143Y-151819104D02*
X143003810Y-151104819D01*
X143003810Y-151104819D02*
X143003810Y-152104819D01*
X142670476Y-151104819D02*
X142337143Y-152104819D01*
X142337143Y-152104819D02*
X142003810Y-151104819D01*
X141718095Y-152057200D02*
X141575238Y-152104819D01*
X141575238Y-152104819D02*
X141337143Y-152104819D01*
X141337143Y-152104819D02*
X141241905Y-152057200D01*
X141241905Y-152057200D02*
X141194286Y-152009580D01*
X141194286Y-152009580D02*
X141146667Y-151914342D01*
X141146667Y-151914342D02*
X141146667Y-151819104D01*
X141146667Y-151819104D02*
X141194286Y-151723866D01*
X141194286Y-151723866D02*
X141241905Y-151676247D01*
X141241905Y-151676247D02*
X141337143Y-151628628D01*
X141337143Y-151628628D02*
X141527619Y-151581009D01*
X141527619Y-151581009D02*
X141622857Y-151533390D01*
X141622857Y-151533390D02*
X141670476Y-151485771D01*
X141670476Y-151485771D02*
X141718095Y-151390533D01*
X141718095Y-151390533D02*
X141718095Y-151295295D01*
X141718095Y-151295295D02*
X141670476Y-151200057D01*
X141670476Y-151200057D02*
X141622857Y-151152438D01*
X141622857Y-151152438D02*
X141527619Y-151104819D01*
X141527619Y-151104819D02*
X141289524Y-151104819D01*
X141289524Y-151104819D02*
X141146667Y-151152438D01*
X139956190Y-152104819D02*
X139956190Y-151104819D01*
X139956190Y-151104819D02*
X139575238Y-151104819D01*
X139575238Y-151104819D02*
X139480000Y-151152438D01*
X139480000Y-151152438D02*
X139432381Y-151200057D01*
X139432381Y-151200057D02*
X139384762Y-151295295D01*
X139384762Y-151295295D02*
X139384762Y-151438152D01*
X139384762Y-151438152D02*
X139432381Y-151533390D01*
X139432381Y-151533390D02*
X139480000Y-151581009D01*
X139480000Y-151581009D02*
X139575238Y-151628628D01*
X139575238Y-151628628D02*
X139956190Y-151628628D01*
X138956190Y-152104819D02*
X138956190Y-151438152D01*
X138956190Y-151628628D02*
X138908571Y-151533390D01*
X138908571Y-151533390D02*
X138860952Y-151485771D01*
X138860952Y-151485771D02*
X138765714Y-151438152D01*
X138765714Y-151438152D02*
X138670476Y-151438152D01*
X138194285Y-152104819D02*
X138289523Y-152057200D01*
X138289523Y-152057200D02*
X138337142Y-152009580D01*
X138337142Y-152009580D02*
X138384761Y-151914342D01*
X138384761Y-151914342D02*
X138384761Y-151628628D01*
X138384761Y-151628628D02*
X138337142Y-151533390D01*
X138337142Y-151533390D02*
X138289523Y-151485771D01*
X138289523Y-151485771D02*
X138194285Y-151438152D01*
X138194285Y-151438152D02*
X138051428Y-151438152D01*
X138051428Y-151438152D02*
X137956190Y-151485771D01*
X137956190Y-151485771D02*
X137908571Y-151533390D01*
X137908571Y-151533390D02*
X137860952Y-151628628D01*
X137860952Y-151628628D02*
X137860952Y-151914342D01*
X137860952Y-151914342D02*
X137908571Y-152009580D01*
X137908571Y-152009580D02*
X137956190Y-152057200D01*
X137956190Y-152057200D02*
X138051428Y-152104819D01*
X138051428Y-152104819D02*
X138194285Y-152104819D01*
X137003809Y-151438152D02*
X137003809Y-152247676D01*
X137003809Y-152247676D02*
X137051428Y-152342914D01*
X137051428Y-152342914D02*
X137099047Y-152390533D01*
X137099047Y-152390533D02*
X137194285Y-152438152D01*
X137194285Y-152438152D02*
X137337142Y-152438152D01*
X137337142Y-152438152D02*
X137432380Y-152390533D01*
X137003809Y-152057200D02*
X137099047Y-152104819D01*
X137099047Y-152104819D02*
X137289523Y-152104819D01*
X137289523Y-152104819D02*
X137384761Y-152057200D01*
X137384761Y-152057200D02*
X137432380Y-152009580D01*
X137432380Y-152009580D02*
X137479999Y-151914342D01*
X137479999Y-151914342D02*
X137479999Y-151628628D01*
X137479999Y-151628628D02*
X137432380Y-151533390D01*
X137432380Y-151533390D02*
X137384761Y-151485771D01*
X137384761Y-151485771D02*
X137289523Y-151438152D01*
X137289523Y-151438152D02*
X137099047Y-151438152D01*
X137099047Y-151438152D02*
X137003809Y-151485771D01*
X135432380Y-151581009D02*
X135289523Y-151628628D01*
X135289523Y-151628628D02*
X135241904Y-151676247D01*
X135241904Y-151676247D02*
X135194285Y-151771485D01*
X135194285Y-151771485D02*
X135194285Y-151914342D01*
X135194285Y-151914342D02*
X135241904Y-152009580D01*
X135241904Y-152009580D02*
X135289523Y-152057200D01*
X135289523Y-152057200D02*
X135384761Y-152104819D01*
X135384761Y-152104819D02*
X135765713Y-152104819D01*
X135765713Y-152104819D02*
X135765713Y-151104819D01*
X135765713Y-151104819D02*
X135432380Y-151104819D01*
X135432380Y-151104819D02*
X135337142Y-151152438D01*
X135337142Y-151152438D02*
X135289523Y-151200057D01*
X135289523Y-151200057D02*
X135241904Y-151295295D01*
X135241904Y-151295295D02*
X135241904Y-151390533D01*
X135241904Y-151390533D02*
X135289523Y-151485771D01*
X135289523Y-151485771D02*
X135337142Y-151533390D01*
X135337142Y-151533390D02*
X135432380Y-151581009D01*
X135432380Y-151581009D02*
X135765713Y-151581009D01*
X134051427Y-152057200D02*
X133908570Y-152104819D01*
X133908570Y-152104819D02*
X133670475Y-152104819D01*
X133670475Y-152104819D02*
X133575237Y-152057200D01*
X133575237Y-152057200D02*
X133527618Y-152009580D01*
X133527618Y-152009580D02*
X133479999Y-151914342D01*
X133479999Y-151914342D02*
X133479999Y-151819104D01*
X133479999Y-151819104D02*
X133527618Y-151723866D01*
X133527618Y-151723866D02*
X133575237Y-151676247D01*
X133575237Y-151676247D02*
X133670475Y-151628628D01*
X133670475Y-151628628D02*
X133860951Y-151581009D01*
X133860951Y-151581009D02*
X133956189Y-151533390D01*
X133956189Y-151533390D02*
X134003808Y-151485771D01*
X134003808Y-151485771D02*
X134051427Y-151390533D01*
X134051427Y-151390533D02*
X134051427Y-151295295D01*
X134051427Y-151295295D02*
X134003808Y-151200057D01*
X134003808Y-151200057D02*
X133956189Y-151152438D01*
X133956189Y-151152438D02*
X133860951Y-151104819D01*
X133860951Y-151104819D02*
X133622856Y-151104819D01*
X133622856Y-151104819D02*
X133479999Y-151152438D01*
X133051427Y-152104819D02*
X133051427Y-151438152D01*
X133051427Y-151104819D02*
X133099046Y-151152438D01*
X133099046Y-151152438D02*
X133051427Y-151200057D01*
X133051427Y-151200057D02*
X133003808Y-151152438D01*
X133003808Y-151152438D02*
X133051427Y-151104819D01*
X133051427Y-151104819D02*
X133051427Y-151200057D01*
X132146666Y-152104819D02*
X132146666Y-151104819D01*
X132146666Y-152057200D02*
X132241904Y-152104819D01*
X132241904Y-152104819D02*
X132432380Y-152104819D01*
X132432380Y-152104819D02*
X132527618Y-152057200D01*
X132527618Y-152057200D02*
X132575237Y-152009580D01*
X132575237Y-152009580D02*
X132622856Y-151914342D01*
X132622856Y-151914342D02*
X132622856Y-151628628D01*
X132622856Y-151628628D02*
X132575237Y-151533390D01*
X132575237Y-151533390D02*
X132527618Y-151485771D01*
X132527618Y-151485771D02*
X132432380Y-151438152D01*
X132432380Y-151438152D02*
X132241904Y-151438152D01*
X132241904Y-151438152D02*
X132146666Y-151485771D01*
X131289523Y-152057200D02*
X131384761Y-152104819D01*
X131384761Y-152104819D02*
X131575237Y-152104819D01*
X131575237Y-152104819D02*
X131670475Y-152057200D01*
X131670475Y-152057200D02*
X131718094Y-151961961D01*
X131718094Y-151961961D02*
X131718094Y-151581009D01*
X131718094Y-151581009D02*
X131670475Y-151485771D01*
X131670475Y-151485771D02*
X131575237Y-151438152D01*
X131575237Y-151438152D02*
X131384761Y-151438152D01*
X131384761Y-151438152D02*
X131289523Y-151485771D01*
X131289523Y-151485771D02*
X131241904Y-151581009D01*
X131241904Y-151581009D02*
X131241904Y-151676247D01*
X131241904Y-151676247D02*
X131718094Y-151771485D01*
X130051427Y-151581009D02*
X129718094Y-151581009D01*
X129575237Y-152104819D02*
X130051427Y-152104819D01*
X130051427Y-152104819D02*
X130051427Y-151104819D01*
X130051427Y-151104819D02*
X129575237Y-151104819D01*
X128718094Y-152104819D02*
X128718094Y-151104819D01*
X128718094Y-152057200D02*
X128813332Y-152104819D01*
X128813332Y-152104819D02*
X129003808Y-152104819D01*
X129003808Y-152104819D02*
X129099046Y-152057200D01*
X129099046Y-152057200D02*
X129146665Y-152009580D01*
X129146665Y-152009580D02*
X129194284Y-151914342D01*
X129194284Y-151914342D02*
X129194284Y-151628628D01*
X129194284Y-151628628D02*
X129146665Y-151533390D01*
X129146665Y-151533390D02*
X129099046Y-151485771D01*
X129099046Y-151485771D02*
X129003808Y-151438152D01*
X129003808Y-151438152D02*
X128813332Y-151438152D01*
X128813332Y-151438152D02*
X128718094Y-151485771D01*
X127813332Y-151438152D02*
X127813332Y-152247676D01*
X127813332Y-152247676D02*
X127860951Y-152342914D01*
X127860951Y-152342914D02*
X127908570Y-152390533D01*
X127908570Y-152390533D02*
X128003808Y-152438152D01*
X128003808Y-152438152D02*
X128146665Y-152438152D01*
X128146665Y-152438152D02*
X128241903Y-152390533D01*
X127813332Y-152057200D02*
X127908570Y-152104819D01*
X127908570Y-152104819D02*
X128099046Y-152104819D01*
X128099046Y-152104819D02*
X128194284Y-152057200D01*
X128194284Y-152057200D02*
X128241903Y-152009580D01*
X128241903Y-152009580D02*
X128289522Y-151914342D01*
X128289522Y-151914342D02*
X128289522Y-151628628D01*
X128289522Y-151628628D02*
X128241903Y-151533390D01*
X128241903Y-151533390D02*
X128194284Y-151485771D01*
X128194284Y-151485771D02*
X128099046Y-151438152D01*
X128099046Y-151438152D02*
X127908570Y-151438152D01*
X127908570Y-151438152D02*
X127813332Y-151485771D01*
X126956189Y-152057200D02*
X127051427Y-152104819D01*
X127051427Y-152104819D02*
X127241903Y-152104819D01*
X127241903Y-152104819D02*
X127337141Y-152057200D01*
X127337141Y-152057200D02*
X127384760Y-151961961D01*
X127384760Y-151961961D02*
X127384760Y-151581009D01*
X127384760Y-151581009D02*
X127337141Y-151485771D01*
X127337141Y-151485771D02*
X127241903Y-151438152D01*
X127241903Y-151438152D02*
X127051427Y-151438152D01*
X127051427Y-151438152D02*
X126956189Y-151485771D01*
X126956189Y-151485771D02*
X126908570Y-151581009D01*
X126908570Y-151581009D02*
X126908570Y-151676247D01*
X126908570Y-151676247D02*
X127384760Y-151771485D01*
X127533333Y-135814819D02*
X127533333Y-136529104D01*
X127533333Y-136529104D02*
X127580952Y-136671961D01*
X127580952Y-136671961D02*
X127676190Y-136767200D01*
X127676190Y-136767200D02*
X127819047Y-136814819D01*
X127819047Y-136814819D02*
X127914285Y-136814819D01*
X126533333Y-136814819D02*
X127104761Y-136814819D01*
X126819047Y-136814819D02*
X126819047Y-135814819D01*
X126819047Y-135814819D02*
X126914285Y-135957676D01*
X126914285Y-135957676D02*
X127009523Y-136052914D01*
X127009523Y-136052914D02*
X127104761Y-136100533D01*
M02*
