M48
; DRILL file {KiCad 9.0.8+dfsg-1} date 2026-04-27T10:51:39+0200
; FORMAT={-:-/ absolute / metric / decimal}
; #@! TF.CreationDate,2026-04-27T10:51:39+02:00
; #@! TF.GenerationSoftware,Kicad,Pcbnew,9.0.8+dfsg-1
; #@! TF.FileFunction,MixedPlating,1,4
FMAT,2
METRIC
; #@! TA.AperFunction,Plated,PTH,ComponentDrill
T1C0.400
; #@! TA.AperFunction,Plated,PTH,ComponentDrill
T2C0.600
; #@! TA.AperFunction,Plated,PTH,ComponentDrill
T3C1.000
%
G90
G05
T1
X222.0Y-69.05
X222.0Y-69.9
X222.0Y-70.75
X222.0Y-71.6
X222.0Y-72.45
X222.0Y-73.3
X222.0Y-74.15
X222.0Y-75.0
X223.35Y-69.05
X223.35Y-69.9
X223.35Y-70.75
X223.35Y-71.6
X223.35Y-72.45
X223.35Y-73.3
X223.35Y-74.15
X223.35Y-75.0
T3
X60.0Y-40.0
X60.0Y-42.54
X60.0Y-45.08
X70.0Y-40.0
X70.0Y-42.54
X70.0Y-45.08
X72.54Y-40.0
X72.54Y-42.54
X72.54Y-45.08
X125.0Y-35.0
X125.0Y-37.54
X125.0Y-40.08
X125.0Y-42.62
X125.0Y-45.16
X125.0Y-47.7
X125.0Y-50.24
X125.0Y-52.78
X125.0Y-55.32
X125.0Y-57.86
X125.0Y-60.4
X125.0Y-62.94
X125.0Y-65.48
X125.0Y-68.02
X125.0Y-70.56
X125.0Y-73.1
X125.0Y-75.64
X125.0Y-78.18
X125.0Y-80.72
X125.0Y-83.26
X125.0Y-85.8
X125.0Y-88.34
X125.0Y-90.88
X125.0Y-93.42
X125.0Y-95.96
X127.54Y-35.0
X127.54Y-37.54
X127.54Y-40.08
X127.54Y-42.62
X127.54Y-45.16
X127.54Y-47.7
X127.54Y-50.24
X127.54Y-52.78
X127.54Y-55.32
X127.54Y-57.86
X127.54Y-60.4
X127.54Y-62.94
X127.54Y-65.48
X127.54Y-68.02
X127.54Y-70.56
X127.54Y-73.1
X127.54Y-75.64
X127.54Y-78.18
X127.54Y-80.72
X127.54Y-83.26
X127.54Y-85.8
X127.54Y-88.34
X127.54Y-90.88
X127.54Y-93.42
X127.54Y-95.96
X155.0Y-35.0
X155.0Y-37.54
X155.0Y-40.08
X155.0Y-42.62
X155.0Y-45.16
X155.0Y-47.7
X155.0Y-50.24
X155.0Y-52.78
X155.0Y-55.32
X155.0Y-57.86
X155.0Y-60.4
X155.0Y-62.94
X155.0Y-65.48
X155.0Y-68.02
X155.0Y-70.56
X155.0Y-73.1
X155.0Y-75.64
X155.0Y-78.18
X155.0Y-80.72
X155.0Y-83.26
X155.0Y-85.8
X155.0Y-88.34
X155.0Y-90.88
X155.0Y-93.42
X155.0Y-95.96
X157.54Y-35.0
X157.54Y-37.54
X157.54Y-40.08
X157.54Y-42.62
X157.54Y-45.16
X157.54Y-47.7
X157.54Y-50.24
X157.54Y-52.78
X157.54Y-55.32
X157.54Y-57.86
X157.54Y-60.4
X157.54Y-62.94
X157.54Y-65.48
X157.54Y-68.02
X157.54Y-70.56
X157.54Y-73.1
X157.54Y-75.64
X157.54Y-78.18
X157.54Y-80.72
X157.54Y-83.26
X157.54Y-85.8
X157.54Y-88.34
X157.54Y-90.88
X157.54Y-93.42
X157.54Y-95.96
T2
X222.23Y-67.7G85X223.73Y-67.7
G05
X222.23Y-76.35G85X223.73Y-76.35
G05
X225.96Y-67.7G85X226.76Y-67.7
G05
X225.96Y-76.35G85X226.76Y-76.35
G05
M30
