%TF.GenerationSoftware,KiCad,Pcbnew,9.0.8+dfsg-1*%
%TF.CreationDate,2026-04-29T22:30:23+02:00*%
%TF.ProjectId,prog_adapter_routed,70726f67-5f61-4646-9170-7465725f726f,rev?*%
%TF.SameCoordinates,Original*%
%TF.FileFunction,Plated,1,2,PTH,Drill*%
%TF.FilePolarity,Positive*%
%FSLAX46Y46*%
G04 Gerber Fmt 4.6, Leading zero omitted, Abs format (unit mm)*
G04 Created by KiCad (PCBNEW 9.0.8+dfsg-1) date 2026-04-29 22:30:23*
%MOMM*%
%LPD*%
G01*
G04 APERTURE LIST*
%TA.AperFunction,ViaDrill*%
%ADD10C,0.300000*%
%TD*%
%TA.AperFunction,ComponentDrill*%
%ADD11C,1.000000*%
%TD*%
G04 APERTURE END LIST*
D10*
X9852800Y-75630200D03*
X10226400Y-43139800D03*
X10226400Y-73565100D03*
X10959400Y-36673200D03*
X10959400Y-74166800D03*
X11743300Y-48865500D03*
X12070000Y-120679600D03*
X12345000Y-38447400D03*
X12968200Y-52330900D03*
X13707500Y-40157500D03*
X13707500Y-71950800D03*
X14520000Y-50437800D03*
X15095000Y-6505500D03*
X16195000Y-31210600D03*
X18034000Y-54229400D03*
X18036700Y-73905000D03*
X19347500Y-66742800D03*
X19525000Y-44064900D03*
X20134400Y-77961900D03*
X20760300Y-91107000D03*
X20856900Y-36673200D03*
X20891700Y-74489000D03*
X21004800Y-38447400D03*
X21010700Y-40124300D03*
X21106600Y-43413100D03*
X21176800Y-55349700D03*
X21230400Y-56846800D03*
X21277500Y-91836700D03*
X21637100Y-41036500D03*
X21807400Y-72274300D03*
X21866200Y-52943700D03*
X21888600Y-67743300D03*
X22044500Y-123468500D03*
X22053500Y-96306200D03*
X22362200Y-79453300D03*
X22367100Y-90503700D03*
X22415800Y-43334000D03*
X22516300Y-63110000D03*
X22978800Y-50437800D03*
X23179600Y-70730000D03*
X23650300Y-81909700D03*
X24577000Y-66732700D03*
X24770000Y-123470300D03*
X24794200Y-60893300D03*
X24953800Y-82167800D03*
X25398000Y-78526600D03*
X25407900Y-62808000D03*
X25693500Y-60844800D03*
X25740800Y-70733300D03*
X25871600Y-97297600D03*
X25881800Y-77009900D03*
X26071000Y-49512000D03*
X26403200Y-77997500D03*
X26744300Y-69866900D03*
X26897900Y-55444800D03*
X27760700Y-50437800D03*
X27786700Y-123468500D03*
X28497600Y-96065900D03*
X28606700Y-49512000D03*
X28675500Y-68332400D03*
X28830500Y-58195700D03*
X29116000Y-61679400D03*
X29181600Y-120679600D03*
X30189600Y-123468500D03*
X30464100Y-89286300D03*
X30820400Y-87481200D03*
X31810000Y-70468600D03*
X31911100Y-44620500D03*
X33042100Y-49480100D03*
X33147200Y-53531800D03*
X33926800Y-100846700D03*
X34930000Y-105768100D03*
X35659600Y-44163200D03*
X36201200Y-127729500D03*
X36226700Y-51588400D03*
X36450800Y-68763400D03*
X37470000Y-111732700D03*
X37890900Y-47640000D03*
X38108800Y-75681900D03*
X38943800Y-51891400D03*
X39211300Y-73184800D03*
X40010000Y-123468500D03*
X40154700Y-69586000D03*
X40673200Y-121121400D03*
X42341400Y-49009000D03*
X42650000Y-10849300D03*
X43081600Y-106563700D03*
X43684900Y-123085400D03*
X44768700Y-120679600D03*
X45446700Y-123468500D03*
X47084400Y-123468500D03*
X47636100Y-83894000D03*
X48372700Y-121475200D03*
X48510300Y-54229400D03*
X49130800Y-60563000D03*
X50170000Y-123469600D03*
X50344100Y-78751900D03*
X50744100Y-92796900D03*
X51680200Y-77009900D03*
X51767000Y-46688200D03*
X52063500Y-62808000D03*
X52258700Y-45636900D03*
X52928400Y-111732700D03*
X53980000Y-123698300D03*
X54214100Y-122850400D03*
X54606700Y-100846700D03*
X55637800Y-121809200D03*
X56520000Y-127730000D03*
X57726000Y-100548000D03*
X57790000Y-120679600D03*
X58214300Y-71770000D03*
X58401000Y-5848300D03*
X58401000Y-55668900D03*
X58441900Y-38123200D03*
X58568700Y-114715000D03*
X59326800Y-106563700D03*
X60330000Y-123487800D03*
X62357000Y-96667600D03*
X62433500Y-67593100D03*
X63041000Y-99946300D03*
X63380900Y-8210000D03*
X63597300Y-72746500D03*
X64140000Y-124015800D03*
X65410000Y-84499200D03*
X65954600Y-119077600D03*
X66556300Y-123468500D03*
X67124400Y-97791200D03*
X68577200Y-123468500D03*
X69600400Y-79290600D03*
X70237100Y-99710000D03*
X70490000Y-123468500D03*
X81920000Y-66808300D03*
X81920000Y-123698300D03*
X83190000Y-90856600D03*
X84460000Y-126349100D03*
X84733700Y-36328300D03*
X85510100Y-55668900D03*
X87000000Y-122884500D03*
X87870800Y-59184700D03*
X88353300Y-33135900D03*
X88483200Y-53733900D03*
X90910300Y-64745800D03*
X90910300Y-83514800D03*
X93516200Y-46746300D03*
X96174500Y-69127400D03*
X96174500Y-81909700D03*
X97807500Y-80249600D03*
X98430000Y-66589900D03*
X98430000Y-123468500D03*
X101764700Y-94630000D03*
X103054200Y-76739300D03*
X104717300Y-81909700D03*
X111989400Y-123468500D03*
X113354400Y-7692600D03*
X113354400Y-61008400D03*
X113700000Y-114715000D03*
X113837700Y-45768400D03*
X114021800Y-59590200D03*
X114954300Y-113919400D03*
X116961200Y-51072800D03*
X116967000Y-53836900D03*
X117480000Y-127730000D03*
X119172500Y-33186300D03*
X119903300Y-52530100D03*
X121890900Y-122850500D03*
X122432900Y-63140200D03*
X122560000Y-123698300D03*
X123951300Y-78848200D03*
X125100000Y-123698300D03*
X126030900Y-90856600D03*
X127197700Y-122787700D03*
X127802600Y-123630400D03*
X127891200Y-72520900D03*
X128310100Y-71796600D03*
X128338100Y-5848300D03*
X129412200Y-121896800D03*
X129781300Y-75832200D03*
X130582200Y-123085400D03*
X131944600Y-93838900D03*
X132639100Y-78031600D03*
X133224300Y-33186300D03*
X133863300Y-46282400D03*
X133983700Y-51321600D03*
X133990000Y-123468500D03*
X134227700Y-8385200D03*
X135880000Y-123085400D03*
X136665800Y-46190000D03*
X136879700Y-52080200D03*
X137800000Y-127730000D03*
X140340000Y-123698300D03*
X142354300Y-78031600D03*
X142398500Y-60141100D03*
X143209900Y-46313600D03*
X143960100Y-67639000D03*
X144361800Y-73339300D03*
X145420000Y-127730000D03*
X145716600Y-93043300D03*
X146732300Y-64908800D03*
X147485000Y-123468500D03*
X147548700Y-80159600D03*
X147891000Y-48040700D03*
X148090200Y-56403300D03*
X148481600Y-88498300D03*
X148608400Y-61927500D03*
X148937300Y-52086900D03*
X149230000Y-102785800D03*
X149230000Y-123474600D03*
X149690500Y-60143200D03*
X149914900Y-59260800D03*
X150269300Y-29651500D03*
X150301900Y-50307500D03*
X150394700Y-100819300D03*
X150882700Y-33317900D03*
X151016000Y-62253800D03*
X151325800Y-123274900D03*
X151847100Y-73876000D03*
X152161900Y-88498300D03*
X152250500Y-55069000D03*
X153860000Y-60239400D03*
X154016400Y-81909700D03*
X154072300Y-90856600D03*
X154131900Y-30921200D03*
X154299100Y-61854600D03*
X154848200Y-96181600D03*
X154950500Y-123085400D03*
X155489400Y-78726900D03*
X155562700Y-113919400D03*
X155718400Y-64098700D03*
X155838700Y-55069000D03*
X155869500Y-62401300D03*
X155962800Y-65015900D03*
X156002900Y-28932100D03*
X156143100Y-40157500D03*
X156165600Y-58846300D03*
X156753100Y-90856600D03*
X156966100Y-57141800D03*
X157354800Y-93838900D03*
X157475000Y-75354200D03*
X158148800Y-102785800D03*
X159205900Y-58050200D03*
X159522800Y-48462000D03*
X159994500Y-28932100D03*
X160144300Y-57141800D03*
X160659900Y-126349100D03*
X160816700Y-79507300D03*
X161218400Y-29651500D03*
X162223300Y-40157500D03*
D11*
%TO.C,J1*%
X54460000Y-7000000D03*
X54460000Y-9540000D03*
X54460000Y-12080000D03*
X54460000Y-14620000D03*
X54460000Y-17160000D03*
X54460000Y-19700000D03*
X54460000Y-22240000D03*
X54460000Y-24780000D03*
X54460000Y-27320000D03*
X54460000Y-29860000D03*
X54460000Y-32400000D03*
X54460000Y-34940000D03*
X54460000Y-37480000D03*
X54460000Y-40020000D03*
X54460000Y-42560000D03*
X54460000Y-45100000D03*
X54460000Y-47640000D03*
X54460000Y-50180000D03*
X54460000Y-52720000D03*
X54460000Y-55260000D03*
X54460000Y-57800000D03*
X54460000Y-60340000D03*
X54460000Y-62880000D03*
X54460000Y-65420000D03*
X54460000Y-67960000D03*
X54460000Y-70500000D03*
X54460000Y-73040000D03*
X54460000Y-75580000D03*
X54460000Y-78120000D03*
X54460000Y-80660000D03*
X54460000Y-83200000D03*
X54460000Y-85740000D03*
X57000000Y-7000000D03*
X57000000Y-9540000D03*
X57000000Y-12080000D03*
X57000000Y-14620000D03*
X57000000Y-17160000D03*
X57000000Y-19700000D03*
X57000000Y-22240000D03*
X57000000Y-24780000D03*
X57000000Y-27320000D03*
X57000000Y-29860000D03*
X57000000Y-32400000D03*
X57000000Y-34940000D03*
X57000000Y-37480000D03*
X57000000Y-40020000D03*
X57000000Y-42560000D03*
X57000000Y-45100000D03*
X57000000Y-47640000D03*
X57000000Y-50180000D03*
X57000000Y-52720000D03*
X57000000Y-55260000D03*
X57000000Y-57800000D03*
X57000000Y-60340000D03*
X57000000Y-62880000D03*
X57000000Y-65420000D03*
X57000000Y-67960000D03*
X57000000Y-70500000D03*
X57000000Y-73040000D03*
X57000000Y-75580000D03*
X57000000Y-78120000D03*
X57000000Y-80660000D03*
X57000000Y-83200000D03*
X57000000Y-85740000D03*
%TO.C,J2*%
X87000000Y-7000000D03*
X87000000Y-9540000D03*
X87000000Y-12080000D03*
X87000000Y-14620000D03*
X87000000Y-17160000D03*
X87000000Y-19700000D03*
X87000000Y-22240000D03*
X87000000Y-24780000D03*
X87000000Y-27320000D03*
X87000000Y-29860000D03*
X87000000Y-32400000D03*
X87000000Y-34940000D03*
X87000000Y-37480000D03*
X87000000Y-40020000D03*
X87000000Y-42560000D03*
X87000000Y-45100000D03*
X87000000Y-47640000D03*
X87000000Y-50180000D03*
X87000000Y-52720000D03*
X87000000Y-55260000D03*
X87000000Y-57800000D03*
X87000000Y-60340000D03*
X87000000Y-62880000D03*
X87000000Y-65420000D03*
X87000000Y-67960000D03*
X87000000Y-70500000D03*
X87000000Y-73040000D03*
X87000000Y-75580000D03*
X87000000Y-78120000D03*
X87000000Y-80660000D03*
X87000000Y-83200000D03*
X87000000Y-85740000D03*
X87000000Y-88280000D03*
X87000000Y-90820000D03*
X87000000Y-93360000D03*
X87000000Y-95900000D03*
X87000000Y-98440000D03*
X87000000Y-100980000D03*
X87000000Y-103520000D03*
X87000000Y-106060000D03*
X89540000Y-7000000D03*
X89540000Y-9540000D03*
X89540000Y-12080000D03*
X89540000Y-14620000D03*
X89540000Y-17160000D03*
X89540000Y-19700000D03*
X89540000Y-22240000D03*
X89540000Y-24780000D03*
X89540000Y-27320000D03*
X89540000Y-29860000D03*
X89540000Y-32400000D03*
X89540000Y-34940000D03*
X89540000Y-37480000D03*
X89540000Y-40020000D03*
X89540000Y-42560000D03*
X89540000Y-45100000D03*
X89540000Y-47640000D03*
X89540000Y-50180000D03*
X89540000Y-52720000D03*
X89540000Y-55260000D03*
X89540000Y-57800000D03*
X89540000Y-60340000D03*
X89540000Y-62880000D03*
X89540000Y-65420000D03*
X89540000Y-67960000D03*
X89540000Y-70500000D03*
X89540000Y-73040000D03*
X89540000Y-75580000D03*
X89540000Y-78120000D03*
X89540000Y-80660000D03*
X89540000Y-83200000D03*
X89540000Y-85740000D03*
X89540000Y-88280000D03*
X89540000Y-90820000D03*
X89540000Y-93360000D03*
X89540000Y-95900000D03*
X89540000Y-98440000D03*
X89540000Y-100980000D03*
X89540000Y-103520000D03*
X89540000Y-106060000D03*
%TO.C,J3*%
X115460000Y-7000000D03*
X115460000Y-9540000D03*
X115460000Y-12080000D03*
X115460000Y-14620000D03*
X115460000Y-17160000D03*
X115460000Y-19700000D03*
X115460000Y-22240000D03*
X115460000Y-24780000D03*
X115460000Y-27320000D03*
X115460000Y-29860000D03*
X115460000Y-32400000D03*
X115460000Y-34940000D03*
X115460000Y-37480000D03*
X115460000Y-40020000D03*
X115460000Y-42560000D03*
X115460000Y-45100000D03*
X115460000Y-47640000D03*
X115460000Y-50180000D03*
X115460000Y-52720000D03*
X115460000Y-55260000D03*
X115460000Y-57800000D03*
X115460000Y-60340000D03*
X115460000Y-62880000D03*
X115460000Y-65420000D03*
X115460000Y-67960000D03*
X115460000Y-70500000D03*
X115460000Y-73040000D03*
X115460000Y-75580000D03*
X115460000Y-78120000D03*
X115460000Y-80660000D03*
X115460000Y-83200000D03*
X115460000Y-85740000D03*
X118000000Y-7000000D03*
X118000000Y-9540000D03*
X118000000Y-12080000D03*
X118000000Y-14620000D03*
X118000000Y-17160000D03*
X118000000Y-19700000D03*
X118000000Y-22240000D03*
X118000000Y-24780000D03*
X118000000Y-27320000D03*
X118000000Y-29860000D03*
X118000000Y-32400000D03*
X118000000Y-34940000D03*
X118000000Y-37480000D03*
X118000000Y-40020000D03*
X118000000Y-42560000D03*
X118000000Y-45100000D03*
X118000000Y-47640000D03*
X118000000Y-50180000D03*
X118000000Y-52720000D03*
X118000000Y-55260000D03*
X118000000Y-57800000D03*
X118000000Y-60340000D03*
X118000000Y-62880000D03*
X118000000Y-65420000D03*
X118000000Y-67960000D03*
X118000000Y-70500000D03*
X118000000Y-73040000D03*
X118000000Y-75580000D03*
X118000000Y-78120000D03*
X118000000Y-80660000D03*
X118000000Y-83200000D03*
X118000000Y-85740000D03*
M02*
