%TF.GenerationSoftware,KiCad,Pcbnew,9.0.8+dfsg-1*%
%TF.CreationDate,2026-04-27T08:30:16+02:00*%
%TF.ProjectId,neocart,6e656f63-6172-4742-9e6b-696361645f70,1.0*%
%TF.SameCoordinates,Original*%
%TF.FileFunction,Legend,Top*%
%TF.FilePolarity,Positive*%
%FSLAX46Y46*%
G04 Gerber Fmt 4.6, Leading zero omitted, Abs format (unit mm)*
G04 Created by KiCad (PCBNEW 9.0.8+dfsg-1) date 2026-04-27 08:30:16*
%MOMM*%
%LPD*%
G01*
G04 APERTURE LIST*
%ADD10C,0.150000*%
%ADD11C,0.200000*%
%ADD12C,0.300000*%
%ADD13C,0.120000*%
G04 APERTURE END LIST*
D10*
X123452380Y-60359580D02*
X123404761Y-60407200D01*
X123404761Y-60407200D02*
X123261904Y-60454819D01*
X123261904Y-60454819D02*
X123166666Y-60454819D01*
X123166666Y-60454819D02*
X123023809Y-60407200D01*
X123023809Y-60407200D02*
X122928571Y-60311961D01*
X122928571Y-60311961D02*
X122880952Y-60216723D01*
X122880952Y-60216723D02*
X122833333Y-60026247D01*
X122833333Y-60026247D02*
X122833333Y-59883390D01*
X122833333Y-59883390D02*
X122880952Y-59692914D01*
X122880952Y-59692914D02*
X122928571Y-59597676D01*
X122928571Y-59597676D02*
X123023809Y-59502438D01*
X123023809Y-59502438D02*
X123166666Y-59454819D01*
X123166666Y-59454819D02*
X123261904Y-59454819D01*
X123261904Y-59454819D02*
X123404761Y-59502438D01*
X123404761Y-59502438D02*
X123452380Y-59550057D01*
X123738095Y-59454819D02*
X124309523Y-59454819D01*
X124023809Y-60454819D02*
X124023809Y-59454819D01*
X125214285Y-60454819D02*
X124880952Y-59978628D01*
X124642857Y-60454819D02*
X124642857Y-59454819D01*
X124642857Y-59454819D02*
X125023809Y-59454819D01*
X125023809Y-59454819D02*
X125119047Y-59502438D01*
X125119047Y-59502438D02*
X125166666Y-59550057D01*
X125166666Y-59550057D02*
X125214285Y-59645295D01*
X125214285Y-59645295D02*
X125214285Y-59788152D01*
X125214285Y-59788152D02*
X125166666Y-59883390D01*
X125166666Y-59883390D02*
X125119047Y-59931009D01*
X125119047Y-59931009D02*
X125023809Y-59978628D01*
X125023809Y-59978628D02*
X124642857Y-59978628D01*
X126166666Y-59502438D02*
X126071428Y-59454819D01*
X126071428Y-59454819D02*
X125928571Y-59454819D01*
X125928571Y-59454819D02*
X125785714Y-59502438D01*
X125785714Y-59502438D02*
X125690476Y-59597676D01*
X125690476Y-59597676D02*
X125642857Y-59692914D01*
X125642857Y-59692914D02*
X125595238Y-59883390D01*
X125595238Y-59883390D02*
X125595238Y-60026247D01*
X125595238Y-60026247D02*
X125642857Y-60216723D01*
X125642857Y-60216723D02*
X125690476Y-60311961D01*
X125690476Y-60311961D02*
X125785714Y-60407200D01*
X125785714Y-60407200D02*
X125928571Y-60454819D01*
X125928571Y-60454819D02*
X126023809Y-60454819D01*
X126023809Y-60454819D02*
X126166666Y-60407200D01*
X126166666Y-60407200D02*
X126214285Y-60359580D01*
X126214285Y-60359580D02*
X126214285Y-60026247D01*
X126214285Y-60026247D02*
X126023809Y-60026247D01*
X127166666Y-60454819D02*
X126595238Y-60454819D01*
X126880952Y-60454819D02*
X126880952Y-59454819D01*
X126880952Y-59454819D02*
X126785714Y-59597676D01*
X126785714Y-59597676D02*
X126690476Y-59692914D01*
X126690476Y-59692914D02*
X126595238Y-59740533D01*
X128642857Y-60835771D02*
X128595238Y-60788152D01*
X128595238Y-60788152D02*
X128500000Y-60645295D01*
X128500000Y-60645295D02*
X128452381Y-60550057D01*
X128452381Y-60550057D02*
X128404762Y-60407200D01*
X128404762Y-60407200D02*
X128357143Y-60169104D01*
X128357143Y-60169104D02*
X128357143Y-59978628D01*
X128357143Y-59978628D02*
X128404762Y-59740533D01*
X128404762Y-59740533D02*
X128452381Y-59597676D01*
X128452381Y-59597676D02*
X128500000Y-59502438D01*
X128500000Y-59502438D02*
X128595238Y-59359580D01*
X128595238Y-59359580D02*
X128642857Y-59311961D01*
X129595238Y-60359580D02*
X129547619Y-60407200D01*
X129547619Y-60407200D02*
X129404762Y-60454819D01*
X129404762Y-60454819D02*
X129309524Y-60454819D01*
X129309524Y-60454819D02*
X129166667Y-60407200D01*
X129166667Y-60407200D02*
X129071429Y-60311961D01*
X129071429Y-60311961D02*
X129023810Y-60216723D01*
X129023810Y-60216723D02*
X128976191Y-60026247D01*
X128976191Y-60026247D02*
X128976191Y-59883390D01*
X128976191Y-59883390D02*
X129023810Y-59692914D01*
X129023810Y-59692914D02*
X129071429Y-59597676D01*
X129071429Y-59597676D02*
X129166667Y-59502438D01*
X129166667Y-59502438D02*
X129309524Y-59454819D01*
X129309524Y-59454819D02*
X129404762Y-59454819D01*
X129404762Y-59454819D02*
X129547619Y-59502438D01*
X129547619Y-59502438D02*
X129595238Y-59550057D01*
X130023810Y-60454819D02*
X130023810Y-59454819D01*
X130023810Y-59931009D02*
X130595238Y-59931009D01*
X130595238Y-60454819D02*
X130595238Y-59454819D01*
X131023810Y-60169104D02*
X131500000Y-60169104D01*
X130928572Y-60454819D02*
X131261905Y-59454819D01*
X131261905Y-59454819D02*
X131595238Y-60454819D01*
X131833334Y-60835771D02*
X131880953Y-60788152D01*
X131880953Y-60788152D02*
X131976191Y-60645295D01*
X131976191Y-60645295D02*
X132023810Y-60550057D01*
X132023810Y-60550057D02*
X132071429Y-60407200D01*
X132071429Y-60407200D02*
X132119048Y-60169104D01*
X132119048Y-60169104D02*
X132119048Y-59978628D01*
X132119048Y-59978628D02*
X132071429Y-59740533D01*
X132071429Y-59740533D02*
X132023810Y-59597676D01*
X132023810Y-59597676D02*
X131976191Y-59502438D01*
X131976191Y-59502438D02*
X131880953Y-59359580D01*
X131880953Y-59359580D02*
X131833334Y-59311961D01*
X122880951Y-145359580D02*
X122833332Y-145407200D01*
X122833332Y-145407200D02*
X122690475Y-145454819D01*
X122690475Y-145454819D02*
X122595237Y-145454819D01*
X122595237Y-145454819D02*
X122452380Y-145407200D01*
X122452380Y-145407200D02*
X122357142Y-145311961D01*
X122357142Y-145311961D02*
X122309523Y-145216723D01*
X122309523Y-145216723D02*
X122261904Y-145026247D01*
X122261904Y-145026247D02*
X122261904Y-144883390D01*
X122261904Y-144883390D02*
X122309523Y-144692914D01*
X122309523Y-144692914D02*
X122357142Y-144597676D01*
X122357142Y-144597676D02*
X122452380Y-144502438D01*
X122452380Y-144502438D02*
X122595237Y-144454819D01*
X122595237Y-144454819D02*
X122690475Y-144454819D01*
X122690475Y-144454819D02*
X122833332Y-144502438D01*
X122833332Y-144502438D02*
X122880951Y-144550057D01*
X123166666Y-144454819D02*
X123738094Y-144454819D01*
X123452380Y-145454819D02*
X123452380Y-144454819D01*
X124642856Y-145454819D02*
X124309523Y-144978628D01*
X124071428Y-145454819D02*
X124071428Y-144454819D01*
X124071428Y-144454819D02*
X124452380Y-144454819D01*
X124452380Y-144454819D02*
X124547618Y-144502438D01*
X124547618Y-144502438D02*
X124595237Y-144550057D01*
X124595237Y-144550057D02*
X124642856Y-144645295D01*
X124642856Y-144645295D02*
X124642856Y-144788152D01*
X124642856Y-144788152D02*
X124595237Y-144883390D01*
X124595237Y-144883390D02*
X124547618Y-144931009D01*
X124547618Y-144931009D02*
X124452380Y-144978628D01*
X124452380Y-144978628D02*
X124071428Y-144978628D01*
X125595237Y-144502438D02*
X125499999Y-144454819D01*
X125499999Y-144454819D02*
X125357142Y-144454819D01*
X125357142Y-144454819D02*
X125214285Y-144502438D01*
X125214285Y-144502438D02*
X125119047Y-144597676D01*
X125119047Y-144597676D02*
X125071428Y-144692914D01*
X125071428Y-144692914D02*
X125023809Y-144883390D01*
X125023809Y-144883390D02*
X125023809Y-145026247D01*
X125023809Y-145026247D02*
X125071428Y-145216723D01*
X125071428Y-145216723D02*
X125119047Y-145311961D01*
X125119047Y-145311961D02*
X125214285Y-145407200D01*
X125214285Y-145407200D02*
X125357142Y-145454819D01*
X125357142Y-145454819D02*
X125452380Y-145454819D01*
X125452380Y-145454819D02*
X125595237Y-145407200D01*
X125595237Y-145407200D02*
X125642856Y-145359580D01*
X125642856Y-145359580D02*
X125642856Y-145026247D01*
X125642856Y-145026247D02*
X125452380Y-145026247D01*
X126023809Y-144550057D02*
X126071428Y-144502438D01*
X126071428Y-144502438D02*
X126166666Y-144454819D01*
X126166666Y-144454819D02*
X126404761Y-144454819D01*
X126404761Y-144454819D02*
X126499999Y-144502438D01*
X126499999Y-144502438D02*
X126547618Y-144550057D01*
X126547618Y-144550057D02*
X126595237Y-144645295D01*
X126595237Y-144645295D02*
X126595237Y-144740533D01*
X126595237Y-144740533D02*
X126547618Y-144883390D01*
X126547618Y-144883390D02*
X125976190Y-145454819D01*
X125976190Y-145454819D02*
X126595237Y-145454819D01*
X128071428Y-145835771D02*
X128023809Y-145788152D01*
X128023809Y-145788152D02*
X127928571Y-145645295D01*
X127928571Y-145645295D02*
X127880952Y-145550057D01*
X127880952Y-145550057D02*
X127833333Y-145407200D01*
X127833333Y-145407200D02*
X127785714Y-145169104D01*
X127785714Y-145169104D02*
X127785714Y-144978628D01*
X127785714Y-144978628D02*
X127833333Y-144740533D01*
X127833333Y-144740533D02*
X127880952Y-144597676D01*
X127880952Y-144597676D02*
X127928571Y-144502438D01*
X127928571Y-144502438D02*
X128023809Y-144359580D01*
X128023809Y-144359580D02*
X128071428Y-144311961D01*
X128452381Y-145454819D02*
X128452381Y-144454819D01*
X128452381Y-144454819D02*
X128833333Y-144454819D01*
X128833333Y-144454819D02*
X128928571Y-144502438D01*
X128928571Y-144502438D02*
X128976190Y-144550057D01*
X128976190Y-144550057D02*
X129023809Y-144645295D01*
X129023809Y-144645295D02*
X129023809Y-144788152D01*
X129023809Y-144788152D02*
X128976190Y-144883390D01*
X128976190Y-144883390D02*
X128928571Y-144931009D01*
X128928571Y-144931009D02*
X128833333Y-144978628D01*
X128833333Y-144978628D02*
X128452381Y-144978628D01*
X130023809Y-145454819D02*
X129690476Y-144978628D01*
X129452381Y-145454819D02*
X129452381Y-144454819D01*
X129452381Y-144454819D02*
X129833333Y-144454819D01*
X129833333Y-144454819D02*
X129928571Y-144502438D01*
X129928571Y-144502438D02*
X129976190Y-144550057D01*
X129976190Y-144550057D02*
X130023809Y-144645295D01*
X130023809Y-144645295D02*
X130023809Y-144788152D01*
X130023809Y-144788152D02*
X129976190Y-144883390D01*
X129976190Y-144883390D02*
X129928571Y-144931009D01*
X129928571Y-144931009D02*
X129833333Y-144978628D01*
X129833333Y-144978628D02*
X129452381Y-144978628D01*
X130642857Y-144454819D02*
X130833333Y-144454819D01*
X130833333Y-144454819D02*
X130928571Y-144502438D01*
X130928571Y-144502438D02*
X131023809Y-144597676D01*
X131023809Y-144597676D02*
X131071428Y-144788152D01*
X131071428Y-144788152D02*
X131071428Y-145121485D01*
X131071428Y-145121485D02*
X131023809Y-145311961D01*
X131023809Y-145311961D02*
X130928571Y-145407200D01*
X130928571Y-145407200D02*
X130833333Y-145454819D01*
X130833333Y-145454819D02*
X130642857Y-145454819D01*
X130642857Y-145454819D02*
X130547619Y-145407200D01*
X130547619Y-145407200D02*
X130452381Y-145311961D01*
X130452381Y-145311961D02*
X130404762Y-145121485D01*
X130404762Y-145121485D02*
X130404762Y-144788152D01*
X130404762Y-144788152D02*
X130452381Y-144597676D01*
X130452381Y-144597676D02*
X130547619Y-144502438D01*
X130547619Y-144502438D02*
X130642857Y-144454819D01*
X132023809Y-144502438D02*
X131928571Y-144454819D01*
X131928571Y-144454819D02*
X131785714Y-144454819D01*
X131785714Y-144454819D02*
X131642857Y-144502438D01*
X131642857Y-144502438D02*
X131547619Y-144597676D01*
X131547619Y-144597676D02*
X131500000Y-144692914D01*
X131500000Y-144692914D02*
X131452381Y-144883390D01*
X131452381Y-144883390D02*
X131452381Y-145026247D01*
X131452381Y-145026247D02*
X131500000Y-145216723D01*
X131500000Y-145216723D02*
X131547619Y-145311961D01*
X131547619Y-145311961D02*
X131642857Y-145407200D01*
X131642857Y-145407200D02*
X131785714Y-145454819D01*
X131785714Y-145454819D02*
X131880952Y-145454819D01*
X131880952Y-145454819D02*
X132023809Y-145407200D01*
X132023809Y-145407200D02*
X132071428Y-145359580D01*
X132071428Y-145359580D02*
X132071428Y-145026247D01*
X132071428Y-145026247D02*
X131880952Y-145026247D01*
X132404762Y-145835771D02*
X132452381Y-145788152D01*
X132452381Y-145788152D02*
X132547619Y-145645295D01*
X132547619Y-145645295D02*
X132595238Y-145550057D01*
X132595238Y-145550057D02*
X132642857Y-145407200D01*
X132642857Y-145407200D02*
X132690476Y-145169104D01*
X132690476Y-145169104D02*
X132690476Y-144978628D01*
X132690476Y-144978628D02*
X132642857Y-144740533D01*
X132642857Y-144740533D02*
X132595238Y-144597676D01*
X132595238Y-144597676D02*
X132547619Y-144502438D01*
X132547619Y-144502438D02*
X132452381Y-144359580D01*
X132452381Y-144359580D02*
X132404762Y-144311961D01*
D11*
X120821428Y-103183528D02*
X120821428Y-101683528D01*
X120821428Y-101683528D02*
X121678571Y-103183528D01*
X121678571Y-103183528D02*
X121678571Y-101683528D01*
X122964286Y-103112100D02*
X122821429Y-103183528D01*
X122821429Y-103183528D02*
X122535715Y-103183528D01*
X122535715Y-103183528D02*
X122392857Y-103112100D01*
X122392857Y-103112100D02*
X122321429Y-102969242D01*
X122321429Y-102969242D02*
X122321429Y-102397814D01*
X122321429Y-102397814D02*
X122392857Y-102254957D01*
X122392857Y-102254957D02*
X122535715Y-102183528D01*
X122535715Y-102183528D02*
X122821429Y-102183528D01*
X122821429Y-102183528D02*
X122964286Y-102254957D01*
X122964286Y-102254957D02*
X123035715Y-102397814D01*
X123035715Y-102397814D02*
X123035715Y-102540671D01*
X123035715Y-102540671D02*
X122321429Y-102683528D01*
X123892857Y-103183528D02*
X123750000Y-103112100D01*
X123750000Y-103112100D02*
X123678571Y-103040671D01*
X123678571Y-103040671D02*
X123607143Y-102897814D01*
X123607143Y-102897814D02*
X123607143Y-102469242D01*
X123607143Y-102469242D02*
X123678571Y-102326385D01*
X123678571Y-102326385D02*
X123750000Y-102254957D01*
X123750000Y-102254957D02*
X123892857Y-102183528D01*
X123892857Y-102183528D02*
X124107143Y-102183528D01*
X124107143Y-102183528D02*
X124250000Y-102254957D01*
X124250000Y-102254957D02*
X124321429Y-102326385D01*
X124321429Y-102326385D02*
X124392857Y-102469242D01*
X124392857Y-102469242D02*
X124392857Y-102897814D01*
X124392857Y-102897814D02*
X124321429Y-103040671D01*
X124321429Y-103040671D02*
X124250000Y-103112100D01*
X124250000Y-103112100D02*
X124107143Y-103183528D01*
X124107143Y-103183528D02*
X123892857Y-103183528D01*
X124964286Y-103112100D02*
X125178572Y-103183528D01*
X125178572Y-103183528D02*
X125535714Y-103183528D01*
X125535714Y-103183528D02*
X125678572Y-103112100D01*
X125678572Y-103112100D02*
X125750000Y-103040671D01*
X125750000Y-103040671D02*
X125821429Y-102897814D01*
X125821429Y-102897814D02*
X125821429Y-102754957D01*
X125821429Y-102754957D02*
X125750000Y-102612100D01*
X125750000Y-102612100D02*
X125678572Y-102540671D01*
X125678572Y-102540671D02*
X125535714Y-102469242D01*
X125535714Y-102469242D02*
X125250000Y-102397814D01*
X125250000Y-102397814D02*
X125107143Y-102326385D01*
X125107143Y-102326385D02*
X125035714Y-102254957D01*
X125035714Y-102254957D02*
X124964286Y-102112100D01*
X124964286Y-102112100D02*
X124964286Y-101969242D01*
X124964286Y-101969242D02*
X125035714Y-101826385D01*
X125035714Y-101826385D02*
X125107143Y-101754957D01*
X125107143Y-101754957D02*
X125250000Y-101683528D01*
X125250000Y-101683528D02*
X125607143Y-101683528D01*
X125607143Y-101683528D02*
X125821429Y-101754957D01*
X127107143Y-103112100D02*
X126964285Y-103183528D01*
X126964285Y-103183528D02*
X126678571Y-103183528D01*
X126678571Y-103183528D02*
X126535714Y-103112100D01*
X126535714Y-103112100D02*
X126464285Y-103040671D01*
X126464285Y-103040671D02*
X126392857Y-102897814D01*
X126392857Y-102897814D02*
X126392857Y-102469242D01*
X126392857Y-102469242D02*
X126464285Y-102326385D01*
X126464285Y-102326385D02*
X126535714Y-102254957D01*
X126535714Y-102254957D02*
X126678571Y-102183528D01*
X126678571Y-102183528D02*
X126964285Y-102183528D01*
X126964285Y-102183528D02*
X127107143Y-102254957D01*
X128392857Y-103183528D02*
X128392857Y-102397814D01*
X128392857Y-102397814D02*
X128321428Y-102254957D01*
X128321428Y-102254957D02*
X128178571Y-102183528D01*
X128178571Y-102183528D02*
X127892857Y-102183528D01*
X127892857Y-102183528D02*
X127749999Y-102254957D01*
X128392857Y-103112100D02*
X128249999Y-103183528D01*
X128249999Y-103183528D02*
X127892857Y-103183528D01*
X127892857Y-103183528D02*
X127749999Y-103112100D01*
X127749999Y-103112100D02*
X127678571Y-102969242D01*
X127678571Y-102969242D02*
X127678571Y-102826385D01*
X127678571Y-102826385D02*
X127749999Y-102683528D01*
X127749999Y-102683528D02*
X127892857Y-102612100D01*
X127892857Y-102612100D02*
X128249999Y-102612100D01*
X128249999Y-102612100D02*
X128392857Y-102540671D01*
X129107142Y-102183528D02*
X129107142Y-103183528D01*
X129107142Y-102326385D02*
X129178571Y-102254957D01*
X129178571Y-102254957D02*
X129321428Y-102183528D01*
X129321428Y-102183528D02*
X129535714Y-102183528D01*
X129535714Y-102183528D02*
X129678571Y-102254957D01*
X129678571Y-102254957D02*
X129750000Y-102397814D01*
X129750000Y-102397814D02*
X129750000Y-103183528D01*
X130392857Y-103112100D02*
X130607143Y-103183528D01*
X130607143Y-103183528D02*
X130964285Y-103183528D01*
X130964285Y-103183528D02*
X131107143Y-103112100D01*
X131107143Y-103112100D02*
X131178571Y-103040671D01*
X131178571Y-103040671D02*
X131250000Y-102897814D01*
X131250000Y-102897814D02*
X131250000Y-102754957D01*
X131250000Y-102754957D02*
X131178571Y-102612100D01*
X131178571Y-102612100D02*
X131107143Y-102540671D01*
X131107143Y-102540671D02*
X130964285Y-102469242D01*
X130964285Y-102469242D02*
X130678571Y-102397814D01*
X130678571Y-102397814D02*
X130535714Y-102326385D01*
X130535714Y-102326385D02*
X130464285Y-102254957D01*
X130464285Y-102254957D02*
X130392857Y-102112100D01*
X130392857Y-102112100D02*
X130392857Y-101969242D01*
X130392857Y-101969242D02*
X130464285Y-101826385D01*
X130464285Y-101826385D02*
X130535714Y-101754957D01*
X130535714Y-101754957D02*
X130678571Y-101683528D01*
X130678571Y-101683528D02*
X131035714Y-101683528D01*
X131035714Y-101683528D02*
X131250000Y-101754957D01*
X131892856Y-103183528D02*
X131892856Y-101683528D01*
X131892856Y-101683528D02*
X132249999Y-101683528D01*
X132249999Y-101683528D02*
X132464285Y-101754957D01*
X132464285Y-101754957D02*
X132607142Y-101897814D01*
X132607142Y-101897814D02*
X132678571Y-102040671D01*
X132678571Y-102040671D02*
X132749999Y-102326385D01*
X132749999Y-102326385D02*
X132749999Y-102540671D01*
X132749999Y-102540671D02*
X132678571Y-102826385D01*
X132678571Y-102826385D02*
X132607142Y-102969242D01*
X132607142Y-102969242D02*
X132464285Y-103112100D01*
X132464285Y-103112100D02*
X132249999Y-103183528D01*
X132249999Y-103183528D02*
X131892856Y-103183528D01*
X133392856Y-103183528D02*
X133392856Y-101683528D01*
X134249999Y-103183528D02*
X133607142Y-102326385D01*
X134249999Y-101683528D02*
X133392856Y-102540671D01*
D12*
X103976188Y-98409638D02*
X103976188Y-96409638D01*
X103976188Y-96409638D02*
X105119045Y-98409638D01*
X105119045Y-98409638D02*
X105119045Y-96409638D01*
X106071426Y-97362019D02*
X106738093Y-97362019D01*
X107023807Y-98409638D02*
X106071426Y-98409638D01*
X106071426Y-98409638D02*
X106071426Y-96409638D01*
X106071426Y-96409638D02*
X107023807Y-96409638D01*
X108261902Y-96409638D02*
X108642855Y-96409638D01*
X108642855Y-96409638D02*
X108833331Y-96504876D01*
X108833331Y-96504876D02*
X109023807Y-96695352D01*
X109023807Y-96695352D02*
X109119045Y-97076304D01*
X109119045Y-97076304D02*
X109119045Y-97742971D01*
X109119045Y-97742971D02*
X109023807Y-98123923D01*
X109023807Y-98123923D02*
X108833331Y-98314400D01*
X108833331Y-98314400D02*
X108642855Y-98409638D01*
X108642855Y-98409638D02*
X108261902Y-98409638D01*
X108261902Y-98409638D02*
X108071426Y-98314400D01*
X108071426Y-98314400D02*
X107880950Y-98123923D01*
X107880950Y-98123923D02*
X107785712Y-97742971D01*
X107785712Y-97742971D02*
X107785712Y-97076304D01*
X107785712Y-97076304D02*
X107880950Y-96695352D01*
X107880950Y-96695352D02*
X108071426Y-96504876D01*
X108071426Y-96504876D02*
X108261902Y-96409638D01*
X112547617Y-96504876D02*
X112357141Y-96409638D01*
X112357141Y-96409638D02*
X112071427Y-96409638D01*
X112071427Y-96409638D02*
X111785712Y-96504876D01*
X111785712Y-96504876D02*
X111595236Y-96695352D01*
X111595236Y-96695352D02*
X111499998Y-96885828D01*
X111499998Y-96885828D02*
X111404760Y-97266780D01*
X111404760Y-97266780D02*
X111404760Y-97552495D01*
X111404760Y-97552495D02*
X111499998Y-97933447D01*
X111499998Y-97933447D02*
X111595236Y-98123923D01*
X111595236Y-98123923D02*
X111785712Y-98314400D01*
X111785712Y-98314400D02*
X112071427Y-98409638D01*
X112071427Y-98409638D02*
X112261903Y-98409638D01*
X112261903Y-98409638D02*
X112547617Y-98314400D01*
X112547617Y-98314400D02*
X112642855Y-98219161D01*
X112642855Y-98219161D02*
X112642855Y-97552495D01*
X112642855Y-97552495D02*
X112261903Y-97552495D01*
X113499998Y-97362019D02*
X114166665Y-97362019D01*
X114452379Y-98409638D02*
X113499998Y-98409638D01*
X113499998Y-98409638D02*
X113499998Y-96409638D01*
X113499998Y-96409638D02*
X114452379Y-96409638D01*
X115690474Y-96409638D02*
X116071427Y-96409638D01*
X116071427Y-96409638D02*
X116261903Y-96504876D01*
X116261903Y-96504876D02*
X116452379Y-96695352D01*
X116452379Y-96695352D02*
X116547617Y-97076304D01*
X116547617Y-97076304D02*
X116547617Y-97742971D01*
X116547617Y-97742971D02*
X116452379Y-98123923D01*
X116452379Y-98123923D02*
X116261903Y-98314400D01*
X116261903Y-98314400D02*
X116071427Y-98409638D01*
X116071427Y-98409638D02*
X115690474Y-98409638D01*
X115690474Y-98409638D02*
X115499998Y-98314400D01*
X115499998Y-98314400D02*
X115309522Y-98123923D01*
X115309522Y-98123923D02*
X115214284Y-97742971D01*
X115214284Y-97742971D02*
X115214284Y-97076304D01*
X115214284Y-97076304D02*
X115309522Y-96695352D01*
X115309522Y-96695352D02*
X115499998Y-96504876D01*
X115499998Y-96504876D02*
X115690474Y-96409638D01*
X118928570Y-98409638D02*
X118928570Y-96409638D01*
X118928570Y-96409638D02*
X119595237Y-97838209D01*
X119595237Y-97838209D02*
X120261903Y-96409638D01*
X120261903Y-96409638D02*
X120261903Y-98409638D01*
X120928570Y-96409638D02*
X121595236Y-98409638D01*
X121595236Y-98409638D02*
X122261903Y-96409638D01*
X122833332Y-98314400D02*
X123119046Y-98409638D01*
X123119046Y-98409638D02*
X123595237Y-98409638D01*
X123595237Y-98409638D02*
X123785713Y-98314400D01*
X123785713Y-98314400D02*
X123880951Y-98219161D01*
X123880951Y-98219161D02*
X123976189Y-98028685D01*
X123976189Y-98028685D02*
X123976189Y-97838209D01*
X123976189Y-97838209D02*
X123880951Y-97647733D01*
X123880951Y-97647733D02*
X123785713Y-97552495D01*
X123785713Y-97552495D02*
X123595237Y-97457257D01*
X123595237Y-97457257D02*
X123214284Y-97362019D01*
X123214284Y-97362019D02*
X123023808Y-97266780D01*
X123023808Y-97266780D02*
X122928570Y-97171542D01*
X122928570Y-97171542D02*
X122833332Y-96981066D01*
X122833332Y-96981066D02*
X122833332Y-96790590D01*
X122833332Y-96790590D02*
X122928570Y-96600114D01*
X122928570Y-96600114D02*
X123023808Y-96504876D01*
X123023808Y-96504876D02*
X123214284Y-96409638D01*
X123214284Y-96409638D02*
X123690475Y-96409638D01*
X123690475Y-96409638D02*
X123976189Y-96504876D01*
X127023809Y-97362019D02*
X126357142Y-97362019D01*
X126357142Y-98409638D02*
X126357142Y-96409638D01*
X126357142Y-96409638D02*
X127309523Y-96409638D01*
X129023809Y-98409638D02*
X128071428Y-98409638D01*
X128071428Y-98409638D02*
X128071428Y-96409638D01*
X129595238Y-97838209D02*
X130547619Y-97838209D01*
X129404762Y-98409638D02*
X130071428Y-96409638D01*
X130071428Y-96409638D02*
X130738095Y-98409638D01*
X131309524Y-98314400D02*
X131595238Y-98409638D01*
X131595238Y-98409638D02*
X132071429Y-98409638D01*
X132071429Y-98409638D02*
X132261905Y-98314400D01*
X132261905Y-98314400D02*
X132357143Y-98219161D01*
X132357143Y-98219161D02*
X132452381Y-98028685D01*
X132452381Y-98028685D02*
X132452381Y-97838209D01*
X132452381Y-97838209D02*
X132357143Y-97647733D01*
X132357143Y-97647733D02*
X132261905Y-97552495D01*
X132261905Y-97552495D02*
X132071429Y-97457257D01*
X132071429Y-97457257D02*
X131690476Y-97362019D01*
X131690476Y-97362019D02*
X131500000Y-97266780D01*
X131500000Y-97266780D02*
X131404762Y-97171542D01*
X131404762Y-97171542D02*
X131309524Y-96981066D01*
X131309524Y-96981066D02*
X131309524Y-96790590D01*
X131309524Y-96790590D02*
X131404762Y-96600114D01*
X131404762Y-96600114D02*
X131500000Y-96504876D01*
X131500000Y-96504876D02*
X131690476Y-96409638D01*
X131690476Y-96409638D02*
X132166667Y-96409638D01*
X132166667Y-96409638D02*
X132452381Y-96504876D01*
X133309524Y-98409638D02*
X133309524Y-96409638D01*
X133309524Y-97362019D02*
X134452381Y-97362019D01*
X134452381Y-98409638D02*
X134452381Y-96409638D01*
X138071429Y-98219161D02*
X137976191Y-98314400D01*
X137976191Y-98314400D02*
X137690477Y-98409638D01*
X137690477Y-98409638D02*
X137500001Y-98409638D01*
X137500001Y-98409638D02*
X137214286Y-98314400D01*
X137214286Y-98314400D02*
X137023810Y-98123923D01*
X137023810Y-98123923D02*
X136928572Y-97933447D01*
X136928572Y-97933447D02*
X136833334Y-97552495D01*
X136833334Y-97552495D02*
X136833334Y-97266780D01*
X136833334Y-97266780D02*
X136928572Y-96885828D01*
X136928572Y-96885828D02*
X137023810Y-96695352D01*
X137023810Y-96695352D02*
X137214286Y-96504876D01*
X137214286Y-96504876D02*
X137500001Y-96409638D01*
X137500001Y-96409638D02*
X137690477Y-96409638D01*
X137690477Y-96409638D02*
X137976191Y-96504876D01*
X137976191Y-96504876D02*
X138071429Y-96600114D01*
X138833334Y-97838209D02*
X139785715Y-97838209D01*
X138642858Y-98409638D02*
X139309524Y-96409638D01*
X139309524Y-96409638D02*
X139976191Y-98409638D01*
X141785715Y-98409638D02*
X141119048Y-97457257D01*
X140642858Y-98409638D02*
X140642858Y-96409638D01*
X140642858Y-96409638D02*
X141404763Y-96409638D01*
X141404763Y-96409638D02*
X141595239Y-96504876D01*
X141595239Y-96504876D02*
X141690477Y-96600114D01*
X141690477Y-96600114D02*
X141785715Y-96790590D01*
X141785715Y-96790590D02*
X141785715Y-97076304D01*
X141785715Y-97076304D02*
X141690477Y-97266780D01*
X141690477Y-97266780D02*
X141595239Y-97362019D01*
X141595239Y-97362019D02*
X141404763Y-97457257D01*
X141404763Y-97457257D02*
X140642858Y-97457257D01*
X142357144Y-96409638D02*
X143500001Y-96409638D01*
X142928572Y-98409638D02*
X142928572Y-96409638D01*
X145500002Y-97076304D02*
X145976192Y-98409638D01*
X145976192Y-98409638D02*
X146452383Y-97076304D01*
X148261907Y-98409638D02*
X147119050Y-98409638D01*
X147690478Y-98409638D02*
X147690478Y-96409638D01*
X147690478Y-96409638D02*
X147500002Y-96695352D01*
X147500002Y-96695352D02*
X147309526Y-96885828D01*
X147309526Y-96885828D02*
X147119050Y-96981066D01*
X149119050Y-98219161D02*
X149214288Y-98314400D01*
X149214288Y-98314400D02*
X149119050Y-98409638D01*
X149119050Y-98409638D02*
X149023812Y-98314400D01*
X149023812Y-98314400D02*
X149119050Y-98219161D01*
X149119050Y-98219161D02*
X149119050Y-98409638D01*
X150452383Y-96409638D02*
X150642860Y-96409638D01*
X150642860Y-96409638D02*
X150833336Y-96504876D01*
X150833336Y-96504876D02*
X150928574Y-96600114D01*
X150928574Y-96600114D02*
X151023812Y-96790590D01*
X151023812Y-96790590D02*
X151119050Y-97171542D01*
X151119050Y-97171542D02*
X151119050Y-97647733D01*
X151119050Y-97647733D02*
X151023812Y-98028685D01*
X151023812Y-98028685D02*
X150928574Y-98219161D01*
X150928574Y-98219161D02*
X150833336Y-98314400D01*
X150833336Y-98314400D02*
X150642860Y-98409638D01*
X150642860Y-98409638D02*
X150452383Y-98409638D01*
X150452383Y-98409638D02*
X150261907Y-98314400D01*
X150261907Y-98314400D02*
X150166669Y-98219161D01*
X150166669Y-98219161D02*
X150071431Y-98028685D01*
X150071431Y-98028685D02*
X149976193Y-97647733D01*
X149976193Y-97647733D02*
X149976193Y-97171542D01*
X149976193Y-97171542D02*
X150071431Y-96790590D01*
X150071431Y-96790590D02*
X150166669Y-96600114D01*
X150166669Y-96600114D02*
X150261907Y-96504876D01*
X150261907Y-96504876D02*
X150452383Y-96409638D01*
D10*
X137404762Y-110104819D02*
X137404762Y-110914342D01*
X137404762Y-110914342D02*
X137452381Y-111009580D01*
X137452381Y-111009580D02*
X137500000Y-111057200D01*
X137500000Y-111057200D02*
X137595238Y-111104819D01*
X137595238Y-111104819D02*
X137785714Y-111104819D01*
X137785714Y-111104819D02*
X137880952Y-111057200D01*
X137880952Y-111057200D02*
X137928571Y-111009580D01*
X137928571Y-111009580D02*
X137976190Y-110914342D01*
X137976190Y-110914342D02*
X137976190Y-110104819D01*
X138214286Y-111200057D02*
X138976190Y-111200057D01*
X139547619Y-110581009D02*
X139690476Y-110628628D01*
X139690476Y-110628628D02*
X139738095Y-110676247D01*
X139738095Y-110676247D02*
X139785714Y-110771485D01*
X139785714Y-110771485D02*
X139785714Y-110914342D01*
X139785714Y-110914342D02*
X139738095Y-111009580D01*
X139738095Y-111009580D02*
X139690476Y-111057200D01*
X139690476Y-111057200D02*
X139595238Y-111104819D01*
X139595238Y-111104819D02*
X139214286Y-111104819D01*
X139214286Y-111104819D02*
X139214286Y-110104819D01*
X139214286Y-110104819D02*
X139547619Y-110104819D01*
X139547619Y-110104819D02*
X139642857Y-110152438D01*
X139642857Y-110152438D02*
X139690476Y-110200057D01*
X139690476Y-110200057D02*
X139738095Y-110295295D01*
X139738095Y-110295295D02*
X139738095Y-110390533D01*
X139738095Y-110390533D02*
X139690476Y-110485771D01*
X139690476Y-110485771D02*
X139642857Y-110533390D01*
X139642857Y-110533390D02*
X139547619Y-110581009D01*
X139547619Y-110581009D02*
X139214286Y-110581009D01*
X140214286Y-110104819D02*
X140214286Y-110914342D01*
X140214286Y-110914342D02*
X140261905Y-111009580D01*
X140261905Y-111009580D02*
X140309524Y-111057200D01*
X140309524Y-111057200D02*
X140404762Y-111104819D01*
X140404762Y-111104819D02*
X140595238Y-111104819D01*
X140595238Y-111104819D02*
X140690476Y-111057200D01*
X140690476Y-111057200D02*
X140738095Y-111009580D01*
X140738095Y-111009580D02*
X140785714Y-110914342D01*
X140785714Y-110914342D02*
X140785714Y-110104819D01*
X141595238Y-110581009D02*
X141261905Y-110581009D01*
X141261905Y-111104819D02*
X141261905Y-110104819D01*
X141261905Y-110104819D02*
X141738095Y-110104819D01*
X142642857Y-111104819D02*
X142071429Y-111104819D01*
X142357143Y-111104819D02*
X142357143Y-110104819D01*
X142357143Y-110104819D02*
X142261905Y-110247676D01*
X142261905Y-110247676D02*
X142166667Y-110342914D01*
X142166667Y-110342914D02*
X142071429Y-110390533D01*
X169357142Y-89199580D02*
X169309523Y-89247200D01*
X169309523Y-89247200D02*
X169166666Y-89294819D01*
X169166666Y-89294819D02*
X169071428Y-89294819D01*
X169071428Y-89294819D02*
X168928571Y-89247200D01*
X168928571Y-89247200D02*
X168833333Y-89151961D01*
X168833333Y-89151961D02*
X168785714Y-89056723D01*
X168785714Y-89056723D02*
X168738095Y-88866247D01*
X168738095Y-88866247D02*
X168738095Y-88723390D01*
X168738095Y-88723390D02*
X168785714Y-88532914D01*
X168785714Y-88532914D02*
X168833333Y-88437676D01*
X168833333Y-88437676D02*
X168928571Y-88342438D01*
X168928571Y-88342438D02*
X169071428Y-88294819D01*
X169071428Y-88294819D02*
X169166666Y-88294819D01*
X169166666Y-88294819D02*
X169309523Y-88342438D01*
X169309523Y-88342438D02*
X169357142Y-88390057D01*
X170309523Y-89294819D02*
X169738095Y-89294819D01*
X170023809Y-89294819D02*
X170023809Y-88294819D01*
X170023809Y-88294819D02*
X169928571Y-88437676D01*
X169928571Y-88437676D02*
X169833333Y-88532914D01*
X169833333Y-88532914D02*
X169738095Y-88580533D01*
X170642857Y-88294819D02*
X171261904Y-88294819D01*
X171261904Y-88294819D02*
X170928571Y-88675771D01*
X170928571Y-88675771D02*
X171071428Y-88675771D01*
X171071428Y-88675771D02*
X171166666Y-88723390D01*
X171166666Y-88723390D02*
X171214285Y-88771009D01*
X171214285Y-88771009D02*
X171261904Y-88866247D01*
X171261904Y-88866247D02*
X171261904Y-89104342D01*
X171261904Y-89104342D02*
X171214285Y-89199580D01*
X171214285Y-89199580D02*
X171166666Y-89247200D01*
X171166666Y-89247200D02*
X171071428Y-89294819D01*
X171071428Y-89294819D02*
X170785714Y-89294819D01*
X170785714Y-89294819D02*
X170690476Y-89247200D01*
X170690476Y-89247200D02*
X170642857Y-89199580D01*
X164357142Y-89199580D02*
X164309523Y-89247200D01*
X164309523Y-89247200D02*
X164166666Y-89294819D01*
X164166666Y-89294819D02*
X164071428Y-89294819D01*
X164071428Y-89294819D02*
X163928571Y-89247200D01*
X163928571Y-89247200D02*
X163833333Y-89151961D01*
X163833333Y-89151961D02*
X163785714Y-89056723D01*
X163785714Y-89056723D02*
X163738095Y-88866247D01*
X163738095Y-88866247D02*
X163738095Y-88723390D01*
X163738095Y-88723390D02*
X163785714Y-88532914D01*
X163785714Y-88532914D02*
X163833333Y-88437676D01*
X163833333Y-88437676D02*
X163928571Y-88342438D01*
X163928571Y-88342438D02*
X164071428Y-88294819D01*
X164071428Y-88294819D02*
X164166666Y-88294819D01*
X164166666Y-88294819D02*
X164309523Y-88342438D01*
X164309523Y-88342438D02*
X164357142Y-88390057D01*
X165309523Y-89294819D02*
X164738095Y-89294819D01*
X165023809Y-89294819D02*
X165023809Y-88294819D01*
X165023809Y-88294819D02*
X164928571Y-88437676D01*
X164928571Y-88437676D02*
X164833333Y-88532914D01*
X164833333Y-88532914D02*
X164738095Y-88580533D01*
X165690476Y-88390057D02*
X165738095Y-88342438D01*
X165738095Y-88342438D02*
X165833333Y-88294819D01*
X165833333Y-88294819D02*
X166071428Y-88294819D01*
X166071428Y-88294819D02*
X166166666Y-88342438D01*
X166166666Y-88342438D02*
X166214285Y-88390057D01*
X166214285Y-88390057D02*
X166261904Y-88485295D01*
X166261904Y-88485295D02*
X166261904Y-88580533D01*
X166261904Y-88580533D02*
X166214285Y-88723390D01*
X166214285Y-88723390D02*
X165642857Y-89294819D01*
X165642857Y-89294819D02*
X166261904Y-89294819D01*
X82738095Y-132624819D02*
X82738095Y-133434342D01*
X82738095Y-133434342D02*
X82785714Y-133529580D01*
X82785714Y-133529580D02*
X82833333Y-133577200D01*
X82833333Y-133577200D02*
X82928571Y-133624819D01*
X82928571Y-133624819D02*
X83119047Y-133624819D01*
X83119047Y-133624819D02*
X83214285Y-133577200D01*
X83214285Y-133577200D02*
X83261904Y-133529580D01*
X83261904Y-133529580D02*
X83309523Y-133434342D01*
X83309523Y-133434342D02*
X83309523Y-132624819D01*
X83547619Y-133720057D02*
X84309523Y-133720057D01*
X84547619Y-133624819D02*
X84547619Y-132624819D01*
X84547619Y-132624819D02*
X84880952Y-133339104D01*
X84880952Y-133339104D02*
X85214285Y-132624819D01*
X85214285Y-132624819D02*
X85214285Y-133624819D01*
X86261904Y-133529580D02*
X86214285Y-133577200D01*
X86214285Y-133577200D02*
X86071428Y-133624819D01*
X86071428Y-133624819D02*
X85976190Y-133624819D01*
X85976190Y-133624819D02*
X85833333Y-133577200D01*
X85833333Y-133577200D02*
X85738095Y-133481961D01*
X85738095Y-133481961D02*
X85690476Y-133386723D01*
X85690476Y-133386723D02*
X85642857Y-133196247D01*
X85642857Y-133196247D02*
X85642857Y-133053390D01*
X85642857Y-133053390D02*
X85690476Y-132862914D01*
X85690476Y-132862914D02*
X85738095Y-132767676D01*
X85738095Y-132767676D02*
X85833333Y-132672438D01*
X85833333Y-132672438D02*
X85976190Y-132624819D01*
X85976190Y-132624819D02*
X86071428Y-132624819D01*
X86071428Y-132624819D02*
X86214285Y-132672438D01*
X86214285Y-132672438D02*
X86261904Y-132720057D01*
X86690476Y-132624819D02*
X86690476Y-133434342D01*
X86690476Y-133434342D02*
X86738095Y-133529580D01*
X86738095Y-133529580D02*
X86785714Y-133577200D01*
X86785714Y-133577200D02*
X86880952Y-133624819D01*
X86880952Y-133624819D02*
X87071428Y-133624819D01*
X87071428Y-133624819D02*
X87166666Y-133577200D01*
X87166666Y-133577200D02*
X87214285Y-133529580D01*
X87214285Y-133529580D02*
X87261904Y-133434342D01*
X87261904Y-133434342D02*
X87261904Y-132624819D01*
X170261905Y-105054819D02*
X170261905Y-104054819D01*
X170261905Y-104054819D02*
X170500000Y-104054819D01*
X170500000Y-104054819D02*
X170642857Y-104102438D01*
X170642857Y-104102438D02*
X170738095Y-104197676D01*
X170738095Y-104197676D02*
X170785714Y-104292914D01*
X170785714Y-104292914D02*
X170833333Y-104483390D01*
X170833333Y-104483390D02*
X170833333Y-104626247D01*
X170833333Y-104626247D02*
X170785714Y-104816723D01*
X170785714Y-104816723D02*
X170738095Y-104911961D01*
X170738095Y-104911961D02*
X170642857Y-105007200D01*
X170642857Y-105007200D02*
X170500000Y-105054819D01*
X170500000Y-105054819D02*
X170261905Y-105054819D01*
X171738095Y-104054819D02*
X171261905Y-104054819D01*
X171261905Y-104054819D02*
X171214286Y-104531009D01*
X171214286Y-104531009D02*
X171261905Y-104483390D01*
X171261905Y-104483390D02*
X171357143Y-104435771D01*
X171357143Y-104435771D02*
X171595238Y-104435771D01*
X171595238Y-104435771D02*
X171690476Y-104483390D01*
X171690476Y-104483390D02*
X171738095Y-104531009D01*
X171738095Y-104531009D02*
X171785714Y-104626247D01*
X171785714Y-104626247D02*
X171785714Y-104864342D01*
X171785714Y-104864342D02*
X171738095Y-104959580D01*
X171738095Y-104959580D02*
X171690476Y-105007200D01*
X171690476Y-105007200D02*
X171595238Y-105054819D01*
X171595238Y-105054819D02*
X171357143Y-105054819D01*
X171357143Y-105054819D02*
X171261905Y-105007200D01*
X171261905Y-105007200D02*
X171214286Y-104959580D01*
X137880952Y-132954819D02*
X137880952Y-133764342D01*
X137880952Y-133764342D02*
X137928571Y-133859580D01*
X137928571Y-133859580D02*
X137976190Y-133907200D01*
X137976190Y-133907200D02*
X138071428Y-133954819D01*
X138071428Y-133954819D02*
X138261904Y-133954819D01*
X138261904Y-133954819D02*
X138357142Y-133907200D01*
X138357142Y-133907200D02*
X138404761Y-133859580D01*
X138404761Y-133859580D02*
X138452380Y-133764342D01*
X138452380Y-133764342D02*
X138452380Y-132954819D01*
X138690476Y-134050057D02*
X139452380Y-134050057D01*
X140261904Y-133954819D02*
X139928571Y-133478628D01*
X139690476Y-133954819D02*
X139690476Y-132954819D01*
X139690476Y-132954819D02*
X140071428Y-132954819D01*
X140071428Y-132954819D02*
X140166666Y-133002438D01*
X140166666Y-133002438D02*
X140214285Y-133050057D01*
X140214285Y-133050057D02*
X140261904Y-133145295D01*
X140261904Y-133145295D02*
X140261904Y-133288152D01*
X140261904Y-133288152D02*
X140214285Y-133383390D01*
X140214285Y-133383390D02*
X140166666Y-133431009D01*
X140166666Y-133431009D02*
X140071428Y-133478628D01*
X140071428Y-133478628D02*
X139690476Y-133478628D01*
X140690476Y-133431009D02*
X141023809Y-133431009D01*
X141166666Y-133954819D02*
X140690476Y-133954819D01*
X140690476Y-133954819D02*
X140690476Y-132954819D01*
X140690476Y-132954819D02*
X141166666Y-132954819D01*
X142119047Y-133002438D02*
X142023809Y-132954819D01*
X142023809Y-132954819D02*
X141880952Y-132954819D01*
X141880952Y-132954819D02*
X141738095Y-133002438D01*
X141738095Y-133002438D02*
X141642857Y-133097676D01*
X141642857Y-133097676D02*
X141595238Y-133192914D01*
X141595238Y-133192914D02*
X141547619Y-133383390D01*
X141547619Y-133383390D02*
X141547619Y-133526247D01*
X141547619Y-133526247D02*
X141595238Y-133716723D01*
X141595238Y-133716723D02*
X141642857Y-133811961D01*
X141642857Y-133811961D02*
X141738095Y-133907200D01*
X141738095Y-133907200D02*
X141880952Y-133954819D01*
X141880952Y-133954819D02*
X141976190Y-133954819D01*
X141976190Y-133954819D02*
X142119047Y-133907200D01*
X142119047Y-133907200D02*
X142166666Y-133859580D01*
X142166666Y-133859580D02*
X142166666Y-133526247D01*
X142166666Y-133526247D02*
X141976190Y-133526247D01*
X179833333Y-97284819D02*
X179500000Y-96808628D01*
X179261905Y-97284819D02*
X179261905Y-96284819D01*
X179261905Y-96284819D02*
X179642857Y-96284819D01*
X179642857Y-96284819D02*
X179738095Y-96332438D01*
X179738095Y-96332438D02*
X179785714Y-96380057D01*
X179785714Y-96380057D02*
X179833333Y-96475295D01*
X179833333Y-96475295D02*
X179833333Y-96618152D01*
X179833333Y-96618152D02*
X179785714Y-96713390D01*
X179785714Y-96713390D02*
X179738095Y-96761009D01*
X179738095Y-96761009D02*
X179642857Y-96808628D01*
X179642857Y-96808628D02*
X179261905Y-96808628D01*
X180785714Y-97284819D02*
X180214286Y-97284819D01*
X180500000Y-97284819D02*
X180500000Y-96284819D01*
X180500000Y-96284819D02*
X180404762Y-96427676D01*
X180404762Y-96427676D02*
X180309524Y-96522914D01*
X180309524Y-96522914D02*
X180214286Y-96570533D01*
X188833333Y-97284819D02*
X188500000Y-96808628D01*
X188261905Y-97284819D02*
X188261905Y-96284819D01*
X188261905Y-96284819D02*
X188642857Y-96284819D01*
X188642857Y-96284819D02*
X188738095Y-96332438D01*
X188738095Y-96332438D02*
X188785714Y-96380057D01*
X188785714Y-96380057D02*
X188833333Y-96475295D01*
X188833333Y-96475295D02*
X188833333Y-96618152D01*
X188833333Y-96618152D02*
X188785714Y-96713390D01*
X188785714Y-96713390D02*
X188738095Y-96761009D01*
X188738095Y-96761009D02*
X188642857Y-96808628D01*
X188642857Y-96808628D02*
X188261905Y-96808628D01*
X189690476Y-96618152D02*
X189690476Y-97284819D01*
X189452381Y-96237200D02*
X189214286Y-96951485D01*
X189214286Y-96951485D02*
X189833333Y-96951485D01*
X162404762Y-110104819D02*
X162404762Y-110914342D01*
X162404762Y-110914342D02*
X162452381Y-111009580D01*
X162452381Y-111009580D02*
X162500000Y-111057200D01*
X162500000Y-111057200D02*
X162595238Y-111104819D01*
X162595238Y-111104819D02*
X162785714Y-111104819D01*
X162785714Y-111104819D02*
X162880952Y-111057200D01*
X162880952Y-111057200D02*
X162928571Y-111009580D01*
X162928571Y-111009580D02*
X162976190Y-110914342D01*
X162976190Y-110914342D02*
X162976190Y-110104819D01*
X163214286Y-111200057D02*
X163976190Y-111200057D01*
X164547619Y-110581009D02*
X164690476Y-110628628D01*
X164690476Y-110628628D02*
X164738095Y-110676247D01*
X164738095Y-110676247D02*
X164785714Y-110771485D01*
X164785714Y-110771485D02*
X164785714Y-110914342D01*
X164785714Y-110914342D02*
X164738095Y-111009580D01*
X164738095Y-111009580D02*
X164690476Y-111057200D01*
X164690476Y-111057200D02*
X164595238Y-111104819D01*
X164595238Y-111104819D02*
X164214286Y-111104819D01*
X164214286Y-111104819D02*
X164214286Y-110104819D01*
X164214286Y-110104819D02*
X164547619Y-110104819D01*
X164547619Y-110104819D02*
X164642857Y-110152438D01*
X164642857Y-110152438D02*
X164690476Y-110200057D01*
X164690476Y-110200057D02*
X164738095Y-110295295D01*
X164738095Y-110295295D02*
X164738095Y-110390533D01*
X164738095Y-110390533D02*
X164690476Y-110485771D01*
X164690476Y-110485771D02*
X164642857Y-110533390D01*
X164642857Y-110533390D02*
X164547619Y-110581009D01*
X164547619Y-110581009D02*
X164214286Y-110581009D01*
X165214286Y-110104819D02*
X165214286Y-110914342D01*
X165214286Y-110914342D02*
X165261905Y-111009580D01*
X165261905Y-111009580D02*
X165309524Y-111057200D01*
X165309524Y-111057200D02*
X165404762Y-111104819D01*
X165404762Y-111104819D02*
X165595238Y-111104819D01*
X165595238Y-111104819D02*
X165690476Y-111057200D01*
X165690476Y-111057200D02*
X165738095Y-111009580D01*
X165738095Y-111009580D02*
X165785714Y-110914342D01*
X165785714Y-110914342D02*
X165785714Y-110104819D01*
X166595238Y-110581009D02*
X166261905Y-110581009D01*
X166261905Y-111104819D02*
X166261905Y-110104819D01*
X166261905Y-110104819D02*
X166738095Y-110104819D01*
X167071429Y-110200057D02*
X167119048Y-110152438D01*
X167119048Y-110152438D02*
X167214286Y-110104819D01*
X167214286Y-110104819D02*
X167452381Y-110104819D01*
X167452381Y-110104819D02*
X167547619Y-110152438D01*
X167547619Y-110152438D02*
X167595238Y-110200057D01*
X167595238Y-110200057D02*
X167642857Y-110295295D01*
X167642857Y-110295295D02*
X167642857Y-110390533D01*
X167642857Y-110390533D02*
X167595238Y-110533390D01*
X167595238Y-110533390D02*
X167023810Y-111104819D01*
X167023810Y-111104819D02*
X167642857Y-111104819D01*
X179833333Y-79199580D02*
X179785714Y-79247200D01*
X179785714Y-79247200D02*
X179642857Y-79294819D01*
X179642857Y-79294819D02*
X179547619Y-79294819D01*
X179547619Y-79294819D02*
X179404762Y-79247200D01*
X179404762Y-79247200D02*
X179309524Y-79151961D01*
X179309524Y-79151961D02*
X179261905Y-79056723D01*
X179261905Y-79056723D02*
X179214286Y-78866247D01*
X179214286Y-78866247D02*
X179214286Y-78723390D01*
X179214286Y-78723390D02*
X179261905Y-78532914D01*
X179261905Y-78532914D02*
X179309524Y-78437676D01*
X179309524Y-78437676D02*
X179404762Y-78342438D01*
X179404762Y-78342438D02*
X179547619Y-78294819D01*
X179547619Y-78294819D02*
X179642857Y-78294819D01*
X179642857Y-78294819D02*
X179785714Y-78342438D01*
X179785714Y-78342438D02*
X179833333Y-78390057D01*
X180738095Y-78294819D02*
X180261905Y-78294819D01*
X180261905Y-78294819D02*
X180214286Y-78771009D01*
X180214286Y-78771009D02*
X180261905Y-78723390D01*
X180261905Y-78723390D02*
X180357143Y-78675771D01*
X180357143Y-78675771D02*
X180595238Y-78675771D01*
X180595238Y-78675771D02*
X180690476Y-78723390D01*
X180690476Y-78723390D02*
X180738095Y-78771009D01*
X180738095Y-78771009D02*
X180785714Y-78866247D01*
X180785714Y-78866247D02*
X180785714Y-79104342D01*
X180785714Y-79104342D02*
X180738095Y-79199580D01*
X180738095Y-79199580D02*
X180690476Y-79247200D01*
X180690476Y-79247200D02*
X180595238Y-79294819D01*
X180595238Y-79294819D02*
X180357143Y-79294819D01*
X180357143Y-79294819D02*
X180261905Y-79247200D01*
X180261905Y-79247200D02*
X180214286Y-79199580D01*
X159357142Y-89199580D02*
X159309523Y-89247200D01*
X159309523Y-89247200D02*
X159166666Y-89294819D01*
X159166666Y-89294819D02*
X159071428Y-89294819D01*
X159071428Y-89294819D02*
X158928571Y-89247200D01*
X158928571Y-89247200D02*
X158833333Y-89151961D01*
X158833333Y-89151961D02*
X158785714Y-89056723D01*
X158785714Y-89056723D02*
X158738095Y-88866247D01*
X158738095Y-88866247D02*
X158738095Y-88723390D01*
X158738095Y-88723390D02*
X158785714Y-88532914D01*
X158785714Y-88532914D02*
X158833333Y-88437676D01*
X158833333Y-88437676D02*
X158928571Y-88342438D01*
X158928571Y-88342438D02*
X159071428Y-88294819D01*
X159071428Y-88294819D02*
X159166666Y-88294819D01*
X159166666Y-88294819D02*
X159309523Y-88342438D01*
X159309523Y-88342438D02*
X159357142Y-88390057D01*
X160309523Y-89294819D02*
X159738095Y-89294819D01*
X160023809Y-89294819D02*
X160023809Y-88294819D01*
X160023809Y-88294819D02*
X159928571Y-88437676D01*
X159928571Y-88437676D02*
X159833333Y-88532914D01*
X159833333Y-88532914D02*
X159738095Y-88580533D01*
X161261904Y-89294819D02*
X160690476Y-89294819D01*
X160976190Y-89294819D02*
X160976190Y-88294819D01*
X160976190Y-88294819D02*
X160880952Y-88437676D01*
X160880952Y-88437676D02*
X160785714Y-88532914D01*
X160785714Y-88532914D02*
X160690476Y-88580533D01*
X170261905Y-100054819D02*
X170261905Y-99054819D01*
X170261905Y-99054819D02*
X170500000Y-99054819D01*
X170500000Y-99054819D02*
X170642857Y-99102438D01*
X170642857Y-99102438D02*
X170738095Y-99197676D01*
X170738095Y-99197676D02*
X170785714Y-99292914D01*
X170785714Y-99292914D02*
X170833333Y-99483390D01*
X170833333Y-99483390D02*
X170833333Y-99626247D01*
X170833333Y-99626247D02*
X170785714Y-99816723D01*
X170785714Y-99816723D02*
X170738095Y-99911961D01*
X170738095Y-99911961D02*
X170642857Y-100007200D01*
X170642857Y-100007200D02*
X170500000Y-100054819D01*
X170500000Y-100054819D02*
X170261905Y-100054819D01*
X171214286Y-99150057D02*
X171261905Y-99102438D01*
X171261905Y-99102438D02*
X171357143Y-99054819D01*
X171357143Y-99054819D02*
X171595238Y-99054819D01*
X171595238Y-99054819D02*
X171690476Y-99102438D01*
X171690476Y-99102438D02*
X171738095Y-99150057D01*
X171738095Y-99150057D02*
X171785714Y-99245295D01*
X171785714Y-99245295D02*
X171785714Y-99340533D01*
X171785714Y-99340533D02*
X171738095Y-99483390D01*
X171738095Y-99483390D02*
X171166667Y-100054819D01*
X171166667Y-100054819D02*
X171785714Y-100054819D01*
X174833333Y-84199580D02*
X174785714Y-84247200D01*
X174785714Y-84247200D02*
X174642857Y-84294819D01*
X174642857Y-84294819D02*
X174547619Y-84294819D01*
X174547619Y-84294819D02*
X174404762Y-84247200D01*
X174404762Y-84247200D02*
X174309524Y-84151961D01*
X174309524Y-84151961D02*
X174261905Y-84056723D01*
X174261905Y-84056723D02*
X174214286Y-83866247D01*
X174214286Y-83866247D02*
X174214286Y-83723390D01*
X174214286Y-83723390D02*
X174261905Y-83532914D01*
X174261905Y-83532914D02*
X174309524Y-83437676D01*
X174309524Y-83437676D02*
X174404762Y-83342438D01*
X174404762Y-83342438D02*
X174547619Y-83294819D01*
X174547619Y-83294819D02*
X174642857Y-83294819D01*
X174642857Y-83294819D02*
X174785714Y-83342438D01*
X174785714Y-83342438D02*
X174833333Y-83390057D01*
X175309524Y-84294819D02*
X175500000Y-84294819D01*
X175500000Y-84294819D02*
X175595238Y-84247200D01*
X175595238Y-84247200D02*
X175642857Y-84199580D01*
X175642857Y-84199580D02*
X175738095Y-84056723D01*
X175738095Y-84056723D02*
X175785714Y-83866247D01*
X175785714Y-83866247D02*
X175785714Y-83485295D01*
X175785714Y-83485295D02*
X175738095Y-83390057D01*
X175738095Y-83390057D02*
X175690476Y-83342438D01*
X175690476Y-83342438D02*
X175595238Y-83294819D01*
X175595238Y-83294819D02*
X175404762Y-83294819D01*
X175404762Y-83294819D02*
X175309524Y-83342438D01*
X175309524Y-83342438D02*
X175261905Y-83390057D01*
X175261905Y-83390057D02*
X175214286Y-83485295D01*
X175214286Y-83485295D02*
X175214286Y-83723390D01*
X175214286Y-83723390D02*
X175261905Y-83818628D01*
X175261905Y-83818628D02*
X175309524Y-83866247D01*
X175309524Y-83866247D02*
X175404762Y-83913866D01*
X175404762Y-83913866D02*
X175595238Y-83913866D01*
X175595238Y-83913866D02*
X175690476Y-83866247D01*
X175690476Y-83866247D02*
X175738095Y-83818628D01*
X175738095Y-83818628D02*
X175785714Y-83723390D01*
X101357142Y-141199580D02*
X101309523Y-141247200D01*
X101309523Y-141247200D02*
X101166666Y-141294819D01*
X101166666Y-141294819D02*
X101071428Y-141294819D01*
X101071428Y-141294819D02*
X100928571Y-141247200D01*
X100928571Y-141247200D02*
X100833333Y-141151961D01*
X100833333Y-141151961D02*
X100785714Y-141056723D01*
X100785714Y-141056723D02*
X100738095Y-140866247D01*
X100738095Y-140866247D02*
X100738095Y-140723390D01*
X100738095Y-140723390D02*
X100785714Y-140532914D01*
X100785714Y-140532914D02*
X100833333Y-140437676D01*
X100833333Y-140437676D02*
X100928571Y-140342438D01*
X100928571Y-140342438D02*
X101071428Y-140294819D01*
X101071428Y-140294819D02*
X101166666Y-140294819D01*
X101166666Y-140294819D02*
X101309523Y-140342438D01*
X101309523Y-140342438D02*
X101357142Y-140390057D01*
X102309523Y-141294819D02*
X101738095Y-141294819D01*
X102023809Y-141294819D02*
X102023809Y-140294819D01*
X102023809Y-140294819D02*
X101928571Y-140437676D01*
X101928571Y-140437676D02*
X101833333Y-140532914D01*
X101833333Y-140532914D02*
X101738095Y-140580533D01*
X102880952Y-140723390D02*
X102785714Y-140675771D01*
X102785714Y-140675771D02*
X102738095Y-140628152D01*
X102738095Y-140628152D02*
X102690476Y-140532914D01*
X102690476Y-140532914D02*
X102690476Y-140485295D01*
X102690476Y-140485295D02*
X102738095Y-140390057D01*
X102738095Y-140390057D02*
X102785714Y-140342438D01*
X102785714Y-140342438D02*
X102880952Y-140294819D01*
X102880952Y-140294819D02*
X103071428Y-140294819D01*
X103071428Y-140294819D02*
X103166666Y-140342438D01*
X103166666Y-140342438D02*
X103214285Y-140390057D01*
X103214285Y-140390057D02*
X103261904Y-140485295D01*
X103261904Y-140485295D02*
X103261904Y-140532914D01*
X103261904Y-140532914D02*
X103214285Y-140628152D01*
X103214285Y-140628152D02*
X103166666Y-140675771D01*
X103166666Y-140675771D02*
X103071428Y-140723390D01*
X103071428Y-140723390D02*
X102880952Y-140723390D01*
X102880952Y-140723390D02*
X102785714Y-140771009D01*
X102785714Y-140771009D02*
X102738095Y-140818628D01*
X102738095Y-140818628D02*
X102690476Y-140913866D01*
X102690476Y-140913866D02*
X102690476Y-141104342D01*
X102690476Y-141104342D02*
X102738095Y-141199580D01*
X102738095Y-141199580D02*
X102785714Y-141247200D01*
X102785714Y-141247200D02*
X102880952Y-141294819D01*
X102880952Y-141294819D02*
X103071428Y-141294819D01*
X103071428Y-141294819D02*
X103166666Y-141247200D01*
X103166666Y-141247200D02*
X103214285Y-141199580D01*
X103214285Y-141199580D02*
X103261904Y-141104342D01*
X103261904Y-141104342D02*
X103261904Y-140913866D01*
X103261904Y-140913866D02*
X103214285Y-140818628D01*
X103214285Y-140818628D02*
X103166666Y-140771009D01*
X103166666Y-140771009D02*
X103071428Y-140723390D01*
X167357142Y-93679580D02*
X167309523Y-93727200D01*
X167309523Y-93727200D02*
X167166666Y-93774819D01*
X167166666Y-93774819D02*
X167071428Y-93774819D01*
X167071428Y-93774819D02*
X166928571Y-93727200D01*
X166928571Y-93727200D02*
X166833333Y-93631961D01*
X166833333Y-93631961D02*
X166785714Y-93536723D01*
X166785714Y-93536723D02*
X166738095Y-93346247D01*
X166738095Y-93346247D02*
X166738095Y-93203390D01*
X166738095Y-93203390D02*
X166785714Y-93012914D01*
X166785714Y-93012914D02*
X166833333Y-92917676D01*
X166833333Y-92917676D02*
X166928571Y-92822438D01*
X166928571Y-92822438D02*
X167071428Y-92774819D01*
X167071428Y-92774819D02*
X167166666Y-92774819D01*
X167166666Y-92774819D02*
X167309523Y-92822438D01*
X167309523Y-92822438D02*
X167357142Y-92870057D01*
X168309523Y-93774819D02*
X167738095Y-93774819D01*
X168023809Y-93774819D02*
X168023809Y-92774819D01*
X168023809Y-92774819D02*
X167928571Y-92917676D01*
X167928571Y-92917676D02*
X167833333Y-93012914D01*
X167833333Y-93012914D02*
X167738095Y-93060533D01*
X169214285Y-92774819D02*
X168738095Y-92774819D01*
X168738095Y-92774819D02*
X168690476Y-93251009D01*
X168690476Y-93251009D02*
X168738095Y-93203390D01*
X168738095Y-93203390D02*
X168833333Y-93155771D01*
X168833333Y-93155771D02*
X169071428Y-93155771D01*
X169071428Y-93155771D02*
X169166666Y-93203390D01*
X169166666Y-93203390D02*
X169214285Y-93251009D01*
X169214285Y-93251009D02*
X169261904Y-93346247D01*
X169261904Y-93346247D02*
X169261904Y-93584342D01*
X169261904Y-93584342D02*
X169214285Y-93679580D01*
X169214285Y-93679580D02*
X169166666Y-93727200D01*
X169166666Y-93727200D02*
X169071428Y-93774819D01*
X169071428Y-93774819D02*
X168833333Y-93774819D01*
X168833333Y-93774819D02*
X168738095Y-93727200D01*
X168738095Y-93727200D02*
X168690476Y-93679580D01*
X77238095Y-92504819D02*
X77238095Y-93314342D01*
X77238095Y-93314342D02*
X77285714Y-93409580D01*
X77285714Y-93409580D02*
X77333333Y-93457200D01*
X77333333Y-93457200D02*
X77428571Y-93504819D01*
X77428571Y-93504819D02*
X77619047Y-93504819D01*
X77619047Y-93504819D02*
X77714285Y-93457200D01*
X77714285Y-93457200D02*
X77761904Y-93409580D01*
X77761904Y-93409580D02*
X77809523Y-93314342D01*
X77809523Y-93314342D02*
X77809523Y-92504819D01*
X78047619Y-93600057D02*
X78809523Y-93600057D01*
X79047619Y-93504819D02*
X79047619Y-92504819D01*
X79047619Y-92504819D02*
X79428571Y-92504819D01*
X79428571Y-92504819D02*
X79523809Y-92552438D01*
X79523809Y-92552438D02*
X79571428Y-92600057D01*
X79571428Y-92600057D02*
X79619047Y-92695295D01*
X79619047Y-92695295D02*
X79619047Y-92838152D01*
X79619047Y-92838152D02*
X79571428Y-92933390D01*
X79571428Y-92933390D02*
X79523809Y-92981009D01*
X79523809Y-92981009D02*
X79428571Y-93028628D01*
X79428571Y-93028628D02*
X79047619Y-93028628D01*
X80619047Y-93504819D02*
X80285714Y-93028628D01*
X80047619Y-93504819D02*
X80047619Y-92504819D01*
X80047619Y-92504819D02*
X80428571Y-92504819D01*
X80428571Y-92504819D02*
X80523809Y-92552438D01*
X80523809Y-92552438D02*
X80571428Y-92600057D01*
X80571428Y-92600057D02*
X80619047Y-92695295D01*
X80619047Y-92695295D02*
X80619047Y-92838152D01*
X80619047Y-92838152D02*
X80571428Y-92933390D01*
X80571428Y-92933390D02*
X80523809Y-92981009D01*
X80523809Y-92981009D02*
X80428571Y-93028628D01*
X80428571Y-93028628D02*
X80047619Y-93028628D01*
X81238095Y-92504819D02*
X81428571Y-92504819D01*
X81428571Y-92504819D02*
X81523809Y-92552438D01*
X81523809Y-92552438D02*
X81619047Y-92647676D01*
X81619047Y-92647676D02*
X81666666Y-92838152D01*
X81666666Y-92838152D02*
X81666666Y-93171485D01*
X81666666Y-93171485D02*
X81619047Y-93361961D01*
X81619047Y-93361961D02*
X81523809Y-93457200D01*
X81523809Y-93457200D02*
X81428571Y-93504819D01*
X81428571Y-93504819D02*
X81238095Y-93504819D01*
X81238095Y-93504819D02*
X81142857Y-93457200D01*
X81142857Y-93457200D02*
X81047619Y-93361961D01*
X81047619Y-93361961D02*
X81000000Y-93171485D01*
X81000000Y-93171485D02*
X81000000Y-92838152D01*
X81000000Y-92838152D02*
X81047619Y-92647676D01*
X81047619Y-92647676D02*
X81142857Y-92552438D01*
X81142857Y-92552438D02*
X81238095Y-92504819D01*
X82095238Y-93504819D02*
X82095238Y-92504819D01*
X82095238Y-92504819D02*
X82428571Y-93219104D01*
X82428571Y-93219104D02*
X82761904Y-92504819D01*
X82761904Y-92504819D02*
X82761904Y-93504819D01*
X176261905Y-100054819D02*
X176261905Y-99054819D01*
X176261905Y-99054819D02*
X176500000Y-99054819D01*
X176500000Y-99054819D02*
X176642857Y-99102438D01*
X176642857Y-99102438D02*
X176738095Y-99197676D01*
X176738095Y-99197676D02*
X176785714Y-99292914D01*
X176785714Y-99292914D02*
X176833333Y-99483390D01*
X176833333Y-99483390D02*
X176833333Y-99626247D01*
X176833333Y-99626247D02*
X176785714Y-99816723D01*
X176785714Y-99816723D02*
X176738095Y-99911961D01*
X176738095Y-99911961D02*
X176642857Y-100007200D01*
X176642857Y-100007200D02*
X176500000Y-100054819D01*
X176500000Y-100054819D02*
X176261905Y-100054819D01*
X177166667Y-99054819D02*
X177785714Y-99054819D01*
X177785714Y-99054819D02*
X177452381Y-99435771D01*
X177452381Y-99435771D02*
X177595238Y-99435771D01*
X177595238Y-99435771D02*
X177690476Y-99483390D01*
X177690476Y-99483390D02*
X177738095Y-99531009D01*
X177738095Y-99531009D02*
X177785714Y-99626247D01*
X177785714Y-99626247D02*
X177785714Y-99864342D01*
X177785714Y-99864342D02*
X177738095Y-99959580D01*
X177738095Y-99959580D02*
X177690476Y-100007200D01*
X177690476Y-100007200D02*
X177595238Y-100054819D01*
X177595238Y-100054819D02*
X177309524Y-100054819D01*
X177309524Y-100054819D02*
X177214286Y-100007200D01*
X177214286Y-100007200D02*
X177166667Y-99959580D01*
X107880952Y-111554819D02*
X107880952Y-112364342D01*
X107880952Y-112364342D02*
X107928571Y-112459580D01*
X107928571Y-112459580D02*
X107976190Y-112507200D01*
X107976190Y-112507200D02*
X108071428Y-112554819D01*
X108071428Y-112554819D02*
X108261904Y-112554819D01*
X108261904Y-112554819D02*
X108357142Y-112507200D01*
X108357142Y-112507200D02*
X108404761Y-112459580D01*
X108404761Y-112459580D02*
X108452380Y-112364342D01*
X108452380Y-112364342D02*
X108452380Y-111554819D01*
X108690476Y-112650057D02*
X109452380Y-112650057D01*
X109642857Y-112507200D02*
X109785714Y-112554819D01*
X109785714Y-112554819D02*
X110023809Y-112554819D01*
X110023809Y-112554819D02*
X110119047Y-112507200D01*
X110119047Y-112507200D02*
X110166666Y-112459580D01*
X110166666Y-112459580D02*
X110214285Y-112364342D01*
X110214285Y-112364342D02*
X110214285Y-112269104D01*
X110214285Y-112269104D02*
X110166666Y-112173866D01*
X110166666Y-112173866D02*
X110119047Y-112126247D01*
X110119047Y-112126247D02*
X110023809Y-112078628D01*
X110023809Y-112078628D02*
X109833333Y-112031009D01*
X109833333Y-112031009D02*
X109738095Y-111983390D01*
X109738095Y-111983390D02*
X109690476Y-111935771D01*
X109690476Y-111935771D02*
X109642857Y-111840533D01*
X109642857Y-111840533D02*
X109642857Y-111745295D01*
X109642857Y-111745295D02*
X109690476Y-111650057D01*
X109690476Y-111650057D02*
X109738095Y-111602438D01*
X109738095Y-111602438D02*
X109833333Y-111554819D01*
X109833333Y-111554819D02*
X110071428Y-111554819D01*
X110071428Y-111554819D02*
X110214285Y-111602438D01*
X111214285Y-112554819D02*
X110880952Y-112078628D01*
X110642857Y-112554819D02*
X110642857Y-111554819D01*
X110642857Y-111554819D02*
X111023809Y-111554819D01*
X111023809Y-111554819D02*
X111119047Y-111602438D01*
X111119047Y-111602438D02*
X111166666Y-111650057D01*
X111166666Y-111650057D02*
X111214285Y-111745295D01*
X111214285Y-111745295D02*
X111214285Y-111888152D01*
X111214285Y-111888152D02*
X111166666Y-111983390D01*
X111166666Y-111983390D02*
X111119047Y-112031009D01*
X111119047Y-112031009D02*
X111023809Y-112078628D01*
X111023809Y-112078628D02*
X110642857Y-112078628D01*
X111547619Y-111554819D02*
X112166666Y-111554819D01*
X112166666Y-111554819D02*
X111833333Y-111935771D01*
X111833333Y-111935771D02*
X111976190Y-111935771D01*
X111976190Y-111935771D02*
X112071428Y-111983390D01*
X112071428Y-111983390D02*
X112119047Y-112031009D01*
X112119047Y-112031009D02*
X112166666Y-112126247D01*
X112166666Y-112126247D02*
X112166666Y-112364342D01*
X112166666Y-112364342D02*
X112119047Y-112459580D01*
X112119047Y-112459580D02*
X112071428Y-112507200D01*
X112071428Y-112507200D02*
X111976190Y-112554819D01*
X111976190Y-112554819D02*
X111690476Y-112554819D01*
X111690476Y-112554819D02*
X111595238Y-112507200D01*
X111595238Y-112507200D02*
X111547619Y-112459580D01*
X179833333Y-101284819D02*
X179500000Y-100808628D01*
X179261905Y-101284819D02*
X179261905Y-100284819D01*
X179261905Y-100284819D02*
X179642857Y-100284819D01*
X179642857Y-100284819D02*
X179738095Y-100332438D01*
X179738095Y-100332438D02*
X179785714Y-100380057D01*
X179785714Y-100380057D02*
X179833333Y-100475295D01*
X179833333Y-100475295D02*
X179833333Y-100618152D01*
X179833333Y-100618152D02*
X179785714Y-100713390D01*
X179785714Y-100713390D02*
X179738095Y-100761009D01*
X179738095Y-100761009D02*
X179642857Y-100808628D01*
X179642857Y-100808628D02*
X179261905Y-100808628D01*
X180690476Y-100284819D02*
X180500000Y-100284819D01*
X180500000Y-100284819D02*
X180404762Y-100332438D01*
X180404762Y-100332438D02*
X180357143Y-100380057D01*
X180357143Y-100380057D02*
X180261905Y-100522914D01*
X180261905Y-100522914D02*
X180214286Y-100713390D01*
X180214286Y-100713390D02*
X180214286Y-101094342D01*
X180214286Y-101094342D02*
X180261905Y-101189580D01*
X180261905Y-101189580D02*
X180309524Y-101237200D01*
X180309524Y-101237200D02*
X180404762Y-101284819D01*
X180404762Y-101284819D02*
X180595238Y-101284819D01*
X180595238Y-101284819D02*
X180690476Y-101237200D01*
X180690476Y-101237200D02*
X180738095Y-101189580D01*
X180738095Y-101189580D02*
X180785714Y-101094342D01*
X180785714Y-101094342D02*
X180785714Y-100856247D01*
X180785714Y-100856247D02*
X180738095Y-100761009D01*
X180738095Y-100761009D02*
X180690476Y-100713390D01*
X180690476Y-100713390D02*
X180595238Y-100665771D01*
X180595238Y-100665771D02*
X180404762Y-100665771D01*
X180404762Y-100665771D02*
X180309524Y-100713390D01*
X180309524Y-100713390D02*
X180261905Y-100761009D01*
X180261905Y-100761009D02*
X180214286Y-100856247D01*
X169833333Y-79199580D02*
X169785714Y-79247200D01*
X169785714Y-79247200D02*
X169642857Y-79294819D01*
X169642857Y-79294819D02*
X169547619Y-79294819D01*
X169547619Y-79294819D02*
X169404762Y-79247200D01*
X169404762Y-79247200D02*
X169309524Y-79151961D01*
X169309524Y-79151961D02*
X169261905Y-79056723D01*
X169261905Y-79056723D02*
X169214286Y-78866247D01*
X169214286Y-78866247D02*
X169214286Y-78723390D01*
X169214286Y-78723390D02*
X169261905Y-78532914D01*
X169261905Y-78532914D02*
X169309524Y-78437676D01*
X169309524Y-78437676D02*
X169404762Y-78342438D01*
X169404762Y-78342438D02*
X169547619Y-78294819D01*
X169547619Y-78294819D02*
X169642857Y-78294819D01*
X169642857Y-78294819D02*
X169785714Y-78342438D01*
X169785714Y-78342438D02*
X169833333Y-78390057D01*
X170166667Y-78294819D02*
X170785714Y-78294819D01*
X170785714Y-78294819D02*
X170452381Y-78675771D01*
X170452381Y-78675771D02*
X170595238Y-78675771D01*
X170595238Y-78675771D02*
X170690476Y-78723390D01*
X170690476Y-78723390D02*
X170738095Y-78771009D01*
X170738095Y-78771009D02*
X170785714Y-78866247D01*
X170785714Y-78866247D02*
X170785714Y-79104342D01*
X170785714Y-79104342D02*
X170738095Y-79199580D01*
X170738095Y-79199580D02*
X170690476Y-79247200D01*
X170690476Y-79247200D02*
X170595238Y-79294819D01*
X170595238Y-79294819D02*
X170309524Y-79294819D01*
X170309524Y-79294819D02*
X170214286Y-79247200D01*
X170214286Y-79247200D02*
X170166667Y-79199580D01*
X164261905Y-100054819D02*
X164261905Y-99054819D01*
X164261905Y-99054819D02*
X164500000Y-99054819D01*
X164500000Y-99054819D02*
X164642857Y-99102438D01*
X164642857Y-99102438D02*
X164738095Y-99197676D01*
X164738095Y-99197676D02*
X164785714Y-99292914D01*
X164785714Y-99292914D02*
X164833333Y-99483390D01*
X164833333Y-99483390D02*
X164833333Y-99626247D01*
X164833333Y-99626247D02*
X164785714Y-99816723D01*
X164785714Y-99816723D02*
X164738095Y-99911961D01*
X164738095Y-99911961D02*
X164642857Y-100007200D01*
X164642857Y-100007200D02*
X164500000Y-100054819D01*
X164500000Y-100054819D02*
X164261905Y-100054819D01*
X165785714Y-100054819D02*
X165214286Y-100054819D01*
X165500000Y-100054819D02*
X165500000Y-99054819D01*
X165500000Y-99054819D02*
X165404762Y-99197676D01*
X165404762Y-99197676D02*
X165309524Y-99292914D01*
X165309524Y-99292914D02*
X165214286Y-99340533D01*
X176261905Y-105054819D02*
X176261905Y-104054819D01*
X176261905Y-104054819D02*
X176500000Y-104054819D01*
X176500000Y-104054819D02*
X176642857Y-104102438D01*
X176642857Y-104102438D02*
X176738095Y-104197676D01*
X176738095Y-104197676D02*
X176785714Y-104292914D01*
X176785714Y-104292914D02*
X176833333Y-104483390D01*
X176833333Y-104483390D02*
X176833333Y-104626247D01*
X176833333Y-104626247D02*
X176785714Y-104816723D01*
X176785714Y-104816723D02*
X176738095Y-104911961D01*
X176738095Y-104911961D02*
X176642857Y-105007200D01*
X176642857Y-105007200D02*
X176500000Y-105054819D01*
X176500000Y-105054819D02*
X176261905Y-105054819D01*
X177690476Y-104054819D02*
X177500000Y-104054819D01*
X177500000Y-104054819D02*
X177404762Y-104102438D01*
X177404762Y-104102438D02*
X177357143Y-104150057D01*
X177357143Y-104150057D02*
X177261905Y-104292914D01*
X177261905Y-104292914D02*
X177214286Y-104483390D01*
X177214286Y-104483390D02*
X177214286Y-104864342D01*
X177214286Y-104864342D02*
X177261905Y-104959580D01*
X177261905Y-104959580D02*
X177309524Y-105007200D01*
X177309524Y-105007200D02*
X177404762Y-105054819D01*
X177404762Y-105054819D02*
X177595238Y-105054819D01*
X177595238Y-105054819D02*
X177690476Y-105007200D01*
X177690476Y-105007200D02*
X177738095Y-104959580D01*
X177738095Y-104959580D02*
X177785714Y-104864342D01*
X177785714Y-104864342D02*
X177785714Y-104626247D01*
X177785714Y-104626247D02*
X177738095Y-104531009D01*
X177738095Y-104531009D02*
X177690476Y-104483390D01*
X177690476Y-104483390D02*
X177595238Y-104435771D01*
X177595238Y-104435771D02*
X177404762Y-104435771D01*
X177404762Y-104435771D02*
X177309524Y-104483390D01*
X177309524Y-104483390D02*
X177261905Y-104531009D01*
X177261905Y-104531009D02*
X177214286Y-104626247D01*
X169833333Y-84199580D02*
X169785714Y-84247200D01*
X169785714Y-84247200D02*
X169642857Y-84294819D01*
X169642857Y-84294819D02*
X169547619Y-84294819D01*
X169547619Y-84294819D02*
X169404762Y-84247200D01*
X169404762Y-84247200D02*
X169309524Y-84151961D01*
X169309524Y-84151961D02*
X169261905Y-84056723D01*
X169261905Y-84056723D02*
X169214286Y-83866247D01*
X169214286Y-83866247D02*
X169214286Y-83723390D01*
X169214286Y-83723390D02*
X169261905Y-83532914D01*
X169261905Y-83532914D02*
X169309524Y-83437676D01*
X169309524Y-83437676D02*
X169404762Y-83342438D01*
X169404762Y-83342438D02*
X169547619Y-83294819D01*
X169547619Y-83294819D02*
X169642857Y-83294819D01*
X169642857Y-83294819D02*
X169785714Y-83342438D01*
X169785714Y-83342438D02*
X169833333Y-83390057D01*
X170404762Y-83723390D02*
X170309524Y-83675771D01*
X170309524Y-83675771D02*
X170261905Y-83628152D01*
X170261905Y-83628152D02*
X170214286Y-83532914D01*
X170214286Y-83532914D02*
X170214286Y-83485295D01*
X170214286Y-83485295D02*
X170261905Y-83390057D01*
X170261905Y-83390057D02*
X170309524Y-83342438D01*
X170309524Y-83342438D02*
X170404762Y-83294819D01*
X170404762Y-83294819D02*
X170595238Y-83294819D01*
X170595238Y-83294819D02*
X170690476Y-83342438D01*
X170690476Y-83342438D02*
X170738095Y-83390057D01*
X170738095Y-83390057D02*
X170785714Y-83485295D01*
X170785714Y-83485295D02*
X170785714Y-83532914D01*
X170785714Y-83532914D02*
X170738095Y-83628152D01*
X170738095Y-83628152D02*
X170690476Y-83675771D01*
X170690476Y-83675771D02*
X170595238Y-83723390D01*
X170595238Y-83723390D02*
X170404762Y-83723390D01*
X170404762Y-83723390D02*
X170309524Y-83771009D01*
X170309524Y-83771009D02*
X170261905Y-83818628D01*
X170261905Y-83818628D02*
X170214286Y-83913866D01*
X170214286Y-83913866D02*
X170214286Y-84104342D01*
X170214286Y-84104342D02*
X170261905Y-84199580D01*
X170261905Y-84199580D02*
X170309524Y-84247200D01*
X170309524Y-84247200D02*
X170404762Y-84294819D01*
X170404762Y-84294819D02*
X170595238Y-84294819D01*
X170595238Y-84294819D02*
X170690476Y-84247200D01*
X170690476Y-84247200D02*
X170738095Y-84199580D01*
X170738095Y-84199580D02*
X170785714Y-84104342D01*
X170785714Y-84104342D02*
X170785714Y-83913866D01*
X170785714Y-83913866D02*
X170738095Y-83818628D01*
X170738095Y-83818628D02*
X170690476Y-83771009D01*
X170690476Y-83771009D02*
X170595238Y-83723390D01*
X112071428Y-134054819D02*
X112071428Y-134864342D01*
X112071428Y-134864342D02*
X112119047Y-134959580D01*
X112119047Y-134959580D02*
X112166666Y-135007200D01*
X112166666Y-135007200D02*
X112261904Y-135054819D01*
X112261904Y-135054819D02*
X112452380Y-135054819D01*
X112452380Y-135054819D02*
X112547618Y-135007200D01*
X112547618Y-135007200D02*
X112595237Y-134959580D01*
X112595237Y-134959580D02*
X112642856Y-134864342D01*
X112642856Y-134864342D02*
X112642856Y-134054819D01*
X112880952Y-135150057D02*
X113642856Y-135150057D01*
X114214285Y-134531009D02*
X113880952Y-134531009D01*
X113880952Y-135054819D02*
X113880952Y-134054819D01*
X113880952Y-134054819D02*
X114357142Y-134054819D01*
X115214285Y-135054819D02*
X114738095Y-135054819D01*
X114738095Y-135054819D02*
X114738095Y-134054819D01*
X115500000Y-134769104D02*
X115976190Y-134769104D01*
X115404762Y-135054819D02*
X115738095Y-134054819D01*
X115738095Y-134054819D02*
X116071428Y-135054819D01*
X116357143Y-135007200D02*
X116500000Y-135054819D01*
X116500000Y-135054819D02*
X116738095Y-135054819D01*
X116738095Y-135054819D02*
X116833333Y-135007200D01*
X116833333Y-135007200D02*
X116880952Y-134959580D01*
X116880952Y-134959580D02*
X116928571Y-134864342D01*
X116928571Y-134864342D02*
X116928571Y-134769104D01*
X116928571Y-134769104D02*
X116880952Y-134673866D01*
X116880952Y-134673866D02*
X116833333Y-134626247D01*
X116833333Y-134626247D02*
X116738095Y-134578628D01*
X116738095Y-134578628D02*
X116547619Y-134531009D01*
X116547619Y-134531009D02*
X116452381Y-134483390D01*
X116452381Y-134483390D02*
X116404762Y-134435771D01*
X116404762Y-134435771D02*
X116357143Y-134340533D01*
X116357143Y-134340533D02*
X116357143Y-134245295D01*
X116357143Y-134245295D02*
X116404762Y-134150057D01*
X116404762Y-134150057D02*
X116452381Y-134102438D01*
X116452381Y-134102438D02*
X116547619Y-134054819D01*
X116547619Y-134054819D02*
X116785714Y-134054819D01*
X116785714Y-134054819D02*
X116928571Y-134102438D01*
X117357143Y-135054819D02*
X117357143Y-134054819D01*
X117357143Y-134531009D02*
X117928571Y-134531009D01*
X117928571Y-135054819D02*
X117928571Y-134054819D01*
X182833333Y-101284819D02*
X182500000Y-100808628D01*
X182261905Y-101284819D02*
X182261905Y-100284819D01*
X182261905Y-100284819D02*
X182642857Y-100284819D01*
X182642857Y-100284819D02*
X182738095Y-100332438D01*
X182738095Y-100332438D02*
X182785714Y-100380057D01*
X182785714Y-100380057D02*
X182833333Y-100475295D01*
X182833333Y-100475295D02*
X182833333Y-100618152D01*
X182833333Y-100618152D02*
X182785714Y-100713390D01*
X182785714Y-100713390D02*
X182738095Y-100761009D01*
X182738095Y-100761009D02*
X182642857Y-100808628D01*
X182642857Y-100808628D02*
X182261905Y-100808628D01*
X183166667Y-100284819D02*
X183833333Y-100284819D01*
X183833333Y-100284819D02*
X183404762Y-101284819D01*
X127166667Y-90934819D02*
X127166667Y-91744342D01*
X127166667Y-91744342D02*
X127214286Y-91839580D01*
X127214286Y-91839580D02*
X127261905Y-91887200D01*
X127261905Y-91887200D02*
X127357143Y-91934819D01*
X127357143Y-91934819D02*
X127547619Y-91934819D01*
X127547619Y-91934819D02*
X127642857Y-91887200D01*
X127642857Y-91887200D02*
X127690476Y-91839580D01*
X127690476Y-91839580D02*
X127738095Y-91744342D01*
X127738095Y-91744342D02*
X127738095Y-90934819D01*
X127976191Y-92030057D02*
X128738095Y-92030057D01*
X128976191Y-91934819D02*
X128976191Y-90934819D01*
X128976191Y-90934819D02*
X129309524Y-91649104D01*
X129309524Y-91649104D02*
X129642857Y-90934819D01*
X129642857Y-90934819D02*
X129642857Y-91934819D01*
X130690476Y-91934819D02*
X130357143Y-91458628D01*
X130119048Y-91934819D02*
X130119048Y-90934819D01*
X130119048Y-90934819D02*
X130500000Y-90934819D01*
X130500000Y-90934819D02*
X130595238Y-90982438D01*
X130595238Y-90982438D02*
X130642857Y-91030057D01*
X130642857Y-91030057D02*
X130690476Y-91125295D01*
X130690476Y-91125295D02*
X130690476Y-91268152D01*
X130690476Y-91268152D02*
X130642857Y-91363390D01*
X130642857Y-91363390D02*
X130595238Y-91411009D01*
X130595238Y-91411009D02*
X130500000Y-91458628D01*
X130500000Y-91458628D02*
X130119048Y-91458628D01*
X131309524Y-90934819D02*
X131500000Y-90934819D01*
X131500000Y-90934819D02*
X131595238Y-90982438D01*
X131595238Y-90982438D02*
X131690476Y-91077676D01*
X131690476Y-91077676D02*
X131738095Y-91268152D01*
X131738095Y-91268152D02*
X131738095Y-91601485D01*
X131738095Y-91601485D02*
X131690476Y-91791961D01*
X131690476Y-91791961D02*
X131595238Y-91887200D01*
X131595238Y-91887200D02*
X131500000Y-91934819D01*
X131500000Y-91934819D02*
X131309524Y-91934819D01*
X131309524Y-91934819D02*
X131214286Y-91887200D01*
X131214286Y-91887200D02*
X131119048Y-91791961D01*
X131119048Y-91791961D02*
X131071429Y-91601485D01*
X131071429Y-91601485D02*
X131071429Y-91268152D01*
X131071429Y-91268152D02*
X131119048Y-91077676D01*
X131119048Y-91077676D02*
X131214286Y-90982438D01*
X131214286Y-90982438D02*
X131309524Y-90934819D01*
X132166667Y-91934819D02*
X132166667Y-90934819D01*
X132166667Y-90934819D02*
X132500000Y-91649104D01*
X132500000Y-91649104D02*
X132833333Y-90934819D01*
X132833333Y-90934819D02*
X132833333Y-91934819D01*
X186461904Y-134479819D02*
X186461904Y-135194104D01*
X186461904Y-135194104D02*
X186414285Y-135336961D01*
X186414285Y-135336961D02*
X186319047Y-135432200D01*
X186319047Y-135432200D02*
X186176190Y-135479819D01*
X186176190Y-135479819D02*
X186080952Y-135479819D01*
X186700000Y-135575057D02*
X187461904Y-135575057D01*
X187700000Y-134479819D02*
X187700000Y-135289342D01*
X187700000Y-135289342D02*
X187747619Y-135384580D01*
X187747619Y-135384580D02*
X187795238Y-135432200D01*
X187795238Y-135432200D02*
X187890476Y-135479819D01*
X187890476Y-135479819D02*
X188080952Y-135479819D01*
X188080952Y-135479819D02*
X188176190Y-135432200D01*
X188176190Y-135432200D02*
X188223809Y-135384580D01*
X188223809Y-135384580D02*
X188271428Y-135289342D01*
X188271428Y-135289342D02*
X188271428Y-134479819D01*
X188700000Y-135432200D02*
X188842857Y-135479819D01*
X188842857Y-135479819D02*
X189080952Y-135479819D01*
X189080952Y-135479819D02*
X189176190Y-135432200D01*
X189176190Y-135432200D02*
X189223809Y-135384580D01*
X189223809Y-135384580D02*
X189271428Y-135289342D01*
X189271428Y-135289342D02*
X189271428Y-135194104D01*
X189271428Y-135194104D02*
X189223809Y-135098866D01*
X189223809Y-135098866D02*
X189176190Y-135051247D01*
X189176190Y-135051247D02*
X189080952Y-135003628D01*
X189080952Y-135003628D02*
X188890476Y-134956009D01*
X188890476Y-134956009D02*
X188795238Y-134908390D01*
X188795238Y-134908390D02*
X188747619Y-134860771D01*
X188747619Y-134860771D02*
X188700000Y-134765533D01*
X188700000Y-134765533D02*
X188700000Y-134670295D01*
X188700000Y-134670295D02*
X188747619Y-134575057D01*
X188747619Y-134575057D02*
X188795238Y-134527438D01*
X188795238Y-134527438D02*
X188890476Y-134479819D01*
X188890476Y-134479819D02*
X189128571Y-134479819D01*
X189128571Y-134479819D02*
X189271428Y-134527438D01*
X190033333Y-134956009D02*
X190176190Y-135003628D01*
X190176190Y-135003628D02*
X190223809Y-135051247D01*
X190223809Y-135051247D02*
X190271428Y-135146485D01*
X190271428Y-135146485D02*
X190271428Y-135289342D01*
X190271428Y-135289342D02*
X190223809Y-135384580D01*
X190223809Y-135384580D02*
X190176190Y-135432200D01*
X190176190Y-135432200D02*
X190080952Y-135479819D01*
X190080952Y-135479819D02*
X189700000Y-135479819D01*
X189700000Y-135479819D02*
X189700000Y-134479819D01*
X189700000Y-134479819D02*
X190033333Y-134479819D01*
X190033333Y-134479819D02*
X190128571Y-134527438D01*
X190128571Y-134527438D02*
X190176190Y-134575057D01*
X190176190Y-134575057D02*
X190223809Y-134670295D01*
X190223809Y-134670295D02*
X190223809Y-134765533D01*
X190223809Y-134765533D02*
X190176190Y-134860771D01*
X190176190Y-134860771D02*
X190128571Y-134908390D01*
X190128571Y-134908390D02*
X190033333Y-134956009D01*
X190033333Y-134956009D02*
X189700000Y-134956009D01*
X164261905Y-105054819D02*
X164261905Y-104054819D01*
X164261905Y-104054819D02*
X164500000Y-104054819D01*
X164500000Y-104054819D02*
X164642857Y-104102438D01*
X164642857Y-104102438D02*
X164738095Y-104197676D01*
X164738095Y-104197676D02*
X164785714Y-104292914D01*
X164785714Y-104292914D02*
X164833333Y-104483390D01*
X164833333Y-104483390D02*
X164833333Y-104626247D01*
X164833333Y-104626247D02*
X164785714Y-104816723D01*
X164785714Y-104816723D02*
X164738095Y-104911961D01*
X164738095Y-104911961D02*
X164642857Y-105007200D01*
X164642857Y-105007200D02*
X164500000Y-105054819D01*
X164500000Y-105054819D02*
X164261905Y-105054819D01*
X165690476Y-104388152D02*
X165690476Y-105054819D01*
X165452381Y-104007200D02*
X165214286Y-104721485D01*
X165214286Y-104721485D02*
X165833333Y-104721485D01*
X67880952Y-111554819D02*
X67880952Y-112364342D01*
X67880952Y-112364342D02*
X67928571Y-112459580D01*
X67928571Y-112459580D02*
X67976190Y-112507200D01*
X67976190Y-112507200D02*
X68071428Y-112554819D01*
X68071428Y-112554819D02*
X68261904Y-112554819D01*
X68261904Y-112554819D02*
X68357142Y-112507200D01*
X68357142Y-112507200D02*
X68404761Y-112459580D01*
X68404761Y-112459580D02*
X68452380Y-112364342D01*
X68452380Y-112364342D02*
X68452380Y-111554819D01*
X68690476Y-112650057D02*
X69452380Y-112650057D01*
X69642857Y-112507200D02*
X69785714Y-112554819D01*
X69785714Y-112554819D02*
X70023809Y-112554819D01*
X70023809Y-112554819D02*
X70119047Y-112507200D01*
X70119047Y-112507200D02*
X70166666Y-112459580D01*
X70166666Y-112459580D02*
X70214285Y-112364342D01*
X70214285Y-112364342D02*
X70214285Y-112269104D01*
X70214285Y-112269104D02*
X70166666Y-112173866D01*
X70166666Y-112173866D02*
X70119047Y-112126247D01*
X70119047Y-112126247D02*
X70023809Y-112078628D01*
X70023809Y-112078628D02*
X69833333Y-112031009D01*
X69833333Y-112031009D02*
X69738095Y-111983390D01*
X69738095Y-111983390D02*
X69690476Y-111935771D01*
X69690476Y-111935771D02*
X69642857Y-111840533D01*
X69642857Y-111840533D02*
X69642857Y-111745295D01*
X69642857Y-111745295D02*
X69690476Y-111650057D01*
X69690476Y-111650057D02*
X69738095Y-111602438D01*
X69738095Y-111602438D02*
X69833333Y-111554819D01*
X69833333Y-111554819D02*
X70071428Y-111554819D01*
X70071428Y-111554819D02*
X70214285Y-111602438D01*
X71214285Y-112554819D02*
X70880952Y-112078628D01*
X70642857Y-112554819D02*
X70642857Y-111554819D01*
X70642857Y-111554819D02*
X71023809Y-111554819D01*
X71023809Y-111554819D02*
X71119047Y-111602438D01*
X71119047Y-111602438D02*
X71166666Y-111650057D01*
X71166666Y-111650057D02*
X71214285Y-111745295D01*
X71214285Y-111745295D02*
X71214285Y-111888152D01*
X71214285Y-111888152D02*
X71166666Y-111983390D01*
X71166666Y-111983390D02*
X71119047Y-112031009D01*
X71119047Y-112031009D02*
X71023809Y-112078628D01*
X71023809Y-112078628D02*
X70642857Y-112078628D01*
X72166666Y-112554819D02*
X71595238Y-112554819D01*
X71880952Y-112554819D02*
X71880952Y-111554819D01*
X71880952Y-111554819D02*
X71785714Y-111697676D01*
X71785714Y-111697676D02*
X71690476Y-111792914D01*
X71690476Y-111792914D02*
X71595238Y-111840533D01*
X123607143Y-147186128D02*
X123607143Y-148257557D01*
X123607143Y-148257557D02*
X123535714Y-148471842D01*
X123535714Y-148471842D02*
X123392857Y-148614700D01*
X123392857Y-148614700D02*
X123178571Y-148686128D01*
X123178571Y-148686128D02*
X123035714Y-148686128D01*
X123964286Y-148828985D02*
X125107143Y-148828985D01*
X126321428Y-148543271D02*
X126250000Y-148614700D01*
X126250000Y-148614700D02*
X126035714Y-148686128D01*
X126035714Y-148686128D02*
X125892857Y-148686128D01*
X125892857Y-148686128D02*
X125678571Y-148614700D01*
X125678571Y-148614700D02*
X125535714Y-148471842D01*
X125535714Y-148471842D02*
X125464285Y-148328985D01*
X125464285Y-148328985D02*
X125392857Y-148043271D01*
X125392857Y-148043271D02*
X125392857Y-147828985D01*
X125392857Y-147828985D02*
X125464285Y-147543271D01*
X125464285Y-147543271D02*
X125535714Y-147400414D01*
X125535714Y-147400414D02*
X125678571Y-147257557D01*
X125678571Y-147257557D02*
X125892857Y-147186128D01*
X125892857Y-147186128D02*
X126035714Y-147186128D01*
X126035714Y-147186128D02*
X126250000Y-147257557D01*
X126250000Y-147257557D02*
X126321428Y-147328985D01*
X126750000Y-147186128D02*
X127607143Y-147186128D01*
X127178571Y-148686128D02*
X127178571Y-147186128D01*
X128964285Y-148686128D02*
X128464285Y-147971842D01*
X128107142Y-148686128D02*
X128107142Y-147186128D01*
X128107142Y-147186128D02*
X128678571Y-147186128D01*
X128678571Y-147186128D02*
X128821428Y-147257557D01*
X128821428Y-147257557D02*
X128892857Y-147328985D01*
X128892857Y-147328985D02*
X128964285Y-147471842D01*
X128964285Y-147471842D02*
X128964285Y-147686128D01*
X128964285Y-147686128D02*
X128892857Y-147828985D01*
X128892857Y-147828985D02*
X128821428Y-147900414D01*
X128821428Y-147900414D02*
X128678571Y-147971842D01*
X128678571Y-147971842D02*
X128107142Y-147971842D01*
X130392857Y-147257557D02*
X130250000Y-147186128D01*
X130250000Y-147186128D02*
X130035714Y-147186128D01*
X130035714Y-147186128D02*
X129821428Y-147257557D01*
X129821428Y-147257557D02*
X129678571Y-147400414D01*
X129678571Y-147400414D02*
X129607142Y-147543271D01*
X129607142Y-147543271D02*
X129535714Y-147828985D01*
X129535714Y-147828985D02*
X129535714Y-148043271D01*
X129535714Y-148043271D02*
X129607142Y-148328985D01*
X129607142Y-148328985D02*
X129678571Y-148471842D01*
X129678571Y-148471842D02*
X129821428Y-148614700D01*
X129821428Y-148614700D02*
X130035714Y-148686128D01*
X130035714Y-148686128D02*
X130178571Y-148686128D01*
X130178571Y-148686128D02*
X130392857Y-148614700D01*
X130392857Y-148614700D02*
X130464285Y-148543271D01*
X130464285Y-148543271D02*
X130464285Y-148043271D01*
X130464285Y-148043271D02*
X130178571Y-148043271D01*
X131035714Y-147328985D02*
X131107142Y-147257557D01*
X131107142Y-147257557D02*
X131250000Y-147186128D01*
X131250000Y-147186128D02*
X131607142Y-147186128D01*
X131607142Y-147186128D02*
X131750000Y-147257557D01*
X131750000Y-147257557D02*
X131821428Y-147328985D01*
X131821428Y-147328985D02*
X131892857Y-147471842D01*
X131892857Y-147471842D02*
X131892857Y-147614700D01*
X131892857Y-147614700D02*
X131821428Y-147828985D01*
X131821428Y-147828985D02*
X130964285Y-148686128D01*
X130964285Y-148686128D02*
X131892857Y-148686128D01*
X97357142Y-141199580D02*
X97309523Y-141247200D01*
X97309523Y-141247200D02*
X97166666Y-141294819D01*
X97166666Y-141294819D02*
X97071428Y-141294819D01*
X97071428Y-141294819D02*
X96928571Y-141247200D01*
X96928571Y-141247200D02*
X96833333Y-141151961D01*
X96833333Y-141151961D02*
X96785714Y-141056723D01*
X96785714Y-141056723D02*
X96738095Y-140866247D01*
X96738095Y-140866247D02*
X96738095Y-140723390D01*
X96738095Y-140723390D02*
X96785714Y-140532914D01*
X96785714Y-140532914D02*
X96833333Y-140437676D01*
X96833333Y-140437676D02*
X96928571Y-140342438D01*
X96928571Y-140342438D02*
X97071428Y-140294819D01*
X97071428Y-140294819D02*
X97166666Y-140294819D01*
X97166666Y-140294819D02*
X97309523Y-140342438D01*
X97309523Y-140342438D02*
X97357142Y-140390057D01*
X98309523Y-141294819D02*
X97738095Y-141294819D01*
X98023809Y-141294819D02*
X98023809Y-140294819D01*
X98023809Y-140294819D02*
X97928571Y-140437676D01*
X97928571Y-140437676D02*
X97833333Y-140532914D01*
X97833333Y-140532914D02*
X97738095Y-140580533D01*
X98642857Y-140294819D02*
X99309523Y-140294819D01*
X99309523Y-140294819D02*
X98880952Y-141294819D01*
X123607143Y-48186128D02*
X123607143Y-49257557D01*
X123607143Y-49257557D02*
X123535714Y-49471842D01*
X123535714Y-49471842D02*
X123392857Y-49614700D01*
X123392857Y-49614700D02*
X123178571Y-49686128D01*
X123178571Y-49686128D02*
X123035714Y-49686128D01*
X123964286Y-49828985D02*
X125107143Y-49828985D01*
X126321428Y-49543271D02*
X126250000Y-49614700D01*
X126250000Y-49614700D02*
X126035714Y-49686128D01*
X126035714Y-49686128D02*
X125892857Y-49686128D01*
X125892857Y-49686128D02*
X125678571Y-49614700D01*
X125678571Y-49614700D02*
X125535714Y-49471842D01*
X125535714Y-49471842D02*
X125464285Y-49328985D01*
X125464285Y-49328985D02*
X125392857Y-49043271D01*
X125392857Y-49043271D02*
X125392857Y-48828985D01*
X125392857Y-48828985D02*
X125464285Y-48543271D01*
X125464285Y-48543271D02*
X125535714Y-48400414D01*
X125535714Y-48400414D02*
X125678571Y-48257557D01*
X125678571Y-48257557D02*
X125892857Y-48186128D01*
X125892857Y-48186128D02*
X126035714Y-48186128D01*
X126035714Y-48186128D02*
X126250000Y-48257557D01*
X126250000Y-48257557D02*
X126321428Y-48328985D01*
X126750000Y-48186128D02*
X127607143Y-48186128D01*
X127178571Y-49686128D02*
X127178571Y-48186128D01*
X128964285Y-49686128D02*
X128464285Y-48971842D01*
X128107142Y-49686128D02*
X128107142Y-48186128D01*
X128107142Y-48186128D02*
X128678571Y-48186128D01*
X128678571Y-48186128D02*
X128821428Y-48257557D01*
X128821428Y-48257557D02*
X128892857Y-48328985D01*
X128892857Y-48328985D02*
X128964285Y-48471842D01*
X128964285Y-48471842D02*
X128964285Y-48686128D01*
X128964285Y-48686128D02*
X128892857Y-48828985D01*
X128892857Y-48828985D02*
X128821428Y-48900414D01*
X128821428Y-48900414D02*
X128678571Y-48971842D01*
X128678571Y-48971842D02*
X128107142Y-48971842D01*
X130392857Y-48257557D02*
X130250000Y-48186128D01*
X130250000Y-48186128D02*
X130035714Y-48186128D01*
X130035714Y-48186128D02*
X129821428Y-48257557D01*
X129821428Y-48257557D02*
X129678571Y-48400414D01*
X129678571Y-48400414D02*
X129607142Y-48543271D01*
X129607142Y-48543271D02*
X129535714Y-48828985D01*
X129535714Y-48828985D02*
X129535714Y-49043271D01*
X129535714Y-49043271D02*
X129607142Y-49328985D01*
X129607142Y-49328985D02*
X129678571Y-49471842D01*
X129678571Y-49471842D02*
X129821428Y-49614700D01*
X129821428Y-49614700D02*
X130035714Y-49686128D01*
X130035714Y-49686128D02*
X130178571Y-49686128D01*
X130178571Y-49686128D02*
X130392857Y-49614700D01*
X130392857Y-49614700D02*
X130464285Y-49543271D01*
X130464285Y-49543271D02*
X130464285Y-49043271D01*
X130464285Y-49043271D02*
X130178571Y-49043271D01*
X131892857Y-49686128D02*
X131035714Y-49686128D01*
X131464285Y-49686128D02*
X131464285Y-48186128D01*
X131464285Y-48186128D02*
X131321428Y-48400414D01*
X131321428Y-48400414D02*
X131178571Y-48543271D01*
X131178571Y-48543271D02*
X131035714Y-48614700D01*
X152261905Y-70934819D02*
X152261905Y-71744342D01*
X152261905Y-71744342D02*
X152309524Y-71839580D01*
X152309524Y-71839580D02*
X152357143Y-71887200D01*
X152357143Y-71887200D02*
X152452381Y-71934819D01*
X152452381Y-71934819D02*
X152642857Y-71934819D01*
X152642857Y-71934819D02*
X152738095Y-71887200D01*
X152738095Y-71887200D02*
X152785714Y-71839580D01*
X152785714Y-71839580D02*
X152833333Y-71744342D01*
X152833333Y-71744342D02*
X152833333Y-70934819D01*
X153071429Y-72030057D02*
X153833333Y-72030057D01*
X154023810Y-71887200D02*
X154166667Y-71934819D01*
X154166667Y-71934819D02*
X154404762Y-71934819D01*
X154404762Y-71934819D02*
X154500000Y-71887200D01*
X154500000Y-71887200D02*
X154547619Y-71839580D01*
X154547619Y-71839580D02*
X154595238Y-71744342D01*
X154595238Y-71744342D02*
X154595238Y-71649104D01*
X154595238Y-71649104D02*
X154547619Y-71553866D01*
X154547619Y-71553866D02*
X154500000Y-71506247D01*
X154500000Y-71506247D02*
X154404762Y-71458628D01*
X154404762Y-71458628D02*
X154214286Y-71411009D01*
X154214286Y-71411009D02*
X154119048Y-71363390D01*
X154119048Y-71363390D02*
X154071429Y-71315771D01*
X154071429Y-71315771D02*
X154023810Y-71220533D01*
X154023810Y-71220533D02*
X154023810Y-71125295D01*
X154023810Y-71125295D02*
X154071429Y-71030057D01*
X154071429Y-71030057D02*
X154119048Y-70982438D01*
X154119048Y-70982438D02*
X154214286Y-70934819D01*
X154214286Y-70934819D02*
X154452381Y-70934819D01*
X154452381Y-70934819D02*
X154595238Y-70982438D01*
X155595238Y-71934819D02*
X155261905Y-71458628D01*
X155023810Y-71934819D02*
X155023810Y-70934819D01*
X155023810Y-70934819D02*
X155404762Y-70934819D01*
X155404762Y-70934819D02*
X155500000Y-70982438D01*
X155500000Y-70982438D02*
X155547619Y-71030057D01*
X155547619Y-71030057D02*
X155595238Y-71125295D01*
X155595238Y-71125295D02*
X155595238Y-71268152D01*
X155595238Y-71268152D02*
X155547619Y-71363390D01*
X155547619Y-71363390D02*
X155500000Y-71411009D01*
X155500000Y-71411009D02*
X155404762Y-71458628D01*
X155404762Y-71458628D02*
X155023810Y-71458628D01*
X156214286Y-70934819D02*
X156404762Y-70934819D01*
X156404762Y-70934819D02*
X156500000Y-70982438D01*
X156500000Y-70982438D02*
X156595238Y-71077676D01*
X156595238Y-71077676D02*
X156642857Y-71268152D01*
X156642857Y-71268152D02*
X156642857Y-71601485D01*
X156642857Y-71601485D02*
X156595238Y-71791961D01*
X156595238Y-71791961D02*
X156500000Y-71887200D01*
X156500000Y-71887200D02*
X156404762Y-71934819D01*
X156404762Y-71934819D02*
X156214286Y-71934819D01*
X156214286Y-71934819D02*
X156119048Y-71887200D01*
X156119048Y-71887200D02*
X156023810Y-71791961D01*
X156023810Y-71791961D02*
X155976191Y-71601485D01*
X155976191Y-71601485D02*
X155976191Y-71268152D01*
X155976191Y-71268152D02*
X156023810Y-71077676D01*
X156023810Y-71077676D02*
X156119048Y-70982438D01*
X156119048Y-70982438D02*
X156214286Y-70934819D01*
X157071429Y-71934819D02*
X157071429Y-70934819D01*
X157071429Y-70934819D02*
X157404762Y-71649104D01*
X157404762Y-71649104D02*
X157738095Y-70934819D01*
X157738095Y-70934819D02*
X157738095Y-71934819D01*
X174833333Y-79199580D02*
X174785714Y-79247200D01*
X174785714Y-79247200D02*
X174642857Y-79294819D01*
X174642857Y-79294819D02*
X174547619Y-79294819D01*
X174547619Y-79294819D02*
X174404762Y-79247200D01*
X174404762Y-79247200D02*
X174309524Y-79151961D01*
X174309524Y-79151961D02*
X174261905Y-79056723D01*
X174261905Y-79056723D02*
X174214286Y-78866247D01*
X174214286Y-78866247D02*
X174214286Y-78723390D01*
X174214286Y-78723390D02*
X174261905Y-78532914D01*
X174261905Y-78532914D02*
X174309524Y-78437676D01*
X174309524Y-78437676D02*
X174404762Y-78342438D01*
X174404762Y-78342438D02*
X174547619Y-78294819D01*
X174547619Y-78294819D02*
X174642857Y-78294819D01*
X174642857Y-78294819D02*
X174785714Y-78342438D01*
X174785714Y-78342438D02*
X174833333Y-78390057D01*
X175690476Y-78628152D02*
X175690476Y-79294819D01*
X175452381Y-78247200D02*
X175214286Y-78961485D01*
X175214286Y-78961485D02*
X175833333Y-78961485D01*
X87880952Y-111554819D02*
X87880952Y-112364342D01*
X87880952Y-112364342D02*
X87928571Y-112459580D01*
X87928571Y-112459580D02*
X87976190Y-112507200D01*
X87976190Y-112507200D02*
X88071428Y-112554819D01*
X88071428Y-112554819D02*
X88261904Y-112554819D01*
X88261904Y-112554819D02*
X88357142Y-112507200D01*
X88357142Y-112507200D02*
X88404761Y-112459580D01*
X88404761Y-112459580D02*
X88452380Y-112364342D01*
X88452380Y-112364342D02*
X88452380Y-111554819D01*
X88690476Y-112650057D02*
X89452380Y-112650057D01*
X89642857Y-112507200D02*
X89785714Y-112554819D01*
X89785714Y-112554819D02*
X90023809Y-112554819D01*
X90023809Y-112554819D02*
X90119047Y-112507200D01*
X90119047Y-112507200D02*
X90166666Y-112459580D01*
X90166666Y-112459580D02*
X90214285Y-112364342D01*
X90214285Y-112364342D02*
X90214285Y-112269104D01*
X90214285Y-112269104D02*
X90166666Y-112173866D01*
X90166666Y-112173866D02*
X90119047Y-112126247D01*
X90119047Y-112126247D02*
X90023809Y-112078628D01*
X90023809Y-112078628D02*
X89833333Y-112031009D01*
X89833333Y-112031009D02*
X89738095Y-111983390D01*
X89738095Y-111983390D02*
X89690476Y-111935771D01*
X89690476Y-111935771D02*
X89642857Y-111840533D01*
X89642857Y-111840533D02*
X89642857Y-111745295D01*
X89642857Y-111745295D02*
X89690476Y-111650057D01*
X89690476Y-111650057D02*
X89738095Y-111602438D01*
X89738095Y-111602438D02*
X89833333Y-111554819D01*
X89833333Y-111554819D02*
X90071428Y-111554819D01*
X90071428Y-111554819D02*
X90214285Y-111602438D01*
X91214285Y-112554819D02*
X90880952Y-112078628D01*
X90642857Y-112554819D02*
X90642857Y-111554819D01*
X90642857Y-111554819D02*
X91023809Y-111554819D01*
X91023809Y-111554819D02*
X91119047Y-111602438D01*
X91119047Y-111602438D02*
X91166666Y-111650057D01*
X91166666Y-111650057D02*
X91214285Y-111745295D01*
X91214285Y-111745295D02*
X91214285Y-111888152D01*
X91214285Y-111888152D02*
X91166666Y-111983390D01*
X91166666Y-111983390D02*
X91119047Y-112031009D01*
X91119047Y-112031009D02*
X91023809Y-112078628D01*
X91023809Y-112078628D02*
X90642857Y-112078628D01*
X91595238Y-111650057D02*
X91642857Y-111602438D01*
X91642857Y-111602438D02*
X91738095Y-111554819D01*
X91738095Y-111554819D02*
X91976190Y-111554819D01*
X91976190Y-111554819D02*
X92071428Y-111602438D01*
X92071428Y-111602438D02*
X92119047Y-111650057D01*
X92119047Y-111650057D02*
X92166666Y-111745295D01*
X92166666Y-111745295D02*
X92166666Y-111840533D01*
X92166666Y-111840533D02*
X92119047Y-111983390D01*
X92119047Y-111983390D02*
X91547619Y-112554819D01*
X91547619Y-112554819D02*
X92166666Y-112554819D01*
X76761905Y-72504819D02*
X76761905Y-73314342D01*
X76761905Y-73314342D02*
X76809524Y-73409580D01*
X76809524Y-73409580D02*
X76857143Y-73457200D01*
X76857143Y-73457200D02*
X76952381Y-73504819D01*
X76952381Y-73504819D02*
X77142857Y-73504819D01*
X77142857Y-73504819D02*
X77238095Y-73457200D01*
X77238095Y-73457200D02*
X77285714Y-73409580D01*
X77285714Y-73409580D02*
X77333333Y-73314342D01*
X77333333Y-73314342D02*
X77333333Y-72504819D01*
X77571429Y-73600057D02*
X78333333Y-73600057D01*
X79142857Y-73409580D02*
X79095238Y-73457200D01*
X79095238Y-73457200D02*
X78952381Y-73504819D01*
X78952381Y-73504819D02*
X78857143Y-73504819D01*
X78857143Y-73504819D02*
X78714286Y-73457200D01*
X78714286Y-73457200D02*
X78619048Y-73361961D01*
X78619048Y-73361961D02*
X78571429Y-73266723D01*
X78571429Y-73266723D02*
X78523810Y-73076247D01*
X78523810Y-73076247D02*
X78523810Y-72933390D01*
X78523810Y-72933390D02*
X78571429Y-72742914D01*
X78571429Y-72742914D02*
X78619048Y-72647676D01*
X78619048Y-72647676D02*
X78714286Y-72552438D01*
X78714286Y-72552438D02*
X78857143Y-72504819D01*
X78857143Y-72504819D02*
X78952381Y-72504819D01*
X78952381Y-72504819D02*
X79095238Y-72552438D01*
X79095238Y-72552438D02*
X79142857Y-72600057D01*
X80142857Y-73504819D02*
X79809524Y-73028628D01*
X79571429Y-73504819D02*
X79571429Y-72504819D01*
X79571429Y-72504819D02*
X79952381Y-72504819D01*
X79952381Y-72504819D02*
X80047619Y-72552438D01*
X80047619Y-72552438D02*
X80095238Y-72600057D01*
X80095238Y-72600057D02*
X80142857Y-72695295D01*
X80142857Y-72695295D02*
X80142857Y-72838152D01*
X80142857Y-72838152D02*
X80095238Y-72933390D01*
X80095238Y-72933390D02*
X80047619Y-72981009D01*
X80047619Y-72981009D02*
X79952381Y-73028628D01*
X79952381Y-73028628D02*
X79571429Y-73028628D01*
X80761905Y-72504819D02*
X80952381Y-72504819D01*
X80952381Y-72504819D02*
X81047619Y-72552438D01*
X81047619Y-72552438D02*
X81142857Y-72647676D01*
X81142857Y-72647676D02*
X81190476Y-72838152D01*
X81190476Y-72838152D02*
X81190476Y-73171485D01*
X81190476Y-73171485D02*
X81142857Y-73361961D01*
X81142857Y-73361961D02*
X81047619Y-73457200D01*
X81047619Y-73457200D02*
X80952381Y-73504819D01*
X80952381Y-73504819D02*
X80761905Y-73504819D01*
X80761905Y-73504819D02*
X80666667Y-73457200D01*
X80666667Y-73457200D02*
X80571429Y-73361961D01*
X80571429Y-73361961D02*
X80523810Y-73171485D01*
X80523810Y-73171485D02*
X80523810Y-72838152D01*
X80523810Y-72838152D02*
X80571429Y-72647676D01*
X80571429Y-72647676D02*
X80666667Y-72552438D01*
X80666667Y-72552438D02*
X80761905Y-72504819D01*
X81619048Y-73504819D02*
X81619048Y-72504819D01*
X81619048Y-72504819D02*
X81952381Y-73219104D01*
X81952381Y-73219104D02*
X82285714Y-72504819D01*
X82285714Y-72504819D02*
X82285714Y-73504819D01*
X83285714Y-73504819D02*
X82714286Y-73504819D01*
X83000000Y-73504819D02*
X83000000Y-72504819D01*
X83000000Y-72504819D02*
X82904762Y-72647676D01*
X82904762Y-72647676D02*
X82809524Y-72742914D01*
X82809524Y-72742914D02*
X82714286Y-72790533D01*
X159833333Y-84199580D02*
X159785714Y-84247200D01*
X159785714Y-84247200D02*
X159642857Y-84294819D01*
X159642857Y-84294819D02*
X159547619Y-84294819D01*
X159547619Y-84294819D02*
X159404762Y-84247200D01*
X159404762Y-84247200D02*
X159309524Y-84151961D01*
X159309524Y-84151961D02*
X159261905Y-84056723D01*
X159261905Y-84056723D02*
X159214286Y-83866247D01*
X159214286Y-83866247D02*
X159214286Y-83723390D01*
X159214286Y-83723390D02*
X159261905Y-83532914D01*
X159261905Y-83532914D02*
X159309524Y-83437676D01*
X159309524Y-83437676D02*
X159404762Y-83342438D01*
X159404762Y-83342438D02*
X159547619Y-83294819D01*
X159547619Y-83294819D02*
X159642857Y-83294819D01*
X159642857Y-83294819D02*
X159785714Y-83342438D01*
X159785714Y-83342438D02*
X159833333Y-83390057D01*
X160690476Y-83294819D02*
X160500000Y-83294819D01*
X160500000Y-83294819D02*
X160404762Y-83342438D01*
X160404762Y-83342438D02*
X160357143Y-83390057D01*
X160357143Y-83390057D02*
X160261905Y-83532914D01*
X160261905Y-83532914D02*
X160214286Y-83723390D01*
X160214286Y-83723390D02*
X160214286Y-84104342D01*
X160214286Y-84104342D02*
X160261905Y-84199580D01*
X160261905Y-84199580D02*
X160309524Y-84247200D01*
X160309524Y-84247200D02*
X160404762Y-84294819D01*
X160404762Y-84294819D02*
X160595238Y-84294819D01*
X160595238Y-84294819D02*
X160690476Y-84247200D01*
X160690476Y-84247200D02*
X160738095Y-84199580D01*
X160738095Y-84199580D02*
X160785714Y-84104342D01*
X160785714Y-84104342D02*
X160785714Y-83866247D01*
X160785714Y-83866247D02*
X160738095Y-83771009D01*
X160738095Y-83771009D02*
X160690476Y-83723390D01*
X160690476Y-83723390D02*
X160595238Y-83675771D01*
X160595238Y-83675771D02*
X160404762Y-83675771D01*
X160404762Y-83675771D02*
X160309524Y-83723390D01*
X160309524Y-83723390D02*
X160261905Y-83771009D01*
X160261905Y-83771009D02*
X160214286Y-83866247D01*
X185833333Y-97284819D02*
X185500000Y-96808628D01*
X185261905Y-97284819D02*
X185261905Y-96284819D01*
X185261905Y-96284819D02*
X185642857Y-96284819D01*
X185642857Y-96284819D02*
X185738095Y-96332438D01*
X185738095Y-96332438D02*
X185785714Y-96380057D01*
X185785714Y-96380057D02*
X185833333Y-96475295D01*
X185833333Y-96475295D02*
X185833333Y-96618152D01*
X185833333Y-96618152D02*
X185785714Y-96713390D01*
X185785714Y-96713390D02*
X185738095Y-96761009D01*
X185738095Y-96761009D02*
X185642857Y-96808628D01*
X185642857Y-96808628D02*
X185261905Y-96808628D01*
X186166667Y-96284819D02*
X186785714Y-96284819D01*
X186785714Y-96284819D02*
X186452381Y-96665771D01*
X186452381Y-96665771D02*
X186595238Y-96665771D01*
X186595238Y-96665771D02*
X186690476Y-96713390D01*
X186690476Y-96713390D02*
X186738095Y-96761009D01*
X186738095Y-96761009D02*
X186785714Y-96856247D01*
X186785714Y-96856247D02*
X186785714Y-97094342D01*
X186785714Y-97094342D02*
X186738095Y-97189580D01*
X186738095Y-97189580D02*
X186690476Y-97237200D01*
X186690476Y-97237200D02*
X186595238Y-97284819D01*
X186595238Y-97284819D02*
X186309524Y-97284819D01*
X186309524Y-97284819D02*
X186214286Y-97237200D01*
X186214286Y-97237200D02*
X186166667Y-97189580D01*
X182833333Y-97284819D02*
X182500000Y-96808628D01*
X182261905Y-97284819D02*
X182261905Y-96284819D01*
X182261905Y-96284819D02*
X182642857Y-96284819D01*
X182642857Y-96284819D02*
X182738095Y-96332438D01*
X182738095Y-96332438D02*
X182785714Y-96380057D01*
X182785714Y-96380057D02*
X182833333Y-96475295D01*
X182833333Y-96475295D02*
X182833333Y-96618152D01*
X182833333Y-96618152D02*
X182785714Y-96713390D01*
X182785714Y-96713390D02*
X182738095Y-96761009D01*
X182738095Y-96761009D02*
X182642857Y-96808628D01*
X182642857Y-96808628D02*
X182261905Y-96808628D01*
X183214286Y-96380057D02*
X183261905Y-96332438D01*
X183261905Y-96332438D02*
X183357143Y-96284819D01*
X183357143Y-96284819D02*
X183595238Y-96284819D01*
X183595238Y-96284819D02*
X183690476Y-96332438D01*
X183690476Y-96332438D02*
X183738095Y-96380057D01*
X183738095Y-96380057D02*
X183785714Y-96475295D01*
X183785714Y-96475295D02*
X183785714Y-96570533D01*
X183785714Y-96570533D02*
X183738095Y-96713390D01*
X183738095Y-96713390D02*
X183166667Y-97284819D01*
X183166667Y-97284819D02*
X183785714Y-97284819D01*
X159357142Y-93679580D02*
X159309523Y-93727200D01*
X159309523Y-93727200D02*
X159166666Y-93774819D01*
X159166666Y-93774819D02*
X159071428Y-93774819D01*
X159071428Y-93774819D02*
X158928571Y-93727200D01*
X158928571Y-93727200D02*
X158833333Y-93631961D01*
X158833333Y-93631961D02*
X158785714Y-93536723D01*
X158785714Y-93536723D02*
X158738095Y-93346247D01*
X158738095Y-93346247D02*
X158738095Y-93203390D01*
X158738095Y-93203390D02*
X158785714Y-93012914D01*
X158785714Y-93012914D02*
X158833333Y-92917676D01*
X158833333Y-92917676D02*
X158928571Y-92822438D01*
X158928571Y-92822438D02*
X159071428Y-92774819D01*
X159071428Y-92774819D02*
X159166666Y-92774819D01*
X159166666Y-92774819D02*
X159309523Y-92822438D01*
X159309523Y-92822438D02*
X159357142Y-92870057D01*
X160309523Y-93774819D02*
X159738095Y-93774819D01*
X160023809Y-93774819D02*
X160023809Y-92774819D01*
X160023809Y-92774819D02*
X159928571Y-92917676D01*
X159928571Y-92917676D02*
X159833333Y-93012914D01*
X159833333Y-93012914D02*
X159738095Y-93060533D01*
X161166666Y-93108152D02*
X161166666Y-93774819D01*
X160928571Y-92727200D02*
X160690476Y-93441485D01*
X160690476Y-93441485D02*
X161309523Y-93441485D01*
X164833333Y-84199580D02*
X164785714Y-84247200D01*
X164785714Y-84247200D02*
X164642857Y-84294819D01*
X164642857Y-84294819D02*
X164547619Y-84294819D01*
X164547619Y-84294819D02*
X164404762Y-84247200D01*
X164404762Y-84247200D02*
X164309524Y-84151961D01*
X164309524Y-84151961D02*
X164261905Y-84056723D01*
X164261905Y-84056723D02*
X164214286Y-83866247D01*
X164214286Y-83866247D02*
X164214286Y-83723390D01*
X164214286Y-83723390D02*
X164261905Y-83532914D01*
X164261905Y-83532914D02*
X164309524Y-83437676D01*
X164309524Y-83437676D02*
X164404762Y-83342438D01*
X164404762Y-83342438D02*
X164547619Y-83294819D01*
X164547619Y-83294819D02*
X164642857Y-83294819D01*
X164642857Y-83294819D02*
X164785714Y-83342438D01*
X164785714Y-83342438D02*
X164833333Y-83390057D01*
X165166667Y-83294819D02*
X165833333Y-83294819D01*
X165833333Y-83294819D02*
X165404762Y-84294819D01*
X99523809Y-135978628D02*
X99523809Y-136454819D01*
X99190476Y-135454819D02*
X99523809Y-135978628D01*
X99523809Y-135978628D02*
X99857142Y-135454819D01*
X100714285Y-136454819D02*
X100142857Y-136454819D01*
X100428571Y-136454819D02*
X100428571Y-135454819D01*
X100428571Y-135454819D02*
X100333333Y-135597676D01*
X100333333Y-135597676D02*
X100238095Y-135692914D01*
X100238095Y-135692914D02*
X100142857Y-135740533D01*
X111761905Y-72504819D02*
X111761905Y-73314342D01*
X111761905Y-73314342D02*
X111809524Y-73409580D01*
X111809524Y-73409580D02*
X111857143Y-73457200D01*
X111857143Y-73457200D02*
X111952381Y-73504819D01*
X111952381Y-73504819D02*
X112142857Y-73504819D01*
X112142857Y-73504819D02*
X112238095Y-73457200D01*
X112238095Y-73457200D02*
X112285714Y-73409580D01*
X112285714Y-73409580D02*
X112333333Y-73314342D01*
X112333333Y-73314342D02*
X112333333Y-72504819D01*
X112571429Y-73600057D02*
X113333333Y-73600057D01*
X114142857Y-73409580D02*
X114095238Y-73457200D01*
X114095238Y-73457200D02*
X113952381Y-73504819D01*
X113952381Y-73504819D02*
X113857143Y-73504819D01*
X113857143Y-73504819D02*
X113714286Y-73457200D01*
X113714286Y-73457200D02*
X113619048Y-73361961D01*
X113619048Y-73361961D02*
X113571429Y-73266723D01*
X113571429Y-73266723D02*
X113523810Y-73076247D01*
X113523810Y-73076247D02*
X113523810Y-72933390D01*
X113523810Y-72933390D02*
X113571429Y-72742914D01*
X113571429Y-72742914D02*
X113619048Y-72647676D01*
X113619048Y-72647676D02*
X113714286Y-72552438D01*
X113714286Y-72552438D02*
X113857143Y-72504819D01*
X113857143Y-72504819D02*
X113952381Y-72504819D01*
X113952381Y-72504819D02*
X114095238Y-72552438D01*
X114095238Y-72552438D02*
X114142857Y-72600057D01*
X115142857Y-73504819D02*
X114809524Y-73028628D01*
X114571429Y-73504819D02*
X114571429Y-72504819D01*
X114571429Y-72504819D02*
X114952381Y-72504819D01*
X114952381Y-72504819D02*
X115047619Y-72552438D01*
X115047619Y-72552438D02*
X115095238Y-72600057D01*
X115095238Y-72600057D02*
X115142857Y-72695295D01*
X115142857Y-72695295D02*
X115142857Y-72838152D01*
X115142857Y-72838152D02*
X115095238Y-72933390D01*
X115095238Y-72933390D02*
X115047619Y-72981009D01*
X115047619Y-72981009D02*
X114952381Y-73028628D01*
X114952381Y-73028628D02*
X114571429Y-73028628D01*
X115761905Y-72504819D02*
X115952381Y-72504819D01*
X115952381Y-72504819D02*
X116047619Y-72552438D01*
X116047619Y-72552438D02*
X116142857Y-72647676D01*
X116142857Y-72647676D02*
X116190476Y-72838152D01*
X116190476Y-72838152D02*
X116190476Y-73171485D01*
X116190476Y-73171485D02*
X116142857Y-73361961D01*
X116142857Y-73361961D02*
X116047619Y-73457200D01*
X116047619Y-73457200D02*
X115952381Y-73504819D01*
X115952381Y-73504819D02*
X115761905Y-73504819D01*
X115761905Y-73504819D02*
X115666667Y-73457200D01*
X115666667Y-73457200D02*
X115571429Y-73361961D01*
X115571429Y-73361961D02*
X115523810Y-73171485D01*
X115523810Y-73171485D02*
X115523810Y-72838152D01*
X115523810Y-72838152D02*
X115571429Y-72647676D01*
X115571429Y-72647676D02*
X115666667Y-72552438D01*
X115666667Y-72552438D02*
X115761905Y-72504819D01*
X116619048Y-73504819D02*
X116619048Y-72504819D01*
X116619048Y-72504819D02*
X116952381Y-73219104D01*
X116952381Y-73219104D02*
X117285714Y-72504819D01*
X117285714Y-72504819D02*
X117285714Y-73504819D01*
X117714286Y-72600057D02*
X117761905Y-72552438D01*
X117761905Y-72552438D02*
X117857143Y-72504819D01*
X117857143Y-72504819D02*
X118095238Y-72504819D01*
X118095238Y-72504819D02*
X118190476Y-72552438D01*
X118190476Y-72552438D02*
X118238095Y-72600057D01*
X118238095Y-72600057D02*
X118285714Y-72695295D01*
X118285714Y-72695295D02*
X118285714Y-72790533D01*
X118285714Y-72790533D02*
X118238095Y-72933390D01*
X118238095Y-72933390D02*
X117666667Y-73504819D01*
X117666667Y-73504819D02*
X118285714Y-73504819D01*
X191833333Y-97284819D02*
X191500000Y-96808628D01*
X191261905Y-97284819D02*
X191261905Y-96284819D01*
X191261905Y-96284819D02*
X191642857Y-96284819D01*
X191642857Y-96284819D02*
X191738095Y-96332438D01*
X191738095Y-96332438D02*
X191785714Y-96380057D01*
X191785714Y-96380057D02*
X191833333Y-96475295D01*
X191833333Y-96475295D02*
X191833333Y-96618152D01*
X191833333Y-96618152D02*
X191785714Y-96713390D01*
X191785714Y-96713390D02*
X191738095Y-96761009D01*
X191738095Y-96761009D02*
X191642857Y-96808628D01*
X191642857Y-96808628D02*
X191261905Y-96808628D01*
X192738095Y-96284819D02*
X192261905Y-96284819D01*
X192261905Y-96284819D02*
X192214286Y-96761009D01*
X192214286Y-96761009D02*
X192261905Y-96713390D01*
X192261905Y-96713390D02*
X192357143Y-96665771D01*
X192357143Y-96665771D02*
X192595238Y-96665771D01*
X192595238Y-96665771D02*
X192690476Y-96713390D01*
X192690476Y-96713390D02*
X192738095Y-96761009D01*
X192738095Y-96761009D02*
X192785714Y-96856247D01*
X192785714Y-96856247D02*
X192785714Y-97094342D01*
X192785714Y-97094342D02*
X192738095Y-97189580D01*
X192738095Y-97189580D02*
X192690476Y-97237200D01*
X192690476Y-97237200D02*
X192595238Y-97284819D01*
X192595238Y-97284819D02*
X192357143Y-97284819D01*
X192357143Y-97284819D02*
X192261905Y-97237200D01*
X192261905Y-97237200D02*
X192214286Y-97189580D01*
X159833333Y-79199580D02*
X159785714Y-79247200D01*
X159785714Y-79247200D02*
X159642857Y-79294819D01*
X159642857Y-79294819D02*
X159547619Y-79294819D01*
X159547619Y-79294819D02*
X159404762Y-79247200D01*
X159404762Y-79247200D02*
X159309524Y-79151961D01*
X159309524Y-79151961D02*
X159261905Y-79056723D01*
X159261905Y-79056723D02*
X159214286Y-78866247D01*
X159214286Y-78866247D02*
X159214286Y-78723390D01*
X159214286Y-78723390D02*
X159261905Y-78532914D01*
X159261905Y-78532914D02*
X159309524Y-78437676D01*
X159309524Y-78437676D02*
X159404762Y-78342438D01*
X159404762Y-78342438D02*
X159547619Y-78294819D01*
X159547619Y-78294819D02*
X159642857Y-78294819D01*
X159642857Y-78294819D02*
X159785714Y-78342438D01*
X159785714Y-78342438D02*
X159833333Y-78390057D01*
X160785714Y-79294819D02*
X160214286Y-79294819D01*
X160500000Y-79294819D02*
X160500000Y-78294819D01*
X160500000Y-78294819D02*
X160404762Y-78437676D01*
X160404762Y-78437676D02*
X160309524Y-78532914D01*
X160309524Y-78532914D02*
X160214286Y-78580533D01*
X175357142Y-93679580D02*
X175309523Y-93727200D01*
X175309523Y-93727200D02*
X175166666Y-93774819D01*
X175166666Y-93774819D02*
X175071428Y-93774819D01*
X175071428Y-93774819D02*
X174928571Y-93727200D01*
X174928571Y-93727200D02*
X174833333Y-93631961D01*
X174833333Y-93631961D02*
X174785714Y-93536723D01*
X174785714Y-93536723D02*
X174738095Y-93346247D01*
X174738095Y-93346247D02*
X174738095Y-93203390D01*
X174738095Y-93203390D02*
X174785714Y-93012914D01*
X174785714Y-93012914D02*
X174833333Y-92917676D01*
X174833333Y-92917676D02*
X174928571Y-92822438D01*
X174928571Y-92822438D02*
X175071428Y-92774819D01*
X175071428Y-92774819D02*
X175166666Y-92774819D01*
X175166666Y-92774819D02*
X175309523Y-92822438D01*
X175309523Y-92822438D02*
X175357142Y-92870057D01*
X176309523Y-93774819D02*
X175738095Y-93774819D01*
X176023809Y-93774819D02*
X176023809Y-92774819D01*
X176023809Y-92774819D02*
X175928571Y-92917676D01*
X175928571Y-92917676D02*
X175833333Y-93012914D01*
X175833333Y-93012914D02*
X175738095Y-93060533D01*
X177166666Y-92774819D02*
X176976190Y-92774819D01*
X176976190Y-92774819D02*
X176880952Y-92822438D01*
X176880952Y-92822438D02*
X176833333Y-92870057D01*
X176833333Y-92870057D02*
X176738095Y-93012914D01*
X176738095Y-93012914D02*
X176690476Y-93203390D01*
X176690476Y-93203390D02*
X176690476Y-93584342D01*
X176690476Y-93584342D02*
X176738095Y-93679580D01*
X176738095Y-93679580D02*
X176785714Y-93727200D01*
X176785714Y-93727200D02*
X176880952Y-93774819D01*
X176880952Y-93774819D02*
X177071428Y-93774819D01*
X177071428Y-93774819D02*
X177166666Y-93727200D01*
X177166666Y-93727200D02*
X177214285Y-93679580D01*
X177214285Y-93679580D02*
X177261904Y-93584342D01*
X177261904Y-93584342D02*
X177261904Y-93346247D01*
X177261904Y-93346247D02*
X177214285Y-93251009D01*
X177214285Y-93251009D02*
X177166666Y-93203390D01*
X177166666Y-93203390D02*
X177071428Y-93155771D01*
X177071428Y-93155771D02*
X176880952Y-93155771D01*
X176880952Y-93155771D02*
X176785714Y-93203390D01*
X176785714Y-93203390D02*
X176738095Y-93251009D01*
X176738095Y-93251009D02*
X176690476Y-93346247D01*
X179357142Y-84199580D02*
X179309523Y-84247200D01*
X179309523Y-84247200D02*
X179166666Y-84294819D01*
X179166666Y-84294819D02*
X179071428Y-84294819D01*
X179071428Y-84294819D02*
X178928571Y-84247200D01*
X178928571Y-84247200D02*
X178833333Y-84151961D01*
X178833333Y-84151961D02*
X178785714Y-84056723D01*
X178785714Y-84056723D02*
X178738095Y-83866247D01*
X178738095Y-83866247D02*
X178738095Y-83723390D01*
X178738095Y-83723390D02*
X178785714Y-83532914D01*
X178785714Y-83532914D02*
X178833333Y-83437676D01*
X178833333Y-83437676D02*
X178928571Y-83342438D01*
X178928571Y-83342438D02*
X179071428Y-83294819D01*
X179071428Y-83294819D02*
X179166666Y-83294819D01*
X179166666Y-83294819D02*
X179309523Y-83342438D01*
X179309523Y-83342438D02*
X179357142Y-83390057D01*
X180309523Y-84294819D02*
X179738095Y-84294819D01*
X180023809Y-84294819D02*
X180023809Y-83294819D01*
X180023809Y-83294819D02*
X179928571Y-83437676D01*
X179928571Y-83437676D02*
X179833333Y-83532914D01*
X179833333Y-83532914D02*
X179738095Y-83580533D01*
X180928571Y-83294819D02*
X181023809Y-83294819D01*
X181023809Y-83294819D02*
X181119047Y-83342438D01*
X181119047Y-83342438D02*
X181166666Y-83390057D01*
X181166666Y-83390057D02*
X181214285Y-83485295D01*
X181214285Y-83485295D02*
X181261904Y-83675771D01*
X181261904Y-83675771D02*
X181261904Y-83913866D01*
X181261904Y-83913866D02*
X181214285Y-84104342D01*
X181214285Y-84104342D02*
X181166666Y-84199580D01*
X181166666Y-84199580D02*
X181119047Y-84247200D01*
X181119047Y-84247200D02*
X181023809Y-84294819D01*
X181023809Y-84294819D02*
X180928571Y-84294819D01*
X180928571Y-84294819D02*
X180833333Y-84247200D01*
X180833333Y-84247200D02*
X180785714Y-84199580D01*
X180785714Y-84199580D02*
X180738095Y-84104342D01*
X180738095Y-84104342D02*
X180690476Y-83913866D01*
X180690476Y-83913866D02*
X180690476Y-83675771D01*
X180690476Y-83675771D02*
X180738095Y-83485295D01*
X180738095Y-83485295D02*
X180785714Y-83390057D01*
X180785714Y-83390057D02*
X180833333Y-83342438D01*
X180833333Y-83342438D02*
X180928571Y-83294819D01*
X164833333Y-79199580D02*
X164785714Y-79247200D01*
X164785714Y-79247200D02*
X164642857Y-79294819D01*
X164642857Y-79294819D02*
X164547619Y-79294819D01*
X164547619Y-79294819D02*
X164404762Y-79247200D01*
X164404762Y-79247200D02*
X164309524Y-79151961D01*
X164309524Y-79151961D02*
X164261905Y-79056723D01*
X164261905Y-79056723D02*
X164214286Y-78866247D01*
X164214286Y-78866247D02*
X164214286Y-78723390D01*
X164214286Y-78723390D02*
X164261905Y-78532914D01*
X164261905Y-78532914D02*
X164309524Y-78437676D01*
X164309524Y-78437676D02*
X164404762Y-78342438D01*
X164404762Y-78342438D02*
X164547619Y-78294819D01*
X164547619Y-78294819D02*
X164642857Y-78294819D01*
X164642857Y-78294819D02*
X164785714Y-78342438D01*
X164785714Y-78342438D02*
X164833333Y-78390057D01*
X165214286Y-78390057D02*
X165261905Y-78342438D01*
X165261905Y-78342438D02*
X165357143Y-78294819D01*
X165357143Y-78294819D02*
X165595238Y-78294819D01*
X165595238Y-78294819D02*
X165690476Y-78342438D01*
X165690476Y-78342438D02*
X165738095Y-78390057D01*
X165738095Y-78390057D02*
X165785714Y-78485295D01*
X165785714Y-78485295D02*
X165785714Y-78580533D01*
X165785714Y-78580533D02*
X165738095Y-78723390D01*
X165738095Y-78723390D02*
X165166667Y-79294819D01*
X165166667Y-79294819D02*
X165785714Y-79294819D01*
D13*
%TO.C,U_BUF1*%
X136140000Y-111490000D02*
X143860000Y-111490000D01*
X136140000Y-111725000D02*
X136140000Y-111490000D01*
X136140000Y-124510000D02*
X136140000Y-124275000D01*
X143860000Y-111490000D02*
X143860000Y-111725000D01*
X143860000Y-124275000D02*
X143860000Y-124510000D01*
X143860000Y-124510000D02*
X136140000Y-124510000D01*
X135350000Y-111720000D02*
X135010000Y-111250000D01*
X135690000Y-111250000D01*
X135350000Y-111720000D01*
G36*
X135350000Y-111720000D02*
G01*
X135010000Y-111250000D01*
X135690000Y-111250000D01*
X135350000Y-111720000D01*
G37*
%TO.C,C13*%
X169892164Y-89640000D02*
X170107836Y-89640000D01*
X169892164Y-90360000D02*
X170107836Y-90360000D01*
%TO.C,C12*%
X164892164Y-89640000D02*
X165107836Y-89640000D01*
X164892164Y-90360000D02*
X165107836Y-90360000D01*
%TO.C,U_MCU*%
X81390000Y-134390000D02*
X82040000Y-134390000D01*
X81390000Y-135040000D02*
X81390000Y-134390000D01*
X81390000Y-141610000D02*
X81390000Y-140960000D01*
X82040000Y-141610000D02*
X81390000Y-141610000D01*
X87960000Y-134390000D02*
X88610000Y-134390000D01*
X88610000Y-134390000D02*
X88610000Y-135040000D01*
X88610000Y-140960000D02*
X88610000Y-141610000D01*
X88610000Y-141610000D02*
X87960000Y-141610000D01*
X80860000Y-135400000D02*
X80530000Y-135640000D01*
X80530000Y-135160000D01*
X80860000Y-135400000D01*
G36*
X80860000Y-135400000D02*
G01*
X80530000Y-135640000D01*
X80530000Y-135160000D01*
X80860000Y-135400000D01*
G37*
%TO.C,D5*%
X170240000Y-105440000D02*
X171760000Y-105440000D01*
X170240000Y-105490000D02*
X170240000Y-105440000D01*
X170240000Y-107390000D02*
X170240000Y-106610000D01*
X170240000Y-108560000D02*
X170240000Y-108510000D01*
X171760000Y-105440000D02*
X171760000Y-106440000D01*
X171760000Y-107560000D02*
X171760000Y-108560000D01*
X171760000Y-108560000D02*
X170240000Y-108560000D01*
X169940000Y-106950000D02*
X169460000Y-106950000D01*
X169700000Y-106620000D01*
X169940000Y-106950000D01*
G36*
X169940000Y-106950000D02*
G01*
X169460000Y-106950000D01*
X169700000Y-106620000D01*
X169940000Y-106950000D01*
G37*
%TO.C,U_REG*%
X138150000Y-134590000D02*
X141910000Y-134590000D01*
X138150000Y-141410000D02*
X141910000Y-141410000D01*
X141910000Y-134590000D02*
X141910000Y-135850000D01*
X141910000Y-141410000D02*
X141910000Y-140150000D01*
X136870000Y-134690000D02*
X136630000Y-134360000D01*
X137110000Y-134360000D01*
X136870000Y-134690000D01*
G36*
X136870000Y-134690000D02*
G01*
X136630000Y-134360000D01*
X137110000Y-134360000D01*
X136870000Y-134690000D01*
G37*
%TO.C,R1*%
X179846359Y-97620000D02*
X180153641Y-97620000D01*
X179846359Y-98380000D02*
X180153641Y-98380000D01*
%TO.C,R4*%
X188846359Y-97620000D02*
X189153641Y-97620000D01*
X188846359Y-98380000D02*
X189153641Y-98380000D01*
%TO.C,U_BUF2*%
X161140000Y-111490000D02*
X168860000Y-111490000D01*
X161140000Y-111725000D02*
X161140000Y-111490000D01*
X161140000Y-124510000D02*
X161140000Y-124275000D01*
X168860000Y-111490000D02*
X168860000Y-111725000D01*
X168860000Y-124275000D02*
X168860000Y-124510000D01*
X168860000Y-124510000D02*
X161140000Y-124510000D01*
X160350000Y-111720000D02*
X160010000Y-111250000D01*
X160690000Y-111250000D01*
X160350000Y-111720000D01*
G36*
X160350000Y-111720000D02*
G01*
X160010000Y-111250000D01*
X160690000Y-111250000D01*
X160350000Y-111720000D01*
G37*
%TO.C,C5*%
X179892164Y-79640000D02*
X180107836Y-79640000D01*
X179892164Y-80360000D02*
X180107836Y-80360000D01*
%TO.C,C11*%
X159892164Y-89640000D02*
X160107836Y-89640000D01*
X159892164Y-90360000D02*
X160107836Y-90360000D01*
%TO.C,D2*%
X170240000Y-100440000D02*
X171760000Y-100440000D01*
X170240000Y-100490000D02*
X170240000Y-100440000D01*
X170240000Y-102390000D02*
X170240000Y-101610000D01*
X170240000Y-103560000D02*
X170240000Y-103510000D01*
X171760000Y-100440000D02*
X171760000Y-101440000D01*
X171760000Y-102560000D02*
X171760000Y-103560000D01*
X171760000Y-103560000D02*
X170240000Y-103560000D01*
X169940000Y-101950000D02*
X169460000Y-101950000D01*
X169700000Y-101620000D01*
X169940000Y-101950000D01*
G36*
X169940000Y-101950000D02*
G01*
X169460000Y-101950000D01*
X169700000Y-101620000D01*
X169940000Y-101950000D01*
G37*
%TO.C,C9*%
X174892164Y-84640000D02*
X175107836Y-84640000D01*
X174892164Y-85360000D02*
X175107836Y-85360000D01*
%TO.C,C18*%
X101892164Y-141640000D02*
X102107836Y-141640000D01*
X101892164Y-142360000D02*
X102107836Y-142360000D01*
%TO.C,C15*%
X167738748Y-94265000D02*
X168261252Y-94265000D01*
X167738748Y-95735000D02*
X168261252Y-95735000D01*
%TO.C,U_PROM*%
X70690000Y-93840000D02*
X89310000Y-93840000D01*
X89310000Y-106160000D02*
X70690000Y-106160000D01*
X69260000Y-94250000D02*
X68930000Y-94490000D01*
X68930000Y-94010000D01*
X69260000Y-94250000D01*
G36*
X69260000Y-94250000D02*
G01*
X68930000Y-94490000D01*
X68930000Y-94010000D01*
X69260000Y-94250000D01*
G37*
%TO.C,D3*%
X176240000Y-100440000D02*
X177760000Y-100440000D01*
X176240000Y-100490000D02*
X176240000Y-100440000D01*
X176240000Y-102390000D02*
X176240000Y-101610000D01*
X176240000Y-103560000D02*
X176240000Y-103510000D01*
X177760000Y-100440000D02*
X177760000Y-101440000D01*
X177760000Y-102560000D02*
X177760000Y-103560000D01*
X177760000Y-103560000D02*
X176240000Y-103560000D01*
X175940000Y-101950000D02*
X175460000Y-101950000D01*
X175700000Y-101620000D01*
X175940000Y-101950000D01*
G36*
X175940000Y-101950000D02*
G01*
X175460000Y-101950000D01*
X175700000Y-101620000D01*
X175940000Y-101950000D01*
G37*
%TO.C,U_SR3*%
X107940000Y-112940000D02*
X112060000Y-112940000D01*
X107940000Y-112995000D02*
X107940000Y-112940000D01*
X107940000Y-123060000D02*
X107940000Y-123005000D01*
X112060000Y-112940000D02*
X112060000Y-112995000D01*
X112060000Y-123005000D02*
X112060000Y-123060000D01*
X112060000Y-123060000D02*
X107940000Y-123060000D01*
X107400000Y-112990000D02*
X107160000Y-112660000D01*
X107640000Y-112660000D01*
X107400000Y-112990000D01*
G36*
X107400000Y-112990000D02*
G01*
X107160000Y-112660000D01*
X107640000Y-112660000D01*
X107400000Y-112990000D01*
G37*
%TO.C,R6*%
X179846359Y-101620000D02*
X180153641Y-101620000D01*
X179846359Y-102380000D02*
X180153641Y-102380000D01*
%TO.C,C3*%
X169892164Y-79640000D02*
X170107836Y-79640000D01*
X169892164Y-80360000D02*
X170107836Y-80360000D01*
%TO.C,D1*%
X164240000Y-100440000D02*
X165760000Y-100440000D01*
X164240000Y-100490000D02*
X164240000Y-100440000D01*
X164240000Y-102390000D02*
X164240000Y-101610000D01*
X164240000Y-103560000D02*
X164240000Y-103510000D01*
X165760000Y-100440000D02*
X165760000Y-101440000D01*
X165760000Y-102560000D02*
X165760000Y-103560000D01*
X165760000Y-103560000D02*
X164240000Y-103560000D01*
X163940000Y-101950000D02*
X163460000Y-101950000D01*
X163700000Y-101620000D01*
X163940000Y-101950000D01*
G36*
X163940000Y-101950000D02*
G01*
X163460000Y-101950000D01*
X163700000Y-101620000D01*
X163940000Y-101950000D01*
G37*
%TO.C,D6*%
X176240000Y-105440000D02*
X177760000Y-105440000D01*
X176240000Y-105490000D02*
X176240000Y-105440000D01*
X176240000Y-107390000D02*
X176240000Y-106610000D01*
X176240000Y-108560000D02*
X176240000Y-108510000D01*
X177760000Y-105440000D02*
X177760000Y-106440000D01*
X177760000Y-107560000D02*
X177760000Y-108560000D01*
X177760000Y-108560000D02*
X176240000Y-108560000D01*
X175940000Y-106950000D02*
X175460000Y-106950000D01*
X175700000Y-106620000D01*
X175940000Y-106950000D01*
G36*
X175940000Y-106950000D02*
G01*
X175460000Y-106950000D01*
X175700000Y-106620000D01*
X175940000Y-106950000D01*
G37*
%TO.C,C8*%
X169892164Y-84640000D02*
X170107836Y-84640000D01*
X169892164Y-85360000D02*
X170107836Y-85360000D01*
%TO.C,U_FLASH*%
X112940000Y-135440000D02*
X117060000Y-135440000D01*
X112940000Y-135535000D02*
X112940000Y-135440000D01*
X112940000Y-140560000D02*
X112940000Y-140465000D01*
X117060000Y-135440000D02*
X117060000Y-135535000D01*
X117060000Y-140465000D02*
X117060000Y-140560000D01*
X117060000Y-140560000D02*
X112940000Y-140560000D01*
X112400000Y-135530000D02*
X112160000Y-135200000D01*
X112640000Y-135200000D01*
X112400000Y-135530000D01*
G36*
X112400000Y-135530000D02*
G01*
X112160000Y-135200000D01*
X112640000Y-135200000D01*
X112400000Y-135530000D01*
G37*
%TO.C,R7*%
X182846359Y-101620000D02*
X183153641Y-101620000D01*
X182846359Y-102380000D02*
X183153641Y-102380000D01*
%TO.C,U_MROM*%
X124175000Y-94077218D02*
X124175000Y-94360000D01*
X124175000Y-107095000D02*
X124175000Y-105640000D01*
X125347218Y-92905000D02*
X124175000Y-94077218D01*
X125630000Y-92905000D02*
X125347218Y-92905000D01*
X125630000Y-107095000D02*
X124175000Y-107095000D01*
X134370000Y-92905000D02*
X135825000Y-92905000D01*
X134370000Y-107095000D02*
X135825000Y-107095000D01*
X135825000Y-92905000D02*
X135825000Y-94360000D01*
X135825000Y-107095000D02*
X135825000Y-105640000D01*
%TO.C,J_USB*%
X189320000Y-139500000D02*
X189320000Y-130550000D01*
X192400000Y-130430000D02*
X193300000Y-130430000D01*
X192400000Y-139620000D02*
X193300000Y-139620000D01*
X196000000Y-130430000D02*
X198730000Y-130430000D01*
X196000000Y-139620000D02*
X198730000Y-139620000D01*
X198730000Y-139620000D02*
X198730000Y-130430000D01*
%TO.C,D4*%
X164240000Y-105440000D02*
X165760000Y-105440000D01*
X164240000Y-105490000D02*
X164240000Y-105440000D01*
X164240000Y-107390000D02*
X164240000Y-106610000D01*
X164240000Y-108560000D02*
X164240000Y-108510000D01*
X165760000Y-105440000D02*
X165760000Y-106440000D01*
X165760000Y-107560000D02*
X165760000Y-108560000D01*
X165760000Y-108560000D02*
X164240000Y-108560000D01*
X163940000Y-106950000D02*
X163460000Y-106950000D01*
X163700000Y-106620000D01*
X163940000Y-106950000D01*
G36*
X163940000Y-106950000D02*
G01*
X163460000Y-106950000D01*
X163700000Y-106620000D01*
X163940000Y-106950000D01*
G37*
%TO.C,U_SR1*%
X67940000Y-112940000D02*
X72060000Y-112940000D01*
X67940000Y-112995000D02*
X67940000Y-112940000D01*
X67940000Y-123060000D02*
X67940000Y-123005000D01*
X72060000Y-112940000D02*
X72060000Y-112995000D01*
X72060000Y-123005000D02*
X72060000Y-123060000D01*
X72060000Y-123060000D02*
X67940000Y-123060000D01*
X67400000Y-112990000D02*
X67160000Y-112660000D01*
X67640000Y-112660000D01*
X67400000Y-112990000D01*
G36*
X67400000Y-112990000D02*
G01*
X67160000Y-112660000D01*
X67640000Y-112660000D01*
X67400000Y-112990000D01*
G37*
%TO.C,C17*%
X97892164Y-141640000D02*
X98107836Y-141640000D01*
X97892164Y-142360000D02*
X98107836Y-142360000D01*
%TO.C,U_SROM*%
X149175000Y-74077218D02*
X149175000Y-74360000D01*
X149175000Y-87095000D02*
X149175000Y-85640000D01*
X150347218Y-72905000D02*
X149175000Y-74077218D01*
X150630000Y-72905000D02*
X150347218Y-72905000D01*
X150630000Y-87095000D02*
X149175000Y-87095000D01*
X159370000Y-72905000D02*
X160825000Y-72905000D01*
X159370000Y-87095000D02*
X160825000Y-87095000D01*
X160825000Y-72905000D02*
X160825000Y-74360000D01*
X160825000Y-87095000D02*
X160825000Y-85640000D01*
%TO.C,C4*%
X174892164Y-79640000D02*
X175107836Y-79640000D01*
X174892164Y-80360000D02*
X175107836Y-80360000D01*
%TO.C,U_SR2*%
X87940000Y-112940000D02*
X92060000Y-112940000D01*
X87940000Y-112995000D02*
X87940000Y-112940000D01*
X87940000Y-123060000D02*
X87940000Y-123005000D01*
X92060000Y-112940000D02*
X92060000Y-112995000D01*
X92060000Y-123005000D02*
X92060000Y-123060000D01*
X92060000Y-123060000D02*
X87940000Y-123060000D01*
X87400000Y-112990000D02*
X87160000Y-112660000D01*
X87640000Y-112660000D01*
X87400000Y-112990000D01*
G36*
X87400000Y-112990000D02*
G01*
X87160000Y-112660000D01*
X87640000Y-112660000D01*
X87400000Y-112990000D01*
G37*
%TO.C,U_CROM1*%
X70690000Y-73840000D02*
X89310000Y-73840000D01*
X89310000Y-86160000D02*
X70690000Y-86160000D01*
X69260000Y-74250000D02*
X68930000Y-74490000D01*
X68930000Y-74010000D01*
X69260000Y-74250000D01*
G36*
X69260000Y-74250000D02*
G01*
X68930000Y-74490000D01*
X68930000Y-74010000D01*
X69260000Y-74250000D01*
G37*
%TO.C,C6*%
X159892164Y-84640000D02*
X160107836Y-84640000D01*
X159892164Y-85360000D02*
X160107836Y-85360000D01*
%TO.C,R3*%
X185846359Y-97620000D02*
X186153641Y-97620000D01*
X185846359Y-98380000D02*
X186153641Y-98380000D01*
%TO.C,R2*%
X182846359Y-97620000D02*
X183153641Y-97620000D01*
X182846359Y-98380000D02*
X183153641Y-98380000D01*
%TO.C,C14*%
X159738748Y-94265000D02*
X160261252Y-94265000D01*
X159738748Y-95735000D02*
X160261252Y-95735000D01*
%TO.C,C7*%
X164892164Y-84640000D02*
X165107836Y-84640000D01*
X164892164Y-85360000D02*
X165107836Y-85360000D01*
%TO.C,Y1*%
X99325000Y-137125000D02*
X100675000Y-137125000D01*
X99325000Y-138875000D02*
X100675000Y-138875000D01*
%TO.C,U_CROM2*%
X105690000Y-73840000D02*
X124310000Y-73840000D01*
X124310000Y-86160000D02*
X105690000Y-86160000D01*
X104260000Y-74250000D02*
X103930000Y-74490000D01*
X103930000Y-74010000D01*
X104260000Y-74250000D01*
G36*
X104260000Y-74250000D02*
G01*
X103930000Y-74490000D01*
X103930000Y-74010000D01*
X104260000Y-74250000D01*
G37*
%TO.C,R5*%
X191846359Y-97620000D02*
X192153641Y-97620000D01*
X191846359Y-98380000D02*
X192153641Y-98380000D01*
%TO.C,C1*%
X159892164Y-79640000D02*
X160107836Y-79640000D01*
X159892164Y-80360000D02*
X160107836Y-80360000D01*
%TO.C,C16*%
X175738748Y-94265000D02*
X176261252Y-94265000D01*
X175738748Y-95735000D02*
X176261252Y-95735000D01*
%TO.C,C10*%
X179892164Y-84640000D02*
X180107836Y-84640000D01*
X179892164Y-85360000D02*
X180107836Y-85360000D01*
%TO.C,C2*%
X164892164Y-79640000D02*
X165107836Y-79640000D01*
X164892164Y-80360000D02*
X165107836Y-80360000D01*
%TD*%
M02*
