%TF.GenerationSoftware,KiCad,Pcbnew,9.0.8+dfsg-1*%
%TF.CreationDate,2026-04-27T08:30:16+02:00*%
%TF.ProjectId,neocart,6e656f63-6172-4742-9e6b-696361645f70,1.0*%
%TF.SameCoordinates,Original*%
%TF.FileFunction,Copper,L1,Top*%
%TF.FilePolarity,Positive*%
%FSLAX46Y46*%
G04 Gerber Fmt 4.6, Leading zero omitted, Abs format (unit mm)*
G04 Created by KiCad (PCBNEW 9.0.8+dfsg-1) date 2026-04-27 08:30:16*
%MOMM*%
%LPD*%
G01*
G04 APERTURE LIST*
G04 Aperture macros list*
%AMRoundRect*
0 Rectangle with rounded corners*
0 $1 Rounding radius*
0 $2 $3 $4 $5 $6 $7 $8 $9 X,Y pos of 4 corners*
0 Add a 4 corners polygon primitive as box body*
4,1,4,$2,$3,$4,$5,$6,$7,$8,$9,$2,$3,0*
0 Add four circle primitives for the rounded corners*
1,1,$1+$1,$2,$3*
1,1,$1+$1,$4,$5*
1,1,$1+$1,$6,$7*
1,1,$1+$1,$8,$9*
0 Add four rect primitives between the rounded corners*
20,1,$1+$1,$2,$3,$4,$5,0*
20,1,$1+$1,$4,$5,$6,$7,0*
20,1,$1+$1,$6,$7,$8,$9,0*
20,1,$1+$1,$8,$9,$2,$3,0*%
G04 Aperture macros list end*
%TA.AperFunction,SMDPad,CuDef*%
%ADD10RoundRect,0.150000X-0.875000X-0.150000X0.875000X-0.150000X0.875000X0.150000X-0.875000X0.150000X0*%
%TD*%
%TA.AperFunction,SMDPad,CuDef*%
%ADD11RoundRect,0.140000X-0.140000X-0.170000X0.140000X-0.170000X0.140000X0.170000X-0.140000X0.170000X0*%
%TD*%
%TA.AperFunction,SMDPad,CuDef*%
%ADD12RoundRect,0.050000X-0.387500X-0.050000X0.387500X-0.050000X0.387500X0.050000X-0.387500X0.050000X0*%
%TD*%
%TA.AperFunction,SMDPad,CuDef*%
%ADD13RoundRect,0.050000X-0.050000X-0.387500X0.050000X-0.387500X0.050000X0.387500X-0.050000X0.387500X0*%
%TD*%
%TA.AperFunction,HeatsinkPad*%
%ADD14R,5.600000X5.600000*%
%TD*%
%TA.AperFunction,SMDPad,CuDef*%
%ADD15RoundRect,0.150000X-0.587500X-0.150000X0.587500X-0.150000X0.587500X0.150000X-0.587500X0.150000X0*%
%TD*%
%TA.AperFunction,SMDPad,CuDef*%
%ADD16RoundRect,0.375000X-0.625000X-0.375000X0.625000X-0.375000X0.625000X0.375000X-0.625000X0.375000X0*%
%TD*%
%TA.AperFunction,SMDPad,CuDef*%
%ADD17RoundRect,0.500000X-0.500000X-1.400000X0.500000X-1.400000X0.500000X1.400000X-0.500000X1.400000X0*%
%TD*%
%TA.AperFunction,SMDPad,CuDef*%
%ADD18RoundRect,0.135000X-0.135000X-0.185000X0.135000X-0.185000X0.135000X0.185000X-0.135000X0.185000X0*%
%TD*%
%TA.AperFunction,SMDPad,CuDef*%
%ADD19RoundRect,0.250000X-0.250000X-0.475000X0.250000X-0.475000X0.250000X0.475000X-0.250000X0.475000X0*%
%TD*%
%TA.AperFunction,SMDPad,CuDef*%
%ADD20RoundRect,0.075000X-0.712500X-0.075000X0.712500X-0.075000X0.712500X0.075000X-0.712500X0.075000X0*%
%TD*%
%TA.AperFunction,SMDPad,CuDef*%
%ADD21RoundRect,0.150000X-0.825000X-0.150000X0.825000X-0.150000X0.825000X0.150000X-0.825000X0.150000X0*%
%TD*%
%TA.AperFunction,SMDPad,CuDef*%
%ADD22RoundRect,0.150000X-0.150000X-0.587500X0.150000X-0.587500X0.150000X0.587500X-0.150000X0.587500X0*%
%TD*%
%TA.AperFunction,ComponentPad*%
%ADD23C,0.700000*%
%TD*%
%TA.AperFunction,ComponentPad*%
%ADD24O,0.900000X2.400000*%
%TD*%
%TA.AperFunction,ComponentPad*%
%ADD25O,0.900000X1.700000*%
%TD*%
%TA.AperFunction,SMDPad,CuDef*%
%ADD26R,0.800000X6.000000*%
%TD*%
%TA.AperFunction,SMDPad,CuDef*%
%ADD27R,1.000000X1.800000*%
%TD*%
G04 APERTURE END LIST*
D10*
%TO.P,U_BUF1,1*%
%TO.N,BUS_DIR*%
X135350000Y-112285000D03*
%TO.P,U_BUF1,2*%
%TO.N,PRGD0*%
X135350000Y-113555000D03*
%TO.P,U_BUF1,3*%
%TO.N,PRGD1*%
X135350000Y-114825000D03*
%TO.P,U_BUF1,4*%
%TO.N,PRGD2*%
X135350000Y-116095000D03*
%TO.P,U_BUF1,5*%
%TO.N,PRGD3*%
X135350000Y-117365000D03*
%TO.P,U_BUF1,6*%
%TO.N,PRGD4*%
X135350000Y-118635000D03*
%TO.P,U_BUF1,7*%
%TO.N,PRGD5*%
X135350000Y-119905000D03*
%TO.P,U_BUF1,8*%
%TO.N,PRGD6*%
X135350000Y-121175000D03*
%TO.P,U_BUF1,9*%
%TO.N,PRGD7*%
X135350000Y-122445000D03*
%TO.P,U_BUF1,10*%
%TO.N,GND*%
X135350000Y-123715000D03*
%TO.P,U_BUF1,11*%
%TO.N,PRGD7*%
X144650000Y-123715000D03*
%TO.P,U_BUF1,12*%
%TO.N,PRGD6*%
X144650000Y-122445000D03*
%TO.P,U_BUF1,13*%
%TO.N,PRGD5*%
X144650000Y-121175000D03*
%TO.P,U_BUF1,14*%
%TO.N,PRGD4*%
X144650000Y-119905000D03*
%TO.P,U_BUF1,15*%
%TO.N,PRGD3*%
X144650000Y-118635000D03*
%TO.P,U_BUF1,16*%
%TO.N,PRGD2*%
X144650000Y-117365000D03*
%TO.P,U_BUF1,17*%
%TO.N,PRGD1*%
X144650000Y-116095000D03*
%TO.P,U_BUF1,18*%
%TO.N,PRGD0*%
X144650000Y-114825000D03*
%TO.P,U_BUF1,19*%
%TO.N,BUF_nOE*%
X144650000Y-113555000D03*
%TO.P,U_BUF1,20*%
%TO.N,VCC_5V*%
X144650000Y-112285000D03*
%TD*%
D11*
%TO.P,C13,1*%
%TO.N,N/C*%
X169520000Y-90000000D03*
%TO.P,C13,2*%
X170480000Y-90000000D03*
%TD*%
%TO.P,C12,1*%
%TO.N,N/C*%
X164520000Y-90000000D03*
%TO.P,C12,2*%
X165480000Y-90000000D03*
%TD*%
D12*
%TO.P,U_MCU,1*%
%TO.N,VCC_3V3*%
X81562500Y-135400000D03*
%TO.P,U_MCU,2*%
%TO.N,SR_SER*%
X81562500Y-135800000D03*
%TO.P,U_MCU,3*%
%TO.N,SR_SRCLK*%
X81562500Y-136200000D03*
%TO.P,U_MCU,4*%
%TO.N,SR_RCLK*%
X81562500Y-136600000D03*
%TO.P,U_MCU,5*%
%TO.N,PRGD0*%
X81562500Y-137000000D03*
%TO.P,U_MCU,6*%
%TO.N,PRGD1*%
X81562500Y-137400000D03*
%TO.P,U_MCU,7*%
%TO.N,PRGD2*%
X81562500Y-137800000D03*
%TO.P,U_MCU,8*%
%TO.N,PRGD3*%
X81562500Y-138200000D03*
%TO.P,U_MCU,9*%
%TO.N,PRGD4*%
X81562500Y-138600000D03*
%TO.P,U_MCU,10*%
%TO.N,PRGD5*%
X81562500Y-139000000D03*
%TO.P,U_MCU,11*%
%TO.N,PRGD6*%
X81562500Y-139400000D03*
%TO.P,U_MCU,12*%
%TO.N,PRGD7*%
X81562500Y-139800000D03*
%TO.P,U_MCU,13*%
%TO.N,PROG_nWE*%
X81562500Y-140200000D03*
%TO.P,U_MCU,14*%
%TO.N,PROG_nOE*%
X81562500Y-140600000D03*
D13*
%TO.P,U_MCU,15*%
%TO.N,PROG_nCE_P*%
X82400000Y-141437500D03*
%TO.P,U_MCU,16*%
%TO.N,PROG_nCE_S*%
X82800000Y-141437500D03*
%TO.P,U_MCU,17*%
%TO.N,PROG_nCE_M*%
X83200000Y-141437500D03*
%TO.P,U_MCU,18*%
%TO.N,PROG_nCE_C1*%
X83600000Y-141437500D03*
%TO.P,U_MCU,19*%
%TO.N,PROG_nCE_C2*%
X84000000Y-141437500D03*
%TO.P,U_MCU,20*%
%TO.N,PROG_nBYTE*%
X84400000Y-141437500D03*
%TO.P,U_MCU,21*%
%TO.N,BUS_DIR*%
X84800000Y-141437500D03*
%TO.P,U_MCU,22*%
%TO.N,SR_nOE*%
X85200000Y-141437500D03*
%TO.P,U_MCU,23*%
%TO.N,BUF_nOE*%
X85600000Y-141437500D03*
%TO.P,U_MCU,24*%
%TO.N,N/C*%
X86000000Y-141437500D03*
%TO.P,U_MCU,25*%
X86400000Y-141437500D03*
%TO.P,U_MCU,26*%
X86800000Y-141437500D03*
%TO.P,U_MCU,27*%
X87200000Y-141437500D03*
%TO.P,U_MCU,28*%
X87600000Y-141437500D03*
D12*
%TO.P,U_MCU,29*%
X88437500Y-140600000D03*
%TO.P,U_MCU,30*%
X88437500Y-140200000D03*
%TO.P,U_MCU,31*%
X88437500Y-139800000D03*
%TO.P,U_MCU,32*%
%TO.N,RUN*%
X88437500Y-139400000D03*
%TO.P,U_MCU,33*%
%TO.N,USB_DP*%
X88437500Y-139000000D03*
%TO.P,U_MCU,34*%
%TO.N,USB_DM*%
X88437500Y-138600000D03*
%TO.P,U_MCU,35*%
%TO.N,USB_VDD*%
X88437500Y-138200000D03*
%TO.P,U_MCU,36*%
%TO.N,QSPI_SS*%
X88437500Y-137800000D03*
%TO.P,U_MCU,37*%
%TO.N,QSPI_SCLK*%
X88437500Y-137400000D03*
%TO.P,U_MCU,38*%
%TO.N,QSPI_SD0*%
X88437500Y-137000000D03*
%TO.P,U_MCU,39*%
%TO.N,QSPI_SD1*%
X88437500Y-136600000D03*
%TO.P,U_MCU,40*%
%TO.N,QSPI_SD2*%
X88437500Y-136200000D03*
%TO.P,U_MCU,41*%
%TO.N,QSPI_SD3*%
X88437500Y-135800000D03*
%TO.P,U_MCU,42*%
%TO.N,XIN*%
X88437500Y-135400000D03*
D13*
%TO.P,U_MCU,43*%
%TO.N,XOUT*%
X87600000Y-134562500D03*
%TO.P,U_MCU,44*%
%TO.N,VCC_3V3*%
X87200000Y-134562500D03*
%TO.P,U_MCU,45*%
X86800000Y-134562500D03*
%TO.P,U_MCU,46*%
X86400000Y-134562500D03*
%TO.P,U_MCU,47*%
X86000000Y-134562500D03*
%TO.P,U_MCU,48*%
X85600000Y-134562500D03*
%TO.P,U_MCU,49*%
X85200000Y-134562500D03*
%TO.P,U_MCU,50*%
X84800000Y-134562500D03*
%TO.P,U_MCU,51*%
X84400000Y-134562500D03*
%TO.P,U_MCU,52*%
X84000000Y-134562500D03*
%TO.P,U_MCU,53*%
X83600000Y-134562500D03*
%TO.P,U_MCU,54*%
X83200000Y-134562500D03*
%TO.P,U_MCU,55*%
X82800000Y-134562500D03*
%TO.P,U_MCU,56*%
%TO.N,GND*%
X82400000Y-134562500D03*
D14*
%TO.P,U_MCU,57*%
X85000000Y-138000000D03*
%TD*%
D15*
%TO.P,D5,1*%
%TO.N,N/C*%
X170062500Y-106050000D03*
%TO.P,D5,2*%
X170062500Y-107950000D03*
%TO.P,D5,3*%
X171937500Y-107000000D03*
%TD*%
D16*
%TO.P,U_REG,1*%
%TO.N,GND*%
X136850000Y-135700000D03*
%TO.P,U_REG,2*%
%TO.N,N/C*%
X136850000Y-138000000D03*
D17*
%TO.N,VCC_3V3*%
X143150000Y-138000000D03*
D16*
%TO.P,U_REG,3*%
%TO.N,VCC_5V*%
X136850000Y-140300000D03*
%TD*%
D18*
%TO.P,R1,1*%
%TO.N,N/C*%
X179490000Y-98000000D03*
%TO.P,R1,2*%
X180510000Y-98000000D03*
%TD*%
%TO.P,R4,1*%
%TO.N,N/C*%
X188490000Y-98000000D03*
%TO.P,R4,2*%
X189510000Y-98000000D03*
%TD*%
D10*
%TO.P,U_BUF2,1*%
%TO.N,BUS_DIR*%
X160350000Y-112285000D03*
%TO.P,U_BUF2,2*%
%TO.N,PROG_nCE_P*%
X160350000Y-113555000D03*
%TO.P,U_BUF2,3*%
%TO.N,PROG_nCE_S*%
X160350000Y-114825000D03*
%TO.P,U_BUF2,4*%
%TO.N,PROG_nCE_M*%
X160350000Y-116095000D03*
%TO.P,U_BUF2,5*%
%TO.N,PROG_nCE_C1*%
X160350000Y-117365000D03*
%TO.P,U_BUF2,6*%
%TO.N,PROG_nCE_C2*%
X160350000Y-118635000D03*
%TO.P,U_BUF2,7*%
%TO.N,PROG_nWE*%
X160350000Y-119905000D03*
%TO.P,U_BUF2,8*%
%TO.N,PROG_nOE*%
X160350000Y-121175000D03*
%TO.P,U_BUF2,9*%
%TO.N,PROG_nBYTE*%
X160350000Y-122445000D03*
%TO.P,U_BUF2,10*%
%TO.N,GND*%
X160350000Y-123715000D03*
%TO.P,U_BUF2,11*%
%TO.N,nBYTE_FLASH*%
X169650000Y-123715000D03*
%TO.P,U_BUF2,12*%
%TO.N,nOE_P*%
X169650000Y-122445000D03*
%TO.P,U_BUF2,13*%
%TO.N,nWE_P*%
X169650000Y-121175000D03*
%TO.P,U_BUF2,14*%
%TO.N,nCE_C2*%
X169650000Y-119905000D03*
%TO.P,U_BUF2,15*%
%TO.N,nCE_C1*%
X169650000Y-118635000D03*
%TO.P,U_BUF2,16*%
%TO.N,nCE_M*%
X169650000Y-117365000D03*
%TO.P,U_BUF2,17*%
%TO.N,nCE_S*%
X169650000Y-116095000D03*
%TO.P,U_BUF2,18*%
%TO.N,nCE_P*%
X169650000Y-114825000D03*
%TO.P,U_BUF2,19*%
%TO.N,BUF_nOE*%
X169650000Y-113555000D03*
%TO.P,U_BUF2,20*%
%TO.N,VCC_5V*%
X169650000Y-112285000D03*
%TD*%
D11*
%TO.P,C5,1*%
%TO.N,N/C*%
X179520000Y-80000000D03*
%TO.P,C5,2*%
X180480000Y-80000000D03*
%TD*%
%TO.P,C11,1*%
%TO.N,N/C*%
X159520000Y-90000000D03*
%TO.P,C11,2*%
X160480000Y-90000000D03*
%TD*%
D15*
%TO.P,D2,1*%
%TO.N,N/C*%
X170062500Y-101050000D03*
%TO.P,D2,2*%
X170062500Y-102950000D03*
%TO.P,D2,3*%
X171937500Y-102000000D03*
%TD*%
D11*
%TO.P,C9,1*%
%TO.N,N/C*%
X174520000Y-85000000D03*
%TO.P,C9,2*%
X175480000Y-85000000D03*
%TD*%
%TO.P,C18,1*%
%TO.N,N/C*%
X101520000Y-142000000D03*
%TO.P,C18,2*%
X102480000Y-142000000D03*
%TD*%
D19*
%TO.P,C15,1*%
%TO.N,N/C*%
X167050000Y-95000000D03*
%TO.P,C15,2*%
X168950000Y-95000000D03*
%TD*%
D20*
%TO.P,U_PROM,1*%
%TO.N,PA15*%
X70312500Y-94250000D03*
%TO.P,U_PROM,2*%
%TO.N,PA14*%
X70312500Y-94750000D03*
%TO.P,U_PROM,3*%
%TO.N,PA13*%
X70312500Y-95250000D03*
%TO.P,U_PROM,4*%
%TO.N,PA12*%
X70312500Y-95750000D03*
%TO.P,U_PROM,5*%
%TO.N,PA11*%
X70312500Y-96250000D03*
%TO.P,U_PROM,6*%
%TO.N,PA10*%
X70312500Y-96750000D03*
%TO.P,U_PROM,7*%
%TO.N,PA9*%
X70312500Y-97250000D03*
%TO.P,U_PROM,8*%
%TO.N,PA8*%
X70312500Y-97750000D03*
%TO.P,U_PROM,9*%
%TO.N,N/C*%
X70312500Y-98250000D03*
%TO.P,U_PROM,10*%
X70312500Y-98750000D03*
%TO.P,U_PROM,11*%
%TO.N,nBYTE_FLASH*%
X70312500Y-99250000D03*
%TO.P,U_PROM,12*%
%TO.N,VCC_5V*%
X70312500Y-99750000D03*
%TO.P,U_PROM,13*%
%TO.N,N/C*%
X70312500Y-100250000D03*
%TO.P,U_PROM,14*%
X70312500Y-100750000D03*
%TO.P,U_PROM,15*%
X70312500Y-101250000D03*
%TO.P,U_PROM,16*%
X70312500Y-101750000D03*
%TO.P,U_PROM,17*%
%TO.N,nCE_P*%
X70312500Y-102250000D03*
%TO.P,U_PROM,18*%
%TO.N,PA7*%
X70312500Y-102750000D03*
%TO.P,U_PROM,19*%
%TO.N,PA6*%
X70312500Y-103250000D03*
%TO.P,U_PROM,20*%
%TO.N,PA5*%
X70312500Y-103750000D03*
%TO.P,U_PROM,21*%
%TO.N,PA4*%
X70312500Y-104250000D03*
%TO.P,U_PROM,22*%
%TO.N,PA3*%
X70312500Y-104750000D03*
%TO.P,U_PROM,23*%
%TO.N,PA2*%
X70312500Y-105250000D03*
%TO.P,U_PROM,24*%
%TO.N,PA1*%
X70312500Y-105750000D03*
%TO.P,U_PROM,25*%
%TO.N,PA0*%
X89687500Y-105750000D03*
%TO.P,U_PROM,26*%
%TO.N,nOE_P*%
X89687500Y-105250000D03*
%TO.P,U_PROM,27*%
%TO.N,GND*%
X89687500Y-104750000D03*
%TO.P,U_PROM,28*%
%TO.N,nWE_P*%
X89687500Y-104250000D03*
%TO.P,U_PROM,29*%
%TO.N,PD0*%
X89687500Y-103750000D03*
%TO.P,U_PROM,30*%
%TO.N,PD8*%
X89687500Y-103250000D03*
%TO.P,U_PROM,31*%
%TO.N,PD1*%
X89687500Y-102750000D03*
%TO.P,U_PROM,32*%
%TO.N,PD9*%
X89687500Y-102250000D03*
%TO.P,U_PROM,33*%
%TO.N,PD2*%
X89687500Y-101750000D03*
%TO.P,U_PROM,34*%
%TO.N,PD10*%
X89687500Y-101250000D03*
%TO.P,U_PROM,35*%
%TO.N,PD3*%
X89687500Y-100750000D03*
%TO.P,U_PROM,36*%
%TO.N,PD11*%
X89687500Y-100250000D03*
%TO.P,U_PROM,37*%
%TO.N,GND*%
X89687500Y-99750000D03*
%TO.P,U_PROM,38*%
%TO.N,PD4*%
X89687500Y-99250000D03*
%TO.P,U_PROM,39*%
%TO.N,PD12*%
X89687500Y-98750000D03*
%TO.P,U_PROM,40*%
%TO.N,PD5*%
X89687500Y-98250000D03*
%TO.P,U_PROM,41*%
%TO.N,PD13*%
X89687500Y-97750000D03*
%TO.P,U_PROM,42*%
%TO.N,PD6*%
X89687500Y-97250000D03*
%TO.P,U_PROM,43*%
%TO.N,PD14*%
X89687500Y-96750000D03*
%TO.P,U_PROM,44*%
%TO.N,PD7*%
X89687500Y-96250000D03*
%TO.P,U_PROM,45*%
%TO.N,PD15*%
X89687500Y-95750000D03*
%TO.P,U_PROM,46*%
%TO.N,VCC_5V*%
X89687500Y-95250000D03*
%TO.P,U_PROM,47*%
%TO.N,PA17*%
X89687500Y-94750000D03*
%TO.P,U_PROM,48*%
%TO.N,PA16*%
X89687500Y-94250000D03*
%TD*%
D15*
%TO.P,D3,1*%
%TO.N,N/C*%
X176062500Y-101050000D03*
%TO.P,D3,2*%
X176062500Y-102950000D03*
%TO.P,D3,3*%
X177937500Y-102000000D03*
%TD*%
D21*
%TO.P,U_SR3,1*%
%TO.N,PRGA17*%
X107525000Y-113555000D03*
%TO.P,U_SR3,2*%
%TO.N,PRGA18*%
X107525000Y-114825000D03*
%TO.P,U_SR3,3*%
%TO.N,PRGA19*%
X107525000Y-116095000D03*
%TO.P,U_SR3,4*%
%TO.N,PRGA20*%
X107525000Y-117365000D03*
%TO.P,U_SR3,5*%
%TO.N,PRGA21*%
X107525000Y-118635000D03*
%TO.P,U_SR3,6*%
%TO.N,PRGA22*%
X107525000Y-119905000D03*
%TO.P,U_SR3,7*%
%TO.N,PRGA23*%
X107525000Y-121175000D03*
%TO.P,U_SR3,8*%
%TO.N,GND*%
X107525000Y-122445000D03*
%TO.P,U_SR3,9*%
X112475000Y-122445000D03*
%TO.P,U_SR3,10*%
%TO.N,VCC_3V3*%
X112475000Y-121175000D03*
%TO.P,U_SR3,11*%
%TO.N,SR_SRCLK*%
X112475000Y-119905000D03*
%TO.P,U_SR3,12*%
%TO.N,SR_RCLK*%
X112475000Y-118635000D03*
%TO.P,U_SR3,13*%
%TO.N,SR_nOE*%
X112475000Y-117365000D03*
%TO.P,U_SR3,14*%
%TO.N,SR_CHAIN_1*%
X112475000Y-116095000D03*
%TO.P,U_SR3,15*%
%TO.N,PRGA16*%
X112475000Y-114825000D03*
%TO.P,U_SR3,16*%
%TO.N,VCC_3V3*%
X112475000Y-113555000D03*
%TD*%
D18*
%TO.P,R6,1*%
%TO.N,N/C*%
X179490000Y-102000000D03*
%TO.P,R6,2*%
X180510000Y-102000000D03*
%TD*%
D11*
%TO.P,C3,1*%
%TO.N,N/C*%
X169520000Y-80000000D03*
%TO.P,C3,2*%
X170480000Y-80000000D03*
%TD*%
D15*
%TO.P,D1,1*%
%TO.N,N/C*%
X164062500Y-101050000D03*
%TO.P,D1,2*%
X164062500Y-102950000D03*
%TO.P,D1,3*%
X165937500Y-102000000D03*
%TD*%
%TO.P,D6,1*%
%TO.N,N/C*%
X176062500Y-106050000D03*
%TO.P,D6,2*%
X176062500Y-107950000D03*
%TO.P,D6,3*%
X177937500Y-107000000D03*
%TD*%
D11*
%TO.P,C8,1*%
%TO.N,N/C*%
X169520000Y-85000000D03*
%TO.P,C8,2*%
X170480000Y-85000000D03*
%TD*%
D21*
%TO.P,U_FLASH,1*%
%TO.N,QSPI_SS*%
X112525000Y-136095000D03*
%TO.P,U_FLASH,2*%
%TO.N,QSPI_SD1*%
X112525000Y-137365000D03*
%TO.P,U_FLASH,3*%
%TO.N,VCC_3V3*%
X112525000Y-138635000D03*
%TO.P,U_FLASH,4*%
%TO.N,GND*%
X112525000Y-139905000D03*
%TO.P,U_FLASH,5*%
%TO.N,QSPI_SD0*%
X117475000Y-139905000D03*
%TO.P,U_FLASH,6*%
%TO.N,QSPI_SCLK*%
X117475000Y-138635000D03*
%TO.P,U_FLASH,7*%
%TO.N,VCC_3V3*%
X117475000Y-137365000D03*
%TO.P,U_FLASH,8*%
X117475000Y-136095000D03*
%TD*%
D18*
%TO.P,R7,1*%
%TO.N,N/C*%
X182490000Y-102000000D03*
%TO.P,R7,2*%
X183510000Y-102000000D03*
%TD*%
D22*
%TO.P,U_MROM,1*%
%TO.N,N/C*%
X130000000Y-93162500D03*
%TO.P,U_MROM,2*%
%TO.N,MA16*%
X128730000Y-93162500D03*
%TO.P,U_MROM,3*%
%TO.N,MA15*%
X127460000Y-93162500D03*
%TO.P,U_MROM,4*%
%TO.N,MA12*%
X126190000Y-93162500D03*
D15*
%TO.P,U_MROM,5*%
%TO.N,MA7*%
X124437500Y-94920000D03*
%TO.P,U_MROM,6*%
%TO.N,MA6*%
X124437500Y-96190000D03*
%TO.P,U_MROM,7*%
%TO.N,MA5*%
X124437500Y-97460000D03*
%TO.P,U_MROM,8*%
%TO.N,MA4*%
X124437500Y-98730000D03*
%TO.P,U_MROM,9*%
%TO.N,MA3*%
X124437500Y-100000000D03*
%TO.P,U_MROM,10*%
%TO.N,MA2*%
X124437500Y-101270000D03*
%TO.P,U_MROM,11*%
%TO.N,MA1*%
X124437500Y-102540000D03*
%TO.P,U_MROM,12*%
%TO.N,MA0*%
X124437500Y-103810000D03*
%TO.P,U_MROM,13*%
%TO.N,MD0*%
X124437500Y-105080000D03*
D22*
%TO.P,U_MROM,14*%
%TO.N,MD1*%
X126190000Y-106837500D03*
%TO.P,U_MROM,15*%
%TO.N,MD2*%
X127460000Y-106837500D03*
%TO.P,U_MROM,16*%
%TO.N,GND*%
X128730000Y-106837500D03*
%TO.P,U_MROM,17*%
%TO.N,MD3*%
X130000000Y-106837500D03*
%TO.P,U_MROM,18*%
%TO.N,MD4*%
X131270000Y-106837500D03*
%TO.P,U_MROM,19*%
%TO.N,MD5*%
X132540000Y-106837500D03*
%TO.P,U_MROM,20*%
%TO.N,MD6*%
X133810000Y-106837500D03*
D15*
%TO.P,U_MROM,21*%
%TO.N,MD7*%
X135562500Y-105080000D03*
%TO.P,U_MROM,22*%
%TO.N,nCE_M*%
X135562500Y-103810000D03*
%TO.P,U_MROM,23*%
%TO.N,MA10*%
X135562500Y-102540000D03*
%TO.P,U_MROM,24*%
%TO.N,nOE_M*%
X135562500Y-101270000D03*
%TO.P,U_MROM,25*%
%TO.N,MA11*%
X135562500Y-100000000D03*
%TO.P,U_MROM,26*%
%TO.N,MA9*%
X135562500Y-98730000D03*
%TO.P,U_MROM,27*%
%TO.N,MA8*%
X135562500Y-97460000D03*
%TO.P,U_MROM,28*%
%TO.N,MA13*%
X135562500Y-96190000D03*
%TO.P,U_MROM,29*%
%TO.N,MA14*%
X135562500Y-94920000D03*
D22*
%TO.P,U_MROM,30*%
%TO.N,N/C*%
X133810000Y-93162500D03*
%TO.P,U_MROM,31*%
%TO.N,nWE_M*%
X132540000Y-93162500D03*
%TO.P,U_MROM,32*%
%TO.N,VCC_5V*%
X131270000Y-93162500D03*
%TD*%
D23*
%TO.P,J_USB,A1*%
%TO.N,N/C*%
X190000000Y-138000000D03*
%TO.P,J_USB,A4*%
X190000000Y-137150000D03*
%TO.P,J_USB,A5*%
X190000000Y-136300000D03*
%TO.P,J_USB,A6*%
X190000000Y-135450000D03*
%TO.P,J_USB,A7*%
X190000000Y-134600000D03*
%TO.P,J_USB,A8*%
X190000000Y-133750000D03*
%TO.P,J_USB,A9*%
X190000000Y-132900000D03*
%TO.P,J_USB,A12*%
X190000000Y-132050000D03*
%TO.P,J_USB,B1*%
X191350000Y-132050000D03*
%TO.P,J_USB,B4*%
X191350000Y-132900000D03*
%TO.P,J_USB,B5*%
X191350000Y-133750000D03*
%TO.P,J_USB,B6*%
X191350000Y-134600000D03*
%TO.P,J_USB,B7*%
X191350000Y-135450000D03*
%TO.P,J_USB,B8*%
X191350000Y-136300000D03*
%TO.P,J_USB,B9*%
X191350000Y-137150000D03*
%TO.P,J_USB,B12*%
X191350000Y-138000000D03*
D24*
%TO.P,J_USB,S1*%
X190980000Y-139350000D03*
D25*
X194360000Y-139350000D03*
D24*
X190980000Y-130700000D03*
D25*
X194360000Y-130700000D03*
%TD*%
D15*
%TO.P,D4,1*%
%TO.N,N/C*%
X164062500Y-106050000D03*
%TO.P,D4,2*%
X164062500Y-107950000D03*
%TO.P,D4,3*%
X165937500Y-107000000D03*
%TD*%
D21*
%TO.P,U_SR1,1*%
%TO.N,PRGA1*%
X67525000Y-113555000D03*
%TO.P,U_SR1,2*%
%TO.N,PRGA2*%
X67525000Y-114825000D03*
%TO.P,U_SR1,3*%
%TO.N,PRGA3*%
X67525000Y-116095000D03*
%TO.P,U_SR1,4*%
%TO.N,PRGA4*%
X67525000Y-117365000D03*
%TO.P,U_SR1,5*%
%TO.N,PRGA5*%
X67525000Y-118635000D03*
%TO.P,U_SR1,6*%
%TO.N,PRGA6*%
X67525000Y-119905000D03*
%TO.P,U_SR1,7*%
%TO.N,PRGA7*%
X67525000Y-121175000D03*
%TO.P,U_SR1,8*%
%TO.N,GND*%
X67525000Y-122445000D03*
%TO.P,U_SR1,9*%
%TO.N,SR_CHAIN_0*%
X72475000Y-122445000D03*
%TO.P,U_SR1,10*%
%TO.N,VCC_3V3*%
X72475000Y-121175000D03*
%TO.P,U_SR1,11*%
%TO.N,SR_SRCLK*%
X72475000Y-119905000D03*
%TO.P,U_SR1,12*%
%TO.N,SR_RCLK*%
X72475000Y-118635000D03*
%TO.P,U_SR1,13*%
%TO.N,SR_nOE*%
X72475000Y-117365000D03*
%TO.P,U_SR1,14*%
%TO.N,SR_SER*%
X72475000Y-116095000D03*
%TO.P,U_SR1,15*%
%TO.N,PRGA0*%
X72475000Y-114825000D03*
%TO.P,U_SR1,16*%
%TO.N,VCC_3V3*%
X72475000Y-113555000D03*
%TD*%
D26*
%TO.P,J_CTRG2,B1*%
%TO.N,GND*%
X90035000Y-155000000D03*
%TO.P,J_CTRG2,B2*%
X91305000Y-155000000D03*
%TO.P,J_CTRG2,B3*%
X92575000Y-155000000D03*
%TO.P,J_CTRG2,B4*%
X93845000Y-155000000D03*
%TO.P,J_CTRG2,B5*%
%TO.N,PA0*%
X95115000Y-155000000D03*
%TO.P,J_CTRG2,B6*%
%TO.N,PA1*%
X96385000Y-155000000D03*
%TO.P,J_CTRG2,B7*%
%TO.N,PA2*%
X97655000Y-155000000D03*
%TO.P,J_CTRG2,B8*%
%TO.N,PA3*%
X98925000Y-155000000D03*
%TO.P,J_CTRG2,B9*%
%TO.N,PA4*%
X100195000Y-155000000D03*
%TO.P,J_CTRG2,B10*%
%TO.N,PA5*%
X101465000Y-155000000D03*
%TO.P,J_CTRG2,B11*%
%TO.N,PA6*%
X102735000Y-155000000D03*
%TO.P,J_CTRG2,B12*%
%TO.N,PA7*%
X104005000Y-155000000D03*
%TO.P,J_CTRG2,B13*%
%TO.N,PA8*%
X105275000Y-155000000D03*
%TO.P,J_CTRG2,B14*%
%TO.N,PA9*%
X106545000Y-155000000D03*
%TO.P,J_CTRG2,B15*%
%TO.N,PA10*%
X107815000Y-155000000D03*
%TO.P,J_CTRG2,B16*%
%TO.N,PA11*%
X109085000Y-155000000D03*
%TO.P,J_CTRG2,B17*%
%TO.N,PA12*%
X110355000Y-155000000D03*
%TO.P,J_CTRG2,B18*%
%TO.N,PA13*%
X111625000Y-155000000D03*
%TO.P,J_CTRG2,B19*%
%TO.N,PA14*%
X112895000Y-155000000D03*
%TO.P,J_CTRG2,B20*%
%TO.N,PA15*%
X114165000Y-155000000D03*
%TO.P,J_CTRG2,B21*%
%TO.N,PA16*%
X115435000Y-155000000D03*
%TO.P,J_CTRG2,B22*%
%TO.N,PA17*%
X116705000Y-155000000D03*
%TO.P,J_CTRG2,B23*%
%TO.N,GND*%
X117975000Y-155000000D03*
%TO.P,J_CTRG2,B24*%
X119245000Y-155000000D03*
%TO.P,J_CTRG2,B25*%
X120515000Y-155000000D03*
%TO.P,J_CTRG2,B26*%
X121785000Y-155000000D03*
%TO.P,J_CTRG2,B27*%
X123055000Y-155000000D03*
%TO.P,J_CTRG2,B28*%
X124325000Y-155000000D03*
%TO.P,J_CTRG2,B29*%
%TO.N,VCC_5V*%
X125595000Y-155000000D03*
%TO.P,J_CTRG2,B30*%
X126865000Y-155000000D03*
%TO.P,J_CTRG2,B31*%
X128135000Y-155000000D03*
%TO.P,J_CTRG2,B32*%
X129405000Y-155000000D03*
%TO.P,J_CTRG2,B33*%
%TO.N,GND*%
X130675000Y-155000000D03*
%TO.P,J_CTRG2,B34*%
X131945000Y-155000000D03*
%TO.P,J_CTRG2,B35*%
X133215000Y-155000000D03*
%TO.P,J_CTRG2,B36*%
X134485000Y-155000000D03*
%TO.P,J_CTRG2,B37*%
X135755000Y-155000000D03*
%TO.P,J_CTRG2,B38*%
X137025000Y-155000000D03*
%TO.P,J_CTRG2,B39*%
X138295000Y-155000000D03*
%TO.P,J_CTRG2,B40*%
%TO.N,MD0*%
X139565000Y-155000000D03*
%TO.P,J_CTRG2,B41*%
%TO.N,MD1*%
X140835000Y-155000000D03*
%TO.P,J_CTRG2,B42*%
%TO.N,MD2*%
X142105000Y-155000000D03*
%TO.P,J_CTRG2,B43*%
%TO.N,MD3*%
X143375000Y-155000000D03*
%TO.P,J_CTRG2,B44*%
%TO.N,MD4*%
X144645000Y-155000000D03*
%TO.P,J_CTRG2,B45*%
%TO.N,MD5*%
X145915000Y-155000000D03*
%TO.P,J_CTRG2,B46*%
%TO.N,MD6*%
X147185000Y-155000000D03*
%TO.P,J_CTRG2,B47*%
%TO.N,MD7*%
X148455000Y-155000000D03*
%TO.P,J_CTRG2,B48*%
%TO.N,MA0*%
X149725000Y-155000000D03*
%TO.P,J_CTRG2,B49*%
%TO.N,MA1*%
X150995000Y-155000000D03*
%TO.P,J_CTRG2,B50*%
%TO.N,MA2*%
X152265000Y-155000000D03*
%TO.P,J_CTRG2,B51*%
%TO.N,MA3*%
X153535000Y-155000000D03*
%TO.P,J_CTRG2,B52*%
%TO.N,MA4*%
X154805000Y-155000000D03*
%TO.P,J_CTRG2,B53*%
%TO.N,MA5*%
X156075000Y-155000000D03*
%TO.P,J_CTRG2,B54*%
%TO.N,MA6*%
X157345000Y-155000000D03*
%TO.P,J_CTRG2,B55*%
%TO.N,MA7*%
X158615000Y-155000000D03*
%TO.P,J_CTRG2,B56*%
%TO.N,SDROE*%
X159885000Y-155000000D03*
%TO.P,J_CTRG2,B57*%
%TO.N,GND*%
X161155000Y-155000000D03*
%TO.P,J_CTRG2,B58*%
X162425000Y-155000000D03*
%TO.P,J_CTRG2,B59*%
X163695000Y-155000000D03*
%TO.P,J_CTRG2,B60*%
X164965000Y-155000000D03*
%TD*%
D11*
%TO.P,C17,1*%
%TO.N,N/C*%
X97520000Y-142000000D03*
%TO.P,C17,2*%
X98480000Y-142000000D03*
%TD*%
D26*
%TO.P,J_CTRG1,B1*%
%TO.N,GND*%
X90035000Y-56000000D03*
%TO.P,J_CTRG1,B2*%
X91305000Y-56000000D03*
%TO.P,J_CTRG1,B3*%
%TO.N,CA1*%
X92575000Y-56000000D03*
%TO.P,J_CTRG1,B4*%
%TO.N,CA3*%
X93845000Y-56000000D03*
%TO.P,J_CTRG1,B5*%
%TO.N,CA5*%
X95115000Y-56000000D03*
%TO.P,J_CTRG1,B6*%
%TO.N,CA7*%
X96385000Y-56000000D03*
%TO.P,J_CTRG1,B7*%
%TO.N,CA9*%
X97655000Y-56000000D03*
%TO.P,J_CTRG1,B8*%
%TO.N,CA11*%
X98925000Y-56000000D03*
%TO.P,J_CTRG1,B9*%
%TO.N,CA13*%
X100195000Y-56000000D03*
%TO.P,J_CTRG1,B10*%
%TO.N,CA15*%
X101465000Y-56000000D03*
%TO.P,J_CTRG1,B11*%
%TO.N,CA17*%
X102735000Y-56000000D03*
%TO.P,J_CTRG1,B12*%
%TO.N,CA19*%
X104005000Y-56000000D03*
%TO.P,J_CTRG1,B13*%
%TO.N,CA21*%
X105275000Y-56000000D03*
%TO.P,J_CTRG1,B14*%
%TO.N,CA23*%
X106545000Y-56000000D03*
%TO.P,J_CTRG1,B15*%
%TO.N,GND*%
X107815000Y-56000000D03*
%TO.P,J_CTRG1,B16*%
X109085000Y-56000000D03*
%TO.P,J_CTRG1,B17*%
X110355000Y-56000000D03*
%TO.P,J_CTRG1,B18*%
X111625000Y-56000000D03*
%TO.P,J_CTRG1,B19*%
%TO.N,CR1*%
X112895000Y-56000000D03*
%TO.P,J_CTRG1,B20*%
%TO.N,CR3*%
X114165000Y-56000000D03*
%TO.P,J_CTRG1,B21*%
%TO.N,CR5*%
X115435000Y-56000000D03*
%TO.P,J_CTRG1,B22*%
%TO.N,CR7*%
X116705000Y-56000000D03*
%TO.P,J_CTRG1,B23*%
%TO.N,CR9*%
X117975000Y-56000000D03*
%TO.P,J_CTRG1,B24*%
%TO.N,CR11*%
X119245000Y-56000000D03*
%TO.P,J_CTRG1,B25*%
%TO.N,CR13*%
X120515000Y-56000000D03*
%TO.P,J_CTRG1,B26*%
%TO.N,CR15*%
X121785000Y-56000000D03*
%TO.P,J_CTRG1,B27*%
%TO.N,CR17*%
X123055000Y-56000000D03*
%TO.P,J_CTRG1,B28*%
%TO.N,CR19*%
X124325000Y-56000000D03*
%TO.P,J_CTRG1,B29*%
%TO.N,VCC_5V*%
X125595000Y-56000000D03*
%TO.P,J_CTRG1,B30*%
X126865000Y-56000000D03*
%TO.P,J_CTRG1,B31*%
X128135000Y-56000000D03*
%TO.P,J_CTRG1,B32*%
X129405000Y-56000000D03*
%TO.P,J_CTRG1,B33*%
%TO.N,CR21*%
X130675000Y-56000000D03*
%TO.P,J_CTRG1,B34*%
%TO.N,CR23*%
X131945000Y-56000000D03*
%TO.P,J_CTRG1,B35*%
%TO.N,CR25*%
X133215000Y-56000000D03*
%TO.P,J_CTRG1,B36*%
%TO.N,CR27*%
X134485000Y-56000000D03*
%TO.P,J_CTRG1,B37*%
%TO.N,CR29*%
X135755000Y-56000000D03*
%TO.P,J_CTRG1,B38*%
%TO.N,CR31*%
X137025000Y-56000000D03*
%TO.P,J_CTRG1,B39*%
%TO.N,GND*%
X138295000Y-56000000D03*
%TO.P,J_CTRG1,B40*%
X139565000Y-56000000D03*
%TO.P,J_CTRG1,B41*%
X140835000Y-56000000D03*
%TO.P,J_CTRG1,B42*%
X142105000Y-56000000D03*
%TO.P,J_CTRG1,B43*%
X143375000Y-56000000D03*
%TO.P,J_CTRG1,B44*%
X144645000Y-56000000D03*
%TO.P,J_CTRG1,B45*%
X145915000Y-56000000D03*
%TO.P,J_CTRG1,B46*%
X147185000Y-56000000D03*
%TO.P,J_CTRG1,B47*%
%TO.N,SDMRD*%
X148455000Y-56000000D03*
%TO.P,J_CTRG1,B48*%
%TO.N,SD0*%
X149725000Y-56000000D03*
%TO.P,J_CTRG1,B49*%
%TO.N,SD1*%
X150995000Y-56000000D03*
%TO.P,J_CTRG1,B50*%
%TO.N,SD2*%
X152265000Y-56000000D03*
%TO.P,J_CTRG1,B51*%
%TO.N,SD3*%
X153535000Y-56000000D03*
%TO.P,J_CTRG1,B52*%
%TO.N,SD4*%
X154805000Y-56000000D03*
%TO.P,J_CTRG1,B53*%
%TO.N,SD5*%
X156075000Y-56000000D03*
%TO.P,J_CTRG1,B54*%
%TO.N,SD6*%
X157345000Y-56000000D03*
%TO.P,J_CTRG1,B55*%
%TO.N,SD7*%
X158615000Y-56000000D03*
%TO.P,J_CTRG1,B56*%
%TO.N,SDROM*%
X159885000Y-56000000D03*
%TO.P,J_CTRG1,B57*%
%TO.N,SA15*%
X161155000Y-56000000D03*
%TO.P,J_CTRG1,B58*%
%TO.N,GND*%
X162425000Y-56000000D03*
%TO.P,J_CTRG1,B59*%
X163695000Y-56000000D03*
%TO.P,J_CTRG1,B60*%
X164965000Y-56000000D03*
%TD*%
D22*
%TO.P,U_SROM,1*%
%TO.N,N/C*%
X155000000Y-73162500D03*
%TO.P,U_SROM,2*%
%TO.N,SA16*%
X153730000Y-73162500D03*
%TO.P,U_SROM,3*%
%TO.N,SA15*%
X152460000Y-73162500D03*
%TO.P,U_SROM,4*%
%TO.N,SA12*%
X151190000Y-73162500D03*
D15*
%TO.P,U_SROM,5*%
%TO.N,SA7*%
X149437500Y-74920000D03*
%TO.P,U_SROM,6*%
%TO.N,SA6*%
X149437500Y-76190000D03*
%TO.P,U_SROM,7*%
%TO.N,SA5*%
X149437500Y-77460000D03*
%TO.P,U_SROM,8*%
%TO.N,SA4*%
X149437500Y-78730000D03*
%TO.P,U_SROM,9*%
%TO.N,SA3*%
X149437500Y-80000000D03*
%TO.P,U_SROM,10*%
%TO.N,SA2*%
X149437500Y-81270000D03*
%TO.P,U_SROM,11*%
%TO.N,SA1*%
X149437500Y-82540000D03*
%TO.P,U_SROM,12*%
%TO.N,SA0*%
X149437500Y-83810000D03*
%TO.P,U_SROM,13*%
%TO.N,SD0*%
X149437500Y-85080000D03*
D22*
%TO.P,U_SROM,14*%
%TO.N,SD1*%
X151190000Y-86837500D03*
%TO.P,U_SROM,15*%
%TO.N,SD2*%
X152460000Y-86837500D03*
%TO.P,U_SROM,16*%
%TO.N,GND*%
X153730000Y-86837500D03*
%TO.P,U_SROM,17*%
%TO.N,SD3*%
X155000000Y-86837500D03*
%TO.P,U_SROM,18*%
%TO.N,SD4*%
X156270000Y-86837500D03*
%TO.P,U_SROM,19*%
%TO.N,SD5*%
X157540000Y-86837500D03*
%TO.P,U_SROM,20*%
%TO.N,SD6*%
X158810000Y-86837500D03*
D15*
%TO.P,U_SROM,21*%
%TO.N,SD7*%
X160562500Y-85080000D03*
%TO.P,U_SROM,22*%
%TO.N,nCE_S*%
X160562500Y-83810000D03*
%TO.P,U_SROM,23*%
%TO.N,SA10*%
X160562500Y-82540000D03*
%TO.P,U_SROM,24*%
%TO.N,nOE_S*%
X160562500Y-81270000D03*
%TO.P,U_SROM,25*%
%TO.N,SA11*%
X160562500Y-80000000D03*
%TO.P,U_SROM,26*%
%TO.N,SA9*%
X160562500Y-78730000D03*
%TO.P,U_SROM,27*%
%TO.N,SA8*%
X160562500Y-77460000D03*
%TO.P,U_SROM,28*%
%TO.N,SA13*%
X160562500Y-76190000D03*
%TO.P,U_SROM,29*%
%TO.N,SA14*%
X160562500Y-74920000D03*
D22*
%TO.P,U_SROM,30*%
%TO.N,N/C*%
X158810000Y-73162500D03*
%TO.P,U_SROM,31*%
%TO.N,nWE_S*%
X157540000Y-73162500D03*
%TO.P,U_SROM,32*%
%TO.N,VCC_5V*%
X156270000Y-73162500D03*
%TD*%
D11*
%TO.P,C4,1*%
%TO.N,N/C*%
X174520000Y-80000000D03*
%TO.P,C4,2*%
X175480000Y-80000000D03*
%TD*%
D21*
%TO.P,U_SR2,1*%
%TO.N,PRGA9*%
X87525000Y-113555000D03*
%TO.P,U_SR2,2*%
%TO.N,PRGA10*%
X87525000Y-114825000D03*
%TO.P,U_SR2,3*%
%TO.N,PRGA11*%
X87525000Y-116095000D03*
%TO.P,U_SR2,4*%
%TO.N,PRGA12*%
X87525000Y-117365000D03*
%TO.P,U_SR2,5*%
%TO.N,PRGA13*%
X87525000Y-118635000D03*
%TO.P,U_SR2,6*%
%TO.N,PRGA14*%
X87525000Y-119905000D03*
%TO.P,U_SR2,7*%
%TO.N,PRGA15*%
X87525000Y-121175000D03*
%TO.P,U_SR2,8*%
%TO.N,GND*%
X87525000Y-122445000D03*
%TO.P,U_SR2,9*%
%TO.N,SR_CHAIN_1*%
X92475000Y-122445000D03*
%TO.P,U_SR2,10*%
%TO.N,VCC_3V3*%
X92475000Y-121175000D03*
%TO.P,U_SR2,11*%
%TO.N,SR_SRCLK*%
X92475000Y-119905000D03*
%TO.P,U_SR2,12*%
%TO.N,SR_RCLK*%
X92475000Y-118635000D03*
%TO.P,U_SR2,13*%
%TO.N,SR_nOE*%
X92475000Y-117365000D03*
%TO.P,U_SR2,14*%
%TO.N,SR_CHAIN_0*%
X92475000Y-116095000D03*
%TO.P,U_SR2,15*%
%TO.N,PRGA8*%
X92475000Y-114825000D03*
%TO.P,U_SR2,16*%
%TO.N,VCC_3V3*%
X92475000Y-113555000D03*
%TD*%
D20*
%TO.P,U_CROM1,1*%
%TO.N,CA15*%
X70312500Y-74250000D03*
%TO.P,U_CROM1,2*%
%TO.N,CA14*%
X70312500Y-74750000D03*
%TO.P,U_CROM1,3*%
%TO.N,CA13*%
X70312500Y-75250000D03*
%TO.P,U_CROM1,4*%
%TO.N,CA12*%
X70312500Y-75750000D03*
%TO.P,U_CROM1,5*%
%TO.N,CA11*%
X70312500Y-76250000D03*
%TO.P,U_CROM1,6*%
%TO.N,CA10*%
X70312500Y-76750000D03*
%TO.P,U_CROM1,7*%
%TO.N,CA9*%
X70312500Y-77250000D03*
%TO.P,U_CROM1,8*%
%TO.N,CA8*%
X70312500Y-77750000D03*
%TO.P,U_CROM1,9*%
%TO.N,N/C*%
X70312500Y-78250000D03*
%TO.P,U_CROM1,10*%
X70312500Y-78750000D03*
%TO.P,U_CROM1,11*%
%TO.N,nBYTE_FLASH*%
X70312500Y-79250000D03*
%TO.P,U_CROM1,12*%
%TO.N,VCC_5V*%
X70312500Y-79750000D03*
%TO.P,U_CROM1,13*%
%TO.N,N/C*%
X70312500Y-80250000D03*
%TO.P,U_CROM1,14*%
X70312500Y-80750000D03*
%TO.P,U_CROM1,15*%
X70312500Y-81250000D03*
%TO.P,U_CROM1,16*%
X70312500Y-81750000D03*
%TO.P,U_CROM1,17*%
%TO.N,nCE_C1*%
X70312500Y-82250000D03*
%TO.P,U_CROM1,18*%
%TO.N,CA7*%
X70312500Y-82750000D03*
%TO.P,U_CROM1,19*%
%TO.N,CA6*%
X70312500Y-83250000D03*
%TO.P,U_CROM1,20*%
%TO.N,CA5*%
X70312500Y-83750000D03*
%TO.P,U_CROM1,21*%
%TO.N,CA4*%
X70312500Y-84250000D03*
%TO.P,U_CROM1,22*%
%TO.N,CA3*%
X70312500Y-84750000D03*
%TO.P,U_CROM1,23*%
%TO.N,CA2*%
X70312500Y-85250000D03*
%TO.P,U_CROM1,24*%
%TO.N,CA1*%
X70312500Y-85750000D03*
%TO.P,U_CROM1,25*%
%TO.N,CA0*%
X89687500Y-85750000D03*
%TO.P,U_CROM1,26*%
%TO.N,nOE_C1*%
X89687500Y-85250000D03*
%TO.P,U_CROM1,27*%
%TO.N,GND*%
X89687500Y-84750000D03*
%TO.P,U_CROM1,28*%
%TO.N,nWE_C1*%
X89687500Y-84250000D03*
%TO.P,U_CROM1,29*%
%TO.N,CR0*%
X89687500Y-83750000D03*
%TO.P,U_CROM1,30*%
%TO.N,CR8*%
X89687500Y-83250000D03*
%TO.P,U_CROM1,31*%
%TO.N,CR1*%
X89687500Y-82750000D03*
%TO.P,U_CROM1,32*%
%TO.N,CR9*%
X89687500Y-82250000D03*
%TO.P,U_CROM1,33*%
%TO.N,CR2*%
X89687500Y-81750000D03*
%TO.P,U_CROM1,34*%
%TO.N,CR10*%
X89687500Y-81250000D03*
%TO.P,U_CROM1,35*%
%TO.N,CR3*%
X89687500Y-80750000D03*
%TO.P,U_CROM1,36*%
%TO.N,CR11*%
X89687500Y-80250000D03*
%TO.P,U_CROM1,37*%
%TO.N,GND*%
X89687500Y-79750000D03*
%TO.P,U_CROM1,38*%
%TO.N,CR4*%
X89687500Y-79250000D03*
%TO.P,U_CROM1,39*%
%TO.N,CR12*%
X89687500Y-78750000D03*
%TO.P,U_CROM1,40*%
%TO.N,CR5*%
X89687500Y-78250000D03*
%TO.P,U_CROM1,41*%
%TO.N,CR13*%
X89687500Y-77750000D03*
%TO.P,U_CROM1,42*%
%TO.N,CR6*%
X89687500Y-77250000D03*
%TO.P,U_CROM1,43*%
%TO.N,CR14*%
X89687500Y-76750000D03*
%TO.P,U_CROM1,44*%
%TO.N,CR7*%
X89687500Y-76250000D03*
%TO.P,U_CROM1,45*%
%TO.N,CR15*%
X89687500Y-75750000D03*
%TO.P,U_CROM1,46*%
%TO.N,N/C*%
X89687500Y-75250000D03*
%TO.P,U_CROM1,47*%
%TO.N,CA17*%
X89687500Y-74750000D03*
%TO.P,U_CROM1,48*%
%TO.N,CA16*%
X89687500Y-74250000D03*
%TD*%
D11*
%TO.P,C6,1*%
%TO.N,N/C*%
X159520000Y-85000000D03*
%TO.P,C6,2*%
X160480000Y-85000000D03*
%TD*%
D18*
%TO.P,R3,1*%
%TO.N,N/C*%
X185490000Y-98000000D03*
%TO.P,R3,2*%
X186510000Y-98000000D03*
%TD*%
%TO.P,R2,1*%
%TO.N,N/C*%
X182490000Y-98000000D03*
%TO.P,R2,2*%
X183510000Y-98000000D03*
%TD*%
D19*
%TO.P,C14,1*%
%TO.N,N/C*%
X159050000Y-95000000D03*
%TO.P,C14,2*%
X160950000Y-95000000D03*
%TD*%
D11*
%TO.P,C7,1*%
%TO.N,N/C*%
X164520000Y-85000000D03*
%TO.P,C7,2*%
X165480000Y-85000000D03*
%TD*%
D27*
%TO.P,Y1,1*%
%TO.N,XIN*%
X101250000Y-138000000D03*
%TO.P,Y1,2*%
%TO.N,XOUT*%
X98750000Y-138000000D03*
%TD*%
D20*
%TO.P,U_CROM2,1*%
%TO.N,CA15*%
X105312500Y-74250000D03*
%TO.P,U_CROM2,2*%
%TO.N,CA14*%
X105312500Y-74750000D03*
%TO.P,U_CROM2,3*%
%TO.N,CA13*%
X105312500Y-75250000D03*
%TO.P,U_CROM2,4*%
%TO.N,CA12*%
X105312500Y-75750000D03*
%TO.P,U_CROM2,5*%
%TO.N,CA11*%
X105312500Y-76250000D03*
%TO.P,U_CROM2,6*%
%TO.N,CA10*%
X105312500Y-76750000D03*
%TO.P,U_CROM2,7*%
%TO.N,CA9*%
X105312500Y-77250000D03*
%TO.P,U_CROM2,8*%
%TO.N,CA8*%
X105312500Y-77750000D03*
%TO.P,U_CROM2,9*%
%TO.N,N/C*%
X105312500Y-78250000D03*
%TO.P,U_CROM2,10*%
X105312500Y-78750000D03*
%TO.P,U_CROM2,11*%
%TO.N,nBYTE_FLASH*%
X105312500Y-79250000D03*
%TO.P,U_CROM2,12*%
%TO.N,VCC_5V*%
X105312500Y-79750000D03*
%TO.P,U_CROM2,13*%
%TO.N,N/C*%
X105312500Y-80250000D03*
%TO.P,U_CROM2,14*%
X105312500Y-80750000D03*
%TO.P,U_CROM2,15*%
X105312500Y-81250000D03*
%TO.P,U_CROM2,16*%
X105312500Y-81750000D03*
%TO.P,U_CROM2,17*%
%TO.N,nCE_C2*%
X105312500Y-82250000D03*
%TO.P,U_CROM2,18*%
%TO.N,CA7*%
X105312500Y-82750000D03*
%TO.P,U_CROM2,19*%
%TO.N,CA6*%
X105312500Y-83250000D03*
%TO.P,U_CROM2,20*%
%TO.N,CA5*%
X105312500Y-83750000D03*
%TO.P,U_CROM2,21*%
%TO.N,CA4*%
X105312500Y-84250000D03*
%TO.P,U_CROM2,22*%
%TO.N,CA3*%
X105312500Y-84750000D03*
%TO.P,U_CROM2,23*%
%TO.N,CA2*%
X105312500Y-85250000D03*
%TO.P,U_CROM2,24*%
%TO.N,CA1*%
X105312500Y-85750000D03*
%TO.P,U_CROM2,25*%
%TO.N,CA0*%
X124687500Y-85750000D03*
%TO.P,U_CROM2,26*%
%TO.N,nOE_C2*%
X124687500Y-85250000D03*
%TO.P,U_CROM2,27*%
%TO.N,GND*%
X124687500Y-84750000D03*
%TO.P,U_CROM2,28*%
%TO.N,nWE_C2*%
X124687500Y-84250000D03*
%TO.P,U_CROM2,29*%
%TO.N,CR16*%
X124687500Y-83750000D03*
%TO.P,U_CROM2,30*%
%TO.N,CR24*%
X124687500Y-83250000D03*
%TO.P,U_CROM2,31*%
%TO.N,CR17*%
X124687500Y-82750000D03*
%TO.P,U_CROM2,32*%
%TO.N,CR25*%
X124687500Y-82250000D03*
%TO.P,U_CROM2,33*%
%TO.N,CR18*%
X124687500Y-81750000D03*
%TO.P,U_CROM2,34*%
%TO.N,CR26*%
X124687500Y-81250000D03*
%TO.P,U_CROM2,35*%
%TO.N,CR19*%
X124687500Y-80750000D03*
%TO.P,U_CROM2,36*%
%TO.N,CR27*%
X124687500Y-80250000D03*
%TO.P,U_CROM2,37*%
%TO.N,GND*%
X124687500Y-79750000D03*
%TO.P,U_CROM2,38*%
%TO.N,CR20*%
X124687500Y-79250000D03*
%TO.P,U_CROM2,39*%
%TO.N,CR28*%
X124687500Y-78750000D03*
%TO.P,U_CROM2,40*%
%TO.N,CR21*%
X124687500Y-78250000D03*
%TO.P,U_CROM2,41*%
%TO.N,CR29*%
X124687500Y-77750000D03*
%TO.P,U_CROM2,42*%
%TO.N,CR22*%
X124687500Y-77250000D03*
%TO.P,U_CROM2,43*%
%TO.N,CR30*%
X124687500Y-76750000D03*
%TO.P,U_CROM2,44*%
%TO.N,CR23*%
X124687500Y-76250000D03*
%TO.P,U_CROM2,45*%
%TO.N,CR31*%
X124687500Y-75750000D03*
%TO.P,U_CROM2,46*%
%TO.N,N/C*%
X124687500Y-75250000D03*
%TO.P,U_CROM2,47*%
%TO.N,CA17*%
X124687500Y-74750000D03*
%TO.P,U_CROM2,48*%
%TO.N,CA16*%
X124687500Y-74250000D03*
%TD*%
D18*
%TO.P,R5,1*%
%TO.N,N/C*%
X191490000Y-98000000D03*
%TO.P,R5,2*%
X192510000Y-98000000D03*
%TD*%
D11*
%TO.P,C1,1*%
%TO.N,N/C*%
X159520000Y-80000000D03*
%TO.P,C1,2*%
X160480000Y-80000000D03*
%TD*%
D19*
%TO.P,C16,1*%
%TO.N,N/C*%
X175050000Y-95000000D03*
%TO.P,C16,2*%
X176950000Y-95000000D03*
%TD*%
D11*
%TO.P,C10,1*%
%TO.N,N/C*%
X179520000Y-85000000D03*
%TO.P,C10,2*%
X180480000Y-85000000D03*
%TD*%
%TO.P,C2,1*%
%TO.N,N/C*%
X164520000Y-80000000D03*
%TO.P,C2,2*%
X165480000Y-80000000D03*
%TD*%
M02*
