%TF.GenerationSoftware,KiCad,Pcbnew,9.0.8+dfsg-1*%
%TF.CreationDate,2026-04-27T08:30:16+02:00*%
%TF.ProjectId,neocart,6e656f63-6172-4742-9e6b-696361645f70,1.0*%
%TF.SameCoordinates,Original*%
%TF.FileFunction,Soldermask,Top*%
%TF.FilePolarity,Negative*%
%FSLAX46Y46*%
G04 Gerber Fmt 4.6, Leading zero omitted, Abs format (unit mm)*
G04 Created by KiCad (PCBNEW 9.0.8+dfsg-1) date 2026-04-27 08:30:16*
%MOMM*%
%LPD*%
G01*
G04 APERTURE LIST*
G04 Aperture macros list*
%AMRoundRect*
0 Rectangle with rounded corners*
0 $1 Rounding radius*
0 $2 $3 $4 $5 $6 $7 $8 $9 X,Y pos of 4 corners*
0 Add a 4 corners polygon primitive as box body*
4,1,4,$2,$3,$4,$5,$6,$7,$8,$9,$2,$3,0*
0 Add four circle primitives for the rounded corners*
1,1,$1+$1,$2,$3*
1,1,$1+$1,$4,$5*
1,1,$1+$1,$6,$7*
1,1,$1+$1,$8,$9*
0 Add four rect primitives between the rounded corners*
20,1,$1+$1,$2,$3,$4,$5,0*
20,1,$1+$1,$4,$5,$6,$7,0*
20,1,$1+$1,$6,$7,$8,$9,0*
20,1,$1+$1,$8,$9,$2,$3,0*%
G04 Aperture macros list end*
%ADD10RoundRect,0.150000X-0.875000X-0.150000X0.875000X-0.150000X0.875000X0.150000X-0.875000X0.150000X0*%
%ADD11RoundRect,0.140000X-0.140000X-0.170000X0.140000X-0.170000X0.140000X0.170000X-0.140000X0.170000X0*%
%ADD12RoundRect,0.050000X-0.387500X-0.050000X0.387500X-0.050000X0.387500X0.050000X-0.387500X0.050000X0*%
%ADD13RoundRect,0.050000X-0.050000X-0.387500X0.050000X-0.387500X0.050000X0.387500X-0.050000X0.387500X0*%
%ADD14R,5.600000X5.600000*%
%ADD15RoundRect,0.150000X-0.587500X-0.150000X0.587500X-0.150000X0.587500X0.150000X-0.587500X0.150000X0*%
%ADD16RoundRect,0.375000X-0.625000X-0.375000X0.625000X-0.375000X0.625000X0.375000X-0.625000X0.375000X0*%
%ADD17RoundRect,0.500000X-0.500000X-1.400000X0.500000X-1.400000X0.500000X1.400000X-0.500000X1.400000X0*%
%ADD18RoundRect,0.135000X-0.135000X-0.185000X0.135000X-0.185000X0.135000X0.185000X-0.135000X0.185000X0*%
%ADD19RoundRect,0.250000X-0.250000X-0.475000X0.250000X-0.475000X0.250000X0.475000X-0.250000X0.475000X0*%
%ADD20RoundRect,0.075000X-0.712500X-0.075000X0.712500X-0.075000X0.712500X0.075000X-0.712500X0.075000X0*%
%ADD21RoundRect,0.150000X-0.825000X-0.150000X0.825000X-0.150000X0.825000X0.150000X-0.825000X0.150000X0*%
%ADD22RoundRect,0.150000X-0.150000X-0.587500X0.150000X-0.587500X0.150000X0.587500X-0.150000X0.587500X0*%
%ADD23C,0.700000*%
%ADD24O,0.900000X2.400000*%
%ADD25O,0.900000X1.700000*%
%ADD26R,0.800000X6.000000*%
%ADD27R,1.000000X1.800000*%
G04 APERTURE END LIST*
D10*
%TO.C,U_BUF1*%
X135350000Y-112285000D03*
X135350000Y-113555000D03*
X135350000Y-114825000D03*
X135350000Y-116095000D03*
X135350000Y-117365000D03*
X135350000Y-118635000D03*
X135350000Y-119905000D03*
X135350000Y-121175000D03*
X135350000Y-122445000D03*
X135350000Y-123715000D03*
X144650000Y-123715000D03*
X144650000Y-122445000D03*
X144650000Y-121175000D03*
X144650000Y-119905000D03*
X144650000Y-118635000D03*
X144650000Y-117365000D03*
X144650000Y-116095000D03*
X144650000Y-114825000D03*
X144650000Y-113555000D03*
X144650000Y-112285000D03*
%TD*%
D11*
%TO.C,C13*%
X169520000Y-90000000D03*
X170480000Y-90000000D03*
%TD*%
%TO.C,C12*%
X164520000Y-90000000D03*
X165480000Y-90000000D03*
%TD*%
D12*
%TO.C,U_MCU*%
X81562500Y-135400000D03*
X81562500Y-135800000D03*
X81562500Y-136200000D03*
X81562500Y-136600000D03*
X81562500Y-137000000D03*
X81562500Y-137400000D03*
X81562500Y-137800000D03*
X81562500Y-138200000D03*
X81562500Y-138600000D03*
X81562500Y-139000000D03*
X81562500Y-139400000D03*
X81562500Y-139800000D03*
X81562500Y-140200000D03*
X81562500Y-140600000D03*
D13*
X82400000Y-141437500D03*
X82800000Y-141437500D03*
X83200000Y-141437500D03*
X83600000Y-141437500D03*
X84000000Y-141437500D03*
X84400000Y-141437500D03*
X84800000Y-141437500D03*
X85200000Y-141437500D03*
X85600000Y-141437500D03*
X86000000Y-141437500D03*
X86400000Y-141437500D03*
X86800000Y-141437500D03*
X87200000Y-141437500D03*
X87600000Y-141437500D03*
D12*
X88437500Y-140600000D03*
X88437500Y-140200000D03*
X88437500Y-139800000D03*
X88437500Y-139400000D03*
X88437500Y-139000000D03*
X88437500Y-138600000D03*
X88437500Y-138200000D03*
X88437500Y-137800000D03*
X88437500Y-137400000D03*
X88437500Y-137000000D03*
X88437500Y-136600000D03*
X88437500Y-136200000D03*
X88437500Y-135800000D03*
X88437500Y-135400000D03*
D13*
X87600000Y-134562500D03*
X87200000Y-134562500D03*
X86800000Y-134562500D03*
X86400000Y-134562500D03*
X86000000Y-134562500D03*
X85600000Y-134562500D03*
X85200000Y-134562500D03*
X84800000Y-134562500D03*
X84400000Y-134562500D03*
X84000000Y-134562500D03*
X83600000Y-134562500D03*
X83200000Y-134562500D03*
X82800000Y-134562500D03*
X82400000Y-134562500D03*
D14*
X85000000Y-138000000D03*
%TD*%
D15*
%TO.C,D5*%
X170062500Y-106050000D03*
X170062500Y-107950000D03*
X171937500Y-107000000D03*
%TD*%
D16*
%TO.C,U_REG*%
X136850000Y-135700000D03*
X136850000Y-138000000D03*
D17*
X143150000Y-138000000D03*
D16*
X136850000Y-140300000D03*
%TD*%
D18*
%TO.C,R1*%
X179490000Y-98000000D03*
X180510000Y-98000000D03*
%TD*%
%TO.C,R4*%
X188490000Y-98000000D03*
X189510000Y-98000000D03*
%TD*%
D10*
%TO.C,U_BUF2*%
X160350000Y-112285000D03*
X160350000Y-113555000D03*
X160350000Y-114825000D03*
X160350000Y-116095000D03*
X160350000Y-117365000D03*
X160350000Y-118635000D03*
X160350000Y-119905000D03*
X160350000Y-121175000D03*
X160350000Y-122445000D03*
X160350000Y-123715000D03*
X169650000Y-123715000D03*
X169650000Y-122445000D03*
X169650000Y-121175000D03*
X169650000Y-119905000D03*
X169650000Y-118635000D03*
X169650000Y-117365000D03*
X169650000Y-116095000D03*
X169650000Y-114825000D03*
X169650000Y-113555000D03*
X169650000Y-112285000D03*
%TD*%
D11*
%TO.C,C5*%
X179520000Y-80000000D03*
X180480000Y-80000000D03*
%TD*%
%TO.C,C11*%
X159520000Y-90000000D03*
X160480000Y-90000000D03*
%TD*%
D15*
%TO.C,D2*%
X170062500Y-101050000D03*
X170062500Y-102950000D03*
X171937500Y-102000000D03*
%TD*%
D11*
%TO.C,C9*%
X174520000Y-85000000D03*
X175480000Y-85000000D03*
%TD*%
%TO.C,C18*%
X101520000Y-142000000D03*
X102480000Y-142000000D03*
%TD*%
D19*
%TO.C,C15*%
X167050000Y-95000000D03*
X168950000Y-95000000D03*
%TD*%
D20*
%TO.C,U_PROM*%
X70312500Y-94250000D03*
X70312500Y-94750000D03*
X70312500Y-95250000D03*
X70312500Y-95750000D03*
X70312500Y-96250000D03*
X70312500Y-96750000D03*
X70312500Y-97250000D03*
X70312500Y-97750000D03*
X70312500Y-98250000D03*
X70312500Y-98750000D03*
X70312500Y-99250000D03*
X70312500Y-99750000D03*
X70312500Y-100250000D03*
X70312500Y-100750000D03*
X70312500Y-101250000D03*
X70312500Y-101750000D03*
X70312500Y-102250000D03*
X70312500Y-102750000D03*
X70312500Y-103250000D03*
X70312500Y-103750000D03*
X70312500Y-104250000D03*
X70312500Y-104750000D03*
X70312500Y-105250000D03*
X70312500Y-105750000D03*
X89687500Y-105750000D03*
X89687500Y-105250000D03*
X89687500Y-104750000D03*
X89687500Y-104250000D03*
X89687500Y-103750000D03*
X89687500Y-103250000D03*
X89687500Y-102750000D03*
X89687500Y-102250000D03*
X89687500Y-101750000D03*
X89687500Y-101250000D03*
X89687500Y-100750000D03*
X89687500Y-100250000D03*
X89687500Y-99750000D03*
X89687500Y-99250000D03*
X89687500Y-98750000D03*
X89687500Y-98250000D03*
X89687500Y-97750000D03*
X89687500Y-97250000D03*
X89687500Y-96750000D03*
X89687500Y-96250000D03*
X89687500Y-95750000D03*
X89687500Y-95250000D03*
X89687500Y-94750000D03*
X89687500Y-94250000D03*
%TD*%
D15*
%TO.C,D3*%
X176062500Y-101050000D03*
X176062500Y-102950000D03*
X177937500Y-102000000D03*
%TD*%
D21*
%TO.C,U_SR3*%
X107525000Y-113555000D03*
X107525000Y-114825000D03*
X107525000Y-116095000D03*
X107525000Y-117365000D03*
X107525000Y-118635000D03*
X107525000Y-119905000D03*
X107525000Y-121175000D03*
X107525000Y-122445000D03*
X112475000Y-122445000D03*
X112475000Y-121175000D03*
X112475000Y-119905000D03*
X112475000Y-118635000D03*
X112475000Y-117365000D03*
X112475000Y-116095000D03*
X112475000Y-114825000D03*
X112475000Y-113555000D03*
%TD*%
D18*
%TO.C,R6*%
X179490000Y-102000000D03*
X180510000Y-102000000D03*
%TD*%
D11*
%TO.C,C3*%
X169520000Y-80000000D03*
X170480000Y-80000000D03*
%TD*%
D15*
%TO.C,D1*%
X164062500Y-101050000D03*
X164062500Y-102950000D03*
X165937500Y-102000000D03*
%TD*%
%TO.C,D6*%
X176062500Y-106050000D03*
X176062500Y-107950000D03*
X177937500Y-107000000D03*
%TD*%
D11*
%TO.C,C8*%
X169520000Y-85000000D03*
X170480000Y-85000000D03*
%TD*%
D21*
%TO.C,U_FLASH*%
X112525000Y-136095000D03*
X112525000Y-137365000D03*
X112525000Y-138635000D03*
X112525000Y-139905000D03*
X117475000Y-139905000D03*
X117475000Y-138635000D03*
X117475000Y-137365000D03*
X117475000Y-136095000D03*
%TD*%
D18*
%TO.C,R7*%
X182490000Y-102000000D03*
X183510000Y-102000000D03*
%TD*%
D22*
%TO.C,U_MROM*%
X130000000Y-93162500D03*
X128730000Y-93162500D03*
X127460000Y-93162500D03*
X126190000Y-93162500D03*
D15*
X124437500Y-94920000D03*
X124437500Y-96190000D03*
X124437500Y-97460000D03*
X124437500Y-98730000D03*
X124437500Y-100000000D03*
X124437500Y-101270000D03*
X124437500Y-102540000D03*
X124437500Y-103810000D03*
X124437500Y-105080000D03*
D22*
X126190000Y-106837500D03*
X127460000Y-106837500D03*
X128730000Y-106837500D03*
X130000000Y-106837500D03*
X131270000Y-106837500D03*
X132540000Y-106837500D03*
X133810000Y-106837500D03*
D15*
X135562500Y-105080000D03*
X135562500Y-103810000D03*
X135562500Y-102540000D03*
X135562500Y-101270000D03*
X135562500Y-100000000D03*
X135562500Y-98730000D03*
X135562500Y-97460000D03*
X135562500Y-96190000D03*
X135562500Y-94920000D03*
D22*
X133810000Y-93162500D03*
X132540000Y-93162500D03*
X131270000Y-93162500D03*
%TD*%
D23*
%TO.C,J_USB*%
X190000000Y-138000000D03*
X190000000Y-137150000D03*
X190000000Y-136300000D03*
X190000000Y-135450000D03*
X190000000Y-134600000D03*
X190000000Y-133750000D03*
X190000000Y-132900000D03*
X190000000Y-132050000D03*
X191350000Y-132050000D03*
X191350000Y-132900000D03*
X191350000Y-133750000D03*
X191350000Y-134600000D03*
X191350000Y-135450000D03*
X191350000Y-136300000D03*
X191350000Y-137150000D03*
X191350000Y-138000000D03*
D24*
X190980000Y-139350000D03*
D25*
X194360000Y-139350000D03*
D24*
X190980000Y-130700000D03*
D25*
X194360000Y-130700000D03*
%TD*%
D15*
%TO.C,D4*%
X164062500Y-106050000D03*
X164062500Y-107950000D03*
X165937500Y-107000000D03*
%TD*%
D21*
%TO.C,U_SR1*%
X67525000Y-113555000D03*
X67525000Y-114825000D03*
X67525000Y-116095000D03*
X67525000Y-117365000D03*
X67525000Y-118635000D03*
X67525000Y-119905000D03*
X67525000Y-121175000D03*
X67525000Y-122445000D03*
X72475000Y-122445000D03*
X72475000Y-121175000D03*
X72475000Y-119905000D03*
X72475000Y-118635000D03*
X72475000Y-117365000D03*
X72475000Y-116095000D03*
X72475000Y-114825000D03*
X72475000Y-113555000D03*
%TD*%
D26*
%TO.C,J_CTRG2*%
X90035000Y-155000000D03*
X91305000Y-155000000D03*
X92575000Y-155000000D03*
X93845000Y-155000000D03*
X95115000Y-155000000D03*
X96385000Y-155000000D03*
X97655000Y-155000000D03*
X98925000Y-155000000D03*
X100195000Y-155000000D03*
X101465000Y-155000000D03*
X102735000Y-155000000D03*
X104005000Y-155000000D03*
X105275000Y-155000000D03*
X106545000Y-155000000D03*
X107815000Y-155000000D03*
X109085000Y-155000000D03*
X110355000Y-155000000D03*
X111625000Y-155000000D03*
X112895000Y-155000000D03*
X114165000Y-155000000D03*
X115435000Y-155000000D03*
X116705000Y-155000000D03*
X117975000Y-155000000D03*
X119245000Y-155000000D03*
X120515000Y-155000000D03*
X121785000Y-155000000D03*
X123055000Y-155000000D03*
X124325000Y-155000000D03*
X125595000Y-155000000D03*
X126865000Y-155000000D03*
X128135000Y-155000000D03*
X129405000Y-155000000D03*
X130675000Y-155000000D03*
X131945000Y-155000000D03*
X133215000Y-155000000D03*
X134485000Y-155000000D03*
X135755000Y-155000000D03*
X137025000Y-155000000D03*
X138295000Y-155000000D03*
X139565000Y-155000000D03*
X140835000Y-155000000D03*
X142105000Y-155000000D03*
X143375000Y-155000000D03*
X144645000Y-155000000D03*
X145915000Y-155000000D03*
X147185000Y-155000000D03*
X148455000Y-155000000D03*
X149725000Y-155000000D03*
X150995000Y-155000000D03*
X152265000Y-155000000D03*
X153535000Y-155000000D03*
X154805000Y-155000000D03*
X156075000Y-155000000D03*
X157345000Y-155000000D03*
X158615000Y-155000000D03*
X159885000Y-155000000D03*
X161155000Y-155000000D03*
X162425000Y-155000000D03*
X163695000Y-155000000D03*
X164965000Y-155000000D03*
%TD*%
D11*
%TO.C,C17*%
X97520000Y-142000000D03*
X98480000Y-142000000D03*
%TD*%
D26*
%TO.C,J_CTRG1*%
X90035000Y-56000000D03*
X91305000Y-56000000D03*
X92575000Y-56000000D03*
X93845000Y-56000000D03*
X95115000Y-56000000D03*
X96385000Y-56000000D03*
X97655000Y-56000000D03*
X98925000Y-56000000D03*
X100195000Y-56000000D03*
X101465000Y-56000000D03*
X102735000Y-56000000D03*
X104005000Y-56000000D03*
X105275000Y-56000000D03*
X106545000Y-56000000D03*
X107815000Y-56000000D03*
X109085000Y-56000000D03*
X110355000Y-56000000D03*
X111625000Y-56000000D03*
X112895000Y-56000000D03*
X114165000Y-56000000D03*
X115435000Y-56000000D03*
X116705000Y-56000000D03*
X117975000Y-56000000D03*
X119245000Y-56000000D03*
X120515000Y-56000000D03*
X121785000Y-56000000D03*
X123055000Y-56000000D03*
X124325000Y-56000000D03*
X125595000Y-56000000D03*
X126865000Y-56000000D03*
X128135000Y-56000000D03*
X129405000Y-56000000D03*
X130675000Y-56000000D03*
X131945000Y-56000000D03*
X133215000Y-56000000D03*
X134485000Y-56000000D03*
X135755000Y-56000000D03*
X137025000Y-56000000D03*
X138295000Y-56000000D03*
X139565000Y-56000000D03*
X140835000Y-56000000D03*
X142105000Y-56000000D03*
X143375000Y-56000000D03*
X144645000Y-56000000D03*
X145915000Y-56000000D03*
X147185000Y-56000000D03*
X148455000Y-56000000D03*
X149725000Y-56000000D03*
X150995000Y-56000000D03*
X152265000Y-56000000D03*
X153535000Y-56000000D03*
X154805000Y-56000000D03*
X156075000Y-56000000D03*
X157345000Y-56000000D03*
X158615000Y-56000000D03*
X159885000Y-56000000D03*
X161155000Y-56000000D03*
X162425000Y-56000000D03*
X163695000Y-56000000D03*
X164965000Y-56000000D03*
%TD*%
D22*
%TO.C,U_SROM*%
X155000000Y-73162500D03*
X153730000Y-73162500D03*
X152460000Y-73162500D03*
X151190000Y-73162500D03*
D15*
X149437500Y-74920000D03*
X149437500Y-76190000D03*
X149437500Y-77460000D03*
X149437500Y-78730000D03*
X149437500Y-80000000D03*
X149437500Y-81270000D03*
X149437500Y-82540000D03*
X149437500Y-83810000D03*
X149437500Y-85080000D03*
D22*
X151190000Y-86837500D03*
X152460000Y-86837500D03*
X153730000Y-86837500D03*
X155000000Y-86837500D03*
X156270000Y-86837500D03*
X157540000Y-86837500D03*
X158810000Y-86837500D03*
D15*
X160562500Y-85080000D03*
X160562500Y-83810000D03*
X160562500Y-82540000D03*
X160562500Y-81270000D03*
X160562500Y-80000000D03*
X160562500Y-78730000D03*
X160562500Y-77460000D03*
X160562500Y-76190000D03*
X160562500Y-74920000D03*
D22*
X158810000Y-73162500D03*
X157540000Y-73162500D03*
X156270000Y-73162500D03*
%TD*%
D11*
%TO.C,C4*%
X174520000Y-80000000D03*
X175480000Y-80000000D03*
%TD*%
D21*
%TO.C,U_SR2*%
X87525000Y-113555000D03*
X87525000Y-114825000D03*
X87525000Y-116095000D03*
X87525000Y-117365000D03*
X87525000Y-118635000D03*
X87525000Y-119905000D03*
X87525000Y-121175000D03*
X87525000Y-122445000D03*
X92475000Y-122445000D03*
X92475000Y-121175000D03*
X92475000Y-119905000D03*
X92475000Y-118635000D03*
X92475000Y-117365000D03*
X92475000Y-116095000D03*
X92475000Y-114825000D03*
X92475000Y-113555000D03*
%TD*%
D20*
%TO.C,U_CROM1*%
X70312500Y-74250000D03*
X70312500Y-74750000D03*
X70312500Y-75250000D03*
X70312500Y-75750000D03*
X70312500Y-76250000D03*
X70312500Y-76750000D03*
X70312500Y-77250000D03*
X70312500Y-77750000D03*
X70312500Y-78250000D03*
X70312500Y-78750000D03*
X70312500Y-79250000D03*
X70312500Y-79750000D03*
X70312500Y-80250000D03*
X70312500Y-80750000D03*
X70312500Y-81250000D03*
X70312500Y-81750000D03*
X70312500Y-82250000D03*
X70312500Y-82750000D03*
X70312500Y-83250000D03*
X70312500Y-83750000D03*
X70312500Y-84250000D03*
X70312500Y-84750000D03*
X70312500Y-85250000D03*
X70312500Y-85750000D03*
X89687500Y-85750000D03*
X89687500Y-85250000D03*
X89687500Y-84750000D03*
X89687500Y-84250000D03*
X89687500Y-83750000D03*
X89687500Y-83250000D03*
X89687500Y-82750000D03*
X89687500Y-82250000D03*
X89687500Y-81750000D03*
X89687500Y-81250000D03*
X89687500Y-80750000D03*
X89687500Y-80250000D03*
X89687500Y-79750000D03*
X89687500Y-79250000D03*
X89687500Y-78750000D03*
X89687500Y-78250000D03*
X89687500Y-77750000D03*
X89687500Y-77250000D03*
X89687500Y-76750000D03*
X89687500Y-76250000D03*
X89687500Y-75750000D03*
X89687500Y-75250000D03*
X89687500Y-74750000D03*
X89687500Y-74250000D03*
%TD*%
D11*
%TO.C,C6*%
X159520000Y-85000000D03*
X160480000Y-85000000D03*
%TD*%
D18*
%TO.C,R3*%
X185490000Y-98000000D03*
X186510000Y-98000000D03*
%TD*%
%TO.C,R2*%
X182490000Y-98000000D03*
X183510000Y-98000000D03*
%TD*%
D19*
%TO.C,C14*%
X159050000Y-95000000D03*
X160950000Y-95000000D03*
%TD*%
D11*
%TO.C,C7*%
X164520000Y-85000000D03*
X165480000Y-85000000D03*
%TD*%
D27*
%TO.C,Y1*%
X101250000Y-138000000D03*
X98750000Y-138000000D03*
%TD*%
D20*
%TO.C,U_CROM2*%
X105312500Y-74250000D03*
X105312500Y-74750000D03*
X105312500Y-75250000D03*
X105312500Y-75750000D03*
X105312500Y-76250000D03*
X105312500Y-76750000D03*
X105312500Y-77250000D03*
X105312500Y-77750000D03*
X105312500Y-78250000D03*
X105312500Y-78750000D03*
X105312500Y-79250000D03*
X105312500Y-79750000D03*
X105312500Y-80250000D03*
X105312500Y-80750000D03*
X105312500Y-81250000D03*
X105312500Y-81750000D03*
X105312500Y-82250000D03*
X105312500Y-82750000D03*
X105312500Y-83250000D03*
X105312500Y-83750000D03*
X105312500Y-84250000D03*
X105312500Y-84750000D03*
X105312500Y-85250000D03*
X105312500Y-85750000D03*
X124687500Y-85750000D03*
X124687500Y-85250000D03*
X124687500Y-84750000D03*
X124687500Y-84250000D03*
X124687500Y-83750000D03*
X124687500Y-83250000D03*
X124687500Y-82750000D03*
X124687500Y-82250000D03*
X124687500Y-81750000D03*
X124687500Y-81250000D03*
X124687500Y-80750000D03*
X124687500Y-80250000D03*
X124687500Y-79750000D03*
X124687500Y-79250000D03*
X124687500Y-78750000D03*
X124687500Y-78250000D03*
X124687500Y-77750000D03*
X124687500Y-77250000D03*
X124687500Y-76750000D03*
X124687500Y-76250000D03*
X124687500Y-75750000D03*
X124687500Y-75250000D03*
X124687500Y-74750000D03*
X124687500Y-74250000D03*
%TD*%
D18*
%TO.C,R5*%
X191490000Y-98000000D03*
X192510000Y-98000000D03*
%TD*%
D11*
%TO.C,C1*%
X159520000Y-80000000D03*
X160480000Y-80000000D03*
%TD*%
D19*
%TO.C,C16*%
X175050000Y-95000000D03*
X176950000Y-95000000D03*
%TD*%
D11*
%TO.C,C10*%
X179520000Y-85000000D03*
X180480000Y-85000000D03*
%TD*%
%TO.C,C2*%
X164520000Y-80000000D03*
X165480000Y-80000000D03*
%TD*%
M02*
