%TF.GenerationSoftware,KiCad,Pcbnew,9.0.8+dfsg-1*%
%TF.CreationDate,2026-04-27T08:30:16+02:00*%
%TF.ProjectId,neocart,6e656f63-6172-4742-9e6b-696361645f70,1.0*%
%TF.SameCoordinates,Original*%
%TF.FileFunction,OtherDrawing,Comment*%
%FSLAX46Y46*%
G04 Gerber Fmt 4.6, Leading zero omitted, Abs format (unit mm)*
G04 Created by KiCad (PCBNEW 9.0.8+dfsg-1) date 2026-04-27 08:30:16*
%MOMM*%
%LPD*%
G01*
G04 APERTURE LIST*
%ADD10C,0.100000*%
G04 APERTURE END LIST*
D10*
X194385714Y-135251109D02*
X194385714Y-134751109D01*
X194385714Y-134751109D02*
X194576190Y-134751109D01*
X194576190Y-134751109D02*
X194623809Y-134774919D01*
X194623809Y-134774919D02*
X194647619Y-134798728D01*
X194647619Y-134798728D02*
X194671428Y-134846347D01*
X194671428Y-134846347D02*
X194671428Y-134917776D01*
X194671428Y-134917776D02*
X194647619Y-134965395D01*
X194647619Y-134965395D02*
X194623809Y-134989204D01*
X194623809Y-134989204D02*
X194576190Y-135013014D01*
X194576190Y-135013014D02*
X194385714Y-135013014D01*
X195171428Y-135203490D02*
X195147619Y-135227300D01*
X195147619Y-135227300D02*
X195076190Y-135251109D01*
X195076190Y-135251109D02*
X195028571Y-135251109D01*
X195028571Y-135251109D02*
X194957143Y-135227300D01*
X194957143Y-135227300D02*
X194909524Y-135179680D01*
X194909524Y-135179680D02*
X194885714Y-135132061D01*
X194885714Y-135132061D02*
X194861905Y-135036823D01*
X194861905Y-135036823D02*
X194861905Y-134965395D01*
X194861905Y-134965395D02*
X194885714Y-134870157D01*
X194885714Y-134870157D02*
X194909524Y-134822538D01*
X194909524Y-134822538D02*
X194957143Y-134774919D01*
X194957143Y-134774919D02*
X195028571Y-134751109D01*
X195028571Y-134751109D02*
X195076190Y-134751109D01*
X195076190Y-134751109D02*
X195147619Y-134774919D01*
X195147619Y-134774919D02*
X195171428Y-134798728D01*
X195552381Y-134989204D02*
X195623809Y-135013014D01*
X195623809Y-135013014D02*
X195647619Y-135036823D01*
X195647619Y-135036823D02*
X195671428Y-135084442D01*
X195671428Y-135084442D02*
X195671428Y-135155871D01*
X195671428Y-135155871D02*
X195647619Y-135203490D01*
X195647619Y-135203490D02*
X195623809Y-135227300D01*
X195623809Y-135227300D02*
X195576190Y-135251109D01*
X195576190Y-135251109D02*
X195385714Y-135251109D01*
X195385714Y-135251109D02*
X195385714Y-134751109D01*
X195385714Y-134751109D02*
X195552381Y-134751109D01*
X195552381Y-134751109D02*
X195600000Y-134774919D01*
X195600000Y-134774919D02*
X195623809Y-134798728D01*
X195623809Y-134798728D02*
X195647619Y-134846347D01*
X195647619Y-134846347D02*
X195647619Y-134893966D01*
X195647619Y-134893966D02*
X195623809Y-134941585D01*
X195623809Y-134941585D02*
X195600000Y-134965395D01*
X195600000Y-134965395D02*
X195552381Y-134989204D01*
X195552381Y-134989204D02*
X195385714Y-134989204D01*
X196266666Y-134989204D02*
X196433333Y-134989204D01*
X196504761Y-135251109D02*
X196266666Y-135251109D01*
X196266666Y-135251109D02*
X196266666Y-134751109D01*
X196266666Y-134751109D02*
X196504761Y-134751109D01*
X196933333Y-135251109D02*
X196933333Y-134751109D01*
X196933333Y-135227300D02*
X196885714Y-135251109D01*
X196885714Y-135251109D02*
X196790476Y-135251109D01*
X196790476Y-135251109D02*
X196742857Y-135227300D01*
X196742857Y-135227300D02*
X196719047Y-135203490D01*
X196719047Y-135203490D02*
X196695238Y-135155871D01*
X196695238Y-135155871D02*
X196695238Y-135013014D01*
X196695238Y-135013014D02*
X196719047Y-134965395D01*
X196719047Y-134965395D02*
X196742857Y-134941585D01*
X196742857Y-134941585D02*
X196790476Y-134917776D01*
X196790476Y-134917776D02*
X196885714Y-134917776D01*
X196885714Y-134917776D02*
X196933333Y-134941585D01*
X197385714Y-134917776D02*
X197385714Y-135322538D01*
X197385714Y-135322538D02*
X197361904Y-135370157D01*
X197361904Y-135370157D02*
X197338095Y-135393966D01*
X197338095Y-135393966D02*
X197290476Y-135417776D01*
X197290476Y-135417776D02*
X197219047Y-135417776D01*
X197219047Y-135417776D02*
X197171428Y-135393966D01*
X197385714Y-135227300D02*
X197338095Y-135251109D01*
X197338095Y-135251109D02*
X197242857Y-135251109D01*
X197242857Y-135251109D02*
X197195238Y-135227300D01*
X197195238Y-135227300D02*
X197171428Y-135203490D01*
X197171428Y-135203490D02*
X197147619Y-135155871D01*
X197147619Y-135155871D02*
X197147619Y-135013014D01*
X197147619Y-135013014D02*
X197171428Y-134965395D01*
X197171428Y-134965395D02*
X197195238Y-134941585D01*
X197195238Y-134941585D02*
X197242857Y-134917776D01*
X197242857Y-134917776D02*
X197338095Y-134917776D01*
X197338095Y-134917776D02*
X197385714Y-134941585D01*
X197814285Y-135227300D02*
X197766666Y-135251109D01*
X197766666Y-135251109D02*
X197671428Y-135251109D01*
X197671428Y-135251109D02*
X197623809Y-135227300D01*
X197623809Y-135227300D02*
X197600000Y-135179680D01*
X197600000Y-135179680D02*
X197600000Y-134989204D01*
X197600000Y-134989204D02*
X197623809Y-134941585D01*
X197623809Y-134941585D02*
X197671428Y-134917776D01*
X197671428Y-134917776D02*
X197766666Y-134917776D01*
X197766666Y-134917776D02*
X197814285Y-134941585D01*
X197814285Y-134941585D02*
X197838095Y-134989204D01*
X197838095Y-134989204D02*
X197838095Y-135036823D01*
X197838095Y-135036823D02*
X197600000Y-135084442D01*
M02*
