%TF.GenerationSoftware,KiCad,Pcbnew,9.0.8+dfsg-1*%
%TF.CreationDate,2026-04-27T08:30:16+02:00*%
%TF.ProjectId,neocart,6e656f63-6172-4742-9e6b-696361645f70,1.0*%
%TF.SameCoordinates,Original*%
%TF.FileFunction,Copper,L4,Bot*%
%TF.FilePolarity,Positive*%
%FSLAX46Y46*%
G04 Gerber Fmt 4.6, Leading zero omitted, Abs format (unit mm)*
G04 Created by KiCad (PCBNEW 9.0.8+dfsg-1) date 2026-04-27 08:30:16*
%MOMM*%
%LPD*%
G01*
G04 APERTURE LIST*
%TA.AperFunction,ComponentPad*%
%ADD10C,0.700000*%
%TD*%
%TA.AperFunction,ComponentPad*%
%ADD11O,0.900000X2.400000*%
%TD*%
%TA.AperFunction,ComponentPad*%
%ADD12O,0.900000X1.700000*%
%TD*%
%TA.AperFunction,SMDPad,CuDef*%
%ADD13R,0.800000X6.000000*%
%TD*%
G04 APERTURE END LIST*
D10*
%TO.P,J_USB,A1*%
%TO.N,N/C*%
X190000000Y-138000000D03*
%TO.P,J_USB,A4*%
X190000000Y-137150000D03*
%TO.P,J_USB,A5*%
X190000000Y-136300000D03*
%TO.P,J_USB,A6*%
X190000000Y-135450000D03*
%TO.P,J_USB,A7*%
X190000000Y-134600000D03*
%TO.P,J_USB,A8*%
X190000000Y-133750000D03*
%TO.P,J_USB,A9*%
X190000000Y-132900000D03*
%TO.P,J_USB,A12*%
X190000000Y-132050000D03*
%TO.P,J_USB,B1*%
X191350000Y-132050000D03*
%TO.P,J_USB,B4*%
X191350000Y-132900000D03*
%TO.P,J_USB,B5*%
X191350000Y-133750000D03*
%TO.P,J_USB,B6*%
X191350000Y-134600000D03*
%TO.P,J_USB,B7*%
X191350000Y-135450000D03*
%TO.P,J_USB,B8*%
X191350000Y-136300000D03*
%TO.P,J_USB,B9*%
X191350000Y-137150000D03*
%TO.P,J_USB,B12*%
X191350000Y-138000000D03*
D11*
%TO.P,J_USB,S1*%
X190980000Y-139350000D03*
D12*
X194360000Y-139350000D03*
D11*
X190980000Y-130700000D03*
D12*
X194360000Y-130700000D03*
%TD*%
D13*
%TO.P,J_CTRG2,A1*%
%TO.N,GND*%
X90035000Y-155000000D03*
%TO.P,J_CTRG2,A2*%
X91305000Y-155000000D03*
%TO.P,J_CTRG2,A3*%
X92575000Y-155000000D03*
%TO.P,J_CTRG2,A4*%
X93845000Y-155000000D03*
%TO.P,J_CTRG2,A5*%
%TO.N,PD0*%
X95115000Y-155000000D03*
%TO.P,J_CTRG2,A6*%
%TO.N,PD1*%
X96385000Y-155000000D03*
%TO.P,J_CTRG2,A7*%
%TO.N,PD2*%
X97655000Y-155000000D03*
%TO.P,J_CTRG2,A8*%
%TO.N,PD3*%
X98925000Y-155000000D03*
%TO.P,J_CTRG2,A9*%
%TO.N,PD4*%
X100195000Y-155000000D03*
%TO.P,J_CTRG2,A10*%
%TO.N,PD5*%
X101465000Y-155000000D03*
%TO.P,J_CTRG2,A11*%
%TO.N,PD6*%
X102735000Y-155000000D03*
%TO.P,J_CTRG2,A12*%
%TO.N,PD7*%
X104005000Y-155000000D03*
%TO.P,J_CTRG2,A13*%
%TO.N,PD8*%
X105275000Y-155000000D03*
%TO.P,J_CTRG2,A14*%
%TO.N,PD9*%
X106545000Y-155000000D03*
%TO.P,J_CTRG2,A15*%
%TO.N,PD10*%
X107815000Y-155000000D03*
%TO.P,J_CTRG2,A16*%
%TO.N,PD11*%
X109085000Y-155000000D03*
%TO.P,J_CTRG2,A17*%
%TO.N,PD12*%
X110355000Y-155000000D03*
%TO.P,J_CTRG2,A18*%
%TO.N,PD13*%
X111625000Y-155000000D03*
%TO.P,J_CTRG2,A19*%
%TO.N,PD14*%
X112895000Y-155000000D03*
%TO.P,J_CTRG2,A20*%
%TO.N,PD15*%
X114165000Y-155000000D03*
%TO.P,J_CTRG2,A21*%
%TO.N,GND*%
X115435000Y-155000000D03*
%TO.P,J_CTRG2,A22*%
X116705000Y-155000000D03*
%TO.P,J_CTRG2,A23*%
%TO.N,ROMOEU*%
X117975000Y-155000000D03*
%TO.P,J_CTRG2,A24*%
%TO.N,ROMOEL*%
X119245000Y-155000000D03*
%TO.P,J_CTRG2,A25*%
%TO.N,GND*%
X120515000Y-155000000D03*
%TO.P,J_CTRG2,A26*%
X121785000Y-155000000D03*
%TO.P,J_CTRG2,A27*%
X123055000Y-155000000D03*
%TO.P,J_CTRG2,A28*%
X124325000Y-155000000D03*
%TO.P,J_CTRG2,A29*%
%TO.N,VCC_5V*%
X125595000Y-155000000D03*
%TO.P,J_CTRG2,A30*%
X126865000Y-155000000D03*
%TO.P,J_CTRG2,A31*%
X128135000Y-155000000D03*
%TO.P,J_CTRG2,A32*%
X129405000Y-155000000D03*
%TO.P,J_CTRG2,A33*%
%TO.N,ROMOE*%
X130675000Y-155000000D03*
%TO.P,J_CTRG2,A34*%
%TO.N,GND*%
X131945000Y-155000000D03*
%TO.P,J_CTRG2,A35*%
X133215000Y-155000000D03*
%TO.P,J_CTRG2,A36*%
X134485000Y-155000000D03*
%TO.P,J_CTRG2,A37*%
X135755000Y-155000000D03*
%TO.P,J_CTRG2,A38*%
X137025000Y-155000000D03*
%TO.P,J_CTRG2,A39*%
X138295000Y-155000000D03*
%TO.P,J_CTRG2,A40*%
X139565000Y-155000000D03*
%TO.P,J_CTRG2,A41*%
X140835000Y-155000000D03*
%TO.P,J_CTRG2,A42*%
X142105000Y-155000000D03*
%TO.P,J_CTRG2,A43*%
X143375000Y-155000000D03*
%TO.P,J_CTRG2,A44*%
X144645000Y-155000000D03*
%TO.P,J_CTRG2,A45*%
X145915000Y-155000000D03*
%TO.P,J_CTRG2,A46*%
X147185000Y-155000000D03*
%TO.P,J_CTRG2,A47*%
%TO.N,MA8*%
X148455000Y-155000000D03*
%TO.P,J_CTRG2,A48*%
%TO.N,MA9*%
X149725000Y-155000000D03*
%TO.P,J_CTRG2,A49*%
%TO.N,MA10*%
X150995000Y-155000000D03*
%TO.P,J_CTRG2,A50*%
%TO.N,MA11*%
X152265000Y-155000000D03*
%TO.P,J_CTRG2,A51*%
%TO.N,MA12*%
X153535000Y-155000000D03*
%TO.P,J_CTRG2,A52*%
%TO.N,MA13*%
X154805000Y-155000000D03*
%TO.P,J_CTRG2,A53*%
%TO.N,MA14*%
X156075000Y-155000000D03*
%TO.P,J_CTRG2,A54*%
%TO.N,MA15*%
X157345000Y-155000000D03*
%TO.P,J_CTRG2,A55*%
%TO.N,MA16*%
X158615000Y-155000000D03*
%TO.P,J_CTRG2,A56*%
%TO.N,GND*%
X159885000Y-155000000D03*
%TO.P,J_CTRG2,A57*%
X161155000Y-155000000D03*
%TO.P,J_CTRG2,A58*%
X162425000Y-155000000D03*
%TO.P,J_CTRG2,A59*%
X163695000Y-155000000D03*
%TO.P,J_CTRG2,A60*%
X164965000Y-155000000D03*
%TD*%
%TO.P,J_CTRG1,A1*%
%TO.N,GND*%
X90035000Y-56000000D03*
%TO.P,J_CTRG1,A2*%
X91305000Y-56000000D03*
%TO.P,J_CTRG1,A3*%
%TO.N,CA0*%
X92575000Y-56000000D03*
%TO.P,J_CTRG1,A4*%
%TO.N,CA2*%
X93845000Y-56000000D03*
%TO.P,J_CTRG1,A5*%
%TO.N,CA4*%
X95115000Y-56000000D03*
%TO.P,J_CTRG1,A6*%
%TO.N,CA6*%
X96385000Y-56000000D03*
%TO.P,J_CTRG1,A7*%
%TO.N,CA8*%
X97655000Y-56000000D03*
%TO.P,J_CTRG1,A8*%
%TO.N,CA10*%
X98925000Y-56000000D03*
%TO.P,J_CTRG1,A9*%
%TO.N,CA12*%
X100195000Y-56000000D03*
%TO.P,J_CTRG1,A10*%
%TO.N,CA14*%
X101465000Y-56000000D03*
%TO.P,J_CTRG1,A11*%
%TO.N,CA16*%
X102735000Y-56000000D03*
%TO.P,J_CTRG1,A12*%
%TO.N,CA18*%
X104005000Y-56000000D03*
%TO.P,J_CTRG1,A13*%
%TO.N,CA20*%
X105275000Y-56000000D03*
%TO.P,J_CTRG1,A14*%
%TO.N,CA22*%
X106545000Y-56000000D03*
%TO.P,J_CTRG1,A15*%
%TO.N,PCK1B*%
X107815000Y-56000000D03*
%TO.P,J_CTRG1,A16*%
%TO.N,PCK2B*%
X109085000Y-56000000D03*
%TO.P,J_CTRG1,A17*%
%TO.N,GND*%
X110355000Y-56000000D03*
%TO.P,J_CTRG1,A18*%
X111625000Y-56000000D03*
%TO.P,J_CTRG1,A19*%
%TO.N,CR0*%
X112895000Y-56000000D03*
%TO.P,J_CTRG1,A20*%
%TO.N,CR2*%
X114165000Y-56000000D03*
%TO.P,J_CTRG1,A21*%
%TO.N,CR4*%
X115435000Y-56000000D03*
%TO.P,J_CTRG1,A22*%
%TO.N,CR6*%
X116705000Y-56000000D03*
%TO.P,J_CTRG1,A23*%
%TO.N,CR8*%
X117975000Y-56000000D03*
%TO.P,J_CTRG1,A24*%
%TO.N,CR10*%
X119245000Y-56000000D03*
%TO.P,J_CTRG1,A25*%
%TO.N,CR12*%
X120515000Y-56000000D03*
%TO.P,J_CTRG1,A26*%
%TO.N,CR14*%
X121785000Y-56000000D03*
%TO.P,J_CTRG1,A27*%
%TO.N,CR16*%
X123055000Y-56000000D03*
%TO.P,J_CTRG1,A28*%
%TO.N,CR18*%
X124325000Y-56000000D03*
%TO.P,J_CTRG1,A29*%
%TO.N,VCC_5V*%
X125595000Y-56000000D03*
%TO.P,J_CTRG1,A30*%
X126865000Y-56000000D03*
%TO.P,J_CTRG1,A31*%
X128135000Y-56000000D03*
%TO.P,J_CTRG1,A32*%
X129405000Y-56000000D03*
%TO.P,J_CTRG1,A33*%
%TO.N,CR20*%
X130675000Y-56000000D03*
%TO.P,J_CTRG1,A34*%
%TO.N,CR22*%
X131945000Y-56000000D03*
%TO.P,J_CTRG1,A35*%
%TO.N,CR24*%
X133215000Y-56000000D03*
%TO.P,J_CTRG1,A36*%
%TO.N,CR26*%
X134485000Y-56000000D03*
%TO.P,J_CTRG1,A37*%
%TO.N,CR28*%
X135755000Y-56000000D03*
%TO.P,J_CTRG1,A38*%
%TO.N,CR30*%
X137025000Y-56000000D03*
%TO.P,J_CTRG1,A39*%
%TO.N,GND*%
X138295000Y-56000000D03*
%TO.P,J_CTRG1,A40*%
X139565000Y-56000000D03*
%TO.P,J_CTRG1,A41*%
X140835000Y-56000000D03*
%TO.P,J_CTRG1,A42*%
X142105000Y-56000000D03*
%TO.P,J_CTRG1,A43*%
%TO.N,SA0*%
X143375000Y-56000000D03*
%TO.P,J_CTRG1,A44*%
%TO.N,SA1*%
X144645000Y-56000000D03*
%TO.P,J_CTRG1,A45*%
%TO.N,SA2*%
X145915000Y-56000000D03*
%TO.P,J_CTRG1,A46*%
%TO.N,SA3*%
X147185000Y-56000000D03*
%TO.P,J_CTRG1,A47*%
%TO.N,SA4*%
X148455000Y-56000000D03*
%TO.P,J_CTRG1,A48*%
%TO.N,SA5*%
X149725000Y-56000000D03*
%TO.P,J_CTRG1,A49*%
%TO.N,SA6*%
X150995000Y-56000000D03*
%TO.P,J_CTRG1,A50*%
%TO.N,SA7*%
X152265000Y-56000000D03*
%TO.P,J_CTRG1,A51*%
%TO.N,SA8*%
X153535000Y-56000000D03*
%TO.P,J_CTRG1,A52*%
%TO.N,SA9*%
X154805000Y-56000000D03*
%TO.P,J_CTRG1,A53*%
%TO.N,SA10*%
X156075000Y-56000000D03*
%TO.P,J_CTRG1,A54*%
%TO.N,SA11*%
X157345000Y-56000000D03*
%TO.P,J_CTRG1,A55*%
%TO.N,SA12*%
X158615000Y-56000000D03*
%TO.P,J_CTRG1,A56*%
%TO.N,SA13*%
X159885000Y-56000000D03*
%TO.P,J_CTRG1,A57*%
%TO.N,SA14*%
X161155000Y-56000000D03*
%TO.P,J_CTRG1,A58*%
%TO.N,GND*%
X162425000Y-56000000D03*
%TO.P,J_CTRG1,A59*%
X163695000Y-56000000D03*
%TO.P,J_CTRG1,A60*%
X164965000Y-56000000D03*
%TD*%
%TA.AperFunction,Conductor*%
%TO.N,GND*%
G36*
X203984191Y-50993907D02*
G01*
X204020155Y-51043407D01*
X204025000Y-51074000D01*
X204025000Y-153926000D01*
X204006093Y-153984191D01*
X203956593Y-154020155D01*
X203926000Y-154025000D01*
X165964000Y-154025000D01*
X165905809Y-154006093D01*
X165869845Y-153956593D01*
X165865000Y-153926000D01*
X165865000Y-151952175D01*
X165858598Y-151892629D01*
X165858596Y-151892618D01*
X165808353Y-151757911D01*
X165808352Y-151757909D01*
X165722192Y-151642815D01*
X165722184Y-151642807D01*
X165607090Y-151556647D01*
X165607088Y-151556646D01*
X165472381Y-151506403D01*
X165472370Y-151506401D01*
X165412824Y-151500000D01*
X165215001Y-151500000D01*
X165215000Y-151500001D01*
X165215000Y-154025000D01*
X164715000Y-154025000D01*
X164715000Y-151500001D01*
X164714999Y-151500000D01*
X164517176Y-151500000D01*
X164457629Y-151506401D01*
X164457625Y-151506402D01*
X164364596Y-151541099D01*
X164303466Y-151543718D01*
X164295404Y-151541099D01*
X164202374Y-151506402D01*
X164202370Y-151506401D01*
X164142824Y-151500000D01*
X163945001Y-151500000D01*
X163945000Y-151500001D01*
X163945000Y-154025000D01*
X163445000Y-154025000D01*
X163445000Y-151500001D01*
X163444999Y-151500000D01*
X163247176Y-151500000D01*
X163187629Y-151506401D01*
X163187625Y-151506402D01*
X163094596Y-151541099D01*
X163033466Y-151543718D01*
X163025404Y-151541099D01*
X162932374Y-151506402D01*
X162932370Y-151506401D01*
X162872824Y-151500000D01*
X162675001Y-151500000D01*
X162675000Y-151500001D01*
X162675000Y-154025000D01*
X162175000Y-154025000D01*
X162175000Y-151500001D01*
X162174999Y-151500000D01*
X161977176Y-151500000D01*
X161917629Y-151506401D01*
X161917625Y-151506402D01*
X161824596Y-151541099D01*
X161763466Y-151543718D01*
X161755404Y-151541099D01*
X161662374Y-151506402D01*
X161662370Y-151506401D01*
X161602824Y-151500000D01*
X161405001Y-151500000D01*
X161405000Y-151500001D01*
X161405000Y-154025000D01*
X160905000Y-154025000D01*
X160905000Y-151500001D01*
X160904999Y-151500000D01*
X160707176Y-151500000D01*
X160647629Y-151506401D01*
X160647625Y-151506402D01*
X160554596Y-151541099D01*
X160493466Y-151543718D01*
X160485404Y-151541099D01*
X160392374Y-151506402D01*
X160392370Y-151506401D01*
X160332824Y-151500000D01*
X160135001Y-151500000D01*
X160135000Y-151500001D01*
X160135000Y-154025000D01*
X159635000Y-154025000D01*
X159635000Y-151500001D01*
X159634999Y-151500000D01*
X159437176Y-151500000D01*
X159377629Y-151506401D01*
X159377618Y-151506403D01*
X159285310Y-151540832D01*
X159224181Y-151543452D01*
X159216118Y-151540832D01*
X159122488Y-151505910D01*
X159122483Y-151505909D01*
X159122481Y-151505908D01*
X159122477Y-151505908D01*
X159091249Y-151502550D01*
X159062873Y-151499500D01*
X159062870Y-151499500D01*
X158167133Y-151499500D01*
X158167129Y-151499500D01*
X158167128Y-151499501D01*
X158162477Y-151500001D01*
X158107514Y-151505909D01*
X158014595Y-151540565D01*
X157953465Y-151543185D01*
X157945403Y-151540565D01*
X157852488Y-151505910D01*
X157852483Y-151505909D01*
X157852481Y-151505908D01*
X157852477Y-151505908D01*
X157821249Y-151502550D01*
X157792873Y-151499500D01*
X157792870Y-151499500D01*
X156897133Y-151499500D01*
X156897129Y-151499500D01*
X156897128Y-151499501D01*
X156892477Y-151500001D01*
X156837514Y-151505909D01*
X156744595Y-151540565D01*
X156683465Y-151543185D01*
X156675403Y-151540565D01*
X156582488Y-151505910D01*
X156582483Y-151505909D01*
X156582481Y-151505908D01*
X156582477Y-151505908D01*
X156551249Y-151502550D01*
X156522873Y-151499500D01*
X156522870Y-151499500D01*
X155627133Y-151499500D01*
X155627129Y-151499500D01*
X155627128Y-151499501D01*
X155622477Y-151500001D01*
X155567514Y-151505909D01*
X155474595Y-151540565D01*
X155413465Y-151543185D01*
X155405403Y-151540565D01*
X155312488Y-151505910D01*
X155312483Y-151505909D01*
X155312481Y-151505908D01*
X155312477Y-151505908D01*
X155281249Y-151502550D01*
X155252873Y-151499500D01*
X155252870Y-151499500D01*
X154357133Y-151499500D01*
X154357129Y-151499500D01*
X154357128Y-151499501D01*
X154352477Y-151500001D01*
X154297514Y-151505909D01*
X154204595Y-151540565D01*
X154143465Y-151543185D01*
X154135403Y-151540565D01*
X154042488Y-151505910D01*
X154042483Y-151505909D01*
X154042481Y-151505908D01*
X154042477Y-151505908D01*
X154011249Y-151502550D01*
X153982873Y-151499500D01*
X153982870Y-151499500D01*
X153087133Y-151499500D01*
X153087129Y-151499500D01*
X153087128Y-151499501D01*
X153082477Y-151500001D01*
X153027514Y-151505909D01*
X152934595Y-151540565D01*
X152873465Y-151543185D01*
X152865403Y-151540565D01*
X152772488Y-151505910D01*
X152772483Y-151505909D01*
X152772481Y-151505908D01*
X152772477Y-151505908D01*
X152741249Y-151502550D01*
X152712873Y-151499500D01*
X152712870Y-151499500D01*
X151817133Y-151499500D01*
X151817129Y-151499500D01*
X151817128Y-151499501D01*
X151812477Y-151500001D01*
X151757514Y-151505909D01*
X151664595Y-151540565D01*
X151603465Y-151543185D01*
X151595403Y-151540565D01*
X151502488Y-151505910D01*
X151502483Y-151505909D01*
X151502481Y-151505908D01*
X151502477Y-151505908D01*
X151471249Y-151502550D01*
X151442873Y-151499500D01*
X151442870Y-151499500D01*
X150547133Y-151499500D01*
X150547129Y-151499500D01*
X150547128Y-151499501D01*
X150542477Y-151500001D01*
X150487514Y-151505909D01*
X150394595Y-151540565D01*
X150333465Y-151543185D01*
X150325403Y-151540565D01*
X150232488Y-151505910D01*
X150232483Y-151505909D01*
X150232481Y-151505908D01*
X150232477Y-151505908D01*
X150201249Y-151502550D01*
X150172873Y-151499500D01*
X150172870Y-151499500D01*
X149277133Y-151499500D01*
X149277129Y-151499500D01*
X149277128Y-151499501D01*
X149272477Y-151500001D01*
X149217514Y-151505909D01*
X149124595Y-151540565D01*
X149063465Y-151543185D01*
X149055403Y-151540565D01*
X148962488Y-151505910D01*
X148962483Y-151505909D01*
X148962481Y-151505908D01*
X148962477Y-151505908D01*
X148931249Y-151502550D01*
X148902873Y-151499500D01*
X148902870Y-151499500D01*
X148007133Y-151499500D01*
X148007129Y-151499500D01*
X148007128Y-151499501D01*
X147977322Y-151502705D01*
X147947516Y-151505909D01*
X147947512Y-151505909D01*
X147853882Y-151540832D01*
X147792752Y-151543452D01*
X147784689Y-151540832D01*
X147692381Y-151506403D01*
X147692370Y-151506401D01*
X147632824Y-151500000D01*
X147435001Y-151500000D01*
X147435000Y-151500001D01*
X147435000Y-154025000D01*
X146935000Y-154025000D01*
X146935000Y-151500001D01*
X146934999Y-151500000D01*
X146737176Y-151500000D01*
X146677629Y-151506401D01*
X146677625Y-151506402D01*
X146584596Y-151541099D01*
X146523466Y-151543718D01*
X146515404Y-151541099D01*
X146422374Y-151506402D01*
X146422370Y-151506401D01*
X146362824Y-151500000D01*
X146165001Y-151500000D01*
X146165000Y-151500001D01*
X146165000Y-154025000D01*
X145665000Y-154025000D01*
X145665000Y-151500001D01*
X145664999Y-151500000D01*
X145467176Y-151500000D01*
X145407629Y-151506401D01*
X145407625Y-151506402D01*
X145314596Y-151541099D01*
X145253466Y-151543718D01*
X145245404Y-151541099D01*
X145152374Y-151506402D01*
X145152370Y-151506401D01*
X145092824Y-151500000D01*
X144895001Y-151500000D01*
X144895000Y-151500001D01*
X144895000Y-154025000D01*
X144395000Y-154025000D01*
X144395000Y-151500001D01*
X144394999Y-151500000D01*
X144197176Y-151500000D01*
X144137629Y-151506401D01*
X144137625Y-151506402D01*
X144044596Y-151541099D01*
X143983466Y-151543718D01*
X143975404Y-151541099D01*
X143882374Y-151506402D01*
X143882370Y-151506401D01*
X143822824Y-151500000D01*
X143625001Y-151500000D01*
X143625000Y-151500001D01*
X143625000Y-154025000D01*
X143125000Y-154025000D01*
X143125000Y-151500001D01*
X143124999Y-151500000D01*
X142927176Y-151500000D01*
X142867629Y-151506401D01*
X142867625Y-151506402D01*
X142774596Y-151541099D01*
X142713466Y-151543718D01*
X142705404Y-151541099D01*
X142612374Y-151506402D01*
X142612370Y-151506401D01*
X142552824Y-151500000D01*
X142355001Y-151500000D01*
X142355000Y-151500001D01*
X142355000Y-154025000D01*
X141855000Y-154025000D01*
X141855000Y-151500001D01*
X141854999Y-151500000D01*
X141657176Y-151500000D01*
X141597629Y-151506401D01*
X141597625Y-151506402D01*
X141504596Y-151541099D01*
X141443466Y-151543718D01*
X141435404Y-151541099D01*
X141342374Y-151506402D01*
X141342370Y-151506401D01*
X141282824Y-151500000D01*
X141085001Y-151500000D01*
X141085000Y-151500001D01*
X141085000Y-154025000D01*
X140585000Y-154025000D01*
X140585000Y-151500001D01*
X140584999Y-151500000D01*
X140387176Y-151500000D01*
X140327629Y-151506401D01*
X140327625Y-151506402D01*
X140234596Y-151541099D01*
X140173466Y-151543718D01*
X140165404Y-151541099D01*
X140072374Y-151506402D01*
X140072370Y-151506401D01*
X140012824Y-151500000D01*
X139815001Y-151500000D01*
X139815000Y-151500001D01*
X139815000Y-154025000D01*
X139315000Y-154025000D01*
X139315000Y-151500001D01*
X139314999Y-151500000D01*
X139117176Y-151500000D01*
X139057629Y-151506401D01*
X139057625Y-151506402D01*
X138964596Y-151541099D01*
X138903466Y-151543718D01*
X138895404Y-151541099D01*
X138802374Y-151506402D01*
X138802370Y-151506401D01*
X138742824Y-151500000D01*
X138545001Y-151500000D01*
X138545000Y-151500001D01*
X138545000Y-154025000D01*
X138045000Y-154025000D01*
X138045000Y-151500001D01*
X138044999Y-151500000D01*
X137847176Y-151500000D01*
X137787629Y-151506401D01*
X137787625Y-151506402D01*
X137694596Y-151541099D01*
X137633466Y-151543718D01*
X137625404Y-151541099D01*
X137532374Y-151506402D01*
X137532370Y-151506401D01*
X137472824Y-151500000D01*
X137275001Y-151500000D01*
X137275000Y-151500001D01*
X137275000Y-154025000D01*
X136775000Y-154025000D01*
X136775000Y-151500001D01*
X136774999Y-151500000D01*
X136577176Y-151500000D01*
X136517629Y-151506401D01*
X136517625Y-151506402D01*
X136424596Y-151541099D01*
X136363466Y-151543718D01*
X136355404Y-151541099D01*
X136262374Y-151506402D01*
X136262370Y-151506401D01*
X136202824Y-151500000D01*
X136005001Y-151500000D01*
X136005000Y-151500001D01*
X136005000Y-154025000D01*
X135505000Y-154025000D01*
X135505000Y-151500001D01*
X135504999Y-151500000D01*
X135307176Y-151500000D01*
X135247629Y-151506401D01*
X135247625Y-151506402D01*
X135154596Y-151541099D01*
X135093466Y-151543718D01*
X135085404Y-151541099D01*
X134992374Y-151506402D01*
X134992370Y-151506401D01*
X134932824Y-151500000D01*
X134735001Y-151500000D01*
X134735000Y-151500001D01*
X134735000Y-154025000D01*
X134235000Y-154025000D01*
X134235000Y-151500001D01*
X134234999Y-151500000D01*
X134037176Y-151500000D01*
X133977629Y-151506401D01*
X133977625Y-151506402D01*
X133884596Y-151541099D01*
X133823466Y-151543718D01*
X133815404Y-151541099D01*
X133722374Y-151506402D01*
X133722370Y-151506401D01*
X133662824Y-151500000D01*
X133465001Y-151500000D01*
X133465000Y-151500001D01*
X133465000Y-154025000D01*
X132965000Y-154025000D01*
X132965000Y-151500001D01*
X132964999Y-151500000D01*
X132767176Y-151500000D01*
X132707629Y-151506401D01*
X132707625Y-151506402D01*
X132614596Y-151541099D01*
X132553466Y-151543718D01*
X132545404Y-151541099D01*
X132452374Y-151506402D01*
X132452370Y-151506401D01*
X132392824Y-151500000D01*
X132195001Y-151500000D01*
X132195000Y-151500001D01*
X132195000Y-154025000D01*
X131695000Y-154025000D01*
X131695000Y-151500001D01*
X131694999Y-151500000D01*
X131497176Y-151500000D01*
X131437629Y-151506401D01*
X131437618Y-151506403D01*
X131345310Y-151540832D01*
X131284181Y-151543452D01*
X131276118Y-151540832D01*
X131182488Y-151505910D01*
X131182483Y-151505909D01*
X131182481Y-151505908D01*
X131182477Y-151505908D01*
X131151249Y-151502550D01*
X131122873Y-151499500D01*
X131122870Y-151499500D01*
X130227133Y-151499500D01*
X130227129Y-151499500D01*
X130227128Y-151499501D01*
X130222477Y-151500001D01*
X130167514Y-151505909D01*
X130074595Y-151540565D01*
X130013465Y-151543185D01*
X130005403Y-151540565D01*
X129912488Y-151505910D01*
X129912483Y-151505909D01*
X129912481Y-151505908D01*
X129912477Y-151505908D01*
X129881249Y-151502550D01*
X129852873Y-151499500D01*
X129852870Y-151499500D01*
X128957133Y-151499500D01*
X128957129Y-151499500D01*
X128957128Y-151499501D01*
X128952477Y-151500001D01*
X128897514Y-151505909D01*
X128804595Y-151540565D01*
X128743465Y-151543185D01*
X128735403Y-151540565D01*
X128642488Y-151505910D01*
X128642483Y-151505909D01*
X128642481Y-151505908D01*
X128642477Y-151505908D01*
X128611249Y-151502550D01*
X128582873Y-151499500D01*
X128582870Y-151499500D01*
X127687133Y-151499500D01*
X127687129Y-151499500D01*
X127687128Y-151499501D01*
X127682477Y-151500001D01*
X127627514Y-151505909D01*
X127534595Y-151540565D01*
X127473465Y-151543185D01*
X127465403Y-151540565D01*
X127372488Y-151505910D01*
X127372483Y-151505909D01*
X127372481Y-151505908D01*
X127372477Y-151505908D01*
X127341249Y-151502550D01*
X127312873Y-151499500D01*
X127312870Y-151499500D01*
X126417133Y-151499500D01*
X126417129Y-151499500D01*
X126417128Y-151499501D01*
X126412477Y-151500001D01*
X126357514Y-151505909D01*
X126264595Y-151540565D01*
X126203465Y-151543185D01*
X126195403Y-151540565D01*
X126102488Y-151505910D01*
X126102483Y-151505909D01*
X126102481Y-151505908D01*
X126102477Y-151505908D01*
X126071249Y-151502550D01*
X126042873Y-151499500D01*
X126042870Y-151499500D01*
X125147133Y-151499500D01*
X125147129Y-151499500D01*
X125147128Y-151499501D01*
X125117322Y-151502705D01*
X125087516Y-151505909D01*
X125087512Y-151505909D01*
X124993882Y-151540832D01*
X124932752Y-151543452D01*
X124924689Y-151540832D01*
X124832381Y-151506403D01*
X124832370Y-151506401D01*
X124772824Y-151500000D01*
X124575001Y-151500000D01*
X124575000Y-151500001D01*
X124575000Y-154025000D01*
X124075000Y-154025000D01*
X124075000Y-151500001D01*
X124074999Y-151500000D01*
X123877176Y-151500000D01*
X123817629Y-151506401D01*
X123817625Y-151506402D01*
X123724596Y-151541099D01*
X123663466Y-151543718D01*
X123655404Y-151541099D01*
X123562374Y-151506402D01*
X123562370Y-151506401D01*
X123502824Y-151500000D01*
X123305001Y-151500000D01*
X123305000Y-151500001D01*
X123305000Y-154025000D01*
X122805000Y-154025000D01*
X122805000Y-151500001D01*
X122804999Y-151500000D01*
X122607176Y-151500000D01*
X122547629Y-151506401D01*
X122547625Y-151506402D01*
X122454596Y-151541099D01*
X122393466Y-151543718D01*
X122385404Y-151541099D01*
X122292374Y-151506402D01*
X122292370Y-151506401D01*
X122232824Y-151500000D01*
X122035001Y-151500000D01*
X122035000Y-151500001D01*
X122035000Y-154025000D01*
X121535000Y-154025000D01*
X121535000Y-151500001D01*
X121534999Y-151500000D01*
X121337176Y-151500000D01*
X121277629Y-151506401D01*
X121277625Y-151506402D01*
X121184596Y-151541099D01*
X121123466Y-151543718D01*
X121115404Y-151541099D01*
X121022374Y-151506402D01*
X121022370Y-151506401D01*
X120962824Y-151500000D01*
X120765001Y-151500000D01*
X120765000Y-151500001D01*
X120765000Y-154025000D01*
X120265000Y-154025000D01*
X120265000Y-151500001D01*
X120264999Y-151500000D01*
X120067176Y-151500000D01*
X120007629Y-151506401D01*
X120007618Y-151506403D01*
X119915310Y-151540832D01*
X119854181Y-151543452D01*
X119846118Y-151540832D01*
X119752488Y-151505910D01*
X119752483Y-151505909D01*
X119752481Y-151505908D01*
X119752477Y-151505908D01*
X119721249Y-151502550D01*
X119692873Y-151499500D01*
X119692870Y-151499500D01*
X118797133Y-151499500D01*
X118797129Y-151499500D01*
X118797128Y-151499501D01*
X118792477Y-151500001D01*
X118737514Y-151505909D01*
X118644595Y-151540565D01*
X118583465Y-151543185D01*
X118575403Y-151540565D01*
X118482488Y-151505910D01*
X118482483Y-151505909D01*
X118482481Y-151505908D01*
X118482477Y-151505908D01*
X118451249Y-151502550D01*
X118422873Y-151499500D01*
X118422870Y-151499500D01*
X117527133Y-151499500D01*
X117527129Y-151499500D01*
X117527128Y-151499501D01*
X117497322Y-151502705D01*
X117467516Y-151505909D01*
X117467512Y-151505909D01*
X117373882Y-151540832D01*
X117312752Y-151543452D01*
X117304689Y-151540832D01*
X117212381Y-151506403D01*
X117212370Y-151506401D01*
X117152824Y-151500000D01*
X116955001Y-151500000D01*
X116955000Y-151500001D01*
X116955000Y-154025000D01*
X116455000Y-154025000D01*
X116455000Y-151500001D01*
X116454999Y-151500000D01*
X116257176Y-151500000D01*
X116197629Y-151506401D01*
X116197625Y-151506402D01*
X116104596Y-151541099D01*
X116043466Y-151543718D01*
X116035404Y-151541099D01*
X115942374Y-151506402D01*
X115942370Y-151506401D01*
X115882824Y-151500000D01*
X115685001Y-151500000D01*
X115685000Y-151500001D01*
X115685000Y-154025000D01*
X115185000Y-154025000D01*
X115185000Y-151500001D01*
X115184999Y-151500000D01*
X114987176Y-151500000D01*
X114927629Y-151506401D01*
X114927618Y-151506403D01*
X114835310Y-151540832D01*
X114774181Y-151543452D01*
X114766118Y-151540832D01*
X114672488Y-151505910D01*
X114672483Y-151505909D01*
X114672481Y-151505908D01*
X114672477Y-151505908D01*
X114641249Y-151502550D01*
X114612873Y-151499500D01*
X114612870Y-151499500D01*
X113717133Y-151499500D01*
X113717129Y-151499500D01*
X113717128Y-151499501D01*
X113712477Y-151500001D01*
X113657514Y-151505909D01*
X113564595Y-151540565D01*
X113503465Y-151543185D01*
X113495403Y-151540565D01*
X113402488Y-151505910D01*
X113402483Y-151505909D01*
X113402481Y-151505908D01*
X113402477Y-151505908D01*
X113371249Y-151502550D01*
X113342873Y-151499500D01*
X113342870Y-151499500D01*
X112447133Y-151499500D01*
X112447129Y-151499500D01*
X112447128Y-151499501D01*
X112442477Y-151500001D01*
X112387514Y-151505909D01*
X112294595Y-151540565D01*
X112233465Y-151543185D01*
X112225403Y-151540565D01*
X112132488Y-151505910D01*
X112132483Y-151505909D01*
X112132481Y-151505908D01*
X112132477Y-151505908D01*
X112101249Y-151502550D01*
X112072873Y-151499500D01*
X112072870Y-151499500D01*
X111177133Y-151499500D01*
X111177129Y-151499500D01*
X111177128Y-151499501D01*
X111172477Y-151500001D01*
X111117514Y-151505909D01*
X111024595Y-151540565D01*
X110963465Y-151543185D01*
X110955403Y-151540565D01*
X110862488Y-151505910D01*
X110862483Y-151505909D01*
X110862481Y-151505908D01*
X110862477Y-151505908D01*
X110831249Y-151502550D01*
X110802873Y-151499500D01*
X110802870Y-151499500D01*
X109907133Y-151499500D01*
X109907129Y-151499500D01*
X109907128Y-151499501D01*
X109902477Y-151500001D01*
X109847514Y-151505909D01*
X109754595Y-151540565D01*
X109693465Y-151543185D01*
X109685403Y-151540565D01*
X109592488Y-151505910D01*
X109592483Y-151505909D01*
X109592481Y-151505908D01*
X109592477Y-151505908D01*
X109561249Y-151502550D01*
X109532873Y-151499500D01*
X109532870Y-151499500D01*
X108637133Y-151499500D01*
X108637129Y-151499500D01*
X108637128Y-151499501D01*
X108632477Y-151500001D01*
X108577514Y-151505909D01*
X108484595Y-151540565D01*
X108423465Y-151543185D01*
X108415403Y-151540565D01*
X108322488Y-151505910D01*
X108322483Y-151505909D01*
X108322481Y-151505908D01*
X108322477Y-151505908D01*
X108291249Y-151502550D01*
X108262873Y-151499500D01*
X108262870Y-151499500D01*
X107367133Y-151499500D01*
X107367129Y-151499500D01*
X107367128Y-151499501D01*
X107362477Y-151500001D01*
X107307514Y-151505909D01*
X107214595Y-151540565D01*
X107153465Y-151543185D01*
X107145403Y-151540565D01*
X107052488Y-151505910D01*
X107052483Y-151505909D01*
X107052481Y-151505908D01*
X107052477Y-151505908D01*
X107021249Y-151502550D01*
X106992873Y-151499500D01*
X106992870Y-151499500D01*
X106097133Y-151499500D01*
X106097129Y-151499500D01*
X106097128Y-151499501D01*
X106092477Y-151500001D01*
X106037514Y-151505909D01*
X105944595Y-151540565D01*
X105883465Y-151543185D01*
X105875403Y-151540565D01*
X105782488Y-151505910D01*
X105782483Y-151505909D01*
X105782481Y-151505908D01*
X105782477Y-151505908D01*
X105751249Y-151502550D01*
X105722873Y-151499500D01*
X105722870Y-151499500D01*
X104827133Y-151499500D01*
X104827129Y-151499500D01*
X104827128Y-151499501D01*
X104822477Y-151500001D01*
X104767514Y-151505909D01*
X104674595Y-151540565D01*
X104613465Y-151543185D01*
X104605403Y-151540565D01*
X104512488Y-151505910D01*
X104512483Y-151505909D01*
X104512481Y-151505908D01*
X104512477Y-151505908D01*
X104481249Y-151502550D01*
X104452873Y-151499500D01*
X104452870Y-151499500D01*
X103557133Y-151499500D01*
X103557129Y-151499500D01*
X103557128Y-151499501D01*
X103552477Y-151500001D01*
X103497514Y-151505909D01*
X103404595Y-151540565D01*
X103343465Y-151543185D01*
X103335403Y-151540565D01*
X103242488Y-151505910D01*
X103242483Y-151505909D01*
X103242481Y-151505908D01*
X103242477Y-151505908D01*
X103211249Y-151502550D01*
X103182873Y-151499500D01*
X103182870Y-151499500D01*
X102287133Y-151499500D01*
X102287129Y-151499500D01*
X102287128Y-151499501D01*
X102282477Y-151500001D01*
X102227514Y-151505909D01*
X102134595Y-151540565D01*
X102073465Y-151543185D01*
X102065403Y-151540565D01*
X101972488Y-151505910D01*
X101972483Y-151505909D01*
X101972481Y-151505908D01*
X101972477Y-151505908D01*
X101941249Y-151502550D01*
X101912873Y-151499500D01*
X101912870Y-151499500D01*
X101017133Y-151499500D01*
X101017129Y-151499500D01*
X101017128Y-151499501D01*
X101012477Y-151500001D01*
X100957514Y-151505909D01*
X100864595Y-151540565D01*
X100803465Y-151543185D01*
X100795403Y-151540565D01*
X100702488Y-151505910D01*
X100702483Y-151505909D01*
X100702481Y-151505908D01*
X100702477Y-151505908D01*
X100671249Y-151502550D01*
X100642873Y-151499500D01*
X100642870Y-151499500D01*
X99747133Y-151499500D01*
X99747129Y-151499500D01*
X99747128Y-151499501D01*
X99742477Y-151500001D01*
X99687514Y-151505909D01*
X99594595Y-151540565D01*
X99533465Y-151543185D01*
X99525403Y-151540565D01*
X99432488Y-151505910D01*
X99432483Y-151505909D01*
X99432481Y-151505908D01*
X99432477Y-151505908D01*
X99401249Y-151502550D01*
X99372873Y-151499500D01*
X99372870Y-151499500D01*
X98477133Y-151499500D01*
X98477129Y-151499500D01*
X98477128Y-151499501D01*
X98472477Y-151500001D01*
X98417514Y-151505909D01*
X98324595Y-151540565D01*
X98263465Y-151543185D01*
X98255403Y-151540565D01*
X98162488Y-151505910D01*
X98162483Y-151505909D01*
X98162481Y-151505908D01*
X98162477Y-151505908D01*
X98131249Y-151502550D01*
X98102873Y-151499500D01*
X98102870Y-151499500D01*
X97207133Y-151499500D01*
X97207129Y-151499500D01*
X97207128Y-151499501D01*
X97202477Y-151500001D01*
X97147514Y-151505909D01*
X97054595Y-151540565D01*
X96993465Y-151543185D01*
X96985403Y-151540565D01*
X96892488Y-151505910D01*
X96892483Y-151505909D01*
X96892481Y-151505908D01*
X96892477Y-151505908D01*
X96861249Y-151502550D01*
X96832873Y-151499500D01*
X96832870Y-151499500D01*
X95937133Y-151499500D01*
X95937129Y-151499500D01*
X95937128Y-151499501D01*
X95932477Y-151500001D01*
X95877514Y-151505909D01*
X95784595Y-151540565D01*
X95723465Y-151543185D01*
X95715403Y-151540565D01*
X95622488Y-151505910D01*
X95622483Y-151505909D01*
X95622481Y-151505908D01*
X95622477Y-151505908D01*
X95591249Y-151502550D01*
X95562873Y-151499500D01*
X95562870Y-151499500D01*
X94667133Y-151499500D01*
X94667129Y-151499500D01*
X94667128Y-151499501D01*
X94637322Y-151502705D01*
X94607516Y-151505909D01*
X94607512Y-151505909D01*
X94513882Y-151540832D01*
X94452752Y-151543452D01*
X94444689Y-151540832D01*
X94352381Y-151506403D01*
X94352370Y-151506401D01*
X94292824Y-151500000D01*
X94095001Y-151500000D01*
X94095000Y-151500001D01*
X94095000Y-154025000D01*
X93595000Y-154025000D01*
X93595000Y-151500001D01*
X93594999Y-151500000D01*
X93397176Y-151500000D01*
X93337629Y-151506401D01*
X93337625Y-151506402D01*
X93244596Y-151541099D01*
X93183466Y-151543718D01*
X93175404Y-151541099D01*
X93082374Y-151506402D01*
X93082370Y-151506401D01*
X93022824Y-151500000D01*
X92825001Y-151500000D01*
X92825000Y-151500001D01*
X92825000Y-154025000D01*
X92325000Y-154025000D01*
X92325000Y-151500001D01*
X92324999Y-151500000D01*
X92127176Y-151500000D01*
X92067629Y-151506401D01*
X92067625Y-151506402D01*
X91974596Y-151541099D01*
X91913466Y-151543718D01*
X91905404Y-151541099D01*
X91812374Y-151506402D01*
X91812370Y-151506401D01*
X91752824Y-151500000D01*
X91555001Y-151500000D01*
X91555000Y-151500001D01*
X91555000Y-154025000D01*
X91055000Y-154025000D01*
X91055000Y-151500001D01*
X91054999Y-151500000D01*
X90857176Y-151500000D01*
X90797629Y-151506401D01*
X90797625Y-151506402D01*
X90704596Y-151541099D01*
X90643466Y-151543718D01*
X90635404Y-151541099D01*
X90542374Y-151506402D01*
X90542370Y-151506401D01*
X90482824Y-151500000D01*
X90285001Y-151500000D01*
X90285000Y-151500001D01*
X90285000Y-154025000D01*
X89785000Y-154025000D01*
X89785000Y-151500001D01*
X89784999Y-151500000D01*
X89587176Y-151500000D01*
X89527629Y-151506401D01*
X89527618Y-151506403D01*
X89392911Y-151556646D01*
X89392909Y-151556647D01*
X89277815Y-151642807D01*
X89277807Y-151642815D01*
X89191647Y-151757909D01*
X89191646Y-151757911D01*
X89141403Y-151892618D01*
X89141401Y-151892629D01*
X89135000Y-151952175D01*
X89135000Y-153926000D01*
X89116093Y-153984191D01*
X89066593Y-154020155D01*
X89036000Y-154025000D01*
X51074000Y-154025000D01*
X51015809Y-154006093D01*
X50979845Y-153956593D01*
X50975000Y-153926000D01*
X50975000Y-135721155D01*
X71674500Y-135721155D01*
X71674500Y-135878846D01*
X71694757Y-135980687D01*
X71694757Y-136019313D01*
X71674500Y-136121153D01*
X71674500Y-136278846D01*
X71694757Y-136380687D01*
X71694757Y-136419313D01*
X71674500Y-136521153D01*
X71674500Y-136678844D01*
X71705263Y-136833496D01*
X71705263Y-136833498D01*
X71765603Y-136979174D01*
X71765609Y-136979186D01*
X71820682Y-137061606D01*
X71832197Y-137078840D01*
X71832815Y-137079764D01*
X71849500Y-137134766D01*
X71849500Y-137465232D01*
X71832816Y-137520233D01*
X71765604Y-137620823D01*
X71705263Y-137766501D01*
X71705263Y-137766503D01*
X71674500Y-137921155D01*
X71674500Y-138078844D01*
X71680236Y-138107678D01*
X71700927Y-138211701D01*
X71705263Y-138233496D01*
X71705263Y-138233498D01*
X71765603Y-138379174D01*
X71765609Y-138379185D01*
X71791243Y-138417548D01*
X71853211Y-138510289D01*
X71964711Y-138621789D01*
X72026831Y-138663296D01*
X72095814Y-138709390D01*
X72095825Y-138709396D01*
X72149638Y-138731685D01*
X72241503Y-138769737D01*
X72396158Y-138800500D01*
X72396159Y-138800500D01*
X72553841Y-138800500D01*
X72553842Y-138800500D01*
X72708497Y-138769737D01*
X72854179Y-138709394D01*
X72985289Y-138621789D01*
X73096789Y-138510289D01*
X73184394Y-138379179D01*
X73244737Y-138233497D01*
X73275500Y-138078842D01*
X73275500Y-137921158D01*
X73244737Y-137766503D01*
X73184394Y-137620821D01*
X73138986Y-137552863D01*
X73117184Y-137520233D01*
X73100500Y-137465232D01*
X73100500Y-137134766D01*
X73117185Y-137079764D01*
X73117803Y-137078840D01*
X73129318Y-137061606D01*
X73184390Y-136979186D01*
X73184396Y-136979174D01*
X73201289Y-136938391D01*
X80937000Y-136938391D01*
X80937000Y-137061608D01*
X80960686Y-137180686D01*
X80960686Y-137219312D01*
X80957811Y-137233767D01*
X80937000Y-137338391D01*
X80937000Y-137461608D01*
X80960686Y-137580686D01*
X80960686Y-137619314D01*
X80937000Y-137738391D01*
X80937000Y-137861608D01*
X80960686Y-137980686D01*
X80960686Y-138019312D01*
X80953343Y-138056226D01*
X80937000Y-138138391D01*
X80937000Y-138261608D01*
X80960686Y-138380686D01*
X80960686Y-138419314D01*
X80937000Y-138538391D01*
X80937000Y-138661608D01*
X80960686Y-138780686D01*
X80960686Y-138819314D01*
X80937000Y-138938391D01*
X80937000Y-139061608D01*
X80960686Y-139180686D01*
X80960686Y-139219314D01*
X80937000Y-139338391D01*
X80937000Y-139461608D01*
X80960686Y-139580686D01*
X80960686Y-139619314D01*
X80937000Y-139738391D01*
X80937000Y-139861608D01*
X80961036Y-139982450D01*
X81008188Y-140096285D01*
X81008189Y-140096286D01*
X81076642Y-140198733D01*
X81163767Y-140285858D01*
X81266214Y-140354311D01*
X81380048Y-140401463D01*
X81500894Y-140425500D01*
X91750500Y-140425500D01*
X91765412Y-140430345D01*
X91781093Y-140430345D01*
X91793778Y-140439561D01*
X91808691Y-140444407D01*
X91817907Y-140457092D01*
X91830593Y-140466309D01*
X91835438Y-140481221D01*
X91844655Y-140493907D01*
X91849500Y-140524500D01*
X91849500Y-140713000D01*
X91830593Y-140771191D01*
X91781093Y-140807155D01*
X91750500Y-140812000D01*
X84738391Y-140812000D01*
X84617549Y-140836036D01*
X84503714Y-140883188D01*
X84401267Y-140951642D01*
X84401263Y-140951645D01*
X84314145Y-141038763D01*
X84314142Y-141038767D01*
X84245688Y-141141214D01*
X84198536Y-141255049D01*
X84174500Y-141375891D01*
X84174500Y-141499108D01*
X84198536Y-141619950D01*
X84245688Y-141733785D01*
X84245689Y-141733786D01*
X84314142Y-141836233D01*
X84401267Y-141923358D01*
X84503714Y-141991811D01*
X84617548Y-142038963D01*
X84738394Y-142063000D01*
X85538394Y-142063000D01*
X91940234Y-142063000D01*
X91995236Y-142079685D01*
X92095813Y-142146890D01*
X92095825Y-142146896D01*
X92149638Y-142169185D01*
X92241503Y-142207237D01*
X92396158Y-142238000D01*
X92396159Y-142238000D01*
X92553841Y-142238000D01*
X92553842Y-142238000D01*
X92708497Y-142207237D01*
X92854179Y-142146894D01*
X92854181Y-142146892D01*
X92854186Y-142146890D01*
X92954764Y-142079685D01*
X93009766Y-142063000D01*
X159815234Y-142063000D01*
X159870236Y-142079685D01*
X159970813Y-142146890D01*
X159970825Y-142146896D01*
X160024638Y-142169185D01*
X160116503Y-142207237D01*
X160271158Y-142238000D01*
X160271159Y-142238000D01*
X160428841Y-142238000D01*
X160428842Y-142238000D01*
X160583497Y-142207237D01*
X160729179Y-142146894D01*
X160729181Y-142146892D01*
X160729186Y-142146890D01*
X160829764Y-142079685D01*
X160884766Y-142063000D01*
X169115234Y-142063000D01*
X169170236Y-142079685D01*
X169270813Y-142146890D01*
X169270825Y-142146896D01*
X169324638Y-142169185D01*
X169416503Y-142207237D01*
X169571158Y-142238000D01*
X169571159Y-142238000D01*
X169728841Y-142238000D01*
X169728842Y-142238000D01*
X169883497Y-142207237D01*
X170029179Y-142146894D01*
X170160289Y-142059289D01*
X170271789Y-141947789D01*
X170359394Y-141816679D01*
X170419737Y-141670997D01*
X170450500Y-141516342D01*
X170450500Y-141358658D01*
X170419737Y-141204003D01*
X170359394Y-141058321D01*
X170359393Y-141058319D01*
X170359390Y-141058314D01*
X170288113Y-140951642D01*
X170271789Y-140927211D01*
X170160289Y-140815711D01*
X170093660Y-140771191D01*
X170029185Y-140728109D01*
X170029174Y-140728103D01*
X169883497Y-140667763D01*
X169728844Y-140637000D01*
X169728842Y-140637000D01*
X169571158Y-140637000D01*
X169571155Y-140637000D01*
X169416503Y-140667763D01*
X169416501Y-140667763D01*
X169270825Y-140728103D01*
X169270813Y-140728109D01*
X169170236Y-140795315D01*
X169115234Y-140812000D01*
X161244645Y-140812000D01*
X161186454Y-140793093D01*
X161150490Y-140743593D01*
X161147548Y-140693684D01*
X161150499Y-140678849D01*
X161150500Y-140678840D01*
X161150500Y-140521159D01*
X161150500Y-140521158D01*
X161130241Y-140419309D01*
X161130241Y-140380690D01*
X161150500Y-140278842D01*
X161150500Y-140121158D01*
X161119737Y-139966503D01*
X161059394Y-139820821D01*
X161026364Y-139771388D01*
X160992184Y-139720233D01*
X160975500Y-139665232D01*
X160975500Y-131966230D01*
X189149500Y-131966230D01*
X189149500Y-132133769D01*
X189182183Y-132298079D01*
X189182185Y-132298085D01*
X189239773Y-132437114D01*
X189244574Y-132498111D01*
X189239773Y-132512886D01*
X189182185Y-132651914D01*
X189182183Y-132651920D01*
X189149500Y-132816230D01*
X189149500Y-132983769D01*
X189182183Y-133148079D01*
X189182185Y-133148085D01*
X189239773Y-133287114D01*
X189244574Y-133348111D01*
X189239773Y-133362886D01*
X189182185Y-133501914D01*
X189182183Y-133501920D01*
X189149500Y-133666230D01*
X189149500Y-133833769D01*
X189182183Y-133998079D01*
X189182185Y-133998085D01*
X189239773Y-134137114D01*
X189244574Y-134198111D01*
X189239773Y-134212886D01*
X189182185Y-134351914D01*
X189182183Y-134351920D01*
X189149500Y-134516230D01*
X189149500Y-134683769D01*
X189182183Y-134848079D01*
X189182185Y-134848085D01*
X189239773Y-134987114D01*
X189244574Y-135048111D01*
X189239773Y-135062886D01*
X189182185Y-135201914D01*
X189182183Y-135201920D01*
X189149500Y-135366230D01*
X189149500Y-135533769D01*
X189182183Y-135698079D01*
X189182185Y-135698085D01*
X189239773Y-135837114D01*
X189244574Y-135898111D01*
X189239773Y-135912886D01*
X189182185Y-136051914D01*
X189182183Y-136051920D01*
X189149500Y-136216230D01*
X189149500Y-136383769D01*
X189182183Y-136548079D01*
X189182185Y-136548085D01*
X189239773Y-136687114D01*
X189244574Y-136748111D01*
X189239773Y-136762886D01*
X189182185Y-136901914D01*
X189182183Y-136901920D01*
X189149500Y-137066230D01*
X189149500Y-137233769D01*
X189182183Y-137398079D01*
X189182185Y-137398085D01*
X189239773Y-137537114D01*
X189244574Y-137598111D01*
X189239773Y-137612886D01*
X189182185Y-137751914D01*
X189182183Y-137751920D01*
X189149500Y-137916230D01*
X189149500Y-138083769D01*
X189182183Y-138248079D01*
X189182185Y-138248085D01*
X189246296Y-138402862D01*
X189246297Y-138402863D01*
X189339374Y-138542162D01*
X189457838Y-138660626D01*
X189597137Y-138753703D01*
X189751918Y-138817816D01*
X189916233Y-138850500D01*
X189930500Y-138850500D01*
X189988691Y-138869407D01*
X190024655Y-138918907D01*
X190029500Y-138949500D01*
X190029500Y-140193618D01*
X190066026Y-140377249D01*
X190137677Y-140550229D01*
X190137681Y-140550238D01*
X190195655Y-140637000D01*
X190241698Y-140705908D01*
X190374092Y-140838302D01*
X190440463Y-140882649D01*
X190529761Y-140942318D01*
X190529767Y-140942320D01*
X190529769Y-140942322D01*
X190702749Y-141013973D01*
X190886384Y-141050500D01*
X190886385Y-141050500D01*
X191073615Y-141050500D01*
X191073616Y-141050500D01*
X191257251Y-141013973D01*
X191430231Y-140942322D01*
X191430234Y-140942319D01*
X191430238Y-140942318D01*
X191475187Y-140912282D01*
X191585908Y-140838302D01*
X191718302Y-140705908D01*
X191809289Y-140569737D01*
X191822318Y-140550238D01*
X191822319Y-140550234D01*
X191822322Y-140550231D01*
X191893973Y-140377251D01*
X191930500Y-140193616D01*
X191930500Y-138856381D01*
X193409500Y-138856381D01*
X193409500Y-139843618D01*
X193446026Y-140027249D01*
X193517677Y-140200229D01*
X193517681Y-140200238D01*
X193574889Y-140285854D01*
X193621698Y-140355908D01*
X193754092Y-140488302D01*
X193803257Y-140521153D01*
X193909761Y-140592318D01*
X193909767Y-140592320D01*
X193909769Y-140592322D01*
X194082749Y-140663973D01*
X194266384Y-140700500D01*
X194266385Y-140700500D01*
X194453615Y-140700500D01*
X194453616Y-140700500D01*
X194637251Y-140663973D01*
X194810231Y-140592322D01*
X194810234Y-140592319D01*
X194810238Y-140592318D01*
X194873214Y-140550238D01*
X194965908Y-140488302D01*
X195098302Y-140355908D01*
X195172282Y-140245187D01*
X195202318Y-140200238D01*
X195202319Y-140200234D01*
X195202322Y-140200231D01*
X195273973Y-140027251D01*
X195310500Y-139843616D01*
X195310500Y-138856384D01*
X195273973Y-138672749D01*
X195202322Y-138499769D01*
X195202320Y-138499767D01*
X195202318Y-138499761D01*
X195142649Y-138410463D01*
X195098302Y-138344092D01*
X194965908Y-138211698D01*
X194921559Y-138182065D01*
X194810238Y-138107681D01*
X194810229Y-138107677D01*
X194637249Y-138036026D01*
X194453618Y-137999500D01*
X194453616Y-137999500D01*
X194266384Y-137999500D01*
X194266381Y-137999500D01*
X194082750Y-138036026D01*
X193909770Y-138107677D01*
X193909761Y-138107681D01*
X193754092Y-138211698D01*
X193754088Y-138211701D01*
X193621701Y-138344088D01*
X193621698Y-138344092D01*
X193517681Y-138499761D01*
X193517677Y-138499770D01*
X193446026Y-138672750D01*
X193409500Y-138856381D01*
X191930500Y-138856381D01*
X191930500Y-138663296D01*
X191949407Y-138605105D01*
X191959496Y-138593292D01*
X192010626Y-138542162D01*
X192103703Y-138402863D01*
X192167816Y-138248082D01*
X192200500Y-138083767D01*
X192200500Y-137916233D01*
X192167816Y-137751918D01*
X192110225Y-137612884D01*
X192105425Y-137551889D01*
X192110224Y-137537119D01*
X192167816Y-137398082D01*
X192200500Y-137233767D01*
X192200500Y-137066233D01*
X192167816Y-136901918D01*
X192110225Y-136762884D01*
X192105425Y-136701889D01*
X192110224Y-136687119D01*
X192167816Y-136548082D01*
X192200500Y-136383767D01*
X192200500Y-136216233D01*
X192167816Y-136051918D01*
X192110225Y-135912884D01*
X192105425Y-135851889D01*
X192110224Y-135837119D01*
X192167816Y-135698082D01*
X192200500Y-135533767D01*
X192200500Y-135366233D01*
X192167816Y-135201918D01*
X192110225Y-135062884D01*
X192105425Y-135001889D01*
X192110224Y-134987119D01*
X192167816Y-134848082D01*
X192200500Y-134683767D01*
X192200500Y-134516233D01*
X192167816Y-134351918D01*
X192110225Y-134212884D01*
X192105425Y-134151889D01*
X192110224Y-134137119D01*
X192167816Y-133998082D01*
X192200500Y-133833767D01*
X192200500Y-133666233D01*
X192167816Y-133501918D01*
X192110225Y-133362884D01*
X192105425Y-133301889D01*
X192110224Y-133287119D01*
X192167816Y-133148082D01*
X192200500Y-132983767D01*
X192200500Y-132816233D01*
X192167816Y-132651918D01*
X192110225Y-132512884D01*
X192105425Y-132451889D01*
X192110224Y-132437119D01*
X192167816Y-132298082D01*
X192200500Y-132133767D01*
X192200500Y-131966233D01*
X192167816Y-131801918D01*
X192103703Y-131647137D01*
X192010626Y-131507838D01*
X191959496Y-131456708D01*
X191931719Y-131402191D01*
X191930500Y-131386704D01*
X191930500Y-130206381D01*
X193409500Y-130206381D01*
X193409500Y-131193618D01*
X193446026Y-131377249D01*
X193517677Y-131550229D01*
X193517681Y-131550238D01*
X193582428Y-131647137D01*
X193621698Y-131705908D01*
X193754092Y-131838302D01*
X193820463Y-131882649D01*
X193909761Y-131942318D01*
X193909767Y-131942320D01*
X193909769Y-131942322D01*
X194082749Y-132013973D01*
X194266384Y-132050500D01*
X194266385Y-132050500D01*
X194453615Y-132050500D01*
X194453616Y-132050500D01*
X194637251Y-132013973D01*
X194810231Y-131942322D01*
X194810234Y-131942319D01*
X194810238Y-131942318D01*
X194855187Y-131912282D01*
X194965908Y-131838302D01*
X195098302Y-131705908D01*
X195172282Y-131595187D01*
X195202318Y-131550238D01*
X195202319Y-131550234D01*
X195202322Y-131550231D01*
X195273973Y-131377251D01*
X195310500Y-131193616D01*
X195310500Y-130206384D01*
X195273973Y-130022749D01*
X195202322Y-129849769D01*
X195202320Y-129849767D01*
X195202318Y-129849761D01*
X195142649Y-129760463D01*
X195098302Y-129694092D01*
X194965908Y-129561698D01*
X194921559Y-129532065D01*
X194810238Y-129457681D01*
X194810229Y-129457677D01*
X194637249Y-129386026D01*
X194453618Y-129349500D01*
X194453616Y-129349500D01*
X194266384Y-129349500D01*
X194266381Y-129349500D01*
X194082750Y-129386026D01*
X193909770Y-129457677D01*
X193909761Y-129457681D01*
X193754092Y-129561698D01*
X193754088Y-129561701D01*
X193621701Y-129694088D01*
X193621698Y-129694092D01*
X193517681Y-129849761D01*
X193517677Y-129849770D01*
X193446026Y-130022750D01*
X193409500Y-130206381D01*
X191930500Y-130206381D01*
X191930500Y-129856385D01*
X191930499Y-129856381D01*
X191929182Y-129849761D01*
X191893973Y-129672749D01*
X191822322Y-129499769D01*
X191822320Y-129499767D01*
X191822318Y-129499761D01*
X191746321Y-129386026D01*
X191718302Y-129344092D01*
X191585908Y-129211698D01*
X191541559Y-129182065D01*
X191430238Y-129107681D01*
X191430229Y-129107677D01*
X191257249Y-129036026D01*
X191073618Y-128999500D01*
X191073616Y-128999500D01*
X190886384Y-128999500D01*
X190886381Y-128999500D01*
X190702750Y-129036026D01*
X190529770Y-129107677D01*
X190529761Y-129107681D01*
X190374092Y-129211698D01*
X190374088Y-129211701D01*
X190241701Y-129344088D01*
X190241698Y-129344092D01*
X190137681Y-129499761D01*
X190137677Y-129499770D01*
X190066026Y-129672750D01*
X190029500Y-129856381D01*
X190029500Y-131100500D01*
X190010593Y-131158691D01*
X189961093Y-131194655D01*
X189930500Y-131199500D01*
X189916230Y-131199500D01*
X189751920Y-131232183D01*
X189751914Y-131232185D01*
X189597137Y-131296296D01*
X189457838Y-131389374D01*
X189457834Y-131389377D01*
X189339377Y-131507834D01*
X189339374Y-131507838D01*
X189246296Y-131647137D01*
X189182185Y-131801914D01*
X189182183Y-131801920D01*
X189149500Y-131966230D01*
X160975500Y-131966230D01*
X160975500Y-116834712D01*
X160994407Y-116776521D01*
X161019499Y-116752396D01*
X161072789Y-116716789D01*
X161184289Y-116605289D01*
X161271894Y-116474179D01*
X161332237Y-116328497D01*
X161363000Y-116173842D01*
X161363000Y-116016158D01*
X161332237Y-115861503D01*
X161271894Y-115715821D01*
X161204684Y-115615233D01*
X161188000Y-115560232D01*
X161188000Y-112206155D01*
X168849500Y-112206155D01*
X168849500Y-112363844D01*
X168880263Y-112518496D01*
X168880263Y-112518498D01*
X168940603Y-112664174D01*
X168940609Y-112664185D01*
X168993312Y-112743059D01*
X169028211Y-112795289D01*
X169139711Y-112906789D01*
X169217876Y-112959017D01*
X169270814Y-112994390D01*
X169270825Y-112994396D01*
X169324638Y-113016685D01*
X169416503Y-113054737D01*
X169571158Y-113085500D01*
X169571159Y-113085500D01*
X169728841Y-113085500D01*
X169728842Y-113085500D01*
X169883497Y-113054737D01*
X170029179Y-112994394D01*
X170160289Y-112906789D01*
X170271789Y-112795289D01*
X170359394Y-112664179D01*
X170419737Y-112518497D01*
X170450500Y-112363842D01*
X170450500Y-112206158D01*
X170419737Y-112051503D01*
X170359394Y-111905821D01*
X170359393Y-111905819D01*
X170359390Y-111905814D01*
X170324017Y-111852876D01*
X170271789Y-111774711D01*
X170160289Y-111663211D01*
X170108059Y-111628312D01*
X170029185Y-111575609D01*
X170029174Y-111575603D01*
X169883497Y-111515263D01*
X169728844Y-111484500D01*
X169728842Y-111484500D01*
X169571158Y-111484500D01*
X169571155Y-111484500D01*
X169416503Y-111515263D01*
X169416501Y-111515263D01*
X169270825Y-111575603D01*
X169270814Y-111575609D01*
X169139711Y-111663211D01*
X169139707Y-111663214D01*
X169028214Y-111774707D01*
X169028211Y-111774711D01*
X168940609Y-111905814D01*
X168940603Y-111905825D01*
X168880263Y-112051501D01*
X168880263Y-112051503D01*
X168849500Y-112206155D01*
X161188000Y-112206155D01*
X161188000Y-83748396D01*
X161187999Y-83748391D01*
X161184571Y-83731158D01*
X161163963Y-83627548D01*
X161116811Y-83513714D01*
X161048358Y-83411267D01*
X160961233Y-83324142D01*
X160861218Y-83257314D01*
X160823340Y-83209265D01*
X160820938Y-83148127D01*
X160854931Y-83097253D01*
X160861219Y-83092685D01*
X160961233Y-83025858D01*
X161048358Y-82938733D01*
X161116811Y-82836286D01*
X161163963Y-82722452D01*
X161188000Y-82601606D01*
X161188000Y-82478394D01*
X161163963Y-82357548D01*
X161116811Y-82243714D01*
X161048358Y-82141267D01*
X160961233Y-82054142D01*
X160880204Y-82000000D01*
X160858785Y-81985688D01*
X160744950Y-81938536D01*
X160624108Y-81914500D01*
X160624106Y-81914500D01*
X156609766Y-81914500D01*
X156554764Y-81897815D01*
X156551299Y-81895500D01*
X156534753Y-81884444D01*
X156454186Y-81830609D01*
X156454174Y-81830603D01*
X156308497Y-81770263D01*
X156153844Y-81739500D01*
X156153842Y-81739500D01*
X155996158Y-81739500D01*
X155996155Y-81739500D01*
X155841503Y-81770263D01*
X155841501Y-81770263D01*
X155695825Y-81830603D01*
X155695814Y-81830609D01*
X155564711Y-81918211D01*
X155564707Y-81918214D01*
X155453214Y-82029707D01*
X155453211Y-82029711D01*
X155365609Y-82160814D01*
X155365603Y-82160825D01*
X155305263Y-82306501D01*
X155305263Y-82306503D01*
X155274500Y-82461155D01*
X155274500Y-82618844D01*
X155305263Y-82773496D01*
X155305263Y-82773498D01*
X155365603Y-82919174D01*
X155365609Y-82919185D01*
X155418312Y-82998059D01*
X155453211Y-83050289D01*
X155564711Y-83161789D01*
X155614412Y-83194998D01*
X155695814Y-83249390D01*
X155695825Y-83249396D01*
X155714944Y-83257315D01*
X155841503Y-83309737D01*
X155996158Y-83340500D01*
X155996159Y-83340500D01*
X156153841Y-83340500D01*
X156153842Y-83340500D01*
X156308497Y-83309737D01*
X156454179Y-83249394D01*
X156454181Y-83249392D01*
X156454186Y-83249390D01*
X156545746Y-83188211D01*
X156554764Y-83182184D01*
X156609766Y-83165500D01*
X160083401Y-83165500D01*
X160141592Y-83184407D01*
X160177556Y-83233907D01*
X160177556Y-83295093D01*
X160153405Y-83334504D01*
X160076645Y-83411263D01*
X160076642Y-83411267D01*
X160008188Y-83513714D01*
X159961036Y-83627549D01*
X159937000Y-83748391D01*
X159937000Y-84355500D01*
X159918093Y-84413691D01*
X159868593Y-84449655D01*
X159838000Y-84454500D01*
X159149766Y-84454500D01*
X159094764Y-84437815D01*
X159091299Y-84435500D01*
X159085740Y-84431785D01*
X158994186Y-84370609D01*
X158994174Y-84370603D01*
X158848497Y-84310263D01*
X158693844Y-84279500D01*
X158693842Y-84279500D01*
X158536158Y-84279500D01*
X158536155Y-84279500D01*
X158381503Y-84310263D01*
X158381501Y-84310263D01*
X158235825Y-84370603D01*
X158235814Y-84370609D01*
X158104711Y-84458211D01*
X158104707Y-84458214D01*
X157993214Y-84569707D01*
X157993211Y-84569711D01*
X157905609Y-84700814D01*
X157905603Y-84700825D01*
X157845263Y-84846501D01*
X157845263Y-84846503D01*
X157814500Y-85001155D01*
X157814500Y-85158844D01*
X157845263Y-85313496D01*
X157845263Y-85313498D01*
X157905603Y-85459174D01*
X157905609Y-85459185D01*
X157958312Y-85538059D01*
X157993211Y-85590289D01*
X158104711Y-85701789D01*
X158182876Y-85754017D01*
X158235814Y-85789390D01*
X158235825Y-85789396D01*
X158272290Y-85804500D01*
X158381503Y-85849737D01*
X158536158Y-85880500D01*
X158536159Y-85880500D01*
X158693841Y-85880500D01*
X158693842Y-85880500D01*
X158848497Y-85849737D01*
X158994179Y-85789394D01*
X158994181Y-85789392D01*
X158994186Y-85789390D01*
X159094764Y-85722185D01*
X159149766Y-85705500D01*
X159838000Y-85705500D01*
X159896191Y-85724407D01*
X159932155Y-85773907D01*
X159937000Y-85804500D01*
X159937000Y-113042401D01*
X159918093Y-113100592D01*
X159908004Y-113112405D01*
X159864145Y-113156263D01*
X159864142Y-113156267D01*
X159795688Y-113258714D01*
X159748536Y-113372549D01*
X159724500Y-113493391D01*
X159724500Y-139665232D01*
X159707816Y-139720233D01*
X159640604Y-139820823D01*
X159580263Y-139966501D01*
X159580263Y-139966503D01*
X159549500Y-140121155D01*
X159549500Y-140278846D01*
X159569757Y-140380687D01*
X159569757Y-140419313D01*
X159549500Y-140521153D01*
X159549500Y-140678849D01*
X159552452Y-140693684D01*
X159545262Y-140754445D01*
X159503731Y-140799376D01*
X159455355Y-140812000D01*
X137652542Y-140812000D01*
X137594351Y-140793093D01*
X137558387Y-140743593D01*
X137558387Y-140682407D01*
X137561078Y-140675115D01*
X137604726Y-140569736D01*
X137619737Y-140533497D01*
X137625368Y-140505186D01*
X137655264Y-140451803D01*
X137710829Y-140426186D01*
X137722466Y-140425500D01*
X144115234Y-140425500D01*
X144170236Y-140442185D01*
X144270813Y-140509390D01*
X144270825Y-140509396D01*
X144299222Y-140521158D01*
X144416503Y-140569737D01*
X144571158Y-140600500D01*
X144571159Y-140600500D01*
X144728841Y-140600500D01*
X144728842Y-140600500D01*
X144883497Y-140569737D01*
X145029179Y-140509394D01*
X145160289Y-140421789D01*
X145271789Y-140310289D01*
X145359394Y-140179179D01*
X145419737Y-140033497D01*
X145450500Y-139878842D01*
X145450500Y-139721158D01*
X145430241Y-139619309D01*
X145430241Y-139580690D01*
X145450500Y-139478842D01*
X145450500Y-139321158D01*
X145430241Y-139219309D01*
X145430241Y-139180690D01*
X145450500Y-139078842D01*
X145450500Y-138921158D01*
X145430241Y-138819309D01*
X145430241Y-138780690D01*
X145450500Y-138678842D01*
X145450500Y-138521158D01*
X145430241Y-138419309D01*
X145430241Y-138380690D01*
X145450500Y-138278842D01*
X145450500Y-138121158D01*
X145430241Y-138019309D01*
X145430241Y-137980690D01*
X145450500Y-137878842D01*
X145450500Y-137721158D01*
X145430241Y-137619309D01*
X145430241Y-137580690D01*
X145450500Y-137478842D01*
X145450500Y-137321158D01*
X145430241Y-137219309D01*
X145430241Y-137180690D01*
X145450500Y-137078842D01*
X145450500Y-136921158D01*
X145419737Y-136766503D01*
X145359394Y-136620821D01*
X145359393Y-136620819D01*
X145359390Y-136620814D01*
X145310789Y-136548079D01*
X145271789Y-136489711D01*
X145160289Y-136378211D01*
X145093660Y-136333691D01*
X145029185Y-136290609D01*
X145029174Y-136290603D01*
X144883497Y-136230263D01*
X144728844Y-136199500D01*
X144728842Y-136199500D01*
X144571158Y-136199500D01*
X144571155Y-136199500D01*
X144416503Y-136230263D01*
X144416501Y-136230263D01*
X144270825Y-136290603D01*
X144270813Y-136290609D01*
X144170236Y-136357815D01*
X144115234Y-136374500D01*
X118009766Y-136374500D01*
X117954764Y-136357815D01*
X117854186Y-136290609D01*
X117854174Y-136290603D01*
X117708497Y-136230263D01*
X117553844Y-136199500D01*
X117553842Y-136199500D01*
X117396158Y-136199500D01*
X117396155Y-136199500D01*
X117241503Y-136230263D01*
X117241501Y-136230263D01*
X117095825Y-136290603D01*
X117095813Y-136290609D01*
X116995236Y-136357815D01*
X116940234Y-136374500D01*
X113364199Y-136374500D01*
X113306008Y-136355593D01*
X113272735Y-136313385D01*
X113234395Y-136220823D01*
X113167184Y-136120233D01*
X113150500Y-136065232D01*
X113150500Y-136033396D01*
X113150499Y-136033391D01*
X113148191Y-136021789D01*
X113126463Y-135912548D01*
X113079311Y-135798714D01*
X113010858Y-135696267D01*
X112923733Y-135609142D01*
X112821286Y-135540689D01*
X112821287Y-135540689D01*
X112821285Y-135540688D01*
X112707450Y-135493536D01*
X112586608Y-135469500D01*
X112586606Y-135469500D01*
X112463394Y-135469500D01*
X112463391Y-135469500D01*
X112342549Y-135493536D01*
X112228714Y-135540688D01*
X112126267Y-135609142D01*
X112126263Y-135609145D01*
X112039145Y-135696263D01*
X112039142Y-135696267D01*
X111970688Y-135798714D01*
X111923536Y-135912549D01*
X111899500Y-136033391D01*
X111899500Y-136065232D01*
X111882816Y-136120233D01*
X111815604Y-136220823D01*
X111777265Y-136313385D01*
X111737529Y-136359911D01*
X111685801Y-136374500D01*
X101974500Y-136374500D01*
X101916309Y-136355593D01*
X101880345Y-136306093D01*
X101875500Y-136275500D01*
X101875500Y-135934766D01*
X101892185Y-135879764D01*
X101892799Y-135878846D01*
X101920683Y-135837114D01*
X101959390Y-135779186D01*
X101959396Y-135779174D01*
X101993737Y-135696267D01*
X102019737Y-135633497D01*
X102050500Y-135478842D01*
X102050500Y-135321158D01*
X102019737Y-135166503D01*
X101970698Y-135048111D01*
X101959396Y-135020825D01*
X101959390Y-135020814D01*
X101924017Y-134967876D01*
X101871789Y-134889711D01*
X101760289Y-134778211D01*
X101708059Y-134743312D01*
X101629185Y-134690609D01*
X101629174Y-134690603D01*
X101483497Y-134630263D01*
X101328844Y-134599500D01*
X101328842Y-134599500D01*
X101171158Y-134599500D01*
X101171155Y-134599500D01*
X101016503Y-134630263D01*
X101016501Y-134630263D01*
X100870825Y-134690603D01*
X100870814Y-134690609D01*
X100739711Y-134778211D01*
X100739707Y-134778214D01*
X100628214Y-134889707D01*
X100628211Y-134889711D01*
X100540609Y-135020814D01*
X100540603Y-135020825D01*
X100480263Y-135166501D01*
X100480263Y-135166503D01*
X100449500Y-135321155D01*
X100449500Y-135478844D01*
X100452423Y-135493537D01*
X100475418Y-135609142D01*
X100480263Y-135633496D01*
X100480263Y-135633498D01*
X100540603Y-135779174D01*
X100540609Y-135779186D01*
X100589189Y-135851889D01*
X100607201Y-135878846D01*
X100607815Y-135879764D01*
X100624500Y-135934766D01*
X100624500Y-136275500D01*
X100605593Y-136333691D01*
X100556093Y-136369655D01*
X100525500Y-136374500D01*
X99474500Y-136374500D01*
X99416309Y-136355593D01*
X99380345Y-136306093D01*
X99375500Y-136275500D01*
X99375500Y-135097266D01*
X99392185Y-135042264D01*
X99459390Y-134941686D01*
X99459396Y-134941674D01*
X99468277Y-134920233D01*
X99519737Y-134795997D01*
X99550500Y-134641342D01*
X99550500Y-134483658D01*
X99519737Y-134329003D01*
X99459394Y-134183321D01*
X99459393Y-134183319D01*
X99459390Y-134183314D01*
X99388113Y-134076642D01*
X99371789Y-134052211D01*
X99260289Y-133940711D01*
X99208059Y-133905812D01*
X99129185Y-133853109D01*
X99129174Y-133853103D01*
X98983497Y-133792763D01*
X98828844Y-133762000D01*
X98828842Y-133762000D01*
X98671158Y-133762000D01*
X98671155Y-133762000D01*
X98516503Y-133792763D01*
X98516501Y-133792763D01*
X98370825Y-133853103D01*
X98370814Y-133853109D01*
X98239711Y-133940711D01*
X98239707Y-133940714D01*
X98128214Y-134052207D01*
X98128211Y-134052211D01*
X98040609Y-134183314D01*
X98040603Y-134183325D01*
X97980263Y-134329001D01*
X97980263Y-134329003D01*
X97949500Y-134483655D01*
X97949500Y-134641344D01*
X97980263Y-134795996D01*
X97980263Y-134795998D01*
X98040603Y-134941674D01*
X98040609Y-134941686D01*
X98107815Y-135042264D01*
X98124500Y-135097266D01*
X98124500Y-136275500D01*
X98105593Y-136333691D01*
X98056093Y-136369655D01*
X98025500Y-136374500D01*
X93199500Y-136374500D01*
X93141309Y-136355593D01*
X93105345Y-136306093D01*
X93100500Y-136275500D01*
X93100500Y-135097266D01*
X93117185Y-135042264D01*
X93184390Y-134941686D01*
X93184396Y-134941674D01*
X93193277Y-134920233D01*
X93244737Y-134795997D01*
X93275500Y-134641342D01*
X93275500Y-134483658D01*
X93244737Y-134329003D01*
X93184394Y-134183321D01*
X93117184Y-134082733D01*
X93100500Y-134027732D01*
X93100500Y-122979766D01*
X93117185Y-122924764D01*
X93184390Y-122824186D01*
X93184396Y-122824174D01*
X93244737Y-122678497D01*
X93275500Y-122523842D01*
X93275500Y-122366158D01*
X93244737Y-122211503D01*
X93184394Y-122065821D01*
X93117184Y-121965233D01*
X93100500Y-121910232D01*
X93100500Y-116629766D01*
X93117185Y-116574764D01*
X93184390Y-116474186D01*
X93184396Y-116474174D01*
X93244737Y-116328497D01*
X93275500Y-116173842D01*
X93275500Y-116016158D01*
X93244737Y-115861503D01*
X93184394Y-115715821D01*
X93184393Y-115715819D01*
X93184390Y-115715814D01*
X93113113Y-115609142D01*
X93096789Y-115584711D01*
X92985289Y-115473211D01*
X92933059Y-115438312D01*
X92854185Y-115385609D01*
X92854174Y-115385603D01*
X92708497Y-115325263D01*
X92553844Y-115294500D01*
X92553842Y-115294500D01*
X92396158Y-115294500D01*
X92396155Y-115294500D01*
X92241503Y-115325263D01*
X92241501Y-115325263D01*
X92095825Y-115385603D01*
X92095814Y-115385609D01*
X91964711Y-115473211D01*
X91964707Y-115473214D01*
X91853214Y-115584707D01*
X91853211Y-115584711D01*
X91765609Y-115715814D01*
X91765603Y-115715825D01*
X91705263Y-115861501D01*
X91705263Y-115861503D01*
X91674500Y-116016155D01*
X91674500Y-116173844D01*
X91705263Y-116328496D01*
X91705263Y-116328498D01*
X91765603Y-116474174D01*
X91765609Y-116474186D01*
X91832815Y-116574764D01*
X91849500Y-116629766D01*
X91849500Y-121910232D01*
X91832816Y-121965233D01*
X91765604Y-122065823D01*
X91705263Y-122211501D01*
X91705263Y-122211503D01*
X91674500Y-122366155D01*
X91674500Y-122523844D01*
X91705263Y-122678496D01*
X91705263Y-122678498D01*
X91765603Y-122824174D01*
X91765609Y-122824186D01*
X91832815Y-122924764D01*
X91849500Y-122979766D01*
X91849500Y-134027732D01*
X91832816Y-134082733D01*
X91765604Y-134183323D01*
X91705263Y-134329001D01*
X91705263Y-134329003D01*
X91674500Y-134483655D01*
X91674500Y-134641344D01*
X91705263Y-134795996D01*
X91705263Y-134795998D01*
X91765603Y-134941674D01*
X91765609Y-134941686D01*
X91832815Y-135042264D01*
X91849500Y-135097266D01*
X91849500Y-136275500D01*
X91830593Y-136333691D01*
X91781093Y-136369655D01*
X91750500Y-136374500D01*
X83009249Y-136374500D01*
X82951058Y-136355593D01*
X82915094Y-136306093D01*
X82915094Y-136244907D01*
X82951058Y-136195407D01*
X82989935Y-136178402D01*
X83033497Y-136169737D01*
X83179179Y-136109394D01*
X83310289Y-136021789D01*
X83421789Y-135910289D01*
X83509394Y-135779179D01*
X83569737Y-135633497D01*
X83600500Y-135478842D01*
X83600500Y-135321158D01*
X83569737Y-135166503D01*
X83509394Y-135020821D01*
X83456518Y-134941686D01*
X83442184Y-134920233D01*
X83425500Y-134865232D01*
X83425500Y-134500896D01*
X83425499Y-134500891D01*
X83422071Y-134483659D01*
X83401463Y-134380048D01*
X83354311Y-134266214D01*
X83285858Y-134163767D01*
X83198733Y-134076642D01*
X83096286Y-134008189D01*
X83096287Y-134008189D01*
X83096285Y-134008188D01*
X82982450Y-133961036D01*
X82861608Y-133937000D01*
X82861606Y-133937000D01*
X82738394Y-133937000D01*
X82738391Y-133937000D01*
X82617549Y-133961036D01*
X82503714Y-134008188D01*
X82401267Y-134076642D01*
X82401263Y-134076645D01*
X82314145Y-134163763D01*
X82314142Y-134163767D01*
X82245688Y-134266214D01*
X82198536Y-134380049D01*
X82174500Y-134500891D01*
X82174500Y-134865232D01*
X82157816Y-134920233D01*
X82090604Y-135020823D01*
X82030263Y-135166501D01*
X82030263Y-135166503D01*
X81999500Y-135321155D01*
X81999500Y-135478844D01*
X82002423Y-135493537D01*
X82025418Y-135609142D01*
X82030263Y-135633496D01*
X82030263Y-135633498D01*
X82090603Y-135779174D01*
X82090609Y-135779185D01*
X82129317Y-135837114D01*
X82178211Y-135910289D01*
X82289711Y-136021789D01*
X82354728Y-136065232D01*
X82420814Y-136109390D01*
X82420825Y-136109396D01*
X82449222Y-136121158D01*
X82566503Y-136169737D01*
X82610065Y-136178402D01*
X82663449Y-136208299D01*
X82689065Y-136263864D01*
X82677128Y-136323874D01*
X82632198Y-136365406D01*
X82590751Y-136374500D01*
X81500891Y-136374500D01*
X81380049Y-136398536D01*
X81266214Y-136445688D01*
X81163767Y-136514142D01*
X81163763Y-136514145D01*
X81076645Y-136601263D01*
X81076642Y-136601267D01*
X81008188Y-136703714D01*
X80961036Y-136817549D01*
X80937000Y-136938391D01*
X73201289Y-136938391D01*
X73244737Y-136833497D01*
X73275500Y-136678842D01*
X73275500Y-136521158D01*
X73255241Y-136419309D01*
X73255241Y-136380690D01*
X73275500Y-136278842D01*
X73275500Y-136121158D01*
X73255241Y-136019309D01*
X73255241Y-135980690D01*
X73275500Y-135878842D01*
X73275500Y-135721158D01*
X73244737Y-135566503D01*
X73184394Y-135420821D01*
X73147918Y-135366230D01*
X73117184Y-135320233D01*
X73100500Y-135265232D01*
X73100500Y-121096155D01*
X88887000Y-121096155D01*
X88887000Y-121253844D01*
X88917763Y-121408496D01*
X88917763Y-121408498D01*
X88978103Y-121554174D01*
X88978109Y-121554186D01*
X89045315Y-121654764D01*
X89062000Y-121709766D01*
X89062000Y-121910232D01*
X89045316Y-121965233D01*
X88978104Y-122065823D01*
X88917763Y-122211501D01*
X88917763Y-122211503D01*
X88887000Y-122366155D01*
X88887000Y-122523844D01*
X88917763Y-122678496D01*
X88917763Y-122678498D01*
X88978103Y-122824174D01*
X88978109Y-122824185D01*
X89030812Y-122903059D01*
X89065711Y-122955289D01*
X89177211Y-123066789D01*
X89255376Y-123119017D01*
X89308314Y-123154390D01*
X89308325Y-123154396D01*
X89362138Y-123176685D01*
X89454003Y-123214737D01*
X89608658Y-123245500D01*
X89608659Y-123245500D01*
X89766341Y-123245500D01*
X89766342Y-123245500D01*
X89920997Y-123214737D01*
X90066679Y-123154394D01*
X90197789Y-123066789D01*
X90309289Y-122955289D01*
X90396894Y-122824179D01*
X90457237Y-122678497D01*
X90488000Y-122523842D01*
X90488000Y-122366158D01*
X90457237Y-122211503D01*
X90396894Y-122065821D01*
X90329684Y-121965233D01*
X90313000Y-121910232D01*
X90313000Y-121709766D01*
X90329685Y-121654764D01*
X90396890Y-121554186D01*
X90396896Y-121554174D01*
X90457237Y-121408497D01*
X90488000Y-121253842D01*
X90488000Y-121096158D01*
X90457237Y-120941503D01*
X90396894Y-120795821D01*
X90329684Y-120695233D01*
X90313000Y-120640232D01*
X90313000Y-104188396D01*
X90312999Y-104188391D01*
X90288963Y-104067549D01*
X90241811Y-103953714D01*
X90173358Y-103851267D01*
X90086233Y-103764142D01*
X89983786Y-103695689D01*
X89983787Y-103695689D01*
X89983785Y-103695688D01*
X89869950Y-103648536D01*
X89749108Y-103624500D01*
X89749106Y-103624500D01*
X89625894Y-103624500D01*
X89625891Y-103624500D01*
X89505049Y-103648536D01*
X89391214Y-103695688D01*
X89288767Y-103764142D01*
X89288763Y-103764145D01*
X89201645Y-103851263D01*
X89201642Y-103851267D01*
X89133188Y-103953714D01*
X89086036Y-104067549D01*
X89062000Y-104188391D01*
X89062000Y-120640232D01*
X89045316Y-120695233D01*
X88978104Y-120795823D01*
X88917763Y-120941501D01*
X88917763Y-120941503D01*
X88887000Y-121096155D01*
X73100500Y-121096155D01*
X73100500Y-116033396D01*
X73100499Y-116033391D01*
X73097071Y-116016159D01*
X73076463Y-115912548D01*
X73029311Y-115798714D01*
X72960858Y-115696267D01*
X72873733Y-115609142D01*
X72771286Y-115540689D01*
X72771287Y-115540689D01*
X72771285Y-115540688D01*
X72657450Y-115493536D01*
X72536608Y-115469500D01*
X72536606Y-115469500D01*
X72413394Y-115469500D01*
X72413391Y-115469500D01*
X72292549Y-115493536D01*
X72178714Y-115540688D01*
X72076267Y-115609142D01*
X72076263Y-115609145D01*
X71989145Y-115696263D01*
X71989142Y-115696267D01*
X71920688Y-115798714D01*
X71873536Y-115912549D01*
X71849500Y-116033391D01*
X71849500Y-135265232D01*
X71832816Y-135320233D01*
X71765604Y-135420823D01*
X71705263Y-135566501D01*
X71705263Y-135566503D01*
X71674500Y-135721155D01*
X50975000Y-135721155D01*
X50975000Y-99671155D01*
X69512000Y-99671155D01*
X69512000Y-99828844D01*
X69542763Y-99983496D01*
X69542763Y-99983498D01*
X69603103Y-100129174D01*
X69603109Y-100129186D01*
X69670315Y-100229764D01*
X69687000Y-100284766D01*
X69687000Y-114290232D01*
X69670316Y-114345233D01*
X69603104Y-114445823D01*
X69542763Y-114591501D01*
X69542763Y-114591503D01*
X69512000Y-114746155D01*
X69512000Y-114903844D01*
X69542763Y-115058496D01*
X69542763Y-115058498D01*
X69603103Y-115204174D01*
X69603109Y-115204186D01*
X69670315Y-115304764D01*
X69687000Y-115359766D01*
X69687000Y-118100232D01*
X69670316Y-118155233D01*
X69603104Y-118255823D01*
X69542763Y-118401501D01*
X69542763Y-118401503D01*
X69512000Y-118556155D01*
X69512000Y-118713844D01*
X69542763Y-118868496D01*
X69542763Y-118868498D01*
X69603103Y-119014174D01*
X69603109Y-119014185D01*
X69655812Y-119093059D01*
X69690711Y-119145289D01*
X69802211Y-119256789D01*
X69880376Y-119309017D01*
X69933314Y-119344390D01*
X69933325Y-119344396D01*
X69987138Y-119366685D01*
X70079003Y-119404737D01*
X70233658Y-119435500D01*
X70233659Y-119435500D01*
X70391341Y-119435500D01*
X70391342Y-119435500D01*
X70545997Y-119404737D01*
X70691679Y-119344394D01*
X70822789Y-119256789D01*
X70934289Y-119145289D01*
X71021894Y-119014179D01*
X71082237Y-118868497D01*
X71113000Y-118713842D01*
X71113000Y-118556158D01*
X71082237Y-118401503D01*
X71021894Y-118255821D01*
X70954684Y-118155233D01*
X70938000Y-118100232D01*
X70938000Y-115359766D01*
X70954685Y-115304764D01*
X71021890Y-115204186D01*
X71021896Y-115204174D01*
X71082237Y-115058497D01*
X71113000Y-114903842D01*
X71113000Y-114746158D01*
X71082237Y-114591503D01*
X71021894Y-114445821D01*
X70954684Y-114345233D01*
X70938000Y-114290232D01*
X70938000Y-100284766D01*
X70954685Y-100229764D01*
X71021890Y-100129186D01*
X71021896Y-100129174D01*
X71082237Y-99983497D01*
X71113000Y-99828842D01*
X71113000Y-99671158D01*
X71082237Y-99516503D01*
X71021894Y-99370821D01*
X70954684Y-99270233D01*
X70938000Y-99215232D01*
X70938000Y-95171155D01*
X88887000Y-95171155D01*
X88887000Y-95328844D01*
X88917763Y-95483496D01*
X88917763Y-95483498D01*
X88978103Y-95629174D01*
X88978109Y-95629185D01*
X89030812Y-95708059D01*
X89065711Y-95760289D01*
X89177211Y-95871789D01*
X89255376Y-95924017D01*
X89308314Y-95959390D01*
X89308325Y-95959396D01*
X89362138Y-95981685D01*
X89454003Y-96019737D01*
X89608658Y-96050500D01*
X89608659Y-96050500D01*
X89766341Y-96050500D01*
X89766342Y-96050500D01*
X89920997Y-96019737D01*
X90066679Y-95959394D01*
X90197789Y-95871789D01*
X90309289Y-95760289D01*
X90396894Y-95629179D01*
X90457237Y-95483497D01*
X90488000Y-95328842D01*
X90488000Y-95171158D01*
X90457237Y-95016503D01*
X90396894Y-94870821D01*
X90396893Y-94870819D01*
X90396890Y-94870814D01*
X90361517Y-94817876D01*
X90309289Y-94739711D01*
X90197789Y-94628211D01*
X90145559Y-94593312D01*
X90066685Y-94540609D01*
X90066674Y-94540603D01*
X89920997Y-94480263D01*
X89766344Y-94449500D01*
X89766342Y-94449500D01*
X89608658Y-94449500D01*
X89608655Y-94449500D01*
X89454003Y-94480263D01*
X89454001Y-94480263D01*
X89308325Y-94540603D01*
X89308314Y-94540609D01*
X89177211Y-94628211D01*
X89177207Y-94628214D01*
X89065714Y-94739707D01*
X89065711Y-94739711D01*
X88978109Y-94870814D01*
X88978103Y-94870825D01*
X88917763Y-95016501D01*
X88917763Y-95016503D01*
X88887000Y-95171155D01*
X70938000Y-95171155D01*
X70938000Y-82188396D01*
X70937999Y-82188391D01*
X70934571Y-82171159D01*
X70913963Y-82067548D01*
X70866811Y-81953714D01*
X70798358Y-81851267D01*
X70711233Y-81764142D01*
X70608786Y-81695689D01*
X70608787Y-81695689D01*
X70608785Y-81695688D01*
X70494950Y-81648536D01*
X70374108Y-81624500D01*
X70374106Y-81624500D01*
X70250894Y-81624500D01*
X70250891Y-81624500D01*
X70130049Y-81648536D01*
X70016214Y-81695688D01*
X69913767Y-81764142D01*
X69913763Y-81764145D01*
X69826645Y-81851263D01*
X69826642Y-81851267D01*
X69758188Y-81953714D01*
X69711036Y-82067549D01*
X69687000Y-82188391D01*
X69687000Y-99215232D01*
X69670316Y-99270233D01*
X69603104Y-99370823D01*
X69542763Y-99516501D01*
X69542763Y-99516503D01*
X69512000Y-99671155D01*
X50975000Y-99671155D01*
X50975000Y-79671155D01*
X69512000Y-79671155D01*
X69512000Y-79828844D01*
X69520349Y-79870814D01*
X69541983Y-79979578D01*
X69542763Y-79983496D01*
X69542763Y-79983498D01*
X69603103Y-80129174D01*
X69603109Y-80129185D01*
X69638702Y-80182452D01*
X69690711Y-80260289D01*
X69802211Y-80371789D01*
X69880376Y-80424017D01*
X69933314Y-80459390D01*
X69933325Y-80459396D01*
X69957719Y-80469500D01*
X70079003Y-80519737D01*
X70233658Y-80550500D01*
X70233659Y-80550500D01*
X70391341Y-80550500D01*
X70391342Y-80550500D01*
X70545997Y-80519737D01*
X70691679Y-80459394D01*
X70822789Y-80371789D01*
X70934289Y-80260289D01*
X71021894Y-80129179D01*
X71082237Y-79983497D01*
X71113000Y-79828842D01*
X71113000Y-79671158D01*
X71082237Y-79516503D01*
X71052167Y-79443907D01*
X71021896Y-79370825D01*
X71021890Y-79370814D01*
X70978644Y-79306093D01*
X70934289Y-79239711D01*
X70822789Y-79128211D01*
X70770559Y-79093312D01*
X70691685Y-79040609D01*
X70691674Y-79040603D01*
X70545997Y-78980263D01*
X70391344Y-78949500D01*
X70391342Y-78949500D01*
X70233658Y-78949500D01*
X70233655Y-78949500D01*
X70079003Y-78980263D01*
X70079001Y-78980263D01*
X69933325Y-79040603D01*
X69933314Y-79040609D01*
X69802211Y-79128211D01*
X69802207Y-79128214D01*
X69690714Y-79239707D01*
X69690711Y-79239711D01*
X69603109Y-79370814D01*
X69603103Y-79370825D01*
X69542763Y-79516501D01*
X69542763Y-79516503D01*
X69512000Y-79671155D01*
X50975000Y-79671155D01*
X50975000Y-74188391D01*
X89062000Y-74188391D01*
X89062000Y-74311608D01*
X89086036Y-74432450D01*
X89098324Y-74462116D01*
X89103123Y-74523113D01*
X89098324Y-74537884D01*
X89086036Y-74567549D01*
X89062000Y-74688391D01*
X89062000Y-74811608D01*
X89086036Y-74932450D01*
X89133188Y-75046285D01*
X89147396Y-75067548D01*
X89201642Y-75148733D01*
X89201645Y-75148736D01*
X89232905Y-75179996D01*
X89260682Y-75234513D01*
X89251111Y-75294945D01*
X89232905Y-75320004D01*
X89201645Y-75351263D01*
X89201642Y-75351267D01*
X89133188Y-75453714D01*
X89086036Y-75567549D01*
X89062000Y-75688391D01*
X89062000Y-75811608D01*
X89086036Y-75932450D01*
X89098324Y-75962116D01*
X89103123Y-76023113D01*
X89098324Y-76037884D01*
X89086036Y-76067549D01*
X89062000Y-76188391D01*
X89062000Y-76311608D01*
X89086036Y-76432450D01*
X89098324Y-76462116D01*
X89103123Y-76523113D01*
X89098324Y-76537884D01*
X89086036Y-76567549D01*
X89062000Y-76688391D01*
X89062000Y-76811608D01*
X89086036Y-76932450D01*
X89098324Y-76962116D01*
X89103123Y-77023113D01*
X89098324Y-77037884D01*
X89086036Y-77067549D01*
X89062000Y-77188391D01*
X89062000Y-77311608D01*
X89086036Y-77432450D01*
X89098324Y-77462116D01*
X89103123Y-77523113D01*
X89098324Y-77537884D01*
X89086036Y-77567549D01*
X89062000Y-77688391D01*
X89062000Y-77811608D01*
X89086036Y-77932450D01*
X89098324Y-77962116D01*
X89103123Y-78023113D01*
X89098324Y-78037884D01*
X89086036Y-78067549D01*
X89062000Y-78188391D01*
X89062000Y-78311608D01*
X89086036Y-78432450D01*
X89098324Y-78462116D01*
X89103123Y-78523113D01*
X89098324Y-78537884D01*
X89086036Y-78567549D01*
X89062000Y-78688391D01*
X89062000Y-78811608D01*
X89086036Y-78932450D01*
X89098324Y-78962116D01*
X89103123Y-79023113D01*
X89098324Y-79037884D01*
X89086036Y-79067549D01*
X89062000Y-79188391D01*
X89062000Y-79311608D01*
X89086036Y-79432450D01*
X89133188Y-79546285D01*
X89139742Y-79556093D01*
X89201642Y-79648733D01*
X89201645Y-79648736D01*
X89232905Y-79679996D01*
X89260682Y-79734513D01*
X89251111Y-79794945D01*
X89232905Y-79820004D01*
X89201645Y-79851263D01*
X89201642Y-79851267D01*
X89133188Y-79953714D01*
X89086036Y-80067549D01*
X89062000Y-80188391D01*
X89062000Y-80311608D01*
X89086036Y-80432450D01*
X89098324Y-80462116D01*
X89103123Y-80523113D01*
X89098324Y-80537884D01*
X89086036Y-80567549D01*
X89062000Y-80688391D01*
X89062000Y-80811608D01*
X89086036Y-80932450D01*
X89098324Y-80962116D01*
X89103123Y-81023113D01*
X89098324Y-81037884D01*
X89086036Y-81067549D01*
X89062000Y-81188391D01*
X89062000Y-81311608D01*
X89086036Y-81432450D01*
X89098324Y-81462116D01*
X89103123Y-81523113D01*
X89098324Y-81537884D01*
X89086036Y-81567549D01*
X89062000Y-81688391D01*
X89062000Y-81811608D01*
X89086036Y-81932450D01*
X89098324Y-81962116D01*
X89103123Y-82023113D01*
X89098324Y-82037884D01*
X89086036Y-82067549D01*
X89062000Y-82188391D01*
X89062000Y-82311608D01*
X89086036Y-82432450D01*
X89098324Y-82462116D01*
X89103123Y-82523113D01*
X89098324Y-82537884D01*
X89086036Y-82567549D01*
X89062000Y-82688391D01*
X89062000Y-82811608D01*
X89086036Y-82932450D01*
X89098324Y-82962116D01*
X89103123Y-83023113D01*
X89098324Y-83037884D01*
X89086036Y-83067549D01*
X89062000Y-83188391D01*
X89062000Y-83311608D01*
X89086036Y-83432450D01*
X89098324Y-83462116D01*
X89103123Y-83523113D01*
X89098324Y-83537884D01*
X89086036Y-83567549D01*
X89062000Y-83688391D01*
X89062000Y-83811608D01*
X89086036Y-83932450D01*
X89133188Y-84046285D01*
X89155902Y-84080279D01*
X89201642Y-84148733D01*
X89288767Y-84235858D01*
X89391214Y-84304311D01*
X89505048Y-84351463D01*
X89625894Y-84375500D01*
X92985505Y-84375500D01*
X93043696Y-84394407D01*
X93079660Y-84443907D01*
X93079660Y-84505093D01*
X93076972Y-84512376D01*
X93076164Y-84514326D01*
X93075262Y-84516504D01*
X93044500Y-84671155D01*
X93044500Y-84828844D01*
X93062381Y-84918734D01*
X93055189Y-84979495D01*
X93013657Y-85024425D01*
X92953647Y-85036362D01*
X92927398Y-85029512D01*
X92808497Y-84980263D01*
X92653844Y-84949500D01*
X92653842Y-84949500D01*
X92496158Y-84949500D01*
X92496155Y-84949500D01*
X92341503Y-84980263D01*
X92341501Y-84980263D01*
X92195825Y-85040603D01*
X92195813Y-85040609D01*
X92095236Y-85107815D01*
X92040234Y-85124500D01*
X89625891Y-85124500D01*
X89505049Y-85148536D01*
X89391214Y-85195688D01*
X89288767Y-85264142D01*
X89288763Y-85264145D01*
X89201645Y-85351263D01*
X89201642Y-85351267D01*
X89133188Y-85453714D01*
X89086036Y-85567549D01*
X89062000Y-85688391D01*
X89062000Y-85811608D01*
X89086036Y-85932450D01*
X89133188Y-86046285D01*
X89133189Y-86046286D01*
X89201642Y-86148733D01*
X89288767Y-86235858D01*
X89391214Y-86304311D01*
X89505048Y-86351463D01*
X89625894Y-86375500D01*
X92040234Y-86375500D01*
X92095236Y-86392185D01*
X92195813Y-86459390D01*
X92195825Y-86459396D01*
X92232290Y-86474500D01*
X92341503Y-86519737D01*
X92496158Y-86550500D01*
X92496159Y-86550500D01*
X92653841Y-86550500D01*
X92653842Y-86550500D01*
X92808497Y-86519737D01*
X92954179Y-86459394D01*
X92954181Y-86459392D01*
X92954186Y-86459390D01*
X93054764Y-86392185D01*
X93109766Y-86375500D01*
X104588000Y-86375500D01*
X104646191Y-86394407D01*
X104682155Y-86443907D01*
X104687000Y-86474500D01*
X104687000Y-119370232D01*
X104670316Y-119425233D01*
X104603104Y-119525823D01*
X104542763Y-119671501D01*
X104542763Y-119671503D01*
X104512000Y-119826155D01*
X104512000Y-119983844D01*
X104542763Y-120138496D01*
X104542763Y-120138498D01*
X104603103Y-120284174D01*
X104603109Y-120284186D01*
X104670315Y-120384764D01*
X104687000Y-120439766D01*
X104687000Y-123180232D01*
X104670316Y-123235233D01*
X104603104Y-123335823D01*
X104542763Y-123481501D01*
X104542763Y-123481503D01*
X104512000Y-123636155D01*
X104512000Y-123793844D01*
X104542763Y-123948496D01*
X104542763Y-123948498D01*
X104603103Y-124094174D01*
X104603109Y-124094185D01*
X104655812Y-124173059D01*
X104690711Y-124225289D01*
X104802211Y-124336789D01*
X104880376Y-124389017D01*
X104933314Y-124424390D01*
X104933325Y-124424396D01*
X104987138Y-124446685D01*
X105079003Y-124484737D01*
X105233658Y-124515500D01*
X105233659Y-124515500D01*
X105391341Y-124515500D01*
X105391342Y-124515500D01*
X105545997Y-124484737D01*
X105691679Y-124424394D01*
X105822789Y-124336789D01*
X105934289Y-124225289D01*
X106021894Y-124094179D01*
X106082237Y-123948497D01*
X106113000Y-123793842D01*
X106113000Y-123636158D01*
X106082237Y-123481503D01*
X106021894Y-123335821D01*
X105954684Y-123235233D01*
X105938000Y-123180232D01*
X105938000Y-120439766D01*
X105954685Y-120384764D01*
X106021890Y-120284186D01*
X106021896Y-120284174D01*
X106082237Y-120138497D01*
X106113000Y-119983842D01*
X106113000Y-119826158D01*
X106082237Y-119671503D01*
X106021894Y-119525821D01*
X105954684Y-119425233D01*
X105938000Y-119370232D01*
X105938000Y-117286155D01*
X134762000Y-117286155D01*
X134762000Y-117443844D01*
X134792763Y-117598496D01*
X134792763Y-117598498D01*
X134853103Y-117744174D01*
X134853109Y-117744185D01*
X134905812Y-117823059D01*
X134940711Y-117875289D01*
X135052211Y-117986789D01*
X135130376Y-118039017D01*
X135183314Y-118074390D01*
X135183325Y-118074396D01*
X135237138Y-118096685D01*
X135329003Y-118134737D01*
X135483658Y-118165500D01*
X135483659Y-118165500D01*
X135641341Y-118165500D01*
X135641342Y-118165500D01*
X135795997Y-118134737D01*
X135941679Y-118074394D01*
X136072789Y-117986789D01*
X136184289Y-117875289D01*
X136271894Y-117744179D01*
X136332237Y-117598497D01*
X136363000Y-117443842D01*
X136363000Y-117286158D01*
X136332237Y-117131503D01*
X136271894Y-116985821D01*
X136204684Y-116885233D01*
X136188000Y-116830232D01*
X136188000Y-112206155D01*
X143849500Y-112206155D01*
X143849500Y-112363844D01*
X143880263Y-112518496D01*
X143880263Y-112518498D01*
X143940603Y-112664174D01*
X143940609Y-112664185D01*
X143993312Y-112743059D01*
X144028211Y-112795289D01*
X144028214Y-112795292D01*
X144082918Y-112849996D01*
X144110695Y-112904513D01*
X144101124Y-112964945D01*
X144082918Y-112990004D01*
X144028214Y-113044707D01*
X144028211Y-113044711D01*
X143940609Y-113175814D01*
X143940603Y-113175825D01*
X143880263Y-113321501D01*
X143880263Y-113321503D01*
X143849500Y-113476155D01*
X143849500Y-113633844D01*
X143880263Y-113788496D01*
X143880263Y-113788498D01*
X143940603Y-113934174D01*
X143940609Y-113934186D01*
X144007815Y-114034764D01*
X144024500Y-114089766D01*
X144024500Y-114290232D01*
X144007816Y-114345233D01*
X143940604Y-114445823D01*
X143880263Y-114591501D01*
X143880263Y-114591503D01*
X143849500Y-114746155D01*
X143849500Y-114903844D01*
X143880263Y-115058496D01*
X143880263Y-115058498D01*
X143940603Y-115204174D01*
X143940609Y-115204186D01*
X144007815Y-115304764D01*
X144024500Y-115359766D01*
X144024500Y-115560232D01*
X144007816Y-115615233D01*
X143940604Y-115715823D01*
X143880263Y-115861501D01*
X143880263Y-115861503D01*
X143849500Y-116016155D01*
X143849500Y-116173844D01*
X143880263Y-116328496D01*
X143880263Y-116328498D01*
X143940603Y-116474174D01*
X143940609Y-116474186D01*
X144007815Y-116574764D01*
X144024500Y-116629766D01*
X144024500Y-116830232D01*
X144007816Y-116885233D01*
X143940604Y-116985823D01*
X143880263Y-117131501D01*
X143880263Y-117131503D01*
X143849500Y-117286155D01*
X143849500Y-117443844D01*
X143880263Y-117598496D01*
X143880263Y-117598498D01*
X143940603Y-117744174D01*
X143940609Y-117744186D01*
X144007815Y-117844764D01*
X144024500Y-117899766D01*
X144024500Y-118100232D01*
X144007816Y-118155233D01*
X143940604Y-118255823D01*
X143880263Y-118401501D01*
X143880263Y-118401503D01*
X143849500Y-118556155D01*
X143849500Y-118713844D01*
X143880263Y-118868496D01*
X143880263Y-118868498D01*
X143940603Y-119014174D01*
X143940609Y-119014186D01*
X144007815Y-119114764D01*
X144024500Y-119169766D01*
X144024500Y-119370232D01*
X144007816Y-119425233D01*
X143940604Y-119525823D01*
X143880263Y-119671501D01*
X143880263Y-119671503D01*
X143849500Y-119826155D01*
X143849500Y-119983844D01*
X143880263Y-120138496D01*
X143880263Y-120138498D01*
X143940603Y-120284174D01*
X143940609Y-120284186D01*
X144007815Y-120384764D01*
X144024500Y-120439766D01*
X144024500Y-120640232D01*
X144007816Y-120695233D01*
X143940604Y-120795823D01*
X143880263Y-120941501D01*
X143880263Y-120941503D01*
X143849500Y-121096155D01*
X143849500Y-121253844D01*
X143880263Y-121408496D01*
X143880263Y-121408498D01*
X143940603Y-121554174D01*
X143940609Y-121554186D01*
X144007815Y-121654764D01*
X144024500Y-121709766D01*
X144024500Y-121910232D01*
X144007816Y-121965233D01*
X143940604Y-122065823D01*
X143880263Y-122211501D01*
X143880263Y-122211503D01*
X143849500Y-122366155D01*
X143849500Y-122523844D01*
X143880263Y-122678496D01*
X143880263Y-122678498D01*
X143940603Y-122824174D01*
X143940609Y-122824186D01*
X144007815Y-122924764D01*
X144024500Y-122979766D01*
X144024500Y-123776608D01*
X144048536Y-123897450D01*
X144095688Y-124011285D01*
X144095689Y-124011286D01*
X144164142Y-124113733D01*
X144251267Y-124200858D01*
X144353714Y-124269311D01*
X144467548Y-124316463D01*
X144588394Y-124340500D01*
X144588396Y-124340500D01*
X144711604Y-124340500D01*
X144711606Y-124340500D01*
X144832452Y-124316463D01*
X144946286Y-124269311D01*
X145048733Y-124200858D01*
X145135858Y-124113733D01*
X145204311Y-124011286D01*
X145251463Y-123897452D01*
X145275500Y-123776606D01*
X145275500Y-122979766D01*
X145292185Y-122924764D01*
X145359390Y-122824186D01*
X145359396Y-122824174D01*
X145419737Y-122678497D01*
X145450500Y-122523842D01*
X145450500Y-122366158D01*
X145419737Y-122211503D01*
X145359394Y-122065821D01*
X145292184Y-121965233D01*
X145275500Y-121910232D01*
X145275500Y-121709766D01*
X145292185Y-121654764D01*
X145359390Y-121554186D01*
X145359396Y-121554174D01*
X145419737Y-121408497D01*
X145450500Y-121253842D01*
X145450500Y-121096158D01*
X145419737Y-120941503D01*
X145359394Y-120795821D01*
X145292184Y-120695233D01*
X145275500Y-120640232D01*
X145275500Y-120439766D01*
X145292185Y-120384764D01*
X145359390Y-120284186D01*
X145359396Y-120284174D01*
X145419737Y-120138497D01*
X145450500Y-119983842D01*
X145450500Y-119826158D01*
X145419737Y-119671503D01*
X145359394Y-119525821D01*
X145292184Y-119425233D01*
X145275500Y-119370232D01*
X145275500Y-119169766D01*
X145292185Y-119114764D01*
X145359390Y-119014186D01*
X145359396Y-119014174D01*
X145419737Y-118868497D01*
X145450500Y-118713842D01*
X145450500Y-118556158D01*
X145419737Y-118401503D01*
X145359394Y-118255821D01*
X145292184Y-118155233D01*
X145275500Y-118100232D01*
X145275500Y-117899766D01*
X145292185Y-117844764D01*
X145359390Y-117744186D01*
X145359396Y-117744174D01*
X145419737Y-117598497D01*
X145450500Y-117443842D01*
X145450500Y-117286158D01*
X145419737Y-117131503D01*
X145359394Y-116985821D01*
X145292184Y-116885233D01*
X145275500Y-116830232D01*
X145275500Y-116629766D01*
X145292185Y-116574764D01*
X145359390Y-116474186D01*
X145359396Y-116474174D01*
X145419737Y-116328497D01*
X145450500Y-116173842D01*
X145450500Y-116016158D01*
X145419737Y-115861503D01*
X145359394Y-115715821D01*
X145292184Y-115615233D01*
X145275500Y-115560232D01*
X145275500Y-115359766D01*
X145292185Y-115304764D01*
X145359390Y-115204186D01*
X145359396Y-115204174D01*
X145419737Y-115058497D01*
X145450500Y-114903842D01*
X145450500Y-114746158D01*
X145419737Y-114591503D01*
X145359394Y-114445821D01*
X145292184Y-114345233D01*
X145275500Y-114290232D01*
X145275500Y-114089766D01*
X145292185Y-114034764D01*
X145359390Y-113934186D01*
X145359396Y-113934174D01*
X145419737Y-113788497D01*
X145450500Y-113633842D01*
X145450500Y-113476158D01*
X145419737Y-113321503D01*
X145359394Y-113175821D01*
X145359393Y-113175819D01*
X145359390Y-113175814D01*
X145317021Y-113112405D01*
X145271789Y-113044711D01*
X145271784Y-113044706D01*
X145271781Y-113044702D01*
X145217082Y-112990004D01*
X145189304Y-112935488D01*
X145198875Y-112875056D01*
X145217082Y-112849996D01*
X145271781Y-112795297D01*
X145271789Y-112795289D01*
X145359394Y-112664179D01*
X145419737Y-112518497D01*
X145450500Y-112363842D01*
X145450500Y-112206158D01*
X145419737Y-112051503D01*
X145359394Y-111905821D01*
X145359393Y-111905819D01*
X145359390Y-111905814D01*
X145324017Y-111852876D01*
X145271789Y-111774711D01*
X145160289Y-111663211D01*
X145108059Y-111628312D01*
X145029185Y-111575609D01*
X145029174Y-111575603D01*
X144883497Y-111515263D01*
X144728844Y-111484500D01*
X144728842Y-111484500D01*
X144571158Y-111484500D01*
X144571155Y-111484500D01*
X144416503Y-111515263D01*
X144416501Y-111515263D01*
X144270825Y-111575603D01*
X144270814Y-111575609D01*
X144139711Y-111663211D01*
X144139707Y-111663214D01*
X144028214Y-111774707D01*
X144028211Y-111774711D01*
X143940609Y-111905814D01*
X143940603Y-111905825D01*
X143880263Y-112051501D01*
X143880263Y-112051503D01*
X143849500Y-112206155D01*
X136188000Y-112206155D01*
X136188000Y-103748396D01*
X136187999Y-103748391D01*
X136177516Y-103695689D01*
X136163963Y-103627548D01*
X136116811Y-103513714D01*
X136048358Y-103411267D01*
X135961233Y-103324142D01*
X135858786Y-103255689D01*
X135858787Y-103255689D01*
X135858785Y-103255688D01*
X135744950Y-103208536D01*
X135624108Y-103184500D01*
X135624106Y-103184500D01*
X135500894Y-103184500D01*
X135500891Y-103184500D01*
X135380049Y-103208536D01*
X135266214Y-103255688D01*
X135163767Y-103324142D01*
X135163763Y-103324145D01*
X135076645Y-103411263D01*
X135076642Y-103411267D01*
X135008188Y-103513714D01*
X134961036Y-103627549D01*
X134937000Y-103748391D01*
X134937000Y-116830232D01*
X134920316Y-116885233D01*
X134853104Y-116985823D01*
X134792763Y-117131501D01*
X134792763Y-117131503D01*
X134762000Y-117286155D01*
X105938000Y-117286155D01*
X105938000Y-93083655D01*
X130469500Y-93083655D01*
X130469500Y-93241344D01*
X130500263Y-93395996D01*
X130500263Y-93395998D01*
X130560603Y-93541674D01*
X130560609Y-93541685D01*
X130613312Y-93620559D01*
X130648211Y-93672789D01*
X130759711Y-93784289D01*
X130837876Y-93836517D01*
X130890814Y-93871890D01*
X130890825Y-93871896D01*
X130944638Y-93894185D01*
X131036503Y-93932237D01*
X131191158Y-93963000D01*
X131191159Y-93963000D01*
X131348841Y-93963000D01*
X131348842Y-93963000D01*
X131503497Y-93932237D01*
X131649179Y-93871894D01*
X131780289Y-93784289D01*
X131891789Y-93672789D01*
X131979394Y-93541679D01*
X132039737Y-93395997D01*
X132070500Y-93241342D01*
X132070500Y-93083658D01*
X132039737Y-92929003D01*
X131979394Y-92783321D01*
X131979393Y-92783319D01*
X131979390Y-92783314D01*
X131944017Y-92730376D01*
X131891789Y-92652211D01*
X131780289Y-92540711D01*
X131728059Y-92505812D01*
X131649185Y-92453109D01*
X131649174Y-92453103D01*
X131503497Y-92392763D01*
X131348844Y-92362000D01*
X131348842Y-92362000D01*
X131191158Y-92362000D01*
X131191155Y-92362000D01*
X131036503Y-92392763D01*
X131036501Y-92392763D01*
X130890825Y-92453103D01*
X130890814Y-92453109D01*
X130759711Y-92540711D01*
X130759707Y-92540714D01*
X130648214Y-92652207D01*
X130648211Y-92652211D01*
X130560609Y-92783314D01*
X130560603Y-92783325D01*
X130500263Y-92929001D01*
X130500263Y-92929003D01*
X130469500Y-93083655D01*
X105938000Y-93083655D01*
X105938000Y-86758655D01*
X150194500Y-86758655D01*
X150194500Y-86916344D01*
X150225263Y-87070996D01*
X150225263Y-87070998D01*
X150285603Y-87216674D01*
X150285609Y-87216685D01*
X150338312Y-87295559D01*
X150373211Y-87347789D01*
X150484711Y-87459289D01*
X150562876Y-87511517D01*
X150615814Y-87546890D01*
X150615825Y-87546896D01*
X150669638Y-87569185D01*
X150761503Y-87607237D01*
X150916158Y-87638000D01*
X150916159Y-87638000D01*
X151073841Y-87638000D01*
X151073842Y-87638000D01*
X151228497Y-87607237D01*
X151374179Y-87546894D01*
X151505289Y-87459289D01*
X151559996Y-87404582D01*
X151614512Y-87376804D01*
X151674944Y-87386375D01*
X151700004Y-87404582D01*
X151754702Y-87459281D01*
X151754706Y-87459284D01*
X151754711Y-87459289D01*
X151832876Y-87511517D01*
X151885814Y-87546890D01*
X151885825Y-87546896D01*
X151939638Y-87569185D01*
X152031503Y-87607237D01*
X152186158Y-87638000D01*
X152186159Y-87638000D01*
X152343841Y-87638000D01*
X152343842Y-87638000D01*
X152498497Y-87607237D01*
X152644179Y-87546894D01*
X152775289Y-87459289D01*
X152829996Y-87404582D01*
X152884512Y-87376804D01*
X152944944Y-87386375D01*
X152970004Y-87404582D01*
X153024702Y-87459281D01*
X153024706Y-87459284D01*
X153024711Y-87459289D01*
X153102876Y-87511517D01*
X153155814Y-87546890D01*
X153155825Y-87546896D01*
X153209638Y-87569185D01*
X153301503Y-87607237D01*
X153456158Y-87638000D01*
X153456159Y-87638000D01*
X153613841Y-87638000D01*
X153613842Y-87638000D01*
X153768497Y-87607237D01*
X153914179Y-87546894D01*
X153914181Y-87546892D01*
X153914186Y-87546890D01*
X154014764Y-87479685D01*
X154069766Y-87463000D01*
X154270234Y-87463000D01*
X154325236Y-87479685D01*
X154425813Y-87546890D01*
X154425825Y-87546896D01*
X154479638Y-87569185D01*
X154571503Y-87607237D01*
X154726158Y-87638000D01*
X154726159Y-87638000D01*
X154883841Y-87638000D01*
X154883842Y-87638000D01*
X155038497Y-87607237D01*
X155184179Y-87546894D01*
X155184181Y-87546892D01*
X155184186Y-87546890D01*
X155284764Y-87479685D01*
X155339766Y-87463000D01*
X155540234Y-87463000D01*
X155595236Y-87479685D01*
X155695813Y-87546890D01*
X155695825Y-87546896D01*
X155749638Y-87569185D01*
X155841503Y-87607237D01*
X155996158Y-87638000D01*
X155996159Y-87638000D01*
X156153841Y-87638000D01*
X156153842Y-87638000D01*
X156308497Y-87607237D01*
X156454179Y-87546894D01*
X156454181Y-87546892D01*
X156454186Y-87546890D01*
X156554764Y-87479685D01*
X156609766Y-87463000D01*
X156810234Y-87463000D01*
X156865236Y-87479685D01*
X156965813Y-87546890D01*
X156965825Y-87546896D01*
X157019638Y-87569185D01*
X157111503Y-87607237D01*
X157266158Y-87638000D01*
X157266159Y-87638000D01*
X157423841Y-87638000D01*
X157423842Y-87638000D01*
X157578497Y-87607237D01*
X157724179Y-87546894D01*
X157724181Y-87546892D01*
X157724186Y-87546890D01*
X157824764Y-87479685D01*
X157879766Y-87463000D01*
X158871604Y-87463000D01*
X158871606Y-87463000D01*
X158992452Y-87438963D01*
X159106286Y-87391811D01*
X159208733Y-87323358D01*
X159295858Y-87236233D01*
X159364311Y-87133786D01*
X159411463Y-87019952D01*
X159435500Y-86899106D01*
X159435500Y-86775894D01*
X159411463Y-86655048D01*
X159364311Y-86541214D01*
X159295858Y-86438767D01*
X159208733Y-86351642D01*
X159106286Y-86283189D01*
X159106287Y-86283189D01*
X159106285Y-86283188D01*
X158992450Y-86236036D01*
X158871608Y-86212000D01*
X158871606Y-86212000D01*
X157879766Y-86212000D01*
X157824764Y-86195315D01*
X157724186Y-86128109D01*
X157724174Y-86128103D01*
X157578497Y-86067763D01*
X157423844Y-86037000D01*
X157423842Y-86037000D01*
X157266158Y-86037000D01*
X157266155Y-86037000D01*
X157111503Y-86067763D01*
X157111501Y-86067763D01*
X156965825Y-86128103D01*
X156965813Y-86128109D01*
X156865236Y-86195315D01*
X156810234Y-86212000D01*
X156609766Y-86212000D01*
X156554764Y-86195315D01*
X156454186Y-86128109D01*
X156454174Y-86128103D01*
X156308497Y-86067763D01*
X156153844Y-86037000D01*
X156153842Y-86037000D01*
X155996158Y-86037000D01*
X155996155Y-86037000D01*
X155841503Y-86067763D01*
X155841501Y-86067763D01*
X155695825Y-86128103D01*
X155695813Y-86128109D01*
X155595236Y-86195315D01*
X155540234Y-86212000D01*
X155339766Y-86212000D01*
X155284764Y-86195315D01*
X155184186Y-86128109D01*
X155184174Y-86128103D01*
X155038497Y-86067763D01*
X154883844Y-86037000D01*
X154883842Y-86037000D01*
X154726158Y-86037000D01*
X154726155Y-86037000D01*
X154571503Y-86067763D01*
X154571501Y-86067763D01*
X154425825Y-86128103D01*
X154425813Y-86128109D01*
X154325236Y-86195315D01*
X154270234Y-86212000D01*
X154069766Y-86212000D01*
X154014764Y-86195315D01*
X153914186Y-86128109D01*
X153914174Y-86128103D01*
X153768497Y-86067763D01*
X153613844Y-86037000D01*
X153613842Y-86037000D01*
X153456158Y-86037000D01*
X153456155Y-86037000D01*
X153301503Y-86067763D01*
X153301501Y-86067763D01*
X153155825Y-86128103D01*
X153155814Y-86128109D01*
X153024711Y-86215711D01*
X153024707Y-86215714D01*
X152970004Y-86270418D01*
X152915487Y-86298195D01*
X152855055Y-86288624D01*
X152829996Y-86270418D01*
X152775292Y-86215714D01*
X152775289Y-86215711D01*
X152723059Y-86180812D01*
X152644185Y-86128109D01*
X152644174Y-86128103D01*
X152498497Y-86067763D01*
X152343844Y-86037000D01*
X152343842Y-86037000D01*
X152186158Y-86037000D01*
X152186155Y-86037000D01*
X152031503Y-86067763D01*
X152031501Y-86067763D01*
X151885825Y-86128103D01*
X151885814Y-86128109D01*
X151754711Y-86215711D01*
X151754707Y-86215714D01*
X151700004Y-86270418D01*
X151645487Y-86298195D01*
X151585055Y-86288624D01*
X151559996Y-86270418D01*
X151505292Y-86215714D01*
X151505289Y-86215711D01*
X151453059Y-86180812D01*
X151374185Y-86128109D01*
X151374174Y-86128103D01*
X151228497Y-86067763D01*
X151073844Y-86037000D01*
X151073842Y-86037000D01*
X150916158Y-86037000D01*
X150916155Y-86037000D01*
X150761503Y-86067763D01*
X150761501Y-86067763D01*
X150615825Y-86128103D01*
X150615814Y-86128109D01*
X150484711Y-86215711D01*
X150484707Y-86215714D01*
X150373214Y-86327207D01*
X150373211Y-86327211D01*
X150285609Y-86458314D01*
X150285603Y-86458325D01*
X150225263Y-86604001D01*
X150225263Y-86604003D01*
X150194500Y-86758655D01*
X105938000Y-86758655D01*
X105938000Y-84474500D01*
X105956907Y-84416309D01*
X106006407Y-84380345D01*
X106037000Y-84375500D01*
X112360234Y-84375500D01*
X112415236Y-84392185D01*
X112515813Y-84459390D01*
X112515825Y-84459396D01*
X112552290Y-84474500D01*
X112661503Y-84519737D01*
X112816158Y-84550500D01*
X112816159Y-84550500D01*
X112973841Y-84550500D01*
X112973842Y-84550500D01*
X113128497Y-84519737D01*
X113274179Y-84459394D01*
X113405289Y-84371789D01*
X113516789Y-84260289D01*
X113604394Y-84129179D01*
X113664737Y-83983497D01*
X113670368Y-83955186D01*
X113700264Y-83901803D01*
X113755829Y-83876186D01*
X113767466Y-83875500D01*
X117440234Y-83875500D01*
X117495236Y-83892185D01*
X117595813Y-83959390D01*
X117595825Y-83959396D01*
X117649638Y-83981685D01*
X117741503Y-84019737D01*
X117896158Y-84050500D01*
X117896159Y-84050500D01*
X118053841Y-84050500D01*
X118053842Y-84050500D01*
X118208497Y-84019737D01*
X118354179Y-83959394D01*
X118485289Y-83871789D01*
X118596789Y-83760289D01*
X118684394Y-83629179D01*
X118744737Y-83483497D01*
X118775500Y-83328842D01*
X118775500Y-83171158D01*
X118744737Y-83016503D01*
X118684394Y-82870821D01*
X118640413Y-82805000D01*
X118633380Y-82780065D01*
X118623907Y-82755942D01*
X118625214Y-82751113D01*
X118623805Y-82746114D01*
X118639288Y-82696721D01*
X118639818Y-82695889D01*
X118656345Y-82671155D01*
X122254500Y-82671155D01*
X122254500Y-82828844D01*
X122285263Y-82983496D01*
X122285263Y-82983498D01*
X122345605Y-83129178D01*
X122367393Y-83161785D01*
X122381023Y-83182185D01*
X122389585Y-83194998D01*
X122406194Y-83253886D01*
X122389585Y-83305002D01*
X122345605Y-83370821D01*
X122285263Y-83516501D01*
X122285263Y-83516503D01*
X122254500Y-83671155D01*
X122254500Y-83828844D01*
X122285263Y-83983496D01*
X122285263Y-83983498D01*
X122345603Y-84129174D01*
X122345609Y-84129185D01*
X122385693Y-84189174D01*
X122433211Y-84260289D01*
X122544711Y-84371789D01*
X122607422Y-84413691D01*
X122675814Y-84459390D01*
X122675825Y-84459396D01*
X122712290Y-84474500D01*
X122821503Y-84519737D01*
X122976158Y-84550500D01*
X122976159Y-84550500D01*
X123133841Y-84550500D01*
X123133842Y-84550500D01*
X123288497Y-84519737D01*
X123434179Y-84459394D01*
X123434181Y-84459392D01*
X123434186Y-84459390D01*
X123534764Y-84392185D01*
X123589766Y-84375500D01*
X124749104Y-84375500D01*
X124749106Y-84375500D01*
X124869952Y-84351463D01*
X124983786Y-84304311D01*
X125086233Y-84235858D01*
X125173358Y-84148733D01*
X125241811Y-84046286D01*
X125287239Y-83936613D01*
X125326976Y-83890089D01*
X125378703Y-83875500D01*
X132680234Y-83875500D01*
X132735236Y-83892185D01*
X132835813Y-83959390D01*
X132835825Y-83959396D01*
X132889638Y-83981685D01*
X132981503Y-84019737D01*
X133136158Y-84050500D01*
X133136159Y-84050500D01*
X133293841Y-84050500D01*
X133293842Y-84050500D01*
X133448497Y-84019737D01*
X133594179Y-83959394D01*
X133725289Y-83871789D01*
X133836789Y-83760289D01*
X133856256Y-83731155D01*
X142574500Y-83731155D01*
X142574500Y-83888844D01*
X142605263Y-84043496D01*
X142605263Y-84043498D01*
X142665603Y-84189174D01*
X142665609Y-84189185D01*
X142713120Y-84260289D01*
X142753211Y-84320289D01*
X142864711Y-84431789D01*
X142942876Y-84484017D01*
X142995814Y-84519390D01*
X142995825Y-84519396D01*
X143049638Y-84541685D01*
X143141503Y-84579737D01*
X143296158Y-84610500D01*
X143296159Y-84610500D01*
X143453841Y-84610500D01*
X143453842Y-84610500D01*
X143608497Y-84579737D01*
X143754179Y-84519394D01*
X143754181Y-84519392D01*
X143754186Y-84519390D01*
X143845746Y-84458211D01*
X143854764Y-84452184D01*
X143909766Y-84435500D01*
X148958401Y-84435500D01*
X149016592Y-84454407D01*
X149052556Y-84503907D01*
X149052556Y-84565093D01*
X149028405Y-84604504D01*
X148951645Y-84681263D01*
X148951642Y-84681267D01*
X148883188Y-84783714D01*
X148836036Y-84897549D01*
X148812000Y-85018391D01*
X148812000Y-85141608D01*
X148836036Y-85262450D01*
X148883188Y-85376285D01*
X148883189Y-85376286D01*
X148951642Y-85478733D01*
X148951645Y-85478736D01*
X149038767Y-85565858D01*
X149145258Y-85637014D01*
X149145123Y-85637215D01*
X149164528Y-85651606D01*
X149214711Y-85701789D01*
X149292876Y-85754017D01*
X149345814Y-85789390D01*
X149345825Y-85789396D01*
X149382290Y-85804500D01*
X149491503Y-85849737D01*
X149646158Y-85880500D01*
X149646159Y-85880500D01*
X149803841Y-85880500D01*
X149803842Y-85880500D01*
X149958497Y-85849737D01*
X150104179Y-85789394D01*
X150235289Y-85701789D01*
X150346789Y-85590289D01*
X150434394Y-85459179D01*
X150494737Y-85313497D01*
X150525500Y-85158842D01*
X150525500Y-85001158D01*
X150494737Y-84846503D01*
X150434394Y-84700821D01*
X150434393Y-84700819D01*
X150434390Y-84700814D01*
X150374043Y-84610500D01*
X150346789Y-84569711D01*
X150235289Y-84458211D01*
X150168660Y-84413691D01*
X150104185Y-84370609D01*
X150104174Y-84370603D01*
X150011210Y-84332097D01*
X149989289Y-84323017D01*
X149942764Y-84283282D01*
X149928480Y-84223787D01*
X149944859Y-84176554D01*
X149991811Y-84106286D01*
X150038963Y-83992452D01*
X150063000Y-83871606D01*
X150063000Y-83748394D01*
X150038963Y-83627548D01*
X149991811Y-83513714D01*
X149923358Y-83411267D01*
X149836233Y-83324142D01*
X149736218Y-83257314D01*
X149698340Y-83209265D01*
X149695938Y-83148127D01*
X149729931Y-83097253D01*
X149736219Y-83092685D01*
X149836233Y-83025858D01*
X149923358Y-82938733D01*
X149991811Y-82836286D01*
X150038963Y-82722452D01*
X150063000Y-82601606D01*
X150063000Y-82478394D01*
X150038963Y-82357548D01*
X149991811Y-82243714D01*
X149923358Y-82141267D01*
X149836233Y-82054142D01*
X149736218Y-81987314D01*
X149698340Y-81939265D01*
X149695938Y-81878127D01*
X149729931Y-81827253D01*
X149736219Y-81822685D01*
X149836233Y-81755858D01*
X149923358Y-81668733D01*
X149991811Y-81566286D01*
X150038963Y-81452452D01*
X150063000Y-81331606D01*
X150063000Y-81208394D01*
X150038963Y-81087548D01*
X149991811Y-80973714D01*
X149923358Y-80871267D01*
X149836233Y-80784142D01*
X149736218Y-80717314D01*
X149698340Y-80669265D01*
X149695938Y-80608127D01*
X149729931Y-80557253D01*
X149736219Y-80552685D01*
X149836233Y-80485858D01*
X149923358Y-80398733D01*
X149991811Y-80296286D01*
X150038963Y-80182452D01*
X150063000Y-80061606D01*
X150063000Y-79938394D01*
X150038963Y-79817548D01*
X149991811Y-79703714D01*
X149923358Y-79601267D01*
X149836233Y-79514142D01*
X149736218Y-79447314D01*
X149698340Y-79399265D01*
X149695938Y-79338127D01*
X149729931Y-79287253D01*
X149736219Y-79282685D01*
X149836233Y-79215858D01*
X149923358Y-79128733D01*
X149991811Y-79026286D01*
X150038963Y-78912452D01*
X150063000Y-78791606D01*
X150063000Y-78668394D01*
X150038963Y-78547548D01*
X149991811Y-78433714D01*
X149944859Y-78363446D01*
X149928251Y-78304560D01*
X149949428Y-78247156D01*
X149989289Y-78216982D01*
X150104179Y-78169394D01*
X150235289Y-78081789D01*
X150346789Y-77970289D01*
X150434394Y-77839179D01*
X150494737Y-77693497D01*
X150525500Y-77538842D01*
X150525500Y-77381158D01*
X150494737Y-77226503D01*
X150454427Y-77129185D01*
X150434396Y-77080825D01*
X150434390Y-77080813D01*
X150360013Y-76969502D01*
X150356272Y-76956241D01*
X150348173Y-76945093D01*
X150348173Y-76927522D01*
X150343404Y-76910614D01*
X150348173Y-76897686D01*
X150348173Y-76883907D01*
X150358500Y-76869692D01*
X150364581Y-76853210D01*
X150376037Y-76845555D01*
X150384137Y-76834407D01*
X150400847Y-76828977D01*
X150415455Y-76819217D01*
X150442328Y-76815500D01*
X150460234Y-76815500D01*
X150515235Y-76832184D01*
X150523545Y-76837737D01*
X150615813Y-76899390D01*
X150615825Y-76899396D01*
X150669638Y-76921685D01*
X150761503Y-76959737D01*
X150916158Y-76990500D01*
X150916159Y-76990500D01*
X151073841Y-76990500D01*
X151073842Y-76990500D01*
X151228497Y-76959737D01*
X151374179Y-76899394D01*
X151505289Y-76811789D01*
X151616789Y-76700289D01*
X151704394Y-76569179D01*
X151764737Y-76423497D01*
X151795500Y-76268842D01*
X151795500Y-76111158D01*
X151764737Y-75956503D01*
X151730771Y-75874501D01*
X151704396Y-75810825D01*
X151704390Y-75810813D01*
X151630013Y-75699502D01*
X151626272Y-75686241D01*
X151618173Y-75675093D01*
X151618173Y-75657522D01*
X151613404Y-75640614D01*
X151618173Y-75627686D01*
X151618173Y-75613907D01*
X151628500Y-75599692D01*
X151634581Y-75583210D01*
X151646037Y-75575555D01*
X151654137Y-75564407D01*
X151670847Y-75558977D01*
X151685455Y-75549217D01*
X151712328Y-75545500D01*
X151730234Y-75545500D01*
X151785235Y-75562184D01*
X151793262Y-75567548D01*
X151885813Y-75629390D01*
X151885825Y-75629396D01*
X151939638Y-75651685D01*
X152031503Y-75689737D01*
X152186158Y-75720500D01*
X152186159Y-75720500D01*
X152343841Y-75720500D01*
X152343842Y-75720500D01*
X152498497Y-75689737D01*
X152644179Y-75629394D01*
X152775289Y-75541789D01*
X152886789Y-75430289D01*
X152974394Y-75299179D01*
X153034737Y-75153497D01*
X153065500Y-74998842D01*
X153065500Y-74841158D01*
X153034737Y-74686503D01*
X153008729Y-74623714D01*
X152974396Y-74540825D01*
X152974390Y-74540814D01*
X152939017Y-74487876D01*
X152886789Y-74409711D01*
X152775289Y-74298211D01*
X152723059Y-74263312D01*
X152644185Y-74210609D01*
X152644174Y-74210603D01*
X152498497Y-74150263D01*
X152343844Y-74119500D01*
X152343842Y-74119500D01*
X152186158Y-74119500D01*
X152186155Y-74119500D01*
X152031503Y-74150263D01*
X152031501Y-74150263D01*
X151885825Y-74210603D01*
X151885813Y-74210609D01*
X151785236Y-74277815D01*
X151730234Y-74294500D01*
X149375891Y-74294500D01*
X149255049Y-74318536D01*
X149141214Y-74365688D01*
X149038767Y-74434142D01*
X149038763Y-74434145D01*
X148951645Y-74521263D01*
X148951642Y-74521267D01*
X148883188Y-74623714D01*
X148836036Y-74737549D01*
X148812000Y-74858391D01*
X148812000Y-74981608D01*
X148836036Y-75102450D01*
X148883188Y-75216285D01*
X148898838Y-75239707D01*
X148951642Y-75318733D01*
X149038767Y-75405858D01*
X149112891Y-75455386D01*
X149138780Y-75472685D01*
X149176659Y-75520735D01*
X149179061Y-75581873D01*
X149145068Y-75632747D01*
X149138780Y-75637315D01*
X149038767Y-75704142D01*
X149038763Y-75704145D01*
X148951645Y-75791263D01*
X148951642Y-75791267D01*
X148883188Y-75893714D01*
X148836036Y-76007549D01*
X148812000Y-76128391D01*
X148812000Y-76251608D01*
X148836036Y-76372450D01*
X148883188Y-76486285D01*
X148883189Y-76486286D01*
X148951642Y-76588733D01*
X149038767Y-76675858D01*
X149112891Y-76725386D01*
X149138780Y-76742685D01*
X149176659Y-76790735D01*
X149179061Y-76851873D01*
X149145068Y-76902747D01*
X149138780Y-76907315D01*
X149038767Y-76974142D01*
X149038763Y-76974145D01*
X148951645Y-77061263D01*
X148951642Y-77061267D01*
X148883188Y-77163714D01*
X148836036Y-77277549D01*
X148812000Y-77398391D01*
X148812000Y-77521608D01*
X148836036Y-77642450D01*
X148883188Y-77756285D01*
X148883189Y-77756286D01*
X148951642Y-77858733D01*
X148951645Y-77858736D01*
X148965243Y-77872334D01*
X148993020Y-77926851D01*
X148983449Y-77987283D01*
X148940184Y-78030548D01*
X148879752Y-78040119D01*
X148840237Y-78024653D01*
X148834186Y-78020609D01*
X148834174Y-78020603D01*
X148688497Y-77960263D01*
X148533844Y-77929500D01*
X148533842Y-77929500D01*
X148376158Y-77929500D01*
X148376155Y-77929500D01*
X148221503Y-77960263D01*
X148221501Y-77960263D01*
X148075825Y-78020603D01*
X148075814Y-78020609D01*
X147944711Y-78108211D01*
X147944707Y-78108214D01*
X147833214Y-78219707D01*
X147833211Y-78219711D01*
X147745609Y-78350814D01*
X147745603Y-78350825D01*
X147685263Y-78496501D01*
X147685263Y-78496503D01*
X147654500Y-78651155D01*
X147654500Y-78808844D01*
X147685263Y-78963496D01*
X147685263Y-78963498D01*
X147745603Y-79109174D01*
X147745609Y-79109186D01*
X147819987Y-79220498D01*
X147823727Y-79233758D01*
X147831827Y-79244907D01*
X147831827Y-79262477D01*
X147836596Y-79279386D01*
X147831827Y-79292313D01*
X147831827Y-79306093D01*
X147821499Y-79320307D01*
X147815419Y-79336790D01*
X147803962Y-79344444D01*
X147795863Y-79355593D01*
X147779152Y-79361022D01*
X147764545Y-79370783D01*
X147737672Y-79374500D01*
X147719766Y-79374500D01*
X147664764Y-79357815D01*
X147661299Y-79355500D01*
X147644753Y-79344444D01*
X147564186Y-79290609D01*
X147564174Y-79290603D01*
X147418497Y-79230263D01*
X147263844Y-79199500D01*
X147263842Y-79199500D01*
X147106158Y-79199500D01*
X147106155Y-79199500D01*
X146951503Y-79230263D01*
X146951501Y-79230263D01*
X146805825Y-79290603D01*
X146805814Y-79290609D01*
X146674711Y-79378211D01*
X146674707Y-79378214D01*
X146563214Y-79489707D01*
X146563211Y-79489711D01*
X146475609Y-79620814D01*
X146475603Y-79620825D01*
X146415263Y-79766501D01*
X146415263Y-79766503D01*
X146384500Y-79921155D01*
X146384500Y-80078844D01*
X146415263Y-80233496D01*
X146415263Y-80233498D01*
X146475603Y-80379174D01*
X146475609Y-80379186D01*
X146549987Y-80490498D01*
X146553727Y-80503758D01*
X146561827Y-80514907D01*
X146561827Y-80532477D01*
X146566596Y-80549386D01*
X146561827Y-80562313D01*
X146561827Y-80576093D01*
X146551499Y-80590307D01*
X146545419Y-80606790D01*
X146533962Y-80614444D01*
X146525863Y-80625593D01*
X146509152Y-80631022D01*
X146494545Y-80640783D01*
X146467672Y-80644500D01*
X146449766Y-80644500D01*
X146394764Y-80627815D01*
X146391299Y-80625500D01*
X146374753Y-80614444D01*
X146294186Y-80560609D01*
X146294174Y-80560603D01*
X146148497Y-80500263D01*
X145993844Y-80469500D01*
X145993842Y-80469500D01*
X145836158Y-80469500D01*
X145836155Y-80469500D01*
X145681503Y-80500263D01*
X145681501Y-80500263D01*
X145535825Y-80560603D01*
X145535814Y-80560609D01*
X145404711Y-80648211D01*
X145404707Y-80648214D01*
X145293214Y-80759707D01*
X145293211Y-80759711D01*
X145205609Y-80890814D01*
X145205603Y-80890825D01*
X145145263Y-81036501D01*
X145145263Y-81036503D01*
X145114500Y-81191155D01*
X145114500Y-81191158D01*
X145114500Y-81348842D01*
X145144567Y-81500000D01*
X145145263Y-81503496D01*
X145145263Y-81503498D01*
X145205603Y-81649174D01*
X145205609Y-81649186D01*
X145279987Y-81760498D01*
X145283727Y-81773758D01*
X145291827Y-81784907D01*
X145291827Y-81802477D01*
X145296596Y-81819386D01*
X145291827Y-81832313D01*
X145291827Y-81846093D01*
X145281499Y-81860307D01*
X145275419Y-81876790D01*
X145263962Y-81884444D01*
X145255863Y-81895593D01*
X145239152Y-81901022D01*
X145224545Y-81910783D01*
X145197672Y-81914500D01*
X145179766Y-81914500D01*
X145124764Y-81897815D01*
X145121299Y-81895500D01*
X145104753Y-81884444D01*
X145024186Y-81830609D01*
X145024174Y-81830603D01*
X144878497Y-81770263D01*
X144723844Y-81739500D01*
X144723842Y-81739500D01*
X144566158Y-81739500D01*
X144566155Y-81739500D01*
X144411503Y-81770263D01*
X144411501Y-81770263D01*
X144265825Y-81830603D01*
X144265814Y-81830609D01*
X144134711Y-81918211D01*
X144134707Y-81918214D01*
X144023214Y-82029707D01*
X144023211Y-82029711D01*
X143935609Y-82160814D01*
X143935603Y-82160825D01*
X143875263Y-82306501D01*
X143875263Y-82306503D01*
X143844500Y-82461155D01*
X143844500Y-82618844D01*
X143875263Y-82773496D01*
X143875263Y-82773498D01*
X143935603Y-82919174D01*
X143935609Y-82919186D01*
X144009987Y-83030498D01*
X144013727Y-83043758D01*
X144021827Y-83054907D01*
X144021827Y-83072477D01*
X144026596Y-83089386D01*
X144021827Y-83102313D01*
X144021827Y-83116093D01*
X144011499Y-83130307D01*
X144005419Y-83146790D01*
X143993962Y-83154444D01*
X143985863Y-83165593D01*
X143969152Y-83171022D01*
X143954545Y-83180783D01*
X143927672Y-83184500D01*
X143909766Y-83184500D01*
X143854764Y-83167815D01*
X143851299Y-83165500D01*
X143834753Y-83154444D01*
X143754186Y-83100609D01*
X143754174Y-83100603D01*
X143608497Y-83040263D01*
X143453844Y-83009500D01*
X143453842Y-83009500D01*
X143296158Y-83009500D01*
X143296155Y-83009500D01*
X143141503Y-83040263D01*
X143141501Y-83040263D01*
X142995825Y-83100603D01*
X142995814Y-83100609D01*
X142864711Y-83188211D01*
X142864707Y-83188214D01*
X142753214Y-83299707D01*
X142753211Y-83299711D01*
X142665609Y-83430814D01*
X142665603Y-83430825D01*
X142605263Y-83576501D01*
X142605263Y-83576503D01*
X142574500Y-83731155D01*
X133856256Y-83731155D01*
X133924394Y-83629179D01*
X133984737Y-83483497D01*
X134015500Y-83328842D01*
X134015500Y-83171158D01*
X133984737Y-83016503D01*
X133924394Y-82870821D01*
X133880413Y-82805000D01*
X133863805Y-82746114D01*
X133880413Y-82694999D01*
X133924394Y-82629179D01*
X133984737Y-82483497D01*
X134015500Y-82328842D01*
X134015500Y-82171158D01*
X133997619Y-82081264D01*
X134004811Y-82020504D01*
X134046343Y-81975574D01*
X134106353Y-81963637D01*
X134132602Y-81970487D01*
X134251503Y-82019737D01*
X134406158Y-82050500D01*
X134406159Y-82050500D01*
X134563841Y-82050500D01*
X134563842Y-82050500D01*
X134718497Y-82019737D01*
X134864179Y-81959394D01*
X134995289Y-81871789D01*
X135106789Y-81760289D01*
X135194394Y-81629179D01*
X135254737Y-81483497D01*
X135285500Y-81328842D01*
X135285500Y-81171158D01*
X135254737Y-81016503D01*
X135194394Y-80870821D01*
X135150413Y-80805000D01*
X135133805Y-80746114D01*
X135150413Y-80694999D01*
X135194394Y-80629179D01*
X135254737Y-80483497D01*
X135285500Y-80328842D01*
X135285500Y-80171158D01*
X135254737Y-80016503D01*
X135228729Y-79953714D01*
X135194396Y-79870825D01*
X135194390Y-79870814D01*
X135143695Y-79794945D01*
X135106789Y-79739711D01*
X134995289Y-79628211D01*
X134926109Y-79581986D01*
X134888438Y-79556815D01*
X134850559Y-79508765D01*
X134848157Y-79447627D01*
X134882150Y-79396753D01*
X134939554Y-79375576D01*
X134943440Y-79375500D01*
X135220234Y-79375500D01*
X135275236Y-79392185D01*
X135375813Y-79459390D01*
X135375825Y-79459396D01*
X135426204Y-79480263D01*
X135521503Y-79519737D01*
X135676158Y-79550500D01*
X135676159Y-79550500D01*
X135833841Y-79550500D01*
X135833842Y-79550500D01*
X135988497Y-79519737D01*
X136134179Y-79459394D01*
X136265289Y-79371789D01*
X136376789Y-79260289D01*
X136464394Y-79129179D01*
X136524737Y-78983497D01*
X136555500Y-78828842D01*
X136555500Y-78671158D01*
X136524737Y-78516503D01*
X136464394Y-78370821D01*
X136420413Y-78305000D01*
X136403805Y-78246114D01*
X136420413Y-78194999D01*
X136464394Y-78129179D01*
X136524737Y-77983497D01*
X136555500Y-77828842D01*
X136555500Y-77671158D01*
X136537619Y-77581264D01*
X136544811Y-77520504D01*
X136586343Y-77475574D01*
X136646353Y-77463637D01*
X136672602Y-77470487D01*
X136791503Y-77519737D01*
X136946158Y-77550500D01*
X136946159Y-77550500D01*
X137103841Y-77550500D01*
X137103842Y-77550500D01*
X137258497Y-77519737D01*
X137404179Y-77459394D01*
X137535289Y-77371789D01*
X137646789Y-77260289D01*
X137734394Y-77129179D01*
X137794737Y-76983497D01*
X137825500Y-76828842D01*
X137825500Y-76671158D01*
X137794737Y-76516503D01*
X137734394Y-76370821D01*
X137690413Y-76305000D01*
X137673805Y-76246114D01*
X137690413Y-76194999D01*
X137734394Y-76129179D01*
X137794737Y-75983497D01*
X137825500Y-75828842D01*
X137825500Y-75671158D01*
X137794737Y-75516503D01*
X137759026Y-75430288D01*
X137734396Y-75370825D01*
X137734390Y-75370814D01*
X137663113Y-75264142D01*
X137646789Y-75239711D01*
X137535289Y-75128211D01*
X137444501Y-75067548D01*
X137404185Y-75040609D01*
X137404174Y-75040603D01*
X137258497Y-74980263D01*
X137103844Y-74949500D01*
X137103842Y-74949500D01*
X136946158Y-74949500D01*
X136946155Y-74949500D01*
X136791503Y-74980263D01*
X136791501Y-74980263D01*
X136645825Y-75040603D01*
X136645813Y-75040609D01*
X136545236Y-75107815D01*
X136490234Y-75124500D01*
X124625891Y-75124500D01*
X124505049Y-75148536D01*
X124391214Y-75195688D01*
X124288767Y-75264142D01*
X124288763Y-75264145D01*
X124201645Y-75351263D01*
X124201642Y-75351267D01*
X124133188Y-75453714D01*
X124086036Y-75567549D01*
X124062000Y-75688391D01*
X124062000Y-75811608D01*
X124086036Y-75932450D01*
X124098324Y-75962116D01*
X124103123Y-76023113D01*
X124098324Y-76037884D01*
X124086036Y-76067549D01*
X124062000Y-76188391D01*
X124062000Y-76311608D01*
X124086036Y-76432450D01*
X124098324Y-76462116D01*
X124103123Y-76523113D01*
X124098324Y-76537884D01*
X124086036Y-76567549D01*
X124062000Y-76688391D01*
X124062000Y-76811608D01*
X124086036Y-76932450D01*
X124098324Y-76962116D01*
X124103123Y-77023113D01*
X124098324Y-77037884D01*
X124086036Y-77067549D01*
X124062000Y-77188391D01*
X124062000Y-77311608D01*
X124086036Y-77432450D01*
X124098324Y-77462116D01*
X124103123Y-77523113D01*
X124098324Y-77537884D01*
X124086036Y-77567549D01*
X124062000Y-77688391D01*
X124062000Y-77811608D01*
X124086036Y-77932450D01*
X124098324Y-77962116D01*
X124103123Y-78023113D01*
X124098324Y-78037884D01*
X124086036Y-78067549D01*
X124062000Y-78188391D01*
X124062000Y-78311608D01*
X124086036Y-78432450D01*
X124098324Y-78462116D01*
X124103123Y-78523113D01*
X124098324Y-78537884D01*
X124086036Y-78567549D01*
X124062000Y-78688391D01*
X124062000Y-78811608D01*
X124086036Y-78932450D01*
X124098324Y-78962116D01*
X124103123Y-79023113D01*
X124098324Y-79037884D01*
X124086036Y-79067549D01*
X124062000Y-79188391D01*
X124062000Y-79311608D01*
X124086036Y-79432450D01*
X124133188Y-79546285D01*
X124139742Y-79556093D01*
X124201642Y-79648733D01*
X124201645Y-79648736D01*
X124232905Y-79679996D01*
X124237029Y-79688090D01*
X124244258Y-79693590D01*
X124250632Y-79714789D01*
X124260682Y-79734513D01*
X124259261Y-79743484D01*
X124261877Y-79752184D01*
X124255530Y-79767040D01*
X124251111Y-79794945D01*
X124241690Y-79809944D01*
X124237634Y-79815274D01*
X124201642Y-79851267D01*
X124139538Y-79944211D01*
X124137690Y-79946641D01*
X124114919Y-79962429D01*
X124095665Y-79977606D01*
X124095995Y-79978402D01*
X124093175Y-79979570D01*
X124093165Y-79979578D01*
X124093116Y-79979594D01*
X123945825Y-80040603D01*
X123945814Y-80040609D01*
X123814711Y-80128211D01*
X123814707Y-80128214D01*
X123703214Y-80239707D01*
X123703211Y-80239711D01*
X123615609Y-80370814D01*
X123615603Y-80370825D01*
X123555263Y-80516501D01*
X123555263Y-80516503D01*
X123524500Y-80671155D01*
X123524500Y-80828844D01*
X123555263Y-80983496D01*
X123555263Y-80983498D01*
X123615605Y-81129178D01*
X123659585Y-81194998D01*
X123676194Y-81253886D01*
X123659585Y-81305002D01*
X123615605Y-81370821D01*
X123555263Y-81516501D01*
X123555263Y-81516503D01*
X123524500Y-81671155D01*
X123524500Y-81828845D01*
X123542380Y-81918734D01*
X123535188Y-81979496D01*
X123493655Y-82024425D01*
X123433645Y-82036362D01*
X123407397Y-82029512D01*
X123288497Y-81980263D01*
X123133844Y-81949500D01*
X123133842Y-81949500D01*
X122976158Y-81949500D01*
X122976155Y-81949500D01*
X122821503Y-81980263D01*
X122821501Y-81980263D01*
X122675825Y-82040603D01*
X122675814Y-82040609D01*
X122544711Y-82128211D01*
X122544707Y-82128214D01*
X122433214Y-82239707D01*
X122433211Y-82239711D01*
X122345609Y-82370814D01*
X122345603Y-82370825D01*
X122285263Y-82516501D01*
X122285263Y-82516503D01*
X122254500Y-82671155D01*
X118656345Y-82671155D01*
X118684394Y-82629179D01*
X118744737Y-82483497D01*
X118775500Y-82328842D01*
X118775500Y-82171158D01*
X118757619Y-82081264D01*
X118764811Y-82020504D01*
X118806343Y-81975574D01*
X118866353Y-81963637D01*
X118892602Y-81970487D01*
X119011503Y-82019737D01*
X119166158Y-82050500D01*
X119166159Y-82050500D01*
X119323841Y-82050500D01*
X119323842Y-82050500D01*
X119478497Y-82019737D01*
X119624179Y-81959394D01*
X119755289Y-81871789D01*
X119866789Y-81760289D01*
X119954394Y-81629179D01*
X120014737Y-81483497D01*
X120045500Y-81328842D01*
X120045500Y-81171158D01*
X120014737Y-81016503D01*
X119954394Y-80870821D01*
X119910413Y-80805000D01*
X119893805Y-80746114D01*
X119910413Y-80694999D01*
X119954394Y-80629179D01*
X120014737Y-80483497D01*
X120045500Y-80328842D01*
X120045500Y-80171158D01*
X120014737Y-80016503D01*
X119988729Y-79953714D01*
X119954396Y-79870825D01*
X119954390Y-79870814D01*
X119903695Y-79794945D01*
X119866789Y-79739711D01*
X119755289Y-79628211D01*
X119686109Y-79581986D01*
X119648438Y-79556815D01*
X119610559Y-79508765D01*
X119608157Y-79447627D01*
X119642150Y-79396753D01*
X119699554Y-79375576D01*
X119703440Y-79375500D01*
X119980234Y-79375500D01*
X120035236Y-79392185D01*
X120135813Y-79459390D01*
X120135825Y-79459396D01*
X120186204Y-79480263D01*
X120281503Y-79519737D01*
X120436158Y-79550500D01*
X120436159Y-79550500D01*
X120593841Y-79550500D01*
X120593842Y-79550500D01*
X120748497Y-79519737D01*
X120894179Y-79459394D01*
X121025289Y-79371789D01*
X121136789Y-79260289D01*
X121224394Y-79129179D01*
X121284737Y-78983497D01*
X121315500Y-78828842D01*
X121315500Y-78671158D01*
X121284737Y-78516503D01*
X121224394Y-78370821D01*
X121180413Y-78305000D01*
X121163805Y-78246114D01*
X121180413Y-78194999D01*
X121224394Y-78129179D01*
X121284737Y-77983497D01*
X121315500Y-77828842D01*
X121315500Y-77671158D01*
X121297619Y-77581264D01*
X121304811Y-77520504D01*
X121346343Y-77475574D01*
X121406353Y-77463637D01*
X121432602Y-77470487D01*
X121551503Y-77519737D01*
X121706158Y-77550500D01*
X121706159Y-77550500D01*
X121863841Y-77550500D01*
X121863842Y-77550500D01*
X122018497Y-77519737D01*
X122164179Y-77459394D01*
X122295289Y-77371789D01*
X122406789Y-77260289D01*
X122494394Y-77129179D01*
X122554737Y-76983497D01*
X122585500Y-76828842D01*
X122585500Y-76671158D01*
X122554737Y-76516503D01*
X122494394Y-76370821D01*
X122450413Y-76305000D01*
X122433805Y-76246114D01*
X122450413Y-76194999D01*
X122494394Y-76129179D01*
X122554737Y-75983497D01*
X122585500Y-75828842D01*
X122585500Y-75671158D01*
X122554737Y-75516503D01*
X122519026Y-75430288D01*
X122494396Y-75370825D01*
X122494390Y-75370814D01*
X122423113Y-75264142D01*
X122406789Y-75239711D01*
X122295289Y-75128211D01*
X122204501Y-75067548D01*
X122164185Y-75040609D01*
X122164174Y-75040603D01*
X122018497Y-74980263D01*
X121863844Y-74949500D01*
X121863842Y-74949500D01*
X121706158Y-74949500D01*
X121706155Y-74949500D01*
X121551503Y-74980263D01*
X121551501Y-74980263D01*
X121405825Y-75040603D01*
X121405813Y-75040609D01*
X121305236Y-75107815D01*
X121250234Y-75124500D01*
X106003703Y-75124500D01*
X105978124Y-75116189D01*
X105951977Y-75109912D01*
X105949354Y-75106841D01*
X105945512Y-75105593D01*
X105912240Y-75063387D01*
X105901677Y-75037887D01*
X105896875Y-74976891D01*
X105901673Y-74962120D01*
X105913963Y-74932452D01*
X105938000Y-74811606D01*
X105938000Y-74688394D01*
X105913963Y-74567548D01*
X105901675Y-74537884D01*
X105896875Y-74476890D01*
X105901675Y-74462116D01*
X105913963Y-74432452D01*
X105938000Y-74311606D01*
X105938000Y-74188394D01*
X105913963Y-74067548D01*
X105866811Y-73953714D01*
X105798358Y-73851267D01*
X105711233Y-73764142D01*
X105608786Y-73695689D01*
X105608787Y-73695689D01*
X105608785Y-73695688D01*
X105494950Y-73648536D01*
X105374108Y-73624500D01*
X105374106Y-73624500D01*
X103269766Y-73624500D01*
X103214764Y-73607815D01*
X103114186Y-73540609D01*
X103114174Y-73540603D01*
X102968497Y-73480263D01*
X102813844Y-73449500D01*
X102813842Y-73449500D01*
X102656158Y-73449500D01*
X102656155Y-73449500D01*
X102501503Y-73480263D01*
X102501501Y-73480263D01*
X102355825Y-73540603D01*
X102355813Y-73540609D01*
X102255236Y-73607815D01*
X102200234Y-73624500D01*
X101999766Y-73624500D01*
X101944764Y-73607815D01*
X101844186Y-73540609D01*
X101844174Y-73540603D01*
X101698497Y-73480263D01*
X101543844Y-73449500D01*
X101543842Y-73449500D01*
X101386158Y-73449500D01*
X101386155Y-73449500D01*
X101231503Y-73480263D01*
X101231501Y-73480263D01*
X101085825Y-73540603D01*
X101085813Y-73540609D01*
X100985236Y-73607815D01*
X100930234Y-73624500D01*
X89625891Y-73624500D01*
X89505049Y-73648536D01*
X89391214Y-73695688D01*
X89288767Y-73764142D01*
X89288763Y-73764145D01*
X89201645Y-73851263D01*
X89201642Y-73851267D01*
X89133188Y-73953714D01*
X89086036Y-74067549D01*
X89062000Y-74188391D01*
X50975000Y-74188391D01*
X50975000Y-73100891D01*
X150564500Y-73100891D01*
X150564500Y-73224108D01*
X150588536Y-73344950D01*
X150635688Y-73458785D01*
X150635689Y-73458786D01*
X150704142Y-73561233D01*
X150791267Y-73648358D01*
X150893714Y-73716811D01*
X151007548Y-73763963D01*
X151128394Y-73788000D01*
X152398394Y-73788000D01*
X155735234Y-73788000D01*
X155790236Y-73804685D01*
X155890813Y-73871890D01*
X155890825Y-73871896D01*
X155944638Y-73894185D01*
X156036503Y-73932237D01*
X156191158Y-73963000D01*
X156191159Y-73963000D01*
X156348841Y-73963000D01*
X156348842Y-73963000D01*
X156503497Y-73932237D01*
X156649179Y-73871894D01*
X156649181Y-73871892D01*
X156649186Y-73871890D01*
X156749764Y-73804685D01*
X156804766Y-73788000D01*
X158080234Y-73788000D01*
X158135236Y-73804685D01*
X158235813Y-73871890D01*
X158235825Y-73871896D01*
X158289638Y-73894185D01*
X158381503Y-73932237D01*
X158536158Y-73963000D01*
X158536159Y-73963000D01*
X158693841Y-73963000D01*
X158693842Y-73963000D01*
X158848497Y-73932237D01*
X158994179Y-73871894D01*
X158994181Y-73871892D01*
X158994186Y-73871890D01*
X159094764Y-73804685D01*
X159149766Y-73788000D01*
X160620234Y-73788000D01*
X160675236Y-73804685D01*
X160775813Y-73871890D01*
X160775825Y-73871896D01*
X160829638Y-73894185D01*
X160921503Y-73932237D01*
X160976671Y-73943210D01*
X160981403Y-73944152D01*
X161034787Y-73974049D01*
X161060403Y-74029614D01*
X161048466Y-74089624D01*
X161003536Y-74131156D01*
X160981403Y-74138348D01*
X160921503Y-74150263D01*
X160921501Y-74150263D01*
X160775825Y-74210603D01*
X160775813Y-74210609D01*
X160675236Y-74277815D01*
X160620234Y-74294500D01*
X160500891Y-74294500D01*
X160380049Y-74318536D01*
X160266214Y-74365688D01*
X160163767Y-74434142D01*
X160163763Y-74434145D01*
X160076645Y-74521263D01*
X160076642Y-74521267D01*
X160008188Y-74623714D01*
X159961036Y-74737549D01*
X159937000Y-74858391D01*
X159937000Y-74981608D01*
X159961036Y-75102450D01*
X160008188Y-75216284D01*
X160021027Y-75235499D01*
X160037635Y-75294387D01*
X160016457Y-75351791D01*
X159965583Y-75385783D01*
X159938711Y-75389500D01*
X159806155Y-75389500D01*
X159651503Y-75420263D01*
X159651501Y-75420263D01*
X159505825Y-75480603D01*
X159505814Y-75480609D01*
X159374711Y-75568211D01*
X159374707Y-75568214D01*
X159263214Y-75679707D01*
X159263211Y-75679711D01*
X159175609Y-75810814D01*
X159175603Y-75810825D01*
X159115263Y-75956501D01*
X159115263Y-75956503D01*
X159084500Y-76111155D01*
X159084500Y-76268844D01*
X159115263Y-76423496D01*
X159115263Y-76423498D01*
X159175603Y-76569174D01*
X159175609Y-76569186D01*
X159249987Y-76680498D01*
X159266596Y-76739386D01*
X159245419Y-76796790D01*
X159194545Y-76830783D01*
X159167672Y-76834500D01*
X154069766Y-76834500D01*
X154014764Y-76817815D01*
X154011299Y-76815500D01*
X154005472Y-76811606D01*
X153914186Y-76750609D01*
X153914174Y-76750603D01*
X153768497Y-76690263D01*
X153613844Y-76659500D01*
X153613842Y-76659500D01*
X153456158Y-76659500D01*
X153456155Y-76659500D01*
X153301503Y-76690263D01*
X153301501Y-76690263D01*
X153155825Y-76750603D01*
X153155814Y-76750609D01*
X153024711Y-76838211D01*
X153024707Y-76838214D01*
X152913214Y-76949707D01*
X152913211Y-76949711D01*
X152825609Y-77080814D01*
X152825603Y-77080825D01*
X152765263Y-77226501D01*
X152765263Y-77226503D01*
X152734500Y-77381155D01*
X152734500Y-77538844D01*
X152755008Y-77641945D01*
X152764247Y-77688391D01*
X152765263Y-77693496D01*
X152765263Y-77693498D01*
X152825603Y-77839174D01*
X152825609Y-77839185D01*
X152847759Y-77872334D01*
X152913211Y-77970289D01*
X153024711Y-78081789D01*
X153094674Y-78128537D01*
X153155814Y-78169390D01*
X153155825Y-78169396D01*
X153174944Y-78177315D01*
X153301503Y-78229737D01*
X153456158Y-78260500D01*
X153456159Y-78260500D01*
X153613841Y-78260500D01*
X153613842Y-78260500D01*
X153768497Y-78229737D01*
X153914179Y-78169394D01*
X153914181Y-78169392D01*
X153914186Y-78169390D01*
X154005746Y-78108211D01*
X154014764Y-78102184D01*
X154069766Y-78085500D01*
X154087672Y-78085500D01*
X154145863Y-78104407D01*
X154181827Y-78153907D01*
X154181827Y-78215093D01*
X154169987Y-78239502D01*
X154095609Y-78350813D01*
X154095603Y-78350825D01*
X154035263Y-78496501D01*
X154035263Y-78496503D01*
X154004500Y-78651155D01*
X154004500Y-78808844D01*
X154035263Y-78963496D01*
X154035263Y-78963498D01*
X154095603Y-79109174D01*
X154095609Y-79109185D01*
X154148312Y-79188059D01*
X154183211Y-79240289D01*
X154294711Y-79351789D01*
X154364414Y-79398363D01*
X154425814Y-79439390D01*
X154425825Y-79439396D01*
X154444944Y-79447315D01*
X154571503Y-79499737D01*
X154726158Y-79530500D01*
X154726159Y-79530500D01*
X154883841Y-79530500D01*
X154883842Y-79530500D01*
X155038497Y-79499737D01*
X155184179Y-79439394D01*
X155184181Y-79439392D01*
X155184186Y-79439390D01*
X155279803Y-79375500D01*
X155284764Y-79372184D01*
X155339766Y-79355500D01*
X156627672Y-79355500D01*
X156685863Y-79374407D01*
X156721827Y-79423907D01*
X156721827Y-79485093D01*
X156709987Y-79509502D01*
X156635609Y-79620813D01*
X156635603Y-79620825D01*
X156575263Y-79766501D01*
X156575263Y-79766503D01*
X156544500Y-79921155D01*
X156544500Y-80078844D01*
X156575263Y-80233496D01*
X156575263Y-80233498D01*
X156635603Y-80379174D01*
X156635609Y-80379185D01*
X156671202Y-80432452D01*
X156723211Y-80510289D01*
X156834711Y-80621789D01*
X156904674Y-80668537D01*
X156965814Y-80709390D01*
X156965825Y-80709396D01*
X156984944Y-80717315D01*
X157111503Y-80769737D01*
X157266158Y-80800500D01*
X157266159Y-80800500D01*
X157423841Y-80800500D01*
X157423842Y-80800500D01*
X157578497Y-80769737D01*
X157724179Y-80709394D01*
X157724181Y-80709392D01*
X157724186Y-80709390D01*
X157815746Y-80648211D01*
X157824764Y-80642184D01*
X157879766Y-80625500D01*
X160624104Y-80625500D01*
X160624106Y-80625500D01*
X160744952Y-80601463D01*
X160858786Y-80554311D01*
X160961233Y-80485858D01*
X161048358Y-80398733D01*
X161116811Y-80296286D01*
X161163963Y-80182452D01*
X161188000Y-80061606D01*
X161188000Y-79938394D01*
X161163963Y-79817548D01*
X161116811Y-79703714D01*
X161048358Y-79601267D01*
X160961233Y-79514142D01*
X160861218Y-79447314D01*
X160823340Y-79399265D01*
X160820938Y-79338127D01*
X160854931Y-79287253D01*
X160861219Y-79282685D01*
X160961233Y-79215858D01*
X161048358Y-79128733D01*
X161116811Y-79026286D01*
X161163963Y-78912452D01*
X161188000Y-78791606D01*
X161188000Y-78668394D01*
X161163963Y-78547548D01*
X161116811Y-78433714D01*
X161048358Y-78331267D01*
X160961233Y-78244142D01*
X160861218Y-78177314D01*
X160823340Y-78129265D01*
X160820938Y-78068127D01*
X160854931Y-78017253D01*
X160861219Y-78012685D01*
X160961233Y-77945858D01*
X161048358Y-77858733D01*
X161116811Y-77756286D01*
X161163963Y-77642452D01*
X161188000Y-77521606D01*
X161188000Y-77398394D01*
X161163963Y-77277548D01*
X161116811Y-77163714D01*
X161048358Y-77061267D01*
X160961233Y-76974142D01*
X160861218Y-76907314D01*
X160823340Y-76859265D01*
X160820938Y-76798127D01*
X160854931Y-76747253D01*
X160861219Y-76742685D01*
X160961233Y-76675858D01*
X161048358Y-76588733D01*
X161116811Y-76486286D01*
X161163963Y-76372452D01*
X161188000Y-76251606D01*
X161188000Y-76128394D01*
X161163963Y-76007548D01*
X161116811Y-75893714D01*
X161103972Y-75874500D01*
X161087365Y-75815613D01*
X161108543Y-75758209D01*
X161159417Y-75724217D01*
X161186289Y-75720500D01*
X161233841Y-75720500D01*
X161233842Y-75720500D01*
X161388497Y-75689737D01*
X161534179Y-75629394D01*
X161665289Y-75541789D01*
X161776789Y-75430289D01*
X161864394Y-75299179D01*
X161924737Y-75153497D01*
X161955500Y-74998842D01*
X161955500Y-74841158D01*
X161924737Y-74686503D01*
X161898729Y-74623714D01*
X161864396Y-74540825D01*
X161864390Y-74540814D01*
X161829017Y-74487876D01*
X161776789Y-74409711D01*
X161665289Y-74298211D01*
X161613059Y-74263312D01*
X161534185Y-74210609D01*
X161534174Y-74210603D01*
X161388497Y-74150263D01*
X161328595Y-74138347D01*
X161275212Y-74108451D01*
X161249596Y-74052886D01*
X161261533Y-73992876D01*
X161306463Y-73951344D01*
X161328594Y-73944152D01*
X161388497Y-73932237D01*
X161534179Y-73871894D01*
X161665289Y-73784289D01*
X161776789Y-73672789D01*
X161864394Y-73541679D01*
X161924737Y-73395997D01*
X161955500Y-73241342D01*
X161955500Y-73083658D01*
X161924737Y-72929003D01*
X161864394Y-72783321D01*
X161864393Y-72783319D01*
X161864390Y-72783314D01*
X161793113Y-72676642D01*
X161776789Y-72652211D01*
X161665289Y-72540711D01*
X161613059Y-72505812D01*
X161534185Y-72453109D01*
X161534174Y-72453103D01*
X161388497Y-72392763D01*
X161233844Y-72362000D01*
X161233842Y-72362000D01*
X161076158Y-72362000D01*
X161076155Y-72362000D01*
X160921503Y-72392763D01*
X160921501Y-72392763D01*
X160775825Y-72453103D01*
X160775813Y-72453109D01*
X160675236Y-72520315D01*
X160620234Y-72537000D01*
X159149766Y-72537000D01*
X159094764Y-72520315D01*
X158994186Y-72453109D01*
X158994174Y-72453103D01*
X158848497Y-72392763D01*
X158693844Y-72362000D01*
X158693842Y-72362000D01*
X158536158Y-72362000D01*
X158536155Y-72362000D01*
X158381503Y-72392763D01*
X158381501Y-72392763D01*
X158235825Y-72453103D01*
X158235813Y-72453109D01*
X158135236Y-72520315D01*
X158080234Y-72537000D01*
X156804766Y-72537000D01*
X156749764Y-72520315D01*
X156649186Y-72453109D01*
X156649174Y-72453103D01*
X156503497Y-72392763D01*
X156348844Y-72362000D01*
X156348842Y-72362000D01*
X156191158Y-72362000D01*
X156191155Y-72362000D01*
X156036503Y-72392763D01*
X156036501Y-72392763D01*
X155890825Y-72453103D01*
X155890813Y-72453109D01*
X155790236Y-72520315D01*
X155735234Y-72537000D01*
X151128391Y-72537000D01*
X151007549Y-72561036D01*
X150893714Y-72608188D01*
X150791267Y-72676642D01*
X150791263Y-72676645D01*
X150704145Y-72763763D01*
X150704142Y-72763767D01*
X150635688Y-72866214D01*
X150588536Y-72980049D01*
X150564500Y-73100891D01*
X50975000Y-73100891D01*
X50975000Y-59047824D01*
X89134999Y-59047824D01*
X89141401Y-59107370D01*
X89141403Y-59107381D01*
X89191646Y-59242088D01*
X89191647Y-59242090D01*
X89277807Y-59357184D01*
X89277815Y-59357192D01*
X89392909Y-59443352D01*
X89392911Y-59443353D01*
X89527618Y-59493596D01*
X89527629Y-59493598D01*
X89587176Y-59500000D01*
X89784999Y-59500000D01*
X89785000Y-59499999D01*
X89785000Y-56250001D01*
X90285000Y-56250001D01*
X90285000Y-59499999D01*
X90285001Y-59500000D01*
X90482824Y-59500000D01*
X90542370Y-59493598D01*
X90542377Y-59493596D01*
X90635403Y-59458900D01*
X90696532Y-59456280D01*
X90704597Y-59458900D01*
X90797622Y-59493596D01*
X90797629Y-59493598D01*
X90857176Y-59500000D01*
X91054999Y-59500000D01*
X91055000Y-59499999D01*
X91055000Y-56250001D01*
X91054999Y-56250000D01*
X90285001Y-56250000D01*
X90285000Y-56250001D01*
X89785000Y-56250001D01*
X89784999Y-56250000D01*
X89135001Y-56250000D01*
X89135000Y-56250001D01*
X89135000Y-59047824D01*
X89134999Y-59047824D01*
X50975000Y-59047824D01*
X50975000Y-52952175D01*
X89135000Y-52952175D01*
X89135000Y-55749999D01*
X89135001Y-55750000D01*
X89784999Y-55750000D01*
X89785000Y-55749999D01*
X89785000Y-52500001D01*
X90285000Y-52500001D01*
X90285000Y-55749999D01*
X90285001Y-55750000D01*
X91054999Y-55750000D01*
X91055000Y-55749999D01*
X91055000Y-52500001D01*
X91555000Y-52500001D01*
X91555000Y-59499999D01*
X91555001Y-59500000D01*
X91752824Y-59500000D01*
X91812374Y-59493598D01*
X91904687Y-59459166D01*
X91965816Y-59456545D01*
X91973852Y-59459156D01*
X92067517Y-59494091D01*
X92127127Y-59500500D01*
X93022872Y-59500499D01*
X93082483Y-59494091D01*
X93175405Y-59459432D01*
X93236532Y-59456813D01*
X93244578Y-59459426D01*
X93337517Y-59494091D01*
X93397127Y-59500500D01*
X94292872Y-59500499D01*
X94352483Y-59494091D01*
X94445405Y-59459432D01*
X94506532Y-59456813D01*
X94514578Y-59459426D01*
X94607517Y-59494091D01*
X94667127Y-59500500D01*
X95562872Y-59500499D01*
X95622483Y-59494091D01*
X95715405Y-59459432D01*
X95776532Y-59456813D01*
X95784578Y-59459426D01*
X95877517Y-59494091D01*
X95937127Y-59500500D01*
X96832872Y-59500499D01*
X96892483Y-59494091D01*
X96985405Y-59459432D01*
X97046532Y-59456813D01*
X97054578Y-59459426D01*
X97147517Y-59494091D01*
X97207127Y-59500500D01*
X98102872Y-59500499D01*
X98162483Y-59494091D01*
X98255405Y-59459432D01*
X98316532Y-59456813D01*
X98324578Y-59459426D01*
X98417517Y-59494091D01*
X98477127Y-59500500D01*
X99372872Y-59500499D01*
X99432483Y-59494091D01*
X99525405Y-59459432D01*
X99586532Y-59456813D01*
X99594578Y-59459426D01*
X99687517Y-59494091D01*
X99747127Y-59500500D01*
X100642872Y-59500499D01*
X100702483Y-59494091D01*
X100795405Y-59459432D01*
X100856532Y-59456813D01*
X100864578Y-59459426D01*
X100957517Y-59494091D01*
X101017127Y-59500500D01*
X101912872Y-59500499D01*
X101972483Y-59494091D01*
X102065405Y-59459432D01*
X102126532Y-59456813D01*
X102134578Y-59459426D01*
X102227517Y-59494091D01*
X102287127Y-59500500D01*
X103182872Y-59500499D01*
X103242483Y-59494091D01*
X103335405Y-59459432D01*
X103396532Y-59456813D01*
X103404578Y-59459426D01*
X103497517Y-59494091D01*
X103557127Y-59500500D01*
X104452872Y-59500499D01*
X104512483Y-59494091D01*
X104605405Y-59459432D01*
X104666532Y-59456813D01*
X104674578Y-59459426D01*
X104767517Y-59494091D01*
X104827127Y-59500500D01*
X105722872Y-59500499D01*
X105782483Y-59494091D01*
X105875405Y-59459432D01*
X105936532Y-59456813D01*
X105944578Y-59459426D01*
X106037517Y-59494091D01*
X106097127Y-59500500D01*
X106992872Y-59500499D01*
X107052483Y-59494091D01*
X107145405Y-59459432D01*
X107206532Y-59456813D01*
X107214578Y-59459426D01*
X107307517Y-59494091D01*
X107367127Y-59500500D01*
X108262872Y-59500499D01*
X108322483Y-59494091D01*
X108415405Y-59459432D01*
X108476532Y-59456813D01*
X108484578Y-59459426D01*
X108577517Y-59494091D01*
X108637127Y-59500500D01*
X109532872Y-59500499D01*
X109592483Y-59494091D01*
X109686122Y-59459165D01*
X109747246Y-59456545D01*
X109755311Y-59459166D01*
X109847622Y-59493596D01*
X109847629Y-59493598D01*
X109907176Y-59500000D01*
X110104999Y-59500000D01*
X110105000Y-59499999D01*
X110105000Y-56250001D01*
X110605000Y-56250001D01*
X110605000Y-59499999D01*
X110605001Y-59500000D01*
X110802824Y-59500000D01*
X110862370Y-59493598D01*
X110862377Y-59493596D01*
X110955403Y-59458900D01*
X111016532Y-59456280D01*
X111024597Y-59458900D01*
X111117622Y-59493596D01*
X111117629Y-59493598D01*
X111177176Y-59500000D01*
X111374999Y-59500000D01*
X111375000Y-59499999D01*
X111375000Y-56250001D01*
X111374999Y-56250000D01*
X110605001Y-56250000D01*
X110605000Y-56250001D01*
X110105000Y-56250001D01*
X110105000Y-52500001D01*
X110605000Y-52500001D01*
X110605000Y-55749999D01*
X110605001Y-55750000D01*
X111374999Y-55750000D01*
X111375000Y-55749999D01*
X111375000Y-52500001D01*
X111875000Y-52500001D01*
X111875000Y-59499999D01*
X111875001Y-59500000D01*
X112072824Y-59500000D01*
X112132374Y-59493598D01*
X112224687Y-59459166D01*
X112285816Y-59456545D01*
X112293852Y-59459156D01*
X112387517Y-59494091D01*
X112447127Y-59500500D01*
X113342872Y-59500499D01*
X113402483Y-59494091D01*
X113495405Y-59459432D01*
X113556532Y-59456813D01*
X113564578Y-59459426D01*
X113657517Y-59494091D01*
X113717127Y-59500500D01*
X114612872Y-59500499D01*
X114672483Y-59494091D01*
X114765405Y-59459432D01*
X114826532Y-59456813D01*
X114834578Y-59459426D01*
X114927517Y-59494091D01*
X114987127Y-59500500D01*
X115882872Y-59500499D01*
X115942483Y-59494091D01*
X116035405Y-59459432D01*
X116096532Y-59456813D01*
X116104578Y-59459426D01*
X116197517Y-59494091D01*
X116257127Y-59500500D01*
X117152872Y-59500499D01*
X117212483Y-59494091D01*
X117305405Y-59459432D01*
X117366532Y-59456813D01*
X117374578Y-59459426D01*
X117467517Y-59494091D01*
X117527127Y-59500500D01*
X118422872Y-59500499D01*
X118482483Y-59494091D01*
X118575405Y-59459432D01*
X118636532Y-59456813D01*
X118644578Y-59459426D01*
X118737517Y-59494091D01*
X118797127Y-59500500D01*
X119692872Y-59500499D01*
X119752483Y-59494091D01*
X119845405Y-59459432D01*
X119906532Y-59456813D01*
X119914578Y-59459426D01*
X120007517Y-59494091D01*
X120067127Y-59500500D01*
X120962872Y-59500499D01*
X121022483Y-59494091D01*
X121115405Y-59459432D01*
X121176532Y-59456813D01*
X121184578Y-59459426D01*
X121277517Y-59494091D01*
X121337127Y-59500500D01*
X122232872Y-59500499D01*
X122292483Y-59494091D01*
X122385405Y-59459432D01*
X122446532Y-59456813D01*
X122454578Y-59459426D01*
X122547517Y-59494091D01*
X122607127Y-59500500D01*
X123502872Y-59500499D01*
X123562483Y-59494091D01*
X123655405Y-59459432D01*
X123716532Y-59456813D01*
X123724578Y-59459426D01*
X123817517Y-59494091D01*
X123877127Y-59500500D01*
X124772872Y-59500499D01*
X124832483Y-59494091D01*
X124925405Y-59459432D01*
X124986532Y-59456813D01*
X124994578Y-59459426D01*
X125087517Y-59494091D01*
X125147127Y-59500500D01*
X126042872Y-59500499D01*
X126102483Y-59494091D01*
X126195405Y-59459432D01*
X126256532Y-59456813D01*
X126264578Y-59459426D01*
X126357517Y-59494091D01*
X126417127Y-59500500D01*
X127312872Y-59500499D01*
X127372483Y-59494091D01*
X127465405Y-59459432D01*
X127526532Y-59456813D01*
X127534578Y-59459426D01*
X127627517Y-59494091D01*
X127687127Y-59500500D01*
X128582872Y-59500499D01*
X128642483Y-59494091D01*
X128735405Y-59459432D01*
X128796532Y-59456813D01*
X128804578Y-59459426D01*
X128897517Y-59494091D01*
X128957127Y-59500500D01*
X129852872Y-59500499D01*
X129912483Y-59494091D01*
X130005405Y-59459432D01*
X130066532Y-59456813D01*
X130074578Y-59459426D01*
X130167517Y-59494091D01*
X130227127Y-59500500D01*
X131122872Y-59500499D01*
X131182483Y-59494091D01*
X131275405Y-59459432D01*
X131336532Y-59456813D01*
X131344578Y-59459426D01*
X131437517Y-59494091D01*
X131497127Y-59500500D01*
X132392872Y-59500499D01*
X132452483Y-59494091D01*
X132545405Y-59459432D01*
X132606532Y-59456813D01*
X132614578Y-59459426D01*
X132707517Y-59494091D01*
X132767127Y-59500500D01*
X133662872Y-59500499D01*
X133722483Y-59494091D01*
X133815405Y-59459432D01*
X133876532Y-59456813D01*
X133884578Y-59459426D01*
X133977517Y-59494091D01*
X134037127Y-59500500D01*
X134932872Y-59500499D01*
X134992483Y-59494091D01*
X135085405Y-59459432D01*
X135146532Y-59456813D01*
X135154578Y-59459426D01*
X135247517Y-59494091D01*
X135307127Y-59500500D01*
X136202872Y-59500499D01*
X136262483Y-59494091D01*
X136355405Y-59459432D01*
X136416532Y-59456813D01*
X136424578Y-59459426D01*
X136517517Y-59494091D01*
X136577127Y-59500500D01*
X137472872Y-59500499D01*
X137532483Y-59494091D01*
X137626122Y-59459165D01*
X137687246Y-59456545D01*
X137695311Y-59459166D01*
X137787622Y-59493596D01*
X137787629Y-59493598D01*
X137847176Y-59500000D01*
X138044999Y-59500000D01*
X138045000Y-59499999D01*
X138045000Y-56250001D01*
X138545000Y-56250001D01*
X138545000Y-59499999D01*
X138545001Y-59500000D01*
X138742824Y-59500000D01*
X138802370Y-59493598D01*
X138802377Y-59493596D01*
X138895403Y-59458900D01*
X138956532Y-59456280D01*
X138964597Y-59458900D01*
X139057622Y-59493596D01*
X139057629Y-59493598D01*
X139117176Y-59500000D01*
X139314999Y-59500000D01*
X139315000Y-59499999D01*
X139315000Y-56250001D01*
X139815000Y-56250001D01*
X139815000Y-59499999D01*
X139815001Y-59500000D01*
X140012824Y-59500000D01*
X140072370Y-59493598D01*
X140072377Y-59493596D01*
X140165403Y-59458900D01*
X140226532Y-59456280D01*
X140234597Y-59458900D01*
X140327622Y-59493596D01*
X140327629Y-59493598D01*
X140387176Y-59500000D01*
X140584999Y-59500000D01*
X140585000Y-59499999D01*
X140585000Y-56250001D01*
X141085000Y-56250001D01*
X141085000Y-59499999D01*
X141085001Y-59500000D01*
X141282824Y-59500000D01*
X141342370Y-59493598D01*
X141342377Y-59493596D01*
X141435403Y-59458900D01*
X141496532Y-59456280D01*
X141504597Y-59458900D01*
X141597622Y-59493596D01*
X141597629Y-59493598D01*
X141657176Y-59500000D01*
X141854999Y-59500000D01*
X141855000Y-59499999D01*
X141855000Y-56250001D01*
X141854999Y-56250000D01*
X141085001Y-56250000D01*
X141085000Y-56250001D01*
X140585000Y-56250001D01*
X140584999Y-56250000D01*
X139815001Y-56250000D01*
X139815000Y-56250001D01*
X139315000Y-56250001D01*
X139314999Y-56250000D01*
X138545001Y-56250000D01*
X138545000Y-56250001D01*
X138045000Y-56250001D01*
X138045000Y-52500001D01*
X138545000Y-52500001D01*
X138545000Y-55749999D01*
X138545001Y-55750000D01*
X139314999Y-55750000D01*
X139315000Y-55749999D01*
X139315000Y-52500001D01*
X139815000Y-52500001D01*
X139815000Y-55749999D01*
X139815001Y-55750000D01*
X140584999Y-55750000D01*
X140585000Y-55749999D01*
X140585000Y-52500001D01*
X141085000Y-52500001D01*
X141085000Y-55749999D01*
X141085001Y-55750000D01*
X141854999Y-55750000D01*
X141855000Y-55749999D01*
X141855000Y-52500001D01*
X142355000Y-52500001D01*
X142355000Y-59499999D01*
X142355001Y-59500000D01*
X142552824Y-59500000D01*
X142612374Y-59493598D01*
X142704687Y-59459166D01*
X142765816Y-59456545D01*
X142773852Y-59459156D01*
X142867517Y-59494091D01*
X142927127Y-59500500D01*
X143822872Y-59500499D01*
X143882483Y-59494091D01*
X143975405Y-59459432D01*
X144036532Y-59456813D01*
X144044578Y-59459426D01*
X144137517Y-59494091D01*
X144197127Y-59500500D01*
X145092872Y-59500499D01*
X145152483Y-59494091D01*
X145245405Y-59459432D01*
X145306532Y-59456813D01*
X145314578Y-59459426D01*
X145407517Y-59494091D01*
X145467127Y-59500500D01*
X146362872Y-59500499D01*
X146422483Y-59494091D01*
X146515405Y-59459432D01*
X146576532Y-59456813D01*
X146584578Y-59459426D01*
X146677517Y-59494091D01*
X146737127Y-59500500D01*
X147632872Y-59500499D01*
X147692483Y-59494091D01*
X147785405Y-59459432D01*
X147846532Y-59456813D01*
X147854578Y-59459426D01*
X147947517Y-59494091D01*
X148007127Y-59500500D01*
X148902872Y-59500499D01*
X148962483Y-59494091D01*
X149055405Y-59459432D01*
X149116532Y-59456813D01*
X149124578Y-59459426D01*
X149217517Y-59494091D01*
X149277127Y-59500500D01*
X150172872Y-59500499D01*
X150232483Y-59494091D01*
X150325405Y-59459432D01*
X150386532Y-59456813D01*
X150394578Y-59459426D01*
X150487517Y-59494091D01*
X150547127Y-59500500D01*
X151442872Y-59500499D01*
X151502483Y-59494091D01*
X151595405Y-59459432D01*
X151656532Y-59456813D01*
X151664578Y-59459426D01*
X151757517Y-59494091D01*
X151817127Y-59500500D01*
X152712872Y-59500499D01*
X152772483Y-59494091D01*
X152865405Y-59459432D01*
X152926532Y-59456813D01*
X152934578Y-59459426D01*
X153027517Y-59494091D01*
X153087127Y-59500500D01*
X153982872Y-59500499D01*
X154042483Y-59494091D01*
X154135405Y-59459432D01*
X154196532Y-59456813D01*
X154204578Y-59459426D01*
X154297517Y-59494091D01*
X154357127Y-59500500D01*
X155252872Y-59500499D01*
X155312483Y-59494091D01*
X155405405Y-59459432D01*
X155466532Y-59456813D01*
X155474578Y-59459426D01*
X155567517Y-59494091D01*
X155627127Y-59500500D01*
X156522872Y-59500499D01*
X156582483Y-59494091D01*
X156675405Y-59459432D01*
X156736532Y-59456813D01*
X156744578Y-59459426D01*
X156837517Y-59494091D01*
X156897127Y-59500500D01*
X157792872Y-59500499D01*
X157852483Y-59494091D01*
X157945405Y-59459432D01*
X158006532Y-59456813D01*
X158014578Y-59459426D01*
X158107517Y-59494091D01*
X158167127Y-59500500D01*
X159062872Y-59500499D01*
X159122483Y-59494091D01*
X159215405Y-59459432D01*
X159276532Y-59456813D01*
X159284578Y-59459426D01*
X159377517Y-59494091D01*
X159437127Y-59500500D01*
X160332872Y-59500499D01*
X160392483Y-59494091D01*
X160485405Y-59459432D01*
X160546532Y-59456813D01*
X160554578Y-59459426D01*
X160647517Y-59494091D01*
X160707127Y-59500500D01*
X161602872Y-59500499D01*
X161662483Y-59494091D01*
X161756122Y-59459165D01*
X161817246Y-59456545D01*
X161825311Y-59459166D01*
X161917622Y-59493596D01*
X161917629Y-59493598D01*
X161977176Y-59500000D01*
X162174999Y-59500000D01*
X162175000Y-59499999D01*
X162175000Y-56250001D01*
X162675000Y-56250001D01*
X162675000Y-59499999D01*
X162675001Y-59500000D01*
X162872824Y-59500000D01*
X162932370Y-59493598D01*
X162932377Y-59493596D01*
X163025403Y-59458900D01*
X163086532Y-59456280D01*
X163094597Y-59458900D01*
X163187622Y-59493596D01*
X163187629Y-59493598D01*
X163247176Y-59500000D01*
X163444999Y-59500000D01*
X163445000Y-59499999D01*
X163445000Y-56250001D01*
X163945000Y-56250001D01*
X163945000Y-59499999D01*
X163945001Y-59500000D01*
X164142824Y-59500000D01*
X164202370Y-59493598D01*
X164202377Y-59493596D01*
X164295403Y-59458900D01*
X164356532Y-59456280D01*
X164364597Y-59458900D01*
X164457622Y-59493596D01*
X164457629Y-59493598D01*
X164517176Y-59500000D01*
X164714999Y-59500000D01*
X164715000Y-59499999D01*
X164715000Y-56250001D01*
X165215000Y-56250001D01*
X165215000Y-59499999D01*
X165215001Y-59500000D01*
X165412824Y-59500000D01*
X165472370Y-59493598D01*
X165472381Y-59493596D01*
X165607088Y-59443353D01*
X165607090Y-59443352D01*
X165722184Y-59357192D01*
X165722192Y-59357184D01*
X165808352Y-59242090D01*
X165808353Y-59242088D01*
X165858596Y-59107381D01*
X165858598Y-59107370D01*
X165865000Y-59047824D01*
X165865000Y-56250001D01*
X165864999Y-56250000D01*
X165215001Y-56250000D01*
X165215000Y-56250001D01*
X164715000Y-56250001D01*
X164714999Y-56250000D01*
X163945001Y-56250000D01*
X163945000Y-56250001D01*
X163445000Y-56250001D01*
X163444999Y-56250000D01*
X162675001Y-56250000D01*
X162675000Y-56250001D01*
X162175000Y-56250001D01*
X162175000Y-52500001D01*
X162675000Y-52500001D01*
X162675000Y-55749999D01*
X162675001Y-55750000D01*
X163444999Y-55750000D01*
X163445000Y-55749999D01*
X163445000Y-52500001D01*
X163945000Y-52500001D01*
X163945000Y-55749999D01*
X163945001Y-55750000D01*
X164714999Y-55750000D01*
X164715000Y-55749999D01*
X164715000Y-52500001D01*
X165215000Y-52500001D01*
X165215000Y-55749999D01*
X165215001Y-55750000D01*
X165864999Y-55750000D01*
X165865000Y-55749999D01*
X165865000Y-52952175D01*
X165858598Y-52892629D01*
X165858596Y-52892618D01*
X165808353Y-52757911D01*
X165808352Y-52757909D01*
X165722192Y-52642815D01*
X165722184Y-52642807D01*
X165607090Y-52556647D01*
X165607088Y-52556646D01*
X165472381Y-52506403D01*
X165472370Y-52506401D01*
X165412824Y-52500000D01*
X165215001Y-52500000D01*
X165215000Y-52500001D01*
X164715000Y-52500001D01*
X164714999Y-52500000D01*
X164517176Y-52500000D01*
X164457629Y-52506401D01*
X164457625Y-52506402D01*
X164364596Y-52541099D01*
X164303466Y-52543718D01*
X164295404Y-52541099D01*
X164202374Y-52506402D01*
X164202370Y-52506401D01*
X164142824Y-52500000D01*
X163945001Y-52500000D01*
X163945000Y-52500001D01*
X163445000Y-52500001D01*
X163444999Y-52500000D01*
X163247176Y-52500000D01*
X163187629Y-52506401D01*
X163187625Y-52506402D01*
X163094596Y-52541099D01*
X163033466Y-52543718D01*
X163025404Y-52541099D01*
X162932374Y-52506402D01*
X162932370Y-52506401D01*
X162872824Y-52500000D01*
X162675001Y-52500000D01*
X162675000Y-52500001D01*
X162175000Y-52500001D01*
X162174999Y-52500000D01*
X161977176Y-52500000D01*
X161917629Y-52506401D01*
X161917618Y-52506403D01*
X161825310Y-52540832D01*
X161764181Y-52543452D01*
X161756118Y-52540832D01*
X161662488Y-52505910D01*
X161662483Y-52505909D01*
X161662481Y-52505908D01*
X161662477Y-52505908D01*
X161631249Y-52502550D01*
X161602873Y-52499500D01*
X161602870Y-52499500D01*
X160707133Y-52499500D01*
X160707129Y-52499500D01*
X160707128Y-52499501D01*
X160702477Y-52500001D01*
X160647514Y-52505909D01*
X160554595Y-52540565D01*
X160493465Y-52543185D01*
X160485403Y-52540565D01*
X160392488Y-52505910D01*
X160392483Y-52505909D01*
X160392481Y-52505908D01*
X160392477Y-52505908D01*
X160361249Y-52502550D01*
X160332873Y-52499500D01*
X160332870Y-52499500D01*
X159437133Y-52499500D01*
X159437129Y-52499500D01*
X159437128Y-52499501D01*
X159432477Y-52500001D01*
X159377514Y-52505909D01*
X159284595Y-52540565D01*
X159223465Y-52543185D01*
X159215403Y-52540565D01*
X159122488Y-52505910D01*
X159122483Y-52505909D01*
X159122481Y-52505908D01*
X159122477Y-52505908D01*
X159091249Y-52502550D01*
X159062873Y-52499500D01*
X159062870Y-52499500D01*
X158167133Y-52499500D01*
X158167129Y-52499500D01*
X158167128Y-52499501D01*
X158162477Y-52500001D01*
X158107514Y-52505909D01*
X158014595Y-52540565D01*
X157953465Y-52543185D01*
X157945403Y-52540565D01*
X157852488Y-52505910D01*
X157852483Y-52505909D01*
X157852481Y-52505908D01*
X157852477Y-52505908D01*
X157821249Y-52502550D01*
X157792873Y-52499500D01*
X157792870Y-52499500D01*
X156897133Y-52499500D01*
X156897129Y-52499500D01*
X156897128Y-52499501D01*
X156892477Y-52500001D01*
X156837514Y-52505909D01*
X156744595Y-52540565D01*
X156683465Y-52543185D01*
X156675403Y-52540565D01*
X156582488Y-52505910D01*
X156582483Y-52505909D01*
X156582481Y-52505908D01*
X156582477Y-52505908D01*
X156551249Y-52502550D01*
X156522873Y-52499500D01*
X156522870Y-52499500D01*
X155627133Y-52499500D01*
X155627129Y-52499500D01*
X155627128Y-52499501D01*
X155622477Y-52500001D01*
X155567514Y-52505909D01*
X155474595Y-52540565D01*
X155413465Y-52543185D01*
X155405403Y-52540565D01*
X155312488Y-52505910D01*
X155312483Y-52505909D01*
X155312481Y-52505908D01*
X155312477Y-52505908D01*
X155281249Y-52502550D01*
X155252873Y-52499500D01*
X155252870Y-52499500D01*
X154357133Y-52499500D01*
X154357129Y-52499500D01*
X154357128Y-52499501D01*
X154352477Y-52500001D01*
X154297514Y-52505909D01*
X154204595Y-52540565D01*
X154143465Y-52543185D01*
X154135403Y-52540565D01*
X154042488Y-52505910D01*
X154042483Y-52505909D01*
X154042481Y-52505908D01*
X154042477Y-52505908D01*
X154011249Y-52502550D01*
X153982873Y-52499500D01*
X153982870Y-52499500D01*
X153087133Y-52499500D01*
X153087129Y-52499500D01*
X153087128Y-52499501D01*
X153082477Y-52500001D01*
X153027514Y-52505909D01*
X152934595Y-52540565D01*
X152873465Y-52543185D01*
X152865403Y-52540565D01*
X152772488Y-52505910D01*
X152772483Y-52505909D01*
X152772481Y-52505908D01*
X152772477Y-52505908D01*
X152741249Y-52502550D01*
X152712873Y-52499500D01*
X152712870Y-52499500D01*
X151817133Y-52499500D01*
X151817129Y-52499500D01*
X151817128Y-52499501D01*
X151812477Y-52500001D01*
X151757514Y-52505909D01*
X151664595Y-52540565D01*
X151603465Y-52543185D01*
X151595403Y-52540565D01*
X151502488Y-52505910D01*
X151502483Y-52505909D01*
X151502481Y-52505908D01*
X151502477Y-52505908D01*
X151471249Y-52502550D01*
X151442873Y-52499500D01*
X151442870Y-52499500D01*
X150547133Y-52499500D01*
X150547129Y-52499500D01*
X150547128Y-52499501D01*
X150542477Y-52500001D01*
X150487514Y-52505909D01*
X150394595Y-52540565D01*
X150333465Y-52543185D01*
X150325403Y-52540565D01*
X150232488Y-52505910D01*
X150232483Y-52505909D01*
X150232481Y-52505908D01*
X150232477Y-52505908D01*
X150201249Y-52502550D01*
X150172873Y-52499500D01*
X150172870Y-52499500D01*
X149277133Y-52499500D01*
X149277129Y-52499500D01*
X149277128Y-52499501D01*
X149272477Y-52500001D01*
X149217514Y-52505909D01*
X149124595Y-52540565D01*
X149063465Y-52543185D01*
X149055403Y-52540565D01*
X148962488Y-52505910D01*
X148962483Y-52505909D01*
X148962481Y-52505908D01*
X148962477Y-52505908D01*
X148931249Y-52502550D01*
X148902873Y-52499500D01*
X148902870Y-52499500D01*
X148007133Y-52499500D01*
X148007129Y-52499500D01*
X148007128Y-52499501D01*
X148002477Y-52500001D01*
X147947514Y-52505909D01*
X147854595Y-52540565D01*
X147793465Y-52543185D01*
X147785403Y-52540565D01*
X147692488Y-52505910D01*
X147692483Y-52505909D01*
X147692481Y-52505908D01*
X147692477Y-52505908D01*
X147661249Y-52502550D01*
X147632873Y-52499500D01*
X147632870Y-52499500D01*
X146737133Y-52499500D01*
X146737129Y-52499500D01*
X146737128Y-52499501D01*
X146732477Y-52500001D01*
X146677514Y-52505909D01*
X146584595Y-52540565D01*
X146523465Y-52543185D01*
X146515403Y-52540565D01*
X146422488Y-52505910D01*
X146422483Y-52505909D01*
X146422481Y-52505908D01*
X146422477Y-52505908D01*
X146391249Y-52502550D01*
X146362873Y-52499500D01*
X146362870Y-52499500D01*
X145467133Y-52499500D01*
X145467129Y-52499500D01*
X145467128Y-52499501D01*
X145462477Y-52500001D01*
X145407514Y-52505909D01*
X145314595Y-52540565D01*
X145253465Y-52543185D01*
X145245403Y-52540565D01*
X145152488Y-52505910D01*
X145152483Y-52505909D01*
X145152481Y-52505908D01*
X145152477Y-52505908D01*
X145121249Y-52502550D01*
X145092873Y-52499500D01*
X145092870Y-52499500D01*
X144197133Y-52499500D01*
X144197129Y-52499500D01*
X144197128Y-52499501D01*
X144192477Y-52500001D01*
X144137514Y-52505909D01*
X144044595Y-52540565D01*
X143983465Y-52543185D01*
X143975403Y-52540565D01*
X143882488Y-52505910D01*
X143882483Y-52505909D01*
X143882481Y-52505908D01*
X143882477Y-52505908D01*
X143851249Y-52502550D01*
X143822873Y-52499500D01*
X143822870Y-52499500D01*
X142927133Y-52499500D01*
X142927129Y-52499500D01*
X142927128Y-52499501D01*
X142897322Y-52502705D01*
X142867516Y-52505909D01*
X142867512Y-52505909D01*
X142773882Y-52540832D01*
X142712752Y-52543452D01*
X142704689Y-52540832D01*
X142612381Y-52506403D01*
X142612370Y-52506401D01*
X142552824Y-52500000D01*
X142355001Y-52500000D01*
X142355000Y-52500001D01*
X141855000Y-52500001D01*
X141854999Y-52500000D01*
X141657176Y-52500000D01*
X141597629Y-52506401D01*
X141597625Y-52506402D01*
X141504596Y-52541099D01*
X141443466Y-52543718D01*
X141435404Y-52541099D01*
X141342374Y-52506402D01*
X141342370Y-52506401D01*
X141282824Y-52500000D01*
X141085001Y-52500000D01*
X141085000Y-52500001D01*
X140585000Y-52500001D01*
X140584999Y-52500000D01*
X140387176Y-52500000D01*
X140327629Y-52506401D01*
X140327625Y-52506402D01*
X140234596Y-52541099D01*
X140173466Y-52543718D01*
X140165404Y-52541099D01*
X140072374Y-52506402D01*
X140072370Y-52506401D01*
X140012824Y-52500000D01*
X139815001Y-52500000D01*
X139815000Y-52500001D01*
X139315000Y-52500001D01*
X139314999Y-52500000D01*
X139117176Y-52500000D01*
X139057629Y-52506401D01*
X139057625Y-52506402D01*
X138964596Y-52541099D01*
X138903466Y-52543718D01*
X138895404Y-52541099D01*
X138802374Y-52506402D01*
X138802370Y-52506401D01*
X138742824Y-52500000D01*
X138545001Y-52500000D01*
X138545000Y-52500001D01*
X138045000Y-52500001D01*
X138044999Y-52500000D01*
X137847176Y-52500000D01*
X137787629Y-52506401D01*
X137787618Y-52506403D01*
X137695310Y-52540832D01*
X137634181Y-52543452D01*
X137626118Y-52540832D01*
X137532488Y-52505910D01*
X137532483Y-52505909D01*
X137532481Y-52505908D01*
X137532477Y-52505908D01*
X137501249Y-52502550D01*
X137472873Y-52499500D01*
X137472870Y-52499500D01*
X136577133Y-52499500D01*
X136577129Y-52499500D01*
X136577128Y-52499501D01*
X136572477Y-52500001D01*
X136517514Y-52505909D01*
X136424595Y-52540565D01*
X136363465Y-52543185D01*
X136355403Y-52540565D01*
X136262488Y-52505910D01*
X136262483Y-52505909D01*
X136262481Y-52505908D01*
X136262477Y-52505908D01*
X136231249Y-52502550D01*
X136202873Y-52499500D01*
X136202870Y-52499500D01*
X135307133Y-52499500D01*
X135307129Y-52499500D01*
X135307128Y-52499501D01*
X135302477Y-52500001D01*
X135247514Y-52505909D01*
X135154595Y-52540565D01*
X135093465Y-52543185D01*
X135085403Y-52540565D01*
X134992488Y-52505910D01*
X134992483Y-52505909D01*
X134992481Y-52505908D01*
X134992477Y-52505908D01*
X134961249Y-52502550D01*
X134932873Y-52499500D01*
X134932870Y-52499500D01*
X134037133Y-52499500D01*
X134037129Y-52499500D01*
X134037128Y-52499501D01*
X134032477Y-52500001D01*
X133977514Y-52505909D01*
X133884595Y-52540565D01*
X133823465Y-52543185D01*
X133815403Y-52540565D01*
X133722488Y-52505910D01*
X133722483Y-52505909D01*
X133722481Y-52505908D01*
X133722477Y-52505908D01*
X133691249Y-52502550D01*
X133662873Y-52499500D01*
X133662870Y-52499500D01*
X132767133Y-52499500D01*
X132767129Y-52499500D01*
X132767128Y-52499501D01*
X132762477Y-52500001D01*
X132707514Y-52505909D01*
X132614595Y-52540565D01*
X132553465Y-52543185D01*
X132545403Y-52540565D01*
X132452488Y-52505910D01*
X132452483Y-52505909D01*
X132452481Y-52505908D01*
X132452477Y-52505908D01*
X132421249Y-52502550D01*
X132392873Y-52499500D01*
X132392870Y-52499500D01*
X131497133Y-52499500D01*
X131497129Y-52499500D01*
X131497128Y-52499501D01*
X131492477Y-52500001D01*
X131437514Y-52505909D01*
X131344595Y-52540565D01*
X131283465Y-52543185D01*
X131275403Y-52540565D01*
X131182488Y-52505910D01*
X131182483Y-52505909D01*
X131182481Y-52505908D01*
X131182477Y-52505908D01*
X131151249Y-52502550D01*
X131122873Y-52499500D01*
X131122870Y-52499500D01*
X130227133Y-52499500D01*
X130227129Y-52499500D01*
X130227128Y-52499501D01*
X130222477Y-52500001D01*
X130167514Y-52505909D01*
X130074595Y-52540565D01*
X130013465Y-52543185D01*
X130005403Y-52540565D01*
X129912488Y-52505910D01*
X129912483Y-52505909D01*
X129912481Y-52505908D01*
X129912477Y-52505908D01*
X129881249Y-52502550D01*
X129852873Y-52499500D01*
X129852870Y-52499500D01*
X128957133Y-52499500D01*
X128957129Y-52499500D01*
X128957128Y-52499501D01*
X128952477Y-52500001D01*
X128897514Y-52505909D01*
X128804595Y-52540565D01*
X128743465Y-52543185D01*
X128735403Y-52540565D01*
X128642488Y-52505910D01*
X128642483Y-52505909D01*
X128642481Y-52505908D01*
X128642477Y-52505908D01*
X128611249Y-52502550D01*
X128582873Y-52499500D01*
X128582870Y-52499500D01*
X127687133Y-52499500D01*
X127687129Y-52499500D01*
X127687128Y-52499501D01*
X127682477Y-52500001D01*
X127627514Y-52505909D01*
X127534595Y-52540565D01*
X127473465Y-52543185D01*
X127465403Y-52540565D01*
X127372488Y-52505910D01*
X127372483Y-52505909D01*
X127372481Y-52505908D01*
X127372477Y-52505908D01*
X127341249Y-52502550D01*
X127312873Y-52499500D01*
X127312870Y-52499500D01*
X126417133Y-52499500D01*
X126417129Y-52499500D01*
X126417128Y-52499501D01*
X126412477Y-52500001D01*
X126357514Y-52505909D01*
X126264595Y-52540565D01*
X126203465Y-52543185D01*
X126195403Y-52540565D01*
X126102488Y-52505910D01*
X126102483Y-52505909D01*
X126102481Y-52505908D01*
X126102477Y-52505908D01*
X126071249Y-52502550D01*
X126042873Y-52499500D01*
X126042870Y-52499500D01*
X125147133Y-52499500D01*
X125147129Y-52499500D01*
X125147128Y-52499501D01*
X125142477Y-52500001D01*
X125087514Y-52505909D01*
X124994595Y-52540565D01*
X124933465Y-52543185D01*
X124925403Y-52540565D01*
X124832488Y-52505910D01*
X124832483Y-52505909D01*
X124832481Y-52505908D01*
X124832477Y-52505908D01*
X124801249Y-52502550D01*
X124772873Y-52499500D01*
X124772870Y-52499500D01*
X123877133Y-52499500D01*
X123877129Y-52499500D01*
X123877128Y-52499501D01*
X123872477Y-52500001D01*
X123817514Y-52505909D01*
X123724595Y-52540565D01*
X123663465Y-52543185D01*
X123655403Y-52540565D01*
X123562488Y-52505910D01*
X123562483Y-52505909D01*
X123562481Y-52505908D01*
X123562477Y-52505908D01*
X123531249Y-52502550D01*
X123502873Y-52499500D01*
X123502870Y-52499500D01*
X122607133Y-52499500D01*
X122607129Y-52499500D01*
X122607128Y-52499501D01*
X122602477Y-52500001D01*
X122547514Y-52505909D01*
X122454595Y-52540565D01*
X122393465Y-52543185D01*
X122385403Y-52540565D01*
X122292488Y-52505910D01*
X122292483Y-52505909D01*
X122292481Y-52505908D01*
X122292477Y-52505908D01*
X122261249Y-52502550D01*
X122232873Y-52499500D01*
X122232870Y-52499500D01*
X121337133Y-52499500D01*
X121337129Y-52499500D01*
X121337128Y-52499501D01*
X121332477Y-52500001D01*
X121277514Y-52505909D01*
X121184595Y-52540565D01*
X121123465Y-52543185D01*
X121115403Y-52540565D01*
X121022488Y-52505910D01*
X121022483Y-52505909D01*
X121022481Y-52505908D01*
X121022477Y-52505908D01*
X120991249Y-52502550D01*
X120962873Y-52499500D01*
X120962870Y-52499500D01*
X120067133Y-52499500D01*
X120067129Y-52499500D01*
X120067128Y-52499501D01*
X120062477Y-52500001D01*
X120007514Y-52505909D01*
X119914595Y-52540565D01*
X119853465Y-52543185D01*
X119845403Y-52540565D01*
X119752488Y-52505910D01*
X119752483Y-52505909D01*
X119752481Y-52505908D01*
X119752477Y-52505908D01*
X119721249Y-52502550D01*
X119692873Y-52499500D01*
X119692870Y-52499500D01*
X118797133Y-52499500D01*
X118797129Y-52499500D01*
X118797128Y-52499501D01*
X118792477Y-52500001D01*
X118737514Y-52505909D01*
X118644595Y-52540565D01*
X118583465Y-52543185D01*
X118575403Y-52540565D01*
X118482488Y-52505910D01*
X118482483Y-52505909D01*
X118482481Y-52505908D01*
X118482477Y-52505908D01*
X118451249Y-52502550D01*
X118422873Y-52499500D01*
X118422870Y-52499500D01*
X117527133Y-52499500D01*
X117527129Y-52499500D01*
X117527128Y-52499501D01*
X117522477Y-52500001D01*
X117467514Y-52505909D01*
X117374595Y-52540565D01*
X117313465Y-52543185D01*
X117305403Y-52540565D01*
X117212488Y-52505910D01*
X117212483Y-52505909D01*
X117212481Y-52505908D01*
X117212477Y-52505908D01*
X117181249Y-52502550D01*
X117152873Y-52499500D01*
X117152870Y-52499500D01*
X116257133Y-52499500D01*
X116257129Y-52499500D01*
X116257128Y-52499501D01*
X116252477Y-52500001D01*
X116197514Y-52505909D01*
X116104595Y-52540565D01*
X116043465Y-52543185D01*
X116035403Y-52540565D01*
X115942488Y-52505910D01*
X115942483Y-52505909D01*
X115942481Y-52505908D01*
X115942477Y-52505908D01*
X115911249Y-52502550D01*
X115882873Y-52499500D01*
X115882870Y-52499500D01*
X114987133Y-52499500D01*
X114987129Y-52499500D01*
X114987128Y-52499501D01*
X114982477Y-52500001D01*
X114927514Y-52505909D01*
X114834595Y-52540565D01*
X114773465Y-52543185D01*
X114765403Y-52540565D01*
X114672488Y-52505910D01*
X114672483Y-52505909D01*
X114672481Y-52505908D01*
X114672477Y-52505908D01*
X114641249Y-52502550D01*
X114612873Y-52499500D01*
X114612870Y-52499500D01*
X113717133Y-52499500D01*
X113717129Y-52499500D01*
X113717128Y-52499501D01*
X113712477Y-52500001D01*
X113657514Y-52505909D01*
X113564595Y-52540565D01*
X113503465Y-52543185D01*
X113495403Y-52540565D01*
X113402488Y-52505910D01*
X113402483Y-52505909D01*
X113402481Y-52505908D01*
X113402477Y-52505908D01*
X113371249Y-52502550D01*
X113342873Y-52499500D01*
X113342870Y-52499500D01*
X112447133Y-52499500D01*
X112447129Y-52499500D01*
X112447128Y-52499501D01*
X112417322Y-52502705D01*
X112387516Y-52505909D01*
X112387512Y-52505909D01*
X112293882Y-52540832D01*
X112232752Y-52543452D01*
X112224689Y-52540832D01*
X112132381Y-52506403D01*
X112132370Y-52506401D01*
X112072824Y-52500000D01*
X111875001Y-52500000D01*
X111875000Y-52500001D01*
X111375000Y-52500001D01*
X111374999Y-52500000D01*
X111177176Y-52500000D01*
X111117629Y-52506401D01*
X111117625Y-52506402D01*
X111024596Y-52541099D01*
X110963466Y-52543718D01*
X110955404Y-52541099D01*
X110862374Y-52506402D01*
X110862370Y-52506401D01*
X110802824Y-52500000D01*
X110605001Y-52500000D01*
X110605000Y-52500001D01*
X110105000Y-52500001D01*
X110104999Y-52500000D01*
X109907176Y-52500000D01*
X109847629Y-52506401D01*
X109847618Y-52506403D01*
X109755310Y-52540832D01*
X109694181Y-52543452D01*
X109686118Y-52540832D01*
X109592488Y-52505910D01*
X109592483Y-52505909D01*
X109592481Y-52505908D01*
X109592477Y-52505908D01*
X109561249Y-52502550D01*
X109532873Y-52499500D01*
X109532870Y-52499500D01*
X108637133Y-52499500D01*
X108637129Y-52499500D01*
X108637128Y-52499501D01*
X108632477Y-52500001D01*
X108577514Y-52505909D01*
X108484595Y-52540565D01*
X108423465Y-52543185D01*
X108415403Y-52540565D01*
X108322488Y-52505910D01*
X108322483Y-52505909D01*
X108322481Y-52505908D01*
X108322477Y-52505908D01*
X108291249Y-52502550D01*
X108262873Y-52499500D01*
X108262870Y-52499500D01*
X107367133Y-52499500D01*
X107367129Y-52499500D01*
X107367128Y-52499501D01*
X107362477Y-52500001D01*
X107307514Y-52505909D01*
X107214595Y-52540565D01*
X107153465Y-52543185D01*
X107145403Y-52540565D01*
X107052488Y-52505910D01*
X107052483Y-52505909D01*
X107052481Y-52505908D01*
X107052477Y-52505908D01*
X107021249Y-52502550D01*
X106992873Y-52499500D01*
X106992870Y-52499500D01*
X106097133Y-52499500D01*
X106097129Y-52499500D01*
X106097128Y-52499501D01*
X106092477Y-52500001D01*
X106037514Y-52505909D01*
X105944595Y-52540565D01*
X105883465Y-52543185D01*
X105875403Y-52540565D01*
X105782488Y-52505910D01*
X105782483Y-52505909D01*
X105782481Y-52505908D01*
X105782477Y-52505908D01*
X105751249Y-52502550D01*
X105722873Y-52499500D01*
X105722870Y-52499500D01*
X104827133Y-52499500D01*
X104827129Y-52499500D01*
X104827128Y-52499501D01*
X104822477Y-52500001D01*
X104767514Y-52505909D01*
X104674595Y-52540565D01*
X104613465Y-52543185D01*
X104605403Y-52540565D01*
X104512488Y-52505910D01*
X104512483Y-52505909D01*
X104512481Y-52505908D01*
X104512477Y-52505908D01*
X104481249Y-52502550D01*
X104452873Y-52499500D01*
X104452870Y-52499500D01*
X103557133Y-52499500D01*
X103557129Y-52499500D01*
X103557128Y-52499501D01*
X103552477Y-52500001D01*
X103497514Y-52505909D01*
X103404595Y-52540565D01*
X103343465Y-52543185D01*
X103335403Y-52540565D01*
X103242488Y-52505910D01*
X103242483Y-52505909D01*
X103242481Y-52505908D01*
X103242477Y-52505908D01*
X103211249Y-52502550D01*
X103182873Y-52499500D01*
X103182870Y-52499500D01*
X102287133Y-52499500D01*
X102287129Y-52499500D01*
X102287128Y-52499501D01*
X102282477Y-52500001D01*
X102227514Y-52505909D01*
X102134595Y-52540565D01*
X102073465Y-52543185D01*
X102065403Y-52540565D01*
X101972488Y-52505910D01*
X101972483Y-52505909D01*
X101972481Y-52505908D01*
X101972477Y-52505908D01*
X101941249Y-52502550D01*
X101912873Y-52499500D01*
X101912870Y-52499500D01*
X101017133Y-52499500D01*
X101017129Y-52499500D01*
X101017128Y-52499501D01*
X101012477Y-52500001D01*
X100957514Y-52505909D01*
X100864595Y-52540565D01*
X100803465Y-52543185D01*
X100795403Y-52540565D01*
X100702488Y-52505910D01*
X100702483Y-52505909D01*
X100702481Y-52505908D01*
X100702477Y-52505908D01*
X100671249Y-52502550D01*
X100642873Y-52499500D01*
X100642870Y-52499500D01*
X99747133Y-52499500D01*
X99747129Y-52499500D01*
X99747128Y-52499501D01*
X99742477Y-52500001D01*
X99687514Y-52505909D01*
X99594595Y-52540565D01*
X99533465Y-52543185D01*
X99525403Y-52540565D01*
X99432488Y-52505910D01*
X99432483Y-52505909D01*
X99432481Y-52505908D01*
X99432477Y-52505908D01*
X99401249Y-52502550D01*
X99372873Y-52499500D01*
X99372870Y-52499500D01*
X98477133Y-52499500D01*
X98477129Y-52499500D01*
X98477128Y-52499501D01*
X98472477Y-52500001D01*
X98417514Y-52505909D01*
X98324595Y-52540565D01*
X98263465Y-52543185D01*
X98255403Y-52540565D01*
X98162488Y-52505910D01*
X98162483Y-52505909D01*
X98162481Y-52505908D01*
X98162477Y-52505908D01*
X98131249Y-52502550D01*
X98102873Y-52499500D01*
X98102870Y-52499500D01*
X97207133Y-52499500D01*
X97207129Y-52499500D01*
X97207128Y-52499501D01*
X97202477Y-52500001D01*
X97147514Y-52505909D01*
X97054595Y-52540565D01*
X96993465Y-52543185D01*
X96985403Y-52540565D01*
X96892488Y-52505910D01*
X96892483Y-52505909D01*
X96892481Y-52505908D01*
X96892477Y-52505908D01*
X96861249Y-52502550D01*
X96832873Y-52499500D01*
X96832870Y-52499500D01*
X95937133Y-52499500D01*
X95937129Y-52499500D01*
X95937128Y-52499501D01*
X95932477Y-52500001D01*
X95877514Y-52505909D01*
X95784595Y-52540565D01*
X95723465Y-52543185D01*
X95715403Y-52540565D01*
X95622488Y-52505910D01*
X95622483Y-52505909D01*
X95622481Y-52505908D01*
X95622477Y-52505908D01*
X95591249Y-52502550D01*
X95562873Y-52499500D01*
X95562870Y-52499500D01*
X94667133Y-52499500D01*
X94667129Y-52499500D01*
X94667128Y-52499501D01*
X94662477Y-52500001D01*
X94607514Y-52505909D01*
X94514595Y-52540565D01*
X94453465Y-52543185D01*
X94445403Y-52540565D01*
X94352488Y-52505910D01*
X94352483Y-52505909D01*
X94352481Y-52505908D01*
X94352477Y-52505908D01*
X94321249Y-52502550D01*
X94292873Y-52499500D01*
X94292870Y-52499500D01*
X93397133Y-52499500D01*
X93397129Y-52499500D01*
X93397128Y-52499501D01*
X93392477Y-52500001D01*
X93337514Y-52505909D01*
X93244595Y-52540565D01*
X93183465Y-52543185D01*
X93175403Y-52540565D01*
X93082488Y-52505910D01*
X93082483Y-52505909D01*
X93082481Y-52505908D01*
X93082477Y-52505908D01*
X93051249Y-52502550D01*
X93022873Y-52499500D01*
X93022870Y-52499500D01*
X92127133Y-52499500D01*
X92127129Y-52499500D01*
X92127128Y-52499501D01*
X92097322Y-52502705D01*
X92067516Y-52505909D01*
X92067512Y-52505909D01*
X91973882Y-52540832D01*
X91912752Y-52543452D01*
X91904689Y-52540832D01*
X91812381Y-52506403D01*
X91812370Y-52506401D01*
X91752824Y-52500000D01*
X91555001Y-52500000D01*
X91555000Y-52500001D01*
X91055000Y-52500001D01*
X91054999Y-52500000D01*
X90857176Y-52500000D01*
X90797629Y-52506401D01*
X90797625Y-52506402D01*
X90704596Y-52541099D01*
X90643466Y-52543718D01*
X90635404Y-52541099D01*
X90542374Y-52506402D01*
X90542370Y-52506401D01*
X90482824Y-52500000D01*
X90285001Y-52500000D01*
X90285000Y-52500001D01*
X89785000Y-52500001D01*
X89784999Y-52500000D01*
X89587176Y-52500000D01*
X89527629Y-52506401D01*
X89527618Y-52506403D01*
X89392911Y-52556646D01*
X89392909Y-52556647D01*
X89277815Y-52642807D01*
X89277807Y-52642815D01*
X89191647Y-52757909D01*
X89191646Y-52757911D01*
X89141403Y-52892618D01*
X89141401Y-52892629D01*
X89135000Y-52952175D01*
X50975000Y-52952175D01*
X50975000Y-51074000D01*
X50993907Y-51015809D01*
X51043407Y-50979845D01*
X51074000Y-50975000D01*
X203926000Y-50975000D01*
X203984191Y-50993907D01*
G37*
%TD.AperFunction*%
%TD*%
M02*
