M48
; DRILL file {KiCad 9.0.8+dfsg-1} date 2026-04-27T08:30:16+0200
; FORMAT={-:-/ absolute / metric / decimal}
; #@! TF.CreationDate,2026-04-27T08:30:16+02:00
; #@! TF.GenerationSoftware,Kicad,Pcbnew,9.0.8+dfsg-1
; #@! TF.FileFunction,MixedPlating,1,4
FMAT,2
METRIC
; #@! TA.AperFunction,Plated,PTH,ComponentDrill
T1C0.400
; #@! TA.AperFunction,Plated,PTH,ComponentDrill
T2C0.600
%
G90
G05
T1
X190.0Y-132.05
X190.0Y-132.9
X190.0Y-133.75
X190.0Y-134.6
X190.0Y-135.45
X190.0Y-136.3
X190.0Y-137.15
X190.0Y-138.0
X191.35Y-132.05
X191.35Y-132.9
X191.35Y-133.75
X191.35Y-134.6
X191.35Y-135.45
X191.35Y-136.3
X191.35Y-137.15
X191.35Y-138.0
T2
X190.98Y-129.95G85X190.98Y-131.45
G05
X190.98Y-138.6G85X190.98Y-140.1
G05
X194.36Y-130.3G85X194.36Y-131.1
G05
X194.36Y-138.95G85X194.36Y-139.75
G05
M30
