%TF.GenerationSoftware,KiCad,Pcbnew,9.0.8+dfsg-1*%
%TF.CreationDate,2026-04-27T08:30:16+02:00*%
%TF.ProjectId,neocart,6e656f63-6172-4742-9e6b-696361645f70,1.0*%
%TF.SameCoordinates,Original*%
%TF.FileFunction,Copper,L2,Inr*%
%TF.FilePolarity,Positive*%
%FSLAX46Y46*%
G04 Gerber Fmt 4.6, Leading zero omitted, Abs format (unit mm)*
G04 Created by KiCad (PCBNEW 9.0.8+dfsg-1) date 2026-04-27 08:30:16*
%MOMM*%
%LPD*%
G01*
G04 APERTURE LIST*
%TA.AperFunction,ComponentPad*%
%ADD10C,0.700000*%
%TD*%
%TA.AperFunction,ComponentPad*%
%ADD11O,0.900000X2.400000*%
%TD*%
%TA.AperFunction,ComponentPad*%
%ADD12O,0.900000X1.700000*%
%TD*%
G04 APERTURE END LIST*
D10*
%TO.N,N/C*%
%TO.C,J_USB*%
X190000000Y-138000000D03*
X190000000Y-137150000D03*
X190000000Y-136300000D03*
X190000000Y-135450000D03*
X190000000Y-134600000D03*
X190000000Y-133750000D03*
X190000000Y-132900000D03*
X190000000Y-132050000D03*
X191350000Y-132050000D03*
X191350000Y-132900000D03*
X191350000Y-133750000D03*
X191350000Y-134600000D03*
X191350000Y-135450000D03*
X191350000Y-136300000D03*
X191350000Y-137150000D03*
X191350000Y-138000000D03*
D11*
X190980000Y-139350000D03*
D12*
X194360000Y-139350000D03*
D11*
X190980000Y-130700000D03*
D12*
X194360000Y-130700000D03*
%TD*%
%TA.AperFunction,Conductor*%
%TO.N,GND*%
G36*
X203984191Y-50993907D02*
G01*
X204020155Y-51043407D01*
X204025000Y-51074000D01*
X204025000Y-153926000D01*
X204006093Y-153984191D01*
X203956593Y-154020155D01*
X203926000Y-154025000D01*
X51074000Y-154025000D01*
X51015809Y-154006093D01*
X50979845Y-153956593D01*
X50975000Y-153926000D01*
X50975000Y-141358655D01*
X91674500Y-141358655D01*
X91674500Y-141516344D01*
X91705263Y-141670996D01*
X91705263Y-141670998D01*
X91765603Y-141816674D01*
X91765609Y-141816685D01*
X91818312Y-141895559D01*
X91853211Y-141947789D01*
X91964711Y-142059289D01*
X92042876Y-142111517D01*
X92095814Y-142146890D01*
X92095825Y-142146896D01*
X92149638Y-142169185D01*
X92241503Y-142207237D01*
X92396158Y-142238000D01*
X92396159Y-142238000D01*
X92553841Y-142238000D01*
X92553842Y-142238000D01*
X92708497Y-142207237D01*
X92854179Y-142146894D01*
X92985289Y-142059289D01*
X93096789Y-141947789D01*
X93184394Y-141816679D01*
X93244737Y-141670997D01*
X93275500Y-141516342D01*
X93275500Y-141358658D01*
X93244737Y-141204003D01*
X93189123Y-141069737D01*
X93184396Y-141058325D01*
X93184390Y-141058314D01*
X93149017Y-141005376D01*
X93096789Y-140927211D01*
X92985289Y-140815711D01*
X92933059Y-140780812D01*
X92854185Y-140728109D01*
X92854174Y-140728103D01*
X92708497Y-140667763D01*
X92553844Y-140637000D01*
X92553842Y-140637000D01*
X92396158Y-140637000D01*
X92396155Y-140637000D01*
X92241503Y-140667763D01*
X92241501Y-140667763D01*
X92095825Y-140728103D01*
X92095814Y-140728109D01*
X91964711Y-140815711D01*
X91964707Y-140815714D01*
X91853214Y-140927207D01*
X91853211Y-140927211D01*
X91765609Y-141058314D01*
X91765603Y-141058325D01*
X91705263Y-141204001D01*
X91705263Y-141204003D01*
X91674500Y-141358655D01*
X50975000Y-141358655D01*
X50975000Y-140221155D01*
X136049500Y-140221155D01*
X136049500Y-140378844D01*
X136058043Y-140421789D01*
X136077808Y-140521157D01*
X136080263Y-140533496D01*
X136080263Y-140533498D01*
X136140603Y-140679174D01*
X136140609Y-140679185D01*
X136173296Y-140728103D01*
X136228211Y-140810289D01*
X136339711Y-140921789D01*
X136417876Y-140974017D01*
X136470814Y-141009390D01*
X136470825Y-141009396D01*
X136524638Y-141031685D01*
X136616503Y-141069737D01*
X136771158Y-141100500D01*
X136771159Y-141100500D01*
X136928841Y-141100500D01*
X136928842Y-141100500D01*
X137083497Y-141069737D01*
X137229179Y-141009394D01*
X137360289Y-140921789D01*
X137471789Y-140810289D01*
X137559394Y-140679179D01*
X137619737Y-140533497D01*
X137650500Y-140378842D01*
X137650500Y-140221158D01*
X137619737Y-140066503D01*
X137559394Y-139920821D01*
X137559393Y-139920819D01*
X137559390Y-139920814D01*
X137524017Y-139867876D01*
X137471789Y-139789711D01*
X137360289Y-139678211D01*
X137308059Y-139643312D01*
X137229185Y-139590609D01*
X137229174Y-139590603D01*
X137083497Y-139530263D01*
X136928844Y-139499500D01*
X136928842Y-139499500D01*
X136771158Y-139499500D01*
X136771155Y-139499500D01*
X136616503Y-139530263D01*
X136616501Y-139530263D01*
X136470825Y-139590603D01*
X136470814Y-139590609D01*
X136339711Y-139678211D01*
X136339707Y-139678214D01*
X136228214Y-139789707D01*
X136228211Y-139789711D01*
X136140609Y-139920814D01*
X136140603Y-139920825D01*
X136080263Y-140066501D01*
X136080263Y-140066503D01*
X136049500Y-140221155D01*
X50975000Y-140221155D01*
X50975000Y-135721155D01*
X71674500Y-135721155D01*
X71674500Y-135878846D01*
X71694757Y-135980687D01*
X71694757Y-136019313D01*
X71674500Y-136121153D01*
X71674500Y-136278846D01*
X71694757Y-136380687D01*
X71694757Y-136419313D01*
X71674500Y-136521153D01*
X71674500Y-136678844D01*
X71705263Y-136833496D01*
X71705263Y-136833498D01*
X71765603Y-136979174D01*
X71765609Y-136979185D01*
X71818312Y-137058059D01*
X71853211Y-137110289D01*
X71853214Y-137110292D01*
X71964713Y-137221791D01*
X71966760Y-137223471D01*
X71967412Y-137224490D01*
X71968150Y-137225228D01*
X71967988Y-137225389D01*
X71999748Y-137275002D01*
X71996147Y-137336081D01*
X71968084Y-137374706D01*
X71968150Y-137374772D01*
X71967735Y-137375186D01*
X71966760Y-137376529D01*
X71964713Y-137378208D01*
X71853214Y-137489707D01*
X71853211Y-137489711D01*
X71765609Y-137620814D01*
X71765603Y-137620825D01*
X71705263Y-137766501D01*
X71705263Y-137766503D01*
X71674500Y-137921155D01*
X71674500Y-138078844D01*
X71680236Y-138107678D01*
X71700927Y-138211701D01*
X71705263Y-138233496D01*
X71705263Y-138233498D01*
X71765603Y-138379174D01*
X71765609Y-138379185D01*
X71792424Y-138419315D01*
X71853211Y-138510289D01*
X71964711Y-138621789D01*
X72022829Y-138660622D01*
X72095814Y-138709390D01*
X72095825Y-138709396D01*
X72149638Y-138731685D01*
X72241503Y-138769737D01*
X72396158Y-138800500D01*
X72396159Y-138800500D01*
X72553841Y-138800500D01*
X72553842Y-138800500D01*
X72708497Y-138769737D01*
X72854179Y-138709394D01*
X72985289Y-138621789D01*
X73096789Y-138510289D01*
X73184394Y-138379179D01*
X73244737Y-138233497D01*
X73275500Y-138078842D01*
X73275500Y-137921158D01*
X73244737Y-137766503D01*
X73217191Y-137700000D01*
X73184396Y-137620825D01*
X73184390Y-137620814D01*
X73138335Y-137551889D01*
X73096789Y-137489711D01*
X72985289Y-137378211D01*
X72985283Y-137378207D01*
X72983251Y-137376540D01*
X72982597Y-137375519D01*
X72981850Y-137374772D01*
X72982013Y-137374608D01*
X72950254Y-137325014D01*
X72953845Y-137263934D01*
X72981917Y-137225295D01*
X72981850Y-137225228D01*
X72982275Y-137224802D01*
X72983251Y-137223460D01*
X72985276Y-137221797D01*
X72985289Y-137221789D01*
X73096789Y-137110289D01*
X73184394Y-136979179D01*
X73244737Y-136833497D01*
X73275500Y-136678842D01*
X73275500Y-136521158D01*
X73275499Y-136521155D01*
X111724500Y-136521155D01*
X111724500Y-136678844D01*
X111741937Y-136766503D01*
X111755263Y-136833497D01*
X111773865Y-136878407D01*
X111801289Y-136944615D01*
X111806088Y-137005612D01*
X111801289Y-137020385D01*
X111782298Y-137066234D01*
X111764051Y-137110288D01*
X111755262Y-137131506D01*
X111724500Y-137286155D01*
X111724500Y-137443846D01*
X111748238Y-137563187D01*
X111748238Y-137601813D01*
X111724500Y-137721153D01*
X111724500Y-137878844D01*
X111755263Y-138033496D01*
X111755263Y-138033498D01*
X111815603Y-138179174D01*
X111815609Y-138179185D01*
X111868312Y-138258059D01*
X111903211Y-138310289D01*
X112014711Y-138421789D01*
X112092876Y-138474017D01*
X112145814Y-138509390D01*
X112145825Y-138509396D01*
X112174222Y-138521158D01*
X112291503Y-138569737D01*
X112446158Y-138600500D01*
X112446159Y-138600500D01*
X112603841Y-138600500D01*
X112603842Y-138600500D01*
X112758497Y-138569737D01*
X112904179Y-138509394D01*
X113035289Y-138421789D01*
X113146789Y-138310289D01*
X113234394Y-138179179D01*
X113294737Y-138033497D01*
X113325500Y-137878842D01*
X113325500Y-137721158D01*
X113301760Y-137601809D01*
X113301760Y-137563190D01*
X113325500Y-137443842D01*
X113325500Y-137286158D01*
X113294737Y-137131503D01*
X113248709Y-137020382D01*
X113248083Y-137012421D01*
X113243909Y-137005610D01*
X113245728Y-136982499D01*
X113243909Y-136959389D01*
X113248705Y-136944627D01*
X113258428Y-136921155D01*
X116674500Y-136921155D01*
X116674500Y-137078846D01*
X116694757Y-137180687D01*
X116694757Y-137219313D01*
X116674500Y-137321153D01*
X116674500Y-137478844D01*
X116676661Y-137489707D01*
X116705262Y-137633494D01*
X116705263Y-137633496D01*
X116705263Y-137633498D01*
X116717117Y-137662117D01*
X116721916Y-137723114D01*
X116717117Y-137737883D01*
X116705263Y-137766501D01*
X116705263Y-137766503D01*
X116674500Y-137921155D01*
X116674500Y-138078844D01*
X116680236Y-138107678D01*
X116700927Y-138211701D01*
X116705263Y-138233496D01*
X116705263Y-138233498D01*
X116765603Y-138379174D01*
X116765609Y-138379185D01*
X116792424Y-138419315D01*
X116853211Y-138510289D01*
X116964711Y-138621789D01*
X117022829Y-138660622D01*
X117095814Y-138709390D01*
X117095825Y-138709396D01*
X117149638Y-138731685D01*
X117241503Y-138769737D01*
X117396158Y-138800500D01*
X117396159Y-138800500D01*
X117553841Y-138800500D01*
X117553842Y-138800500D01*
X117708497Y-138769737D01*
X117854179Y-138709394D01*
X117985289Y-138621789D01*
X118096789Y-138510289D01*
X118184394Y-138379179D01*
X118244737Y-138233497D01*
X118275500Y-138078842D01*
X118275500Y-137921158D01*
X118244737Y-137766503D01*
X118232882Y-137737885D01*
X118228082Y-137676890D01*
X118232882Y-137662117D01*
X118244737Y-137633497D01*
X118275500Y-137478842D01*
X118275500Y-137321158D01*
X118255241Y-137219309D01*
X118255241Y-137180690D01*
X118275500Y-137078842D01*
X118275500Y-136921158D01*
X118275499Y-136921155D01*
X143849500Y-136921155D01*
X143849500Y-137078846D01*
X143869757Y-137180687D01*
X143869757Y-137219313D01*
X143849500Y-137321153D01*
X143849500Y-137478846D01*
X143869757Y-137580687D01*
X143869757Y-137619313D01*
X143849500Y-137721153D01*
X143849500Y-137878846D01*
X143869757Y-137980687D01*
X143869757Y-138019313D01*
X143849500Y-138121153D01*
X143849500Y-138278846D01*
X143869757Y-138380687D01*
X143869757Y-138419313D01*
X143849500Y-138521153D01*
X143849500Y-138678846D01*
X143869757Y-138780687D01*
X143869757Y-138819313D01*
X143849500Y-138921153D01*
X143849500Y-139078846D01*
X143869757Y-139180687D01*
X143869757Y-139219313D01*
X143849500Y-139321153D01*
X143849500Y-139478846D01*
X143869757Y-139580687D01*
X143869757Y-139619313D01*
X143849500Y-139721153D01*
X143849500Y-139878844D01*
X143880263Y-140033496D01*
X143880263Y-140033498D01*
X143940603Y-140179174D01*
X143940609Y-140179185D01*
X143968656Y-140221159D01*
X144028211Y-140310289D01*
X144139711Y-140421789D01*
X144217876Y-140474017D01*
X144270814Y-140509390D01*
X144270825Y-140509396D01*
X144299222Y-140521158D01*
X144416503Y-140569737D01*
X144571158Y-140600500D01*
X144571159Y-140600500D01*
X144728841Y-140600500D01*
X144728842Y-140600500D01*
X144883497Y-140569737D01*
X145029179Y-140509394D01*
X145160289Y-140421789D01*
X145271789Y-140310289D01*
X145359394Y-140179179D01*
X145383428Y-140121155D01*
X159549500Y-140121155D01*
X159549500Y-140278846D01*
X159569757Y-140380687D01*
X159569757Y-140419313D01*
X159549500Y-140521153D01*
X159549500Y-140678844D01*
X159559299Y-140728106D01*
X159575646Y-140810288D01*
X159580263Y-140833496D01*
X159580263Y-140833498D01*
X159641303Y-140980865D01*
X159646103Y-141041862D01*
X159641303Y-141056635D01*
X159580263Y-141204001D01*
X159580263Y-141204003D01*
X159549500Y-141358655D01*
X159549500Y-141516344D01*
X159580263Y-141670996D01*
X159580263Y-141670998D01*
X159640603Y-141816674D01*
X159640609Y-141816685D01*
X159693312Y-141895559D01*
X159728211Y-141947789D01*
X159839711Y-142059289D01*
X159917876Y-142111517D01*
X159970814Y-142146890D01*
X159970825Y-142146896D01*
X160024638Y-142169185D01*
X160116503Y-142207237D01*
X160271158Y-142238000D01*
X160271159Y-142238000D01*
X160428841Y-142238000D01*
X160428842Y-142238000D01*
X160583497Y-142207237D01*
X160729179Y-142146894D01*
X160860289Y-142059289D01*
X160971789Y-141947789D01*
X161059394Y-141816679D01*
X161119737Y-141670997D01*
X161150500Y-141516342D01*
X161150500Y-141358658D01*
X161150499Y-141358655D01*
X168849500Y-141358655D01*
X168849500Y-141516344D01*
X168880263Y-141670996D01*
X168880263Y-141670998D01*
X168940603Y-141816674D01*
X168940609Y-141816685D01*
X168993312Y-141895559D01*
X169028211Y-141947789D01*
X169139711Y-142059289D01*
X169217876Y-142111517D01*
X169270814Y-142146890D01*
X169270825Y-142146896D01*
X169324638Y-142169185D01*
X169416503Y-142207237D01*
X169571158Y-142238000D01*
X169571159Y-142238000D01*
X169728841Y-142238000D01*
X169728842Y-142238000D01*
X169883497Y-142207237D01*
X170029179Y-142146894D01*
X170160289Y-142059289D01*
X170271789Y-141947789D01*
X170359394Y-141816679D01*
X170419737Y-141670997D01*
X170450500Y-141516342D01*
X170450500Y-141358658D01*
X170419737Y-141204003D01*
X170364123Y-141069737D01*
X170359396Y-141058325D01*
X170359390Y-141058314D01*
X170324017Y-141005376D01*
X170271789Y-140927211D01*
X170160289Y-140815711D01*
X170108059Y-140780812D01*
X170029185Y-140728109D01*
X170029174Y-140728103D01*
X169883497Y-140667763D01*
X169728844Y-140637000D01*
X169728842Y-140637000D01*
X169571158Y-140637000D01*
X169571155Y-140637000D01*
X169416503Y-140667763D01*
X169416501Y-140667763D01*
X169270825Y-140728103D01*
X169270814Y-140728109D01*
X169139711Y-140815711D01*
X169139707Y-140815714D01*
X169028214Y-140927207D01*
X169028211Y-140927211D01*
X168940609Y-141058314D01*
X168940603Y-141058325D01*
X168880263Y-141204001D01*
X168880263Y-141204003D01*
X168849500Y-141358655D01*
X161150499Y-141358655D01*
X161119737Y-141204003D01*
X161064123Y-141069737D01*
X161058696Y-141056635D01*
X161053895Y-140995638D01*
X161058696Y-140980865D01*
X161083167Y-140921785D01*
X161119737Y-140833497D01*
X161150500Y-140678842D01*
X161150500Y-140521158D01*
X161130241Y-140419309D01*
X161130241Y-140380690D01*
X161150500Y-140278842D01*
X161150500Y-140121158D01*
X161119737Y-139966503D01*
X161059394Y-139820821D01*
X161059393Y-139820819D01*
X161059390Y-139820814D01*
X161024017Y-139767876D01*
X160971789Y-139689711D01*
X160860289Y-139578211D01*
X160788530Y-139530263D01*
X160729185Y-139490609D01*
X160729174Y-139490603D01*
X160583497Y-139430263D01*
X160428844Y-139399500D01*
X160428842Y-139399500D01*
X160271158Y-139399500D01*
X160271155Y-139399500D01*
X160116503Y-139430263D01*
X160116501Y-139430263D01*
X159970825Y-139490603D01*
X159970814Y-139490609D01*
X159839711Y-139578211D01*
X159839707Y-139578214D01*
X159728214Y-139689707D01*
X159728211Y-139689711D01*
X159640609Y-139820814D01*
X159640603Y-139820825D01*
X159580263Y-139966501D01*
X159580263Y-139966503D01*
X159549500Y-140121155D01*
X145383428Y-140121155D01*
X145419737Y-140033497D01*
X145450500Y-139878842D01*
X145450500Y-139721158D01*
X145430241Y-139619309D01*
X145430241Y-139580690D01*
X145450500Y-139478842D01*
X145450500Y-139321158D01*
X145430241Y-139219309D01*
X145430241Y-139180690D01*
X145450500Y-139078842D01*
X145450500Y-138921158D01*
X145430241Y-138819309D01*
X145430241Y-138780690D01*
X145450500Y-138678842D01*
X145450500Y-138521158D01*
X145430241Y-138419309D01*
X145430241Y-138380690D01*
X145450500Y-138278842D01*
X145450500Y-138121158D01*
X145430241Y-138019309D01*
X145430241Y-137980690D01*
X145450500Y-137878842D01*
X145450500Y-137721158D01*
X145430241Y-137619309D01*
X145430241Y-137580690D01*
X145450500Y-137478842D01*
X145450500Y-137321158D01*
X145430241Y-137219309D01*
X145430241Y-137180690D01*
X145450500Y-137078842D01*
X145450500Y-136921158D01*
X145419737Y-136766503D01*
X145359394Y-136620821D01*
X145359393Y-136620819D01*
X145359390Y-136620814D01*
X145295797Y-136525642D01*
X145271789Y-136489711D01*
X145160289Y-136378211D01*
X145108059Y-136343312D01*
X145029185Y-136290609D01*
X145029174Y-136290603D01*
X144883497Y-136230263D01*
X144728844Y-136199500D01*
X144728842Y-136199500D01*
X144571158Y-136199500D01*
X144571155Y-136199500D01*
X144416503Y-136230263D01*
X144416501Y-136230263D01*
X144270825Y-136290603D01*
X144270814Y-136290609D01*
X144139711Y-136378211D01*
X144139707Y-136378214D01*
X144028214Y-136489707D01*
X144028211Y-136489711D01*
X143940609Y-136620814D01*
X143940603Y-136620825D01*
X143880263Y-136766501D01*
X143880263Y-136766503D01*
X143849500Y-136921155D01*
X118275499Y-136921155D01*
X118244737Y-136766503D01*
X118184394Y-136620821D01*
X118184393Y-136620819D01*
X118184390Y-136620814D01*
X118120797Y-136525642D01*
X118096789Y-136489711D01*
X117985289Y-136378211D01*
X117933059Y-136343312D01*
X117854185Y-136290609D01*
X117854174Y-136290603D01*
X117708497Y-136230263D01*
X117553844Y-136199500D01*
X117553842Y-136199500D01*
X117396158Y-136199500D01*
X117396155Y-136199500D01*
X117241503Y-136230263D01*
X117241501Y-136230263D01*
X117095825Y-136290603D01*
X117095814Y-136290609D01*
X116964711Y-136378211D01*
X116964707Y-136378214D01*
X116853214Y-136489707D01*
X116853211Y-136489711D01*
X116765609Y-136620814D01*
X116765603Y-136620825D01*
X116705263Y-136766501D01*
X116705263Y-136766503D01*
X116674500Y-136921155D01*
X113258428Y-136921155D01*
X113294737Y-136833497D01*
X113325500Y-136678842D01*
X113325500Y-136521158D01*
X113294737Y-136366503D01*
X113263300Y-136290606D01*
X113234396Y-136220825D01*
X113234390Y-136220814D01*
X113199017Y-136167876D01*
X113146789Y-136089711D01*
X113035289Y-135978211D01*
X112983059Y-135943312D01*
X112904185Y-135890609D01*
X112904174Y-135890603D01*
X112758497Y-135830263D01*
X112603844Y-135799500D01*
X112603842Y-135799500D01*
X112446158Y-135799500D01*
X112446155Y-135799500D01*
X112291503Y-135830263D01*
X112291501Y-135830263D01*
X112145825Y-135890603D01*
X112145814Y-135890609D01*
X112014711Y-135978211D01*
X112014707Y-135978214D01*
X111903214Y-136089707D01*
X111903211Y-136089711D01*
X111815609Y-136220814D01*
X111815603Y-136220825D01*
X111755263Y-136366501D01*
X111755263Y-136366503D01*
X111724500Y-136521155D01*
X73275499Y-136521155D01*
X73255151Y-136418858D01*
X73255089Y-136418532D01*
X73255241Y-136417330D01*
X73255241Y-136380690D01*
X73275500Y-136278842D01*
X73275500Y-136121158D01*
X73255241Y-136019309D01*
X73255241Y-135980690D01*
X73275500Y-135878842D01*
X73275500Y-135721158D01*
X73244737Y-135566503D01*
X73184394Y-135420821D01*
X73184390Y-135420813D01*
X73151303Y-135371296D01*
X73117799Y-135321155D01*
X81999500Y-135321155D01*
X81999500Y-135478844D01*
X82030263Y-135633496D01*
X82030263Y-135633498D01*
X82090603Y-135779174D01*
X82090609Y-135779185D01*
X82124739Y-135830263D01*
X82178211Y-135910289D01*
X82289711Y-136021789D01*
X82367876Y-136074017D01*
X82420814Y-136109390D01*
X82420825Y-136109396D01*
X82449222Y-136121158D01*
X82566503Y-136169737D01*
X82721158Y-136200500D01*
X82721159Y-136200500D01*
X82878841Y-136200500D01*
X82878842Y-136200500D01*
X83033497Y-136169737D01*
X83179179Y-136109394D01*
X83310289Y-136021789D01*
X83421789Y-135910289D01*
X83509394Y-135779179D01*
X83569737Y-135633497D01*
X83600500Y-135478842D01*
X83600500Y-135321158D01*
X83569737Y-135166503D01*
X83538300Y-135090606D01*
X83509396Y-135020825D01*
X83509390Y-135020814D01*
X83456513Y-134941679D01*
X83421789Y-134889711D01*
X83310289Y-134778211D01*
X83258059Y-134743312D01*
X83179185Y-134690609D01*
X83179174Y-134690603D01*
X83033497Y-134630263D01*
X82878844Y-134599500D01*
X82878842Y-134599500D01*
X82721158Y-134599500D01*
X82721155Y-134599500D01*
X82566503Y-134630263D01*
X82566501Y-134630263D01*
X82420825Y-134690603D01*
X82420814Y-134690609D01*
X82289711Y-134778211D01*
X82289707Y-134778214D01*
X82178214Y-134889707D01*
X82178211Y-134889711D01*
X82090609Y-135020814D01*
X82090603Y-135020825D01*
X82030263Y-135166501D01*
X82030263Y-135166503D01*
X81999500Y-135321155D01*
X73117799Y-135321155D01*
X73096789Y-135289711D01*
X72985292Y-135178214D01*
X72985289Y-135178211D01*
X72933059Y-135143312D01*
X72854185Y-135090609D01*
X72854174Y-135090603D01*
X72708497Y-135030263D01*
X72553844Y-134999500D01*
X72553842Y-134999500D01*
X72396158Y-134999500D01*
X72396155Y-134999500D01*
X72241503Y-135030263D01*
X72241501Y-135030263D01*
X72095825Y-135090603D01*
X72095814Y-135090609D01*
X71964711Y-135178211D01*
X71964707Y-135178214D01*
X71853214Y-135289707D01*
X71853211Y-135289711D01*
X71765609Y-135420814D01*
X71765603Y-135420825D01*
X71705263Y-135566501D01*
X71705263Y-135566503D01*
X71674500Y-135721155D01*
X50975000Y-135721155D01*
X50975000Y-134483655D01*
X91674500Y-134483655D01*
X91674500Y-134641344D01*
X91705263Y-134795996D01*
X91705263Y-134795998D01*
X91765603Y-134941674D01*
X91765609Y-134941685D01*
X91804241Y-134999500D01*
X91853211Y-135072789D01*
X91964711Y-135184289D01*
X92039077Y-135233979D01*
X92095814Y-135271890D01*
X92095825Y-135271896D01*
X92138826Y-135289707D01*
X92241503Y-135332237D01*
X92396158Y-135363000D01*
X92396159Y-135363000D01*
X92553841Y-135363000D01*
X92553842Y-135363000D01*
X92708497Y-135332237D01*
X92854179Y-135271894D01*
X92985289Y-135184289D01*
X93096789Y-135072789D01*
X93184394Y-134941679D01*
X93244737Y-134795997D01*
X93275500Y-134641342D01*
X93275500Y-134483658D01*
X93275499Y-134483655D01*
X97949500Y-134483655D01*
X97949500Y-134641344D01*
X97980263Y-134795996D01*
X97980263Y-134795998D01*
X98040603Y-134941674D01*
X98040609Y-134941685D01*
X98079241Y-134999500D01*
X98128211Y-135072789D01*
X98239711Y-135184289D01*
X98314077Y-135233979D01*
X98370814Y-135271890D01*
X98370825Y-135271896D01*
X98413826Y-135289707D01*
X98516503Y-135332237D01*
X98671158Y-135363000D01*
X98671159Y-135363000D01*
X98828841Y-135363000D01*
X98828842Y-135363000D01*
X98983497Y-135332237D01*
X99010252Y-135321155D01*
X100449500Y-135321155D01*
X100449500Y-135478844D01*
X100480263Y-135633496D01*
X100480263Y-135633498D01*
X100540603Y-135779174D01*
X100540609Y-135779185D01*
X100574739Y-135830263D01*
X100628211Y-135910289D01*
X100739711Y-136021789D01*
X100817876Y-136074017D01*
X100870814Y-136109390D01*
X100870825Y-136109396D01*
X100899222Y-136121158D01*
X101016503Y-136169737D01*
X101171158Y-136200500D01*
X101171159Y-136200500D01*
X101328841Y-136200500D01*
X101328842Y-136200500D01*
X101483497Y-136169737D01*
X101629179Y-136109394D01*
X101760289Y-136021789D01*
X101871789Y-135910289D01*
X101959394Y-135779179D01*
X102019737Y-135633497D01*
X102050500Y-135478842D01*
X102050500Y-135321158D01*
X102019737Y-135166503D01*
X101988300Y-135090606D01*
X101959396Y-135020825D01*
X101959390Y-135020814D01*
X101906513Y-134941679D01*
X101871789Y-134889711D01*
X101760289Y-134778211D01*
X101708059Y-134743312D01*
X101629185Y-134690609D01*
X101629174Y-134690603D01*
X101483497Y-134630263D01*
X101328844Y-134599500D01*
X101328842Y-134599500D01*
X101171158Y-134599500D01*
X101171155Y-134599500D01*
X101016503Y-134630263D01*
X101016501Y-134630263D01*
X100870825Y-134690603D01*
X100870814Y-134690609D01*
X100739711Y-134778211D01*
X100739707Y-134778214D01*
X100628214Y-134889707D01*
X100628211Y-134889711D01*
X100540609Y-135020814D01*
X100540603Y-135020825D01*
X100480263Y-135166501D01*
X100480263Y-135166503D01*
X100449500Y-135321155D01*
X99010252Y-135321155D01*
X99129179Y-135271894D01*
X99260289Y-135184289D01*
X99371789Y-135072789D01*
X99459394Y-134941679D01*
X99519737Y-134795997D01*
X99550500Y-134641342D01*
X99550500Y-134483658D01*
X99519737Y-134329003D01*
X99459394Y-134183321D01*
X99459393Y-134183319D01*
X99459390Y-134183314D01*
X99424017Y-134130376D01*
X99371789Y-134052211D01*
X99260289Y-133940711D01*
X99208059Y-133905812D01*
X99129185Y-133853109D01*
X99129174Y-133853103D01*
X98983497Y-133792763D01*
X98828844Y-133762000D01*
X98828842Y-133762000D01*
X98671158Y-133762000D01*
X98671155Y-133762000D01*
X98516503Y-133792763D01*
X98516501Y-133792763D01*
X98370825Y-133853103D01*
X98370814Y-133853109D01*
X98239711Y-133940711D01*
X98239707Y-133940714D01*
X98128214Y-134052207D01*
X98128211Y-134052211D01*
X98040609Y-134183314D01*
X98040603Y-134183325D01*
X97980263Y-134329001D01*
X97980263Y-134329003D01*
X97949500Y-134483655D01*
X93275499Y-134483655D01*
X93244737Y-134329003D01*
X93184394Y-134183321D01*
X93184393Y-134183319D01*
X93184390Y-134183314D01*
X93149017Y-134130376D01*
X93096789Y-134052211D01*
X92985289Y-133940711D01*
X92933059Y-133905812D01*
X92854185Y-133853109D01*
X92854174Y-133853103D01*
X92708497Y-133792763D01*
X92553844Y-133762000D01*
X92553842Y-133762000D01*
X92396158Y-133762000D01*
X92396155Y-133762000D01*
X92241503Y-133792763D01*
X92241501Y-133792763D01*
X92095825Y-133853103D01*
X92095814Y-133853109D01*
X91964711Y-133940711D01*
X91964707Y-133940714D01*
X91853214Y-134052207D01*
X91853211Y-134052211D01*
X91765609Y-134183314D01*
X91765603Y-134183325D01*
X91705263Y-134329001D01*
X91705263Y-134329003D01*
X91674500Y-134483655D01*
X50975000Y-134483655D01*
X50975000Y-131966230D01*
X189149500Y-131966230D01*
X189149500Y-132133769D01*
X189182183Y-132298079D01*
X189182185Y-132298085D01*
X189239773Y-132437114D01*
X189244574Y-132498111D01*
X189239773Y-132512886D01*
X189182185Y-132651914D01*
X189182183Y-132651920D01*
X189149500Y-132816230D01*
X189149500Y-132983769D01*
X189182183Y-133148079D01*
X189182185Y-133148085D01*
X189239773Y-133287114D01*
X189244574Y-133348111D01*
X189239773Y-133362886D01*
X189182185Y-133501914D01*
X189182183Y-133501920D01*
X189149500Y-133666230D01*
X189149500Y-133833769D01*
X189182183Y-133998079D01*
X189182185Y-133998085D01*
X189239773Y-134137114D01*
X189244574Y-134198111D01*
X189239773Y-134212886D01*
X189182185Y-134351914D01*
X189182183Y-134351920D01*
X189149500Y-134516230D01*
X189149500Y-134683769D01*
X189182183Y-134848079D01*
X189182185Y-134848085D01*
X189239773Y-134987114D01*
X189244574Y-135048111D01*
X189239773Y-135062886D01*
X189182185Y-135201914D01*
X189182183Y-135201920D01*
X189149500Y-135366230D01*
X189149500Y-135533769D01*
X189182183Y-135698079D01*
X189182185Y-135698085D01*
X189239773Y-135837114D01*
X189244574Y-135898111D01*
X189239773Y-135912886D01*
X189182185Y-136051914D01*
X189182183Y-136051920D01*
X189149500Y-136216230D01*
X189149500Y-136383769D01*
X189182183Y-136548079D01*
X189182185Y-136548085D01*
X189239773Y-136687114D01*
X189244574Y-136748111D01*
X189239773Y-136762886D01*
X189182185Y-136901914D01*
X189182183Y-136901920D01*
X189149500Y-137066230D01*
X189149500Y-137233769D01*
X189182183Y-137398079D01*
X189182185Y-137398085D01*
X189239773Y-137537114D01*
X189244574Y-137598111D01*
X189239773Y-137612886D01*
X189182185Y-137751914D01*
X189182183Y-137751920D01*
X189149500Y-137916230D01*
X189149500Y-138083769D01*
X189182183Y-138248079D01*
X189182185Y-138248085D01*
X189246296Y-138402862D01*
X189257290Y-138419315D01*
X189339374Y-138542162D01*
X189457838Y-138660626D01*
X189597137Y-138753703D01*
X189751918Y-138817816D01*
X189916233Y-138850500D01*
X189930500Y-138850500D01*
X189988691Y-138869407D01*
X190024655Y-138918907D01*
X190029500Y-138949500D01*
X190029500Y-140193618D01*
X190066026Y-140377249D01*
X190137677Y-140550229D01*
X190137681Y-140550238D01*
X190195655Y-140637000D01*
X190241698Y-140705908D01*
X190374092Y-140838302D01*
X190440463Y-140882649D01*
X190529761Y-140942318D01*
X190529767Y-140942320D01*
X190529769Y-140942322D01*
X190702749Y-141013973D01*
X190886384Y-141050500D01*
X190886385Y-141050500D01*
X191073615Y-141050500D01*
X191073616Y-141050500D01*
X191257251Y-141013973D01*
X191430231Y-140942322D01*
X191430234Y-140942319D01*
X191430238Y-140942318D01*
X191475187Y-140912282D01*
X191585908Y-140838302D01*
X191718302Y-140705908D01*
X191809289Y-140569737D01*
X191822318Y-140550238D01*
X191822319Y-140550234D01*
X191822322Y-140550231D01*
X191893973Y-140377251D01*
X191930500Y-140193616D01*
X191930500Y-138856381D01*
X193409500Y-138856381D01*
X193409500Y-139843618D01*
X193446026Y-140027249D01*
X193517677Y-140200229D01*
X193517681Y-140200238D01*
X193591216Y-140310288D01*
X193621698Y-140355908D01*
X193754092Y-140488302D01*
X193803257Y-140521153D01*
X193909761Y-140592318D01*
X193909767Y-140592320D01*
X193909769Y-140592322D01*
X194082749Y-140663973D01*
X194266384Y-140700500D01*
X194266385Y-140700500D01*
X194453615Y-140700500D01*
X194453616Y-140700500D01*
X194637251Y-140663973D01*
X194810231Y-140592322D01*
X194810234Y-140592319D01*
X194810238Y-140592318D01*
X194873214Y-140550238D01*
X194965908Y-140488302D01*
X195098302Y-140355908D01*
X195172282Y-140245187D01*
X195202318Y-140200238D01*
X195202319Y-140200234D01*
X195202322Y-140200231D01*
X195273973Y-140027251D01*
X195310500Y-139843616D01*
X195310500Y-138856384D01*
X195273973Y-138672749D01*
X195202322Y-138499769D01*
X195202320Y-138499767D01*
X195202318Y-138499761D01*
X195142649Y-138410463D01*
X195098302Y-138344092D01*
X194965908Y-138211698D01*
X194917232Y-138179174D01*
X194810238Y-138107681D01*
X194810229Y-138107677D01*
X194637249Y-138036026D01*
X194453618Y-137999500D01*
X194453616Y-137999500D01*
X194266384Y-137999500D01*
X194266381Y-137999500D01*
X194082750Y-138036026D01*
X193909770Y-138107677D01*
X193909761Y-138107681D01*
X193754092Y-138211698D01*
X193754088Y-138211701D01*
X193621701Y-138344088D01*
X193621698Y-138344092D01*
X193517681Y-138499761D01*
X193517677Y-138499770D01*
X193446026Y-138672750D01*
X193409500Y-138856381D01*
X191930500Y-138856381D01*
X191930500Y-138663296D01*
X191949407Y-138605105D01*
X191959496Y-138593292D01*
X191983052Y-138569736D01*
X192010626Y-138542162D01*
X192103703Y-138402863D01*
X192167816Y-138248082D01*
X192200500Y-138083767D01*
X192200500Y-137916233D01*
X192167816Y-137751918D01*
X192110225Y-137612884D01*
X192105425Y-137551889D01*
X192110224Y-137537119D01*
X192167816Y-137398082D01*
X192200500Y-137233767D01*
X192200500Y-137066233D01*
X192167816Y-136901918D01*
X192110225Y-136762884D01*
X192105425Y-136701889D01*
X192110224Y-136687119D01*
X192167816Y-136548082D01*
X192200500Y-136383767D01*
X192200500Y-136216233D01*
X192167816Y-136051918D01*
X192110225Y-135912884D01*
X192105425Y-135851889D01*
X192110224Y-135837119D01*
X192167816Y-135698082D01*
X192200500Y-135533767D01*
X192200500Y-135366233D01*
X192167816Y-135201918D01*
X192110225Y-135062884D01*
X192105425Y-135001889D01*
X192110224Y-134987119D01*
X192167816Y-134848082D01*
X192200500Y-134683767D01*
X192200500Y-134516233D01*
X192167816Y-134351918D01*
X192110225Y-134212884D01*
X192105425Y-134151889D01*
X192110224Y-134137119D01*
X192167816Y-133998082D01*
X192200500Y-133833767D01*
X192200500Y-133666233D01*
X192167816Y-133501918D01*
X192110225Y-133362884D01*
X192105425Y-133301889D01*
X192110224Y-133287119D01*
X192167816Y-133148082D01*
X192200500Y-132983767D01*
X192200500Y-132816233D01*
X192167816Y-132651918D01*
X192110225Y-132512884D01*
X192105425Y-132451889D01*
X192110224Y-132437119D01*
X192167816Y-132298082D01*
X192200500Y-132133767D01*
X192200500Y-131966233D01*
X192167816Y-131801918D01*
X192103703Y-131647137D01*
X192010626Y-131507838D01*
X191959496Y-131456708D01*
X191931719Y-131402191D01*
X191930500Y-131386704D01*
X191930500Y-130206381D01*
X193409500Y-130206381D01*
X193409500Y-131193618D01*
X193446026Y-131377249D01*
X193517677Y-131550229D01*
X193517681Y-131550238D01*
X193582428Y-131647137D01*
X193621698Y-131705908D01*
X193754092Y-131838302D01*
X193820463Y-131882649D01*
X193909761Y-131942318D01*
X193909767Y-131942320D01*
X193909769Y-131942322D01*
X194082749Y-132013973D01*
X194266384Y-132050500D01*
X194266385Y-132050500D01*
X194453615Y-132050500D01*
X194453616Y-132050500D01*
X194637251Y-132013973D01*
X194810231Y-131942322D01*
X194810234Y-131942319D01*
X194810238Y-131942318D01*
X194855187Y-131912282D01*
X194965908Y-131838302D01*
X195098302Y-131705908D01*
X195172282Y-131595187D01*
X195202318Y-131550238D01*
X195202319Y-131550234D01*
X195202322Y-131550231D01*
X195273973Y-131377251D01*
X195310500Y-131193616D01*
X195310500Y-130206384D01*
X195273973Y-130022749D01*
X195202322Y-129849769D01*
X195202320Y-129849767D01*
X195202318Y-129849761D01*
X195142649Y-129760463D01*
X195098302Y-129694092D01*
X194965908Y-129561698D01*
X194921559Y-129532065D01*
X194810238Y-129457681D01*
X194810229Y-129457677D01*
X194637249Y-129386026D01*
X194453618Y-129349500D01*
X194453616Y-129349500D01*
X194266384Y-129349500D01*
X194266381Y-129349500D01*
X194082750Y-129386026D01*
X193909770Y-129457677D01*
X193909761Y-129457681D01*
X193754092Y-129561698D01*
X193754088Y-129561701D01*
X193621701Y-129694088D01*
X193621698Y-129694092D01*
X193517681Y-129849761D01*
X193517677Y-129849770D01*
X193446026Y-130022750D01*
X193409500Y-130206381D01*
X191930500Y-130206381D01*
X191930500Y-129856385D01*
X191930499Y-129856381D01*
X191929182Y-129849761D01*
X191893973Y-129672749D01*
X191822322Y-129499769D01*
X191822320Y-129499767D01*
X191822318Y-129499761D01*
X191746321Y-129386026D01*
X191718302Y-129344092D01*
X191585908Y-129211698D01*
X191541559Y-129182065D01*
X191430238Y-129107681D01*
X191430229Y-129107677D01*
X191257249Y-129036026D01*
X191073618Y-128999500D01*
X191073616Y-128999500D01*
X190886384Y-128999500D01*
X190886381Y-128999500D01*
X190702750Y-129036026D01*
X190529770Y-129107677D01*
X190529761Y-129107681D01*
X190374092Y-129211698D01*
X190374088Y-129211701D01*
X190241701Y-129344088D01*
X190241698Y-129344092D01*
X190137681Y-129499761D01*
X190137677Y-129499770D01*
X190066026Y-129672750D01*
X190029500Y-129856381D01*
X190029500Y-131100500D01*
X190010593Y-131158691D01*
X189961093Y-131194655D01*
X189930500Y-131199500D01*
X189916230Y-131199500D01*
X189751920Y-131232183D01*
X189751914Y-131232185D01*
X189597137Y-131296296D01*
X189457838Y-131389374D01*
X189457834Y-131389377D01*
X189339377Y-131507834D01*
X189339374Y-131507838D01*
X189246296Y-131647137D01*
X189182185Y-131801914D01*
X189182183Y-131801920D01*
X189149500Y-131966230D01*
X50975000Y-131966230D01*
X50975000Y-123636155D01*
X104512000Y-123636155D01*
X104512000Y-123793844D01*
X104542763Y-123948496D01*
X104542763Y-123948498D01*
X104603103Y-124094174D01*
X104603109Y-124094185D01*
X104655812Y-124173059D01*
X104690711Y-124225289D01*
X104802211Y-124336789D01*
X104880376Y-124389017D01*
X104933314Y-124424390D01*
X104933325Y-124424396D01*
X104987138Y-124446685D01*
X105079003Y-124484737D01*
X105233658Y-124515500D01*
X105233659Y-124515500D01*
X105391341Y-124515500D01*
X105391342Y-124515500D01*
X105545997Y-124484737D01*
X105691679Y-124424394D01*
X105822789Y-124336789D01*
X105934289Y-124225289D01*
X106021894Y-124094179D01*
X106082237Y-123948497D01*
X106113000Y-123793842D01*
X106113000Y-123636158D01*
X106082237Y-123481503D01*
X106021894Y-123335821D01*
X106021893Y-123335819D01*
X106021890Y-123335814D01*
X105961543Y-123245500D01*
X105934289Y-123204711D01*
X105822789Y-123093211D01*
X105770559Y-123058312D01*
X105691685Y-123005609D01*
X105691674Y-123005603D01*
X105545997Y-122945263D01*
X105391344Y-122914500D01*
X105391342Y-122914500D01*
X105233658Y-122914500D01*
X105233655Y-122914500D01*
X105079003Y-122945263D01*
X105079001Y-122945263D01*
X104933325Y-123005603D01*
X104933314Y-123005609D01*
X104802211Y-123093211D01*
X104802207Y-123093214D01*
X104690714Y-123204707D01*
X104690711Y-123204711D01*
X104603109Y-123335814D01*
X104603103Y-123335825D01*
X104542763Y-123481501D01*
X104542763Y-123481503D01*
X104512000Y-123636155D01*
X50975000Y-123636155D01*
X50975000Y-121096155D01*
X88887000Y-121096155D01*
X88887000Y-121253844D01*
X88917763Y-121408496D01*
X88917763Y-121408498D01*
X88978103Y-121554174D01*
X88978109Y-121554185D01*
X89030812Y-121633059D01*
X89065711Y-121685289D01*
X89065714Y-121685292D01*
X89120418Y-121739996D01*
X89148195Y-121794513D01*
X89138624Y-121854945D01*
X89120418Y-121880004D01*
X89065714Y-121934707D01*
X89065711Y-121934711D01*
X88978109Y-122065814D01*
X88978103Y-122065825D01*
X88917763Y-122211501D01*
X88917763Y-122211503D01*
X88887000Y-122366155D01*
X88887000Y-122523844D01*
X88917763Y-122678496D01*
X88917763Y-122678498D01*
X88978103Y-122824174D01*
X88978109Y-122824185D01*
X89030812Y-122903059D01*
X89065711Y-122955289D01*
X89177211Y-123066789D01*
X89255376Y-123119017D01*
X89308314Y-123154390D01*
X89308325Y-123154396D01*
X89362138Y-123176685D01*
X89454003Y-123214737D01*
X89608658Y-123245500D01*
X89608659Y-123245500D01*
X89766341Y-123245500D01*
X89766342Y-123245500D01*
X89920997Y-123214737D01*
X90066679Y-123154394D01*
X90197789Y-123066789D01*
X90309289Y-122955289D01*
X90396894Y-122824179D01*
X90457237Y-122678497D01*
X90488000Y-122523842D01*
X90488000Y-122366158D01*
X90487999Y-122366155D01*
X91674500Y-122366155D01*
X91674500Y-122523844D01*
X91705263Y-122678496D01*
X91705263Y-122678498D01*
X91765603Y-122824174D01*
X91765609Y-122824185D01*
X91818312Y-122903059D01*
X91853211Y-122955289D01*
X91964711Y-123066789D01*
X92042876Y-123119017D01*
X92095814Y-123154390D01*
X92095825Y-123154396D01*
X92149638Y-123176685D01*
X92241503Y-123214737D01*
X92396158Y-123245500D01*
X92396159Y-123245500D01*
X92553841Y-123245500D01*
X92553842Y-123245500D01*
X92708497Y-123214737D01*
X92854179Y-123154394D01*
X92985289Y-123066789D01*
X93096789Y-122955289D01*
X93184394Y-122824179D01*
X93244737Y-122678497D01*
X93275500Y-122523842D01*
X93275500Y-122366158D01*
X93244737Y-122211503D01*
X93184394Y-122065821D01*
X93184393Y-122065819D01*
X93184390Y-122065814D01*
X93149017Y-122012876D01*
X93096789Y-121934711D01*
X92985289Y-121823211D01*
X92933059Y-121788312D01*
X92854185Y-121735609D01*
X92854174Y-121735603D01*
X92708497Y-121675263D01*
X92553844Y-121644500D01*
X92553842Y-121644500D01*
X92396158Y-121644500D01*
X92396155Y-121644500D01*
X92241503Y-121675263D01*
X92241501Y-121675263D01*
X92095825Y-121735603D01*
X92095814Y-121735609D01*
X91964711Y-121823211D01*
X91964707Y-121823214D01*
X91853214Y-121934707D01*
X91853211Y-121934711D01*
X91765609Y-122065814D01*
X91765603Y-122065825D01*
X91705263Y-122211501D01*
X91705263Y-122211503D01*
X91674500Y-122366155D01*
X90487999Y-122366155D01*
X90457237Y-122211503D01*
X90396894Y-122065821D01*
X90396893Y-122065819D01*
X90396890Y-122065814D01*
X90361517Y-122012876D01*
X90309289Y-121934711D01*
X90309284Y-121934706D01*
X90309281Y-121934702D01*
X90254582Y-121880004D01*
X90226804Y-121825488D01*
X90236375Y-121765056D01*
X90254582Y-121739996D01*
X90309281Y-121685297D01*
X90309289Y-121685289D01*
X90396894Y-121554179D01*
X90457237Y-121408497D01*
X90488000Y-121253842D01*
X90488000Y-121096158D01*
X90457237Y-120941503D01*
X90396894Y-120795821D01*
X90396893Y-120795819D01*
X90396890Y-120795814D01*
X90336543Y-120705500D01*
X90309289Y-120664711D01*
X90197789Y-120553211D01*
X90145559Y-120518312D01*
X90066685Y-120465609D01*
X90066674Y-120465603D01*
X89920997Y-120405263D01*
X89766344Y-120374500D01*
X89766342Y-120374500D01*
X89608658Y-120374500D01*
X89608655Y-120374500D01*
X89454003Y-120405263D01*
X89454001Y-120405263D01*
X89308325Y-120465603D01*
X89308314Y-120465609D01*
X89177211Y-120553211D01*
X89177207Y-120553214D01*
X89065714Y-120664707D01*
X89065711Y-120664711D01*
X88978109Y-120795814D01*
X88978103Y-120795825D01*
X88917763Y-120941501D01*
X88917763Y-120941503D01*
X88887000Y-121096155D01*
X50975000Y-121096155D01*
X50975000Y-119826155D01*
X104512000Y-119826155D01*
X104512000Y-119983844D01*
X104542763Y-120138496D01*
X104542763Y-120138498D01*
X104603103Y-120284174D01*
X104603109Y-120284185D01*
X104655812Y-120363059D01*
X104690711Y-120415289D01*
X104802211Y-120526789D01*
X104880376Y-120579017D01*
X104933314Y-120614390D01*
X104933325Y-120614396D01*
X104987138Y-120636685D01*
X105079003Y-120674737D01*
X105233658Y-120705500D01*
X105233659Y-120705500D01*
X105391341Y-120705500D01*
X105391342Y-120705500D01*
X105545997Y-120674737D01*
X105691679Y-120614394D01*
X105822789Y-120526789D01*
X105934289Y-120415289D01*
X106021894Y-120284179D01*
X106082237Y-120138497D01*
X106113000Y-119983842D01*
X106113000Y-119826158D01*
X106082237Y-119671503D01*
X106021894Y-119525821D01*
X106021893Y-119525819D01*
X106021890Y-119525814D01*
X105961543Y-119435500D01*
X105934289Y-119394711D01*
X105822789Y-119283211D01*
X105770559Y-119248312D01*
X105691685Y-119195609D01*
X105691674Y-119195603D01*
X105545997Y-119135263D01*
X105391344Y-119104500D01*
X105391342Y-119104500D01*
X105233658Y-119104500D01*
X105233655Y-119104500D01*
X105079003Y-119135263D01*
X105079001Y-119135263D01*
X104933325Y-119195603D01*
X104933314Y-119195609D01*
X104802211Y-119283211D01*
X104802207Y-119283214D01*
X104690714Y-119394707D01*
X104690711Y-119394711D01*
X104603109Y-119525814D01*
X104603103Y-119525825D01*
X104542763Y-119671501D01*
X104542763Y-119671503D01*
X104512000Y-119826155D01*
X50975000Y-119826155D01*
X50975000Y-118556155D01*
X69512000Y-118556155D01*
X69512000Y-118713844D01*
X69542763Y-118868496D01*
X69542763Y-118868498D01*
X69603103Y-119014174D01*
X69603109Y-119014185D01*
X69655812Y-119093059D01*
X69690711Y-119145289D01*
X69802211Y-119256789D01*
X69880376Y-119309017D01*
X69933314Y-119344390D01*
X69933325Y-119344396D01*
X69987138Y-119366685D01*
X70079003Y-119404737D01*
X70233658Y-119435500D01*
X70233659Y-119435500D01*
X70391341Y-119435500D01*
X70391342Y-119435500D01*
X70545997Y-119404737D01*
X70691679Y-119344394D01*
X70822789Y-119256789D01*
X70934289Y-119145289D01*
X71021894Y-119014179D01*
X71082237Y-118868497D01*
X71113000Y-118713842D01*
X71113000Y-118556158D01*
X71082237Y-118401503D01*
X71021894Y-118255821D01*
X71021893Y-118255819D01*
X71021890Y-118255814D01*
X70961543Y-118165500D01*
X70934289Y-118124711D01*
X70822789Y-118013211D01*
X70770559Y-117978312D01*
X70691685Y-117925609D01*
X70691674Y-117925603D01*
X70545997Y-117865263D01*
X70391344Y-117834500D01*
X70391342Y-117834500D01*
X70233658Y-117834500D01*
X70233655Y-117834500D01*
X70079003Y-117865263D01*
X70079001Y-117865263D01*
X69933325Y-117925603D01*
X69933314Y-117925609D01*
X69802211Y-118013211D01*
X69802207Y-118013214D01*
X69690714Y-118124707D01*
X69690711Y-118124711D01*
X69603109Y-118255814D01*
X69603103Y-118255825D01*
X69542763Y-118401501D01*
X69542763Y-118401503D01*
X69512000Y-118556155D01*
X50975000Y-118556155D01*
X50975000Y-117286155D01*
X134762000Y-117286155D01*
X134762000Y-117443844D01*
X134792763Y-117598496D01*
X134792763Y-117598498D01*
X134853103Y-117744174D01*
X134853109Y-117744185D01*
X134905812Y-117823059D01*
X134940711Y-117875289D01*
X135052211Y-117986789D01*
X135130376Y-118039017D01*
X135183314Y-118074390D01*
X135183325Y-118074396D01*
X135237138Y-118096685D01*
X135329003Y-118134737D01*
X135483658Y-118165500D01*
X135483659Y-118165500D01*
X135641341Y-118165500D01*
X135641342Y-118165500D01*
X135795997Y-118134737D01*
X135941679Y-118074394D01*
X136072789Y-117986789D01*
X136184289Y-117875289D01*
X136271894Y-117744179D01*
X136332237Y-117598497D01*
X136363000Y-117443842D01*
X136363000Y-117286158D01*
X136332237Y-117131503D01*
X136271894Y-116985821D01*
X136271893Y-116985819D01*
X136271890Y-116985814D01*
X136211543Y-116895500D01*
X136184289Y-116854711D01*
X136072789Y-116743211D01*
X136020559Y-116708312D01*
X135941685Y-116655609D01*
X135941674Y-116655603D01*
X135795997Y-116595263D01*
X135641344Y-116564500D01*
X135641342Y-116564500D01*
X135483658Y-116564500D01*
X135483655Y-116564500D01*
X135329003Y-116595263D01*
X135329001Y-116595263D01*
X135183325Y-116655603D01*
X135183314Y-116655609D01*
X135052211Y-116743211D01*
X135052207Y-116743214D01*
X134940714Y-116854707D01*
X134940711Y-116854711D01*
X134853109Y-116985814D01*
X134853103Y-116985825D01*
X134792763Y-117131501D01*
X134792763Y-117131503D01*
X134762000Y-117286155D01*
X50975000Y-117286155D01*
X50975000Y-116016155D01*
X91674500Y-116016155D01*
X91674500Y-116173844D01*
X91705263Y-116328496D01*
X91705263Y-116328498D01*
X91765603Y-116474174D01*
X91765609Y-116474185D01*
X91818312Y-116553059D01*
X91853211Y-116605289D01*
X91964711Y-116716789D01*
X92042876Y-116769017D01*
X92095814Y-116804390D01*
X92095825Y-116804396D01*
X92149638Y-116826685D01*
X92241503Y-116864737D01*
X92396158Y-116895500D01*
X92396159Y-116895500D01*
X92553841Y-116895500D01*
X92553842Y-116895500D01*
X92708497Y-116864737D01*
X92854179Y-116804394D01*
X92985289Y-116716789D01*
X93096789Y-116605289D01*
X93184394Y-116474179D01*
X93244737Y-116328497D01*
X93275500Y-116173842D01*
X93275500Y-116016158D01*
X93244737Y-115861503D01*
X93184394Y-115715821D01*
X93184393Y-115715819D01*
X93184390Y-115715814D01*
X93124043Y-115625500D01*
X93096789Y-115584711D01*
X92985289Y-115473211D01*
X92933059Y-115438312D01*
X92854185Y-115385609D01*
X92854174Y-115385603D01*
X92708497Y-115325263D01*
X92553844Y-115294500D01*
X92553842Y-115294500D01*
X92396158Y-115294500D01*
X92396155Y-115294500D01*
X92241503Y-115325263D01*
X92241501Y-115325263D01*
X92095825Y-115385603D01*
X92095814Y-115385609D01*
X91964711Y-115473211D01*
X91964707Y-115473214D01*
X91853214Y-115584707D01*
X91853211Y-115584711D01*
X91765609Y-115715814D01*
X91765603Y-115715825D01*
X91705263Y-115861501D01*
X91705263Y-115861503D01*
X91674500Y-116016155D01*
X50975000Y-116016155D01*
X50975000Y-114746155D01*
X69512000Y-114746155D01*
X69512000Y-114903844D01*
X69542763Y-115058496D01*
X69542763Y-115058498D01*
X69603103Y-115204174D01*
X69603109Y-115204185D01*
X69655812Y-115283059D01*
X69690711Y-115335289D01*
X69802211Y-115446789D01*
X69880376Y-115499017D01*
X69933314Y-115534390D01*
X69933325Y-115534396D01*
X69987138Y-115556685D01*
X70079003Y-115594737D01*
X70233658Y-115625500D01*
X70233659Y-115625500D01*
X70391341Y-115625500D01*
X70391342Y-115625500D01*
X70545997Y-115594737D01*
X70691679Y-115534394D01*
X70822789Y-115446789D01*
X70934289Y-115335289D01*
X71021894Y-115204179D01*
X71082237Y-115058497D01*
X71113000Y-114903842D01*
X71113000Y-114746158D01*
X71082237Y-114591503D01*
X71021894Y-114445821D01*
X71021893Y-114445819D01*
X71021890Y-114445814D01*
X70986517Y-114392876D01*
X70934289Y-114314711D01*
X70822789Y-114203211D01*
X70770559Y-114168312D01*
X70691685Y-114115609D01*
X70691674Y-114115603D01*
X70545997Y-114055263D01*
X70391344Y-114024500D01*
X70391342Y-114024500D01*
X70233658Y-114024500D01*
X70233655Y-114024500D01*
X70079003Y-114055263D01*
X70079001Y-114055263D01*
X69933325Y-114115603D01*
X69933314Y-114115609D01*
X69802211Y-114203211D01*
X69802207Y-114203214D01*
X69690714Y-114314707D01*
X69690711Y-114314711D01*
X69603109Y-114445814D01*
X69603103Y-114445825D01*
X69542763Y-114591501D01*
X69542763Y-114591503D01*
X69512000Y-114746155D01*
X50975000Y-114746155D01*
X50975000Y-112206155D01*
X143849500Y-112206155D01*
X143849500Y-112363844D01*
X143880263Y-112518496D01*
X143880263Y-112518498D01*
X143940603Y-112664174D01*
X143940609Y-112664185D01*
X143993312Y-112743059D01*
X144028211Y-112795289D01*
X144028214Y-112795292D01*
X144082918Y-112849996D01*
X144110695Y-112904513D01*
X144101124Y-112964945D01*
X144082918Y-112990004D01*
X144028214Y-113044707D01*
X144028211Y-113044711D01*
X143940609Y-113175814D01*
X143940603Y-113175825D01*
X143880263Y-113321501D01*
X143880263Y-113321503D01*
X143849500Y-113476155D01*
X143849500Y-113633844D01*
X143880263Y-113788496D01*
X143880263Y-113788498D01*
X143940603Y-113934174D01*
X143940609Y-113934185D01*
X143993312Y-114013059D01*
X144028211Y-114065289D01*
X144028214Y-114065292D01*
X144082918Y-114119996D01*
X144110695Y-114174513D01*
X144101124Y-114234945D01*
X144082918Y-114260004D01*
X144028214Y-114314707D01*
X144028211Y-114314711D01*
X143940609Y-114445814D01*
X143940603Y-114445825D01*
X143880263Y-114591501D01*
X143880263Y-114591503D01*
X143849500Y-114746155D01*
X143849500Y-114903844D01*
X143880263Y-115058496D01*
X143880263Y-115058498D01*
X143940603Y-115204174D01*
X143940609Y-115204185D01*
X143993312Y-115283059D01*
X144028211Y-115335289D01*
X144028214Y-115335292D01*
X144082918Y-115389996D01*
X144110695Y-115444513D01*
X144101124Y-115504945D01*
X144082918Y-115530004D01*
X144028214Y-115584707D01*
X144028211Y-115584711D01*
X143940609Y-115715814D01*
X143940603Y-115715825D01*
X143880263Y-115861501D01*
X143880263Y-115861503D01*
X143849500Y-116016155D01*
X143849500Y-116173844D01*
X143880263Y-116328496D01*
X143880263Y-116328498D01*
X143940603Y-116474174D01*
X143940609Y-116474185D01*
X143993312Y-116553059D01*
X144028211Y-116605289D01*
X144028214Y-116605292D01*
X144082918Y-116659996D01*
X144110695Y-116714513D01*
X144101124Y-116774945D01*
X144082918Y-116800004D01*
X144028214Y-116854707D01*
X144028211Y-116854711D01*
X143940609Y-116985814D01*
X143940603Y-116985825D01*
X143880263Y-117131501D01*
X143880263Y-117131503D01*
X143849500Y-117286155D01*
X143849500Y-117443844D01*
X143880263Y-117598496D01*
X143880263Y-117598498D01*
X143940603Y-117744174D01*
X143940609Y-117744185D01*
X143993312Y-117823059D01*
X144028211Y-117875289D01*
X144028214Y-117875292D01*
X144082918Y-117929996D01*
X144110695Y-117984513D01*
X144101124Y-118044945D01*
X144082918Y-118070004D01*
X144028214Y-118124707D01*
X144028211Y-118124711D01*
X143940609Y-118255814D01*
X143940603Y-118255825D01*
X143880263Y-118401501D01*
X143880263Y-118401503D01*
X143849500Y-118556155D01*
X143849500Y-118713844D01*
X143880263Y-118868496D01*
X143880263Y-118868498D01*
X143940603Y-119014174D01*
X143940609Y-119014185D01*
X143993312Y-119093059D01*
X144028211Y-119145289D01*
X144028214Y-119145292D01*
X144082918Y-119199996D01*
X144110695Y-119254513D01*
X144101124Y-119314945D01*
X144082918Y-119340004D01*
X144028214Y-119394707D01*
X144028211Y-119394711D01*
X143940609Y-119525814D01*
X143940603Y-119525825D01*
X143880263Y-119671501D01*
X143880263Y-119671503D01*
X143849500Y-119826155D01*
X143849500Y-119983844D01*
X143880263Y-120138496D01*
X143880263Y-120138498D01*
X143940603Y-120284174D01*
X143940609Y-120284185D01*
X143993312Y-120363059D01*
X144028211Y-120415289D01*
X144028214Y-120415292D01*
X144082918Y-120469996D01*
X144110695Y-120524513D01*
X144101124Y-120584945D01*
X144082918Y-120610004D01*
X144028214Y-120664707D01*
X144028211Y-120664711D01*
X143940609Y-120795814D01*
X143940603Y-120795825D01*
X143880263Y-120941501D01*
X143880263Y-120941503D01*
X143849500Y-121096155D01*
X143849500Y-121253844D01*
X143880263Y-121408496D01*
X143880263Y-121408498D01*
X143940603Y-121554174D01*
X143940609Y-121554185D01*
X143993312Y-121633059D01*
X144028211Y-121685289D01*
X144028214Y-121685292D01*
X144082918Y-121739996D01*
X144110695Y-121794513D01*
X144101124Y-121854945D01*
X144082918Y-121880004D01*
X144028214Y-121934707D01*
X144028211Y-121934711D01*
X143940609Y-122065814D01*
X143940603Y-122065825D01*
X143880263Y-122211501D01*
X143880263Y-122211503D01*
X143849500Y-122366155D01*
X143849500Y-122523844D01*
X143880263Y-122678496D01*
X143880263Y-122678498D01*
X143940603Y-122824174D01*
X143940609Y-122824185D01*
X143993312Y-122903059D01*
X144028211Y-122955289D01*
X144139711Y-123066789D01*
X144217876Y-123119017D01*
X144270814Y-123154390D01*
X144270825Y-123154396D01*
X144324638Y-123176685D01*
X144416503Y-123214737D01*
X144571158Y-123245500D01*
X144571159Y-123245500D01*
X144728841Y-123245500D01*
X144728842Y-123245500D01*
X144883497Y-123214737D01*
X145029179Y-123154394D01*
X145160289Y-123066789D01*
X145271789Y-122955289D01*
X145359394Y-122824179D01*
X145419737Y-122678497D01*
X145450500Y-122523842D01*
X145450500Y-122366158D01*
X145419737Y-122211503D01*
X145359394Y-122065821D01*
X145359393Y-122065819D01*
X145359390Y-122065814D01*
X145324017Y-122012876D01*
X145271789Y-121934711D01*
X145271784Y-121934706D01*
X145271781Y-121934702D01*
X145217082Y-121880004D01*
X145189304Y-121825488D01*
X145198875Y-121765056D01*
X145217082Y-121739996D01*
X145271781Y-121685297D01*
X145271789Y-121685289D01*
X145359394Y-121554179D01*
X145419737Y-121408497D01*
X145450500Y-121253842D01*
X145450500Y-121096158D01*
X145419737Y-120941503D01*
X145359394Y-120795821D01*
X145359393Y-120795819D01*
X145359390Y-120795814D01*
X145299043Y-120705500D01*
X145271789Y-120664711D01*
X145271784Y-120664706D01*
X145271781Y-120664702D01*
X145217082Y-120610004D01*
X145189304Y-120555488D01*
X145198875Y-120495056D01*
X145217082Y-120469996D01*
X145271781Y-120415297D01*
X145271789Y-120415289D01*
X145359394Y-120284179D01*
X145419737Y-120138497D01*
X145450500Y-119983842D01*
X145450500Y-119826158D01*
X145419737Y-119671503D01*
X145359394Y-119525821D01*
X145359393Y-119525819D01*
X145359390Y-119525814D01*
X145299043Y-119435500D01*
X145271789Y-119394711D01*
X145271784Y-119394706D01*
X145271781Y-119394702D01*
X145217082Y-119340004D01*
X145189304Y-119285488D01*
X145198875Y-119225056D01*
X145217082Y-119199996D01*
X145271781Y-119145297D01*
X145271789Y-119145289D01*
X145359394Y-119014179D01*
X145419737Y-118868497D01*
X145450500Y-118713842D01*
X145450500Y-118556158D01*
X145419737Y-118401503D01*
X145359394Y-118255821D01*
X145359393Y-118255819D01*
X145359390Y-118255814D01*
X145299043Y-118165500D01*
X145271789Y-118124711D01*
X145271784Y-118124706D01*
X145271781Y-118124702D01*
X145217082Y-118070004D01*
X145189304Y-118015488D01*
X145198875Y-117955056D01*
X145217082Y-117929996D01*
X145271781Y-117875297D01*
X145271789Y-117875289D01*
X145359394Y-117744179D01*
X145419737Y-117598497D01*
X145450500Y-117443842D01*
X145450500Y-117286158D01*
X145419737Y-117131503D01*
X145359394Y-116985821D01*
X145359393Y-116985819D01*
X145359390Y-116985814D01*
X145299043Y-116895500D01*
X145271789Y-116854711D01*
X145271784Y-116854706D01*
X145271781Y-116854702D01*
X145217082Y-116800004D01*
X145189304Y-116745488D01*
X145198875Y-116685056D01*
X145217082Y-116659996D01*
X145271781Y-116605297D01*
X145271789Y-116605289D01*
X145359394Y-116474179D01*
X145419737Y-116328497D01*
X145450500Y-116173842D01*
X145450500Y-116016158D01*
X145450499Y-116016155D01*
X159762000Y-116016155D01*
X159762000Y-116173844D01*
X159792763Y-116328496D01*
X159792763Y-116328498D01*
X159853103Y-116474174D01*
X159853109Y-116474185D01*
X159905812Y-116553059D01*
X159940711Y-116605289D01*
X160052211Y-116716789D01*
X160130376Y-116769017D01*
X160183314Y-116804390D01*
X160183325Y-116804396D01*
X160237138Y-116826685D01*
X160329003Y-116864737D01*
X160483658Y-116895500D01*
X160483659Y-116895500D01*
X160641341Y-116895500D01*
X160641342Y-116895500D01*
X160795997Y-116864737D01*
X160941679Y-116804394D01*
X161072789Y-116716789D01*
X161184289Y-116605289D01*
X161271894Y-116474179D01*
X161332237Y-116328497D01*
X161363000Y-116173842D01*
X161363000Y-116016158D01*
X161332237Y-115861503D01*
X161271894Y-115715821D01*
X161271893Y-115715819D01*
X161271890Y-115715814D01*
X161211543Y-115625500D01*
X161184289Y-115584711D01*
X161072789Y-115473211D01*
X161020559Y-115438312D01*
X160941685Y-115385609D01*
X160941674Y-115385603D01*
X160795997Y-115325263D01*
X160641344Y-115294500D01*
X160641342Y-115294500D01*
X160483658Y-115294500D01*
X160483655Y-115294500D01*
X160329003Y-115325263D01*
X160329001Y-115325263D01*
X160183325Y-115385603D01*
X160183314Y-115385609D01*
X160052211Y-115473211D01*
X160052207Y-115473214D01*
X159940714Y-115584707D01*
X159940711Y-115584711D01*
X159853109Y-115715814D01*
X159853103Y-115715825D01*
X159792763Y-115861501D01*
X159792763Y-115861503D01*
X159762000Y-116016155D01*
X145450499Y-116016155D01*
X145419737Y-115861503D01*
X145359394Y-115715821D01*
X145359393Y-115715819D01*
X145359390Y-115715814D01*
X145299043Y-115625500D01*
X145271789Y-115584711D01*
X145271784Y-115584706D01*
X145271781Y-115584702D01*
X145217082Y-115530004D01*
X145189304Y-115475488D01*
X145198875Y-115415056D01*
X145217082Y-115389996D01*
X145271781Y-115335297D01*
X145271789Y-115335289D01*
X145359394Y-115204179D01*
X145419737Y-115058497D01*
X145450500Y-114903842D01*
X145450500Y-114746158D01*
X145419737Y-114591503D01*
X145359394Y-114445821D01*
X145359393Y-114445819D01*
X145359390Y-114445814D01*
X145324017Y-114392876D01*
X145271789Y-114314711D01*
X145271784Y-114314706D01*
X145271781Y-114314702D01*
X145217082Y-114260004D01*
X145189304Y-114205488D01*
X145198875Y-114145056D01*
X145217082Y-114119996D01*
X145271781Y-114065297D01*
X145271789Y-114065289D01*
X145359394Y-113934179D01*
X145419737Y-113788497D01*
X145450500Y-113633842D01*
X145450500Y-113476158D01*
X145419737Y-113321503D01*
X145359394Y-113175821D01*
X145359393Y-113175819D01*
X145359390Y-113175814D01*
X145299043Y-113085500D01*
X145271789Y-113044711D01*
X145271784Y-113044706D01*
X145271781Y-113044702D01*
X145217082Y-112990004D01*
X145189304Y-112935488D01*
X145198875Y-112875056D01*
X145217082Y-112849996D01*
X145271781Y-112795297D01*
X145271789Y-112795289D01*
X145359394Y-112664179D01*
X145419737Y-112518497D01*
X145450500Y-112363842D01*
X145450500Y-112206158D01*
X145450499Y-112206155D01*
X168849500Y-112206155D01*
X168849500Y-112363844D01*
X168880263Y-112518496D01*
X168880263Y-112518498D01*
X168940603Y-112664174D01*
X168940609Y-112664185D01*
X168993312Y-112743059D01*
X169028211Y-112795289D01*
X169139711Y-112906789D01*
X169217876Y-112959017D01*
X169270814Y-112994390D01*
X169270825Y-112994396D01*
X169324638Y-113016685D01*
X169416503Y-113054737D01*
X169571158Y-113085500D01*
X169571159Y-113085500D01*
X169728841Y-113085500D01*
X169728842Y-113085500D01*
X169883497Y-113054737D01*
X170029179Y-112994394D01*
X170160289Y-112906789D01*
X170271789Y-112795289D01*
X170359394Y-112664179D01*
X170419737Y-112518497D01*
X170450500Y-112363842D01*
X170450500Y-112206158D01*
X170419737Y-112051503D01*
X170359394Y-111905821D01*
X170359393Y-111905819D01*
X170359390Y-111905814D01*
X170324017Y-111852876D01*
X170271789Y-111774711D01*
X170160289Y-111663211D01*
X170108059Y-111628312D01*
X170029185Y-111575609D01*
X170029174Y-111575603D01*
X169883497Y-111515263D01*
X169728844Y-111484500D01*
X169728842Y-111484500D01*
X169571158Y-111484500D01*
X169571155Y-111484500D01*
X169416503Y-111515263D01*
X169416501Y-111515263D01*
X169270825Y-111575603D01*
X169270814Y-111575609D01*
X169139711Y-111663211D01*
X169139707Y-111663214D01*
X169028214Y-111774707D01*
X169028211Y-111774711D01*
X168940609Y-111905814D01*
X168940603Y-111905825D01*
X168880263Y-112051501D01*
X168880263Y-112051503D01*
X168849500Y-112206155D01*
X145450499Y-112206155D01*
X145419737Y-112051503D01*
X145359394Y-111905821D01*
X145359393Y-111905819D01*
X145359390Y-111905814D01*
X145324017Y-111852876D01*
X145271789Y-111774711D01*
X145160289Y-111663211D01*
X145108059Y-111628312D01*
X145029185Y-111575609D01*
X145029174Y-111575603D01*
X144883497Y-111515263D01*
X144728844Y-111484500D01*
X144728842Y-111484500D01*
X144571158Y-111484500D01*
X144571155Y-111484500D01*
X144416503Y-111515263D01*
X144416501Y-111515263D01*
X144270825Y-111575603D01*
X144270814Y-111575609D01*
X144139711Y-111663211D01*
X144139707Y-111663214D01*
X144028214Y-111774707D01*
X144028211Y-111774711D01*
X143940609Y-111905814D01*
X143940603Y-111905825D01*
X143880263Y-112051501D01*
X143880263Y-112051503D01*
X143849500Y-112206155D01*
X50975000Y-112206155D01*
X50975000Y-99671155D01*
X69512000Y-99671155D01*
X69512000Y-99828844D01*
X69542763Y-99983496D01*
X69542763Y-99983498D01*
X69603103Y-100129174D01*
X69603109Y-100129185D01*
X69655812Y-100208059D01*
X69690711Y-100260289D01*
X69802211Y-100371789D01*
X69880376Y-100424017D01*
X69933314Y-100459390D01*
X69933325Y-100459396D01*
X69987138Y-100481685D01*
X70079003Y-100519737D01*
X70233658Y-100550500D01*
X70233659Y-100550500D01*
X70391341Y-100550500D01*
X70391342Y-100550500D01*
X70545997Y-100519737D01*
X70691679Y-100459394D01*
X70822789Y-100371789D01*
X70934289Y-100260289D01*
X71021894Y-100129179D01*
X71082237Y-99983497D01*
X71113000Y-99828842D01*
X71113000Y-99671158D01*
X71082237Y-99516503D01*
X71021894Y-99370821D01*
X71021893Y-99370819D01*
X71021890Y-99370814D01*
X70986517Y-99317876D01*
X70934289Y-99239711D01*
X70822789Y-99128211D01*
X70770559Y-99093312D01*
X70691685Y-99040609D01*
X70691674Y-99040603D01*
X70545997Y-98980263D01*
X70391344Y-98949500D01*
X70391342Y-98949500D01*
X70233658Y-98949500D01*
X70233655Y-98949500D01*
X70079003Y-98980263D01*
X70079001Y-98980263D01*
X69933325Y-99040603D01*
X69933314Y-99040609D01*
X69802211Y-99128211D01*
X69802207Y-99128214D01*
X69690714Y-99239707D01*
X69690711Y-99239711D01*
X69603109Y-99370814D01*
X69603103Y-99370825D01*
X69542763Y-99516501D01*
X69542763Y-99516503D01*
X69512000Y-99671155D01*
X50975000Y-99671155D01*
X50975000Y-95171155D01*
X88887000Y-95171155D01*
X88887000Y-95328844D01*
X88917763Y-95483496D01*
X88917763Y-95483498D01*
X88978103Y-95629174D01*
X88978109Y-95629185D01*
X89030812Y-95708059D01*
X89065711Y-95760289D01*
X89177211Y-95871789D01*
X89255376Y-95924017D01*
X89308314Y-95959390D01*
X89308325Y-95959396D01*
X89362138Y-95981685D01*
X89454003Y-96019737D01*
X89608658Y-96050500D01*
X89608659Y-96050500D01*
X89766341Y-96050500D01*
X89766342Y-96050500D01*
X89920997Y-96019737D01*
X90066679Y-95959394D01*
X90197789Y-95871789D01*
X90309289Y-95760289D01*
X90396894Y-95629179D01*
X90457237Y-95483497D01*
X90488000Y-95328842D01*
X90488000Y-95171158D01*
X90457237Y-95016503D01*
X90396894Y-94870821D01*
X90396893Y-94870819D01*
X90396890Y-94870814D01*
X90361517Y-94817876D01*
X90309289Y-94739711D01*
X90197789Y-94628211D01*
X90145559Y-94593312D01*
X90066685Y-94540609D01*
X90066674Y-94540603D01*
X89920997Y-94480263D01*
X89766344Y-94449500D01*
X89766342Y-94449500D01*
X89608658Y-94449500D01*
X89608655Y-94449500D01*
X89454003Y-94480263D01*
X89454001Y-94480263D01*
X89308325Y-94540603D01*
X89308314Y-94540609D01*
X89177211Y-94628211D01*
X89177207Y-94628214D01*
X89065714Y-94739707D01*
X89065711Y-94739711D01*
X88978109Y-94870814D01*
X88978103Y-94870825D01*
X88917763Y-95016501D01*
X88917763Y-95016503D01*
X88887000Y-95171155D01*
X50975000Y-95171155D01*
X50975000Y-93083655D01*
X130469500Y-93083655D01*
X130469500Y-93241344D01*
X130500263Y-93395996D01*
X130500263Y-93395998D01*
X130560603Y-93541674D01*
X130560609Y-93541685D01*
X130613312Y-93620559D01*
X130648211Y-93672789D01*
X130759711Y-93784289D01*
X130837876Y-93836517D01*
X130890814Y-93871890D01*
X130890825Y-93871896D01*
X130944638Y-93894185D01*
X131036503Y-93932237D01*
X131191158Y-93963000D01*
X131191159Y-93963000D01*
X131348841Y-93963000D01*
X131348842Y-93963000D01*
X131503497Y-93932237D01*
X131649179Y-93871894D01*
X131780289Y-93784289D01*
X131891789Y-93672789D01*
X131979394Y-93541679D01*
X132039737Y-93395997D01*
X132070500Y-93241342D01*
X132070500Y-93083658D01*
X132039737Y-92929003D01*
X131979394Y-92783321D01*
X131979393Y-92783319D01*
X131979390Y-92783314D01*
X131944017Y-92730376D01*
X131891789Y-92652211D01*
X131780289Y-92540711D01*
X131728059Y-92505812D01*
X131649185Y-92453109D01*
X131649174Y-92453103D01*
X131503497Y-92392763D01*
X131348844Y-92362000D01*
X131348842Y-92362000D01*
X131191158Y-92362000D01*
X131191155Y-92362000D01*
X131036503Y-92392763D01*
X131036501Y-92392763D01*
X130890825Y-92453103D01*
X130890814Y-92453109D01*
X130759711Y-92540711D01*
X130759707Y-92540714D01*
X130648214Y-92652207D01*
X130648211Y-92652211D01*
X130560609Y-92783314D01*
X130560603Y-92783325D01*
X130500263Y-92929001D01*
X130500263Y-92929003D01*
X130469500Y-93083655D01*
X50975000Y-93083655D01*
X50975000Y-86758655D01*
X150194500Y-86758655D01*
X150194500Y-86916344D01*
X150225263Y-87070996D01*
X150225263Y-87070998D01*
X150285603Y-87216674D01*
X150285609Y-87216685D01*
X150338312Y-87295559D01*
X150373211Y-87347789D01*
X150484711Y-87459289D01*
X150562876Y-87511517D01*
X150615814Y-87546890D01*
X150615825Y-87546896D01*
X150669638Y-87569185D01*
X150761503Y-87607237D01*
X150916158Y-87638000D01*
X150916159Y-87638000D01*
X151073841Y-87638000D01*
X151073842Y-87638000D01*
X151228497Y-87607237D01*
X151374179Y-87546894D01*
X151505289Y-87459289D01*
X151559996Y-87404582D01*
X151614512Y-87376804D01*
X151674944Y-87386375D01*
X151700004Y-87404582D01*
X151754702Y-87459281D01*
X151754706Y-87459284D01*
X151754711Y-87459289D01*
X151832876Y-87511517D01*
X151885814Y-87546890D01*
X151885825Y-87546896D01*
X151939638Y-87569185D01*
X152031503Y-87607237D01*
X152186158Y-87638000D01*
X152186159Y-87638000D01*
X152343841Y-87638000D01*
X152343842Y-87638000D01*
X152498497Y-87607237D01*
X152644179Y-87546894D01*
X152775289Y-87459289D01*
X152829996Y-87404582D01*
X152884512Y-87376804D01*
X152944944Y-87386375D01*
X152970004Y-87404582D01*
X153024702Y-87459281D01*
X153024706Y-87459284D01*
X153024711Y-87459289D01*
X153102876Y-87511517D01*
X153155814Y-87546890D01*
X153155825Y-87546896D01*
X153209638Y-87569185D01*
X153301503Y-87607237D01*
X153456158Y-87638000D01*
X153456159Y-87638000D01*
X153613841Y-87638000D01*
X153613842Y-87638000D01*
X153768497Y-87607237D01*
X153914179Y-87546894D01*
X154045289Y-87459289D01*
X154099996Y-87404582D01*
X154154512Y-87376804D01*
X154214944Y-87386375D01*
X154240004Y-87404582D01*
X154294702Y-87459281D01*
X154294706Y-87459284D01*
X154294711Y-87459289D01*
X154372876Y-87511517D01*
X154425814Y-87546890D01*
X154425825Y-87546896D01*
X154479638Y-87569185D01*
X154571503Y-87607237D01*
X154726158Y-87638000D01*
X154726159Y-87638000D01*
X154883841Y-87638000D01*
X154883842Y-87638000D01*
X155038497Y-87607237D01*
X155184179Y-87546894D01*
X155315289Y-87459289D01*
X155369996Y-87404582D01*
X155424512Y-87376804D01*
X155484944Y-87386375D01*
X155510004Y-87404582D01*
X155564702Y-87459281D01*
X155564706Y-87459284D01*
X155564711Y-87459289D01*
X155642876Y-87511517D01*
X155695814Y-87546890D01*
X155695825Y-87546896D01*
X155749638Y-87569185D01*
X155841503Y-87607237D01*
X155996158Y-87638000D01*
X155996159Y-87638000D01*
X156153841Y-87638000D01*
X156153842Y-87638000D01*
X156308497Y-87607237D01*
X156454179Y-87546894D01*
X156585289Y-87459289D01*
X156639996Y-87404582D01*
X156694512Y-87376804D01*
X156754944Y-87386375D01*
X156780004Y-87404582D01*
X156834702Y-87459281D01*
X156834706Y-87459284D01*
X156834711Y-87459289D01*
X156912876Y-87511517D01*
X156965814Y-87546890D01*
X156965825Y-87546896D01*
X157019638Y-87569185D01*
X157111503Y-87607237D01*
X157266158Y-87638000D01*
X157266159Y-87638000D01*
X157423841Y-87638000D01*
X157423842Y-87638000D01*
X157578497Y-87607237D01*
X157724179Y-87546894D01*
X157855289Y-87459289D01*
X157966789Y-87347789D01*
X158054394Y-87216679D01*
X158114737Y-87070997D01*
X158145500Y-86916342D01*
X158145500Y-86758658D01*
X158114737Y-86604003D01*
X158079833Y-86519736D01*
X158054396Y-86458325D01*
X158054390Y-86458314D01*
X157996572Y-86371785D01*
X157966789Y-86327211D01*
X157855289Y-86215711D01*
X157803059Y-86180812D01*
X157724185Y-86128109D01*
X157724174Y-86128103D01*
X157578497Y-86067763D01*
X157423844Y-86037000D01*
X157423842Y-86037000D01*
X157266158Y-86037000D01*
X157266155Y-86037000D01*
X157111503Y-86067763D01*
X157111501Y-86067763D01*
X156965825Y-86128103D01*
X156965814Y-86128109D01*
X156834711Y-86215711D01*
X156834707Y-86215714D01*
X156780004Y-86270418D01*
X156725487Y-86298195D01*
X156665055Y-86288624D01*
X156639996Y-86270418D01*
X156585292Y-86215714D01*
X156585289Y-86215711D01*
X156533059Y-86180812D01*
X156454185Y-86128109D01*
X156454174Y-86128103D01*
X156308497Y-86067763D01*
X156153844Y-86037000D01*
X156153842Y-86037000D01*
X155996158Y-86037000D01*
X155996155Y-86037000D01*
X155841503Y-86067763D01*
X155841501Y-86067763D01*
X155695825Y-86128103D01*
X155695814Y-86128109D01*
X155564711Y-86215711D01*
X155564707Y-86215714D01*
X155510004Y-86270418D01*
X155455487Y-86298195D01*
X155395055Y-86288624D01*
X155369996Y-86270418D01*
X155315292Y-86215714D01*
X155315289Y-86215711D01*
X155263059Y-86180812D01*
X155184185Y-86128109D01*
X155184174Y-86128103D01*
X155038497Y-86067763D01*
X154883844Y-86037000D01*
X154883842Y-86037000D01*
X154726158Y-86037000D01*
X154726155Y-86037000D01*
X154571503Y-86067763D01*
X154571501Y-86067763D01*
X154425825Y-86128103D01*
X154425814Y-86128109D01*
X154294711Y-86215711D01*
X154294707Y-86215714D01*
X154240004Y-86270418D01*
X154185487Y-86298195D01*
X154125055Y-86288624D01*
X154099996Y-86270418D01*
X154045292Y-86215714D01*
X154045289Y-86215711D01*
X153993059Y-86180812D01*
X153914185Y-86128109D01*
X153914174Y-86128103D01*
X153768497Y-86067763D01*
X153613844Y-86037000D01*
X153613842Y-86037000D01*
X153456158Y-86037000D01*
X153456155Y-86037000D01*
X153301503Y-86067763D01*
X153301501Y-86067763D01*
X153155825Y-86128103D01*
X153155814Y-86128109D01*
X153024711Y-86215711D01*
X153024707Y-86215714D01*
X152970004Y-86270418D01*
X152915487Y-86298195D01*
X152855055Y-86288624D01*
X152829996Y-86270418D01*
X152775292Y-86215714D01*
X152775289Y-86215711D01*
X152723059Y-86180812D01*
X152644185Y-86128109D01*
X152644174Y-86128103D01*
X152498497Y-86067763D01*
X152343844Y-86037000D01*
X152343842Y-86037000D01*
X152186158Y-86037000D01*
X152186155Y-86037000D01*
X152031503Y-86067763D01*
X152031501Y-86067763D01*
X151885825Y-86128103D01*
X151885814Y-86128109D01*
X151754711Y-86215711D01*
X151754707Y-86215714D01*
X151700004Y-86270418D01*
X151645487Y-86298195D01*
X151585055Y-86288624D01*
X151559996Y-86270418D01*
X151505292Y-86215714D01*
X151505289Y-86215711D01*
X151453059Y-86180812D01*
X151374185Y-86128109D01*
X151374174Y-86128103D01*
X151228497Y-86067763D01*
X151073844Y-86037000D01*
X151073842Y-86037000D01*
X150916158Y-86037000D01*
X150916155Y-86037000D01*
X150761503Y-86067763D01*
X150761501Y-86067763D01*
X150615825Y-86128103D01*
X150615814Y-86128109D01*
X150484711Y-86215711D01*
X150484707Y-86215714D01*
X150373214Y-86327207D01*
X150373211Y-86327211D01*
X150285609Y-86458314D01*
X150285603Y-86458325D01*
X150225263Y-86604001D01*
X150225263Y-86604003D01*
X150194500Y-86758655D01*
X50975000Y-86758655D01*
X50975000Y-85671155D01*
X91774500Y-85671155D01*
X91774500Y-85828844D01*
X91805263Y-85983496D01*
X91805263Y-85983498D01*
X91865603Y-86129174D01*
X91865609Y-86129185D01*
X91918312Y-86208059D01*
X91953211Y-86260289D01*
X92064711Y-86371789D01*
X92142876Y-86424017D01*
X92195814Y-86459390D01*
X92195825Y-86459396D01*
X92249638Y-86481685D01*
X92341503Y-86519737D01*
X92496158Y-86550500D01*
X92496159Y-86550500D01*
X92653841Y-86550500D01*
X92653842Y-86550500D01*
X92808497Y-86519737D01*
X92954179Y-86459394D01*
X93085289Y-86371789D01*
X93196789Y-86260289D01*
X93284394Y-86129179D01*
X93333106Y-86011576D01*
X93372841Y-85965052D01*
X93432335Y-85950768D01*
X93462455Y-85957999D01*
X93465818Y-85959392D01*
X93465821Y-85959394D01*
X93611503Y-86019737D01*
X93766158Y-86050500D01*
X93766159Y-86050500D01*
X93923841Y-86050500D01*
X93923842Y-86050500D01*
X94078497Y-86019737D01*
X94224179Y-85959394D01*
X94355289Y-85871789D01*
X94466789Y-85760289D01*
X94554394Y-85629179D01*
X94614737Y-85483497D01*
X94645500Y-85328842D01*
X94645500Y-85171158D01*
X94627619Y-85081264D01*
X94634811Y-85020504D01*
X94676343Y-84975574D01*
X94736353Y-84963637D01*
X94762602Y-84970487D01*
X94881503Y-85019737D01*
X95036158Y-85050500D01*
X95036159Y-85050500D01*
X95193841Y-85050500D01*
X95193842Y-85050500D01*
X95348497Y-85019737D01*
X95393358Y-85001155D01*
X148924500Y-85001155D01*
X148924500Y-85158844D01*
X148955263Y-85313496D01*
X148955263Y-85313498D01*
X149015603Y-85459174D01*
X149015609Y-85459185D01*
X149068312Y-85538059D01*
X149103211Y-85590289D01*
X149214711Y-85701789D01*
X149292876Y-85754017D01*
X149345814Y-85789390D01*
X149345825Y-85789396D01*
X149399638Y-85811685D01*
X149491503Y-85849737D01*
X149646158Y-85880500D01*
X149646159Y-85880500D01*
X149803841Y-85880500D01*
X149803842Y-85880500D01*
X149958497Y-85849737D01*
X150104179Y-85789394D01*
X150235289Y-85701789D01*
X150346789Y-85590289D01*
X150434394Y-85459179D01*
X150494737Y-85313497D01*
X150525500Y-85158842D01*
X150525500Y-85001158D01*
X150525499Y-85001155D01*
X157814500Y-85001155D01*
X157814500Y-85158844D01*
X157845263Y-85313496D01*
X157845263Y-85313498D01*
X157905603Y-85459174D01*
X157905609Y-85459185D01*
X157958312Y-85538059D01*
X157993211Y-85590289D01*
X158104711Y-85701789D01*
X158182876Y-85754017D01*
X158235814Y-85789390D01*
X158235825Y-85789396D01*
X158289638Y-85811685D01*
X158381503Y-85849737D01*
X158536158Y-85880500D01*
X158536159Y-85880500D01*
X158693841Y-85880500D01*
X158693842Y-85880500D01*
X158848497Y-85849737D01*
X158994179Y-85789394D01*
X159125289Y-85701789D01*
X159236789Y-85590289D01*
X159324394Y-85459179D01*
X159384737Y-85313497D01*
X159415500Y-85158842D01*
X159415500Y-85001158D01*
X159384737Y-84846503D01*
X159324394Y-84700821D01*
X159324393Y-84700819D01*
X159324390Y-84700814D01*
X159264043Y-84610500D01*
X159236789Y-84569711D01*
X159125289Y-84458211D01*
X159073059Y-84423312D01*
X158994185Y-84370609D01*
X158994174Y-84370603D01*
X158848497Y-84310263D01*
X158693844Y-84279500D01*
X158693842Y-84279500D01*
X158536158Y-84279500D01*
X158536155Y-84279500D01*
X158381503Y-84310263D01*
X158381501Y-84310263D01*
X158235825Y-84370603D01*
X158235814Y-84370609D01*
X158104711Y-84458211D01*
X158104707Y-84458214D01*
X157993214Y-84569707D01*
X157993211Y-84569711D01*
X157905609Y-84700814D01*
X157905603Y-84700825D01*
X157845263Y-84846501D01*
X157845263Y-84846503D01*
X157814500Y-85001155D01*
X150525499Y-85001155D01*
X150494737Y-84846503D01*
X150434394Y-84700821D01*
X150434393Y-84700819D01*
X150434390Y-84700814D01*
X150374043Y-84610500D01*
X150346789Y-84569711D01*
X150235289Y-84458211D01*
X150183059Y-84423312D01*
X150104185Y-84370609D01*
X150104174Y-84370603D01*
X149958497Y-84310263D01*
X149803844Y-84279500D01*
X149803842Y-84279500D01*
X149646158Y-84279500D01*
X149646155Y-84279500D01*
X149491503Y-84310263D01*
X149491501Y-84310263D01*
X149345825Y-84370603D01*
X149345814Y-84370609D01*
X149214711Y-84458211D01*
X149214707Y-84458214D01*
X149103214Y-84569707D01*
X149103211Y-84569711D01*
X149015609Y-84700814D01*
X149015603Y-84700825D01*
X148955263Y-84846501D01*
X148955263Y-84846503D01*
X148924500Y-85001155D01*
X95393358Y-85001155D01*
X95494179Y-84959394D01*
X95625289Y-84871789D01*
X95736789Y-84760289D01*
X95824394Y-84629179D01*
X95884737Y-84483497D01*
X95915500Y-84328842D01*
X95915500Y-84171158D01*
X95897619Y-84081264D01*
X95904811Y-84020504D01*
X95946343Y-83975574D01*
X96006353Y-83963637D01*
X96032602Y-83970487D01*
X96151503Y-84019737D01*
X96306158Y-84050500D01*
X96306159Y-84050500D01*
X96463841Y-84050500D01*
X96463842Y-84050500D01*
X96618497Y-84019737D01*
X96764179Y-83959394D01*
X96895289Y-83871789D01*
X97006789Y-83760289D01*
X97094394Y-83629179D01*
X97154737Y-83483497D01*
X97185500Y-83328842D01*
X97185500Y-83171158D01*
X97155295Y-83019308D01*
X97155295Y-82980691D01*
X97185500Y-82828842D01*
X97185500Y-82671158D01*
X97185499Y-82671155D01*
X112094500Y-82671155D01*
X112094500Y-82828844D01*
X112125263Y-82983496D01*
X112125263Y-82983498D01*
X112185605Y-83129178D01*
X112229585Y-83194998D01*
X112246194Y-83253886D01*
X112229585Y-83305002D01*
X112185605Y-83370821D01*
X112125263Y-83516501D01*
X112125263Y-83516503D01*
X112094500Y-83671155D01*
X112094500Y-83828844D01*
X112125263Y-83983496D01*
X112125263Y-83983498D01*
X112185603Y-84129174D01*
X112185609Y-84129185D01*
X112213656Y-84171159D01*
X112273211Y-84260289D01*
X112384711Y-84371789D01*
X112462876Y-84424017D01*
X112515814Y-84459390D01*
X112515825Y-84459396D01*
X112569638Y-84481685D01*
X112661503Y-84519737D01*
X112816158Y-84550500D01*
X112816159Y-84550500D01*
X112973841Y-84550500D01*
X112973842Y-84550500D01*
X113128497Y-84519737D01*
X113274179Y-84459394D01*
X113405289Y-84371789D01*
X113516789Y-84260289D01*
X113604394Y-84129179D01*
X113664737Y-83983497D01*
X113695500Y-83828842D01*
X113695500Y-83671158D01*
X113664737Y-83516503D01*
X113604394Y-83370821D01*
X113560413Y-83305000D01*
X113543805Y-83246114D01*
X113560413Y-83194999D01*
X113604394Y-83129179D01*
X113664737Y-82983497D01*
X113695500Y-82828842D01*
X113695500Y-82671158D01*
X113677619Y-82581264D01*
X113684811Y-82520504D01*
X113726343Y-82475574D01*
X113786353Y-82463637D01*
X113812602Y-82470487D01*
X113931503Y-82519737D01*
X114086158Y-82550500D01*
X114086159Y-82550500D01*
X114243841Y-82550500D01*
X114243842Y-82550500D01*
X114398497Y-82519737D01*
X114544179Y-82459394D01*
X114675289Y-82371789D01*
X114786789Y-82260289D01*
X114846347Y-82171155D01*
X117174500Y-82171155D01*
X117174500Y-82328844D01*
X117183043Y-82371789D01*
X117200819Y-82461158D01*
X117205263Y-82483496D01*
X117205263Y-82483498D01*
X117265605Y-82629178D01*
X117309585Y-82694998D01*
X117326194Y-82753886D01*
X117309585Y-82805002D01*
X117265605Y-82870821D01*
X117205263Y-83016501D01*
X117205263Y-83016503D01*
X117174500Y-83171155D01*
X117174500Y-83328844D01*
X117205263Y-83483496D01*
X117205263Y-83483498D01*
X117265603Y-83629174D01*
X117265609Y-83629185D01*
X117293656Y-83671159D01*
X117353211Y-83760289D01*
X117464711Y-83871789D01*
X117534969Y-83918734D01*
X117595814Y-83959390D01*
X117595825Y-83959396D01*
X117622602Y-83970487D01*
X117741503Y-84019737D01*
X117896158Y-84050500D01*
X117896159Y-84050500D01*
X118053841Y-84050500D01*
X118053842Y-84050500D01*
X118208497Y-84019737D01*
X118354179Y-83959394D01*
X118485289Y-83871789D01*
X118596789Y-83760289D01*
X118684394Y-83629179D01*
X118744737Y-83483497D01*
X118775500Y-83328842D01*
X118775500Y-83171158D01*
X118744737Y-83016503D01*
X118684394Y-82870821D01*
X118640413Y-82805000D01*
X118633380Y-82780065D01*
X118623907Y-82755942D01*
X118625214Y-82751113D01*
X118623805Y-82746114D01*
X118639288Y-82696721D01*
X118639818Y-82695889D01*
X118656345Y-82671155D01*
X122254500Y-82671155D01*
X122254500Y-82828844D01*
X122285263Y-82983496D01*
X122285263Y-82983498D01*
X122345605Y-83129178D01*
X122389585Y-83194998D01*
X122406194Y-83253886D01*
X122389585Y-83305002D01*
X122345605Y-83370821D01*
X122285263Y-83516501D01*
X122285263Y-83516503D01*
X122254500Y-83671155D01*
X122254500Y-83828844D01*
X122285263Y-83983496D01*
X122285263Y-83983498D01*
X122345603Y-84129174D01*
X122345609Y-84129185D01*
X122373656Y-84171159D01*
X122433211Y-84260289D01*
X122544711Y-84371789D01*
X122622876Y-84424017D01*
X122675814Y-84459390D01*
X122675825Y-84459396D01*
X122729638Y-84481685D01*
X122821503Y-84519737D01*
X122976158Y-84550500D01*
X122976159Y-84550500D01*
X123133841Y-84550500D01*
X123133842Y-84550500D01*
X123288497Y-84519737D01*
X123434179Y-84459394D01*
X123565289Y-84371789D01*
X123676789Y-84260289D01*
X123764394Y-84129179D01*
X123824737Y-83983497D01*
X123855500Y-83828842D01*
X123855500Y-83671158D01*
X123824737Y-83516503D01*
X123764394Y-83370821D01*
X123720413Y-83305000D01*
X123703805Y-83246114D01*
X123720413Y-83194999D01*
X123764394Y-83129179D01*
X123824737Y-82983497D01*
X123855500Y-82828842D01*
X123855500Y-82671158D01*
X123837619Y-82581264D01*
X123844811Y-82520504D01*
X123886343Y-82475574D01*
X123946353Y-82463637D01*
X123972602Y-82470487D01*
X124091503Y-82519737D01*
X124246158Y-82550500D01*
X124246159Y-82550500D01*
X124403841Y-82550500D01*
X124403842Y-82550500D01*
X124558497Y-82519737D01*
X124704179Y-82459394D01*
X124835289Y-82371789D01*
X124946789Y-82260289D01*
X125006347Y-82171155D01*
X132414500Y-82171155D01*
X132414500Y-82328844D01*
X132423043Y-82371789D01*
X132440819Y-82461158D01*
X132445263Y-82483496D01*
X132445263Y-82483498D01*
X132505605Y-82629178D01*
X132549585Y-82694998D01*
X132566194Y-82753886D01*
X132549585Y-82805002D01*
X132505605Y-82870821D01*
X132445263Y-83016501D01*
X132445263Y-83016503D01*
X132414500Y-83171155D01*
X132414500Y-83328844D01*
X132445263Y-83483496D01*
X132445263Y-83483498D01*
X132505603Y-83629174D01*
X132505609Y-83629185D01*
X132533656Y-83671159D01*
X132593211Y-83760289D01*
X132704711Y-83871789D01*
X132774969Y-83918734D01*
X132835814Y-83959390D01*
X132835825Y-83959396D01*
X132862602Y-83970487D01*
X132981503Y-84019737D01*
X133136158Y-84050500D01*
X133136159Y-84050500D01*
X133293841Y-84050500D01*
X133293842Y-84050500D01*
X133448497Y-84019737D01*
X133594179Y-83959394D01*
X133725289Y-83871789D01*
X133836789Y-83760289D01*
X133856256Y-83731155D01*
X142574500Y-83731155D01*
X142574500Y-83888844D01*
X142580446Y-83918734D01*
X142604687Y-84040603D01*
X142605263Y-84043496D01*
X142605263Y-84043498D01*
X142665603Y-84189174D01*
X142665609Y-84189185D01*
X142713120Y-84260289D01*
X142753211Y-84320289D01*
X142864711Y-84431789D01*
X142906019Y-84459390D01*
X142995814Y-84519390D01*
X142995825Y-84519396D01*
X143049638Y-84541685D01*
X143141503Y-84579737D01*
X143296158Y-84610500D01*
X143296159Y-84610500D01*
X143453841Y-84610500D01*
X143453842Y-84610500D01*
X143608497Y-84579737D01*
X143754179Y-84519394D01*
X143885289Y-84431789D01*
X143996789Y-84320289D01*
X144084394Y-84189179D01*
X144144737Y-84043497D01*
X144175500Y-83888842D01*
X144175500Y-83731158D01*
X144144737Y-83576503D01*
X144119884Y-83516501D01*
X144084396Y-83430825D01*
X144084390Y-83430814D01*
X144016255Y-83328844D01*
X143996789Y-83299711D01*
X143885289Y-83188211D01*
X143859769Y-83171159D01*
X143754186Y-83100609D01*
X143754174Y-83100603D01*
X143608497Y-83040263D01*
X143453844Y-83009500D01*
X143453842Y-83009500D01*
X143296158Y-83009500D01*
X143296155Y-83009500D01*
X143141503Y-83040263D01*
X143141501Y-83040263D01*
X142995825Y-83100603D01*
X142995814Y-83100609D01*
X142864711Y-83188211D01*
X142864707Y-83188214D01*
X142753214Y-83299707D01*
X142753211Y-83299711D01*
X142665609Y-83430814D01*
X142665603Y-83430825D01*
X142605263Y-83576501D01*
X142605263Y-83576503D01*
X142574500Y-83731155D01*
X133856256Y-83731155D01*
X133924394Y-83629179D01*
X133984737Y-83483497D01*
X134015500Y-83328842D01*
X134015500Y-83171158D01*
X133984737Y-83016503D01*
X133924394Y-82870821D01*
X133880413Y-82805000D01*
X133863805Y-82746114D01*
X133880413Y-82694999D01*
X133924394Y-82629179D01*
X133984737Y-82483497D01*
X133989181Y-82461155D01*
X143844500Y-82461155D01*
X143844500Y-82618844D01*
X143875263Y-82773496D01*
X143875263Y-82773498D01*
X143935603Y-82919174D01*
X143935609Y-82919186D01*
X144005929Y-83024425D01*
X144023211Y-83050289D01*
X144134711Y-83161789D01*
X144174259Y-83188214D01*
X144265814Y-83249390D01*
X144265825Y-83249396D01*
X144319638Y-83271685D01*
X144411503Y-83309737D01*
X144566158Y-83340500D01*
X144566159Y-83340500D01*
X144723841Y-83340500D01*
X144723842Y-83340500D01*
X144878497Y-83309737D01*
X145024179Y-83249394D01*
X145155289Y-83161789D01*
X145266789Y-83050289D01*
X145354394Y-82919179D01*
X145414737Y-82773497D01*
X145445500Y-82618842D01*
X145445500Y-82461158D01*
X145445499Y-82461155D01*
X155274500Y-82461155D01*
X155274500Y-82618844D01*
X155305263Y-82773496D01*
X155305263Y-82773498D01*
X155365603Y-82919174D01*
X155365609Y-82919185D01*
X155418312Y-82998059D01*
X155453211Y-83050289D01*
X155564711Y-83161789D01*
X155614412Y-83194998D01*
X155695814Y-83249390D01*
X155695825Y-83249396D01*
X155749638Y-83271685D01*
X155841503Y-83309737D01*
X155996158Y-83340500D01*
X155996159Y-83340500D01*
X156153841Y-83340500D01*
X156153842Y-83340500D01*
X156308497Y-83309737D01*
X156454179Y-83249394D01*
X156585289Y-83161789D01*
X156696789Y-83050289D01*
X156784394Y-82919179D01*
X156844737Y-82773497D01*
X156875500Y-82618842D01*
X156875500Y-82461158D01*
X156844737Y-82306503D01*
X156788676Y-82171158D01*
X156784396Y-82160825D01*
X156784390Y-82160814D01*
X156724043Y-82070500D01*
X156696789Y-82029711D01*
X156585289Y-81918211D01*
X156514365Y-81870821D01*
X156454185Y-81830609D01*
X156454174Y-81830603D01*
X156308497Y-81770263D01*
X156153844Y-81739500D01*
X156153842Y-81739500D01*
X155996158Y-81739500D01*
X155996155Y-81739500D01*
X155841503Y-81770263D01*
X155841501Y-81770263D01*
X155695825Y-81830603D01*
X155695814Y-81830609D01*
X155564711Y-81918211D01*
X155564707Y-81918214D01*
X155453214Y-82029707D01*
X155453211Y-82029711D01*
X155365609Y-82160814D01*
X155365603Y-82160825D01*
X155305263Y-82306501D01*
X155305263Y-82306503D01*
X155274500Y-82461155D01*
X145445499Y-82461155D01*
X145414737Y-82306503D01*
X145358676Y-82171158D01*
X145354396Y-82160825D01*
X145354390Y-82160814D01*
X145294043Y-82070499D01*
X145266789Y-82029711D01*
X145155289Y-81918211D01*
X145149002Y-81914010D01*
X145024186Y-81830609D01*
X145024174Y-81830603D01*
X144878497Y-81770263D01*
X144723844Y-81739500D01*
X144723842Y-81739500D01*
X144566158Y-81739500D01*
X144566155Y-81739500D01*
X144411503Y-81770263D01*
X144411501Y-81770263D01*
X144265825Y-81830603D01*
X144265814Y-81830609D01*
X144134711Y-81918211D01*
X144134707Y-81918214D01*
X144023214Y-82029707D01*
X144023211Y-82029711D01*
X143935609Y-82160814D01*
X143935603Y-82160825D01*
X143875263Y-82306501D01*
X143875263Y-82306503D01*
X143844500Y-82461155D01*
X133989181Y-82461155D01*
X134015500Y-82328842D01*
X134015500Y-82171158D01*
X133997619Y-82081264D01*
X134004811Y-82020504D01*
X134046343Y-81975574D01*
X134106353Y-81963637D01*
X134132602Y-81970487D01*
X134251503Y-82019737D01*
X134406158Y-82050500D01*
X134406159Y-82050500D01*
X134563841Y-82050500D01*
X134563842Y-82050500D01*
X134718497Y-82019737D01*
X134864179Y-81959394D01*
X134995289Y-81871789D01*
X135106789Y-81760289D01*
X135194394Y-81629179D01*
X135254737Y-81483497D01*
X135285500Y-81328842D01*
X135285500Y-81191155D01*
X145114500Y-81191155D01*
X145114500Y-81191158D01*
X145114500Y-81348842D01*
X145140641Y-81480263D01*
X145145263Y-81503496D01*
X145145263Y-81503498D01*
X145205603Y-81649174D01*
X145205609Y-81649186D01*
X145279847Y-81760289D01*
X145293211Y-81780289D01*
X145404711Y-81891789D01*
X145444259Y-81918214D01*
X145535814Y-81979390D01*
X145535825Y-81979396D01*
X145589638Y-82001685D01*
X145681503Y-82039737D01*
X145836158Y-82070500D01*
X145836159Y-82070500D01*
X145993841Y-82070500D01*
X145993842Y-82070500D01*
X146148497Y-82039737D01*
X146294179Y-81979394D01*
X146425289Y-81891789D01*
X146536789Y-81780289D01*
X146624394Y-81649179D01*
X146684737Y-81503497D01*
X146715500Y-81348842D01*
X146715500Y-81191158D01*
X146684737Y-81036503D01*
X146624394Y-80890821D01*
X146624393Y-80890819D01*
X146624390Y-80890814D01*
X146576712Y-80819461D01*
X146536789Y-80759711D01*
X146425289Y-80648211D01*
X146396806Y-80629179D01*
X146294186Y-80560609D01*
X146294174Y-80560603D01*
X146148497Y-80500263D01*
X145993844Y-80469500D01*
X145993842Y-80469500D01*
X145836158Y-80469500D01*
X145836155Y-80469500D01*
X145681503Y-80500263D01*
X145681501Y-80500263D01*
X145535825Y-80560603D01*
X145535814Y-80560609D01*
X145404711Y-80648211D01*
X145404707Y-80648214D01*
X145293214Y-80759707D01*
X145293211Y-80759711D01*
X145205609Y-80890814D01*
X145205603Y-80890825D01*
X145145263Y-81036501D01*
X145145263Y-81036503D01*
X145114500Y-81191155D01*
X135285500Y-81191155D01*
X135285500Y-81171158D01*
X135254737Y-81016503D01*
X135194394Y-80870821D01*
X135150413Y-80805000D01*
X135133805Y-80746114D01*
X135150413Y-80694999D01*
X135194394Y-80629179D01*
X135254737Y-80483497D01*
X135285500Y-80328842D01*
X135285500Y-80171158D01*
X135254737Y-80016503D01*
X135215243Y-79921155D01*
X146384500Y-79921155D01*
X146384500Y-80078844D01*
X146415263Y-80233496D01*
X146415263Y-80233498D01*
X146475603Y-80379174D01*
X146475609Y-80379186D01*
X146556512Y-80500263D01*
X146563211Y-80510289D01*
X146674711Y-80621789D01*
X146714259Y-80648214D01*
X146805814Y-80709390D01*
X146805825Y-80709396D01*
X146859638Y-80731685D01*
X146951503Y-80769737D01*
X147106158Y-80800500D01*
X147106159Y-80800500D01*
X147263841Y-80800500D01*
X147263842Y-80800500D01*
X147418497Y-80769737D01*
X147564179Y-80709394D01*
X147695289Y-80621789D01*
X147806789Y-80510289D01*
X147894394Y-80379179D01*
X147954737Y-80233497D01*
X147985500Y-80078842D01*
X147985500Y-79921158D01*
X147985499Y-79921155D01*
X156544500Y-79921155D01*
X156544500Y-80078844D01*
X156575263Y-80233496D01*
X156575263Y-80233498D01*
X156635603Y-80379174D01*
X156635609Y-80379185D01*
X156688312Y-80458059D01*
X156723211Y-80510289D01*
X156834711Y-80621789D01*
X156908592Y-80671155D01*
X156965814Y-80709390D01*
X156965825Y-80709396D01*
X157019638Y-80731685D01*
X157111503Y-80769737D01*
X157266158Y-80800500D01*
X157266159Y-80800500D01*
X157423841Y-80800500D01*
X157423842Y-80800500D01*
X157578497Y-80769737D01*
X157724179Y-80709394D01*
X157855289Y-80621789D01*
X157966789Y-80510289D01*
X158054394Y-80379179D01*
X158114737Y-80233497D01*
X158145500Y-80078842D01*
X158145500Y-79921158D01*
X158114737Y-79766503D01*
X158075243Y-79671155D01*
X158054396Y-79620825D01*
X158054390Y-79620814D01*
X157994043Y-79530500D01*
X157966789Y-79489711D01*
X157855289Y-79378211D01*
X157803059Y-79343312D01*
X157724185Y-79290609D01*
X157724174Y-79290603D01*
X157578497Y-79230263D01*
X157423844Y-79199500D01*
X157423842Y-79199500D01*
X157266158Y-79199500D01*
X157266155Y-79199500D01*
X157111503Y-79230263D01*
X157111501Y-79230263D01*
X156965825Y-79290603D01*
X156965814Y-79290609D01*
X156834711Y-79378211D01*
X156834707Y-79378214D01*
X156723214Y-79489707D01*
X156723211Y-79489711D01*
X156635609Y-79620814D01*
X156635603Y-79620825D01*
X156575263Y-79766501D01*
X156575263Y-79766503D01*
X156544500Y-79921155D01*
X147985499Y-79921155D01*
X147954737Y-79766503D01*
X147915243Y-79671155D01*
X147894396Y-79620825D01*
X147894390Y-79620814D01*
X147834043Y-79530499D01*
X147806789Y-79489711D01*
X147695289Y-79378211D01*
X147685678Y-79371789D01*
X147564186Y-79290609D01*
X147564174Y-79290603D01*
X147418497Y-79230263D01*
X147263844Y-79199500D01*
X147263842Y-79199500D01*
X147106158Y-79199500D01*
X147106155Y-79199500D01*
X146951503Y-79230263D01*
X146951501Y-79230263D01*
X146805825Y-79290603D01*
X146805814Y-79290609D01*
X146674711Y-79378211D01*
X146674707Y-79378214D01*
X146563214Y-79489707D01*
X146563211Y-79489711D01*
X146475609Y-79620814D01*
X146475603Y-79620825D01*
X146415263Y-79766501D01*
X146415263Y-79766503D01*
X146384500Y-79921155D01*
X135215243Y-79921155D01*
X135194795Y-79871788D01*
X135194396Y-79870825D01*
X135194390Y-79870814D01*
X135159017Y-79817876D01*
X135106789Y-79739711D01*
X134995289Y-79628211D01*
X134943059Y-79593312D01*
X134864185Y-79540609D01*
X134864174Y-79540603D01*
X134718497Y-79480263D01*
X134563844Y-79449500D01*
X134563842Y-79449500D01*
X134406158Y-79449500D01*
X134406155Y-79449500D01*
X134251503Y-79480263D01*
X134251501Y-79480263D01*
X134105825Y-79540603D01*
X134105814Y-79540609D01*
X133974711Y-79628211D01*
X133974707Y-79628214D01*
X133863214Y-79739707D01*
X133863211Y-79739711D01*
X133775609Y-79870814D01*
X133775603Y-79870825D01*
X133715263Y-80016501D01*
X133715263Y-80016503D01*
X133684500Y-80171155D01*
X133684500Y-80328844D01*
X133715263Y-80483496D01*
X133715263Y-80483498D01*
X133775605Y-80629178D01*
X133819585Y-80694998D01*
X133836194Y-80753886D01*
X133819585Y-80805002D01*
X133775605Y-80870821D01*
X133715263Y-81016501D01*
X133715263Y-81016503D01*
X133684500Y-81171155D01*
X133684500Y-81328845D01*
X133702380Y-81418734D01*
X133695188Y-81479496D01*
X133653655Y-81524425D01*
X133593645Y-81536362D01*
X133567397Y-81529512D01*
X133448497Y-81480263D01*
X133293844Y-81449500D01*
X133293842Y-81449500D01*
X133136158Y-81449500D01*
X133136155Y-81449500D01*
X132981503Y-81480263D01*
X132981501Y-81480263D01*
X132835825Y-81540603D01*
X132835814Y-81540609D01*
X132704711Y-81628211D01*
X132704707Y-81628214D01*
X132593214Y-81739707D01*
X132593211Y-81739711D01*
X132505609Y-81870814D01*
X132505603Y-81870825D01*
X132445263Y-82016501D01*
X132445263Y-82016503D01*
X132414500Y-82171155D01*
X125006347Y-82171155D01*
X125034394Y-82129179D01*
X125094737Y-81983497D01*
X125125500Y-81828842D01*
X125125500Y-81671158D01*
X125094737Y-81516503D01*
X125034394Y-81370821D01*
X124990413Y-81305000D01*
X124973805Y-81246114D01*
X124990413Y-81194999D01*
X125034394Y-81129179D01*
X125094737Y-80983497D01*
X125125500Y-80828842D01*
X125125500Y-80671158D01*
X125094737Y-80516503D01*
X125037859Y-80379186D01*
X125034396Y-80370825D01*
X125034390Y-80370814D01*
X124999017Y-80317876D01*
X124946789Y-80239711D01*
X124835289Y-80128211D01*
X124783059Y-80093312D01*
X124704185Y-80040609D01*
X124704174Y-80040603D01*
X124558497Y-79980263D01*
X124403844Y-79949500D01*
X124403842Y-79949500D01*
X124246158Y-79949500D01*
X124246155Y-79949500D01*
X124091503Y-79980263D01*
X124091501Y-79980263D01*
X123945825Y-80040603D01*
X123945814Y-80040609D01*
X123814711Y-80128211D01*
X123814707Y-80128214D01*
X123703214Y-80239707D01*
X123703211Y-80239711D01*
X123615609Y-80370814D01*
X123615603Y-80370825D01*
X123555263Y-80516501D01*
X123555263Y-80516503D01*
X123524500Y-80671155D01*
X123524500Y-80828844D01*
X123555263Y-80983496D01*
X123555263Y-80983498D01*
X123615605Y-81129178D01*
X123659585Y-81194998D01*
X123676194Y-81253886D01*
X123659585Y-81305002D01*
X123615605Y-81370821D01*
X123555263Y-81516501D01*
X123555263Y-81516503D01*
X123524500Y-81671155D01*
X123524500Y-81828845D01*
X123542380Y-81918734D01*
X123535188Y-81979496D01*
X123493655Y-82024425D01*
X123433645Y-82036362D01*
X123407397Y-82029512D01*
X123288497Y-81980263D01*
X123133844Y-81949500D01*
X123133842Y-81949500D01*
X122976158Y-81949500D01*
X122976155Y-81949500D01*
X122821503Y-81980263D01*
X122821501Y-81980263D01*
X122675825Y-82040603D01*
X122675814Y-82040609D01*
X122544711Y-82128211D01*
X122544707Y-82128214D01*
X122433214Y-82239707D01*
X122433211Y-82239711D01*
X122345609Y-82370814D01*
X122345603Y-82370825D01*
X122285263Y-82516501D01*
X122285263Y-82516503D01*
X122254500Y-82671155D01*
X118656345Y-82671155D01*
X118684394Y-82629179D01*
X118744737Y-82483497D01*
X118775500Y-82328842D01*
X118775500Y-82171158D01*
X118757619Y-82081264D01*
X118764811Y-82020504D01*
X118806343Y-81975574D01*
X118866353Y-81963637D01*
X118892602Y-81970487D01*
X119011503Y-82019737D01*
X119166158Y-82050500D01*
X119166159Y-82050500D01*
X119323841Y-82050500D01*
X119323842Y-82050500D01*
X119478497Y-82019737D01*
X119624179Y-81959394D01*
X119755289Y-81871789D01*
X119866789Y-81760289D01*
X119954394Y-81629179D01*
X120014737Y-81483497D01*
X120045500Y-81328842D01*
X120045500Y-81171158D01*
X120014737Y-81016503D01*
X119954394Y-80870821D01*
X119910413Y-80805000D01*
X119893805Y-80746114D01*
X119910413Y-80694999D01*
X119954394Y-80629179D01*
X120014737Y-80483497D01*
X120045500Y-80328842D01*
X120045500Y-80171158D01*
X120014737Y-80016503D01*
X119954795Y-79871788D01*
X119954396Y-79870825D01*
X119954390Y-79870814D01*
X119919017Y-79817876D01*
X119866789Y-79739711D01*
X119755289Y-79628211D01*
X119703059Y-79593312D01*
X119624185Y-79540609D01*
X119624174Y-79540603D01*
X119478497Y-79480263D01*
X119323844Y-79449500D01*
X119323842Y-79449500D01*
X119166158Y-79449500D01*
X119166155Y-79449500D01*
X119011503Y-79480263D01*
X119011501Y-79480263D01*
X118865825Y-79540603D01*
X118865814Y-79540609D01*
X118734711Y-79628211D01*
X118734707Y-79628214D01*
X118623214Y-79739707D01*
X118623211Y-79739711D01*
X118535609Y-79870814D01*
X118535603Y-79870825D01*
X118475263Y-80016501D01*
X118475263Y-80016503D01*
X118444500Y-80171155D01*
X118444500Y-80328844D01*
X118475263Y-80483496D01*
X118475263Y-80483498D01*
X118535605Y-80629178D01*
X118579585Y-80694998D01*
X118596194Y-80753886D01*
X118579585Y-80805002D01*
X118535605Y-80870821D01*
X118475263Y-81016501D01*
X118475263Y-81016503D01*
X118444500Y-81171155D01*
X118444500Y-81328845D01*
X118462380Y-81418734D01*
X118455188Y-81479496D01*
X118413655Y-81524425D01*
X118353645Y-81536362D01*
X118327397Y-81529512D01*
X118208497Y-81480263D01*
X118053844Y-81449500D01*
X118053842Y-81449500D01*
X117896158Y-81449500D01*
X117896155Y-81449500D01*
X117741503Y-81480263D01*
X117741501Y-81480263D01*
X117595825Y-81540603D01*
X117595814Y-81540609D01*
X117464711Y-81628211D01*
X117464707Y-81628214D01*
X117353214Y-81739707D01*
X117353211Y-81739711D01*
X117265609Y-81870814D01*
X117265603Y-81870825D01*
X117205263Y-82016501D01*
X117205263Y-82016503D01*
X117174500Y-82171155D01*
X114846347Y-82171155D01*
X114874394Y-82129179D01*
X114934737Y-81983497D01*
X114965500Y-81828842D01*
X114965500Y-81671158D01*
X114934737Y-81516503D01*
X114874394Y-81370821D01*
X114830413Y-81305000D01*
X114813805Y-81246114D01*
X114830413Y-81194999D01*
X114874394Y-81129179D01*
X114934737Y-80983497D01*
X114965500Y-80828842D01*
X114965500Y-80671158D01*
X114934737Y-80516503D01*
X114877859Y-80379186D01*
X114874396Y-80370825D01*
X114874390Y-80370814D01*
X114839017Y-80317876D01*
X114786789Y-80239711D01*
X114675289Y-80128211D01*
X114623059Y-80093312D01*
X114544185Y-80040609D01*
X114544174Y-80040603D01*
X114398497Y-79980263D01*
X114243844Y-79949500D01*
X114243842Y-79949500D01*
X114086158Y-79949500D01*
X114086155Y-79949500D01*
X113931503Y-79980263D01*
X113931501Y-79980263D01*
X113785825Y-80040603D01*
X113785814Y-80040609D01*
X113654711Y-80128211D01*
X113654707Y-80128214D01*
X113543214Y-80239707D01*
X113543211Y-80239711D01*
X113455609Y-80370814D01*
X113455603Y-80370825D01*
X113395263Y-80516501D01*
X113395263Y-80516503D01*
X113364500Y-80671155D01*
X113364500Y-80828844D01*
X113395263Y-80983496D01*
X113395263Y-80983498D01*
X113455605Y-81129178D01*
X113499585Y-81194998D01*
X113516194Y-81253886D01*
X113499585Y-81305002D01*
X113455605Y-81370821D01*
X113395263Y-81516501D01*
X113395263Y-81516503D01*
X113364500Y-81671155D01*
X113364500Y-81828845D01*
X113382380Y-81918734D01*
X113375188Y-81979496D01*
X113333655Y-82024425D01*
X113273645Y-82036362D01*
X113247397Y-82029512D01*
X113128497Y-81980263D01*
X112973844Y-81949500D01*
X112973842Y-81949500D01*
X112816158Y-81949500D01*
X112816155Y-81949500D01*
X112661503Y-81980263D01*
X112661501Y-81980263D01*
X112515825Y-82040603D01*
X112515814Y-82040609D01*
X112384711Y-82128211D01*
X112384707Y-82128214D01*
X112273214Y-82239707D01*
X112273211Y-82239711D01*
X112185609Y-82370814D01*
X112185603Y-82370825D01*
X112125263Y-82516501D01*
X112125263Y-82516503D01*
X112094500Y-82671155D01*
X97185499Y-82671155D01*
X97154737Y-82516503D01*
X97094795Y-82371788D01*
X97094396Y-82370825D01*
X97094390Y-82370814D01*
X97051417Y-82306501D01*
X97006789Y-82239711D01*
X96895289Y-82128211D01*
X96843059Y-82093312D01*
X96764185Y-82040609D01*
X96764174Y-82040603D01*
X96618497Y-81980263D01*
X96463844Y-81949500D01*
X96463842Y-81949500D01*
X96306158Y-81949500D01*
X96306155Y-81949500D01*
X96151503Y-81980263D01*
X96151501Y-81980263D01*
X96005825Y-82040603D01*
X96005814Y-82040609D01*
X95874711Y-82128211D01*
X95874707Y-82128214D01*
X95763214Y-82239707D01*
X95763211Y-82239711D01*
X95675609Y-82370814D01*
X95675603Y-82370825D01*
X95615263Y-82516501D01*
X95615263Y-82516503D01*
X95584500Y-82671155D01*
X95584500Y-82828844D01*
X95602381Y-82918734D01*
X95595189Y-82979495D01*
X95553657Y-83024425D01*
X95493647Y-83036362D01*
X95467398Y-83029512D01*
X95348497Y-82980263D01*
X95193844Y-82949500D01*
X95193842Y-82949500D01*
X95036158Y-82949500D01*
X95036155Y-82949500D01*
X94881503Y-82980263D01*
X94881501Y-82980263D01*
X94735825Y-83040603D01*
X94735814Y-83040609D01*
X94604711Y-83128211D01*
X94604707Y-83128214D01*
X94493214Y-83239707D01*
X94493211Y-83239711D01*
X94405609Y-83370814D01*
X94405603Y-83370825D01*
X94345263Y-83516501D01*
X94345263Y-83516503D01*
X94314500Y-83671155D01*
X94314500Y-83828844D01*
X94332381Y-83918734D01*
X94325189Y-83979495D01*
X94283657Y-84024425D01*
X94223647Y-84036362D01*
X94197398Y-84029512D01*
X94078497Y-83980263D01*
X93923844Y-83949500D01*
X93923842Y-83949500D01*
X93766158Y-83949500D01*
X93766155Y-83949500D01*
X93611503Y-83980263D01*
X93611501Y-83980263D01*
X93465825Y-84040603D01*
X93465814Y-84040609D01*
X93334711Y-84128211D01*
X93334707Y-84128214D01*
X93223214Y-84239707D01*
X93223211Y-84239711D01*
X93135609Y-84370814D01*
X93135603Y-84370825D01*
X93075263Y-84516501D01*
X93075263Y-84516503D01*
X93044500Y-84671155D01*
X93044500Y-84828844D01*
X93062381Y-84918734D01*
X93055189Y-84979495D01*
X93013657Y-85024425D01*
X92953647Y-85036362D01*
X92927398Y-85029512D01*
X92808497Y-84980263D01*
X92653844Y-84949500D01*
X92653842Y-84949500D01*
X92496158Y-84949500D01*
X92496155Y-84949500D01*
X92341503Y-84980263D01*
X92341501Y-84980263D01*
X92195825Y-85040603D01*
X92195814Y-85040609D01*
X92064711Y-85128211D01*
X92064707Y-85128214D01*
X91953214Y-85239707D01*
X91953211Y-85239711D01*
X91865609Y-85370814D01*
X91865603Y-85370825D01*
X91805263Y-85516501D01*
X91805263Y-85516503D01*
X91774500Y-85671155D01*
X50975000Y-85671155D01*
X50975000Y-79671155D01*
X69512000Y-79671155D01*
X69512000Y-79828844D01*
X69542763Y-79983496D01*
X69542763Y-79983498D01*
X69603103Y-80129174D01*
X69603109Y-80129185D01*
X69631156Y-80171159D01*
X69690711Y-80260289D01*
X69802211Y-80371789D01*
X69880376Y-80424017D01*
X69933314Y-80459390D01*
X69933325Y-80459396D01*
X69957719Y-80469500D01*
X70079003Y-80519737D01*
X70233658Y-80550500D01*
X70233659Y-80550500D01*
X70391341Y-80550500D01*
X70391342Y-80550500D01*
X70545997Y-80519737D01*
X70691679Y-80459394D01*
X70822789Y-80371789D01*
X70934289Y-80260289D01*
X71021894Y-80129179D01*
X71082237Y-79983497D01*
X71113000Y-79828842D01*
X71113000Y-79671158D01*
X71112999Y-79671155D01*
X104512000Y-79671155D01*
X104512000Y-79828844D01*
X104542763Y-79983496D01*
X104542763Y-79983498D01*
X104603103Y-80129174D01*
X104603109Y-80129185D01*
X104631156Y-80171159D01*
X104690711Y-80260289D01*
X104802211Y-80371789D01*
X104880376Y-80424017D01*
X104933314Y-80459390D01*
X104933325Y-80459396D01*
X104957719Y-80469500D01*
X105079003Y-80519737D01*
X105233658Y-80550500D01*
X105233659Y-80550500D01*
X105391341Y-80550500D01*
X105391342Y-80550500D01*
X105545997Y-80519737D01*
X105691679Y-80459394D01*
X105822789Y-80371789D01*
X105934289Y-80260289D01*
X106021894Y-80129179D01*
X106082237Y-79983497D01*
X106113000Y-79828842D01*
X106113000Y-79671158D01*
X106082237Y-79516503D01*
X106054484Y-79449500D01*
X106021896Y-79370825D01*
X106021890Y-79370814D01*
X105968294Y-79290603D01*
X105934289Y-79239711D01*
X105822789Y-79128211D01*
X105770559Y-79093312D01*
X105691685Y-79040609D01*
X105691674Y-79040603D01*
X105545997Y-78980263D01*
X105391344Y-78949500D01*
X105391342Y-78949500D01*
X105233658Y-78949500D01*
X105233655Y-78949500D01*
X105079003Y-78980263D01*
X105079001Y-78980263D01*
X104933325Y-79040603D01*
X104933314Y-79040609D01*
X104802211Y-79128211D01*
X104802207Y-79128214D01*
X104690714Y-79239707D01*
X104690711Y-79239711D01*
X104603109Y-79370814D01*
X104603103Y-79370825D01*
X104542763Y-79516501D01*
X104542763Y-79516503D01*
X104512000Y-79671155D01*
X71112999Y-79671155D01*
X71082237Y-79516503D01*
X71054484Y-79449500D01*
X71021896Y-79370825D01*
X71021890Y-79370814D01*
X70968294Y-79290603D01*
X70934289Y-79239711D01*
X70822789Y-79128211D01*
X70770559Y-79093312D01*
X70691685Y-79040609D01*
X70691674Y-79040603D01*
X70545997Y-78980263D01*
X70391344Y-78949500D01*
X70391342Y-78949500D01*
X70233658Y-78949500D01*
X70233655Y-78949500D01*
X70079003Y-78980263D01*
X70079001Y-78980263D01*
X69933325Y-79040603D01*
X69933314Y-79040609D01*
X69802211Y-79128211D01*
X69802207Y-79128214D01*
X69690714Y-79239707D01*
X69690711Y-79239711D01*
X69603109Y-79370814D01*
X69603103Y-79370825D01*
X69542763Y-79516501D01*
X69542763Y-79516503D01*
X69512000Y-79671155D01*
X50975000Y-79671155D01*
X50975000Y-77171155D01*
X96854500Y-77171155D01*
X96854500Y-77328844D01*
X96884704Y-77480686D01*
X96884704Y-77519313D01*
X96880819Y-77538844D01*
X96854500Y-77671155D01*
X96854500Y-77828844D01*
X96863043Y-77871789D01*
X96880641Y-77960263D01*
X96885263Y-77983496D01*
X96885263Y-77983498D01*
X96945603Y-78129174D01*
X96945609Y-78129185D01*
X96973656Y-78171159D01*
X97033211Y-78260289D01*
X97144711Y-78371789D01*
X97222876Y-78424017D01*
X97275814Y-78459390D01*
X97275825Y-78459396D01*
X97329638Y-78481685D01*
X97421503Y-78519737D01*
X97576158Y-78550500D01*
X97576159Y-78550500D01*
X97733841Y-78550500D01*
X97733842Y-78550500D01*
X97888497Y-78519737D01*
X98034179Y-78459394D01*
X98165289Y-78371789D01*
X98276789Y-78260289D01*
X98336347Y-78171155D01*
X114634500Y-78171155D01*
X114634500Y-78328844D01*
X114665263Y-78483496D01*
X114665263Y-78483498D01*
X114725605Y-78629178D01*
X114769585Y-78694998D01*
X114786194Y-78753886D01*
X114769585Y-78805002D01*
X114725605Y-78870821D01*
X114665263Y-79016501D01*
X114665263Y-79016503D01*
X114634500Y-79171155D01*
X114634500Y-79328844D01*
X114665263Y-79483496D01*
X114665263Y-79483498D01*
X114725603Y-79629174D01*
X114725609Y-79629185D01*
X114753656Y-79671159D01*
X114813211Y-79760289D01*
X114924711Y-79871789D01*
X114998592Y-79921155D01*
X115055814Y-79959390D01*
X115055825Y-79959396D01*
X115106204Y-79980263D01*
X115201503Y-80019737D01*
X115356158Y-80050500D01*
X115356159Y-80050500D01*
X115513841Y-80050500D01*
X115513842Y-80050500D01*
X115668497Y-80019737D01*
X115814179Y-79959394D01*
X115945289Y-79871789D01*
X116056789Y-79760289D01*
X116144394Y-79629179D01*
X116204737Y-79483497D01*
X116235500Y-79328842D01*
X116235500Y-79171158D01*
X116204737Y-79016503D01*
X116144394Y-78870821D01*
X116100413Y-78805000D01*
X116083805Y-78746114D01*
X116100413Y-78694999D01*
X116144394Y-78629179D01*
X116204737Y-78483497D01*
X116235500Y-78328842D01*
X116235500Y-78171158D01*
X116217619Y-78081264D01*
X116224811Y-78020504D01*
X116266343Y-77975574D01*
X116326353Y-77963637D01*
X116352602Y-77970487D01*
X116471503Y-78019737D01*
X116626158Y-78050500D01*
X116626159Y-78050500D01*
X116783841Y-78050500D01*
X116783842Y-78050500D01*
X116938497Y-78019737D01*
X117084179Y-77959394D01*
X117215289Y-77871789D01*
X117326789Y-77760289D01*
X117386347Y-77671155D01*
X119714500Y-77671155D01*
X119714500Y-77828844D01*
X119723043Y-77871789D01*
X119740641Y-77960263D01*
X119745263Y-77983496D01*
X119745263Y-77983498D01*
X119805605Y-78129178D01*
X119849585Y-78194998D01*
X119866194Y-78253886D01*
X119849585Y-78305002D01*
X119805605Y-78370821D01*
X119745263Y-78516501D01*
X119745263Y-78516503D01*
X119714500Y-78671155D01*
X119714500Y-78828844D01*
X119745263Y-78983496D01*
X119745263Y-78983498D01*
X119805603Y-79129174D01*
X119805609Y-79129185D01*
X119833656Y-79171159D01*
X119893211Y-79260289D01*
X120004711Y-79371789D01*
X120082876Y-79424017D01*
X120135814Y-79459390D01*
X120135825Y-79459396D01*
X120186204Y-79480263D01*
X120281503Y-79519737D01*
X120436158Y-79550500D01*
X120436159Y-79550500D01*
X120593841Y-79550500D01*
X120593842Y-79550500D01*
X120748497Y-79519737D01*
X120894179Y-79459394D01*
X121025289Y-79371789D01*
X121136789Y-79260289D01*
X121224394Y-79129179D01*
X121284737Y-78983497D01*
X121315500Y-78828842D01*
X121315500Y-78671158D01*
X121284737Y-78516503D01*
X121224394Y-78370821D01*
X121180413Y-78305000D01*
X121173380Y-78280065D01*
X121163907Y-78255942D01*
X121165214Y-78251113D01*
X121163805Y-78246114D01*
X121179288Y-78196721D01*
X121179818Y-78195889D01*
X121196345Y-78171155D01*
X129874500Y-78171155D01*
X129874500Y-78328844D01*
X129905263Y-78483496D01*
X129905263Y-78483498D01*
X129965605Y-78629178D01*
X130009585Y-78694998D01*
X130026194Y-78753886D01*
X130009585Y-78805002D01*
X129965605Y-78870821D01*
X129905263Y-79016501D01*
X129905263Y-79016503D01*
X129874500Y-79171155D01*
X129874500Y-79328844D01*
X129905263Y-79483496D01*
X129905263Y-79483498D01*
X129965603Y-79629174D01*
X129965609Y-79629185D01*
X129993656Y-79671159D01*
X130053211Y-79760289D01*
X130164711Y-79871789D01*
X130238592Y-79921155D01*
X130295814Y-79959390D01*
X130295825Y-79959396D01*
X130346204Y-79980263D01*
X130441503Y-80019737D01*
X130596158Y-80050500D01*
X130596159Y-80050500D01*
X130753841Y-80050500D01*
X130753842Y-80050500D01*
X130908497Y-80019737D01*
X131054179Y-79959394D01*
X131185289Y-79871789D01*
X131296789Y-79760289D01*
X131384394Y-79629179D01*
X131444737Y-79483497D01*
X131475500Y-79328842D01*
X131475500Y-79171158D01*
X131444737Y-79016503D01*
X131384394Y-78870821D01*
X131340413Y-78805000D01*
X131323805Y-78746114D01*
X131340413Y-78694999D01*
X131384394Y-78629179D01*
X131444737Y-78483497D01*
X131475500Y-78328842D01*
X131475500Y-78171158D01*
X131457619Y-78081264D01*
X131464811Y-78020504D01*
X131506343Y-77975574D01*
X131566353Y-77963637D01*
X131592602Y-77970487D01*
X131711503Y-78019737D01*
X131866158Y-78050500D01*
X131866159Y-78050500D01*
X132023841Y-78050500D01*
X132023842Y-78050500D01*
X132178497Y-78019737D01*
X132324179Y-77959394D01*
X132455289Y-77871789D01*
X132566789Y-77760289D01*
X132626347Y-77671155D01*
X134954500Y-77671155D01*
X134954500Y-77828844D01*
X134963043Y-77871789D01*
X134980641Y-77960263D01*
X134985263Y-77983496D01*
X134985263Y-77983498D01*
X135045605Y-78129178D01*
X135089585Y-78194998D01*
X135106194Y-78253886D01*
X135089585Y-78305002D01*
X135045605Y-78370821D01*
X134985263Y-78516501D01*
X134985263Y-78516503D01*
X134954500Y-78671155D01*
X134954500Y-78828844D01*
X134985263Y-78983496D01*
X134985263Y-78983498D01*
X135045603Y-79129174D01*
X135045609Y-79129185D01*
X135073656Y-79171159D01*
X135133211Y-79260289D01*
X135244711Y-79371789D01*
X135322876Y-79424017D01*
X135375814Y-79459390D01*
X135375825Y-79459396D01*
X135426204Y-79480263D01*
X135521503Y-79519737D01*
X135676158Y-79550500D01*
X135676159Y-79550500D01*
X135833841Y-79550500D01*
X135833842Y-79550500D01*
X135988497Y-79519737D01*
X136134179Y-79459394D01*
X136265289Y-79371789D01*
X136376789Y-79260289D01*
X136464394Y-79129179D01*
X136524737Y-78983497D01*
X136555500Y-78828842D01*
X136555500Y-78671158D01*
X136551521Y-78651155D01*
X147654500Y-78651155D01*
X147654500Y-78808844D01*
X147685263Y-78963496D01*
X147685263Y-78963498D01*
X147745603Y-79109174D01*
X147745609Y-79109186D01*
X147826512Y-79230263D01*
X147833211Y-79240289D01*
X147944711Y-79351789D01*
X147984259Y-79378214D01*
X148075814Y-79439390D01*
X148075825Y-79439396D01*
X148100219Y-79449500D01*
X148221503Y-79499737D01*
X148376158Y-79530500D01*
X148376159Y-79530500D01*
X148533841Y-79530500D01*
X148533842Y-79530500D01*
X148688497Y-79499737D01*
X148834179Y-79439394D01*
X148965289Y-79351789D01*
X149076789Y-79240289D01*
X149164394Y-79109179D01*
X149224737Y-78963497D01*
X149255500Y-78808842D01*
X149255500Y-78651158D01*
X149255499Y-78651155D01*
X154004500Y-78651155D01*
X154004500Y-78808844D01*
X154035263Y-78963496D01*
X154035263Y-78963498D01*
X154095603Y-79109174D01*
X154095609Y-79109185D01*
X154137017Y-79171155D01*
X154183211Y-79240289D01*
X154294711Y-79351789D01*
X154372876Y-79404017D01*
X154425814Y-79439390D01*
X154425825Y-79439396D01*
X154450219Y-79449500D01*
X154571503Y-79499737D01*
X154726158Y-79530500D01*
X154726159Y-79530500D01*
X154883841Y-79530500D01*
X154883842Y-79530500D01*
X155038497Y-79499737D01*
X155184179Y-79439394D01*
X155315289Y-79351789D01*
X155426789Y-79240289D01*
X155514394Y-79109179D01*
X155574737Y-78963497D01*
X155605500Y-78808842D01*
X155605500Y-78651158D01*
X155574737Y-78496503D01*
X155514394Y-78350821D01*
X155514393Y-78350819D01*
X155514390Y-78350814D01*
X155454043Y-78260500D01*
X155426789Y-78219711D01*
X155315289Y-78108211D01*
X155263059Y-78073312D01*
X155184185Y-78020609D01*
X155184174Y-78020603D01*
X155038497Y-77960263D01*
X154883844Y-77929500D01*
X154883842Y-77929500D01*
X154726158Y-77929500D01*
X154726155Y-77929500D01*
X154571503Y-77960263D01*
X154571501Y-77960263D01*
X154425825Y-78020603D01*
X154425813Y-78020609D01*
X154300995Y-78104011D01*
X154300991Y-78104014D01*
X154294711Y-78108211D01*
X154183211Y-78219711D01*
X154179014Y-78225991D01*
X154179011Y-78225995D01*
X154095609Y-78350813D01*
X154095603Y-78350825D01*
X154035263Y-78496501D01*
X154035263Y-78496503D01*
X154004500Y-78651155D01*
X149255499Y-78651155D01*
X149224737Y-78496503D01*
X149164394Y-78350821D01*
X149164393Y-78350819D01*
X149164390Y-78350814D01*
X149083487Y-78229736D01*
X149076789Y-78219711D01*
X148965289Y-78108211D01*
X148959002Y-78104010D01*
X148834186Y-78020609D01*
X148834174Y-78020603D01*
X148688497Y-77960263D01*
X148533844Y-77929500D01*
X148533842Y-77929500D01*
X148376158Y-77929500D01*
X148376155Y-77929500D01*
X148221503Y-77960263D01*
X148221501Y-77960263D01*
X148075825Y-78020603D01*
X148075814Y-78020609D01*
X147944711Y-78108211D01*
X147944707Y-78108214D01*
X147833214Y-78219707D01*
X147833211Y-78219711D01*
X147745609Y-78350814D01*
X147745603Y-78350825D01*
X147685263Y-78496501D01*
X147685263Y-78496503D01*
X147654500Y-78651155D01*
X136551521Y-78651155D01*
X136524737Y-78516503D01*
X136464394Y-78370821D01*
X136420413Y-78305000D01*
X136403805Y-78246114D01*
X136420413Y-78194999D01*
X136464394Y-78129179D01*
X136524737Y-77983497D01*
X136555500Y-77828842D01*
X136555500Y-77671158D01*
X136537619Y-77581264D01*
X136544811Y-77520504D01*
X136586343Y-77475574D01*
X136646353Y-77463637D01*
X136672602Y-77470487D01*
X136791503Y-77519737D01*
X136946158Y-77550500D01*
X136946159Y-77550500D01*
X137103841Y-77550500D01*
X137103842Y-77550500D01*
X137258497Y-77519737D01*
X137404179Y-77459394D01*
X137521272Y-77381155D01*
X148924500Y-77381155D01*
X148924500Y-77538844D01*
X148942277Y-77628211D01*
X148950819Y-77671158D01*
X148955263Y-77693496D01*
X148955263Y-77693498D01*
X149015603Y-77839174D01*
X149015609Y-77839186D01*
X149096512Y-77960263D01*
X149103211Y-77970289D01*
X149214711Y-78081789D01*
X149254259Y-78108214D01*
X149345814Y-78169390D01*
X149345825Y-78169396D01*
X149399638Y-78191685D01*
X149491503Y-78229737D01*
X149646158Y-78260500D01*
X149646159Y-78260500D01*
X149803841Y-78260500D01*
X149803842Y-78260500D01*
X149958497Y-78229737D01*
X150104179Y-78169394D01*
X150235289Y-78081789D01*
X150346789Y-77970289D01*
X150434394Y-77839179D01*
X150494737Y-77693497D01*
X150525500Y-77538842D01*
X150525500Y-77381158D01*
X150525499Y-77381155D01*
X152734500Y-77381155D01*
X152734500Y-77538844D01*
X152752277Y-77628211D01*
X152760819Y-77671158D01*
X152765263Y-77693496D01*
X152765263Y-77693498D01*
X152825603Y-77839174D01*
X152825609Y-77839185D01*
X152847395Y-77871789D01*
X152913211Y-77970289D01*
X153024711Y-78081789D01*
X153082429Y-78120355D01*
X153155814Y-78169390D01*
X153155825Y-78169396D01*
X153209638Y-78191685D01*
X153301503Y-78229737D01*
X153456158Y-78260500D01*
X153456159Y-78260500D01*
X153613841Y-78260500D01*
X153613842Y-78260500D01*
X153768497Y-78229737D01*
X153914179Y-78169394D01*
X154045289Y-78081789D01*
X154156789Y-77970289D01*
X154244394Y-77839179D01*
X154304737Y-77693497D01*
X154335500Y-77538842D01*
X154335500Y-77381158D01*
X154304737Y-77226503D01*
X154264427Y-77129185D01*
X154244396Y-77080825D01*
X154244390Y-77080814D01*
X154184043Y-76990500D01*
X154156789Y-76949711D01*
X154045289Y-76838211D01*
X153993059Y-76803312D01*
X153914185Y-76750609D01*
X153914174Y-76750603D01*
X153768497Y-76690263D01*
X153613844Y-76659500D01*
X153613842Y-76659500D01*
X153456158Y-76659500D01*
X153456155Y-76659500D01*
X153301503Y-76690263D01*
X153301501Y-76690263D01*
X153155825Y-76750603D01*
X153155814Y-76750609D01*
X153024711Y-76838211D01*
X153024707Y-76838214D01*
X152913214Y-76949707D01*
X152913211Y-76949711D01*
X152825609Y-77080814D01*
X152825603Y-77080825D01*
X152765263Y-77226501D01*
X152765263Y-77226503D01*
X152734500Y-77381155D01*
X150525499Y-77381155D01*
X150494737Y-77226503D01*
X150454427Y-77129185D01*
X150434396Y-77080825D01*
X150434390Y-77080814D01*
X150367203Y-76980263D01*
X150346789Y-76949711D01*
X150235289Y-76838211D01*
X150221272Y-76828845D01*
X150104186Y-76750609D01*
X150104174Y-76750603D01*
X149958497Y-76690263D01*
X149803844Y-76659500D01*
X149803842Y-76659500D01*
X149646158Y-76659500D01*
X149646155Y-76659500D01*
X149491503Y-76690263D01*
X149491501Y-76690263D01*
X149345825Y-76750603D01*
X149345814Y-76750609D01*
X149214711Y-76838211D01*
X149214707Y-76838214D01*
X149103214Y-76949707D01*
X149103211Y-76949711D01*
X149015609Y-77080814D01*
X149015603Y-77080825D01*
X148955263Y-77226501D01*
X148955263Y-77226503D01*
X148924500Y-77381155D01*
X137521272Y-77381155D01*
X137535289Y-77371789D01*
X137646789Y-77260289D01*
X137734394Y-77129179D01*
X137794737Y-76983497D01*
X137825500Y-76828842D01*
X137825500Y-76671158D01*
X137794737Y-76516503D01*
X137754240Y-76418734D01*
X137734395Y-76370823D01*
X137734394Y-76370821D01*
X137690413Y-76305000D01*
X137673805Y-76246114D01*
X137690413Y-76194999D01*
X137734394Y-76129179D01*
X137741860Y-76111155D01*
X150194500Y-76111155D01*
X150194500Y-76268844D01*
X150225263Y-76423496D01*
X150225263Y-76423498D01*
X150285603Y-76569174D01*
X150285609Y-76569186D01*
X150366512Y-76690263D01*
X150373211Y-76700289D01*
X150484711Y-76811789D01*
X150524259Y-76838214D01*
X150615814Y-76899390D01*
X150615825Y-76899396D01*
X150662512Y-76918734D01*
X150761503Y-76959737D01*
X150916158Y-76990500D01*
X150916159Y-76990500D01*
X151073841Y-76990500D01*
X151073842Y-76990500D01*
X151228497Y-76959737D01*
X151374179Y-76899394D01*
X151505289Y-76811789D01*
X151616789Y-76700289D01*
X151704394Y-76569179D01*
X151764737Y-76423497D01*
X151795500Y-76268842D01*
X151795500Y-76111158D01*
X151795499Y-76111155D01*
X159084500Y-76111155D01*
X159084500Y-76268844D01*
X159115263Y-76423496D01*
X159115263Y-76423498D01*
X159175603Y-76569174D01*
X159175609Y-76569185D01*
X159215050Y-76628211D01*
X159263211Y-76700289D01*
X159374711Y-76811789D01*
X159452876Y-76864017D01*
X159505814Y-76899390D01*
X159505825Y-76899396D01*
X159552512Y-76918734D01*
X159651503Y-76959737D01*
X159806158Y-76990500D01*
X159806159Y-76990500D01*
X159963841Y-76990500D01*
X159963842Y-76990500D01*
X160118497Y-76959737D01*
X160264179Y-76899394D01*
X160395289Y-76811789D01*
X160506789Y-76700289D01*
X160594394Y-76569179D01*
X160654737Y-76423497D01*
X160685500Y-76268842D01*
X160685500Y-76111158D01*
X160654737Y-75956503D01*
X160619244Y-75870814D01*
X160594396Y-75810825D01*
X160594390Y-75810814D01*
X160513487Y-75689736D01*
X160506789Y-75679711D01*
X160395289Y-75568211D01*
X160368783Y-75550500D01*
X160264186Y-75480609D01*
X160264174Y-75480603D01*
X160118497Y-75420263D01*
X159963844Y-75389500D01*
X159963842Y-75389500D01*
X159806158Y-75389500D01*
X159806155Y-75389500D01*
X159651503Y-75420263D01*
X159651501Y-75420263D01*
X159505825Y-75480603D01*
X159505814Y-75480609D01*
X159374711Y-75568211D01*
X159374707Y-75568214D01*
X159263214Y-75679707D01*
X159263211Y-75679711D01*
X159175609Y-75810814D01*
X159175603Y-75810825D01*
X159115263Y-75956501D01*
X159115263Y-75956503D01*
X159084500Y-76111155D01*
X151795499Y-76111155D01*
X151764737Y-75956503D01*
X151729244Y-75870814D01*
X151704396Y-75810825D01*
X151704390Y-75810814D01*
X151623487Y-75689736D01*
X151616789Y-75679711D01*
X151505289Y-75568211D01*
X151478783Y-75550500D01*
X151374186Y-75480609D01*
X151374174Y-75480603D01*
X151228497Y-75420263D01*
X151073844Y-75389500D01*
X151073842Y-75389500D01*
X150916158Y-75389500D01*
X150916155Y-75389500D01*
X150761503Y-75420263D01*
X150761501Y-75420263D01*
X150615825Y-75480603D01*
X150615814Y-75480609D01*
X150484711Y-75568211D01*
X150484707Y-75568214D01*
X150373214Y-75679707D01*
X150373211Y-75679711D01*
X150285609Y-75810814D01*
X150285603Y-75810825D01*
X150225263Y-75956501D01*
X150225263Y-75956503D01*
X150194500Y-76111155D01*
X137741860Y-76111155D01*
X137794737Y-75983497D01*
X137825500Y-75828842D01*
X137825500Y-75671158D01*
X137794737Y-75516503D01*
X137756422Y-75424002D01*
X137734396Y-75370825D01*
X137734390Y-75370814D01*
X137679926Y-75289304D01*
X137646789Y-75239711D01*
X137535289Y-75128211D01*
X137483059Y-75093312D01*
X137404185Y-75040609D01*
X137404174Y-75040603D01*
X137258497Y-74980263D01*
X137103844Y-74949500D01*
X137103842Y-74949500D01*
X136946158Y-74949500D01*
X136946155Y-74949500D01*
X136791503Y-74980263D01*
X136791501Y-74980263D01*
X136645825Y-75040603D01*
X136645814Y-75040609D01*
X136514711Y-75128211D01*
X136514707Y-75128214D01*
X136403214Y-75239707D01*
X136403211Y-75239711D01*
X136315609Y-75370814D01*
X136315603Y-75370825D01*
X136255263Y-75516501D01*
X136255263Y-75516503D01*
X136224500Y-75671155D01*
X136224500Y-75828844D01*
X136255263Y-75983496D01*
X136255263Y-75983498D01*
X136315605Y-76129178D01*
X136359585Y-76194998D01*
X136376194Y-76253886D01*
X136359585Y-76305002D01*
X136315605Y-76370821D01*
X136255263Y-76516501D01*
X136255263Y-76516503D01*
X136224500Y-76671155D01*
X136224500Y-76828845D01*
X136242380Y-76918734D01*
X136235188Y-76979496D01*
X136193655Y-77024425D01*
X136133645Y-77036362D01*
X136107397Y-77029512D01*
X135988497Y-76980263D01*
X135833844Y-76949500D01*
X135833842Y-76949500D01*
X135676158Y-76949500D01*
X135676155Y-76949500D01*
X135521503Y-76980263D01*
X135521501Y-76980263D01*
X135375825Y-77040603D01*
X135375814Y-77040609D01*
X135244711Y-77128211D01*
X135244707Y-77128214D01*
X135133214Y-77239707D01*
X135133211Y-77239711D01*
X135045609Y-77370814D01*
X135045603Y-77370825D01*
X134985263Y-77516501D01*
X134985263Y-77516503D01*
X134954500Y-77671155D01*
X132626347Y-77671155D01*
X132654394Y-77629179D01*
X132714737Y-77483497D01*
X132745500Y-77328842D01*
X132745500Y-77171158D01*
X132714737Y-77016503D01*
X132654394Y-76870821D01*
X132610413Y-76805000D01*
X132593805Y-76746114D01*
X132610413Y-76694999D01*
X132654394Y-76629179D01*
X132714737Y-76483497D01*
X132745500Y-76328842D01*
X132745500Y-76171158D01*
X132714737Y-76016503D01*
X132654394Y-75870821D01*
X132654393Y-75870819D01*
X132654390Y-75870814D01*
X132614303Y-75810821D01*
X132566789Y-75739711D01*
X132455289Y-75628211D01*
X132403059Y-75593312D01*
X132324185Y-75540609D01*
X132324174Y-75540603D01*
X132178497Y-75480263D01*
X132023844Y-75449500D01*
X132023842Y-75449500D01*
X131866158Y-75449500D01*
X131866155Y-75449500D01*
X131711503Y-75480263D01*
X131711501Y-75480263D01*
X131565825Y-75540603D01*
X131565814Y-75540609D01*
X131434711Y-75628211D01*
X131434707Y-75628214D01*
X131323214Y-75739707D01*
X131323211Y-75739711D01*
X131235609Y-75870814D01*
X131235603Y-75870825D01*
X131175263Y-76016501D01*
X131175263Y-76016503D01*
X131144500Y-76171155D01*
X131144500Y-76328844D01*
X131175263Y-76483496D01*
X131175263Y-76483498D01*
X131235605Y-76629178D01*
X131279585Y-76694998D01*
X131296194Y-76753886D01*
X131279585Y-76805002D01*
X131235605Y-76870821D01*
X131175263Y-77016501D01*
X131175263Y-77016503D01*
X131144500Y-77171155D01*
X131144500Y-77328845D01*
X131162380Y-77418734D01*
X131155188Y-77479496D01*
X131113655Y-77524425D01*
X131053645Y-77536362D01*
X131027397Y-77529512D01*
X130908497Y-77480263D01*
X130753844Y-77449500D01*
X130753842Y-77449500D01*
X130596158Y-77449500D01*
X130596155Y-77449500D01*
X130441503Y-77480263D01*
X130441501Y-77480263D01*
X130295825Y-77540603D01*
X130295814Y-77540609D01*
X130164711Y-77628211D01*
X130164707Y-77628214D01*
X130053214Y-77739707D01*
X130053211Y-77739711D01*
X129965609Y-77870814D01*
X129965603Y-77870825D01*
X129905263Y-78016501D01*
X129905263Y-78016503D01*
X129874500Y-78171155D01*
X121196345Y-78171155D01*
X121224394Y-78129179D01*
X121284737Y-77983497D01*
X121315500Y-77828842D01*
X121315500Y-77671158D01*
X121297619Y-77581264D01*
X121304811Y-77520504D01*
X121346343Y-77475574D01*
X121406353Y-77463637D01*
X121432602Y-77470487D01*
X121551503Y-77519737D01*
X121706158Y-77550500D01*
X121706159Y-77550500D01*
X121863841Y-77550500D01*
X121863842Y-77550500D01*
X122018497Y-77519737D01*
X122164179Y-77459394D01*
X122295289Y-77371789D01*
X122406789Y-77260289D01*
X122494394Y-77129179D01*
X122554737Y-76983497D01*
X122585500Y-76828842D01*
X122585500Y-76671158D01*
X122554737Y-76516503D01*
X122514240Y-76418734D01*
X122494395Y-76370823D01*
X122494394Y-76370821D01*
X122450413Y-76305000D01*
X122433805Y-76246114D01*
X122450413Y-76194999D01*
X122494394Y-76129179D01*
X122554737Y-75983497D01*
X122585500Y-75828842D01*
X122585500Y-75671158D01*
X122554737Y-75516503D01*
X122516422Y-75424002D01*
X122494396Y-75370825D01*
X122494390Y-75370814D01*
X122439926Y-75289304D01*
X122406789Y-75239711D01*
X122295289Y-75128211D01*
X122243059Y-75093312D01*
X122164185Y-75040609D01*
X122164174Y-75040603D01*
X122018497Y-74980263D01*
X121863844Y-74949500D01*
X121863842Y-74949500D01*
X121706158Y-74949500D01*
X121706155Y-74949500D01*
X121551503Y-74980263D01*
X121551501Y-74980263D01*
X121405825Y-75040603D01*
X121405814Y-75040609D01*
X121274711Y-75128211D01*
X121274707Y-75128214D01*
X121163214Y-75239707D01*
X121163211Y-75239711D01*
X121075609Y-75370814D01*
X121075603Y-75370825D01*
X121015263Y-75516501D01*
X121015263Y-75516503D01*
X120984500Y-75671155D01*
X120984500Y-75828844D01*
X121015263Y-75983496D01*
X121015263Y-75983498D01*
X121075605Y-76129178D01*
X121119585Y-76194998D01*
X121136194Y-76253886D01*
X121119585Y-76305002D01*
X121075605Y-76370821D01*
X121015263Y-76516501D01*
X121015263Y-76516503D01*
X120984500Y-76671155D01*
X120984500Y-76828845D01*
X121002380Y-76918734D01*
X120995188Y-76979496D01*
X120953655Y-77024425D01*
X120893645Y-77036362D01*
X120867397Y-77029512D01*
X120748497Y-76980263D01*
X120593844Y-76949500D01*
X120593842Y-76949500D01*
X120436158Y-76949500D01*
X120436155Y-76949500D01*
X120281503Y-76980263D01*
X120281501Y-76980263D01*
X120135825Y-77040603D01*
X120135814Y-77040609D01*
X120004711Y-77128211D01*
X120004707Y-77128214D01*
X119893214Y-77239707D01*
X119893211Y-77239711D01*
X119805609Y-77370814D01*
X119805603Y-77370825D01*
X119745263Y-77516501D01*
X119745263Y-77516503D01*
X119714500Y-77671155D01*
X117386347Y-77671155D01*
X117414394Y-77629179D01*
X117474737Y-77483497D01*
X117505500Y-77328842D01*
X117505500Y-77171158D01*
X117474737Y-77016503D01*
X117414394Y-76870821D01*
X117370413Y-76805000D01*
X117353805Y-76746114D01*
X117370413Y-76694999D01*
X117414394Y-76629179D01*
X117474737Y-76483497D01*
X117505500Y-76328842D01*
X117505500Y-76171158D01*
X117474737Y-76016503D01*
X117414394Y-75870821D01*
X117414393Y-75870819D01*
X117414390Y-75870814D01*
X117374303Y-75810821D01*
X117326789Y-75739711D01*
X117215289Y-75628211D01*
X117163059Y-75593312D01*
X117084185Y-75540609D01*
X117084174Y-75540603D01*
X116938497Y-75480263D01*
X116783844Y-75449500D01*
X116783842Y-75449500D01*
X116626158Y-75449500D01*
X116626155Y-75449500D01*
X116471503Y-75480263D01*
X116471501Y-75480263D01*
X116325825Y-75540603D01*
X116325814Y-75540609D01*
X116194711Y-75628211D01*
X116194707Y-75628214D01*
X116083214Y-75739707D01*
X116083211Y-75739711D01*
X115995609Y-75870814D01*
X115995603Y-75870825D01*
X115935263Y-76016501D01*
X115935263Y-76016503D01*
X115904500Y-76171155D01*
X115904500Y-76328844D01*
X115935263Y-76483496D01*
X115935263Y-76483498D01*
X115995605Y-76629178D01*
X116039585Y-76694998D01*
X116056194Y-76753886D01*
X116039585Y-76805002D01*
X115995605Y-76870821D01*
X115935263Y-77016501D01*
X115935263Y-77016503D01*
X115904500Y-77171155D01*
X115904500Y-77328845D01*
X115922380Y-77418734D01*
X115915188Y-77479496D01*
X115873655Y-77524425D01*
X115813645Y-77536362D01*
X115787397Y-77529512D01*
X115668497Y-77480263D01*
X115513844Y-77449500D01*
X115513842Y-77449500D01*
X115356158Y-77449500D01*
X115356155Y-77449500D01*
X115201503Y-77480263D01*
X115201501Y-77480263D01*
X115055825Y-77540603D01*
X115055814Y-77540609D01*
X114924711Y-77628211D01*
X114924707Y-77628214D01*
X114813214Y-77739707D01*
X114813211Y-77739711D01*
X114725609Y-77870814D01*
X114725603Y-77870825D01*
X114665263Y-78016501D01*
X114665263Y-78016503D01*
X114634500Y-78171155D01*
X98336347Y-78171155D01*
X98364394Y-78129179D01*
X98424737Y-77983497D01*
X98455500Y-77828842D01*
X98455500Y-77671158D01*
X98437619Y-77581264D01*
X98444811Y-77520504D01*
X98486343Y-77475574D01*
X98546353Y-77463637D01*
X98572602Y-77470487D01*
X98691503Y-77519737D01*
X98846158Y-77550500D01*
X98846159Y-77550500D01*
X99003841Y-77550500D01*
X99003842Y-77550500D01*
X99158497Y-77519737D01*
X99304179Y-77459394D01*
X99435289Y-77371789D01*
X99546789Y-77260289D01*
X99634394Y-77129179D01*
X99694737Y-76983497D01*
X99725500Y-76828842D01*
X99725500Y-76671158D01*
X99707619Y-76581264D01*
X99714811Y-76520504D01*
X99756343Y-76475574D01*
X99816353Y-76463637D01*
X99842602Y-76470487D01*
X99961503Y-76519737D01*
X100116158Y-76550500D01*
X100116159Y-76550500D01*
X100273841Y-76550500D01*
X100273842Y-76550500D01*
X100428497Y-76519737D01*
X100574179Y-76459394D01*
X100705289Y-76371789D01*
X100816789Y-76260289D01*
X100904394Y-76129179D01*
X100964737Y-75983497D01*
X100995500Y-75828842D01*
X100995500Y-75671158D01*
X100977619Y-75581264D01*
X100984811Y-75520504D01*
X101026343Y-75475574D01*
X101086353Y-75463637D01*
X101112602Y-75470487D01*
X101231503Y-75519737D01*
X101386158Y-75550500D01*
X101386159Y-75550500D01*
X101543841Y-75550500D01*
X101543842Y-75550500D01*
X101698497Y-75519737D01*
X101844179Y-75459394D01*
X101975289Y-75371789D01*
X102029996Y-75317082D01*
X102084512Y-75289304D01*
X102144944Y-75298875D01*
X102170004Y-75317082D01*
X102224702Y-75371781D01*
X102224706Y-75371784D01*
X102224711Y-75371789D01*
X102294969Y-75418734D01*
X102355814Y-75459390D01*
X102355825Y-75459396D01*
X102382602Y-75470487D01*
X102501503Y-75519737D01*
X102656158Y-75550500D01*
X102656159Y-75550500D01*
X102813841Y-75550500D01*
X102813842Y-75550500D01*
X102968497Y-75519737D01*
X103114179Y-75459394D01*
X103245289Y-75371789D01*
X103356789Y-75260289D01*
X103444394Y-75129179D01*
X103504737Y-74983497D01*
X103533051Y-74841155D01*
X151464500Y-74841155D01*
X151464500Y-74998844D01*
X151495263Y-75153496D01*
X151495263Y-75153498D01*
X151555603Y-75299174D01*
X151555609Y-75299186D01*
X151635490Y-75418734D01*
X151643211Y-75430289D01*
X151754711Y-75541789D01*
X151794259Y-75568214D01*
X151885814Y-75629390D01*
X151885825Y-75629396D01*
X151939638Y-75651685D01*
X152031503Y-75689737D01*
X152186158Y-75720500D01*
X152186159Y-75720500D01*
X152343841Y-75720500D01*
X152343842Y-75720500D01*
X152498497Y-75689737D01*
X152644179Y-75629394D01*
X152775289Y-75541789D01*
X152886789Y-75430289D01*
X152974394Y-75299179D01*
X153034737Y-75153497D01*
X153065500Y-74998842D01*
X153065500Y-74841158D01*
X153034737Y-74686503D01*
X152974394Y-74540821D01*
X152974393Y-74540819D01*
X152974390Y-74540814D01*
X152913375Y-74449500D01*
X152886789Y-74409711D01*
X152775289Y-74298211D01*
X152723059Y-74263312D01*
X152644185Y-74210609D01*
X152644174Y-74210603D01*
X152498497Y-74150263D01*
X152343844Y-74119500D01*
X152343842Y-74119500D01*
X152186158Y-74119500D01*
X152186155Y-74119500D01*
X152031503Y-74150263D01*
X152031501Y-74150263D01*
X151885825Y-74210603D01*
X151885814Y-74210609D01*
X151754711Y-74298211D01*
X151754707Y-74298214D01*
X151643214Y-74409707D01*
X151643211Y-74409711D01*
X151555609Y-74540814D01*
X151555603Y-74540825D01*
X151495263Y-74686501D01*
X151495263Y-74686503D01*
X151464500Y-74841155D01*
X103533051Y-74841155D01*
X103535500Y-74828842D01*
X103535500Y-74671158D01*
X103505295Y-74519308D01*
X103505295Y-74480691D01*
X103535500Y-74328842D01*
X103535500Y-74171158D01*
X103504737Y-74016503D01*
X103482575Y-73962999D01*
X103444396Y-73870825D01*
X103444390Y-73870814D01*
X103386572Y-73784285D01*
X103356789Y-73739711D01*
X103245289Y-73628211D01*
X103193059Y-73593312D01*
X103114185Y-73540609D01*
X103114174Y-73540603D01*
X102968497Y-73480263D01*
X102813844Y-73449500D01*
X102813842Y-73449500D01*
X102656158Y-73449500D01*
X102656155Y-73449500D01*
X102501503Y-73480263D01*
X102501501Y-73480263D01*
X102355825Y-73540603D01*
X102355814Y-73540609D01*
X102224711Y-73628211D01*
X102224707Y-73628214D01*
X102170004Y-73682918D01*
X102115487Y-73710695D01*
X102055055Y-73701124D01*
X102029996Y-73682918D01*
X101975292Y-73628214D01*
X101975289Y-73628211D01*
X101923059Y-73593312D01*
X101844185Y-73540609D01*
X101844174Y-73540603D01*
X101698497Y-73480263D01*
X101543844Y-73449500D01*
X101543842Y-73449500D01*
X101386158Y-73449500D01*
X101386155Y-73449500D01*
X101231503Y-73480263D01*
X101231501Y-73480263D01*
X101085825Y-73540603D01*
X101085814Y-73540609D01*
X100954711Y-73628211D01*
X100954707Y-73628214D01*
X100843214Y-73739707D01*
X100843211Y-73739711D01*
X100755609Y-73870814D01*
X100755603Y-73870825D01*
X100695263Y-74016501D01*
X100695263Y-74016503D01*
X100664500Y-74171155D01*
X100664500Y-74328844D01*
X100682381Y-74418734D01*
X100675189Y-74479495D01*
X100633657Y-74524425D01*
X100573647Y-74536362D01*
X100547398Y-74529512D01*
X100428497Y-74480263D01*
X100273844Y-74449500D01*
X100273842Y-74449500D01*
X100116158Y-74449500D01*
X100116155Y-74449500D01*
X99961503Y-74480263D01*
X99961501Y-74480263D01*
X99815825Y-74540603D01*
X99815814Y-74540609D01*
X99684711Y-74628211D01*
X99684707Y-74628214D01*
X99573214Y-74739707D01*
X99573211Y-74739711D01*
X99485609Y-74870814D01*
X99485603Y-74870825D01*
X99425263Y-75016501D01*
X99425263Y-75016503D01*
X99394500Y-75171155D01*
X99394500Y-75328844D01*
X99412381Y-75418734D01*
X99405189Y-75479495D01*
X99363657Y-75524425D01*
X99303647Y-75536362D01*
X99277398Y-75529512D01*
X99158497Y-75480263D01*
X99003844Y-75449500D01*
X99003842Y-75449500D01*
X98846158Y-75449500D01*
X98846155Y-75449500D01*
X98691503Y-75480263D01*
X98691501Y-75480263D01*
X98545825Y-75540603D01*
X98545814Y-75540609D01*
X98414711Y-75628211D01*
X98414707Y-75628214D01*
X98303214Y-75739707D01*
X98303211Y-75739711D01*
X98215609Y-75870814D01*
X98215603Y-75870825D01*
X98155263Y-76016501D01*
X98155263Y-76016503D01*
X98124500Y-76171155D01*
X98124500Y-76328844D01*
X98142381Y-76418734D01*
X98135189Y-76479495D01*
X98093657Y-76524425D01*
X98033647Y-76536362D01*
X98007398Y-76529512D01*
X97888497Y-76480263D01*
X97733844Y-76449500D01*
X97733842Y-76449500D01*
X97576158Y-76449500D01*
X97576155Y-76449500D01*
X97421503Y-76480263D01*
X97421501Y-76480263D01*
X97275825Y-76540603D01*
X97275814Y-76540609D01*
X97144711Y-76628211D01*
X97144707Y-76628214D01*
X97033214Y-76739707D01*
X97033211Y-76739711D01*
X96945609Y-76870814D01*
X96945603Y-76870825D01*
X96885263Y-77016501D01*
X96885263Y-77016503D01*
X96854500Y-77171155D01*
X50975000Y-77171155D01*
X50975000Y-73083655D01*
X155469500Y-73083655D01*
X155469500Y-73241344D01*
X155500263Y-73395996D01*
X155500263Y-73395998D01*
X155560603Y-73541674D01*
X155560609Y-73541685D01*
X155613312Y-73620559D01*
X155648211Y-73672789D01*
X155759711Y-73784289D01*
X155837876Y-73836517D01*
X155890814Y-73871890D01*
X155890825Y-73871896D01*
X155944638Y-73894185D01*
X156036503Y-73932237D01*
X156191158Y-73963000D01*
X156191159Y-73963000D01*
X156348841Y-73963000D01*
X156348842Y-73963000D01*
X156503497Y-73932237D01*
X156649179Y-73871894D01*
X156780289Y-73784289D01*
X156891789Y-73672789D01*
X156979394Y-73541679D01*
X157039737Y-73395997D01*
X157070500Y-73241342D01*
X157070500Y-73083658D01*
X157070499Y-73083655D01*
X157814500Y-73083655D01*
X157814500Y-73241344D01*
X157845263Y-73395996D01*
X157845263Y-73395998D01*
X157905603Y-73541674D01*
X157905609Y-73541685D01*
X157958312Y-73620559D01*
X157993211Y-73672789D01*
X158104711Y-73784289D01*
X158182876Y-73836517D01*
X158235814Y-73871890D01*
X158235825Y-73871896D01*
X158289638Y-73894185D01*
X158381503Y-73932237D01*
X158536158Y-73963000D01*
X158536159Y-73963000D01*
X158693841Y-73963000D01*
X158693842Y-73963000D01*
X158848497Y-73932237D01*
X158994179Y-73871894D01*
X159125289Y-73784289D01*
X159236789Y-73672789D01*
X159324394Y-73541679D01*
X159384737Y-73395997D01*
X159415500Y-73241342D01*
X159415500Y-73083658D01*
X159415499Y-73083655D01*
X160354500Y-73083655D01*
X160354500Y-73241344D01*
X160385263Y-73395996D01*
X160385263Y-73395998D01*
X160445603Y-73541674D01*
X160445609Y-73541685D01*
X160498312Y-73620559D01*
X160533211Y-73672789D01*
X160644711Y-73784289D01*
X160722876Y-73836517D01*
X160775814Y-73871890D01*
X160775825Y-73871896D01*
X160829638Y-73894185D01*
X160921503Y-73932237D01*
X160976671Y-73943210D01*
X160981403Y-73944152D01*
X161034787Y-73974049D01*
X161060403Y-74029614D01*
X161048466Y-74089624D01*
X161003536Y-74131156D01*
X160981403Y-74138348D01*
X160921503Y-74150263D01*
X160921501Y-74150263D01*
X160775825Y-74210603D01*
X160775814Y-74210609D01*
X160644711Y-74298211D01*
X160644707Y-74298214D01*
X160533214Y-74409707D01*
X160533211Y-74409711D01*
X160445609Y-74540814D01*
X160445603Y-74540825D01*
X160385263Y-74686501D01*
X160385263Y-74686503D01*
X160354500Y-74841155D01*
X160354500Y-74998844D01*
X160385263Y-75153496D01*
X160385263Y-75153498D01*
X160445603Y-75299174D01*
X160445609Y-75299186D01*
X160525490Y-75418734D01*
X160533211Y-75430289D01*
X160644711Y-75541789D01*
X160684259Y-75568214D01*
X160775814Y-75629390D01*
X160775825Y-75629396D01*
X160829638Y-75651685D01*
X160921503Y-75689737D01*
X161076158Y-75720500D01*
X161076159Y-75720500D01*
X161233841Y-75720500D01*
X161233842Y-75720500D01*
X161388497Y-75689737D01*
X161534179Y-75629394D01*
X161665289Y-75541789D01*
X161776789Y-75430289D01*
X161864394Y-75299179D01*
X161924737Y-75153497D01*
X161955500Y-74998842D01*
X161955500Y-74841158D01*
X161924737Y-74686503D01*
X161864394Y-74540821D01*
X161864393Y-74540819D01*
X161864390Y-74540814D01*
X161803375Y-74449500D01*
X161776789Y-74409711D01*
X161665289Y-74298211D01*
X161613059Y-74263312D01*
X161534185Y-74210609D01*
X161534174Y-74210603D01*
X161388497Y-74150263D01*
X161328595Y-74138347D01*
X161275212Y-74108451D01*
X161249596Y-74052886D01*
X161261533Y-73992876D01*
X161306463Y-73951344D01*
X161328594Y-73944152D01*
X161388497Y-73932237D01*
X161534179Y-73871894D01*
X161665289Y-73784289D01*
X161776789Y-73672789D01*
X161864394Y-73541679D01*
X161924737Y-73395997D01*
X161955500Y-73241342D01*
X161955500Y-73083658D01*
X161924737Y-72929003D01*
X161864394Y-72783321D01*
X161864393Y-72783319D01*
X161864390Y-72783314D01*
X161829017Y-72730376D01*
X161776789Y-72652211D01*
X161665289Y-72540711D01*
X161613059Y-72505812D01*
X161534185Y-72453109D01*
X161534174Y-72453103D01*
X161388497Y-72392763D01*
X161233844Y-72362000D01*
X161233842Y-72362000D01*
X161076158Y-72362000D01*
X161076155Y-72362000D01*
X160921503Y-72392763D01*
X160921501Y-72392763D01*
X160775825Y-72453103D01*
X160775814Y-72453109D01*
X160644711Y-72540711D01*
X160644707Y-72540714D01*
X160533214Y-72652207D01*
X160533211Y-72652211D01*
X160445609Y-72783314D01*
X160445603Y-72783325D01*
X160385263Y-72929001D01*
X160385263Y-72929003D01*
X160354500Y-73083655D01*
X159415499Y-73083655D01*
X159384737Y-72929003D01*
X159324394Y-72783321D01*
X159324393Y-72783319D01*
X159324390Y-72783314D01*
X159289017Y-72730376D01*
X159236789Y-72652211D01*
X159125289Y-72540711D01*
X159073059Y-72505812D01*
X158994185Y-72453109D01*
X158994174Y-72453103D01*
X158848497Y-72392763D01*
X158693844Y-72362000D01*
X158693842Y-72362000D01*
X158536158Y-72362000D01*
X158536155Y-72362000D01*
X158381503Y-72392763D01*
X158381501Y-72392763D01*
X158235825Y-72453103D01*
X158235814Y-72453109D01*
X158104711Y-72540711D01*
X158104707Y-72540714D01*
X157993214Y-72652207D01*
X157993211Y-72652211D01*
X157905609Y-72783314D01*
X157905603Y-72783325D01*
X157845263Y-72929001D01*
X157845263Y-72929003D01*
X157814500Y-73083655D01*
X157070499Y-73083655D01*
X157039737Y-72929003D01*
X156979394Y-72783321D01*
X156979393Y-72783319D01*
X156979390Y-72783314D01*
X156944017Y-72730376D01*
X156891789Y-72652211D01*
X156780289Y-72540711D01*
X156728059Y-72505812D01*
X156649185Y-72453109D01*
X156649174Y-72453103D01*
X156503497Y-72392763D01*
X156348844Y-72362000D01*
X156348842Y-72362000D01*
X156191158Y-72362000D01*
X156191155Y-72362000D01*
X156036503Y-72392763D01*
X156036501Y-72392763D01*
X155890825Y-72453103D01*
X155890814Y-72453109D01*
X155759711Y-72540711D01*
X155759707Y-72540714D01*
X155648214Y-72652207D01*
X155648211Y-72652211D01*
X155560609Y-72783314D01*
X155560603Y-72783325D01*
X155500263Y-72929001D01*
X155500263Y-72929003D01*
X155469500Y-73083655D01*
X50975000Y-73083655D01*
X50975000Y-55921155D01*
X124794500Y-55921155D01*
X124794500Y-56078844D01*
X124825263Y-56233496D01*
X124825263Y-56233498D01*
X124885603Y-56379174D01*
X124885609Y-56379185D01*
X124938312Y-56458059D01*
X124973211Y-56510289D01*
X125084711Y-56621789D01*
X125162876Y-56674017D01*
X125215814Y-56709390D01*
X125215825Y-56709396D01*
X125269638Y-56731685D01*
X125361503Y-56769737D01*
X125516158Y-56800500D01*
X125516159Y-56800500D01*
X125673841Y-56800500D01*
X125673842Y-56800500D01*
X125828497Y-56769737D01*
X125974179Y-56709394D01*
X126105289Y-56621789D01*
X126159996Y-56567082D01*
X126214512Y-56539304D01*
X126274944Y-56548875D01*
X126300004Y-56567082D01*
X126354702Y-56621781D01*
X126354706Y-56621784D01*
X126354711Y-56621789D01*
X126432876Y-56674017D01*
X126485814Y-56709390D01*
X126485825Y-56709396D01*
X126539638Y-56731685D01*
X126631503Y-56769737D01*
X126786158Y-56800500D01*
X126786159Y-56800500D01*
X126943841Y-56800500D01*
X126943842Y-56800500D01*
X127098497Y-56769737D01*
X127244179Y-56709394D01*
X127375289Y-56621789D01*
X127429996Y-56567082D01*
X127484512Y-56539304D01*
X127544944Y-56548875D01*
X127570004Y-56567082D01*
X127624702Y-56621781D01*
X127624706Y-56621784D01*
X127624711Y-56621789D01*
X127702876Y-56674017D01*
X127755814Y-56709390D01*
X127755825Y-56709396D01*
X127809638Y-56731685D01*
X127901503Y-56769737D01*
X128056158Y-56800500D01*
X128056159Y-56800500D01*
X128213841Y-56800500D01*
X128213842Y-56800500D01*
X128368497Y-56769737D01*
X128514179Y-56709394D01*
X128645289Y-56621789D01*
X128699996Y-56567082D01*
X128754512Y-56539304D01*
X128814944Y-56548875D01*
X128840004Y-56567082D01*
X128894702Y-56621781D01*
X128894706Y-56621784D01*
X128894711Y-56621789D01*
X128972876Y-56674017D01*
X129025814Y-56709390D01*
X129025825Y-56709396D01*
X129079638Y-56731685D01*
X129171503Y-56769737D01*
X129326158Y-56800500D01*
X129326159Y-56800500D01*
X129483841Y-56800500D01*
X129483842Y-56800500D01*
X129638497Y-56769737D01*
X129784179Y-56709394D01*
X129915289Y-56621789D01*
X130026789Y-56510289D01*
X130114394Y-56379179D01*
X130174737Y-56233497D01*
X130205500Y-56078842D01*
X130205500Y-55921158D01*
X130174737Y-55766503D01*
X130114394Y-55620821D01*
X130114393Y-55620819D01*
X130114390Y-55620814D01*
X130079017Y-55567876D01*
X130026789Y-55489711D01*
X129915289Y-55378211D01*
X129863059Y-55343312D01*
X129784185Y-55290609D01*
X129784174Y-55290603D01*
X129638497Y-55230263D01*
X129483844Y-55199500D01*
X129483842Y-55199500D01*
X129326158Y-55199500D01*
X129326155Y-55199500D01*
X129171503Y-55230263D01*
X129171501Y-55230263D01*
X129025825Y-55290603D01*
X129025814Y-55290609D01*
X128894711Y-55378211D01*
X128894707Y-55378214D01*
X128840004Y-55432918D01*
X128785487Y-55460695D01*
X128725055Y-55451124D01*
X128699996Y-55432918D01*
X128645292Y-55378214D01*
X128645289Y-55378211D01*
X128593059Y-55343312D01*
X128514185Y-55290609D01*
X128514174Y-55290603D01*
X128368497Y-55230263D01*
X128213844Y-55199500D01*
X128213842Y-55199500D01*
X128056158Y-55199500D01*
X128056155Y-55199500D01*
X127901503Y-55230263D01*
X127901501Y-55230263D01*
X127755825Y-55290603D01*
X127755814Y-55290609D01*
X127624711Y-55378211D01*
X127624707Y-55378214D01*
X127570004Y-55432918D01*
X127515487Y-55460695D01*
X127455055Y-55451124D01*
X127429996Y-55432918D01*
X127375292Y-55378214D01*
X127375289Y-55378211D01*
X127323059Y-55343312D01*
X127244185Y-55290609D01*
X127244174Y-55290603D01*
X127098497Y-55230263D01*
X126943844Y-55199500D01*
X126943842Y-55199500D01*
X126786158Y-55199500D01*
X126786155Y-55199500D01*
X126631503Y-55230263D01*
X126631501Y-55230263D01*
X126485825Y-55290603D01*
X126485814Y-55290609D01*
X126354711Y-55378211D01*
X126354707Y-55378214D01*
X126300004Y-55432918D01*
X126245487Y-55460695D01*
X126185055Y-55451124D01*
X126159996Y-55432918D01*
X126105292Y-55378214D01*
X126105289Y-55378211D01*
X126053059Y-55343312D01*
X125974185Y-55290609D01*
X125974174Y-55290603D01*
X125828497Y-55230263D01*
X125673844Y-55199500D01*
X125673842Y-55199500D01*
X125516158Y-55199500D01*
X125516155Y-55199500D01*
X125361503Y-55230263D01*
X125361501Y-55230263D01*
X125215825Y-55290603D01*
X125215814Y-55290609D01*
X125084711Y-55378211D01*
X125084707Y-55378214D01*
X124973214Y-55489707D01*
X124973211Y-55489711D01*
X124885609Y-55620814D01*
X124885603Y-55620825D01*
X124825263Y-55766501D01*
X124825263Y-55766503D01*
X124794500Y-55921155D01*
X50975000Y-55921155D01*
X50975000Y-51074000D01*
X50993907Y-51015809D01*
X51043407Y-50979845D01*
X51074000Y-50975000D01*
X203926000Y-50975000D01*
X203984191Y-50993907D01*
G37*
%TD.AperFunction*%
%TD*%
M02*
